G04 #@! TF.GenerationSoftware,KiCad,Pcbnew,(5.99.0-6495-g15369915cc)*
G04 #@! TF.CreationDate,2020-10-24T18:43:56+02:00*
G04 #@! TF.ProjectId,EVAL-MP8862,4556414c-2d4d-4503-9838-36322e6b6963,1A*
G04 #@! TF.SameCoordinates,Original*
G04 #@! TF.FileFunction,Legend,Top*
G04 #@! TF.FilePolarity,Positive*
%FSLAX46Y46*%
G04 Gerber Fmt 4.6, Leading zero omitted, Abs format (unit mm)*
G04 Created by KiCad (PCBNEW (5.99.0-6495-g15369915cc)) date 2020-10-24 18:43:56*
%MOMM*%
%LPD*%
G01*
G04 APERTURE LIST*
%ADD10C,0.100000*%
%ADD11C,0.150000*%
%ADD12C,0.300000*%
%ADD13C,0.400000*%
%ADD14C,0.125000*%
%ADD15C,0.120000*%
%ADD16C,0.200000*%
G04 APERTURE END LIST*
D10*
D11*
X177002200Y-166007200D02*
X177002200Y-198007200D01*
X285002200Y-198007200D01*
X285002200Y-166007200D01*
X177002200Y-166007200D01*
D10*
D11*
X10000000Y-10000000D02*
X10000000Y-200007200D01*
X287002200Y-200007200D01*
X287002200Y-10000000D01*
X10000000Y-10000000D01*
D10*
D11*
X12000000Y-12000000D02*
X12000000Y-198007200D01*
X285002200Y-198007200D01*
X285002200Y-12000000D01*
X12000000Y-12000000D01*
D10*
D11*
X60000000Y-12000000D02*
X60000000Y-10000000D01*
D10*
D11*
X110000000Y-12000000D02*
X110000000Y-10000000D01*
D10*
D11*
X160000000Y-12000000D02*
X160000000Y-10000000D01*
D10*
D11*
X210000000Y-12000000D02*
X210000000Y-10000000D01*
D10*
D11*
X260000000Y-12000000D02*
X260000000Y-10000000D01*
D10*
D11*
X36065476Y-11588095D02*
X35322619Y-11588095D01*
X35694047Y-11588095D02*
X35694047Y-10288095D01*
X35570238Y-10473809D01*
X35446428Y-10597619D01*
X35322619Y-10659523D01*
D10*
D11*
X85322619Y-10411904D02*
X85384523Y-10350000D01*
X85508333Y-10288095D01*
X85817857Y-10288095D01*
X85941666Y-10350000D01*
X86003571Y-10411904D01*
X86065476Y-10535714D01*
X86065476Y-10659523D01*
X86003571Y-10845238D01*
X85260714Y-11588095D01*
X86065476Y-11588095D01*
D10*
D11*
X135260714Y-10288095D02*
X136065476Y-10288095D01*
X135632142Y-10783333D01*
X135817857Y-10783333D01*
X135941666Y-10845238D01*
X136003571Y-10907142D01*
X136065476Y-11030952D01*
X136065476Y-11340476D01*
X136003571Y-11464285D01*
X135941666Y-11526190D01*
X135817857Y-11588095D01*
X135446428Y-11588095D01*
X135322619Y-11526190D01*
X135260714Y-11464285D01*
D10*
D11*
X185941666Y-10721428D02*
X185941666Y-11588095D01*
X185632142Y-10226190D02*
X185322619Y-11154761D01*
X186127380Y-11154761D01*
D10*
D11*
X236003571Y-10288095D02*
X235384523Y-10288095D01*
X235322619Y-10907142D01*
X235384523Y-10845238D01*
X235508333Y-10783333D01*
X235817857Y-10783333D01*
X235941666Y-10845238D01*
X236003571Y-10907142D01*
X236065476Y-11030952D01*
X236065476Y-11340476D01*
X236003571Y-11464285D01*
X235941666Y-11526190D01*
X235817857Y-11588095D01*
X235508333Y-11588095D01*
X235384523Y-11526190D01*
X235322619Y-11464285D01*
D10*
D11*
X285941666Y-10288095D02*
X285694047Y-10288095D01*
X285570238Y-10350000D01*
X285508333Y-10411904D01*
X285384523Y-10597619D01*
X285322619Y-10845238D01*
X285322619Y-11340476D01*
X285384523Y-11464285D01*
X285446428Y-11526190D01*
X285570238Y-11588095D01*
X285817857Y-11588095D01*
X285941666Y-11526190D01*
X286003571Y-11464285D01*
X286065476Y-11340476D01*
X286065476Y-11030952D01*
X286003571Y-10907142D01*
X285941666Y-10845238D01*
X285817857Y-10783333D01*
X285570238Y-10783333D01*
X285446428Y-10845238D01*
X285384523Y-10907142D01*
X285322619Y-11030952D01*
D10*
D11*
X60000000Y-198007200D02*
X60000000Y-200007200D01*
D10*
D11*
X110000000Y-198007200D02*
X110000000Y-200007200D01*
D10*
D11*
X160000000Y-198007200D02*
X160000000Y-200007200D01*
D10*
D11*
X210000000Y-198007200D02*
X210000000Y-200007200D01*
D10*
D11*
X260000000Y-198007200D02*
X260000000Y-200007200D01*
D10*
D11*
X36065476Y-199595295D02*
X35322619Y-199595295D01*
X35694047Y-199595295D02*
X35694047Y-198295295D01*
X35570238Y-198481009D01*
X35446428Y-198604819D01*
X35322619Y-198666723D01*
D10*
D11*
X85322619Y-198419104D02*
X85384523Y-198357200D01*
X85508333Y-198295295D01*
X85817857Y-198295295D01*
X85941666Y-198357200D01*
X86003571Y-198419104D01*
X86065476Y-198542914D01*
X86065476Y-198666723D01*
X86003571Y-198852438D01*
X85260714Y-199595295D01*
X86065476Y-199595295D01*
D10*
D11*
X135260714Y-198295295D02*
X136065476Y-198295295D01*
X135632142Y-198790533D01*
X135817857Y-198790533D01*
X135941666Y-198852438D01*
X136003571Y-198914342D01*
X136065476Y-199038152D01*
X136065476Y-199347676D01*
X136003571Y-199471485D01*
X135941666Y-199533390D01*
X135817857Y-199595295D01*
X135446428Y-199595295D01*
X135322619Y-199533390D01*
X135260714Y-199471485D01*
D10*
D11*
X185941666Y-198728628D02*
X185941666Y-199595295D01*
X185632142Y-198233390D02*
X185322619Y-199161961D01*
X186127380Y-199161961D01*
D10*
D11*
X236003571Y-198295295D02*
X235384523Y-198295295D01*
X235322619Y-198914342D01*
X235384523Y-198852438D01*
X235508333Y-198790533D01*
X235817857Y-198790533D01*
X235941666Y-198852438D01*
X236003571Y-198914342D01*
X236065476Y-199038152D01*
X236065476Y-199347676D01*
X236003571Y-199471485D01*
X235941666Y-199533390D01*
X235817857Y-199595295D01*
X235508333Y-199595295D01*
X235384523Y-199533390D01*
X235322619Y-199471485D01*
D10*
D11*
X285941666Y-198295295D02*
X285694047Y-198295295D01*
X285570238Y-198357200D01*
X285508333Y-198419104D01*
X285384523Y-198604819D01*
X285322619Y-198852438D01*
X285322619Y-199347676D01*
X285384523Y-199471485D01*
X285446428Y-199533390D01*
X285570238Y-199595295D01*
X285817857Y-199595295D01*
X285941666Y-199533390D01*
X286003571Y-199471485D01*
X286065476Y-199347676D01*
X286065476Y-199038152D01*
X286003571Y-198914342D01*
X285941666Y-198852438D01*
X285817857Y-198790533D01*
X285570238Y-198790533D01*
X285446428Y-198852438D01*
X285384523Y-198914342D01*
X285322619Y-199038152D01*
D10*
D11*
X10000000Y-60000000D02*
X12000000Y-60000000D01*
D10*
D11*
X10000000Y-110000000D02*
X12000000Y-110000000D01*
D10*
D11*
X10000000Y-160000000D02*
X12000000Y-160000000D01*
D10*
D11*
X10690476Y-35216666D02*
X11309523Y-35216666D01*
X10566666Y-35588095D02*
X11000000Y-34288095D01*
X11433333Y-35588095D01*
D10*
D11*
X11092857Y-84907142D02*
X11278571Y-84969047D01*
X11340476Y-85030952D01*
X11402380Y-85154761D01*
X11402380Y-85340476D01*
X11340476Y-85464285D01*
X11278571Y-85526190D01*
X11154761Y-85588095D01*
X10659523Y-85588095D01*
X10659523Y-84288095D01*
X11092857Y-84288095D01*
X11216666Y-84350000D01*
X11278571Y-84411904D01*
X11340476Y-84535714D01*
X11340476Y-84659523D01*
X11278571Y-84783333D01*
X11216666Y-84845238D01*
X11092857Y-84907142D01*
X10659523Y-84907142D01*
D10*
D11*
X11402380Y-135464285D02*
X11340476Y-135526190D01*
X11154761Y-135588095D01*
X11030952Y-135588095D01*
X10845238Y-135526190D01*
X10721428Y-135402380D01*
X10659523Y-135278571D01*
X10597619Y-135030952D01*
X10597619Y-134845238D01*
X10659523Y-134597619D01*
X10721428Y-134473809D01*
X10845238Y-134350000D01*
X11030952Y-134288095D01*
X11154761Y-134288095D01*
X11340476Y-134350000D01*
X11402380Y-134411904D01*
D10*
D11*
X10659523Y-185588095D02*
X10659523Y-184288095D01*
X10969047Y-184288095D01*
X11154761Y-184350000D01*
X11278571Y-184473809D01*
X11340476Y-184597619D01*
X11402380Y-184845238D01*
X11402380Y-185030952D01*
X11340476Y-185278571D01*
X11278571Y-185402380D01*
X11154761Y-185526190D01*
X10969047Y-185588095D01*
X10659523Y-185588095D01*
D10*
D11*
X287002200Y-60000000D02*
X285002200Y-60000000D01*
D10*
D11*
X287002200Y-110000000D02*
X285002200Y-110000000D01*
D10*
D11*
X287002200Y-160000000D02*
X285002200Y-160000000D01*
D10*
D11*
X285692676Y-35216666D02*
X286311723Y-35216666D01*
X285568866Y-35588095D02*
X286002200Y-34288095D01*
X286435533Y-35588095D01*
D10*
D11*
X286095057Y-84907142D02*
X286280771Y-84969047D01*
X286342676Y-85030952D01*
X286404580Y-85154761D01*
X286404580Y-85340476D01*
X286342676Y-85464285D01*
X286280771Y-85526190D01*
X286156961Y-85588095D01*
X285661723Y-85588095D01*
X285661723Y-84288095D01*
X286095057Y-84288095D01*
X286218866Y-84350000D01*
X286280771Y-84411904D01*
X286342676Y-84535714D01*
X286342676Y-84659523D01*
X286280771Y-84783333D01*
X286218866Y-84845238D01*
X286095057Y-84907142D01*
X285661723Y-84907142D01*
D10*
D11*
X286404580Y-135464285D02*
X286342676Y-135526190D01*
X286156961Y-135588095D01*
X286033152Y-135588095D01*
X285847438Y-135526190D01*
X285723628Y-135402380D01*
X285661723Y-135278571D01*
X285599819Y-135030952D01*
X285599819Y-134845238D01*
X285661723Y-134597619D01*
X285723628Y-134473809D01*
X285847438Y-134350000D01*
X286033152Y-134288095D01*
X286156961Y-134288095D01*
X286342676Y-134350000D01*
X286404580Y-134411904D01*
D10*
D11*
X285661723Y-185588095D02*
X285661723Y-184288095D01*
X285971247Y-184288095D01*
X286156961Y-184350000D01*
X286280771Y-184473809D01*
X286342676Y-184597619D01*
X286404580Y-184845238D01*
X286404580Y-185030952D01*
X286342676Y-185278571D01*
X286280771Y-185402380D01*
X286156961Y-185526190D01*
X285971247Y-185588095D01*
X285661723Y-185588095D01*
D10*
D11*
X200434342Y-193785771D02*
X200434342Y-192285771D01*
X200791485Y-192285771D01*
X201005771Y-192357200D01*
X201148628Y-192500057D01*
X201220057Y-192642914D01*
X201291485Y-192928628D01*
X201291485Y-193142914D01*
X201220057Y-193428628D01*
X201148628Y-193571485D01*
X201005771Y-193714342D01*
X200791485Y-193785771D01*
X200434342Y-193785771D01*
X202577200Y-193785771D02*
X202577200Y-193000057D01*
X202505771Y-192857200D01*
X202362914Y-192785771D01*
X202077200Y-192785771D01*
X201934342Y-192857200D01*
X202577200Y-193714342D02*
X202434342Y-193785771D01*
X202077200Y-193785771D01*
X201934342Y-193714342D01*
X201862914Y-193571485D01*
X201862914Y-193428628D01*
X201934342Y-193285771D01*
X202077200Y-193214342D01*
X202434342Y-193214342D01*
X202577200Y-193142914D01*
X203077200Y-192785771D02*
X203648628Y-192785771D01*
X203291485Y-192285771D02*
X203291485Y-193571485D01*
X203362914Y-193714342D01*
X203505771Y-193785771D01*
X203648628Y-193785771D01*
X204720057Y-193714342D02*
X204577200Y-193785771D01*
X204291485Y-193785771D01*
X204148628Y-193714342D01*
X204077200Y-193571485D01*
X204077200Y-193000057D01*
X204148628Y-192857200D01*
X204291485Y-192785771D01*
X204577200Y-192785771D01*
X204720057Y-192857200D01*
X204791485Y-193000057D01*
X204791485Y-193142914D01*
X204077200Y-193285771D01*
X205434342Y-193642914D02*
X205505771Y-193714342D01*
X205434342Y-193785771D01*
X205362914Y-193714342D01*
X205434342Y-193642914D01*
X205434342Y-193785771D01*
X205434342Y-192857200D02*
X205505771Y-192928628D01*
X205434342Y-193000057D01*
X205362914Y-192928628D01*
X205434342Y-192857200D01*
X205434342Y-193000057D01*
X207220057Y-192428628D02*
X207291485Y-192357200D01*
X207434342Y-192285771D01*
X207791485Y-192285771D01*
X207934342Y-192357200D01*
X208005771Y-192428628D01*
X208077200Y-192571485D01*
X208077200Y-192714342D01*
X208005771Y-192928628D01*
X207148628Y-193785771D01*
X208077200Y-193785771D01*
X209005771Y-192285771D02*
X209148628Y-192285771D01*
X209291485Y-192357200D01*
X209362914Y-192428628D01*
X209434342Y-192571485D01*
X209505771Y-192857200D01*
X209505771Y-193214342D01*
X209434342Y-193500057D01*
X209362914Y-193642914D01*
X209291485Y-193714342D01*
X209148628Y-193785771D01*
X209005771Y-193785771D01*
X208862914Y-193714342D01*
X208791485Y-193642914D01*
X208720057Y-193500057D01*
X208648628Y-193214342D01*
X208648628Y-192857200D01*
X208720057Y-192571485D01*
X208791485Y-192428628D01*
X208862914Y-192357200D01*
X209005771Y-192285771D01*
X210077200Y-192428628D02*
X210148628Y-192357200D01*
X210291485Y-192285771D01*
X210648628Y-192285771D01*
X210791485Y-192357200D01*
X210862914Y-192428628D01*
X210934342Y-192571485D01*
X210934342Y-192714342D01*
X210862914Y-192928628D01*
X210005771Y-193785771D01*
X210934342Y-193785771D01*
X211862914Y-192285771D02*
X212005771Y-192285771D01*
X212148628Y-192357200D01*
X212220057Y-192428628D01*
X212291485Y-192571485D01*
X212362914Y-192857200D01*
X212362914Y-193214342D01*
X212291485Y-193500057D01*
X212220057Y-193642914D01*
X212148628Y-193714342D01*
X212005771Y-193785771D01*
X211862914Y-193785771D01*
X211720057Y-193714342D01*
X211648628Y-193642914D01*
X211577200Y-193500057D01*
X211505771Y-193214342D01*
X211505771Y-192857200D01*
X211577200Y-192571485D01*
X211648628Y-192428628D01*
X211720057Y-192357200D01*
X211862914Y-192285771D01*
X213005771Y-193214342D02*
X214148628Y-193214342D01*
X215648628Y-193785771D02*
X214791485Y-193785771D01*
X215220057Y-193785771D02*
X215220057Y-192285771D01*
X215077200Y-192500057D01*
X214934342Y-192642914D01*
X214791485Y-192714342D01*
X216577200Y-192285771D02*
X216720057Y-192285771D01*
X216862914Y-192357200D01*
X216934342Y-192428628D01*
X217005771Y-192571485D01*
X217077200Y-192857200D01*
X217077200Y-193214342D01*
X217005771Y-193500057D01*
X216934342Y-193642914D01*
X216862914Y-193714342D01*
X216720057Y-193785771D01*
X216577200Y-193785771D01*
X216434342Y-193714342D01*
X216362914Y-193642914D01*
X216291485Y-193500057D01*
X216220057Y-193214342D01*
X216220057Y-192857200D01*
X216291485Y-192571485D01*
X216362914Y-192428628D01*
X216434342Y-192357200D01*
X216577200Y-192285771D01*
X217720057Y-193214342D02*
X218862914Y-193214342D01*
X219505771Y-192428628D02*
X219577200Y-192357200D01*
X219720057Y-192285771D01*
X220077200Y-192285771D01*
X220220057Y-192357200D01*
X220291485Y-192428628D01*
X220362914Y-192571485D01*
X220362914Y-192714342D01*
X220291485Y-192928628D01*
X219434342Y-193785771D01*
X220362914Y-193785771D01*
X221648628Y-192785771D02*
X221648628Y-193785771D01*
X221291485Y-192214342D02*
X220934342Y-193285771D01*
X221862914Y-193285771D01*
D10*
D11*
X177002200Y-194507200D02*
X285002200Y-194507200D01*
D10*
D11*
X178434342Y-196585771D02*
X178434342Y-195085771D01*
X179291485Y-196585771D02*
X178648628Y-195728628D01*
X179291485Y-195085771D02*
X178434342Y-195942914D01*
X179934342Y-196585771D02*
X179934342Y-195585771D01*
X179934342Y-195085771D02*
X179862914Y-195157200D01*
X179934342Y-195228628D01*
X180005771Y-195157200D01*
X179934342Y-195085771D01*
X179934342Y-195228628D01*
X181505771Y-196442914D02*
X181434342Y-196514342D01*
X181220057Y-196585771D01*
X181077200Y-196585771D01*
X180862914Y-196514342D01*
X180720057Y-196371485D01*
X180648628Y-196228628D01*
X180577200Y-195942914D01*
X180577200Y-195728628D01*
X180648628Y-195442914D01*
X180720057Y-195300057D01*
X180862914Y-195157200D01*
X181077200Y-195085771D01*
X181220057Y-195085771D01*
X181434342Y-195157200D01*
X181505771Y-195228628D01*
X182791485Y-196585771D02*
X182791485Y-195800057D01*
X182720057Y-195657200D01*
X182577200Y-195585771D01*
X182291485Y-195585771D01*
X182148628Y-195657200D01*
X182791485Y-196514342D02*
X182648628Y-196585771D01*
X182291485Y-196585771D01*
X182148628Y-196514342D01*
X182077200Y-196371485D01*
X182077200Y-196228628D01*
X182148628Y-196085771D01*
X182291485Y-196014342D01*
X182648628Y-196014342D01*
X182791485Y-195942914D01*
X184148628Y-196585771D02*
X184148628Y-195085771D01*
X184148628Y-196514342D02*
X184005771Y-196585771D01*
X183720057Y-196585771D01*
X183577200Y-196514342D01*
X183505771Y-196442914D01*
X183434342Y-196300057D01*
X183434342Y-195871485D01*
X183505771Y-195728628D01*
X183577200Y-195657200D01*
X183720057Y-195585771D01*
X184005771Y-195585771D01*
X184148628Y-195657200D01*
X186005771Y-195800057D02*
X186505771Y-195800057D01*
X186720057Y-196585771D02*
X186005771Y-196585771D01*
X186005771Y-195085771D01*
X186720057Y-195085771D01*
X187362914Y-196442914D02*
X187434342Y-196514342D01*
X187362914Y-196585771D01*
X187291485Y-196514342D01*
X187362914Y-196442914D01*
X187362914Y-196585771D01*
X188077200Y-196585771D02*
X188077200Y-195085771D01*
X188434342Y-195085771D01*
X188648628Y-195157200D01*
X188791485Y-195300057D01*
X188862914Y-195442914D01*
X188934342Y-195728628D01*
X188934342Y-195942914D01*
X188862914Y-196228628D01*
X188791485Y-196371485D01*
X188648628Y-196514342D01*
X188434342Y-196585771D01*
X188077200Y-196585771D01*
X189577200Y-196442914D02*
X189648628Y-196514342D01*
X189577200Y-196585771D01*
X189505771Y-196514342D01*
X189577200Y-196442914D01*
X189577200Y-196585771D01*
X190220057Y-196157200D02*
X190934342Y-196157200D01*
X190077200Y-196585771D02*
X190577200Y-195085771D01*
X191077200Y-196585771D01*
X191577200Y-196442914D02*
X191648628Y-196514342D01*
X191577200Y-196585771D01*
X191505771Y-196514342D01*
X191577200Y-196442914D01*
X191577200Y-196585771D01*
X194577200Y-196585771D02*
X194577200Y-195085771D01*
X194720057Y-196014342D02*
X195148628Y-196585771D01*
X195148628Y-195585771D02*
X194577200Y-196157200D01*
X195791485Y-196585771D02*
X195791485Y-195585771D01*
X195791485Y-195085771D02*
X195720057Y-195157200D01*
X195791485Y-195228628D01*
X195862914Y-195157200D01*
X195791485Y-195085771D01*
X195791485Y-195228628D01*
X197148628Y-196514342D02*
X197005771Y-196585771D01*
X196720057Y-196585771D01*
X196577200Y-196514342D01*
X196505771Y-196442914D01*
X196434342Y-196300057D01*
X196434342Y-195871485D01*
X196505771Y-195728628D01*
X196577200Y-195657200D01*
X196720057Y-195585771D01*
X197005771Y-195585771D01*
X197148628Y-195657200D01*
X198434342Y-196585771D02*
X198434342Y-195800057D01*
X198362914Y-195657200D01*
X198220057Y-195585771D01*
X197934342Y-195585771D01*
X197791485Y-195657200D01*
X198434342Y-196514342D02*
X198291485Y-196585771D01*
X197934342Y-196585771D01*
X197791485Y-196514342D01*
X197720057Y-196371485D01*
X197720057Y-196228628D01*
X197791485Y-196085771D01*
X197934342Y-196014342D01*
X198291485Y-196014342D01*
X198434342Y-195942914D01*
X199791485Y-196585771D02*
X199791485Y-195085771D01*
X199791485Y-196514342D02*
X199648628Y-196585771D01*
X199362914Y-196585771D01*
X199220057Y-196514342D01*
X199148628Y-196442914D01*
X199077200Y-196300057D01*
X199077200Y-195871485D01*
X199148628Y-195728628D01*
X199220057Y-195657200D01*
X199362914Y-195585771D01*
X199648628Y-195585771D01*
X199791485Y-195657200D01*
X202077200Y-197157200D02*
X202005771Y-197085771D01*
X201862914Y-196871485D01*
X201791485Y-196728628D01*
X201720057Y-196514342D01*
X201648628Y-196157200D01*
X201648628Y-195871485D01*
X201720057Y-195514342D01*
X201791485Y-195300057D01*
X201862914Y-195157200D01*
X202005771Y-194942914D01*
X202077200Y-194871485D01*
X203362914Y-195085771D02*
X202648628Y-195085771D01*
X202577200Y-195800057D01*
X202648628Y-195728628D01*
X202791485Y-195657200D01*
X203148628Y-195657200D01*
X203291485Y-195728628D01*
X203362914Y-195800057D01*
X203434342Y-195942914D01*
X203434342Y-196300057D01*
X203362914Y-196442914D01*
X203291485Y-196514342D01*
X203148628Y-196585771D01*
X202791485Y-196585771D01*
X202648628Y-196514342D01*
X202577200Y-196442914D01*
X204077200Y-196442914D02*
X204148628Y-196514342D01*
X204077200Y-196585771D01*
X204005771Y-196514342D01*
X204077200Y-196442914D01*
X204077200Y-196585771D01*
X204862914Y-196585771D02*
X205148628Y-196585771D01*
X205291485Y-196514342D01*
X205362914Y-196442914D01*
X205505771Y-196228628D01*
X205577200Y-195942914D01*
X205577200Y-195371485D01*
X205505771Y-195228628D01*
X205434342Y-195157200D01*
X205291485Y-195085771D01*
X205005771Y-195085771D01*
X204862914Y-195157200D01*
X204791485Y-195228628D01*
X204720057Y-195371485D01*
X204720057Y-195728628D01*
X204791485Y-195871485D01*
X204862914Y-195942914D01*
X205005771Y-196014342D01*
X205291485Y-196014342D01*
X205434342Y-195942914D01*
X205505771Y-195871485D01*
X205577200Y-195728628D01*
X206291485Y-196585771D02*
X206577200Y-196585771D01*
X206720057Y-196514342D01*
X206791485Y-196442914D01*
X206934342Y-196228628D01*
X207005771Y-195942914D01*
X207005771Y-195371485D01*
X206934342Y-195228628D01*
X206862914Y-195157200D01*
X206720057Y-195085771D01*
X206434342Y-195085771D01*
X206291485Y-195157200D01*
X206220057Y-195228628D01*
X206148628Y-195371485D01*
X206148628Y-195728628D01*
X206220057Y-195871485D01*
X206291485Y-195942914D01*
X206434342Y-196014342D01*
X206720057Y-196014342D01*
X206862914Y-195942914D01*
X206934342Y-195871485D01*
X207005771Y-195728628D01*
X207648628Y-196442914D02*
X207720057Y-196514342D01*
X207648628Y-196585771D01*
X207577200Y-196514342D01*
X207648628Y-196442914D01*
X207648628Y-196585771D01*
X208648628Y-195085771D02*
X208791485Y-195085771D01*
X208934342Y-195157200D01*
X209005771Y-195228628D01*
X209077200Y-195371485D01*
X209148628Y-195657200D01*
X209148628Y-196014342D01*
X209077200Y-196300057D01*
X209005771Y-196442914D01*
X208934342Y-196514342D01*
X208791485Y-196585771D01*
X208648628Y-196585771D01*
X208505771Y-196514342D01*
X208434342Y-196442914D01*
X208362914Y-196300057D01*
X208291485Y-196014342D01*
X208291485Y-195657200D01*
X208362914Y-195371485D01*
X208434342Y-195228628D01*
X208505771Y-195157200D01*
X208648628Y-195085771D01*
X209791485Y-196014342D02*
X210934342Y-196014342D01*
X212291485Y-195085771D02*
X212005771Y-195085771D01*
X211862914Y-195157200D01*
X211791485Y-195228628D01*
X211648628Y-195442914D01*
X211577200Y-195728628D01*
X211577200Y-196300057D01*
X211648628Y-196442914D01*
X211720057Y-196514342D01*
X211862914Y-196585771D01*
X212148628Y-196585771D01*
X212291485Y-196514342D01*
X212362914Y-196442914D01*
X212434342Y-196300057D01*
X212434342Y-195942914D01*
X212362914Y-195800057D01*
X212291485Y-195728628D01*
X212148628Y-195657200D01*
X211862914Y-195657200D01*
X211720057Y-195728628D01*
X211648628Y-195800057D01*
X211577200Y-195942914D01*
X213720057Y-195585771D02*
X213720057Y-196585771D01*
X213362914Y-195014342D02*
X213005771Y-196085771D01*
X213934342Y-196085771D01*
X214577200Y-196585771D02*
X214862914Y-196585771D01*
X215005771Y-196514342D01*
X215077200Y-196442914D01*
X215220057Y-196228628D01*
X215291485Y-195942914D01*
X215291485Y-195371485D01*
X215220057Y-195228628D01*
X215148628Y-195157200D01*
X215005771Y-195085771D01*
X214720057Y-195085771D01*
X214577200Y-195157200D01*
X214505771Y-195228628D01*
X214434342Y-195371485D01*
X214434342Y-195728628D01*
X214505771Y-195871485D01*
X214577200Y-195942914D01*
X214720057Y-196014342D01*
X215005771Y-196014342D01*
X215148628Y-195942914D01*
X215220057Y-195871485D01*
X215291485Y-195728628D01*
X216648628Y-195085771D02*
X215934342Y-195085771D01*
X215862914Y-195800057D01*
X215934342Y-195728628D01*
X216077200Y-195657200D01*
X216434342Y-195657200D01*
X216577200Y-195728628D01*
X216648628Y-195800057D01*
X216720057Y-195942914D01*
X216720057Y-196300057D01*
X216648628Y-196442914D01*
X216577200Y-196514342D01*
X216434342Y-196585771D01*
X216077200Y-196585771D01*
X215934342Y-196514342D01*
X215862914Y-196442914D01*
X217362914Y-196014342D02*
X218505771Y-196014342D01*
X219862914Y-195585771D02*
X219862914Y-196800057D01*
X219791485Y-196942914D01*
X219720057Y-197014342D01*
X219577200Y-197085771D01*
X219362914Y-197085771D01*
X219220057Y-197014342D01*
X219862914Y-196514342D02*
X219720057Y-196585771D01*
X219434342Y-196585771D01*
X219291485Y-196514342D01*
X219220057Y-196442914D01*
X219148628Y-196300057D01*
X219148628Y-195871485D01*
X219220057Y-195728628D01*
X219291485Y-195657200D01*
X219434342Y-195585771D01*
X219720057Y-195585771D01*
X219862914Y-195657200D01*
X221362914Y-196585771D02*
X220505771Y-196585771D01*
X220934342Y-196585771D02*
X220934342Y-195085771D01*
X220791485Y-195300057D01*
X220648628Y-195442914D01*
X220505771Y-195514342D01*
X222720057Y-195085771D02*
X222005771Y-195085771D01*
X221934342Y-195800057D01*
X222005771Y-195728628D01*
X222148628Y-195657200D01*
X222505771Y-195657200D01*
X222648628Y-195728628D01*
X222720057Y-195800057D01*
X222791485Y-195942914D01*
X222791485Y-196300057D01*
X222720057Y-196442914D01*
X222648628Y-196514342D01*
X222505771Y-196585771D01*
X222148628Y-196585771D01*
X222005771Y-196514342D01*
X221934342Y-196442914D01*
X223291485Y-195085771D02*
X224220057Y-195085771D01*
X223720057Y-195657200D01*
X223934342Y-195657200D01*
X224077200Y-195728628D01*
X224148628Y-195800057D01*
X224220057Y-195942914D01*
X224220057Y-196300057D01*
X224148628Y-196442914D01*
X224077200Y-196514342D01*
X223934342Y-196585771D01*
X223505771Y-196585771D01*
X223362914Y-196514342D01*
X223291485Y-196442914D01*
X225505771Y-195085771D02*
X225220057Y-195085771D01*
X225077200Y-195157200D01*
X225005771Y-195228628D01*
X224862914Y-195442914D01*
X224791485Y-195728628D01*
X224791485Y-196300057D01*
X224862914Y-196442914D01*
X224934342Y-196514342D01*
X225077200Y-196585771D01*
X225362914Y-196585771D01*
X225505771Y-196514342D01*
X225577200Y-196442914D01*
X225648628Y-196300057D01*
X225648628Y-195942914D01*
X225577200Y-195800057D01*
X225505771Y-195728628D01*
X225362914Y-195657200D01*
X225077200Y-195657200D01*
X224934342Y-195728628D01*
X224862914Y-195800057D01*
X224791485Y-195942914D01*
X226362914Y-196585771D02*
X226648628Y-196585771D01*
X226791485Y-196514342D01*
X226862914Y-196442914D01*
X227005771Y-196228628D01*
X227077199Y-195942914D01*
X227077199Y-195371485D01*
X227005771Y-195228628D01*
X226934342Y-195157200D01*
X226791485Y-195085771D01*
X226505771Y-195085771D01*
X226362914Y-195157200D01*
X226291485Y-195228628D01*
X226220057Y-195371485D01*
X226220057Y-195728628D01*
X226291485Y-195871485D01*
X226362914Y-195942914D01*
X226505771Y-196014342D01*
X226791485Y-196014342D01*
X226934342Y-195942914D01*
X227005771Y-195871485D01*
X227077199Y-195728628D01*
X227791485Y-196585771D02*
X228077199Y-196585771D01*
X228220057Y-196514342D01*
X228291485Y-196442914D01*
X228434342Y-196228628D01*
X228505771Y-195942914D01*
X228505771Y-195371485D01*
X228434342Y-195228628D01*
X228362914Y-195157200D01*
X228220057Y-195085771D01*
X227934342Y-195085771D01*
X227791485Y-195157200D01*
X227720057Y-195228628D01*
X227648628Y-195371485D01*
X227648628Y-195728628D01*
X227720057Y-195871485D01*
X227791485Y-195942914D01*
X227934342Y-196014342D01*
X228220057Y-196014342D01*
X228362914Y-195942914D01*
X228434342Y-195871485D01*
X228505771Y-195728628D01*
X229934342Y-196585771D02*
X229077199Y-196585771D01*
X229505771Y-196585771D02*
X229505771Y-195085771D01*
X229362914Y-195300057D01*
X229220057Y-195442914D01*
X229077199Y-195514342D01*
X231291485Y-195085771D02*
X230577199Y-195085771D01*
X230505771Y-195800057D01*
X230577199Y-195728628D01*
X230720057Y-195657200D01*
X231077199Y-195657200D01*
X231220057Y-195728628D01*
X231291485Y-195800057D01*
X231362914Y-195942914D01*
X231362914Y-196300057D01*
X231291485Y-196442914D01*
X231220057Y-196514342D01*
X231077199Y-196585771D01*
X230720057Y-196585771D01*
X230577199Y-196514342D01*
X230505771Y-196442914D01*
X232648628Y-196514342D02*
X232505771Y-196585771D01*
X232220057Y-196585771D01*
X232077199Y-196514342D01*
X232005771Y-196442914D01*
X231934342Y-196300057D01*
X231934342Y-195871485D01*
X232005771Y-195728628D01*
X232077199Y-195657200D01*
X232220057Y-195585771D01*
X232505771Y-195585771D01*
X232648628Y-195657200D01*
X233934342Y-196514342D02*
X233791485Y-196585771D01*
X233505771Y-196585771D01*
X233362914Y-196514342D01*
X233291485Y-196442914D01*
X233220057Y-196300057D01*
X233220057Y-195871485D01*
X233291485Y-195728628D01*
X233362914Y-195657200D01*
X233505771Y-195585771D01*
X233791485Y-195585771D01*
X233934342Y-195657200D01*
X234434342Y-197157200D02*
X234505771Y-197085771D01*
X234648628Y-196871485D01*
X234720057Y-196728628D01*
X234791485Y-196514342D01*
X234862914Y-196157200D01*
X234862914Y-195871485D01*
X234791485Y-195514342D01*
X234720057Y-195300057D01*
X234648628Y-195157200D01*
X234505771Y-194942914D01*
X234434342Y-194871485D01*
D10*
D11*
X177002200Y-191507200D02*
X285002200Y-191507200D01*
D10*
D12*
X264411485Y-193785771D02*
X263911485Y-193071485D01*
X263554342Y-193785771D02*
X263554342Y-192285771D01*
X264125771Y-192285771D01*
X264268628Y-192357200D01*
X264340057Y-192428628D01*
X264411485Y-192571485D01*
X264411485Y-192785771D01*
X264340057Y-192928628D01*
X264268628Y-193000057D01*
X264125771Y-193071485D01*
X263554342Y-193071485D01*
X265625771Y-193714342D02*
X265482914Y-193785771D01*
X265197200Y-193785771D01*
X265054342Y-193714342D01*
X264982914Y-193571485D01*
X264982914Y-193000057D01*
X265054342Y-192857200D01*
X265197200Y-192785771D01*
X265482914Y-192785771D01*
X265625771Y-192857200D01*
X265697200Y-193000057D01*
X265697200Y-193142914D01*
X264982914Y-193285771D01*
X266197200Y-192785771D02*
X266554342Y-193785771D01*
X266911485Y-192785771D01*
X267482914Y-193642914D02*
X267554342Y-193714342D01*
X267482914Y-193785771D01*
X267411485Y-193714342D01*
X267482914Y-193642914D01*
X267482914Y-193785771D01*
X267482914Y-192857200D02*
X267554342Y-192928628D01*
X267482914Y-193000057D01*
X267411485Y-192928628D01*
X267482914Y-192857200D01*
X267482914Y-193000057D01*
X270125771Y-193785771D02*
X269268628Y-193785771D01*
X269697200Y-193785771D02*
X269697200Y-192285771D01*
X269554342Y-192500057D01*
X269411485Y-192642914D01*
X269268628Y-192714342D01*
X270697200Y-193357200D02*
X271411485Y-193357200D01*
X270554342Y-193785771D02*
X271054342Y-192285771D01*
X271554342Y-193785771D01*
D10*
D11*
X178362914Y-193714342D02*
X178577200Y-193785771D01*
X178934342Y-193785771D01*
X179077200Y-193714342D01*
X179148628Y-193642914D01*
X179220057Y-193500057D01*
X179220057Y-193357200D01*
X179148628Y-193214342D01*
X179077200Y-193142914D01*
X178934342Y-193071485D01*
X178648628Y-193000057D01*
X178505771Y-192928628D01*
X178434342Y-192857200D01*
X178362914Y-192714342D01*
X178362914Y-192571485D01*
X178434342Y-192428628D01*
X178505771Y-192357200D01*
X178648628Y-192285771D01*
X179005771Y-192285771D01*
X179220057Y-192357200D01*
X179862914Y-193785771D02*
X179862914Y-192785771D01*
X179862914Y-192285771D02*
X179791485Y-192357200D01*
X179862914Y-192428628D01*
X179934342Y-192357200D01*
X179862914Y-192285771D01*
X179862914Y-192428628D01*
X180434342Y-192785771D02*
X181220057Y-192785771D01*
X180434342Y-193785771D01*
X181220057Y-193785771D01*
X182362914Y-193714342D02*
X182220057Y-193785771D01*
X181934342Y-193785771D01*
X181791485Y-193714342D01*
X181720057Y-193571485D01*
X181720057Y-193000057D01*
X181791485Y-192857200D01*
X181934342Y-192785771D01*
X182220057Y-192785771D01*
X182362914Y-192857200D01*
X182434342Y-193000057D01*
X182434342Y-193142914D01*
X181720057Y-193285771D01*
X183077200Y-193642914D02*
X183148628Y-193714342D01*
X183077200Y-193785771D01*
X183005771Y-193714342D01*
X183077200Y-193642914D01*
X183077200Y-193785771D01*
X183077200Y-192857200D02*
X183148628Y-192928628D01*
X183077200Y-193000057D01*
X183005771Y-192928628D01*
X183077200Y-192857200D01*
X183077200Y-193000057D01*
X184862914Y-193357200D02*
X185577200Y-193357200D01*
X184720057Y-193785771D02*
X185220057Y-192285771D01*
X185720057Y-193785771D01*
X186862914Y-192785771D02*
X186862914Y-193785771D01*
X186505771Y-192214342D02*
X186148628Y-193285771D01*
X187077200Y-193285771D01*
D10*
D11*
X263434342Y-196585771D02*
X263434342Y-195085771D01*
X264791485Y-196585771D02*
X264791485Y-195085771D01*
X264791485Y-196514342D02*
X264648628Y-196585771D01*
X264362914Y-196585771D01*
X264220057Y-196514342D01*
X264148628Y-196442914D01*
X264077200Y-196300057D01*
X264077200Y-195871485D01*
X264148628Y-195728628D01*
X264220057Y-195657200D01*
X264362914Y-195585771D01*
X264648628Y-195585771D01*
X264791485Y-195657200D01*
X265505771Y-196442914D02*
X265577200Y-196514342D01*
X265505771Y-196585771D01*
X265434342Y-196514342D01*
X265505771Y-196442914D01*
X265505771Y-196585771D01*
X265505771Y-195657200D02*
X265577200Y-195728628D01*
X265505771Y-195800057D01*
X265434342Y-195728628D01*
X265505771Y-195657200D01*
X265505771Y-195800057D01*
X268148628Y-196585771D02*
X267291485Y-196585771D01*
X267720057Y-196585771D02*
X267720057Y-195085771D01*
X267577200Y-195300057D01*
X267434342Y-195442914D01*
X267291485Y-195514342D01*
X269862914Y-195014342D02*
X268577200Y-196942914D01*
X271148628Y-196585771D02*
X270291485Y-196585771D01*
X270720057Y-196585771D02*
X270720057Y-195085771D01*
X270577200Y-195300057D01*
X270434342Y-195442914D01*
X270291485Y-195514342D01*
D10*
D11*
X177002200Y-187507200D02*
X285002200Y-187507200D01*
D10*
D13*
X178714580Y-188211961D02*
X179857438Y-188211961D01*
X179036009Y-190211961D02*
X179286009Y-188211961D01*
X180274104Y-190211961D02*
X180440771Y-188878628D01*
X180524104Y-188211961D02*
X180416961Y-188307200D01*
X180500295Y-188402438D01*
X180607438Y-188307200D01*
X180524104Y-188211961D01*
X180500295Y-188402438D01*
X181107438Y-188878628D02*
X181869342Y-188878628D01*
X181476485Y-188211961D02*
X181262200Y-189926247D01*
X181333628Y-190116723D01*
X181512200Y-190211961D01*
X181702676Y-190211961D01*
X182655057Y-190211961D02*
X182476485Y-190116723D01*
X182405057Y-189926247D01*
X182619342Y-188211961D01*
X184190771Y-190116723D02*
X183988390Y-190211961D01*
X183607438Y-190211961D01*
X183428866Y-190116723D01*
X183357438Y-189926247D01*
X183452676Y-189164342D01*
X183571723Y-188973866D01*
X183774104Y-188878628D01*
X184155057Y-188878628D01*
X184333628Y-188973866D01*
X184405057Y-189164342D01*
X184381247Y-189354819D01*
X183405057Y-189545295D01*
X185155057Y-190021485D02*
X185238390Y-190116723D01*
X185131247Y-190211961D01*
X185047914Y-190116723D01*
X185155057Y-190021485D01*
X185131247Y-190211961D01*
X185286009Y-188973866D02*
X185369342Y-189069104D01*
X185262200Y-189164342D01*
X185178866Y-189069104D01*
X185286009Y-188973866D01*
X185262200Y-189164342D01*
X187738390Y-189164342D02*
X188405057Y-189164342D01*
X188559819Y-190211961D02*
X187607438Y-190211961D01*
X187857438Y-188211961D01*
X188809819Y-188211961D01*
X189381247Y-188211961D02*
X189797914Y-190211961D01*
X190714580Y-188211961D01*
X191107438Y-189640533D02*
X192059819Y-189640533D01*
X190845533Y-190211961D02*
X191762200Y-188211961D01*
X192178866Y-190211961D01*
X193797914Y-190211961D02*
X192845533Y-190211961D01*
X193095533Y-188211961D01*
X194559819Y-189450057D02*
X196083628Y-189450057D01*
X196940771Y-190211961D02*
X197190771Y-188211961D01*
X197678866Y-189640533D01*
X198524104Y-188211961D01*
X198274104Y-190211961D01*
X199226485Y-190211961D02*
X199476485Y-188211961D01*
X200238390Y-188211961D01*
X200416961Y-188307200D01*
X200500295Y-188402438D01*
X200571723Y-188592914D01*
X200536009Y-188878628D01*
X200416961Y-189069104D01*
X200309819Y-189164342D01*
X200107438Y-189259580D01*
X199345533Y-189259580D01*
X201655057Y-189069104D02*
X201476485Y-188973866D01*
X201393152Y-188878628D01*
X201321723Y-188688152D01*
X201333628Y-188592914D01*
X201452676Y-188402438D01*
X201559819Y-188307200D01*
X201762200Y-188211961D01*
X202143152Y-188211961D01*
X202321723Y-188307200D01*
X202405057Y-188402438D01*
X202476485Y-188592914D01*
X202464580Y-188688152D01*
X202345533Y-188878628D01*
X202238390Y-188973866D01*
X202036009Y-189069104D01*
X201655057Y-189069104D01*
X201452676Y-189164342D01*
X201345533Y-189259580D01*
X201226485Y-189450057D01*
X201178866Y-189831009D01*
X201250295Y-190021485D01*
X201333628Y-190116723D01*
X201512200Y-190211961D01*
X201893152Y-190211961D01*
X202095533Y-190116723D01*
X202202676Y-190021485D01*
X202321723Y-189831009D01*
X202369342Y-189450057D01*
X202297914Y-189259580D01*
X202214580Y-189164342D01*
X202036009Y-189069104D01*
X203559819Y-189069104D02*
X203381247Y-188973866D01*
X203297914Y-188878628D01*
X203226485Y-188688152D01*
X203238390Y-188592914D01*
X203357438Y-188402438D01*
X203464580Y-188307200D01*
X203666961Y-188211961D01*
X204047914Y-188211961D01*
X204226485Y-188307200D01*
X204309819Y-188402438D01*
X204381247Y-188592914D01*
X204369342Y-188688152D01*
X204250295Y-188878628D01*
X204143152Y-188973866D01*
X203940771Y-189069104D01*
X203559819Y-189069104D01*
X203357438Y-189164342D01*
X203250295Y-189259580D01*
X203131247Y-189450057D01*
X203083628Y-189831009D01*
X203155057Y-190021485D01*
X203238390Y-190116723D01*
X203416961Y-190211961D01*
X203797914Y-190211961D01*
X204000295Y-190116723D01*
X204107438Y-190021485D01*
X204226485Y-189831009D01*
X204274104Y-189450057D01*
X204202676Y-189259580D01*
X204119342Y-189164342D01*
X203940771Y-189069104D01*
X206143152Y-188211961D02*
X205762200Y-188211961D01*
X205559819Y-188307200D01*
X205452676Y-188402438D01*
X205226485Y-188688152D01*
X205083628Y-189069104D01*
X204988390Y-189831009D01*
X205059819Y-190021485D01*
X205143152Y-190116723D01*
X205321723Y-190211961D01*
X205702676Y-190211961D01*
X205905057Y-190116723D01*
X206012200Y-190021485D01*
X206131247Y-189831009D01*
X206190771Y-189354819D01*
X206119342Y-189164342D01*
X206036009Y-189069104D01*
X205857438Y-188973866D01*
X205476485Y-188973866D01*
X205274104Y-189069104D01*
X205166961Y-189164342D01*
X205047914Y-189354819D01*
X207071723Y-188402438D02*
X207178866Y-188307200D01*
X207381247Y-188211961D01*
X207857438Y-188211961D01*
X208036009Y-188307200D01*
X208119342Y-188402438D01*
X208190771Y-188592914D01*
X208166961Y-188783390D01*
X208036009Y-189069104D01*
X206750295Y-190211961D01*
X207988390Y-190211961D01*
X210131247Y-188307200D02*
X209952676Y-188211961D01*
X209666961Y-188211961D01*
X209369342Y-188307200D01*
X209155057Y-188497676D01*
X209036009Y-188688152D01*
X208893152Y-189069104D01*
X208857438Y-189354819D01*
X208905057Y-189735771D01*
X208976485Y-189926247D01*
X209143152Y-190116723D01*
X209416961Y-190211961D01*
X209607438Y-190211961D01*
X209905057Y-190116723D01*
X210012200Y-190021485D01*
X210095533Y-189354819D01*
X209714580Y-189354819D01*
X212155057Y-190402438D02*
X211976485Y-190307200D01*
X211809819Y-190116723D01*
X211559819Y-189831009D01*
X211381247Y-189735771D01*
X211190771Y-189735771D01*
X211226485Y-190211961D02*
X211047914Y-190116723D01*
X210881247Y-189926247D01*
X210833628Y-189545295D01*
X210916961Y-188878628D01*
X211059819Y-188497676D01*
X211274104Y-188307200D01*
X211476485Y-188211961D01*
X211857438Y-188211961D01*
X212036009Y-188307200D01*
X212202676Y-188497676D01*
X212250295Y-188878628D01*
X212166961Y-189545295D01*
X212024104Y-189926247D01*
X211809819Y-190116723D01*
X211607438Y-190211961D01*
X211226485Y-190211961D01*
X213036009Y-189450057D02*
X214559819Y-189450057D01*
X216047914Y-188211961D02*
X216238390Y-188211961D01*
X216416961Y-188307200D01*
X216500295Y-188402438D01*
X216571723Y-188592914D01*
X216619342Y-188973866D01*
X216559819Y-189450057D01*
X216416961Y-189831009D01*
X216297914Y-190021485D01*
X216190771Y-190116723D01*
X215988390Y-190211961D01*
X215797914Y-190211961D01*
X215619342Y-190116723D01*
X215536009Y-190021485D01*
X215464580Y-189831009D01*
X215416961Y-189450057D01*
X215476485Y-188973866D01*
X215619342Y-188592914D01*
X215738390Y-188402438D01*
X215845533Y-188307200D01*
X216047914Y-188211961D01*
X217952676Y-188211961D02*
X218143152Y-188211961D01*
X218321723Y-188307200D01*
X218405057Y-188402438D01*
X218476485Y-188592914D01*
X218524104Y-188973866D01*
X218464580Y-189450057D01*
X218321723Y-189831009D01*
X218202676Y-190021485D01*
X218095533Y-190116723D01*
X217893152Y-190211961D01*
X217702676Y-190211961D01*
X217524104Y-190116723D01*
X217440771Y-190021485D01*
X217369342Y-189831009D01*
X217321723Y-189450057D01*
X217381247Y-188973866D01*
X217524104Y-188592914D01*
X217643152Y-188402438D01*
X217750295Y-188307200D01*
X217952676Y-188211961D01*
X219857438Y-188211961D02*
X220047914Y-188211961D01*
X220226485Y-188307200D01*
X220309819Y-188402438D01*
X220381247Y-188592914D01*
X220428866Y-188973866D01*
X220369342Y-189450057D01*
X220226485Y-189831009D01*
X220107438Y-190021485D01*
X220000295Y-190116723D01*
X219797914Y-190211961D01*
X219607438Y-190211961D01*
X219428866Y-190116723D01*
X219345533Y-190021485D01*
X219274104Y-189831009D01*
X219226485Y-189450057D01*
X219286009Y-188973866D01*
X219428866Y-188592914D01*
X219547914Y-188402438D01*
X219655057Y-188307200D01*
X219857438Y-188211961D01*
X221762200Y-188211961D02*
X221952676Y-188211961D01*
X222131247Y-188307200D01*
X222214580Y-188402438D01*
X222286009Y-188592914D01*
X222333628Y-188973866D01*
X222274104Y-189450057D01*
X222131247Y-189831009D01*
X222012200Y-190021485D01*
X221905057Y-190116723D01*
X221702676Y-190211961D01*
X221512200Y-190211961D01*
X221333628Y-190116723D01*
X221250295Y-190021485D01*
X221178866Y-189831009D01*
X221131247Y-189450057D01*
X221190771Y-188973866D01*
X221333628Y-188592914D01*
X221452676Y-188402438D01*
X221559819Y-188307200D01*
X221762200Y-188211961D01*
D10*
D11*
X178934342Y-185600057D02*
X178434342Y-185600057D01*
X178434342Y-186385771D02*
X178434342Y-184885771D01*
X179148628Y-184885771D01*
X179720057Y-186385771D02*
X179720057Y-185385771D01*
X179720057Y-184885771D02*
X179648628Y-184957200D01*
X179720057Y-185028628D01*
X179791485Y-184957200D01*
X179720057Y-184885771D01*
X179720057Y-185028628D01*
X180648628Y-186385771D02*
X180505771Y-186314342D01*
X180434342Y-186171485D01*
X180434342Y-184885771D01*
X181791485Y-186314342D02*
X181648628Y-186385771D01*
X181362914Y-186385771D01*
X181220057Y-186314342D01*
X181148628Y-186171485D01*
X181148628Y-185600057D01*
X181220057Y-185457200D01*
X181362914Y-185385771D01*
X181648628Y-185385771D01*
X181791485Y-185457200D01*
X181862914Y-185600057D01*
X181862914Y-185742914D01*
X181148628Y-185885771D01*
X182505771Y-186242914D02*
X182577200Y-186314342D01*
X182505771Y-186385771D01*
X182434342Y-186314342D01*
X182505771Y-186242914D01*
X182505771Y-186385771D01*
X182505771Y-185457200D02*
X182577200Y-185528628D01*
X182505771Y-185600057D01*
X182434342Y-185528628D01*
X182505771Y-185457200D01*
X182505771Y-185600057D01*
X184362914Y-185600057D02*
X184862914Y-185600057D01*
X185077200Y-186385771D02*
X184362914Y-186385771D01*
X184362914Y-184885771D01*
X185077200Y-184885771D01*
X185505771Y-184885771D02*
X186005771Y-186385771D01*
X186505771Y-184885771D01*
X186934342Y-185957200D02*
X187648628Y-185957200D01*
X186791485Y-186385771D02*
X187291485Y-184885771D01*
X187791485Y-186385771D01*
X189005771Y-186385771D02*
X188291485Y-186385771D01*
X188291485Y-184885771D01*
X189505771Y-185814342D02*
X190648628Y-185814342D01*
X191362914Y-186385771D02*
X191362914Y-184885771D01*
X191862914Y-185957200D01*
X192362914Y-184885771D01*
X192362914Y-186385771D01*
X193077200Y-186385771D02*
X193077200Y-184885771D01*
X193648628Y-184885771D01*
X193791485Y-184957200D01*
X193862914Y-185028628D01*
X193934342Y-185171485D01*
X193934342Y-185385771D01*
X193862914Y-185528628D01*
X193791485Y-185600057D01*
X193648628Y-185671485D01*
X193077200Y-185671485D01*
X194791485Y-185528628D02*
X194648628Y-185457200D01*
X194577200Y-185385771D01*
X194505771Y-185242914D01*
X194505771Y-185171485D01*
X194577200Y-185028628D01*
X194648628Y-184957200D01*
X194791485Y-184885771D01*
X195077200Y-184885771D01*
X195220057Y-184957200D01*
X195291485Y-185028628D01*
X195362914Y-185171485D01*
X195362914Y-185242914D01*
X195291485Y-185385771D01*
X195220057Y-185457200D01*
X195077200Y-185528628D01*
X194791485Y-185528628D01*
X194648628Y-185600057D01*
X194577200Y-185671485D01*
X194505771Y-185814342D01*
X194505771Y-186100057D01*
X194577200Y-186242914D01*
X194648628Y-186314342D01*
X194791485Y-186385771D01*
X195077200Y-186385771D01*
X195220057Y-186314342D01*
X195291485Y-186242914D01*
X195362914Y-186100057D01*
X195362914Y-185814342D01*
X195291485Y-185671485D01*
X195220057Y-185600057D01*
X195077200Y-185528628D01*
X196220057Y-185528628D02*
X196077200Y-185457200D01*
X196005771Y-185385771D01*
X195934342Y-185242914D01*
X195934342Y-185171485D01*
X196005771Y-185028628D01*
X196077200Y-184957200D01*
X196220057Y-184885771D01*
X196505771Y-184885771D01*
X196648628Y-184957200D01*
X196720057Y-185028628D01*
X196791485Y-185171485D01*
X196791485Y-185242914D01*
X196720057Y-185385771D01*
X196648628Y-185457200D01*
X196505771Y-185528628D01*
X196220057Y-185528628D01*
X196077200Y-185600057D01*
X196005771Y-185671485D01*
X195934342Y-185814342D01*
X195934342Y-186100057D01*
X196005771Y-186242914D01*
X196077200Y-186314342D01*
X196220057Y-186385771D01*
X196505771Y-186385771D01*
X196648628Y-186314342D01*
X196720057Y-186242914D01*
X196791485Y-186100057D01*
X196791485Y-185814342D01*
X196720057Y-185671485D01*
X196648628Y-185600057D01*
X196505771Y-185528628D01*
X198077200Y-184885771D02*
X197791485Y-184885771D01*
X197648628Y-184957200D01*
X197577200Y-185028628D01*
X197434342Y-185242914D01*
X197362914Y-185528628D01*
X197362914Y-186100057D01*
X197434342Y-186242914D01*
X197505771Y-186314342D01*
X197648628Y-186385771D01*
X197934342Y-186385771D01*
X198077200Y-186314342D01*
X198148628Y-186242914D01*
X198220057Y-186100057D01*
X198220057Y-185742914D01*
X198148628Y-185600057D01*
X198077200Y-185528628D01*
X197934342Y-185457200D01*
X197648628Y-185457200D01*
X197505771Y-185528628D01*
X197434342Y-185600057D01*
X197362914Y-185742914D01*
X198791485Y-185028628D02*
X198862914Y-184957200D01*
X199005771Y-184885771D01*
X199362914Y-184885771D01*
X199505771Y-184957200D01*
X199577200Y-185028628D01*
X199648628Y-185171485D01*
X199648628Y-185314342D01*
X199577200Y-185528628D01*
X198720057Y-186385771D01*
X199648628Y-186385771D01*
X200291485Y-186242914D02*
X200362914Y-186314342D01*
X200291485Y-186385771D01*
X200220057Y-186314342D01*
X200291485Y-186242914D01*
X200291485Y-186385771D01*
X201005771Y-186385771D02*
X201005771Y-184885771D01*
X201148628Y-185814342D02*
X201577200Y-186385771D01*
X201577200Y-185385771D02*
X201005771Y-185957200D01*
X202220057Y-186385771D02*
X202220057Y-185385771D01*
X202220057Y-184885771D02*
X202148628Y-184957200D01*
X202220057Y-185028628D01*
X202291485Y-184957200D01*
X202220057Y-184885771D01*
X202220057Y-185028628D01*
X203577200Y-186314342D02*
X203434342Y-186385771D01*
X203148628Y-186385771D01*
X203005771Y-186314342D01*
X202934342Y-186242914D01*
X202862914Y-186100057D01*
X202862914Y-185671485D01*
X202934342Y-185528628D01*
X203005771Y-185457200D01*
X203148628Y-185385771D01*
X203434342Y-185385771D01*
X203577200Y-185457200D01*
X204862914Y-186385771D02*
X204862914Y-185600057D01*
X204791485Y-185457200D01*
X204648628Y-185385771D01*
X204362914Y-185385771D01*
X204220057Y-185457200D01*
X204862914Y-186314342D02*
X204720057Y-186385771D01*
X204362914Y-186385771D01*
X204220057Y-186314342D01*
X204148628Y-186171485D01*
X204148628Y-186028628D01*
X204220057Y-185885771D01*
X204362914Y-185814342D01*
X204720057Y-185814342D01*
X204862914Y-185742914D01*
X206220057Y-186385771D02*
X206220057Y-184885771D01*
X206220057Y-186314342D02*
X206077200Y-186385771D01*
X205791485Y-186385771D01*
X205648628Y-186314342D01*
X205577200Y-186242914D01*
X205505771Y-186100057D01*
X205505771Y-185671485D01*
X205577200Y-185528628D01*
X205648628Y-185457200D01*
X205791485Y-185385771D01*
X206077200Y-185385771D01*
X206220057Y-185457200D01*
X206577200Y-186528628D02*
X207720057Y-186528628D01*
X208077200Y-185385771D02*
X208077200Y-186885771D01*
X208077200Y-185457200D02*
X208220057Y-185385771D01*
X208505771Y-185385771D01*
X208648628Y-185457200D01*
X208720057Y-185528628D01*
X208791485Y-185671485D01*
X208791485Y-186100057D01*
X208720057Y-186242914D01*
X208648628Y-186314342D01*
X208505771Y-186385771D01*
X208220057Y-186385771D01*
X208077200Y-186314342D01*
X210077200Y-186314342D02*
X209934342Y-186385771D01*
X209648628Y-186385771D01*
X209505771Y-186314342D01*
X209434342Y-186242914D01*
X209362914Y-186100057D01*
X209362914Y-185671485D01*
X209434342Y-185528628D01*
X209505771Y-185457200D01*
X209648628Y-185385771D01*
X209934342Y-185385771D01*
X210077200Y-185457200D01*
X210720057Y-186385771D02*
X210720057Y-184885771D01*
X210720057Y-185457200D02*
X210862914Y-185385771D01*
X211148628Y-185385771D01*
X211291485Y-185457200D01*
X211362914Y-185528628D01*
X211434342Y-185671485D01*
X211434342Y-186100057D01*
X211362914Y-186242914D01*
X211291485Y-186314342D01*
X211148628Y-186385771D01*
X210862914Y-186385771D01*
X210720057Y-186314342D01*
D10*
D11*
X177002200Y-181507200D02*
X285002200Y-181507200D01*
D10*
D11*
X178362914Y-183614342D02*
X178577200Y-183685771D01*
X178934342Y-183685771D01*
X179077200Y-183614342D01*
X179148628Y-183542914D01*
X179220057Y-183400057D01*
X179220057Y-183257200D01*
X179148628Y-183114342D01*
X179077200Y-183042914D01*
X178934342Y-182971485D01*
X178648628Y-182900057D01*
X178505771Y-182828628D01*
X178434342Y-182757200D01*
X178362914Y-182614342D01*
X178362914Y-182471485D01*
X178434342Y-182328628D01*
X178505771Y-182257200D01*
X178648628Y-182185771D01*
X179005771Y-182185771D01*
X179220057Y-182257200D01*
X179862914Y-183685771D02*
X179862914Y-182185771D01*
X180505771Y-183685771D02*
X180505771Y-182900057D01*
X180434342Y-182757200D01*
X180291485Y-182685771D01*
X180077200Y-182685771D01*
X179934342Y-182757200D01*
X179862914Y-182828628D01*
X181791485Y-183614342D02*
X181648628Y-183685771D01*
X181362914Y-183685771D01*
X181220057Y-183614342D01*
X181148628Y-183471485D01*
X181148628Y-182900057D01*
X181220057Y-182757200D01*
X181362914Y-182685771D01*
X181648628Y-182685771D01*
X181791485Y-182757200D01*
X181862914Y-182900057D01*
X181862914Y-183042914D01*
X181148628Y-183185771D01*
X183077200Y-183614342D02*
X182934342Y-183685771D01*
X182648628Y-183685771D01*
X182505771Y-183614342D01*
X182434342Y-183471485D01*
X182434342Y-182900057D01*
X182505771Y-182757200D01*
X182648628Y-182685771D01*
X182934342Y-182685771D01*
X183077200Y-182757200D01*
X183148628Y-182900057D01*
X183148628Y-183042914D01*
X182434342Y-183185771D01*
X183577200Y-182685771D02*
X184148628Y-182685771D01*
X183791485Y-182185771D02*
X183791485Y-183471485D01*
X183862914Y-183614342D01*
X184005771Y-183685771D01*
X184148628Y-183685771D01*
X184648628Y-183542914D02*
X184720057Y-183614342D01*
X184648628Y-183685771D01*
X184577200Y-183614342D01*
X184648628Y-183542914D01*
X184648628Y-183685771D01*
X184648628Y-182757200D02*
X184720057Y-182828628D01*
X184648628Y-182900057D01*
X184577200Y-182828628D01*
X184648628Y-182757200D01*
X184648628Y-182900057D01*
D10*
D12*
X178554342Y-180685771D02*
X178554342Y-179185771D01*
X179197200Y-180685771D02*
X179197200Y-179900057D01*
X179125771Y-179757200D01*
X178982914Y-179685771D01*
X178768628Y-179685771D01*
X178625771Y-179757200D01*
X178554342Y-179828628D01*
X179697200Y-179685771D02*
X180268628Y-179685771D01*
X179911485Y-179185771D02*
X179911485Y-180471485D01*
X179982914Y-180614342D01*
X180125771Y-180685771D01*
X180268628Y-180685771D01*
X180554342Y-179685771D02*
X181125771Y-179685771D01*
X180768628Y-179185771D02*
X180768628Y-180471485D01*
X180840057Y-180614342D01*
X180982914Y-180685771D01*
X181125771Y-180685771D01*
X181625771Y-179685771D02*
X181625771Y-181185771D01*
X181625771Y-179757200D02*
X181768628Y-179685771D01*
X182054342Y-179685771D01*
X182197200Y-179757200D01*
X182268628Y-179828628D01*
X182340057Y-179971485D01*
X182340057Y-180400057D01*
X182268628Y-180542914D01*
X182197200Y-180614342D01*
X182054342Y-180685771D01*
X181768628Y-180685771D01*
X181625771Y-180614342D01*
X182911485Y-180614342D02*
X183054342Y-180685771D01*
X183340057Y-180685771D01*
X183482914Y-180614342D01*
X183554342Y-180471485D01*
X183554342Y-180400057D01*
X183482914Y-180257200D01*
X183340057Y-180185771D01*
X183125771Y-180185771D01*
X182982914Y-180114342D01*
X182911485Y-179971485D01*
X182911485Y-179900057D01*
X182982914Y-179757200D01*
X183125771Y-179685771D01*
X183340057Y-179685771D01*
X183482914Y-179757200D01*
X184197200Y-180542914D02*
X184268628Y-180614342D01*
X184197200Y-180685771D01*
X184125771Y-180614342D01*
X184197200Y-180542914D01*
X184197200Y-180685771D01*
X184197200Y-179757200D02*
X184268628Y-179828628D01*
X184197200Y-179900057D01*
X184125771Y-179828628D01*
X184197200Y-179757200D01*
X184197200Y-179900057D01*
X185982914Y-179114342D02*
X184697200Y-181042914D01*
X187554342Y-179114342D02*
X186268628Y-181042914D01*
X188697200Y-179685771D02*
X188697200Y-180900057D01*
X188625771Y-181042914D01*
X188554342Y-181114342D01*
X188411485Y-181185771D01*
X188197200Y-181185771D01*
X188054342Y-181114342D01*
X188697200Y-180614342D02*
X188554342Y-180685771D01*
X188268628Y-180685771D01*
X188125771Y-180614342D01*
X188054342Y-180542914D01*
X187982914Y-180400057D01*
X187982914Y-179971485D01*
X188054342Y-179828628D01*
X188125771Y-179757200D01*
X188268628Y-179685771D01*
X188554342Y-179685771D01*
X188697200Y-179757200D01*
X189411485Y-180685771D02*
X189411485Y-179685771D01*
X189411485Y-179185771D02*
X189340057Y-179257200D01*
X189411485Y-179328628D01*
X189482914Y-179257200D01*
X189411485Y-179185771D01*
X189411485Y-179328628D01*
X189911485Y-179685771D02*
X190482914Y-179685771D01*
X190125771Y-179185771D02*
X190125771Y-180471485D01*
X190197200Y-180614342D01*
X190340057Y-180685771D01*
X190482914Y-180685771D01*
X190982914Y-180685771D02*
X190982914Y-179185771D01*
X191625771Y-180685771D02*
X191625771Y-179900057D01*
X191554342Y-179757200D01*
X191411485Y-179685771D01*
X191197200Y-179685771D01*
X191054342Y-179757200D01*
X190982914Y-179828628D01*
X192982914Y-179685771D02*
X192982914Y-180685771D01*
X192340057Y-179685771D02*
X192340057Y-180471485D01*
X192411485Y-180614342D01*
X192554342Y-180685771D01*
X192768628Y-180685771D01*
X192911485Y-180614342D01*
X192982914Y-180542914D01*
X193697200Y-180685771D02*
X193697200Y-179185771D01*
X193697200Y-179757200D02*
X193840057Y-179685771D01*
X194125771Y-179685771D01*
X194268628Y-179757200D01*
X194340057Y-179828628D01*
X194411485Y-179971485D01*
X194411485Y-180400057D01*
X194340057Y-180542914D01*
X194268628Y-180614342D01*
X194125771Y-180685771D01*
X193840057Y-180685771D01*
X193697200Y-180614342D01*
X195054342Y-180542914D02*
X195125771Y-180614342D01*
X195054342Y-180685771D01*
X194982914Y-180614342D01*
X195054342Y-180542914D01*
X195054342Y-180685771D01*
X196411485Y-180614342D02*
X196268628Y-180685771D01*
X195982914Y-180685771D01*
X195840057Y-180614342D01*
X195768628Y-180542914D01*
X195697200Y-180400057D01*
X195697200Y-179971485D01*
X195768628Y-179828628D01*
X195840057Y-179757200D01*
X195982914Y-179685771D01*
X196268628Y-179685771D01*
X196411485Y-179757200D01*
X197268628Y-180685771D02*
X197125771Y-180614342D01*
X197054342Y-180542914D01*
X196982914Y-180400057D01*
X196982914Y-179971485D01*
X197054342Y-179828628D01*
X197125771Y-179757200D01*
X197268628Y-179685771D01*
X197482914Y-179685771D01*
X197625771Y-179757200D01*
X197697200Y-179828628D01*
X197768628Y-179971485D01*
X197768628Y-180400057D01*
X197697200Y-180542914D01*
X197625771Y-180614342D01*
X197482914Y-180685771D01*
X197268628Y-180685771D01*
X198411485Y-180685771D02*
X198411485Y-179685771D01*
X198411485Y-179828628D02*
X198482914Y-179757200D01*
X198625771Y-179685771D01*
X198840057Y-179685771D01*
X198982914Y-179757200D01*
X199054342Y-179900057D01*
X199054342Y-180685771D01*
X199054342Y-179900057D02*
X199125771Y-179757200D01*
X199268628Y-179685771D01*
X199482914Y-179685771D01*
X199625771Y-179757200D01*
X199697200Y-179900057D01*
X199697200Y-180685771D01*
X201482914Y-179114342D02*
X200197200Y-181042914D01*
X201982914Y-180685771D02*
X201982914Y-179185771D01*
X202482914Y-180257200D01*
X202982914Y-179185771D01*
X202982914Y-180685771D01*
X203697200Y-180685771D02*
X203697200Y-179685771D01*
X203697200Y-179185771D02*
X203625771Y-179257200D01*
X203697200Y-179328628D01*
X203768628Y-179257200D01*
X203697200Y-179185771D01*
X203697200Y-179328628D01*
X204340057Y-180614342D02*
X204482914Y-180685771D01*
X204768628Y-180685771D01*
X204911485Y-180614342D01*
X204982914Y-180471485D01*
X204982914Y-180400057D01*
X204911485Y-180257200D01*
X204768628Y-180185771D01*
X204554342Y-180185771D01*
X204411485Y-180114342D01*
X204340057Y-179971485D01*
X204340057Y-179900057D01*
X204411485Y-179757200D01*
X204554342Y-179685771D01*
X204768628Y-179685771D01*
X204911485Y-179757200D01*
X205411485Y-179685771D02*
X205982914Y-179685771D01*
X205625771Y-179185771D02*
X205625771Y-180471485D01*
X205697200Y-180614342D01*
X205840057Y-180685771D01*
X205982914Y-180685771D01*
X207054342Y-180614342D02*
X206911485Y-180685771D01*
X206625771Y-180685771D01*
X206482914Y-180614342D01*
X206411485Y-180471485D01*
X206411485Y-179900057D01*
X206482914Y-179757200D01*
X206625771Y-179685771D01*
X206911485Y-179685771D01*
X207054342Y-179757200D01*
X207125771Y-179900057D01*
X207125771Y-180042914D01*
X206411485Y-180185771D01*
X207768628Y-180685771D02*
X207768628Y-179685771D01*
X207768628Y-179971485D02*
X207840057Y-179828628D01*
X207911485Y-179757200D01*
X208054342Y-179685771D01*
X208197200Y-179685771D01*
X208697200Y-180685771D02*
X208697200Y-179185771D01*
X208697200Y-179900057D02*
X209554342Y-179900057D01*
X209554342Y-180685771D02*
X209554342Y-179185771D01*
X210125771Y-179185771D02*
X210482914Y-180685771D01*
X210768628Y-179614342D01*
X211054342Y-180685771D01*
X211411485Y-179185771D01*
D10*
D11*
D10*
D11*
D10*
D11*
D10*
D11*
D10*
D11*
X197002200Y-191507200D02*
X197002200Y-194507200D01*
D10*
D11*
X261002200Y-191507200D02*
X261002200Y-198007200D01*
D14*
X101600000Y-94569047D02*
X101623809Y-94521428D01*
X101623809Y-94450000D01*
X101600000Y-94378571D01*
X101552380Y-94330952D01*
X101504761Y-94307142D01*
X101409523Y-94283333D01*
X101338095Y-94283333D01*
X101242857Y-94307142D01*
X101195238Y-94330952D01*
X101147619Y-94378571D01*
X101123809Y-94450000D01*
X101123809Y-94497619D01*
X101147619Y-94569047D01*
X101171428Y-94592857D01*
X101338095Y-94592857D01*
X101338095Y-94497619D01*
X101123809Y-94807142D02*
X101623809Y-94807142D01*
X101123809Y-95092857D01*
X101623809Y-95092857D01*
X101123809Y-95330952D02*
X101623809Y-95330952D01*
X101623809Y-95450000D01*
X101600000Y-95521428D01*
X101552380Y-95569047D01*
X101504761Y-95592857D01*
X101409523Y-95616666D01*
X101338095Y-95616666D01*
X101242857Y-95592857D01*
X101195238Y-95569047D01*
X101147619Y-95521428D01*
X101123809Y-95450000D01*
X101123809Y-95330952D01*
X101147619Y-89292857D02*
X101123809Y-89364285D01*
X101123809Y-89483333D01*
X101147619Y-89530952D01*
X101171428Y-89554761D01*
X101219047Y-89578571D01*
X101266666Y-89578571D01*
X101314285Y-89554761D01*
X101338095Y-89530952D01*
X101361904Y-89483333D01*
X101385714Y-89388095D01*
X101409523Y-89340476D01*
X101433333Y-89316666D01*
X101480952Y-89292857D01*
X101528571Y-89292857D01*
X101576190Y-89316666D01*
X101600000Y-89340476D01*
X101623809Y-89388095D01*
X101623809Y-89507142D01*
X101600000Y-89578571D01*
X101123809Y-89792857D02*
X101623809Y-89792857D01*
X101623809Y-89911904D01*
X101600000Y-89983333D01*
X101552380Y-90030952D01*
X101504761Y-90054761D01*
X101409523Y-90078571D01*
X101338095Y-90078571D01*
X101242857Y-90054761D01*
X101195238Y-90030952D01*
X101147619Y-89983333D01*
X101123809Y-89911904D01*
X101123809Y-89792857D01*
X101266666Y-90269047D02*
X101266666Y-90507142D01*
X101123809Y-90221428D02*
X101623809Y-90388095D01*
X101123809Y-90554761D01*
X101147619Y-91654761D02*
X101123809Y-91726190D01*
X101123809Y-91845238D01*
X101147619Y-91892857D01*
X101171428Y-91916666D01*
X101219047Y-91940476D01*
X101266666Y-91940476D01*
X101314285Y-91916666D01*
X101338095Y-91892857D01*
X101361904Y-91845238D01*
X101385714Y-91750000D01*
X101409523Y-91702380D01*
X101433333Y-91678571D01*
X101480952Y-91654761D01*
X101528571Y-91654761D01*
X101576190Y-91678571D01*
X101600000Y-91702380D01*
X101623809Y-91750000D01*
X101623809Y-91869047D01*
X101600000Y-91940476D01*
X101171428Y-92440476D02*
X101147619Y-92416666D01*
X101123809Y-92345238D01*
X101123809Y-92297619D01*
X101147619Y-92226190D01*
X101195238Y-92178571D01*
X101242857Y-92154761D01*
X101338095Y-92130952D01*
X101409523Y-92130952D01*
X101504761Y-92154761D01*
X101552380Y-92178571D01*
X101600000Y-92226190D01*
X101623809Y-92297619D01*
X101623809Y-92345238D01*
X101600000Y-92416666D01*
X101576190Y-92440476D01*
X101123809Y-92892857D02*
X101123809Y-92654761D01*
X101623809Y-92654761D01*
X101623809Y-96952380D02*
X101123809Y-97119047D01*
X101623809Y-97285714D01*
X101123809Y-97452380D02*
X101623809Y-97452380D01*
X101123809Y-97690476D02*
X101623809Y-97690476D01*
X101123809Y-97976190D01*
X101623809Y-97976190D01*
X101623809Y-98971428D02*
X101123809Y-99138095D01*
X101623809Y-99304761D01*
X101623809Y-99566666D02*
X101623809Y-99661904D01*
X101600000Y-99709523D01*
X101552380Y-99757142D01*
X101457142Y-99780952D01*
X101290476Y-99780952D01*
X101195238Y-99757142D01*
X101147619Y-99709523D01*
X101123809Y-99661904D01*
X101123809Y-99566666D01*
X101147619Y-99519047D01*
X101195238Y-99471428D01*
X101290476Y-99447619D01*
X101457142Y-99447619D01*
X101552380Y-99471428D01*
X101600000Y-99519047D01*
X101623809Y-99566666D01*
X98735714Y-93280952D02*
X98735714Y-93447619D01*
X98473809Y-93519047D02*
X98473809Y-93280952D01*
X98973809Y-93280952D01*
X98973809Y-93519047D01*
X98473809Y-93733333D02*
X98973809Y-93733333D01*
X98473809Y-94019047D01*
X98973809Y-94019047D01*
X98950000Y-95069047D02*
X98973809Y-95021428D01*
X98973809Y-94950000D01*
X98950000Y-94878571D01*
X98902380Y-94830952D01*
X98854761Y-94807142D01*
X98759523Y-94783333D01*
X98688095Y-94783333D01*
X98592857Y-94807142D01*
X98545238Y-94830952D01*
X98497619Y-94878571D01*
X98473809Y-94950000D01*
X98473809Y-94997619D01*
X98497619Y-95069047D01*
X98521428Y-95092857D01*
X98688095Y-95092857D01*
X98688095Y-94997619D01*
X98473809Y-95307142D02*
X98973809Y-95307142D01*
X98473809Y-95592857D01*
X98973809Y-95592857D01*
X98473809Y-95830952D02*
X98973809Y-95830952D01*
X98973809Y-95950000D01*
X98950000Y-96021428D01*
X98902380Y-96069047D01*
X98854761Y-96092857D01*
X98759523Y-96116666D01*
X98688095Y-96116666D01*
X98592857Y-96092857D01*
X98545238Y-96069047D01*
X98497619Y-96021428D01*
X98473809Y-95950000D01*
X98473809Y-95830952D01*
X98666666Y-90778571D02*
X98666666Y-91016666D01*
X98523809Y-90730952D02*
X99023809Y-90897619D01*
X98523809Y-91064285D01*
X98523809Y-91469047D02*
X98523809Y-91230952D01*
X99023809Y-91230952D01*
D10*
X105133333Y-94013452D02*
X105000000Y-93822976D01*
X104904761Y-94013452D02*
X104904761Y-93613452D01*
X105057142Y-93613452D01*
X105095238Y-93632500D01*
X105114285Y-93651547D01*
X105133333Y-93689642D01*
X105133333Y-93746785D01*
X105114285Y-93784880D01*
X105095238Y-93803928D01*
X105057142Y-93822976D01*
X104904761Y-93822976D01*
X105285714Y-93651547D02*
X105304761Y-93632500D01*
X105342857Y-93613452D01*
X105438095Y-93613452D01*
X105476190Y-93632500D01*
X105495238Y-93651547D01*
X105514285Y-93689642D01*
X105514285Y-93727738D01*
X105495238Y-93784880D01*
X105266666Y-94013452D01*
X105514285Y-94013452D01*
D11*
X103083333Y-99310000D02*
X103050000Y-99343333D01*
X102950000Y-99376666D01*
X102883333Y-99376666D01*
X102783333Y-99343333D01*
X102716666Y-99276666D01*
X102683333Y-99210000D01*
X102650000Y-99076666D01*
X102650000Y-98976666D01*
X102683333Y-98843333D01*
X102716666Y-98776666D01*
X102783333Y-98710000D01*
X102883333Y-98676666D01*
X102950000Y-98676666D01*
X103050000Y-98710000D01*
X103083333Y-98743333D01*
X103750000Y-99376666D02*
X103350000Y-99376666D01*
X103550000Y-99376666D02*
X103550000Y-98676666D01*
X103483333Y-98776666D01*
X103416666Y-98843333D01*
X103350000Y-98876666D01*
D10*
X109092857Y-96066666D02*
X109111904Y-96085714D01*
X109130952Y-96142857D01*
X109130952Y-96180952D01*
X109111904Y-96238095D01*
X109073809Y-96276190D01*
X109035714Y-96295238D01*
X108959523Y-96314285D01*
X108902380Y-96314285D01*
X108826190Y-96295238D01*
X108788095Y-96276190D01*
X108750000Y-96238095D01*
X108730952Y-96180952D01*
X108730952Y-96142857D01*
X108750000Y-96085714D01*
X108769047Y-96066666D01*
X108864285Y-95723809D02*
X109130952Y-95723809D01*
X108711904Y-95819047D02*
X108997619Y-95914285D01*
X108997619Y-95666666D01*
D11*
X106383333Y-99310000D02*
X106350000Y-99343333D01*
X106250000Y-99376666D01*
X106183333Y-99376666D01*
X106083333Y-99343333D01*
X106016666Y-99276666D01*
X105983333Y-99210000D01*
X105950000Y-99076666D01*
X105950000Y-98976666D01*
X105983333Y-98843333D01*
X106016666Y-98776666D01*
X106083333Y-98710000D01*
X106183333Y-98676666D01*
X106250000Y-98676666D01*
X106350000Y-98710000D01*
X106383333Y-98743333D01*
X107016666Y-98676666D02*
X106683333Y-98676666D01*
X106650000Y-99010000D01*
X106683333Y-98976666D01*
X106750000Y-98943333D01*
X106916666Y-98943333D01*
X106983333Y-98976666D01*
X107016666Y-99010000D01*
X107050000Y-99076666D01*
X107050000Y-99243333D01*
X107016666Y-99310000D01*
X106983333Y-99343333D01*
X106916666Y-99376666D01*
X106750000Y-99376666D01*
X106683333Y-99343333D01*
X106650000Y-99310000D01*
X114250000Y-99716666D02*
X114283333Y-99750000D01*
X114316666Y-99850000D01*
X114316666Y-99916666D01*
X114283333Y-100016666D01*
X114216666Y-100083333D01*
X114150000Y-100116666D01*
X114016666Y-100150000D01*
X113916666Y-100150000D01*
X113783333Y-100116666D01*
X113716666Y-100083333D01*
X113650000Y-100016666D01*
X113616666Y-99916666D01*
X113616666Y-99850000D01*
X113650000Y-99750000D01*
X113683333Y-99716666D01*
X113616666Y-99116666D02*
X113616666Y-99250000D01*
X113650000Y-99316666D01*
X113683333Y-99350000D01*
X113783333Y-99416666D01*
X113916666Y-99450000D01*
X114183333Y-99450000D01*
X114250000Y-99416666D01*
X114283333Y-99383333D01*
X114316666Y-99316666D01*
X114316666Y-99183333D01*
X114283333Y-99116666D01*
X114250000Y-99083333D01*
X114183333Y-99050000D01*
X114016666Y-99050000D01*
X113950000Y-99083333D01*
X113916666Y-99116666D01*
X113883333Y-99183333D01*
X113883333Y-99316666D01*
X113916666Y-99383333D01*
X113950000Y-99416666D01*
X114016666Y-99450000D01*
X109813333Y-99300000D02*
X109780000Y-99333333D01*
X109680000Y-99366666D01*
X109613333Y-99366666D01*
X109513333Y-99333333D01*
X109446666Y-99266666D01*
X109413333Y-99200000D01*
X109380000Y-99066666D01*
X109380000Y-98966666D01*
X109413333Y-98833333D01*
X109446666Y-98766666D01*
X109513333Y-98700000D01*
X109613333Y-98666666D01*
X109680000Y-98666666D01*
X109780000Y-98700000D01*
X109813333Y-98733333D01*
X110046666Y-98666666D02*
X110513333Y-98666666D01*
X110213333Y-99366666D01*
X118750000Y-99716666D02*
X118783333Y-99750000D01*
X118816666Y-99850000D01*
X118816666Y-99916666D01*
X118783333Y-100016666D01*
X118716666Y-100083333D01*
X118650000Y-100116666D01*
X118516666Y-100150000D01*
X118416666Y-100150000D01*
X118283333Y-100116666D01*
X118216666Y-100083333D01*
X118150000Y-100016666D01*
X118116666Y-99916666D01*
X118116666Y-99850000D01*
X118150000Y-99750000D01*
X118183333Y-99716666D01*
X118416666Y-99316666D02*
X118383333Y-99383333D01*
X118350000Y-99416666D01*
X118283333Y-99450000D01*
X118250000Y-99450000D01*
X118183333Y-99416666D01*
X118150000Y-99383333D01*
X118116666Y-99316666D01*
X118116666Y-99183333D01*
X118150000Y-99116666D01*
X118183333Y-99083333D01*
X118250000Y-99050000D01*
X118283333Y-99050000D01*
X118350000Y-99083333D01*
X118383333Y-99116666D01*
X118416666Y-99183333D01*
X118416666Y-99316666D01*
X118450000Y-99383333D01*
X118483333Y-99416666D01*
X118550000Y-99450000D01*
X118683333Y-99450000D01*
X118750000Y-99416666D01*
X118783333Y-99383333D01*
X118816666Y-99316666D01*
X118816666Y-99183333D01*
X118783333Y-99116666D01*
X118750000Y-99083333D01*
X118683333Y-99050000D01*
X118550000Y-99050000D01*
X118483333Y-99083333D01*
X118450000Y-99116666D01*
X118416666Y-99183333D01*
D10*
X102042857Y-93942857D02*
X102023809Y-93961904D01*
X101966666Y-93980952D01*
X101928571Y-93980952D01*
X101871428Y-93961904D01*
X101833333Y-93923809D01*
X101814285Y-93885714D01*
X101795238Y-93809523D01*
X101795238Y-93752380D01*
X101814285Y-93676190D01*
X101833333Y-93638095D01*
X101871428Y-93600000D01*
X101928571Y-93580952D01*
X101966666Y-93580952D01*
X102023809Y-93600000D01*
X102042857Y-93619047D01*
X102423809Y-93980952D02*
X102195238Y-93980952D01*
X102309523Y-93980952D02*
X102309523Y-93580952D01*
X102271428Y-93638095D01*
X102233333Y-93676190D01*
X102195238Y-93695238D01*
X102804761Y-93980952D02*
X102576190Y-93980952D01*
X102690476Y-93980952D02*
X102690476Y-93580952D01*
X102652380Y-93638095D01*
X102614285Y-93676190D01*
X102576190Y-93695238D01*
X103492857Y-93992857D02*
X103473809Y-94011904D01*
X103416666Y-94030952D01*
X103378571Y-94030952D01*
X103321428Y-94011904D01*
X103283333Y-93973809D01*
X103264285Y-93935714D01*
X103245238Y-93859523D01*
X103245238Y-93802380D01*
X103264285Y-93726190D01*
X103283333Y-93688095D01*
X103321428Y-93650000D01*
X103378571Y-93630952D01*
X103416666Y-93630952D01*
X103473809Y-93650000D01*
X103492857Y-93669047D01*
X103873809Y-94030952D02*
X103645238Y-94030952D01*
X103759523Y-94030952D02*
X103759523Y-93630952D01*
X103721428Y-93688095D01*
X103683333Y-93726190D01*
X103645238Y-93745238D01*
X104007142Y-93630952D02*
X104254761Y-93630952D01*
X104121428Y-93783333D01*
X104178571Y-93783333D01*
X104216666Y-93802380D01*
X104235714Y-93821428D01*
X104254761Y-93859523D01*
X104254761Y-93954761D01*
X104235714Y-93992857D01*
X104216666Y-94011904D01*
X104178571Y-94030952D01*
X104064285Y-94030952D01*
X104026190Y-94011904D01*
X104007142Y-93992857D01*
X103213452Y-96066666D02*
X103022976Y-96200000D01*
X103213452Y-96295238D02*
X102813452Y-96295238D01*
X102813452Y-96142857D01*
X102832500Y-96104761D01*
X102851547Y-96085714D01*
X102889642Y-96066666D01*
X102946785Y-96066666D01*
X102984880Y-96085714D01*
X103003928Y-96104761D01*
X103022976Y-96142857D01*
X103022976Y-96295238D01*
X103213452Y-95685714D02*
X103213452Y-95914285D01*
X103213452Y-95800000D02*
X102813452Y-95800000D01*
X102870595Y-95838095D01*
X102908690Y-95876190D01*
X102927738Y-95914285D01*
D14*
X106261904Y-90476190D02*
X106261904Y-89976190D01*
X106785714Y-90428571D02*
X106761904Y-90452380D01*
X106690476Y-90476190D01*
X106642857Y-90476190D01*
X106571428Y-90452380D01*
X106523809Y-90404761D01*
X106500000Y-90357142D01*
X106476190Y-90261904D01*
X106476190Y-90190476D01*
X106500000Y-90095238D01*
X106523809Y-90047619D01*
X106571428Y-90000000D01*
X106642857Y-89976190D01*
X106690476Y-89976190D01*
X106761904Y-90000000D01*
X106785714Y-90023809D01*
X107261904Y-90476190D02*
X106976190Y-90476190D01*
X107119047Y-90476190D02*
X107119047Y-89976190D01*
X107071428Y-90047619D01*
X107023809Y-90095238D01*
X106976190Y-90119047D01*
X106716666Y-89678571D02*
X106692857Y-89702380D01*
X106621428Y-89726190D01*
X106573809Y-89726190D01*
X106502380Y-89702380D01*
X106454761Y-89654761D01*
X106430952Y-89607142D01*
X106407142Y-89511904D01*
X106407142Y-89440476D01*
X106430952Y-89345238D01*
X106454761Y-89297619D01*
X106502380Y-89250000D01*
X106573809Y-89226190D01*
X106621428Y-89226190D01*
X106692857Y-89250000D01*
X106716666Y-89273809D01*
X106883333Y-89226190D02*
X107192857Y-89226190D01*
X107026190Y-89416666D01*
X107097619Y-89416666D01*
X107145238Y-89440476D01*
X107169047Y-89464285D01*
X107192857Y-89511904D01*
X107192857Y-89630952D01*
X107169047Y-89678571D01*
X107145238Y-89702380D01*
X107097619Y-89726190D01*
X106954761Y-89726190D01*
X106907142Y-89702380D01*
X106883333Y-89678571D01*
D11*
X116233333Y-93616666D02*
X115900000Y-93616666D01*
X115900000Y-92916666D01*
X116833333Y-93616666D02*
X116433333Y-93616666D01*
X116633333Y-93616666D02*
X116633333Y-92916666D01*
X116566666Y-93016666D01*
X116500000Y-93083333D01*
X116433333Y-93116666D01*
D14*
X110828571Y-93528571D02*
X110804761Y-93552380D01*
X110733333Y-93576190D01*
X110685714Y-93576190D01*
X110614285Y-93552380D01*
X110566666Y-93504761D01*
X110542857Y-93457142D01*
X110519047Y-93361904D01*
X110519047Y-93290476D01*
X110542857Y-93195238D01*
X110566666Y-93147619D01*
X110614285Y-93100000D01*
X110685714Y-93076190D01*
X110733333Y-93076190D01*
X110804761Y-93100000D01*
X110828571Y-93123809D01*
X111304761Y-93576190D02*
X111019047Y-93576190D01*
X111161904Y-93576190D02*
X111161904Y-93076190D01*
X111114285Y-93147619D01*
X111066666Y-93195238D01*
X111019047Y-93219047D01*
X111614285Y-93076190D02*
X111661904Y-93076190D01*
X111709523Y-93100000D01*
X111733333Y-93123809D01*
X111757142Y-93171428D01*
X111780952Y-93266666D01*
X111780952Y-93385714D01*
X111757142Y-93480952D01*
X111733333Y-93528571D01*
X111709523Y-93552380D01*
X111661904Y-93576190D01*
X111614285Y-93576190D01*
X111566666Y-93552380D01*
X111542857Y-93528571D01*
X111519047Y-93480952D01*
X111495238Y-93385714D01*
X111495238Y-93266666D01*
X111519047Y-93171428D01*
X111542857Y-93123809D01*
X111566666Y-93100000D01*
X111614285Y-93076190D01*
D11*
X103683333Y-90350000D02*
X103650000Y-90383333D01*
X103550000Y-90416666D01*
X103483333Y-90416666D01*
X103383333Y-90383333D01*
X103316666Y-90316666D01*
X103283333Y-90250000D01*
X103250000Y-90116666D01*
X103250000Y-90016666D01*
X103283333Y-89883333D01*
X103316666Y-89816666D01*
X103383333Y-89750000D01*
X103483333Y-89716666D01*
X103550000Y-89716666D01*
X103650000Y-89750000D01*
X103683333Y-89783333D01*
X103950000Y-89783333D02*
X103983333Y-89750000D01*
X104050000Y-89716666D01*
X104216666Y-89716666D01*
X104283333Y-89750000D01*
X104316666Y-89783333D01*
X104350000Y-89850000D01*
X104350000Y-89916666D01*
X104316666Y-90016666D01*
X103916666Y-90416666D01*
X104350000Y-90416666D01*
D14*
X111016666Y-89728571D02*
X110992857Y-89752380D01*
X110921428Y-89776190D01*
X110873809Y-89776190D01*
X110802380Y-89752380D01*
X110754761Y-89704761D01*
X110730952Y-89657142D01*
X110707142Y-89561904D01*
X110707142Y-89490476D01*
X110730952Y-89395238D01*
X110754761Y-89347619D01*
X110802380Y-89300000D01*
X110873809Y-89276190D01*
X110921428Y-89276190D01*
X110992857Y-89300000D01*
X111016666Y-89323809D01*
X111254761Y-89776190D02*
X111350000Y-89776190D01*
X111397619Y-89752380D01*
X111421428Y-89728571D01*
X111469047Y-89657142D01*
X111492857Y-89561904D01*
X111492857Y-89371428D01*
X111469047Y-89323809D01*
X111445238Y-89300000D01*
X111397619Y-89276190D01*
X111302380Y-89276190D01*
X111254761Y-89300000D01*
X111230952Y-89323809D01*
X111207142Y-89371428D01*
X111207142Y-89490476D01*
X111230952Y-89538095D01*
X111254761Y-89561904D01*
X111302380Y-89585714D01*
X111397619Y-89585714D01*
X111445238Y-89561904D01*
X111469047Y-89538095D01*
X111492857Y-89490476D01*
X98383333Y-100776190D02*
X98383333Y-101133333D01*
X98359523Y-101204761D01*
X98311904Y-101252380D01*
X98240476Y-101276190D01*
X98192857Y-101276190D01*
X98883333Y-101276190D02*
X98597619Y-101276190D01*
X98740476Y-101276190D02*
X98740476Y-100776190D01*
X98692857Y-100847619D01*
X98645238Y-100895238D01*
X98597619Y-100919047D01*
D10*
X106142857Y-96307142D02*
X106161904Y-96326190D01*
X106180952Y-96383333D01*
X106180952Y-96421428D01*
X106161904Y-96478571D01*
X106123809Y-96516666D01*
X106085714Y-96535714D01*
X106009523Y-96554761D01*
X105952380Y-96554761D01*
X105876190Y-96535714D01*
X105838095Y-96516666D01*
X105800000Y-96478571D01*
X105780952Y-96421428D01*
X105780952Y-96383333D01*
X105800000Y-96326190D01*
X105819047Y-96307142D01*
X106180952Y-95926190D02*
X106180952Y-96154761D01*
X106180952Y-96040476D02*
X105780952Y-96040476D01*
X105838095Y-96078571D01*
X105876190Y-96116666D01*
X105895238Y-96154761D01*
X105819047Y-95773809D02*
X105800000Y-95754761D01*
X105780952Y-95716666D01*
X105780952Y-95621428D01*
X105800000Y-95583333D01*
X105819047Y-95564285D01*
X105857142Y-95545238D01*
X105895238Y-95545238D01*
X105952380Y-95564285D01*
X106180952Y-95792857D01*
X106180952Y-95545238D01*
D15*
X105740000Y-93669721D02*
X105740000Y-93995279D01*
X104720000Y-93669721D02*
X104720000Y-93995279D01*
X101840000Y-98457936D02*
X101840000Y-99662064D01*
X104560000Y-98457936D02*
X104560000Y-99662064D01*
X109100279Y-96540000D02*
X108774721Y-96540000D01*
X109100279Y-95520000D02*
X108774721Y-95520000D01*
X108000000Y-99662064D02*
X108000000Y-98457936D01*
X105280000Y-99662064D02*
X105280000Y-98457936D01*
X114577064Y-100935000D02*
X113372936Y-100935000D01*
X114577064Y-98215000D02*
X113372936Y-98215000D01*
X108590000Y-98447936D02*
X108590000Y-99652064D01*
X111310000Y-98447936D02*
X111310000Y-99652064D01*
X117922936Y-100935000D02*
X119127064Y-100935000D01*
X117922936Y-98215000D02*
X119127064Y-98215000D01*
X101770000Y-93995279D02*
X101770000Y-93669721D01*
X102790000Y-93995279D02*
X102790000Y-93669721D01*
X104260000Y-93995279D02*
X104260000Y-93669721D01*
X103240000Y-93995279D02*
X103240000Y-93669721D01*
X103195279Y-96540000D02*
X102869721Y-96540000D01*
X103195279Y-95520000D02*
X102869721Y-95520000D01*
D16*
X109490000Y-90900000D02*
X109490000Y-90900000D01*
X109490000Y-91000000D02*
X109490000Y-91000000D01*
X109490000Y-90900000D02*
X109490000Y-90900000D01*
X109490000Y-91000000D02*
G75*
G02*
X109490000Y-90900000I0J50000D01*
G01*
X109490000Y-91000000D02*
G75*
G02*
X109490000Y-90900000I0J50000D01*
G01*
X109490000Y-90900000D02*
G75*
G02*
X109490000Y-91000000I0J-50000D01*
G01*
D15*
X108982779Y-90440000D02*
X108657221Y-90440000D01*
X108982779Y-89420000D02*
X108657221Y-89420000D01*
D10*
X112750000Y-95300000D02*
X112750000Y-96858000D01*
X119950000Y-89741000D02*
X117750000Y-89741000D01*
X112750000Y-96858000D02*
X114950000Y-96858000D01*
X112743000Y-91300000D02*
X112750000Y-89741000D01*
X119957000Y-96858000D02*
X119957000Y-95300000D01*
X119957000Y-91300000D02*
X119950000Y-89741000D01*
X117750000Y-96858000D02*
X119957000Y-96858000D01*
X112750000Y-89741000D02*
X114950000Y-89741000D01*
D15*
X110590000Y-95049721D02*
X110590000Y-95375279D01*
X111610000Y-95049721D02*
X111610000Y-95375279D01*
X104402064Y-88740000D02*
X103197936Y-88740000D01*
X104402064Y-91460000D02*
X103197936Y-91460000D01*
X110640000Y-91550279D02*
X110640000Y-91224721D01*
X111660000Y-91550279D02*
X111660000Y-91224721D01*
X93360000Y-99720000D02*
X87360000Y-99720000D01*
X96020000Y-88510000D02*
X93360000Y-88510000D01*
X87360000Y-92760000D02*
X87360000Y-92000000D01*
X96020000Y-98730000D02*
X93360000Y-98730000D01*
X93360000Y-92760000D02*
X87360000Y-92760000D01*
X98890000Y-99620000D02*
X98502929Y-99620000D01*
X96020000Y-91110000D02*
X93360000Y-91110000D01*
X93360000Y-99960000D02*
X87360000Y-99960000D01*
X96417071Y-99620000D02*
X96020000Y-99620000D01*
X93360000Y-97840000D02*
X87360000Y-97840000D01*
X98957071Y-97080000D02*
X98502929Y-97080000D01*
X96020000Y-93650000D02*
X93360000Y-93650000D01*
X87360000Y-97080000D02*
X93360000Y-97080000D01*
X87360000Y-95300000D02*
X87360000Y-94540000D01*
X98957071Y-92000000D02*
X98502929Y-92000000D01*
X101270000Y-100000000D02*
X101270000Y-101270000D01*
X93360000Y-95300000D02*
X87360000Y-95300000D01*
X96417071Y-92760000D02*
X96020000Y-92760000D01*
X87360000Y-92000000D02*
X93360000Y-92000000D01*
X96417071Y-95300000D02*
X96020000Y-95300000D01*
X93360000Y-90220000D02*
X87360000Y-90220000D01*
X93360000Y-88510000D02*
X93360000Y-101330000D01*
X96417071Y-90220000D02*
X96020000Y-90220000D01*
X101270000Y-101270000D02*
X100000000Y-101270000D01*
X98957071Y-95300000D02*
X98502929Y-95300000D01*
X93360000Y-99840000D02*
X87360000Y-99840000D01*
X96020000Y-96190000D02*
X93360000Y-96190000D01*
X87360000Y-90220000D02*
X87360000Y-89460000D01*
X87360000Y-94540000D02*
X93360000Y-94540000D01*
X96417071Y-97080000D02*
X96020000Y-97080000D01*
X96417071Y-100380000D02*
X96020000Y-100380000D01*
X93360000Y-100320000D02*
X87360000Y-100320000D01*
X93360000Y-101330000D02*
X96020000Y-101330000D01*
X87360000Y-100380000D02*
X87360000Y-99620000D01*
X93360000Y-100200000D02*
X87360000Y-100200000D01*
X98957071Y-89460000D02*
X98502929Y-89460000D01*
X98957071Y-94540000D02*
X98502929Y-94540000D01*
X93360000Y-100380000D02*
X87360000Y-100380000D01*
X96417071Y-94540000D02*
X96020000Y-94540000D01*
X98890000Y-100380000D02*
X98502929Y-100380000D01*
X87360000Y-89460000D02*
X93360000Y-89460000D01*
X87360000Y-99620000D02*
X93360000Y-99620000D01*
X98957071Y-97840000D02*
X98502929Y-97840000D01*
X96417071Y-92000000D02*
X96020000Y-92000000D01*
X98957071Y-90220000D02*
X98502929Y-90220000D01*
X98957071Y-92760000D02*
X98502929Y-92760000D01*
X96417071Y-97840000D02*
X96020000Y-97840000D01*
X93360000Y-100080000D02*
X87360000Y-100080000D01*
X87360000Y-97840000D02*
X87360000Y-97080000D01*
X96417071Y-89460000D02*
X96020000Y-89460000D01*
X96020000Y-101330000D02*
X96020000Y-88510000D01*
X106172779Y-96540000D02*
X105847221Y-96540000D01*
X106172779Y-95520000D02*
X105847221Y-95520000D01*
M02*
