G04 #@! TF.GenerationSoftware,KiCad,Pcbnew,(5.99.0-6495-g15369915cc)*
G04 #@! TF.CreationDate,2020-10-24T18:43:56+02:00*
G04 #@! TF.ProjectId,EVAL-MP8862,4556414c-2d4d-4503-9838-36322e6b6963,1A*
G04 #@! TF.SameCoordinates,Original*
G04 #@! TF.FileFunction,Copper,L3,Inr*
G04 #@! TF.FilePolarity,Positive*
%FSLAX46Y46*%
G04 Gerber Fmt 4.6, Leading zero omitted, Abs format (unit mm)*
G04 Created by KiCad (PCBNEW (5.99.0-6495-g15369915cc)) date 2020-10-24 18:43:56*
%MOMM*%
%LPD*%
G01*
G04 APERTURE LIST*
%ADD10C,0.100000*%
%ADD11C,0.150000*%
%ADD12C,0.300000*%
%ADD13C,0.400000*%
G04 #@! TA.AperFunction,ComponentPad*
%ADD14R,1.700000X1.700000*%
G04 #@! TD*
G04 #@! TA.AperFunction,ComponentPad*
%ADD15O,1.700000X1.700000*%
G04 #@! TD*
G04 #@! TA.AperFunction,ViaPad*
%ADD16C,0.700000*%
G04 #@! TD*
G04 #@! TA.AperFunction,ViaPad*
%ADD17C,0.800000*%
G04 #@! TD*
G04 #@! TA.AperFunction,ViaPad*
%ADD18C,0.600000*%
G04 #@! TD*
G04 #@! TA.AperFunction,Conductor*
%ADD19C,0.800000*%
G04 #@! TD*
G04 APERTURE END LIST*
D10*
D11*
X177002200Y-166007200D02*
X177002200Y-198007200D01*
X285002200Y-198007200D01*
X285002200Y-166007200D01*
X177002200Y-166007200D01*
D10*
D11*
X10000000Y-10000000D02*
X10000000Y-200007200D01*
X287002200Y-200007200D01*
X287002200Y-10000000D01*
X10000000Y-10000000D01*
D10*
D11*
X12000000Y-12000000D02*
X12000000Y-198007200D01*
X285002200Y-198007200D01*
X285002200Y-12000000D01*
X12000000Y-12000000D01*
D10*
D11*
X60000000Y-12000000D02*
X60000000Y-10000000D01*
D10*
D11*
X110000000Y-12000000D02*
X110000000Y-10000000D01*
D10*
D11*
X160000000Y-12000000D02*
X160000000Y-10000000D01*
D10*
D11*
X210000000Y-12000000D02*
X210000000Y-10000000D01*
D10*
D11*
X260000000Y-12000000D02*
X260000000Y-10000000D01*
D10*
D11*
X36065476Y-11588095D02*
X35322619Y-11588095D01*
X35694047Y-11588095D02*
X35694047Y-10288095D01*
X35570238Y-10473809D01*
X35446428Y-10597619D01*
X35322619Y-10659523D01*
D10*
D11*
X85322619Y-10411904D02*
X85384523Y-10350000D01*
X85508333Y-10288095D01*
X85817857Y-10288095D01*
X85941666Y-10350000D01*
X86003571Y-10411904D01*
X86065476Y-10535714D01*
X86065476Y-10659523D01*
X86003571Y-10845238D01*
X85260714Y-11588095D01*
X86065476Y-11588095D01*
D10*
D11*
X135260714Y-10288095D02*
X136065476Y-10288095D01*
X135632142Y-10783333D01*
X135817857Y-10783333D01*
X135941666Y-10845238D01*
X136003571Y-10907142D01*
X136065476Y-11030952D01*
X136065476Y-11340476D01*
X136003571Y-11464285D01*
X135941666Y-11526190D01*
X135817857Y-11588095D01*
X135446428Y-11588095D01*
X135322619Y-11526190D01*
X135260714Y-11464285D01*
D10*
D11*
X185941666Y-10721428D02*
X185941666Y-11588095D01*
X185632142Y-10226190D02*
X185322619Y-11154761D01*
X186127380Y-11154761D01*
D10*
D11*
X236003571Y-10288095D02*
X235384523Y-10288095D01*
X235322619Y-10907142D01*
X235384523Y-10845238D01*
X235508333Y-10783333D01*
X235817857Y-10783333D01*
X235941666Y-10845238D01*
X236003571Y-10907142D01*
X236065476Y-11030952D01*
X236065476Y-11340476D01*
X236003571Y-11464285D01*
X235941666Y-11526190D01*
X235817857Y-11588095D01*
X235508333Y-11588095D01*
X235384523Y-11526190D01*
X235322619Y-11464285D01*
D10*
D11*
X285941666Y-10288095D02*
X285694047Y-10288095D01*
X285570238Y-10350000D01*
X285508333Y-10411904D01*
X285384523Y-10597619D01*
X285322619Y-10845238D01*
X285322619Y-11340476D01*
X285384523Y-11464285D01*
X285446428Y-11526190D01*
X285570238Y-11588095D01*
X285817857Y-11588095D01*
X285941666Y-11526190D01*
X286003571Y-11464285D01*
X286065476Y-11340476D01*
X286065476Y-11030952D01*
X286003571Y-10907142D01*
X285941666Y-10845238D01*
X285817857Y-10783333D01*
X285570238Y-10783333D01*
X285446428Y-10845238D01*
X285384523Y-10907142D01*
X285322619Y-11030952D01*
D10*
D11*
X60000000Y-198007200D02*
X60000000Y-200007200D01*
D10*
D11*
X110000000Y-198007200D02*
X110000000Y-200007200D01*
D10*
D11*
X160000000Y-198007200D02*
X160000000Y-200007200D01*
D10*
D11*
X210000000Y-198007200D02*
X210000000Y-200007200D01*
D10*
D11*
X260000000Y-198007200D02*
X260000000Y-200007200D01*
D10*
D11*
X36065476Y-199595295D02*
X35322619Y-199595295D01*
X35694047Y-199595295D02*
X35694047Y-198295295D01*
X35570238Y-198481009D01*
X35446428Y-198604819D01*
X35322619Y-198666723D01*
D10*
D11*
X85322619Y-198419104D02*
X85384523Y-198357200D01*
X85508333Y-198295295D01*
X85817857Y-198295295D01*
X85941666Y-198357200D01*
X86003571Y-198419104D01*
X86065476Y-198542914D01*
X86065476Y-198666723D01*
X86003571Y-198852438D01*
X85260714Y-199595295D01*
X86065476Y-199595295D01*
D10*
D11*
X135260714Y-198295295D02*
X136065476Y-198295295D01*
X135632142Y-198790533D01*
X135817857Y-198790533D01*
X135941666Y-198852438D01*
X136003571Y-198914342D01*
X136065476Y-199038152D01*
X136065476Y-199347676D01*
X136003571Y-199471485D01*
X135941666Y-199533390D01*
X135817857Y-199595295D01*
X135446428Y-199595295D01*
X135322619Y-199533390D01*
X135260714Y-199471485D01*
D10*
D11*
X185941666Y-198728628D02*
X185941666Y-199595295D01*
X185632142Y-198233390D02*
X185322619Y-199161961D01*
X186127380Y-199161961D01*
D10*
D11*
X236003571Y-198295295D02*
X235384523Y-198295295D01*
X235322619Y-198914342D01*
X235384523Y-198852438D01*
X235508333Y-198790533D01*
X235817857Y-198790533D01*
X235941666Y-198852438D01*
X236003571Y-198914342D01*
X236065476Y-199038152D01*
X236065476Y-199347676D01*
X236003571Y-199471485D01*
X235941666Y-199533390D01*
X235817857Y-199595295D01*
X235508333Y-199595295D01*
X235384523Y-199533390D01*
X235322619Y-199471485D01*
D10*
D11*
X285941666Y-198295295D02*
X285694047Y-198295295D01*
X285570238Y-198357200D01*
X285508333Y-198419104D01*
X285384523Y-198604819D01*
X285322619Y-198852438D01*
X285322619Y-199347676D01*
X285384523Y-199471485D01*
X285446428Y-199533390D01*
X285570238Y-199595295D01*
X285817857Y-199595295D01*
X285941666Y-199533390D01*
X286003571Y-199471485D01*
X286065476Y-199347676D01*
X286065476Y-199038152D01*
X286003571Y-198914342D01*
X285941666Y-198852438D01*
X285817857Y-198790533D01*
X285570238Y-198790533D01*
X285446428Y-198852438D01*
X285384523Y-198914342D01*
X285322619Y-199038152D01*
D10*
D11*
X10000000Y-60000000D02*
X12000000Y-60000000D01*
D10*
D11*
X10000000Y-110000000D02*
X12000000Y-110000000D01*
D10*
D11*
X10000000Y-160000000D02*
X12000000Y-160000000D01*
D10*
D11*
X10690476Y-35216666D02*
X11309523Y-35216666D01*
X10566666Y-35588095D02*
X11000000Y-34288095D01*
X11433333Y-35588095D01*
D10*
D11*
X11092857Y-84907142D02*
X11278571Y-84969047D01*
X11340476Y-85030952D01*
X11402380Y-85154761D01*
X11402380Y-85340476D01*
X11340476Y-85464285D01*
X11278571Y-85526190D01*
X11154761Y-85588095D01*
X10659523Y-85588095D01*
X10659523Y-84288095D01*
X11092857Y-84288095D01*
X11216666Y-84350000D01*
X11278571Y-84411904D01*
X11340476Y-84535714D01*
X11340476Y-84659523D01*
X11278571Y-84783333D01*
X11216666Y-84845238D01*
X11092857Y-84907142D01*
X10659523Y-84907142D01*
D10*
D11*
X11402380Y-135464285D02*
X11340476Y-135526190D01*
X11154761Y-135588095D01*
X11030952Y-135588095D01*
X10845238Y-135526190D01*
X10721428Y-135402380D01*
X10659523Y-135278571D01*
X10597619Y-135030952D01*
X10597619Y-134845238D01*
X10659523Y-134597619D01*
X10721428Y-134473809D01*
X10845238Y-134350000D01*
X11030952Y-134288095D01*
X11154761Y-134288095D01*
X11340476Y-134350000D01*
X11402380Y-134411904D01*
D10*
D11*
X10659523Y-185588095D02*
X10659523Y-184288095D01*
X10969047Y-184288095D01*
X11154761Y-184350000D01*
X11278571Y-184473809D01*
X11340476Y-184597619D01*
X11402380Y-184845238D01*
X11402380Y-185030952D01*
X11340476Y-185278571D01*
X11278571Y-185402380D01*
X11154761Y-185526190D01*
X10969047Y-185588095D01*
X10659523Y-185588095D01*
D10*
D11*
X287002200Y-60000000D02*
X285002200Y-60000000D01*
D10*
D11*
X287002200Y-110000000D02*
X285002200Y-110000000D01*
D10*
D11*
X287002200Y-160000000D02*
X285002200Y-160000000D01*
D10*
D11*
X285692676Y-35216666D02*
X286311723Y-35216666D01*
X285568866Y-35588095D02*
X286002200Y-34288095D01*
X286435533Y-35588095D01*
D10*
D11*
X286095057Y-84907142D02*
X286280771Y-84969047D01*
X286342676Y-85030952D01*
X286404580Y-85154761D01*
X286404580Y-85340476D01*
X286342676Y-85464285D01*
X286280771Y-85526190D01*
X286156961Y-85588095D01*
X285661723Y-85588095D01*
X285661723Y-84288095D01*
X286095057Y-84288095D01*
X286218866Y-84350000D01*
X286280771Y-84411904D01*
X286342676Y-84535714D01*
X286342676Y-84659523D01*
X286280771Y-84783333D01*
X286218866Y-84845238D01*
X286095057Y-84907142D01*
X285661723Y-84907142D01*
D10*
D11*
X286404580Y-135464285D02*
X286342676Y-135526190D01*
X286156961Y-135588095D01*
X286033152Y-135588095D01*
X285847438Y-135526190D01*
X285723628Y-135402380D01*
X285661723Y-135278571D01*
X285599819Y-135030952D01*
X285599819Y-134845238D01*
X285661723Y-134597619D01*
X285723628Y-134473809D01*
X285847438Y-134350000D01*
X286033152Y-134288095D01*
X286156961Y-134288095D01*
X286342676Y-134350000D01*
X286404580Y-134411904D01*
D10*
D11*
X285661723Y-185588095D02*
X285661723Y-184288095D01*
X285971247Y-184288095D01*
X286156961Y-184350000D01*
X286280771Y-184473809D01*
X286342676Y-184597619D01*
X286404580Y-184845238D01*
X286404580Y-185030952D01*
X286342676Y-185278571D01*
X286280771Y-185402380D01*
X286156961Y-185526190D01*
X285971247Y-185588095D01*
X285661723Y-185588095D01*
D10*
D11*
X200434342Y-193785771D02*
X200434342Y-192285771D01*
X200791485Y-192285771D01*
X201005771Y-192357200D01*
X201148628Y-192500057D01*
X201220057Y-192642914D01*
X201291485Y-192928628D01*
X201291485Y-193142914D01*
X201220057Y-193428628D01*
X201148628Y-193571485D01*
X201005771Y-193714342D01*
X200791485Y-193785771D01*
X200434342Y-193785771D01*
X202577200Y-193785771D02*
X202577200Y-193000057D01*
X202505771Y-192857200D01*
X202362914Y-192785771D01*
X202077200Y-192785771D01*
X201934342Y-192857200D01*
X202577200Y-193714342D02*
X202434342Y-193785771D01*
X202077200Y-193785771D01*
X201934342Y-193714342D01*
X201862914Y-193571485D01*
X201862914Y-193428628D01*
X201934342Y-193285771D01*
X202077200Y-193214342D01*
X202434342Y-193214342D01*
X202577200Y-193142914D01*
X203077200Y-192785771D02*
X203648628Y-192785771D01*
X203291485Y-192285771D02*
X203291485Y-193571485D01*
X203362914Y-193714342D01*
X203505771Y-193785771D01*
X203648628Y-193785771D01*
X204720057Y-193714342D02*
X204577200Y-193785771D01*
X204291485Y-193785771D01*
X204148628Y-193714342D01*
X204077200Y-193571485D01*
X204077200Y-193000057D01*
X204148628Y-192857200D01*
X204291485Y-192785771D01*
X204577200Y-192785771D01*
X204720057Y-192857200D01*
X204791485Y-193000057D01*
X204791485Y-193142914D01*
X204077200Y-193285771D01*
X205434342Y-193642914D02*
X205505771Y-193714342D01*
X205434342Y-193785771D01*
X205362914Y-193714342D01*
X205434342Y-193642914D01*
X205434342Y-193785771D01*
X205434342Y-192857200D02*
X205505771Y-192928628D01*
X205434342Y-193000057D01*
X205362914Y-192928628D01*
X205434342Y-192857200D01*
X205434342Y-193000057D01*
X207220057Y-192428628D02*
X207291485Y-192357200D01*
X207434342Y-192285771D01*
X207791485Y-192285771D01*
X207934342Y-192357200D01*
X208005771Y-192428628D01*
X208077200Y-192571485D01*
X208077200Y-192714342D01*
X208005771Y-192928628D01*
X207148628Y-193785771D01*
X208077200Y-193785771D01*
X209005771Y-192285771D02*
X209148628Y-192285771D01*
X209291485Y-192357200D01*
X209362914Y-192428628D01*
X209434342Y-192571485D01*
X209505771Y-192857200D01*
X209505771Y-193214342D01*
X209434342Y-193500057D01*
X209362914Y-193642914D01*
X209291485Y-193714342D01*
X209148628Y-193785771D01*
X209005771Y-193785771D01*
X208862914Y-193714342D01*
X208791485Y-193642914D01*
X208720057Y-193500057D01*
X208648628Y-193214342D01*
X208648628Y-192857200D01*
X208720057Y-192571485D01*
X208791485Y-192428628D01*
X208862914Y-192357200D01*
X209005771Y-192285771D01*
X210077200Y-192428628D02*
X210148628Y-192357200D01*
X210291485Y-192285771D01*
X210648628Y-192285771D01*
X210791485Y-192357200D01*
X210862914Y-192428628D01*
X210934342Y-192571485D01*
X210934342Y-192714342D01*
X210862914Y-192928628D01*
X210005771Y-193785771D01*
X210934342Y-193785771D01*
X211862914Y-192285771D02*
X212005771Y-192285771D01*
X212148628Y-192357200D01*
X212220057Y-192428628D01*
X212291485Y-192571485D01*
X212362914Y-192857200D01*
X212362914Y-193214342D01*
X212291485Y-193500057D01*
X212220057Y-193642914D01*
X212148628Y-193714342D01*
X212005771Y-193785771D01*
X211862914Y-193785771D01*
X211720057Y-193714342D01*
X211648628Y-193642914D01*
X211577200Y-193500057D01*
X211505771Y-193214342D01*
X211505771Y-192857200D01*
X211577200Y-192571485D01*
X211648628Y-192428628D01*
X211720057Y-192357200D01*
X211862914Y-192285771D01*
X213005771Y-193214342D02*
X214148628Y-193214342D01*
X215648628Y-193785771D02*
X214791485Y-193785771D01*
X215220057Y-193785771D02*
X215220057Y-192285771D01*
X215077200Y-192500057D01*
X214934342Y-192642914D01*
X214791485Y-192714342D01*
X216577200Y-192285771D02*
X216720057Y-192285771D01*
X216862914Y-192357200D01*
X216934342Y-192428628D01*
X217005771Y-192571485D01*
X217077200Y-192857200D01*
X217077200Y-193214342D01*
X217005771Y-193500057D01*
X216934342Y-193642914D01*
X216862914Y-193714342D01*
X216720057Y-193785771D01*
X216577200Y-193785771D01*
X216434342Y-193714342D01*
X216362914Y-193642914D01*
X216291485Y-193500057D01*
X216220057Y-193214342D01*
X216220057Y-192857200D01*
X216291485Y-192571485D01*
X216362914Y-192428628D01*
X216434342Y-192357200D01*
X216577200Y-192285771D01*
X217720057Y-193214342D02*
X218862914Y-193214342D01*
X219505771Y-192428628D02*
X219577200Y-192357200D01*
X219720057Y-192285771D01*
X220077200Y-192285771D01*
X220220057Y-192357200D01*
X220291485Y-192428628D01*
X220362914Y-192571485D01*
X220362914Y-192714342D01*
X220291485Y-192928628D01*
X219434342Y-193785771D01*
X220362914Y-193785771D01*
X221648628Y-192785771D02*
X221648628Y-193785771D01*
X221291485Y-192214342D02*
X220934342Y-193285771D01*
X221862914Y-193285771D01*
D10*
D11*
X177002200Y-194507200D02*
X285002200Y-194507200D01*
D10*
D11*
X178434342Y-196585771D02*
X178434342Y-195085771D01*
X179291485Y-196585771D02*
X178648628Y-195728628D01*
X179291485Y-195085771D02*
X178434342Y-195942914D01*
X179934342Y-196585771D02*
X179934342Y-195585771D01*
X179934342Y-195085771D02*
X179862914Y-195157200D01*
X179934342Y-195228628D01*
X180005771Y-195157200D01*
X179934342Y-195085771D01*
X179934342Y-195228628D01*
X181505771Y-196442914D02*
X181434342Y-196514342D01*
X181220057Y-196585771D01*
X181077200Y-196585771D01*
X180862914Y-196514342D01*
X180720057Y-196371485D01*
X180648628Y-196228628D01*
X180577200Y-195942914D01*
X180577200Y-195728628D01*
X180648628Y-195442914D01*
X180720057Y-195300057D01*
X180862914Y-195157200D01*
X181077200Y-195085771D01*
X181220057Y-195085771D01*
X181434342Y-195157200D01*
X181505771Y-195228628D01*
X182791485Y-196585771D02*
X182791485Y-195800057D01*
X182720057Y-195657200D01*
X182577200Y-195585771D01*
X182291485Y-195585771D01*
X182148628Y-195657200D01*
X182791485Y-196514342D02*
X182648628Y-196585771D01*
X182291485Y-196585771D01*
X182148628Y-196514342D01*
X182077200Y-196371485D01*
X182077200Y-196228628D01*
X182148628Y-196085771D01*
X182291485Y-196014342D01*
X182648628Y-196014342D01*
X182791485Y-195942914D01*
X184148628Y-196585771D02*
X184148628Y-195085771D01*
X184148628Y-196514342D02*
X184005771Y-196585771D01*
X183720057Y-196585771D01*
X183577200Y-196514342D01*
X183505771Y-196442914D01*
X183434342Y-196300057D01*
X183434342Y-195871485D01*
X183505771Y-195728628D01*
X183577200Y-195657200D01*
X183720057Y-195585771D01*
X184005771Y-195585771D01*
X184148628Y-195657200D01*
X186005771Y-195800057D02*
X186505771Y-195800057D01*
X186720057Y-196585771D02*
X186005771Y-196585771D01*
X186005771Y-195085771D01*
X186720057Y-195085771D01*
X187362914Y-196442914D02*
X187434342Y-196514342D01*
X187362914Y-196585771D01*
X187291485Y-196514342D01*
X187362914Y-196442914D01*
X187362914Y-196585771D01*
X188077200Y-196585771D02*
X188077200Y-195085771D01*
X188434342Y-195085771D01*
X188648628Y-195157200D01*
X188791485Y-195300057D01*
X188862914Y-195442914D01*
X188934342Y-195728628D01*
X188934342Y-195942914D01*
X188862914Y-196228628D01*
X188791485Y-196371485D01*
X188648628Y-196514342D01*
X188434342Y-196585771D01*
X188077200Y-196585771D01*
X189577200Y-196442914D02*
X189648628Y-196514342D01*
X189577200Y-196585771D01*
X189505771Y-196514342D01*
X189577200Y-196442914D01*
X189577200Y-196585771D01*
X190220057Y-196157200D02*
X190934342Y-196157200D01*
X190077200Y-196585771D02*
X190577200Y-195085771D01*
X191077200Y-196585771D01*
X191577200Y-196442914D02*
X191648628Y-196514342D01*
X191577200Y-196585771D01*
X191505771Y-196514342D01*
X191577200Y-196442914D01*
X191577200Y-196585771D01*
X194577200Y-196585771D02*
X194577200Y-195085771D01*
X194720057Y-196014342D02*
X195148628Y-196585771D01*
X195148628Y-195585771D02*
X194577200Y-196157200D01*
X195791485Y-196585771D02*
X195791485Y-195585771D01*
X195791485Y-195085771D02*
X195720057Y-195157200D01*
X195791485Y-195228628D01*
X195862914Y-195157200D01*
X195791485Y-195085771D01*
X195791485Y-195228628D01*
X197148628Y-196514342D02*
X197005771Y-196585771D01*
X196720057Y-196585771D01*
X196577200Y-196514342D01*
X196505771Y-196442914D01*
X196434342Y-196300057D01*
X196434342Y-195871485D01*
X196505771Y-195728628D01*
X196577200Y-195657200D01*
X196720057Y-195585771D01*
X197005771Y-195585771D01*
X197148628Y-195657200D01*
X198434342Y-196585771D02*
X198434342Y-195800057D01*
X198362914Y-195657200D01*
X198220057Y-195585771D01*
X197934342Y-195585771D01*
X197791485Y-195657200D01*
X198434342Y-196514342D02*
X198291485Y-196585771D01*
X197934342Y-196585771D01*
X197791485Y-196514342D01*
X197720057Y-196371485D01*
X197720057Y-196228628D01*
X197791485Y-196085771D01*
X197934342Y-196014342D01*
X198291485Y-196014342D01*
X198434342Y-195942914D01*
X199791485Y-196585771D02*
X199791485Y-195085771D01*
X199791485Y-196514342D02*
X199648628Y-196585771D01*
X199362914Y-196585771D01*
X199220057Y-196514342D01*
X199148628Y-196442914D01*
X199077200Y-196300057D01*
X199077200Y-195871485D01*
X199148628Y-195728628D01*
X199220057Y-195657200D01*
X199362914Y-195585771D01*
X199648628Y-195585771D01*
X199791485Y-195657200D01*
X202077200Y-197157200D02*
X202005771Y-197085771D01*
X201862914Y-196871485D01*
X201791485Y-196728628D01*
X201720057Y-196514342D01*
X201648628Y-196157200D01*
X201648628Y-195871485D01*
X201720057Y-195514342D01*
X201791485Y-195300057D01*
X201862914Y-195157200D01*
X202005771Y-194942914D01*
X202077200Y-194871485D01*
X203362914Y-195085771D02*
X202648628Y-195085771D01*
X202577200Y-195800057D01*
X202648628Y-195728628D01*
X202791485Y-195657200D01*
X203148628Y-195657200D01*
X203291485Y-195728628D01*
X203362914Y-195800057D01*
X203434342Y-195942914D01*
X203434342Y-196300057D01*
X203362914Y-196442914D01*
X203291485Y-196514342D01*
X203148628Y-196585771D01*
X202791485Y-196585771D01*
X202648628Y-196514342D01*
X202577200Y-196442914D01*
X204077200Y-196442914D02*
X204148628Y-196514342D01*
X204077200Y-196585771D01*
X204005771Y-196514342D01*
X204077200Y-196442914D01*
X204077200Y-196585771D01*
X204862914Y-196585771D02*
X205148628Y-196585771D01*
X205291485Y-196514342D01*
X205362914Y-196442914D01*
X205505771Y-196228628D01*
X205577200Y-195942914D01*
X205577200Y-195371485D01*
X205505771Y-195228628D01*
X205434342Y-195157200D01*
X205291485Y-195085771D01*
X205005771Y-195085771D01*
X204862914Y-195157200D01*
X204791485Y-195228628D01*
X204720057Y-195371485D01*
X204720057Y-195728628D01*
X204791485Y-195871485D01*
X204862914Y-195942914D01*
X205005771Y-196014342D01*
X205291485Y-196014342D01*
X205434342Y-195942914D01*
X205505771Y-195871485D01*
X205577200Y-195728628D01*
X206291485Y-196585771D02*
X206577200Y-196585771D01*
X206720057Y-196514342D01*
X206791485Y-196442914D01*
X206934342Y-196228628D01*
X207005771Y-195942914D01*
X207005771Y-195371485D01*
X206934342Y-195228628D01*
X206862914Y-195157200D01*
X206720057Y-195085771D01*
X206434342Y-195085771D01*
X206291485Y-195157200D01*
X206220057Y-195228628D01*
X206148628Y-195371485D01*
X206148628Y-195728628D01*
X206220057Y-195871485D01*
X206291485Y-195942914D01*
X206434342Y-196014342D01*
X206720057Y-196014342D01*
X206862914Y-195942914D01*
X206934342Y-195871485D01*
X207005771Y-195728628D01*
X207648628Y-196442914D02*
X207720057Y-196514342D01*
X207648628Y-196585771D01*
X207577200Y-196514342D01*
X207648628Y-196442914D01*
X207648628Y-196585771D01*
X208648628Y-195085771D02*
X208791485Y-195085771D01*
X208934342Y-195157200D01*
X209005771Y-195228628D01*
X209077200Y-195371485D01*
X209148628Y-195657200D01*
X209148628Y-196014342D01*
X209077200Y-196300057D01*
X209005771Y-196442914D01*
X208934342Y-196514342D01*
X208791485Y-196585771D01*
X208648628Y-196585771D01*
X208505771Y-196514342D01*
X208434342Y-196442914D01*
X208362914Y-196300057D01*
X208291485Y-196014342D01*
X208291485Y-195657200D01*
X208362914Y-195371485D01*
X208434342Y-195228628D01*
X208505771Y-195157200D01*
X208648628Y-195085771D01*
X209791485Y-196014342D02*
X210934342Y-196014342D01*
X212291485Y-195085771D02*
X212005771Y-195085771D01*
X211862914Y-195157200D01*
X211791485Y-195228628D01*
X211648628Y-195442914D01*
X211577200Y-195728628D01*
X211577200Y-196300057D01*
X211648628Y-196442914D01*
X211720057Y-196514342D01*
X211862914Y-196585771D01*
X212148628Y-196585771D01*
X212291485Y-196514342D01*
X212362914Y-196442914D01*
X212434342Y-196300057D01*
X212434342Y-195942914D01*
X212362914Y-195800057D01*
X212291485Y-195728628D01*
X212148628Y-195657200D01*
X211862914Y-195657200D01*
X211720057Y-195728628D01*
X211648628Y-195800057D01*
X211577200Y-195942914D01*
X213720057Y-195585771D02*
X213720057Y-196585771D01*
X213362914Y-195014342D02*
X213005771Y-196085771D01*
X213934342Y-196085771D01*
X214577200Y-196585771D02*
X214862914Y-196585771D01*
X215005771Y-196514342D01*
X215077200Y-196442914D01*
X215220057Y-196228628D01*
X215291485Y-195942914D01*
X215291485Y-195371485D01*
X215220057Y-195228628D01*
X215148628Y-195157200D01*
X215005771Y-195085771D01*
X214720057Y-195085771D01*
X214577200Y-195157200D01*
X214505771Y-195228628D01*
X214434342Y-195371485D01*
X214434342Y-195728628D01*
X214505771Y-195871485D01*
X214577200Y-195942914D01*
X214720057Y-196014342D01*
X215005771Y-196014342D01*
X215148628Y-195942914D01*
X215220057Y-195871485D01*
X215291485Y-195728628D01*
X216648628Y-195085771D02*
X215934342Y-195085771D01*
X215862914Y-195800057D01*
X215934342Y-195728628D01*
X216077200Y-195657200D01*
X216434342Y-195657200D01*
X216577200Y-195728628D01*
X216648628Y-195800057D01*
X216720057Y-195942914D01*
X216720057Y-196300057D01*
X216648628Y-196442914D01*
X216577200Y-196514342D01*
X216434342Y-196585771D01*
X216077200Y-196585771D01*
X215934342Y-196514342D01*
X215862914Y-196442914D01*
X217362914Y-196014342D02*
X218505771Y-196014342D01*
X219862914Y-195585771D02*
X219862914Y-196800057D01*
X219791485Y-196942914D01*
X219720057Y-197014342D01*
X219577200Y-197085771D01*
X219362914Y-197085771D01*
X219220057Y-197014342D01*
X219862914Y-196514342D02*
X219720057Y-196585771D01*
X219434342Y-196585771D01*
X219291485Y-196514342D01*
X219220057Y-196442914D01*
X219148628Y-196300057D01*
X219148628Y-195871485D01*
X219220057Y-195728628D01*
X219291485Y-195657200D01*
X219434342Y-195585771D01*
X219720057Y-195585771D01*
X219862914Y-195657200D01*
X221362914Y-196585771D02*
X220505771Y-196585771D01*
X220934342Y-196585771D02*
X220934342Y-195085771D01*
X220791485Y-195300057D01*
X220648628Y-195442914D01*
X220505771Y-195514342D01*
X222720057Y-195085771D02*
X222005771Y-195085771D01*
X221934342Y-195800057D01*
X222005771Y-195728628D01*
X222148628Y-195657200D01*
X222505771Y-195657200D01*
X222648628Y-195728628D01*
X222720057Y-195800057D01*
X222791485Y-195942914D01*
X222791485Y-196300057D01*
X222720057Y-196442914D01*
X222648628Y-196514342D01*
X222505771Y-196585771D01*
X222148628Y-196585771D01*
X222005771Y-196514342D01*
X221934342Y-196442914D01*
X223291485Y-195085771D02*
X224220057Y-195085771D01*
X223720057Y-195657200D01*
X223934342Y-195657200D01*
X224077200Y-195728628D01*
X224148628Y-195800057D01*
X224220057Y-195942914D01*
X224220057Y-196300057D01*
X224148628Y-196442914D01*
X224077200Y-196514342D01*
X223934342Y-196585771D01*
X223505771Y-196585771D01*
X223362914Y-196514342D01*
X223291485Y-196442914D01*
X225505771Y-195085771D02*
X225220057Y-195085771D01*
X225077200Y-195157200D01*
X225005771Y-195228628D01*
X224862914Y-195442914D01*
X224791485Y-195728628D01*
X224791485Y-196300057D01*
X224862914Y-196442914D01*
X224934342Y-196514342D01*
X225077200Y-196585771D01*
X225362914Y-196585771D01*
X225505771Y-196514342D01*
X225577200Y-196442914D01*
X225648628Y-196300057D01*
X225648628Y-195942914D01*
X225577200Y-195800057D01*
X225505771Y-195728628D01*
X225362914Y-195657200D01*
X225077200Y-195657200D01*
X224934342Y-195728628D01*
X224862914Y-195800057D01*
X224791485Y-195942914D01*
X226362914Y-196585771D02*
X226648628Y-196585771D01*
X226791485Y-196514342D01*
X226862914Y-196442914D01*
X227005771Y-196228628D01*
X227077199Y-195942914D01*
X227077199Y-195371485D01*
X227005771Y-195228628D01*
X226934342Y-195157200D01*
X226791485Y-195085771D01*
X226505771Y-195085771D01*
X226362914Y-195157200D01*
X226291485Y-195228628D01*
X226220057Y-195371485D01*
X226220057Y-195728628D01*
X226291485Y-195871485D01*
X226362914Y-195942914D01*
X226505771Y-196014342D01*
X226791485Y-196014342D01*
X226934342Y-195942914D01*
X227005771Y-195871485D01*
X227077199Y-195728628D01*
X227791485Y-196585771D02*
X228077199Y-196585771D01*
X228220057Y-196514342D01*
X228291485Y-196442914D01*
X228434342Y-196228628D01*
X228505771Y-195942914D01*
X228505771Y-195371485D01*
X228434342Y-195228628D01*
X228362914Y-195157200D01*
X228220057Y-195085771D01*
X227934342Y-195085771D01*
X227791485Y-195157200D01*
X227720057Y-195228628D01*
X227648628Y-195371485D01*
X227648628Y-195728628D01*
X227720057Y-195871485D01*
X227791485Y-195942914D01*
X227934342Y-196014342D01*
X228220057Y-196014342D01*
X228362914Y-195942914D01*
X228434342Y-195871485D01*
X228505771Y-195728628D01*
X229934342Y-196585771D02*
X229077199Y-196585771D01*
X229505771Y-196585771D02*
X229505771Y-195085771D01*
X229362914Y-195300057D01*
X229220057Y-195442914D01*
X229077199Y-195514342D01*
X231291485Y-195085771D02*
X230577199Y-195085771D01*
X230505771Y-195800057D01*
X230577199Y-195728628D01*
X230720057Y-195657200D01*
X231077199Y-195657200D01*
X231220057Y-195728628D01*
X231291485Y-195800057D01*
X231362914Y-195942914D01*
X231362914Y-196300057D01*
X231291485Y-196442914D01*
X231220057Y-196514342D01*
X231077199Y-196585771D01*
X230720057Y-196585771D01*
X230577199Y-196514342D01*
X230505771Y-196442914D01*
X232648628Y-196514342D02*
X232505771Y-196585771D01*
X232220057Y-196585771D01*
X232077199Y-196514342D01*
X232005771Y-196442914D01*
X231934342Y-196300057D01*
X231934342Y-195871485D01*
X232005771Y-195728628D01*
X232077199Y-195657200D01*
X232220057Y-195585771D01*
X232505771Y-195585771D01*
X232648628Y-195657200D01*
X233934342Y-196514342D02*
X233791485Y-196585771D01*
X233505771Y-196585771D01*
X233362914Y-196514342D01*
X233291485Y-196442914D01*
X233220057Y-196300057D01*
X233220057Y-195871485D01*
X233291485Y-195728628D01*
X233362914Y-195657200D01*
X233505771Y-195585771D01*
X233791485Y-195585771D01*
X233934342Y-195657200D01*
X234434342Y-197157200D02*
X234505771Y-197085771D01*
X234648628Y-196871485D01*
X234720057Y-196728628D01*
X234791485Y-196514342D01*
X234862914Y-196157200D01*
X234862914Y-195871485D01*
X234791485Y-195514342D01*
X234720057Y-195300057D01*
X234648628Y-195157200D01*
X234505771Y-194942914D01*
X234434342Y-194871485D01*
D10*
D11*
X177002200Y-191507200D02*
X285002200Y-191507200D01*
D10*
D12*
X264411485Y-193785771D02*
X263911485Y-193071485D01*
X263554342Y-193785771D02*
X263554342Y-192285771D01*
X264125771Y-192285771D01*
X264268628Y-192357200D01*
X264340057Y-192428628D01*
X264411485Y-192571485D01*
X264411485Y-192785771D01*
X264340057Y-192928628D01*
X264268628Y-193000057D01*
X264125771Y-193071485D01*
X263554342Y-193071485D01*
X265625771Y-193714342D02*
X265482914Y-193785771D01*
X265197200Y-193785771D01*
X265054342Y-193714342D01*
X264982914Y-193571485D01*
X264982914Y-193000057D01*
X265054342Y-192857200D01*
X265197200Y-192785771D01*
X265482914Y-192785771D01*
X265625771Y-192857200D01*
X265697200Y-193000057D01*
X265697200Y-193142914D01*
X264982914Y-193285771D01*
X266197200Y-192785771D02*
X266554342Y-193785771D01*
X266911485Y-192785771D01*
X267482914Y-193642914D02*
X267554342Y-193714342D01*
X267482914Y-193785771D01*
X267411485Y-193714342D01*
X267482914Y-193642914D01*
X267482914Y-193785771D01*
X267482914Y-192857200D02*
X267554342Y-192928628D01*
X267482914Y-193000057D01*
X267411485Y-192928628D01*
X267482914Y-192857200D01*
X267482914Y-193000057D01*
X270125771Y-193785771D02*
X269268628Y-193785771D01*
X269697200Y-193785771D02*
X269697200Y-192285771D01*
X269554342Y-192500057D01*
X269411485Y-192642914D01*
X269268628Y-192714342D01*
X270697200Y-193357200D02*
X271411485Y-193357200D01*
X270554342Y-193785771D02*
X271054342Y-192285771D01*
X271554342Y-193785771D01*
D10*
D11*
X178362914Y-193714342D02*
X178577200Y-193785771D01*
X178934342Y-193785771D01*
X179077200Y-193714342D01*
X179148628Y-193642914D01*
X179220057Y-193500057D01*
X179220057Y-193357200D01*
X179148628Y-193214342D01*
X179077200Y-193142914D01*
X178934342Y-193071485D01*
X178648628Y-193000057D01*
X178505771Y-192928628D01*
X178434342Y-192857200D01*
X178362914Y-192714342D01*
X178362914Y-192571485D01*
X178434342Y-192428628D01*
X178505771Y-192357200D01*
X178648628Y-192285771D01*
X179005771Y-192285771D01*
X179220057Y-192357200D01*
X179862914Y-193785771D02*
X179862914Y-192785771D01*
X179862914Y-192285771D02*
X179791485Y-192357200D01*
X179862914Y-192428628D01*
X179934342Y-192357200D01*
X179862914Y-192285771D01*
X179862914Y-192428628D01*
X180434342Y-192785771D02*
X181220057Y-192785771D01*
X180434342Y-193785771D01*
X181220057Y-193785771D01*
X182362914Y-193714342D02*
X182220057Y-193785771D01*
X181934342Y-193785771D01*
X181791485Y-193714342D01*
X181720057Y-193571485D01*
X181720057Y-193000057D01*
X181791485Y-192857200D01*
X181934342Y-192785771D01*
X182220057Y-192785771D01*
X182362914Y-192857200D01*
X182434342Y-193000057D01*
X182434342Y-193142914D01*
X181720057Y-193285771D01*
X183077200Y-193642914D02*
X183148628Y-193714342D01*
X183077200Y-193785771D01*
X183005771Y-193714342D01*
X183077200Y-193642914D01*
X183077200Y-193785771D01*
X183077200Y-192857200D02*
X183148628Y-192928628D01*
X183077200Y-193000057D01*
X183005771Y-192928628D01*
X183077200Y-192857200D01*
X183077200Y-193000057D01*
X184862914Y-193357200D02*
X185577200Y-193357200D01*
X184720057Y-193785771D02*
X185220057Y-192285771D01*
X185720057Y-193785771D01*
X186862914Y-192785771D02*
X186862914Y-193785771D01*
X186505771Y-192214342D02*
X186148628Y-193285771D01*
X187077200Y-193285771D01*
D10*
D11*
X263434342Y-196585771D02*
X263434342Y-195085771D01*
X264791485Y-196585771D02*
X264791485Y-195085771D01*
X264791485Y-196514342D02*
X264648628Y-196585771D01*
X264362914Y-196585771D01*
X264220057Y-196514342D01*
X264148628Y-196442914D01*
X264077200Y-196300057D01*
X264077200Y-195871485D01*
X264148628Y-195728628D01*
X264220057Y-195657200D01*
X264362914Y-195585771D01*
X264648628Y-195585771D01*
X264791485Y-195657200D01*
X265505771Y-196442914D02*
X265577200Y-196514342D01*
X265505771Y-196585771D01*
X265434342Y-196514342D01*
X265505771Y-196442914D01*
X265505771Y-196585771D01*
X265505771Y-195657200D02*
X265577200Y-195728628D01*
X265505771Y-195800057D01*
X265434342Y-195728628D01*
X265505771Y-195657200D01*
X265505771Y-195800057D01*
X268148628Y-196585771D02*
X267291485Y-196585771D01*
X267720057Y-196585771D02*
X267720057Y-195085771D01*
X267577200Y-195300057D01*
X267434342Y-195442914D01*
X267291485Y-195514342D01*
X269862914Y-195014342D02*
X268577200Y-196942914D01*
X271148628Y-196585771D02*
X270291485Y-196585771D01*
X270720057Y-196585771D02*
X270720057Y-195085771D01*
X270577200Y-195300057D01*
X270434342Y-195442914D01*
X270291485Y-195514342D01*
D10*
D11*
X177002200Y-187507200D02*
X285002200Y-187507200D01*
D10*
D13*
X178714580Y-188211961D02*
X179857438Y-188211961D01*
X179036009Y-190211961D02*
X179286009Y-188211961D01*
X180274104Y-190211961D02*
X180440771Y-188878628D01*
X180524104Y-188211961D02*
X180416961Y-188307200D01*
X180500295Y-188402438D01*
X180607438Y-188307200D01*
X180524104Y-188211961D01*
X180500295Y-188402438D01*
X181107438Y-188878628D02*
X181869342Y-188878628D01*
X181476485Y-188211961D02*
X181262200Y-189926247D01*
X181333628Y-190116723D01*
X181512200Y-190211961D01*
X181702676Y-190211961D01*
X182655057Y-190211961D02*
X182476485Y-190116723D01*
X182405057Y-189926247D01*
X182619342Y-188211961D01*
X184190771Y-190116723D02*
X183988390Y-190211961D01*
X183607438Y-190211961D01*
X183428866Y-190116723D01*
X183357438Y-189926247D01*
X183452676Y-189164342D01*
X183571723Y-188973866D01*
X183774104Y-188878628D01*
X184155057Y-188878628D01*
X184333628Y-188973866D01*
X184405057Y-189164342D01*
X184381247Y-189354819D01*
X183405057Y-189545295D01*
X185155057Y-190021485D02*
X185238390Y-190116723D01*
X185131247Y-190211961D01*
X185047914Y-190116723D01*
X185155057Y-190021485D01*
X185131247Y-190211961D01*
X185286009Y-188973866D02*
X185369342Y-189069104D01*
X185262200Y-189164342D01*
X185178866Y-189069104D01*
X185286009Y-188973866D01*
X185262200Y-189164342D01*
X187738390Y-189164342D02*
X188405057Y-189164342D01*
X188559819Y-190211961D02*
X187607438Y-190211961D01*
X187857438Y-188211961D01*
X188809819Y-188211961D01*
X189381247Y-188211961D02*
X189797914Y-190211961D01*
X190714580Y-188211961D01*
X191107438Y-189640533D02*
X192059819Y-189640533D01*
X190845533Y-190211961D02*
X191762200Y-188211961D01*
X192178866Y-190211961D01*
X193797914Y-190211961D02*
X192845533Y-190211961D01*
X193095533Y-188211961D01*
X194559819Y-189450057D02*
X196083628Y-189450057D01*
X196940771Y-190211961D02*
X197190771Y-188211961D01*
X197678866Y-189640533D01*
X198524104Y-188211961D01*
X198274104Y-190211961D01*
X199226485Y-190211961D02*
X199476485Y-188211961D01*
X200238390Y-188211961D01*
X200416961Y-188307200D01*
X200500295Y-188402438D01*
X200571723Y-188592914D01*
X200536009Y-188878628D01*
X200416961Y-189069104D01*
X200309819Y-189164342D01*
X200107438Y-189259580D01*
X199345533Y-189259580D01*
X201655057Y-189069104D02*
X201476485Y-188973866D01*
X201393152Y-188878628D01*
X201321723Y-188688152D01*
X201333628Y-188592914D01*
X201452676Y-188402438D01*
X201559819Y-188307200D01*
X201762200Y-188211961D01*
X202143152Y-188211961D01*
X202321723Y-188307200D01*
X202405057Y-188402438D01*
X202476485Y-188592914D01*
X202464580Y-188688152D01*
X202345533Y-188878628D01*
X202238390Y-188973866D01*
X202036009Y-189069104D01*
X201655057Y-189069104D01*
X201452676Y-189164342D01*
X201345533Y-189259580D01*
X201226485Y-189450057D01*
X201178866Y-189831009D01*
X201250295Y-190021485D01*
X201333628Y-190116723D01*
X201512200Y-190211961D01*
X201893152Y-190211961D01*
X202095533Y-190116723D01*
X202202676Y-190021485D01*
X202321723Y-189831009D01*
X202369342Y-189450057D01*
X202297914Y-189259580D01*
X202214580Y-189164342D01*
X202036009Y-189069104D01*
X203559819Y-189069104D02*
X203381247Y-188973866D01*
X203297914Y-188878628D01*
X203226485Y-188688152D01*
X203238390Y-188592914D01*
X203357438Y-188402438D01*
X203464580Y-188307200D01*
X203666961Y-188211961D01*
X204047914Y-188211961D01*
X204226485Y-188307200D01*
X204309819Y-188402438D01*
X204381247Y-188592914D01*
X204369342Y-188688152D01*
X204250295Y-188878628D01*
X204143152Y-188973866D01*
X203940771Y-189069104D01*
X203559819Y-189069104D01*
X203357438Y-189164342D01*
X203250295Y-189259580D01*
X203131247Y-189450057D01*
X203083628Y-189831009D01*
X203155057Y-190021485D01*
X203238390Y-190116723D01*
X203416961Y-190211961D01*
X203797914Y-190211961D01*
X204000295Y-190116723D01*
X204107438Y-190021485D01*
X204226485Y-189831009D01*
X204274104Y-189450057D01*
X204202676Y-189259580D01*
X204119342Y-189164342D01*
X203940771Y-189069104D01*
X206143152Y-188211961D02*
X205762200Y-188211961D01*
X205559819Y-188307200D01*
X205452676Y-188402438D01*
X205226485Y-188688152D01*
X205083628Y-189069104D01*
X204988390Y-189831009D01*
X205059819Y-190021485D01*
X205143152Y-190116723D01*
X205321723Y-190211961D01*
X205702676Y-190211961D01*
X205905057Y-190116723D01*
X206012200Y-190021485D01*
X206131247Y-189831009D01*
X206190771Y-189354819D01*
X206119342Y-189164342D01*
X206036009Y-189069104D01*
X205857438Y-188973866D01*
X205476485Y-188973866D01*
X205274104Y-189069104D01*
X205166961Y-189164342D01*
X205047914Y-189354819D01*
X207071723Y-188402438D02*
X207178866Y-188307200D01*
X207381247Y-188211961D01*
X207857438Y-188211961D01*
X208036009Y-188307200D01*
X208119342Y-188402438D01*
X208190771Y-188592914D01*
X208166961Y-188783390D01*
X208036009Y-189069104D01*
X206750295Y-190211961D01*
X207988390Y-190211961D01*
X210131247Y-188307200D02*
X209952676Y-188211961D01*
X209666961Y-188211961D01*
X209369342Y-188307200D01*
X209155057Y-188497676D01*
X209036009Y-188688152D01*
X208893152Y-189069104D01*
X208857438Y-189354819D01*
X208905057Y-189735771D01*
X208976485Y-189926247D01*
X209143152Y-190116723D01*
X209416961Y-190211961D01*
X209607438Y-190211961D01*
X209905057Y-190116723D01*
X210012200Y-190021485D01*
X210095533Y-189354819D01*
X209714580Y-189354819D01*
X212155057Y-190402438D02*
X211976485Y-190307200D01*
X211809819Y-190116723D01*
X211559819Y-189831009D01*
X211381247Y-189735771D01*
X211190771Y-189735771D01*
X211226485Y-190211961D02*
X211047914Y-190116723D01*
X210881247Y-189926247D01*
X210833628Y-189545295D01*
X210916961Y-188878628D01*
X211059819Y-188497676D01*
X211274104Y-188307200D01*
X211476485Y-188211961D01*
X211857438Y-188211961D01*
X212036009Y-188307200D01*
X212202676Y-188497676D01*
X212250295Y-188878628D01*
X212166961Y-189545295D01*
X212024104Y-189926247D01*
X211809819Y-190116723D01*
X211607438Y-190211961D01*
X211226485Y-190211961D01*
X213036009Y-189450057D02*
X214559819Y-189450057D01*
X216047914Y-188211961D02*
X216238390Y-188211961D01*
X216416961Y-188307200D01*
X216500295Y-188402438D01*
X216571723Y-188592914D01*
X216619342Y-188973866D01*
X216559819Y-189450057D01*
X216416961Y-189831009D01*
X216297914Y-190021485D01*
X216190771Y-190116723D01*
X215988390Y-190211961D01*
X215797914Y-190211961D01*
X215619342Y-190116723D01*
X215536009Y-190021485D01*
X215464580Y-189831009D01*
X215416961Y-189450057D01*
X215476485Y-188973866D01*
X215619342Y-188592914D01*
X215738390Y-188402438D01*
X215845533Y-188307200D01*
X216047914Y-188211961D01*
X217952676Y-188211961D02*
X218143152Y-188211961D01*
X218321723Y-188307200D01*
X218405057Y-188402438D01*
X218476485Y-188592914D01*
X218524104Y-188973866D01*
X218464580Y-189450057D01*
X218321723Y-189831009D01*
X218202676Y-190021485D01*
X218095533Y-190116723D01*
X217893152Y-190211961D01*
X217702676Y-190211961D01*
X217524104Y-190116723D01*
X217440771Y-190021485D01*
X217369342Y-189831009D01*
X217321723Y-189450057D01*
X217381247Y-188973866D01*
X217524104Y-188592914D01*
X217643152Y-188402438D01*
X217750295Y-188307200D01*
X217952676Y-188211961D01*
X219857438Y-188211961D02*
X220047914Y-188211961D01*
X220226485Y-188307200D01*
X220309819Y-188402438D01*
X220381247Y-188592914D01*
X220428866Y-188973866D01*
X220369342Y-189450057D01*
X220226485Y-189831009D01*
X220107438Y-190021485D01*
X220000295Y-190116723D01*
X219797914Y-190211961D01*
X219607438Y-190211961D01*
X219428866Y-190116723D01*
X219345533Y-190021485D01*
X219274104Y-189831009D01*
X219226485Y-189450057D01*
X219286009Y-188973866D01*
X219428866Y-188592914D01*
X219547914Y-188402438D01*
X219655057Y-188307200D01*
X219857438Y-188211961D01*
X221762200Y-188211961D02*
X221952676Y-188211961D01*
X222131247Y-188307200D01*
X222214580Y-188402438D01*
X222286009Y-188592914D01*
X222333628Y-188973866D01*
X222274104Y-189450057D01*
X222131247Y-189831009D01*
X222012200Y-190021485D01*
X221905057Y-190116723D01*
X221702676Y-190211961D01*
X221512200Y-190211961D01*
X221333628Y-190116723D01*
X221250295Y-190021485D01*
X221178866Y-189831009D01*
X221131247Y-189450057D01*
X221190771Y-188973866D01*
X221333628Y-188592914D01*
X221452676Y-188402438D01*
X221559819Y-188307200D01*
X221762200Y-188211961D01*
D10*
D11*
X178934342Y-185600057D02*
X178434342Y-185600057D01*
X178434342Y-186385771D02*
X178434342Y-184885771D01*
X179148628Y-184885771D01*
X179720057Y-186385771D02*
X179720057Y-185385771D01*
X179720057Y-184885771D02*
X179648628Y-184957200D01*
X179720057Y-185028628D01*
X179791485Y-184957200D01*
X179720057Y-184885771D01*
X179720057Y-185028628D01*
X180648628Y-186385771D02*
X180505771Y-186314342D01*
X180434342Y-186171485D01*
X180434342Y-184885771D01*
X181791485Y-186314342D02*
X181648628Y-186385771D01*
X181362914Y-186385771D01*
X181220057Y-186314342D01*
X181148628Y-186171485D01*
X181148628Y-185600057D01*
X181220057Y-185457200D01*
X181362914Y-185385771D01*
X181648628Y-185385771D01*
X181791485Y-185457200D01*
X181862914Y-185600057D01*
X181862914Y-185742914D01*
X181148628Y-185885771D01*
X182505771Y-186242914D02*
X182577200Y-186314342D01*
X182505771Y-186385771D01*
X182434342Y-186314342D01*
X182505771Y-186242914D01*
X182505771Y-186385771D01*
X182505771Y-185457200D02*
X182577200Y-185528628D01*
X182505771Y-185600057D01*
X182434342Y-185528628D01*
X182505771Y-185457200D01*
X182505771Y-185600057D01*
X184362914Y-185600057D02*
X184862914Y-185600057D01*
X185077200Y-186385771D02*
X184362914Y-186385771D01*
X184362914Y-184885771D01*
X185077200Y-184885771D01*
X185505771Y-184885771D02*
X186005771Y-186385771D01*
X186505771Y-184885771D01*
X186934342Y-185957200D02*
X187648628Y-185957200D01*
X186791485Y-186385771D02*
X187291485Y-184885771D01*
X187791485Y-186385771D01*
X189005771Y-186385771D02*
X188291485Y-186385771D01*
X188291485Y-184885771D01*
X189505771Y-185814342D02*
X190648628Y-185814342D01*
X191362914Y-186385771D02*
X191362914Y-184885771D01*
X191862914Y-185957200D01*
X192362914Y-184885771D01*
X192362914Y-186385771D01*
X193077200Y-186385771D02*
X193077200Y-184885771D01*
X193648628Y-184885771D01*
X193791485Y-184957200D01*
X193862914Y-185028628D01*
X193934342Y-185171485D01*
X193934342Y-185385771D01*
X193862914Y-185528628D01*
X193791485Y-185600057D01*
X193648628Y-185671485D01*
X193077200Y-185671485D01*
X194791485Y-185528628D02*
X194648628Y-185457200D01*
X194577200Y-185385771D01*
X194505771Y-185242914D01*
X194505771Y-185171485D01*
X194577200Y-185028628D01*
X194648628Y-184957200D01*
X194791485Y-184885771D01*
X195077200Y-184885771D01*
X195220057Y-184957200D01*
X195291485Y-185028628D01*
X195362914Y-185171485D01*
X195362914Y-185242914D01*
X195291485Y-185385771D01*
X195220057Y-185457200D01*
X195077200Y-185528628D01*
X194791485Y-185528628D01*
X194648628Y-185600057D01*
X194577200Y-185671485D01*
X194505771Y-185814342D01*
X194505771Y-186100057D01*
X194577200Y-186242914D01*
X194648628Y-186314342D01*
X194791485Y-186385771D01*
X195077200Y-186385771D01*
X195220057Y-186314342D01*
X195291485Y-186242914D01*
X195362914Y-186100057D01*
X195362914Y-185814342D01*
X195291485Y-185671485D01*
X195220057Y-185600057D01*
X195077200Y-185528628D01*
X196220057Y-185528628D02*
X196077200Y-185457200D01*
X196005771Y-185385771D01*
X195934342Y-185242914D01*
X195934342Y-185171485D01*
X196005771Y-185028628D01*
X196077200Y-184957200D01*
X196220057Y-184885771D01*
X196505771Y-184885771D01*
X196648628Y-184957200D01*
X196720057Y-185028628D01*
X196791485Y-185171485D01*
X196791485Y-185242914D01*
X196720057Y-185385771D01*
X196648628Y-185457200D01*
X196505771Y-185528628D01*
X196220057Y-185528628D01*
X196077200Y-185600057D01*
X196005771Y-185671485D01*
X195934342Y-185814342D01*
X195934342Y-186100057D01*
X196005771Y-186242914D01*
X196077200Y-186314342D01*
X196220057Y-186385771D01*
X196505771Y-186385771D01*
X196648628Y-186314342D01*
X196720057Y-186242914D01*
X196791485Y-186100057D01*
X196791485Y-185814342D01*
X196720057Y-185671485D01*
X196648628Y-185600057D01*
X196505771Y-185528628D01*
X198077200Y-184885771D02*
X197791485Y-184885771D01*
X197648628Y-184957200D01*
X197577200Y-185028628D01*
X197434342Y-185242914D01*
X197362914Y-185528628D01*
X197362914Y-186100057D01*
X197434342Y-186242914D01*
X197505771Y-186314342D01*
X197648628Y-186385771D01*
X197934342Y-186385771D01*
X198077200Y-186314342D01*
X198148628Y-186242914D01*
X198220057Y-186100057D01*
X198220057Y-185742914D01*
X198148628Y-185600057D01*
X198077200Y-185528628D01*
X197934342Y-185457200D01*
X197648628Y-185457200D01*
X197505771Y-185528628D01*
X197434342Y-185600057D01*
X197362914Y-185742914D01*
X198791485Y-185028628D02*
X198862914Y-184957200D01*
X199005771Y-184885771D01*
X199362914Y-184885771D01*
X199505771Y-184957200D01*
X199577200Y-185028628D01*
X199648628Y-185171485D01*
X199648628Y-185314342D01*
X199577200Y-185528628D01*
X198720057Y-186385771D01*
X199648628Y-186385771D01*
X200291485Y-186242914D02*
X200362914Y-186314342D01*
X200291485Y-186385771D01*
X200220057Y-186314342D01*
X200291485Y-186242914D01*
X200291485Y-186385771D01*
X201005771Y-186385771D02*
X201005771Y-184885771D01*
X201148628Y-185814342D02*
X201577200Y-186385771D01*
X201577200Y-185385771D02*
X201005771Y-185957200D01*
X202220057Y-186385771D02*
X202220057Y-185385771D01*
X202220057Y-184885771D02*
X202148628Y-184957200D01*
X202220057Y-185028628D01*
X202291485Y-184957200D01*
X202220057Y-184885771D01*
X202220057Y-185028628D01*
X203577200Y-186314342D02*
X203434342Y-186385771D01*
X203148628Y-186385771D01*
X203005771Y-186314342D01*
X202934342Y-186242914D01*
X202862914Y-186100057D01*
X202862914Y-185671485D01*
X202934342Y-185528628D01*
X203005771Y-185457200D01*
X203148628Y-185385771D01*
X203434342Y-185385771D01*
X203577200Y-185457200D01*
X204862914Y-186385771D02*
X204862914Y-185600057D01*
X204791485Y-185457200D01*
X204648628Y-185385771D01*
X204362914Y-185385771D01*
X204220057Y-185457200D01*
X204862914Y-186314342D02*
X204720057Y-186385771D01*
X204362914Y-186385771D01*
X204220057Y-186314342D01*
X204148628Y-186171485D01*
X204148628Y-186028628D01*
X204220057Y-185885771D01*
X204362914Y-185814342D01*
X204720057Y-185814342D01*
X204862914Y-185742914D01*
X206220057Y-186385771D02*
X206220057Y-184885771D01*
X206220057Y-186314342D02*
X206077200Y-186385771D01*
X205791485Y-186385771D01*
X205648628Y-186314342D01*
X205577200Y-186242914D01*
X205505771Y-186100057D01*
X205505771Y-185671485D01*
X205577200Y-185528628D01*
X205648628Y-185457200D01*
X205791485Y-185385771D01*
X206077200Y-185385771D01*
X206220057Y-185457200D01*
X206577200Y-186528628D02*
X207720057Y-186528628D01*
X208077200Y-185385771D02*
X208077200Y-186885771D01*
X208077200Y-185457200D02*
X208220057Y-185385771D01*
X208505771Y-185385771D01*
X208648628Y-185457200D01*
X208720057Y-185528628D01*
X208791485Y-185671485D01*
X208791485Y-186100057D01*
X208720057Y-186242914D01*
X208648628Y-186314342D01*
X208505771Y-186385771D01*
X208220057Y-186385771D01*
X208077200Y-186314342D01*
X210077200Y-186314342D02*
X209934342Y-186385771D01*
X209648628Y-186385771D01*
X209505771Y-186314342D01*
X209434342Y-186242914D01*
X209362914Y-186100057D01*
X209362914Y-185671485D01*
X209434342Y-185528628D01*
X209505771Y-185457200D01*
X209648628Y-185385771D01*
X209934342Y-185385771D01*
X210077200Y-185457200D01*
X210720057Y-186385771D02*
X210720057Y-184885771D01*
X210720057Y-185457200D02*
X210862914Y-185385771D01*
X211148628Y-185385771D01*
X211291485Y-185457200D01*
X211362914Y-185528628D01*
X211434342Y-185671485D01*
X211434342Y-186100057D01*
X211362914Y-186242914D01*
X211291485Y-186314342D01*
X211148628Y-186385771D01*
X210862914Y-186385771D01*
X210720057Y-186314342D01*
D10*
D11*
X177002200Y-181507200D02*
X285002200Y-181507200D01*
D10*
D11*
X178362914Y-183614342D02*
X178577200Y-183685771D01*
X178934342Y-183685771D01*
X179077200Y-183614342D01*
X179148628Y-183542914D01*
X179220057Y-183400057D01*
X179220057Y-183257200D01*
X179148628Y-183114342D01*
X179077200Y-183042914D01*
X178934342Y-182971485D01*
X178648628Y-182900057D01*
X178505771Y-182828628D01*
X178434342Y-182757200D01*
X178362914Y-182614342D01*
X178362914Y-182471485D01*
X178434342Y-182328628D01*
X178505771Y-182257200D01*
X178648628Y-182185771D01*
X179005771Y-182185771D01*
X179220057Y-182257200D01*
X179862914Y-183685771D02*
X179862914Y-182185771D01*
X180505771Y-183685771D02*
X180505771Y-182900057D01*
X180434342Y-182757200D01*
X180291485Y-182685771D01*
X180077200Y-182685771D01*
X179934342Y-182757200D01*
X179862914Y-182828628D01*
X181791485Y-183614342D02*
X181648628Y-183685771D01*
X181362914Y-183685771D01*
X181220057Y-183614342D01*
X181148628Y-183471485D01*
X181148628Y-182900057D01*
X181220057Y-182757200D01*
X181362914Y-182685771D01*
X181648628Y-182685771D01*
X181791485Y-182757200D01*
X181862914Y-182900057D01*
X181862914Y-183042914D01*
X181148628Y-183185771D01*
X183077200Y-183614342D02*
X182934342Y-183685771D01*
X182648628Y-183685771D01*
X182505771Y-183614342D01*
X182434342Y-183471485D01*
X182434342Y-182900057D01*
X182505771Y-182757200D01*
X182648628Y-182685771D01*
X182934342Y-182685771D01*
X183077200Y-182757200D01*
X183148628Y-182900057D01*
X183148628Y-183042914D01*
X182434342Y-183185771D01*
X183577200Y-182685771D02*
X184148628Y-182685771D01*
X183791485Y-182185771D02*
X183791485Y-183471485D01*
X183862914Y-183614342D01*
X184005771Y-183685771D01*
X184148628Y-183685771D01*
X184648628Y-183542914D02*
X184720057Y-183614342D01*
X184648628Y-183685771D01*
X184577200Y-183614342D01*
X184648628Y-183542914D01*
X184648628Y-183685771D01*
X184648628Y-182757200D02*
X184720057Y-182828628D01*
X184648628Y-182900057D01*
X184577200Y-182828628D01*
X184648628Y-182757200D01*
X184648628Y-182900057D01*
D10*
D12*
X178554342Y-180685771D02*
X178554342Y-179185771D01*
X179197200Y-180685771D02*
X179197200Y-179900057D01*
X179125771Y-179757200D01*
X178982914Y-179685771D01*
X178768628Y-179685771D01*
X178625771Y-179757200D01*
X178554342Y-179828628D01*
X179697200Y-179685771D02*
X180268628Y-179685771D01*
X179911485Y-179185771D02*
X179911485Y-180471485D01*
X179982914Y-180614342D01*
X180125771Y-180685771D01*
X180268628Y-180685771D01*
X180554342Y-179685771D02*
X181125771Y-179685771D01*
X180768628Y-179185771D02*
X180768628Y-180471485D01*
X180840057Y-180614342D01*
X180982914Y-180685771D01*
X181125771Y-180685771D01*
X181625771Y-179685771D02*
X181625771Y-181185771D01*
X181625771Y-179757200D02*
X181768628Y-179685771D01*
X182054342Y-179685771D01*
X182197200Y-179757200D01*
X182268628Y-179828628D01*
X182340057Y-179971485D01*
X182340057Y-180400057D01*
X182268628Y-180542914D01*
X182197200Y-180614342D01*
X182054342Y-180685771D01*
X181768628Y-180685771D01*
X181625771Y-180614342D01*
X182911485Y-180614342D02*
X183054342Y-180685771D01*
X183340057Y-180685771D01*
X183482914Y-180614342D01*
X183554342Y-180471485D01*
X183554342Y-180400057D01*
X183482914Y-180257200D01*
X183340057Y-180185771D01*
X183125771Y-180185771D01*
X182982914Y-180114342D01*
X182911485Y-179971485D01*
X182911485Y-179900057D01*
X182982914Y-179757200D01*
X183125771Y-179685771D01*
X183340057Y-179685771D01*
X183482914Y-179757200D01*
X184197200Y-180542914D02*
X184268628Y-180614342D01*
X184197200Y-180685771D01*
X184125771Y-180614342D01*
X184197200Y-180542914D01*
X184197200Y-180685771D01*
X184197200Y-179757200D02*
X184268628Y-179828628D01*
X184197200Y-179900057D01*
X184125771Y-179828628D01*
X184197200Y-179757200D01*
X184197200Y-179900057D01*
X185982914Y-179114342D02*
X184697200Y-181042914D01*
X187554342Y-179114342D02*
X186268628Y-181042914D01*
X188697200Y-179685771D02*
X188697200Y-180900057D01*
X188625771Y-181042914D01*
X188554342Y-181114342D01*
X188411485Y-181185771D01*
X188197200Y-181185771D01*
X188054342Y-181114342D01*
X188697200Y-180614342D02*
X188554342Y-180685771D01*
X188268628Y-180685771D01*
X188125771Y-180614342D01*
X188054342Y-180542914D01*
X187982914Y-180400057D01*
X187982914Y-179971485D01*
X188054342Y-179828628D01*
X188125771Y-179757200D01*
X188268628Y-179685771D01*
X188554342Y-179685771D01*
X188697200Y-179757200D01*
X189411485Y-180685771D02*
X189411485Y-179685771D01*
X189411485Y-179185771D02*
X189340057Y-179257200D01*
X189411485Y-179328628D01*
X189482914Y-179257200D01*
X189411485Y-179185771D01*
X189411485Y-179328628D01*
X189911485Y-179685771D02*
X190482914Y-179685771D01*
X190125771Y-179185771D02*
X190125771Y-180471485D01*
X190197200Y-180614342D01*
X190340057Y-180685771D01*
X190482914Y-180685771D01*
X190982914Y-180685771D02*
X190982914Y-179185771D01*
X191625771Y-180685771D02*
X191625771Y-179900057D01*
X191554342Y-179757200D01*
X191411485Y-179685771D01*
X191197200Y-179685771D01*
X191054342Y-179757200D01*
X190982914Y-179828628D01*
X192982914Y-179685771D02*
X192982914Y-180685771D01*
X192340057Y-179685771D02*
X192340057Y-180471485D01*
X192411485Y-180614342D01*
X192554342Y-180685771D01*
X192768628Y-180685771D01*
X192911485Y-180614342D01*
X192982914Y-180542914D01*
X193697200Y-180685771D02*
X193697200Y-179185771D01*
X193697200Y-179757200D02*
X193840057Y-179685771D01*
X194125771Y-179685771D01*
X194268628Y-179757200D01*
X194340057Y-179828628D01*
X194411485Y-179971485D01*
X194411485Y-180400057D01*
X194340057Y-180542914D01*
X194268628Y-180614342D01*
X194125771Y-180685771D01*
X193840057Y-180685771D01*
X193697200Y-180614342D01*
X195054342Y-180542914D02*
X195125771Y-180614342D01*
X195054342Y-180685771D01*
X194982914Y-180614342D01*
X195054342Y-180542914D01*
X195054342Y-180685771D01*
X196411485Y-180614342D02*
X196268628Y-180685771D01*
X195982914Y-180685771D01*
X195840057Y-180614342D01*
X195768628Y-180542914D01*
X195697200Y-180400057D01*
X195697200Y-179971485D01*
X195768628Y-179828628D01*
X195840057Y-179757200D01*
X195982914Y-179685771D01*
X196268628Y-179685771D01*
X196411485Y-179757200D01*
X197268628Y-180685771D02*
X197125771Y-180614342D01*
X197054342Y-180542914D01*
X196982914Y-180400057D01*
X196982914Y-179971485D01*
X197054342Y-179828628D01*
X197125771Y-179757200D01*
X197268628Y-179685771D01*
X197482914Y-179685771D01*
X197625771Y-179757200D01*
X197697200Y-179828628D01*
X197768628Y-179971485D01*
X197768628Y-180400057D01*
X197697200Y-180542914D01*
X197625771Y-180614342D01*
X197482914Y-180685771D01*
X197268628Y-180685771D01*
X198411485Y-180685771D02*
X198411485Y-179685771D01*
X198411485Y-179828628D02*
X198482914Y-179757200D01*
X198625771Y-179685771D01*
X198840057Y-179685771D01*
X198982914Y-179757200D01*
X199054342Y-179900057D01*
X199054342Y-180685771D01*
X199054342Y-179900057D02*
X199125771Y-179757200D01*
X199268628Y-179685771D01*
X199482914Y-179685771D01*
X199625771Y-179757200D01*
X199697200Y-179900057D01*
X199697200Y-180685771D01*
X201482914Y-179114342D02*
X200197200Y-181042914D01*
X201982914Y-180685771D02*
X201982914Y-179185771D01*
X202482914Y-180257200D01*
X202982914Y-179185771D01*
X202982914Y-180685771D01*
X203697200Y-180685771D02*
X203697200Y-179685771D01*
X203697200Y-179185771D02*
X203625771Y-179257200D01*
X203697200Y-179328628D01*
X203768628Y-179257200D01*
X203697200Y-179185771D01*
X203697200Y-179328628D01*
X204340057Y-180614342D02*
X204482914Y-180685771D01*
X204768628Y-180685771D01*
X204911485Y-180614342D01*
X204982914Y-180471485D01*
X204982914Y-180400057D01*
X204911485Y-180257200D01*
X204768628Y-180185771D01*
X204554342Y-180185771D01*
X204411485Y-180114342D01*
X204340057Y-179971485D01*
X204340057Y-179900057D01*
X204411485Y-179757200D01*
X204554342Y-179685771D01*
X204768628Y-179685771D01*
X204911485Y-179757200D01*
X205411485Y-179685771D02*
X205982914Y-179685771D01*
X205625771Y-179185771D02*
X205625771Y-180471485D01*
X205697200Y-180614342D01*
X205840057Y-180685771D01*
X205982914Y-180685771D01*
X207054342Y-180614342D02*
X206911485Y-180685771D01*
X206625771Y-180685771D01*
X206482914Y-180614342D01*
X206411485Y-180471485D01*
X206411485Y-179900057D01*
X206482914Y-179757200D01*
X206625771Y-179685771D01*
X206911485Y-179685771D01*
X207054342Y-179757200D01*
X207125771Y-179900057D01*
X207125771Y-180042914D01*
X206411485Y-180185771D01*
X207768628Y-180685771D02*
X207768628Y-179685771D01*
X207768628Y-179971485D02*
X207840057Y-179828628D01*
X207911485Y-179757200D01*
X208054342Y-179685771D01*
X208197200Y-179685771D01*
X208697200Y-180685771D02*
X208697200Y-179185771D01*
X208697200Y-179900057D02*
X209554342Y-179900057D01*
X209554342Y-180685771D02*
X209554342Y-179185771D01*
X210125771Y-179185771D02*
X210482914Y-180685771D01*
X210768628Y-179614342D01*
X211054342Y-180685771D01*
X211411485Y-179185771D01*
D10*
D11*
D10*
D11*
D10*
D11*
D10*
D11*
D10*
D11*
X197002200Y-191507200D02*
X197002200Y-194507200D01*
D10*
D11*
X261002200Y-191507200D02*
X261002200Y-198007200D01*
D14*
X100000000Y-100000000D03*
D15*
X97460000Y-100000000D03*
X100000000Y-97460000D03*
X97460000Y-97460000D03*
X100000000Y-94920000D03*
X97460000Y-94920000D03*
X100000000Y-92380000D03*
X97460000Y-92380000D03*
X100000000Y-89840000D03*
X97460000Y-89840000D03*
D16*
X108350000Y-92700000D03*
D17*
X103550000Y-100225000D03*
X102850000Y-100225000D03*
X102175000Y-100225000D03*
X103850000Y-89075000D03*
X118150000Y-89275000D03*
X114550000Y-96550000D03*
X114550000Y-95875000D03*
D16*
X108350000Y-95125000D03*
D17*
X112800000Y-99300000D03*
X110175000Y-100225000D03*
X119700000Y-99925000D03*
X119700000Y-98550000D03*
X110850000Y-100225000D03*
X118150000Y-89950000D03*
X105625000Y-97900000D03*
X112800000Y-100675000D03*
D16*
X108350000Y-93300000D03*
D17*
X112800000Y-98625000D03*
X112800000Y-100000000D03*
X119700000Y-99225000D03*
X114550000Y-89275000D03*
X103850000Y-90450000D03*
X107675000Y-97900000D03*
X104225000Y-100225000D03*
X118150000Y-95875000D03*
X114550000Y-89950000D03*
X109475000Y-100225000D03*
X108800000Y-100225000D03*
X103850000Y-91107470D03*
X103850000Y-89750000D03*
X118150000Y-96550000D03*
D18*
X108700000Y-90600000D03*
D17*
X107000000Y-97900000D03*
X106300000Y-97900000D03*
X119700000Y-100600000D03*
D18*
X104500000Y-93825000D03*
D17*
X104900000Y-89100000D03*
X105600000Y-89100000D03*
X105600000Y-91100000D03*
D16*
X109800000Y-91000000D03*
D17*
X104900000Y-91100000D03*
X110975000Y-97875000D03*
X108925000Y-97875000D03*
X109600000Y-97875000D03*
X110300000Y-97875000D03*
X115100000Y-98600000D03*
D16*
X109475000Y-95100000D03*
D17*
X115100000Y-99900000D03*
X115100000Y-99250000D03*
X115100000Y-100550000D03*
D18*
X106900000Y-90800000D03*
X101200000Y-93800000D03*
X106456232Y-91465649D03*
X105990000Y-95360000D03*
X106949998Y-94350000D03*
D19*
X112800000Y-98600000D02*
X112800000Y-100650000D01*
X102175000Y-100225000D02*
X104225000Y-100225000D01*
X108350000Y-92700000D02*
X108350000Y-93300000D01*
X103850000Y-91107470D02*
X103850000Y-89125010D01*
X114550000Y-95875000D02*
X114550000Y-96550000D01*
X114550000Y-89275000D02*
X114550000Y-89950000D01*
X118150000Y-95875000D02*
X118150000Y-96550000D01*
X118150000Y-89275000D02*
X118150000Y-89950000D01*
X107675000Y-97900000D02*
X105625000Y-97900000D01*
X108900000Y-100225000D02*
X110950000Y-100225000D01*
X119700000Y-98550000D02*
X119700000Y-100600000D01*
G04 #@! TA.AperFunction,Conductor*
G36*
X111786905Y-94786905D02*
G01*
X114250000Y-97250000D01*
X120624000Y-97250000D01*
X120692121Y-97270002D01*
X120738614Y-97323658D01*
X120750000Y-97376000D01*
X120750000Y-101124000D01*
X120729998Y-101192121D01*
X120676342Y-101238614D01*
X120624000Y-101250000D01*
X120278631Y-101250000D01*
X120210510Y-101229998D01*
X120164017Y-101176342D01*
X120153913Y-101106068D01*
X120180555Y-101050697D01*
X120177838Y-101048723D01*
X120197420Y-101021769D01*
X120207505Y-101009578D01*
X120230311Y-100985293D01*
X120234130Y-100978346D01*
X120234133Y-100978342D01*
X120246362Y-100956098D01*
X120254839Y-100942741D01*
X120269756Y-100922210D01*
X120269760Y-100922202D01*
X120274419Y-100915790D01*
X120286684Y-100884811D01*
X120293419Y-100870499D01*
X120298696Y-100860900D01*
X120309468Y-100841306D01*
X120317752Y-100809041D01*
X120322639Y-100794001D01*
X120334906Y-100763016D01*
X120336648Y-100749229D01*
X120339081Y-100729971D01*
X120342045Y-100714432D01*
X120348854Y-100687909D01*
X120348854Y-100687908D01*
X120350331Y-100682156D01*
X120350500Y-100679470D01*
X120350500Y-100647503D01*
X120351494Y-100631711D01*
X120354506Y-100607868D01*
X120355500Y-100600000D01*
X120352498Y-100576234D01*
X120351494Y-100568289D01*
X120350500Y-100552497D01*
X120350500Y-99972503D01*
X120351494Y-99956711D01*
X120354506Y-99932868D01*
X120355500Y-99925000D01*
X120351494Y-99893289D01*
X120350500Y-99877497D01*
X120350500Y-99272503D01*
X120351494Y-99256711D01*
X120354506Y-99232868D01*
X120355500Y-99225000D01*
X120351494Y-99193289D01*
X120350500Y-99177497D01*
X120350500Y-98597503D01*
X120351494Y-98581711D01*
X120353843Y-98563119D01*
X120355500Y-98550000D01*
X120334906Y-98386984D01*
X120306950Y-98316375D01*
X120277339Y-98241584D01*
X120277337Y-98241581D01*
X120274419Y-98234210D01*
X120177839Y-98101279D01*
X120170163Y-98094929D01*
X120057343Y-98001596D01*
X120057339Y-98001593D01*
X120051234Y-97996543D01*
X119902561Y-97926582D01*
X119894778Y-97925097D01*
X119894777Y-97925097D01*
X119747001Y-97896907D01*
X119746997Y-97896907D01*
X119741159Y-97895793D01*
X119741158Y-97895793D01*
X119639004Y-97902221D01*
X119585083Y-97905613D01*
X119585081Y-97905613D01*
X119577172Y-97906111D01*
X119569636Y-97908560D01*
X119569634Y-97908560D01*
X119428444Y-97954435D01*
X119428441Y-97954437D01*
X119420902Y-97956886D01*
X119282169Y-98044929D01*
X119276742Y-98050708D01*
X119276741Y-98050709D01*
X119198872Y-98133630D01*
X119169689Y-98164707D01*
X119165872Y-98171650D01*
X119158099Y-98185790D01*
X119090532Y-98308694D01*
X119068410Y-98394852D01*
X119063231Y-98415024D01*
X119052160Y-98458145D01*
X119049669Y-98467845D01*
X119049500Y-98470531D01*
X119049501Y-100639579D01*
X119049613Y-100640466D01*
X119049669Y-100642250D01*
X119049669Y-100682156D01*
X119057959Y-100714442D01*
X119060918Y-100729954D01*
X119065095Y-100763016D01*
X119072546Y-100781834D01*
X119077357Y-100793987D01*
X119082246Y-100809033D01*
X119090532Y-100841306D01*
X119106586Y-100870509D01*
X119113319Y-100884818D01*
X119122663Y-100908419D01*
X119122665Y-100908423D01*
X119125582Y-100915790D01*
X119130242Y-100922203D01*
X119130242Y-100922204D01*
X119145159Y-100942735D01*
X119153634Y-100956088D01*
X119169689Y-100985293D01*
X119175117Y-100991073D01*
X119192497Y-101009581D01*
X119202583Y-101021773D01*
X119222162Y-101048721D01*
X119219682Y-101050523D01*
X119245269Y-101101085D01*
X119237989Y-101171708D01*
X119193683Y-101227183D01*
X119121370Y-101250000D01*
X113433381Y-101250000D01*
X113365260Y-101229998D01*
X113318767Y-101176342D01*
X113308663Y-101106068D01*
X113331445Y-101049939D01*
X113344242Y-101032325D01*
X113374419Y-100990790D01*
X113379346Y-100978347D01*
X113419295Y-100877444D01*
X113434906Y-100838016D01*
X113439413Y-100802337D01*
X113445298Y-100755755D01*
X113448263Y-100740211D01*
X113448852Y-100737917D01*
X113448852Y-100737914D01*
X113450331Y-100732156D01*
X113450500Y-100729470D01*
X113450500Y-100722503D01*
X113451494Y-100706711D01*
X113454506Y-100682868D01*
X113455500Y-100675000D01*
X113451494Y-100643289D01*
X113450500Y-100627497D01*
X113450500Y-100047503D01*
X113451494Y-100031711D01*
X113454506Y-100007868D01*
X113455500Y-100000000D01*
X113451494Y-99968289D01*
X113450500Y-99952497D01*
X113450500Y-99347503D01*
X113451494Y-99331711D01*
X113454506Y-99307868D01*
X113455500Y-99300000D01*
X113451494Y-99268289D01*
X113450500Y-99252497D01*
X113450500Y-98672503D01*
X113451494Y-98656711D01*
X113454506Y-98632868D01*
X113455500Y-98625000D01*
X113451494Y-98593289D01*
X113450500Y-98577497D01*
X113450500Y-98560421D01*
X113434906Y-98436984D01*
X113404458Y-98360080D01*
X113377339Y-98291584D01*
X113377337Y-98291581D01*
X113374419Y-98284210D01*
X113277839Y-98151279D01*
X113151233Y-98046543D01*
X113002560Y-97976582D01*
X112994777Y-97975097D01*
X112994776Y-97975097D01*
X112848944Y-97947278D01*
X112848942Y-97947278D01*
X112841158Y-97945793D01*
X112759165Y-97950952D01*
X112685083Y-97955613D01*
X112685081Y-97955613D01*
X112677172Y-97956111D01*
X112669636Y-97958560D01*
X112669634Y-97958560D01*
X112528444Y-98004435D01*
X112528441Y-98004437D01*
X112520902Y-98006886D01*
X112382169Y-98094929D01*
X112376742Y-98100708D01*
X112376741Y-98100709D01*
X112275113Y-98208931D01*
X112275110Y-98208936D01*
X112269689Y-98214708D01*
X112190532Y-98358695D01*
X112149669Y-98517845D01*
X112149500Y-98520531D01*
X112149501Y-100689579D01*
X112149613Y-100690466D01*
X112149669Y-100692250D01*
X112149669Y-100757156D01*
X112190532Y-100916306D01*
X112248513Y-101021773D01*
X112269689Y-101060293D01*
X112267515Y-101061488D01*
X112287252Y-101116806D01*
X112271172Y-101185958D01*
X112220258Y-101235438D01*
X112161458Y-101250000D01*
X96626000Y-101250000D01*
X96557879Y-101229998D01*
X96511386Y-101176342D01*
X96500000Y-101124000D01*
X96500000Y-100183841D01*
X101520793Y-100183841D01*
X101521291Y-100191752D01*
X101524420Y-100241486D01*
X101524669Y-100249398D01*
X101524669Y-100307156D01*
X101526641Y-100314835D01*
X101526641Y-100314837D01*
X101526851Y-100315655D01*
X101530560Y-100339073D01*
X101531111Y-100347828D01*
X101533561Y-100355368D01*
X101548956Y-100402749D01*
X101551165Y-100410350D01*
X101553586Y-100419777D01*
X101565532Y-100466306D01*
X101569350Y-100473251D01*
X101569756Y-100473989D01*
X101579175Y-100495755D01*
X101581886Y-100504098D01*
X101586133Y-100510790D01*
X101612825Y-100552850D01*
X101616855Y-100559663D01*
X101644689Y-100610293D01*
X101650113Y-100616069D01*
X101650114Y-100616070D01*
X101650697Y-100616691D01*
X101665226Y-100635421D01*
X101669929Y-100642831D01*
X101712049Y-100682384D01*
X101717616Y-100687951D01*
X101757169Y-100730071D01*
X101764575Y-100734771D01*
X101783309Y-100749303D01*
X101789707Y-100755311D01*
X101796650Y-100759128D01*
X101840337Y-100783145D01*
X101847150Y-100787175D01*
X101858325Y-100794267D01*
X101895902Y-100818114D01*
X101904245Y-100820825D01*
X101926008Y-100830243D01*
X101933694Y-100834468D01*
X101941369Y-100836439D01*
X101941370Y-100836439D01*
X101989650Y-100848835D01*
X101997251Y-100851044D01*
X102052172Y-100868889D01*
X102060085Y-100869387D01*
X102060927Y-100869440D01*
X102084345Y-100873149D01*
X102087090Y-100873854D01*
X102087093Y-100873854D01*
X102092844Y-100875331D01*
X102095530Y-100875500D01*
X102153288Y-100875500D01*
X102161201Y-100875749D01*
X102216159Y-100879207D01*
X102223944Y-100877722D01*
X102224103Y-100877712D01*
X102247501Y-100875500D01*
X102828288Y-100875500D01*
X102836201Y-100875749D01*
X102891159Y-100879207D01*
X102898944Y-100877722D01*
X102899103Y-100877712D01*
X102922501Y-100875500D01*
X103528288Y-100875500D01*
X103536201Y-100875749D01*
X103591159Y-100879207D01*
X103598944Y-100877722D01*
X103599103Y-100877712D01*
X103622501Y-100875500D01*
X104203288Y-100875500D01*
X104211201Y-100875749D01*
X104266159Y-100879207D01*
X104273942Y-100877722D01*
X104273946Y-100877722D01*
X104322911Y-100868381D01*
X104330729Y-100867143D01*
X104380148Y-100860900D01*
X104388016Y-100859906D01*
X104396172Y-100856677D01*
X104418936Y-100850063D01*
X104427561Y-100848418D01*
X104434731Y-100845044D01*
X104434734Y-100845043D01*
X104479831Y-100823822D01*
X104487095Y-100820678D01*
X104533420Y-100802337D01*
X104540790Y-100799419D01*
X104547882Y-100794266D01*
X104568302Y-100782190D01*
X104569060Y-100781834D01*
X104569067Y-100781830D01*
X104576234Y-100778457D01*
X104620739Y-100741640D01*
X104626990Y-100736791D01*
X104637067Y-100729470D01*
X104673721Y-100702839D01*
X104679311Y-100696082D01*
X104696084Y-100679309D01*
X104696732Y-100678773D01*
X104702839Y-100673721D01*
X104736793Y-100626987D01*
X104741642Y-100620736D01*
X104773403Y-100582343D01*
X104778457Y-100576234D01*
X104781830Y-100569067D01*
X104781834Y-100569060D01*
X104782190Y-100568302D01*
X104794267Y-100547881D01*
X104799419Y-100540790D01*
X104820678Y-100487094D01*
X104823822Y-100479831D01*
X104845043Y-100434734D01*
X104845044Y-100434730D01*
X104848418Y-100427561D01*
X104850063Y-100418936D01*
X104856678Y-100396168D01*
X104856988Y-100395385D01*
X104859906Y-100388016D01*
X104867148Y-100330692D01*
X104868381Y-100322908D01*
X104869922Y-100314835D01*
X104879207Y-100266159D01*
X104878656Y-100257404D01*
X104879401Y-100233696D01*
X104879506Y-100232865D01*
X104880500Y-100225000D01*
X104873260Y-100167685D01*
X104872517Y-100159823D01*
X104871449Y-100142844D01*
X108149669Y-100142844D01*
X108149669Y-100307156D01*
X108190532Y-100466306D01*
X108269689Y-100610293D01*
X108275113Y-100616069D01*
X108374685Y-100722101D01*
X108382169Y-100730071D01*
X108520902Y-100818114D01*
X108528441Y-100820563D01*
X108528444Y-100820565D01*
X108669634Y-100866440D01*
X108669636Y-100866440D01*
X108677172Y-100868889D01*
X108685081Y-100869387D01*
X108685083Y-100869387D01*
X108744877Y-100873149D01*
X108841159Y-100879207D01*
X108848944Y-100877722D01*
X108849103Y-100877712D01*
X108872501Y-100875500D01*
X109453288Y-100875500D01*
X109461201Y-100875749D01*
X109516159Y-100879207D01*
X109523944Y-100877722D01*
X109524103Y-100877712D01*
X109547501Y-100875500D01*
X110153288Y-100875500D01*
X110161201Y-100875749D01*
X110216159Y-100879207D01*
X110223944Y-100877722D01*
X110224103Y-100877712D01*
X110247501Y-100875500D01*
X110828288Y-100875500D01*
X110836201Y-100875749D01*
X110891159Y-100879207D01*
X110898944Y-100877722D01*
X110899103Y-100877712D01*
X110922501Y-100875500D01*
X110989579Y-100875500D01*
X111113016Y-100859906D01*
X111186909Y-100830650D01*
X111258416Y-100802339D01*
X111258419Y-100802337D01*
X111265790Y-100799419D01*
X111398721Y-100702839D01*
X111411072Y-100687909D01*
X111498404Y-100582343D01*
X111498407Y-100582339D01*
X111503457Y-100576234D01*
X111573418Y-100427561D01*
X111588628Y-100347828D01*
X111602722Y-100273945D01*
X111602722Y-100273943D01*
X111604207Y-100266159D01*
X111597749Y-100163522D01*
X111594387Y-100110083D01*
X111594387Y-100110081D01*
X111593889Y-100102172D01*
X111591440Y-100094634D01*
X111545565Y-99953444D01*
X111545563Y-99953441D01*
X111543114Y-99945902D01*
X111455071Y-99807169D01*
X111335293Y-99694689D01*
X111316827Y-99684537D01*
X111287051Y-99668168D01*
X111191306Y-99615532D01*
X111032156Y-99574669D01*
X111029470Y-99574500D01*
X110922501Y-99574500D01*
X110899103Y-99572288D01*
X110898944Y-99572278D01*
X110891159Y-99570793D01*
X110840686Y-99573969D01*
X110836200Y-99574251D01*
X110828288Y-99574500D01*
X110247501Y-99574500D01*
X110224103Y-99572288D01*
X110223944Y-99572278D01*
X110216159Y-99570793D01*
X110165686Y-99573969D01*
X110161200Y-99574251D01*
X110153288Y-99574500D01*
X109547501Y-99574500D01*
X109524103Y-99572288D01*
X109523944Y-99572278D01*
X109516159Y-99570793D01*
X109465686Y-99573969D01*
X109461200Y-99574251D01*
X109453288Y-99574500D01*
X108872501Y-99574500D01*
X108849103Y-99572288D01*
X108848944Y-99572278D01*
X108841159Y-99570793D01*
X108774344Y-99574997D01*
X108685083Y-99580613D01*
X108685081Y-99580613D01*
X108677172Y-99581111D01*
X108669636Y-99583560D01*
X108669634Y-99583560D01*
X108528444Y-99629435D01*
X108528441Y-99629437D01*
X108520902Y-99631886D01*
X108382169Y-99719929D01*
X108376743Y-99725707D01*
X108376741Y-99725709D01*
X108305342Y-99801741D01*
X108269689Y-99839707D01*
X108265872Y-99846650D01*
X108260773Y-99855926D01*
X108190532Y-99983694D01*
X108149669Y-100142844D01*
X104871449Y-100142844D01*
X104869387Y-100110082D01*
X104869387Y-100110080D01*
X104868889Y-100102172D01*
X104866180Y-100093835D01*
X104861005Y-100070682D01*
X104860900Y-100069847D01*
X104860899Y-100069841D01*
X104859906Y-100061984D01*
X104856990Y-100054619D01*
X104856989Y-100054615D01*
X104838642Y-100008277D01*
X104835961Y-100000830D01*
X104820565Y-99953447D01*
X104818114Y-99945902D01*
X104813864Y-99939206D01*
X104813862Y-99939201D01*
X104813414Y-99938495D01*
X104802648Y-99917366D01*
X104802338Y-99916582D01*
X104802337Y-99916579D01*
X104799419Y-99909210D01*
X104787852Y-99893289D01*
X104765463Y-99862473D01*
X104761014Y-99855926D01*
X104734321Y-99813864D01*
X104734316Y-99813857D01*
X104730071Y-99807169D01*
X104724296Y-99801746D01*
X104724293Y-99801742D01*
X104723676Y-99801163D01*
X104708001Y-99783383D01*
X104707502Y-99782696D01*
X104707499Y-99782693D01*
X104702839Y-99776279D01*
X104658329Y-99739458D01*
X104652394Y-99734225D01*
X104643980Y-99726324D01*
X104610293Y-99694689D01*
X104603341Y-99690867D01*
X104602605Y-99690462D01*
X104582991Y-99677133D01*
X104576234Y-99671543D01*
X104569066Y-99668170D01*
X104569063Y-99668168D01*
X104523972Y-99646950D01*
X104516921Y-99643357D01*
X104473258Y-99619353D01*
X104473252Y-99619351D01*
X104466306Y-99615532D01*
X104457815Y-99613352D01*
X104435498Y-99605317D01*
X104434740Y-99604960D01*
X104434738Y-99604959D01*
X104427561Y-99601582D01*
X104419771Y-99600096D01*
X104419768Y-99600095D01*
X104370810Y-99590756D01*
X104363106Y-99589035D01*
X104307156Y-99574669D01*
X104304470Y-99574500D01*
X104297501Y-99574500D01*
X104274103Y-99572288D01*
X104273944Y-99572278D01*
X104266159Y-99570793D01*
X104215686Y-99573969D01*
X104211200Y-99574251D01*
X104203288Y-99574500D01*
X103622501Y-99574500D01*
X103599103Y-99572288D01*
X103598944Y-99572278D01*
X103591159Y-99570793D01*
X103540686Y-99573969D01*
X103536200Y-99574251D01*
X103528288Y-99574500D01*
X102922501Y-99574500D01*
X102899103Y-99572288D01*
X102898944Y-99572278D01*
X102891159Y-99570793D01*
X102840686Y-99573969D01*
X102836200Y-99574251D01*
X102828288Y-99574500D01*
X102247501Y-99574500D01*
X102224103Y-99572288D01*
X102223944Y-99572278D01*
X102216159Y-99570793D01*
X102165686Y-99573969D01*
X102161200Y-99574251D01*
X102153288Y-99574500D01*
X102135421Y-99574500D01*
X102120044Y-99576442D01*
X102117687Y-99576740D01*
X102109810Y-99577484D01*
X102060082Y-99580613D01*
X102060080Y-99580613D01*
X102052172Y-99581111D01*
X102043835Y-99583820D01*
X102020682Y-99588995D01*
X102019847Y-99589100D01*
X102019841Y-99589101D01*
X102011984Y-99590094D01*
X102004619Y-99593010D01*
X102004615Y-99593011D01*
X101958277Y-99611358D01*
X101950831Y-99614039D01*
X101895902Y-99631886D01*
X101889206Y-99636136D01*
X101889201Y-99636138D01*
X101888495Y-99636586D01*
X101867366Y-99647352D01*
X101866582Y-99647662D01*
X101866579Y-99647663D01*
X101859210Y-99650581D01*
X101852795Y-99655242D01*
X101852793Y-99655243D01*
X101812473Y-99684537D01*
X101805926Y-99688986D01*
X101763864Y-99715679D01*
X101763857Y-99715684D01*
X101757169Y-99719929D01*
X101751746Y-99725704D01*
X101751742Y-99725707D01*
X101751163Y-99726324D01*
X101733383Y-99741999D01*
X101732696Y-99742498D01*
X101732693Y-99742501D01*
X101726279Y-99747161D01*
X101721226Y-99753269D01*
X101689461Y-99791667D01*
X101684227Y-99797604D01*
X101644689Y-99839707D01*
X101640868Y-99846658D01*
X101640867Y-99846659D01*
X101640462Y-99847395D01*
X101627133Y-99867009D01*
X101621543Y-99873766D01*
X101618170Y-99880934D01*
X101618168Y-99880937D01*
X101596950Y-99926028D01*
X101593357Y-99933079D01*
X101569353Y-99976742D01*
X101569351Y-99976748D01*
X101565532Y-99983694D01*
X101563560Y-99991375D01*
X101563560Y-99991376D01*
X101563352Y-99992185D01*
X101555317Y-100014502D01*
X101551582Y-100022439D01*
X101550096Y-100030229D01*
X101550095Y-100030232D01*
X101540756Y-100079190D01*
X101539035Y-100086894D01*
X101524669Y-100142844D01*
X101524669Y-100151613D01*
X101522437Y-100175222D01*
X101520793Y-100183841D01*
X96500000Y-100183841D01*
X96500000Y-98626000D01*
X96520002Y-98557879D01*
X96573658Y-98511386D01*
X96626000Y-98500000D01*
X97067715Y-98500000D01*
X97097876Y-98503663D01*
X97298578Y-98553146D01*
X97304568Y-98553455D01*
X97304570Y-98553455D01*
X97378178Y-98557248D01*
X97508199Y-98563948D01*
X97514134Y-98563119D01*
X97514138Y-98563119D01*
X97669379Y-98541439D01*
X97716081Y-98534917D01*
X97798563Y-98506758D01*
X97839271Y-98500000D01*
X99607715Y-98500000D01*
X99637876Y-98503663D01*
X99838578Y-98553146D01*
X99844568Y-98553455D01*
X99844570Y-98553455D01*
X99918178Y-98557248D01*
X100048199Y-98563948D01*
X100054134Y-98563119D01*
X100054138Y-98563119D01*
X100209379Y-98541439D01*
X100256081Y-98534917D01*
X100338563Y-98506758D01*
X100379271Y-98500000D01*
X103300000Y-98500000D01*
X104462403Y-97289164D01*
X104554288Y-97250427D01*
X104911451Y-97253240D01*
X105048363Y-97254318D01*
X105116324Y-97274856D01*
X105162393Y-97328876D01*
X105171943Y-97399227D01*
X105144456Y-97460629D01*
X105139461Y-97466667D01*
X105134227Y-97472604D01*
X105094689Y-97514707D01*
X105090868Y-97521658D01*
X105090867Y-97521659D01*
X105090462Y-97522395D01*
X105077133Y-97542009D01*
X105071543Y-97548766D01*
X105068170Y-97555934D01*
X105068168Y-97555937D01*
X105046950Y-97601028D01*
X105043357Y-97608079D01*
X105019353Y-97651742D01*
X105019351Y-97651748D01*
X105015532Y-97658694D01*
X105013560Y-97666376D01*
X105013352Y-97667185D01*
X105005317Y-97689502D01*
X105001582Y-97697439D01*
X105000096Y-97705229D01*
X105000095Y-97705232D01*
X104990756Y-97754190D01*
X104989035Y-97761894D01*
X104974669Y-97817844D01*
X104974669Y-97826613D01*
X104972437Y-97850222D01*
X104970793Y-97858841D01*
X104971291Y-97866752D01*
X104974420Y-97916486D01*
X104974669Y-97924398D01*
X104974669Y-97982156D01*
X104976641Y-97989837D01*
X104976851Y-97990655D01*
X104980560Y-98014073D01*
X104981111Y-98022828D01*
X104983561Y-98030368D01*
X104998956Y-98077749D01*
X105001165Y-98085350D01*
X105005109Y-98100709D01*
X105015532Y-98141306D01*
X105019350Y-98148251D01*
X105019756Y-98148989D01*
X105029175Y-98170755D01*
X105031886Y-98179098D01*
X105036133Y-98185790D01*
X105062825Y-98227850D01*
X105066855Y-98234663D01*
X105094689Y-98285293D01*
X105100114Y-98291070D01*
X105100697Y-98291691D01*
X105115229Y-98310425D01*
X105119929Y-98317831D01*
X105162049Y-98357384D01*
X105167610Y-98362945D01*
X105207169Y-98405071D01*
X105213860Y-98409317D01*
X105214575Y-98409771D01*
X105233309Y-98424303D01*
X105239707Y-98430311D01*
X105246650Y-98434128D01*
X105290337Y-98458145D01*
X105297150Y-98462175D01*
X105316444Y-98474419D01*
X105345902Y-98493114D01*
X105354245Y-98495825D01*
X105376008Y-98505243D01*
X105383694Y-98509468D01*
X105391369Y-98511439D01*
X105391370Y-98511439D01*
X105439650Y-98523835D01*
X105447251Y-98526044D01*
X105502172Y-98543889D01*
X105510085Y-98544387D01*
X105510927Y-98544440D01*
X105534345Y-98548149D01*
X105537090Y-98548854D01*
X105537093Y-98548854D01*
X105542844Y-98550331D01*
X105545530Y-98550500D01*
X105603288Y-98550500D01*
X105611201Y-98550749D01*
X105666159Y-98554207D01*
X105673944Y-98552722D01*
X105674103Y-98552712D01*
X105697501Y-98550500D01*
X106278288Y-98550500D01*
X106286201Y-98550749D01*
X106341159Y-98554207D01*
X106348944Y-98552722D01*
X106349103Y-98552712D01*
X106372501Y-98550500D01*
X106978288Y-98550500D01*
X106986201Y-98550749D01*
X107041159Y-98554207D01*
X107048944Y-98552722D01*
X107049103Y-98552712D01*
X107072501Y-98550500D01*
X107653288Y-98550500D01*
X107661201Y-98550749D01*
X107716159Y-98554207D01*
X107723942Y-98552722D01*
X107723946Y-98552722D01*
X107772911Y-98543381D01*
X107780729Y-98542143D01*
X107830148Y-98535900D01*
X107838016Y-98534906D01*
X107846172Y-98531677D01*
X107868936Y-98525063D01*
X107877561Y-98523418D01*
X107884731Y-98520044D01*
X107884734Y-98520043D01*
X107929831Y-98498822D01*
X107937095Y-98495678D01*
X107983420Y-98477337D01*
X107990790Y-98474419D01*
X107997882Y-98469266D01*
X108018302Y-98457190D01*
X108019060Y-98456834D01*
X108019067Y-98456830D01*
X108026234Y-98453457D01*
X108070739Y-98416640D01*
X108076990Y-98411791D01*
X108117307Y-98382499D01*
X108123721Y-98377839D01*
X108129311Y-98371082D01*
X108146084Y-98354309D01*
X108146732Y-98353773D01*
X108152839Y-98348721D01*
X108186793Y-98301987D01*
X108191642Y-98295736D01*
X108228457Y-98251234D01*
X108231830Y-98244067D01*
X108231834Y-98244060D01*
X108232190Y-98243302D01*
X108244267Y-98222881D01*
X108249419Y-98215790D01*
X108270678Y-98162094D01*
X108273822Y-98154831D01*
X108295043Y-98109734D01*
X108295044Y-98109731D01*
X108298418Y-98102561D01*
X108300063Y-98093936D01*
X108306678Y-98071168D01*
X108306988Y-98070385D01*
X108309906Y-98063016D01*
X108317148Y-98005692D01*
X108318381Y-97997908D01*
X108318642Y-97996543D01*
X108329207Y-97941159D01*
X108328656Y-97932404D01*
X108329401Y-97908696D01*
X108329419Y-97908560D01*
X108330500Y-97900000D01*
X108323260Y-97842685D01*
X108322517Y-97834823D01*
X108319387Y-97785082D01*
X108319387Y-97785080D01*
X108318889Y-97777172D01*
X108316180Y-97768835D01*
X108311005Y-97745682D01*
X108310900Y-97744847D01*
X108310899Y-97744841D01*
X108309906Y-97736984D01*
X108306990Y-97729619D01*
X108306989Y-97729615D01*
X108288642Y-97683277D01*
X108285961Y-97675830D01*
X108270565Y-97628447D01*
X108268114Y-97620902D01*
X108263864Y-97614206D01*
X108263862Y-97614201D01*
X108263414Y-97613495D01*
X108252648Y-97592366D01*
X108252338Y-97591582D01*
X108252337Y-97591579D01*
X108249419Y-97584210D01*
X108244757Y-97577793D01*
X108215463Y-97537473D01*
X108211014Y-97530926D01*
X108184321Y-97488864D01*
X108184316Y-97488857D01*
X108180071Y-97482169D01*
X108174296Y-97476746D01*
X108174293Y-97476742D01*
X108173676Y-97476163D01*
X108158001Y-97458383D01*
X108157502Y-97457696D01*
X108157499Y-97457693D01*
X108152839Y-97451279D01*
X108108329Y-97414458D01*
X108102394Y-97409225D01*
X108091747Y-97399227D01*
X108060293Y-97369689D01*
X108053341Y-97365867D01*
X108052605Y-97365462D01*
X108032991Y-97352133D01*
X108026234Y-97346543D01*
X108019066Y-97343170D01*
X108019063Y-97343168D01*
X107973972Y-97321950D01*
X107966921Y-97318357D01*
X107923254Y-97294351D01*
X107923250Y-97294349D01*
X107916306Y-97290532D01*
X107909561Y-97288800D01*
X107853924Y-97245392D01*
X107830446Y-97178390D01*
X107867184Y-97082816D01*
X109075000Y-95875000D01*
X109075000Y-94876000D01*
X109095002Y-94807879D01*
X109148658Y-94761386D01*
X109201000Y-94750000D01*
X111697810Y-94750000D01*
X111786905Y-94786905D01*
G37*
G04 #@! TD.AperFunction*
G04 #@! TA.AperFunction,Conductor*
G36*
X103167704Y-88770002D02*
G01*
X103214197Y-88823658D01*
X103221624Y-88907335D01*
X103217230Y-88924449D01*
X103199669Y-88992844D01*
X103199669Y-89040202D01*
X103199613Y-89043753D01*
X103199501Y-89045540D01*
X103199500Y-91147048D01*
X103199613Y-91147941D01*
X103199669Y-91149735D01*
X103199669Y-91189626D01*
X103201641Y-91197306D01*
X103201641Y-91197307D01*
X103207955Y-91221901D01*
X103210919Y-91237440D01*
X103215094Y-91270485D01*
X103227359Y-91301463D01*
X103232242Y-91316489D01*
X103240532Y-91348776D01*
X103244346Y-91355715D01*
X103244351Y-91355726D01*
X103256581Y-91377972D01*
X103263317Y-91392286D01*
X103272661Y-91415886D01*
X103272664Y-91415891D01*
X103275581Y-91423259D01*
X103280241Y-91429673D01*
X103295160Y-91450207D01*
X103303640Y-91463570D01*
X103313684Y-91481840D01*
X103319689Y-91492763D01*
X103325117Y-91498543D01*
X103342496Y-91517050D01*
X103352578Y-91529237D01*
X103372161Y-91556190D01*
X103378269Y-91561243D01*
X103397830Y-91577425D01*
X103409364Y-91588256D01*
X103432169Y-91612541D01*
X103438856Y-91616785D01*
X103438860Y-91616788D01*
X103452019Y-91625138D01*
X103460300Y-91630394D01*
X103473095Y-91639690D01*
X103498766Y-91660927D01*
X103505940Y-91664303D01*
X103528911Y-91675113D01*
X103542773Y-91682734D01*
X103564207Y-91696336D01*
X103564212Y-91696338D01*
X103570902Y-91700584D01*
X103602582Y-91710877D01*
X103617280Y-91716696D01*
X103647439Y-91730888D01*
X103677104Y-91736547D01*
X103680171Y-91737132D01*
X103695494Y-91741066D01*
X103727172Y-91751359D01*
X103735081Y-91751857D01*
X103735083Y-91751857D01*
X103760410Y-91753450D01*
X103776111Y-91755433D01*
X103808841Y-91761677D01*
X103837112Y-91759898D01*
X103842087Y-91759585D01*
X103857913Y-91759585D01*
X103862888Y-91759898D01*
X103891159Y-91761677D01*
X103923889Y-91755433D01*
X103939590Y-91753450D01*
X103964911Y-91751857D01*
X103972827Y-91751359D01*
X103980369Y-91748908D01*
X103980371Y-91748908D01*
X104004499Y-91741068D01*
X104019831Y-91737131D01*
X104052561Y-91730888D01*
X104082722Y-91716695D01*
X104097420Y-91710876D01*
X104129097Y-91700584D01*
X104157217Y-91682738D01*
X104171084Y-91675114D01*
X104201234Y-91660927D01*
X104207344Y-91655873D01*
X104226910Y-91639686D01*
X104239704Y-91630390D01*
X104267830Y-91612541D01*
X104290635Y-91588257D01*
X104302164Y-91577431D01*
X104321731Y-91561244D01*
X104321732Y-91561243D01*
X104327839Y-91556191D01*
X104343037Y-91535272D01*
X105905112Y-91535272D01*
X105944137Y-91680914D01*
X106020890Y-91810697D01*
X106129717Y-91915058D01*
X106262600Y-91986309D01*
X106305106Y-91995810D01*
X106401363Y-92017327D01*
X106401367Y-92017327D01*
X106409749Y-92019201D01*
X106504182Y-92014252D01*
X106551739Y-92011760D01*
X106551740Y-92011760D01*
X106560322Y-92011310D01*
X106703227Y-91963217D01*
X106827934Y-91878466D01*
X106833477Y-91871907D01*
X106833479Y-91871905D01*
X106919713Y-91769860D01*
X106925256Y-91763301D01*
X106929766Y-91753450D01*
X106984448Y-91634015D01*
X106984448Y-91634013D01*
X106988023Y-91626206D01*
X107011610Y-91477283D01*
X107011732Y-91465649D01*
X107009829Y-91451758D01*
X107020403Y-91381555D01*
X107094475Y-91315243D01*
X107138859Y-91300306D01*
X107146995Y-91297568D01*
X107163982Y-91286024D01*
X107198422Y-91262618D01*
X107271702Y-91212817D01*
X107277245Y-91206258D01*
X107277247Y-91206256D01*
X107363481Y-91104211D01*
X107369024Y-91097652D01*
X107372599Y-91089844D01*
X107428216Y-90968366D01*
X107428216Y-90968364D01*
X107431791Y-90960557D01*
X107455378Y-90811634D01*
X107455500Y-90800000D01*
X107437641Y-90669623D01*
X108148880Y-90669623D01*
X108187905Y-90815265D01*
X108264658Y-90945048D01*
X108373485Y-91049409D01*
X108393176Y-91059967D01*
X108489397Y-91111560D01*
X108506368Y-91120660D01*
X108548874Y-91130161D01*
X108645131Y-91151678D01*
X108645135Y-91151678D01*
X108653517Y-91153552D01*
X108752093Y-91148386D01*
X108795507Y-91146111D01*
X108795508Y-91146111D01*
X108804090Y-91145661D01*
X108946995Y-91097568D01*
X108958361Y-91089844D01*
X109011887Y-91053467D01*
X109071702Y-91012817D01*
X109077245Y-91006258D01*
X109077247Y-91006256D01*
X109163481Y-90904211D01*
X109169024Y-90897652D01*
X109208406Y-90811634D01*
X109228216Y-90768366D01*
X109228216Y-90768364D01*
X109231791Y-90760557D01*
X109255378Y-90611634D01*
X109255500Y-90600000D01*
X109235037Y-90450615D01*
X109221048Y-90418289D01*
X109178567Y-90320120D01*
X109178566Y-90320118D01*
X109175155Y-90312236D01*
X109106492Y-90227444D01*
X109085674Y-90201736D01*
X109085673Y-90201735D01*
X109080266Y-90195058D01*
X109073264Y-90190082D01*
X109073262Y-90190080D01*
X108964363Y-90112690D01*
X108957361Y-90107714D01*
X108815495Y-90056639D01*
X108806935Y-90056010D01*
X108806933Y-90056010D01*
X108728122Y-90050223D01*
X108665120Y-90045596D01*
X108517315Y-90075399D01*
X108382969Y-90143852D01*
X108376647Y-90149665D01*
X108376646Y-90149666D01*
X108284041Y-90234820D01*
X108271980Y-90245911D01*
X108267452Y-90253214D01*
X108267451Y-90253215D01*
X108197051Y-90366758D01*
X108192525Y-90374058D01*
X108150459Y-90518851D01*
X108150369Y-90527437D01*
X108150369Y-90527438D01*
X108149881Y-90574058D01*
X108148880Y-90669623D01*
X107437641Y-90669623D01*
X107435037Y-90650615D01*
X107431625Y-90642730D01*
X107378567Y-90520120D01*
X107378566Y-90520118D01*
X107375155Y-90512236D01*
X107316735Y-90440093D01*
X107285674Y-90401736D01*
X107285673Y-90401735D01*
X107280266Y-90395058D01*
X107273264Y-90390082D01*
X107273262Y-90390080D01*
X107164363Y-90312690D01*
X107157361Y-90307714D01*
X107015495Y-90256639D01*
X107006935Y-90256010D01*
X107006933Y-90256010D01*
X106928122Y-90250223D01*
X106865120Y-90245596D01*
X106717315Y-90275399D01*
X106582969Y-90343852D01*
X106576647Y-90349665D01*
X106576646Y-90349666D01*
X106510575Y-90410421D01*
X106471980Y-90445911D01*
X106467452Y-90453214D01*
X106467451Y-90453215D01*
X106414345Y-90538866D01*
X106392525Y-90574058D01*
X106350459Y-90718851D01*
X106350369Y-90727439D01*
X106349319Y-90827669D01*
X106328605Y-90895576D01*
X106272617Y-90939222D01*
X106273547Y-90941048D01*
X106139201Y-91009501D01*
X106132879Y-91015314D01*
X106132878Y-91015315D01*
X106051828Y-91089844D01*
X106028212Y-91111560D01*
X106023684Y-91118863D01*
X106023683Y-91118864D01*
X105955041Y-91229572D01*
X105948757Y-91239707D01*
X105906691Y-91384500D01*
X105905112Y-91535272D01*
X104343037Y-91535272D01*
X104347422Y-91529237D01*
X104357510Y-91517043D01*
X104374883Y-91498543D01*
X104380311Y-91492763D01*
X104384130Y-91485816D01*
X104384133Y-91485812D01*
X104396362Y-91463568D01*
X104404839Y-91450211D01*
X104419756Y-91429680D01*
X104419760Y-91429672D01*
X104424419Y-91423260D01*
X104436684Y-91392281D01*
X104443419Y-91377969D01*
X104455648Y-91355724D01*
X104459468Y-91348776D01*
X104467754Y-91316505D01*
X104472639Y-91301471D01*
X104484906Y-91270486D01*
X104487753Y-91247954D01*
X104489081Y-91237441D01*
X104492045Y-91221902D01*
X104498854Y-91195379D01*
X104498854Y-91195378D01*
X104500331Y-91189626D01*
X104500500Y-91186940D01*
X104500500Y-91154972D01*
X104501494Y-91139180D01*
X104504506Y-91115338D01*
X104505500Y-91107470D01*
X104501494Y-91075759D01*
X104500500Y-91059967D01*
X104500500Y-90497503D01*
X104501494Y-90481711D01*
X104504506Y-90457868D01*
X104505500Y-90450000D01*
X104501494Y-90418289D01*
X104500500Y-90402497D01*
X104500500Y-89797503D01*
X104501494Y-89781711D01*
X104504506Y-89757868D01*
X104505500Y-89750000D01*
X104501494Y-89718289D01*
X104500500Y-89702497D01*
X104500500Y-89122503D01*
X104501494Y-89106711D01*
X104504506Y-89082868D01*
X104505500Y-89075000D01*
X104484906Y-88911984D01*
X104482716Y-88906453D01*
X104485120Y-88836378D01*
X104525529Y-88778003D01*
X104604728Y-88750000D01*
X113883439Y-88750000D01*
X113951560Y-88770002D01*
X113998053Y-88823658D01*
X114008157Y-88893932D01*
X113993854Y-88936701D01*
X113940532Y-89033694D01*
X113909349Y-89155144D01*
X113908832Y-89157156D01*
X113901145Y-89187094D01*
X113901144Y-89187100D01*
X113899669Y-89192845D01*
X113899500Y-89195531D01*
X113899500Y-89989579D01*
X113899613Y-89990472D01*
X113899669Y-89992266D01*
X113899669Y-90032156D01*
X113901641Y-90039835D01*
X113901641Y-90039838D01*
X113907955Y-90064432D01*
X113910919Y-90079971D01*
X113915094Y-90113016D01*
X113927303Y-90143852D01*
X113927356Y-90143986D01*
X113932245Y-90159032D01*
X113938560Y-90183625D01*
X113940532Y-90191306D01*
X113944348Y-90198248D01*
X113944349Y-90198250D01*
X113956584Y-90220506D01*
X113963319Y-90234819D01*
X113965407Y-90240093D01*
X113975582Y-90265790D01*
X113980243Y-90272205D01*
X113980244Y-90272207D01*
X113995159Y-90292735D01*
X114003634Y-90306088D01*
X114019689Y-90335293D01*
X114033186Y-90349666D01*
X114042497Y-90359581D01*
X114052580Y-90371769D01*
X114072162Y-90398721D01*
X114078271Y-90403774D01*
X114078274Y-90403778D01*
X114097829Y-90419955D01*
X114109364Y-90430786D01*
X114132169Y-90455071D01*
X114138858Y-90459316D01*
X114138862Y-90459319D01*
X114160301Y-90472925D01*
X114173099Y-90482223D01*
X114198767Y-90503457D01*
X114205939Y-90506832D01*
X114205941Y-90506833D01*
X114228914Y-90517644D01*
X114242775Y-90525265D01*
X114262701Y-90537909D01*
X114270902Y-90543114D01*
X114302582Y-90553407D01*
X114317290Y-90559231D01*
X114333287Y-90566758D01*
X114347440Y-90573418D01*
X114355223Y-90574903D01*
X114355227Y-90574904D01*
X114380171Y-90579662D01*
X114395483Y-90583593D01*
X114427172Y-90593889D01*
X114435082Y-90594387D01*
X114435084Y-90594387D01*
X114460411Y-90595980D01*
X114476112Y-90597963D01*
X114508842Y-90604207D01*
X114537762Y-90602387D01*
X114542087Y-90602115D01*
X114557913Y-90602115D01*
X114562888Y-90602428D01*
X114591159Y-90604207D01*
X114623889Y-90597963D01*
X114639590Y-90595980D01*
X114664917Y-90594387D01*
X114664919Y-90594387D01*
X114672828Y-90593889D01*
X114704506Y-90583596D01*
X114719829Y-90579662D01*
X114722896Y-90579077D01*
X114752561Y-90573418D01*
X114782720Y-90559226D01*
X114797418Y-90553407D01*
X114829098Y-90543114D01*
X114835788Y-90538868D01*
X114835793Y-90538866D01*
X114857227Y-90525264D01*
X114871089Y-90517643D01*
X114894062Y-90506832D01*
X114901234Y-90503457D01*
X114926901Y-90482223D01*
X114939702Y-90472922D01*
X114967831Y-90455071D01*
X114990636Y-90430787D01*
X115002167Y-90419959D01*
X115021730Y-90403775D01*
X115021731Y-90403774D01*
X115027839Y-90398721D01*
X115047423Y-90371766D01*
X115057505Y-90359578D01*
X115080311Y-90335293D01*
X115084130Y-90328346D01*
X115084133Y-90328342D01*
X115096362Y-90306098D01*
X115104839Y-90292741D01*
X115119756Y-90272210D01*
X115119760Y-90272202D01*
X115124419Y-90265790D01*
X115136684Y-90234811D01*
X115143419Y-90220499D01*
X115155648Y-90198254D01*
X115159468Y-90191306D01*
X115167755Y-90159032D01*
X115172639Y-90144001D01*
X115184906Y-90113016D01*
X115189081Y-90079971D01*
X115192045Y-90064432D01*
X115198854Y-90037909D01*
X115198854Y-90037908D01*
X115200331Y-90032156D01*
X115200500Y-90029470D01*
X115200500Y-89997503D01*
X115201494Y-89981711D01*
X115204506Y-89957868D01*
X115205500Y-89950000D01*
X115201494Y-89918289D01*
X115200500Y-89902497D01*
X115200500Y-89322503D01*
X115201494Y-89306711D01*
X115204506Y-89282868D01*
X115205500Y-89275000D01*
X115184906Y-89111984D01*
X115151159Y-89026748D01*
X115127339Y-88966584D01*
X115127337Y-88966581D01*
X115124419Y-88959210D01*
X115117771Y-88950060D01*
X115116877Y-88947555D01*
X115115940Y-88945850D01*
X115116215Y-88945699D01*
X115093913Y-88883192D01*
X115109995Y-88814041D01*
X115160909Y-88764561D01*
X115219708Y-88750000D01*
X117483439Y-88750000D01*
X117551560Y-88770002D01*
X117598053Y-88823658D01*
X117608157Y-88893932D01*
X117593854Y-88936701D01*
X117540532Y-89033694D01*
X117509349Y-89155144D01*
X117508832Y-89157156D01*
X117501145Y-89187094D01*
X117501144Y-89187100D01*
X117499669Y-89192845D01*
X117499500Y-89195531D01*
X117499500Y-89989579D01*
X117499613Y-89990472D01*
X117499669Y-89992266D01*
X117499669Y-90032156D01*
X117501641Y-90039835D01*
X117501641Y-90039838D01*
X117507955Y-90064432D01*
X117510919Y-90079971D01*
X117515094Y-90113016D01*
X117527303Y-90143852D01*
X117527356Y-90143986D01*
X117532245Y-90159032D01*
X117538560Y-90183625D01*
X117540532Y-90191306D01*
X117544348Y-90198248D01*
X117544349Y-90198250D01*
X117556584Y-90220506D01*
X117563319Y-90234819D01*
X117565407Y-90240093D01*
X117575582Y-90265790D01*
X117580243Y-90272205D01*
X117580244Y-90272207D01*
X117595159Y-90292735D01*
X117603634Y-90306088D01*
X117619689Y-90335293D01*
X117633186Y-90349666D01*
X117642497Y-90359581D01*
X117652580Y-90371769D01*
X117672162Y-90398721D01*
X117678271Y-90403774D01*
X117678274Y-90403778D01*
X117697829Y-90419955D01*
X117709364Y-90430786D01*
X117732169Y-90455071D01*
X117738858Y-90459316D01*
X117738862Y-90459319D01*
X117760301Y-90472925D01*
X117773099Y-90482223D01*
X117798767Y-90503457D01*
X117805939Y-90506832D01*
X117805941Y-90506833D01*
X117828914Y-90517644D01*
X117842775Y-90525265D01*
X117862701Y-90537909D01*
X117870902Y-90543114D01*
X117902582Y-90553407D01*
X117917290Y-90559231D01*
X117933287Y-90566758D01*
X117947440Y-90573418D01*
X117955223Y-90574903D01*
X117955227Y-90574904D01*
X117980171Y-90579662D01*
X117995483Y-90583593D01*
X118027172Y-90593889D01*
X118035082Y-90594387D01*
X118035084Y-90594387D01*
X118060411Y-90595980D01*
X118076112Y-90597963D01*
X118108842Y-90604207D01*
X118137762Y-90602387D01*
X118142087Y-90602115D01*
X118157913Y-90602115D01*
X118162888Y-90602428D01*
X118191159Y-90604207D01*
X118223889Y-90597963D01*
X118239590Y-90595980D01*
X118264917Y-90594387D01*
X118264919Y-90594387D01*
X118272828Y-90593889D01*
X118304506Y-90583596D01*
X118319829Y-90579662D01*
X118322896Y-90579077D01*
X118352561Y-90573418D01*
X118382720Y-90559226D01*
X118397418Y-90553407D01*
X118429098Y-90543114D01*
X118435788Y-90538868D01*
X118435793Y-90538866D01*
X118457227Y-90525264D01*
X118471089Y-90517643D01*
X118494062Y-90506832D01*
X118501234Y-90503457D01*
X118526901Y-90482223D01*
X118539702Y-90472922D01*
X118567831Y-90455071D01*
X118590636Y-90430787D01*
X118602167Y-90419959D01*
X118621730Y-90403775D01*
X118621731Y-90403774D01*
X118627839Y-90398721D01*
X118647423Y-90371766D01*
X118657505Y-90359578D01*
X118680311Y-90335293D01*
X118684130Y-90328346D01*
X118684133Y-90328342D01*
X118696362Y-90306098D01*
X118704839Y-90292741D01*
X118719756Y-90272210D01*
X118719760Y-90272202D01*
X118724419Y-90265790D01*
X118736684Y-90234811D01*
X118743419Y-90220499D01*
X118755648Y-90198254D01*
X118759468Y-90191306D01*
X118767755Y-90159032D01*
X118772639Y-90144001D01*
X118784906Y-90113016D01*
X118789081Y-90079971D01*
X118792045Y-90064432D01*
X118798854Y-90037909D01*
X118798854Y-90037908D01*
X118800331Y-90032156D01*
X118800500Y-90029470D01*
X118800500Y-89997503D01*
X118801494Y-89981711D01*
X118804506Y-89957868D01*
X118805500Y-89950000D01*
X118801494Y-89918289D01*
X118800500Y-89902497D01*
X118800500Y-89322503D01*
X118801494Y-89306711D01*
X118804506Y-89282868D01*
X118805500Y-89275000D01*
X118784906Y-89111984D01*
X118751159Y-89026748D01*
X118727339Y-88966584D01*
X118727337Y-88966581D01*
X118724419Y-88959210D01*
X118717771Y-88950060D01*
X118716877Y-88947555D01*
X118715940Y-88945850D01*
X118716215Y-88945699D01*
X118693913Y-88883192D01*
X118709995Y-88814041D01*
X118760909Y-88764561D01*
X118819708Y-88750000D01*
X120624000Y-88750000D01*
X120692121Y-88770002D01*
X120738614Y-88823658D01*
X120750000Y-88876000D01*
X120750000Y-96874000D01*
X120729998Y-96942121D01*
X120676342Y-96988614D01*
X120624000Y-97000000D01*
X118857792Y-97000000D01*
X118789671Y-96979998D01*
X118743178Y-96926342D01*
X118733074Y-96856068D01*
X118747378Y-96813298D01*
X118755648Y-96798255D01*
X118755649Y-96798253D01*
X118759468Y-96791306D01*
X118767755Y-96759032D01*
X118772639Y-96744001D01*
X118784906Y-96713016D01*
X118789081Y-96679971D01*
X118792045Y-96664432D01*
X118798854Y-96637909D01*
X118798854Y-96637908D01*
X118800331Y-96632156D01*
X118800500Y-96629470D01*
X118800500Y-96597503D01*
X118801494Y-96581711D01*
X118804506Y-96557868D01*
X118805500Y-96550000D01*
X118801494Y-96518289D01*
X118800500Y-96502497D01*
X118800500Y-95922503D01*
X118801494Y-95906711D01*
X118804506Y-95882868D01*
X118805500Y-95875000D01*
X118784906Y-95711984D01*
X118724419Y-95559210D01*
X118627839Y-95426279D01*
X118566710Y-95375709D01*
X118507343Y-95326596D01*
X118507339Y-95326593D01*
X118501234Y-95321543D01*
X118352561Y-95251582D01*
X118344778Y-95250097D01*
X118344777Y-95250097D01*
X118197001Y-95221907D01*
X118196997Y-95221907D01*
X118191159Y-95220793D01*
X118191158Y-95220793D01*
X118072086Y-95228285D01*
X118035083Y-95230613D01*
X118035081Y-95230613D01*
X118027172Y-95231111D01*
X118019636Y-95233560D01*
X118019634Y-95233560D01*
X117878444Y-95279435D01*
X117878441Y-95279437D01*
X117870902Y-95281886D01*
X117732169Y-95369929D01*
X117726742Y-95375708D01*
X117726741Y-95375709D01*
X117679252Y-95426279D01*
X117619689Y-95489707D01*
X117540532Y-95633694D01*
X117505163Y-95771446D01*
X117499669Y-95792845D01*
X117499500Y-95795531D01*
X117499500Y-96589579D01*
X117499613Y-96590472D01*
X117499669Y-96592266D01*
X117499669Y-96632156D01*
X117501641Y-96639835D01*
X117501641Y-96639838D01*
X117507955Y-96664432D01*
X117510919Y-96679971D01*
X117515094Y-96713016D01*
X117518011Y-96720383D01*
X117527356Y-96743986D01*
X117532245Y-96759032D01*
X117538560Y-96783625D01*
X117540532Y-96791306D01*
X117544350Y-96798250D01*
X117544351Y-96798254D01*
X117552623Y-96813302D01*
X117567911Y-96882634D01*
X117543288Y-96949224D01*
X117486573Y-96991931D01*
X117442207Y-97000000D01*
X115257792Y-97000000D01*
X115189671Y-96979998D01*
X115143178Y-96926342D01*
X115133074Y-96856068D01*
X115147378Y-96813298D01*
X115155648Y-96798255D01*
X115155649Y-96798253D01*
X115159468Y-96791306D01*
X115167755Y-96759032D01*
X115172639Y-96744001D01*
X115184906Y-96713016D01*
X115189081Y-96679971D01*
X115192045Y-96664432D01*
X115198854Y-96637909D01*
X115198854Y-96637908D01*
X115200331Y-96632156D01*
X115200500Y-96629470D01*
X115200500Y-96597503D01*
X115201494Y-96581711D01*
X115204506Y-96557868D01*
X115205500Y-96550000D01*
X115201494Y-96518289D01*
X115200500Y-96502497D01*
X115200500Y-95922503D01*
X115201494Y-95906711D01*
X115204506Y-95882868D01*
X115205500Y-95875000D01*
X115184906Y-95711984D01*
X115124419Y-95559210D01*
X115027839Y-95426279D01*
X114966710Y-95375709D01*
X114907343Y-95326596D01*
X114907339Y-95326593D01*
X114901234Y-95321543D01*
X114752561Y-95251582D01*
X114744778Y-95250097D01*
X114744777Y-95250097D01*
X114597001Y-95221907D01*
X114596997Y-95221907D01*
X114591159Y-95220793D01*
X114591158Y-95220793D01*
X114472086Y-95228285D01*
X114435083Y-95230613D01*
X114435081Y-95230613D01*
X114427172Y-95231111D01*
X114419636Y-95233560D01*
X114419634Y-95233560D01*
X114278444Y-95279435D01*
X114278441Y-95279437D01*
X114270902Y-95281886D01*
X114132169Y-95369929D01*
X114126742Y-95375708D01*
X114126741Y-95375709D01*
X114079252Y-95426279D01*
X114019689Y-95489707D01*
X113940532Y-95633694D01*
X113905163Y-95771446D01*
X113899669Y-95792845D01*
X113899500Y-95795531D01*
X113899500Y-96241756D01*
X113879498Y-96309877D01*
X113825842Y-96356370D01*
X113755568Y-96366474D01*
X113684405Y-96330851D01*
X111963682Y-94610128D01*
X111957748Y-94606163D01*
X111887717Y-94559370D01*
X111887714Y-94559368D01*
X111882577Y-94555936D01*
X111793482Y-94519031D01*
X111787414Y-94517824D01*
X111787411Y-94517823D01*
X111708241Y-94502075D01*
X111697810Y-94500000D01*
X109525035Y-94500000D01*
X109508588Y-94498922D01*
X109483188Y-94495578D01*
X109475000Y-94494500D01*
X109466812Y-94495578D01*
X109441412Y-94498922D01*
X109424965Y-94500000D01*
X109201000Y-94500000D01*
X109197653Y-94500360D01*
X109197650Y-94500360D01*
X109151224Y-94505351D01*
X109151218Y-94505352D01*
X109147860Y-94505713D01*
X109095518Y-94517099D01*
X108984943Y-94572448D01*
X108956075Y-94597462D01*
X108941458Y-94610128D01*
X108931287Y-94618941D01*
X108921226Y-94634597D01*
X108867570Y-94681090D01*
X108797296Y-94691193D01*
X108738524Y-94666438D01*
X108659306Y-94605652D01*
X108659301Y-94605649D01*
X108652750Y-94600622D01*
X108506715Y-94540132D01*
X108350000Y-94519500D01*
X108193285Y-94540132D01*
X108047250Y-94600622D01*
X107921847Y-94696847D01*
X107825622Y-94822250D01*
X107765132Y-94968285D01*
X107744500Y-95125000D01*
X107765132Y-95281715D01*
X107825622Y-95427750D01*
X107921847Y-95553153D01*
X108047250Y-95649378D01*
X108163803Y-95697656D01*
X108181649Y-95705048D01*
X108193285Y-95709868D01*
X108201473Y-95710946D01*
X108269121Y-95719852D01*
X108350000Y-95730500D01*
X108358188Y-95729422D01*
X108498527Y-95710946D01*
X108506715Y-95709868D01*
X108569958Y-95683672D01*
X108640546Y-95676083D01*
X108704033Y-95707862D01*
X108740261Y-95768920D01*
X108737727Y-95839871D01*
X108707270Y-95889176D01*
X107690407Y-96906039D01*
X107686816Y-96911566D01*
X107652762Y-96963978D01*
X107598875Y-97010202D01*
X107547309Y-97021329D01*
X107237337Y-97021830D01*
X105275000Y-97025000D01*
X105266473Y-97033527D01*
X105189750Y-97031886D01*
X105188644Y-97035545D01*
X105120683Y-97015007D01*
X105116235Y-97014332D01*
X105116232Y-97014331D01*
X105070322Y-97007361D01*
X105050332Y-97004326D01*
X104913420Y-97003248D01*
X104556257Y-97000435D01*
X104457170Y-97020062D01*
X104365285Y-97058799D01*
X104282056Y-97116031D01*
X104277612Y-97120660D01*
X104277611Y-97120661D01*
X103278636Y-98161259D01*
X103187741Y-98200000D01*
X96626000Y-98200000D01*
X96557879Y-98179998D01*
X96511386Y-98126342D01*
X96500000Y-98074000D01*
X96500000Y-96126000D01*
X96520002Y-96057879D01*
X96573658Y-96011386D01*
X96626000Y-96000000D01*
X97229953Y-96000000D01*
X97260116Y-96003663D01*
X97298578Y-96013146D01*
X97304568Y-96013455D01*
X97304570Y-96013455D01*
X97378178Y-96017248D01*
X97508199Y-96023948D01*
X97514134Y-96023119D01*
X97514138Y-96023119D01*
X97642648Y-96005172D01*
X97671012Y-96001211D01*
X97688438Y-96000000D01*
X99769953Y-96000000D01*
X99800116Y-96003663D01*
X99838578Y-96013146D01*
X99844568Y-96013455D01*
X99844570Y-96013455D01*
X99918178Y-96017248D01*
X100048199Y-96023948D01*
X100054134Y-96023119D01*
X100054138Y-96023119D01*
X100182648Y-96005172D01*
X100211012Y-96001211D01*
X100228438Y-96000000D01*
X100500000Y-96000000D01*
X101070377Y-95429623D01*
X105438880Y-95429623D01*
X105477905Y-95575265D01*
X105554658Y-95705048D01*
X105663485Y-95809409D01*
X105796368Y-95880660D01*
X105834466Y-95889176D01*
X105935131Y-95911678D01*
X105935135Y-95911678D01*
X105943517Y-95913552D01*
X106037950Y-95908603D01*
X106085507Y-95906111D01*
X106085508Y-95906111D01*
X106094090Y-95905661D01*
X106236995Y-95857568D01*
X106361702Y-95772817D01*
X106367245Y-95766258D01*
X106367247Y-95766256D01*
X106437035Y-95683672D01*
X106459024Y-95657652D01*
X106500718Y-95566584D01*
X106518216Y-95528366D01*
X106518216Y-95528364D01*
X106521791Y-95520557D01*
X106545378Y-95371634D01*
X106545500Y-95360000D01*
X106525037Y-95210615D01*
X106491908Y-95134058D01*
X106468567Y-95080120D01*
X106468566Y-95080118D01*
X106465155Y-95072236D01*
X106370266Y-94955058D01*
X106363264Y-94950082D01*
X106363262Y-94950080D01*
X106254363Y-94872690D01*
X106247361Y-94867714D01*
X106105495Y-94816639D01*
X106096935Y-94816010D01*
X106096933Y-94816010D01*
X106018122Y-94810223D01*
X105955120Y-94805596D01*
X105807315Y-94835399D01*
X105672969Y-94903852D01*
X105666647Y-94909665D01*
X105666646Y-94909666D01*
X105611195Y-94960656D01*
X105561980Y-95005911D01*
X105557452Y-95013214D01*
X105557451Y-95013215D01*
X105515968Y-95080120D01*
X105482525Y-95134058D01*
X105440459Y-95278851D01*
X105438880Y-95429623D01*
X101070377Y-95429623D01*
X101250000Y-95250000D01*
X101250000Y-94454405D01*
X101260212Y-94419623D01*
X106398878Y-94419623D01*
X106437903Y-94565265D01*
X106514656Y-94695048D01*
X106623483Y-94799409D01*
X106756366Y-94870660D01*
X106765448Y-94872690D01*
X106895129Y-94901678D01*
X106895133Y-94901678D01*
X106903515Y-94903552D01*
X106997948Y-94898603D01*
X107045505Y-94896111D01*
X107045506Y-94896111D01*
X107054088Y-94895661D01*
X107196993Y-94847568D01*
X107209161Y-94839299D01*
X107238223Y-94819548D01*
X107321700Y-94762817D01*
X107327243Y-94756258D01*
X107327245Y-94756256D01*
X107390765Y-94681090D01*
X107419022Y-94647652D01*
X107438251Y-94605652D01*
X107478214Y-94518366D01*
X107478214Y-94518364D01*
X107481789Y-94510557D01*
X107505376Y-94361634D01*
X107505498Y-94350000D01*
X107485035Y-94200615D01*
X107474380Y-94175992D01*
X107428565Y-94070120D01*
X107428564Y-94070118D01*
X107425153Y-94062236D01*
X107366733Y-93990093D01*
X107335672Y-93951736D01*
X107335671Y-93951735D01*
X107330264Y-93945058D01*
X107323262Y-93940082D01*
X107323260Y-93940080D01*
X107214361Y-93862690D01*
X107207359Y-93857714D01*
X107065493Y-93806639D01*
X107056933Y-93806010D01*
X107056931Y-93806010D01*
X106975088Y-93800000D01*
X106915118Y-93795596D01*
X106767313Y-93825399D01*
X106632967Y-93893852D01*
X106626645Y-93899665D01*
X106626644Y-93899666D01*
X106567331Y-93954207D01*
X106521978Y-93995911D01*
X106517450Y-94003214D01*
X106517449Y-94003215D01*
X106454829Y-94104211D01*
X106442523Y-94124058D01*
X106400457Y-94268851D01*
X106398878Y-94419623D01*
X101260212Y-94419623D01*
X101270002Y-94386284D01*
X101335811Y-94334986D01*
X101438859Y-94300306D01*
X101446995Y-94297568D01*
X101571702Y-94212817D01*
X101577245Y-94206258D01*
X101577247Y-94206256D01*
X101652878Y-94116758D01*
X101669024Y-94097652D01*
X101716770Y-93993366D01*
X101728216Y-93968366D01*
X101728216Y-93968364D01*
X101731791Y-93960557D01*
X101742233Y-93894623D01*
X103948880Y-93894623D01*
X103987905Y-94040265D01*
X104064658Y-94170048D01*
X104173485Y-94274409D01*
X104306368Y-94345660D01*
X104346439Y-94354617D01*
X104445131Y-94376678D01*
X104445135Y-94376678D01*
X104453517Y-94378552D01*
X104547950Y-94373603D01*
X104595507Y-94371111D01*
X104595508Y-94371111D01*
X104604090Y-94370661D01*
X104746995Y-94322568D01*
X104871702Y-94237817D01*
X104877245Y-94231258D01*
X104877247Y-94231256D01*
X104939178Y-94157970D01*
X104969024Y-94122652D01*
X104972599Y-94114844D01*
X105028216Y-93993366D01*
X105028216Y-93993364D01*
X105031791Y-93985557D01*
X105055378Y-93836634D01*
X105055500Y-93825000D01*
X105035037Y-93675615D01*
X105024219Y-93650615D01*
X104978567Y-93545120D01*
X104978566Y-93545118D01*
X104975155Y-93537236D01*
X104921446Y-93470911D01*
X104885674Y-93426736D01*
X104885673Y-93426735D01*
X104880266Y-93420058D01*
X104873264Y-93415082D01*
X104873262Y-93415080D01*
X104764363Y-93337690D01*
X104757361Y-93332714D01*
X104615495Y-93281639D01*
X104606935Y-93281010D01*
X104606933Y-93281010D01*
X104528122Y-93275223D01*
X104465120Y-93270596D01*
X104317315Y-93300399D01*
X104182969Y-93368852D01*
X104176647Y-93374665D01*
X104176646Y-93374666D01*
X104124192Y-93422900D01*
X104071980Y-93470911D01*
X104067452Y-93478214D01*
X104067451Y-93478215D01*
X104028333Y-93541306D01*
X103992525Y-93599058D01*
X103950459Y-93743851D01*
X103948880Y-93894623D01*
X101742233Y-93894623D01*
X101755378Y-93811634D01*
X101755500Y-93800000D01*
X101735037Y-93650615D01*
X101687735Y-93541306D01*
X101678567Y-93520120D01*
X101678566Y-93520118D01*
X101675155Y-93512236D01*
X101621446Y-93445911D01*
X101585674Y-93401736D01*
X101585673Y-93401735D01*
X101580266Y-93395058D01*
X101573264Y-93390082D01*
X101573262Y-93390080D01*
X101464363Y-93312690D01*
X101457361Y-93307714D01*
X101333319Y-93263056D01*
X101276001Y-93221161D01*
X101250000Y-93144505D01*
X101250000Y-92620531D01*
X107699500Y-92620531D01*
X107699500Y-93339579D01*
X107715094Y-93463016D01*
X107731937Y-93505558D01*
X107772222Y-93607305D01*
X107775581Y-93615790D01*
X107780240Y-93622203D01*
X107780242Y-93622206D01*
X107826078Y-93685293D01*
X107872162Y-93748721D01*
X107878270Y-93753774D01*
X107992658Y-93848404D01*
X107992662Y-93848407D01*
X107998767Y-93853457D01*
X108147440Y-93923418D01*
X108155223Y-93924903D01*
X108155224Y-93924903D01*
X108301056Y-93952722D01*
X108301058Y-93952722D01*
X108308842Y-93954207D01*
X108390835Y-93949048D01*
X108464917Y-93944387D01*
X108464919Y-93944387D01*
X108472828Y-93943889D01*
X108480364Y-93941440D01*
X108480366Y-93941440D01*
X108621556Y-93895565D01*
X108621559Y-93895563D01*
X108629098Y-93893114D01*
X108767831Y-93805071D01*
X108833065Y-93735605D01*
X108874887Y-93691069D01*
X108880311Y-93685293D01*
X108885632Y-93675615D01*
X108931732Y-93591758D01*
X108959468Y-93541306D01*
X109000331Y-93382156D01*
X109000500Y-93379470D01*
X109000500Y-92660421D01*
X108984906Y-92536984D01*
X108956951Y-92466376D01*
X108927339Y-92391584D01*
X108927337Y-92391581D01*
X108924419Y-92384210D01*
X108827839Y-92251279D01*
X108701233Y-92146543D01*
X108552560Y-92076582D01*
X108544777Y-92075097D01*
X108544776Y-92075097D01*
X108398944Y-92047278D01*
X108398942Y-92047278D01*
X108391158Y-92045793D01*
X108309165Y-92050952D01*
X108235083Y-92055613D01*
X108235081Y-92055613D01*
X108227172Y-92056111D01*
X108219636Y-92058560D01*
X108219634Y-92058560D01*
X108078444Y-92104435D01*
X108078441Y-92104437D01*
X108070902Y-92106886D01*
X107932169Y-92194929D01*
X107926742Y-92200708D01*
X107926741Y-92200709D01*
X107825113Y-92308931D01*
X107825110Y-92308936D01*
X107819689Y-92314708D01*
X107740532Y-92458695D01*
X107699669Y-92617845D01*
X107699500Y-92620531D01*
X101250000Y-92620531D01*
X101250000Y-88876000D01*
X101270002Y-88807879D01*
X101323658Y-88761386D01*
X101376000Y-88750000D01*
X103099583Y-88750000D01*
X103167704Y-88770002D01*
G37*
G04 #@! TD.AperFunction*
M02*
