G04 #@! TF.GenerationSoftware,KiCad,Pcbnew,(5.99.0-6495-g15369915cc)*
G04 #@! TF.CreationDate,2020-10-24T18:43:56+02:00*
G04 #@! TF.ProjectId,EVAL-MP8862,4556414c-2d4d-4503-9838-36322e6b6963,1A*
G04 #@! TF.SameCoordinates,Original*
G04 #@! TF.FileFunction,Copper,L4,Bot*
G04 #@! TF.FilePolarity,Positive*
%FSLAX46Y46*%
G04 Gerber Fmt 4.6, Leading zero omitted, Abs format (unit mm)*
G04 Created by KiCad (PCBNEW (5.99.0-6495-g15369915cc)) date 2020-10-24 18:43:56*
%MOMM*%
%LPD*%
G01*
G04 APERTURE LIST*
G04 Aperture macros list*
%AMRoundRect*
0 Rectangle with rounded corners*
0 $1 Rounding radius*
0 $2 $3 $4 $5 $6 $7 $8 $9 X,Y pos of 4 corners*
0 Add a 4 corners polygon primitive as box body*
4,1,4,$2,$3,$4,$5,$6,$7,$8,$9,$2,$3,0*
0 Add four circle primitives for the rounded corners*
1,1,$1+$1,$2,$3,0*
1,1,$1+$1,$4,$5,0*
1,1,$1+$1,$6,$7,0*
1,1,$1+$1,$8,$9,0*
0 Add four rect primitives between the rounded corners*
20,1,$1+$1,$2,$3,$4,$5,0*
20,1,$1+$1,$4,$5,$6,$7,0*
20,1,$1+$1,$6,$7,$8,$9,0*
20,1,$1+$1,$8,$9,$2,$3,0*%
G04 Aperture macros list end*
%ADD10C,0.100000*%
%ADD11C,0.150000*%
%ADD12C,0.300000*%
%ADD13C,0.400000*%
G04 #@! TA.AperFunction,ComponentPad*
%ADD14R,1.700000X1.700000*%
G04 #@! TD*
G04 #@! TA.AperFunction,ComponentPad*
%ADD15O,1.700000X1.700000*%
G04 #@! TD*
G04 #@! TA.AperFunction,SMDPad,CuDef*
%ADD16RoundRect,0.218750X0.218750X0.256250X-0.218750X0.256250X-0.218750X-0.256250X0.218750X-0.256250X0*%
G04 #@! TD*
G04 #@! TA.AperFunction,SMDPad,CuDef*
%ADD17RoundRect,0.218750X0.256250X-0.218750X0.256250X0.218750X-0.256250X0.218750X-0.256250X-0.218750X0*%
G04 #@! TD*
G04 #@! TA.AperFunction,ViaPad*
%ADD18C,0.700000*%
G04 #@! TD*
G04 #@! TA.AperFunction,ViaPad*
%ADD19C,0.800000*%
G04 #@! TD*
G04 #@! TA.AperFunction,ViaPad*
%ADD20C,0.600000*%
G04 #@! TD*
G04 #@! TA.AperFunction,Conductor*
%ADD21C,1.500000*%
G04 #@! TD*
G04 #@! TA.AperFunction,Conductor*
%ADD22C,0.800000*%
G04 #@! TD*
G04 #@! TA.AperFunction,Conductor*
%ADD23C,2.000000*%
G04 #@! TD*
G04 #@! TA.AperFunction,Conductor*
%ADD24C,0.250000*%
G04 #@! TD*
G04 #@! TA.AperFunction,Conductor*
%ADD25C,0.600000*%
G04 #@! TD*
G04 #@! TA.AperFunction,Conductor*
%ADD26C,1.000000*%
G04 #@! TD*
G04 APERTURE END LIST*
D10*
D11*
X177002200Y-166007200D02*
X177002200Y-198007200D01*
X285002200Y-198007200D01*
X285002200Y-166007200D01*
X177002200Y-166007200D01*
D10*
D11*
X10000000Y-10000000D02*
X10000000Y-200007200D01*
X287002200Y-200007200D01*
X287002200Y-10000000D01*
X10000000Y-10000000D01*
D10*
D11*
X12000000Y-12000000D02*
X12000000Y-198007200D01*
X285002200Y-198007200D01*
X285002200Y-12000000D01*
X12000000Y-12000000D01*
D10*
D11*
X60000000Y-12000000D02*
X60000000Y-10000000D01*
D10*
D11*
X110000000Y-12000000D02*
X110000000Y-10000000D01*
D10*
D11*
X160000000Y-12000000D02*
X160000000Y-10000000D01*
D10*
D11*
X210000000Y-12000000D02*
X210000000Y-10000000D01*
D10*
D11*
X260000000Y-12000000D02*
X260000000Y-10000000D01*
D10*
D11*
X36065476Y-11588095D02*
X35322619Y-11588095D01*
X35694047Y-11588095D02*
X35694047Y-10288095D01*
X35570238Y-10473809D01*
X35446428Y-10597619D01*
X35322619Y-10659523D01*
D10*
D11*
X85322619Y-10411904D02*
X85384523Y-10350000D01*
X85508333Y-10288095D01*
X85817857Y-10288095D01*
X85941666Y-10350000D01*
X86003571Y-10411904D01*
X86065476Y-10535714D01*
X86065476Y-10659523D01*
X86003571Y-10845238D01*
X85260714Y-11588095D01*
X86065476Y-11588095D01*
D10*
D11*
X135260714Y-10288095D02*
X136065476Y-10288095D01*
X135632142Y-10783333D01*
X135817857Y-10783333D01*
X135941666Y-10845238D01*
X136003571Y-10907142D01*
X136065476Y-11030952D01*
X136065476Y-11340476D01*
X136003571Y-11464285D01*
X135941666Y-11526190D01*
X135817857Y-11588095D01*
X135446428Y-11588095D01*
X135322619Y-11526190D01*
X135260714Y-11464285D01*
D10*
D11*
X185941666Y-10721428D02*
X185941666Y-11588095D01*
X185632142Y-10226190D02*
X185322619Y-11154761D01*
X186127380Y-11154761D01*
D10*
D11*
X236003571Y-10288095D02*
X235384523Y-10288095D01*
X235322619Y-10907142D01*
X235384523Y-10845238D01*
X235508333Y-10783333D01*
X235817857Y-10783333D01*
X235941666Y-10845238D01*
X236003571Y-10907142D01*
X236065476Y-11030952D01*
X236065476Y-11340476D01*
X236003571Y-11464285D01*
X235941666Y-11526190D01*
X235817857Y-11588095D01*
X235508333Y-11588095D01*
X235384523Y-11526190D01*
X235322619Y-11464285D01*
D10*
D11*
X285941666Y-10288095D02*
X285694047Y-10288095D01*
X285570238Y-10350000D01*
X285508333Y-10411904D01*
X285384523Y-10597619D01*
X285322619Y-10845238D01*
X285322619Y-11340476D01*
X285384523Y-11464285D01*
X285446428Y-11526190D01*
X285570238Y-11588095D01*
X285817857Y-11588095D01*
X285941666Y-11526190D01*
X286003571Y-11464285D01*
X286065476Y-11340476D01*
X286065476Y-11030952D01*
X286003571Y-10907142D01*
X285941666Y-10845238D01*
X285817857Y-10783333D01*
X285570238Y-10783333D01*
X285446428Y-10845238D01*
X285384523Y-10907142D01*
X285322619Y-11030952D01*
D10*
D11*
X60000000Y-198007200D02*
X60000000Y-200007200D01*
D10*
D11*
X110000000Y-198007200D02*
X110000000Y-200007200D01*
D10*
D11*
X160000000Y-198007200D02*
X160000000Y-200007200D01*
D10*
D11*
X210000000Y-198007200D02*
X210000000Y-200007200D01*
D10*
D11*
X260000000Y-198007200D02*
X260000000Y-200007200D01*
D10*
D11*
X36065476Y-199595295D02*
X35322619Y-199595295D01*
X35694047Y-199595295D02*
X35694047Y-198295295D01*
X35570238Y-198481009D01*
X35446428Y-198604819D01*
X35322619Y-198666723D01*
D10*
D11*
X85322619Y-198419104D02*
X85384523Y-198357200D01*
X85508333Y-198295295D01*
X85817857Y-198295295D01*
X85941666Y-198357200D01*
X86003571Y-198419104D01*
X86065476Y-198542914D01*
X86065476Y-198666723D01*
X86003571Y-198852438D01*
X85260714Y-199595295D01*
X86065476Y-199595295D01*
D10*
D11*
X135260714Y-198295295D02*
X136065476Y-198295295D01*
X135632142Y-198790533D01*
X135817857Y-198790533D01*
X135941666Y-198852438D01*
X136003571Y-198914342D01*
X136065476Y-199038152D01*
X136065476Y-199347676D01*
X136003571Y-199471485D01*
X135941666Y-199533390D01*
X135817857Y-199595295D01*
X135446428Y-199595295D01*
X135322619Y-199533390D01*
X135260714Y-199471485D01*
D10*
D11*
X185941666Y-198728628D02*
X185941666Y-199595295D01*
X185632142Y-198233390D02*
X185322619Y-199161961D01*
X186127380Y-199161961D01*
D10*
D11*
X236003571Y-198295295D02*
X235384523Y-198295295D01*
X235322619Y-198914342D01*
X235384523Y-198852438D01*
X235508333Y-198790533D01*
X235817857Y-198790533D01*
X235941666Y-198852438D01*
X236003571Y-198914342D01*
X236065476Y-199038152D01*
X236065476Y-199347676D01*
X236003571Y-199471485D01*
X235941666Y-199533390D01*
X235817857Y-199595295D01*
X235508333Y-199595295D01*
X235384523Y-199533390D01*
X235322619Y-199471485D01*
D10*
D11*
X285941666Y-198295295D02*
X285694047Y-198295295D01*
X285570238Y-198357200D01*
X285508333Y-198419104D01*
X285384523Y-198604819D01*
X285322619Y-198852438D01*
X285322619Y-199347676D01*
X285384523Y-199471485D01*
X285446428Y-199533390D01*
X285570238Y-199595295D01*
X285817857Y-199595295D01*
X285941666Y-199533390D01*
X286003571Y-199471485D01*
X286065476Y-199347676D01*
X286065476Y-199038152D01*
X286003571Y-198914342D01*
X285941666Y-198852438D01*
X285817857Y-198790533D01*
X285570238Y-198790533D01*
X285446428Y-198852438D01*
X285384523Y-198914342D01*
X285322619Y-199038152D01*
D10*
D11*
X10000000Y-60000000D02*
X12000000Y-60000000D01*
D10*
D11*
X10000000Y-110000000D02*
X12000000Y-110000000D01*
D10*
D11*
X10000000Y-160000000D02*
X12000000Y-160000000D01*
D10*
D11*
X10690476Y-35216666D02*
X11309523Y-35216666D01*
X10566666Y-35588095D02*
X11000000Y-34288095D01*
X11433333Y-35588095D01*
D10*
D11*
X11092857Y-84907142D02*
X11278571Y-84969047D01*
X11340476Y-85030952D01*
X11402380Y-85154761D01*
X11402380Y-85340476D01*
X11340476Y-85464285D01*
X11278571Y-85526190D01*
X11154761Y-85588095D01*
X10659523Y-85588095D01*
X10659523Y-84288095D01*
X11092857Y-84288095D01*
X11216666Y-84350000D01*
X11278571Y-84411904D01*
X11340476Y-84535714D01*
X11340476Y-84659523D01*
X11278571Y-84783333D01*
X11216666Y-84845238D01*
X11092857Y-84907142D01*
X10659523Y-84907142D01*
D10*
D11*
X11402380Y-135464285D02*
X11340476Y-135526190D01*
X11154761Y-135588095D01*
X11030952Y-135588095D01*
X10845238Y-135526190D01*
X10721428Y-135402380D01*
X10659523Y-135278571D01*
X10597619Y-135030952D01*
X10597619Y-134845238D01*
X10659523Y-134597619D01*
X10721428Y-134473809D01*
X10845238Y-134350000D01*
X11030952Y-134288095D01*
X11154761Y-134288095D01*
X11340476Y-134350000D01*
X11402380Y-134411904D01*
D10*
D11*
X10659523Y-185588095D02*
X10659523Y-184288095D01*
X10969047Y-184288095D01*
X11154761Y-184350000D01*
X11278571Y-184473809D01*
X11340476Y-184597619D01*
X11402380Y-184845238D01*
X11402380Y-185030952D01*
X11340476Y-185278571D01*
X11278571Y-185402380D01*
X11154761Y-185526190D01*
X10969047Y-185588095D01*
X10659523Y-185588095D01*
D10*
D11*
X287002200Y-60000000D02*
X285002200Y-60000000D01*
D10*
D11*
X287002200Y-110000000D02*
X285002200Y-110000000D01*
D10*
D11*
X287002200Y-160000000D02*
X285002200Y-160000000D01*
D10*
D11*
X285692676Y-35216666D02*
X286311723Y-35216666D01*
X285568866Y-35588095D02*
X286002200Y-34288095D01*
X286435533Y-35588095D01*
D10*
D11*
X286095057Y-84907142D02*
X286280771Y-84969047D01*
X286342676Y-85030952D01*
X286404580Y-85154761D01*
X286404580Y-85340476D01*
X286342676Y-85464285D01*
X286280771Y-85526190D01*
X286156961Y-85588095D01*
X285661723Y-85588095D01*
X285661723Y-84288095D01*
X286095057Y-84288095D01*
X286218866Y-84350000D01*
X286280771Y-84411904D01*
X286342676Y-84535714D01*
X286342676Y-84659523D01*
X286280771Y-84783333D01*
X286218866Y-84845238D01*
X286095057Y-84907142D01*
X285661723Y-84907142D01*
D10*
D11*
X286404580Y-135464285D02*
X286342676Y-135526190D01*
X286156961Y-135588095D01*
X286033152Y-135588095D01*
X285847438Y-135526190D01*
X285723628Y-135402380D01*
X285661723Y-135278571D01*
X285599819Y-135030952D01*
X285599819Y-134845238D01*
X285661723Y-134597619D01*
X285723628Y-134473809D01*
X285847438Y-134350000D01*
X286033152Y-134288095D01*
X286156961Y-134288095D01*
X286342676Y-134350000D01*
X286404580Y-134411904D01*
D10*
D11*
X285661723Y-185588095D02*
X285661723Y-184288095D01*
X285971247Y-184288095D01*
X286156961Y-184350000D01*
X286280771Y-184473809D01*
X286342676Y-184597619D01*
X286404580Y-184845238D01*
X286404580Y-185030952D01*
X286342676Y-185278571D01*
X286280771Y-185402380D01*
X286156961Y-185526190D01*
X285971247Y-185588095D01*
X285661723Y-185588095D01*
D10*
D11*
X200434342Y-193785771D02*
X200434342Y-192285771D01*
X200791485Y-192285771D01*
X201005771Y-192357200D01*
X201148628Y-192500057D01*
X201220057Y-192642914D01*
X201291485Y-192928628D01*
X201291485Y-193142914D01*
X201220057Y-193428628D01*
X201148628Y-193571485D01*
X201005771Y-193714342D01*
X200791485Y-193785771D01*
X200434342Y-193785771D01*
X202577200Y-193785771D02*
X202577200Y-193000057D01*
X202505771Y-192857200D01*
X202362914Y-192785771D01*
X202077200Y-192785771D01*
X201934342Y-192857200D01*
X202577200Y-193714342D02*
X202434342Y-193785771D01*
X202077200Y-193785771D01*
X201934342Y-193714342D01*
X201862914Y-193571485D01*
X201862914Y-193428628D01*
X201934342Y-193285771D01*
X202077200Y-193214342D01*
X202434342Y-193214342D01*
X202577200Y-193142914D01*
X203077200Y-192785771D02*
X203648628Y-192785771D01*
X203291485Y-192285771D02*
X203291485Y-193571485D01*
X203362914Y-193714342D01*
X203505771Y-193785771D01*
X203648628Y-193785771D01*
X204720057Y-193714342D02*
X204577200Y-193785771D01*
X204291485Y-193785771D01*
X204148628Y-193714342D01*
X204077200Y-193571485D01*
X204077200Y-193000057D01*
X204148628Y-192857200D01*
X204291485Y-192785771D01*
X204577200Y-192785771D01*
X204720057Y-192857200D01*
X204791485Y-193000057D01*
X204791485Y-193142914D01*
X204077200Y-193285771D01*
X205434342Y-193642914D02*
X205505771Y-193714342D01*
X205434342Y-193785771D01*
X205362914Y-193714342D01*
X205434342Y-193642914D01*
X205434342Y-193785771D01*
X205434342Y-192857200D02*
X205505771Y-192928628D01*
X205434342Y-193000057D01*
X205362914Y-192928628D01*
X205434342Y-192857200D01*
X205434342Y-193000057D01*
X207220057Y-192428628D02*
X207291485Y-192357200D01*
X207434342Y-192285771D01*
X207791485Y-192285771D01*
X207934342Y-192357200D01*
X208005771Y-192428628D01*
X208077200Y-192571485D01*
X208077200Y-192714342D01*
X208005771Y-192928628D01*
X207148628Y-193785771D01*
X208077200Y-193785771D01*
X209005771Y-192285771D02*
X209148628Y-192285771D01*
X209291485Y-192357200D01*
X209362914Y-192428628D01*
X209434342Y-192571485D01*
X209505771Y-192857200D01*
X209505771Y-193214342D01*
X209434342Y-193500057D01*
X209362914Y-193642914D01*
X209291485Y-193714342D01*
X209148628Y-193785771D01*
X209005771Y-193785771D01*
X208862914Y-193714342D01*
X208791485Y-193642914D01*
X208720057Y-193500057D01*
X208648628Y-193214342D01*
X208648628Y-192857200D01*
X208720057Y-192571485D01*
X208791485Y-192428628D01*
X208862914Y-192357200D01*
X209005771Y-192285771D01*
X210077200Y-192428628D02*
X210148628Y-192357200D01*
X210291485Y-192285771D01*
X210648628Y-192285771D01*
X210791485Y-192357200D01*
X210862914Y-192428628D01*
X210934342Y-192571485D01*
X210934342Y-192714342D01*
X210862914Y-192928628D01*
X210005771Y-193785771D01*
X210934342Y-193785771D01*
X211862914Y-192285771D02*
X212005771Y-192285771D01*
X212148628Y-192357200D01*
X212220057Y-192428628D01*
X212291485Y-192571485D01*
X212362914Y-192857200D01*
X212362914Y-193214342D01*
X212291485Y-193500057D01*
X212220057Y-193642914D01*
X212148628Y-193714342D01*
X212005771Y-193785771D01*
X211862914Y-193785771D01*
X211720057Y-193714342D01*
X211648628Y-193642914D01*
X211577200Y-193500057D01*
X211505771Y-193214342D01*
X211505771Y-192857200D01*
X211577200Y-192571485D01*
X211648628Y-192428628D01*
X211720057Y-192357200D01*
X211862914Y-192285771D01*
X213005771Y-193214342D02*
X214148628Y-193214342D01*
X215648628Y-193785771D02*
X214791485Y-193785771D01*
X215220057Y-193785771D02*
X215220057Y-192285771D01*
X215077200Y-192500057D01*
X214934342Y-192642914D01*
X214791485Y-192714342D01*
X216577200Y-192285771D02*
X216720057Y-192285771D01*
X216862914Y-192357200D01*
X216934342Y-192428628D01*
X217005771Y-192571485D01*
X217077200Y-192857200D01*
X217077200Y-193214342D01*
X217005771Y-193500057D01*
X216934342Y-193642914D01*
X216862914Y-193714342D01*
X216720057Y-193785771D01*
X216577200Y-193785771D01*
X216434342Y-193714342D01*
X216362914Y-193642914D01*
X216291485Y-193500057D01*
X216220057Y-193214342D01*
X216220057Y-192857200D01*
X216291485Y-192571485D01*
X216362914Y-192428628D01*
X216434342Y-192357200D01*
X216577200Y-192285771D01*
X217720057Y-193214342D02*
X218862914Y-193214342D01*
X219505771Y-192428628D02*
X219577200Y-192357200D01*
X219720057Y-192285771D01*
X220077200Y-192285771D01*
X220220057Y-192357200D01*
X220291485Y-192428628D01*
X220362914Y-192571485D01*
X220362914Y-192714342D01*
X220291485Y-192928628D01*
X219434342Y-193785771D01*
X220362914Y-193785771D01*
X221648628Y-192785771D02*
X221648628Y-193785771D01*
X221291485Y-192214342D02*
X220934342Y-193285771D01*
X221862914Y-193285771D01*
D10*
D11*
X177002200Y-194507200D02*
X285002200Y-194507200D01*
D10*
D11*
X178434342Y-196585771D02*
X178434342Y-195085771D01*
X179291485Y-196585771D02*
X178648628Y-195728628D01*
X179291485Y-195085771D02*
X178434342Y-195942914D01*
X179934342Y-196585771D02*
X179934342Y-195585771D01*
X179934342Y-195085771D02*
X179862914Y-195157200D01*
X179934342Y-195228628D01*
X180005771Y-195157200D01*
X179934342Y-195085771D01*
X179934342Y-195228628D01*
X181505771Y-196442914D02*
X181434342Y-196514342D01*
X181220057Y-196585771D01*
X181077200Y-196585771D01*
X180862914Y-196514342D01*
X180720057Y-196371485D01*
X180648628Y-196228628D01*
X180577200Y-195942914D01*
X180577200Y-195728628D01*
X180648628Y-195442914D01*
X180720057Y-195300057D01*
X180862914Y-195157200D01*
X181077200Y-195085771D01*
X181220057Y-195085771D01*
X181434342Y-195157200D01*
X181505771Y-195228628D01*
X182791485Y-196585771D02*
X182791485Y-195800057D01*
X182720057Y-195657200D01*
X182577200Y-195585771D01*
X182291485Y-195585771D01*
X182148628Y-195657200D01*
X182791485Y-196514342D02*
X182648628Y-196585771D01*
X182291485Y-196585771D01*
X182148628Y-196514342D01*
X182077200Y-196371485D01*
X182077200Y-196228628D01*
X182148628Y-196085771D01*
X182291485Y-196014342D01*
X182648628Y-196014342D01*
X182791485Y-195942914D01*
X184148628Y-196585771D02*
X184148628Y-195085771D01*
X184148628Y-196514342D02*
X184005771Y-196585771D01*
X183720057Y-196585771D01*
X183577200Y-196514342D01*
X183505771Y-196442914D01*
X183434342Y-196300057D01*
X183434342Y-195871485D01*
X183505771Y-195728628D01*
X183577200Y-195657200D01*
X183720057Y-195585771D01*
X184005771Y-195585771D01*
X184148628Y-195657200D01*
X186005771Y-195800057D02*
X186505771Y-195800057D01*
X186720057Y-196585771D02*
X186005771Y-196585771D01*
X186005771Y-195085771D01*
X186720057Y-195085771D01*
X187362914Y-196442914D02*
X187434342Y-196514342D01*
X187362914Y-196585771D01*
X187291485Y-196514342D01*
X187362914Y-196442914D01*
X187362914Y-196585771D01*
X188077200Y-196585771D02*
X188077200Y-195085771D01*
X188434342Y-195085771D01*
X188648628Y-195157200D01*
X188791485Y-195300057D01*
X188862914Y-195442914D01*
X188934342Y-195728628D01*
X188934342Y-195942914D01*
X188862914Y-196228628D01*
X188791485Y-196371485D01*
X188648628Y-196514342D01*
X188434342Y-196585771D01*
X188077200Y-196585771D01*
X189577200Y-196442914D02*
X189648628Y-196514342D01*
X189577200Y-196585771D01*
X189505771Y-196514342D01*
X189577200Y-196442914D01*
X189577200Y-196585771D01*
X190220057Y-196157200D02*
X190934342Y-196157200D01*
X190077200Y-196585771D02*
X190577200Y-195085771D01*
X191077200Y-196585771D01*
X191577200Y-196442914D02*
X191648628Y-196514342D01*
X191577200Y-196585771D01*
X191505771Y-196514342D01*
X191577200Y-196442914D01*
X191577200Y-196585771D01*
X194577200Y-196585771D02*
X194577200Y-195085771D01*
X194720057Y-196014342D02*
X195148628Y-196585771D01*
X195148628Y-195585771D02*
X194577200Y-196157200D01*
X195791485Y-196585771D02*
X195791485Y-195585771D01*
X195791485Y-195085771D02*
X195720057Y-195157200D01*
X195791485Y-195228628D01*
X195862914Y-195157200D01*
X195791485Y-195085771D01*
X195791485Y-195228628D01*
X197148628Y-196514342D02*
X197005771Y-196585771D01*
X196720057Y-196585771D01*
X196577200Y-196514342D01*
X196505771Y-196442914D01*
X196434342Y-196300057D01*
X196434342Y-195871485D01*
X196505771Y-195728628D01*
X196577200Y-195657200D01*
X196720057Y-195585771D01*
X197005771Y-195585771D01*
X197148628Y-195657200D01*
X198434342Y-196585771D02*
X198434342Y-195800057D01*
X198362914Y-195657200D01*
X198220057Y-195585771D01*
X197934342Y-195585771D01*
X197791485Y-195657200D01*
X198434342Y-196514342D02*
X198291485Y-196585771D01*
X197934342Y-196585771D01*
X197791485Y-196514342D01*
X197720057Y-196371485D01*
X197720057Y-196228628D01*
X197791485Y-196085771D01*
X197934342Y-196014342D01*
X198291485Y-196014342D01*
X198434342Y-195942914D01*
X199791485Y-196585771D02*
X199791485Y-195085771D01*
X199791485Y-196514342D02*
X199648628Y-196585771D01*
X199362914Y-196585771D01*
X199220057Y-196514342D01*
X199148628Y-196442914D01*
X199077200Y-196300057D01*
X199077200Y-195871485D01*
X199148628Y-195728628D01*
X199220057Y-195657200D01*
X199362914Y-195585771D01*
X199648628Y-195585771D01*
X199791485Y-195657200D01*
X202077200Y-197157200D02*
X202005771Y-197085771D01*
X201862914Y-196871485D01*
X201791485Y-196728628D01*
X201720057Y-196514342D01*
X201648628Y-196157200D01*
X201648628Y-195871485D01*
X201720057Y-195514342D01*
X201791485Y-195300057D01*
X201862914Y-195157200D01*
X202005771Y-194942914D01*
X202077200Y-194871485D01*
X203362914Y-195085771D02*
X202648628Y-195085771D01*
X202577200Y-195800057D01*
X202648628Y-195728628D01*
X202791485Y-195657200D01*
X203148628Y-195657200D01*
X203291485Y-195728628D01*
X203362914Y-195800057D01*
X203434342Y-195942914D01*
X203434342Y-196300057D01*
X203362914Y-196442914D01*
X203291485Y-196514342D01*
X203148628Y-196585771D01*
X202791485Y-196585771D01*
X202648628Y-196514342D01*
X202577200Y-196442914D01*
X204077200Y-196442914D02*
X204148628Y-196514342D01*
X204077200Y-196585771D01*
X204005771Y-196514342D01*
X204077200Y-196442914D01*
X204077200Y-196585771D01*
X204862914Y-196585771D02*
X205148628Y-196585771D01*
X205291485Y-196514342D01*
X205362914Y-196442914D01*
X205505771Y-196228628D01*
X205577200Y-195942914D01*
X205577200Y-195371485D01*
X205505771Y-195228628D01*
X205434342Y-195157200D01*
X205291485Y-195085771D01*
X205005771Y-195085771D01*
X204862914Y-195157200D01*
X204791485Y-195228628D01*
X204720057Y-195371485D01*
X204720057Y-195728628D01*
X204791485Y-195871485D01*
X204862914Y-195942914D01*
X205005771Y-196014342D01*
X205291485Y-196014342D01*
X205434342Y-195942914D01*
X205505771Y-195871485D01*
X205577200Y-195728628D01*
X206291485Y-196585771D02*
X206577200Y-196585771D01*
X206720057Y-196514342D01*
X206791485Y-196442914D01*
X206934342Y-196228628D01*
X207005771Y-195942914D01*
X207005771Y-195371485D01*
X206934342Y-195228628D01*
X206862914Y-195157200D01*
X206720057Y-195085771D01*
X206434342Y-195085771D01*
X206291485Y-195157200D01*
X206220057Y-195228628D01*
X206148628Y-195371485D01*
X206148628Y-195728628D01*
X206220057Y-195871485D01*
X206291485Y-195942914D01*
X206434342Y-196014342D01*
X206720057Y-196014342D01*
X206862914Y-195942914D01*
X206934342Y-195871485D01*
X207005771Y-195728628D01*
X207648628Y-196442914D02*
X207720057Y-196514342D01*
X207648628Y-196585771D01*
X207577200Y-196514342D01*
X207648628Y-196442914D01*
X207648628Y-196585771D01*
X208648628Y-195085771D02*
X208791485Y-195085771D01*
X208934342Y-195157200D01*
X209005771Y-195228628D01*
X209077200Y-195371485D01*
X209148628Y-195657200D01*
X209148628Y-196014342D01*
X209077200Y-196300057D01*
X209005771Y-196442914D01*
X208934342Y-196514342D01*
X208791485Y-196585771D01*
X208648628Y-196585771D01*
X208505771Y-196514342D01*
X208434342Y-196442914D01*
X208362914Y-196300057D01*
X208291485Y-196014342D01*
X208291485Y-195657200D01*
X208362914Y-195371485D01*
X208434342Y-195228628D01*
X208505771Y-195157200D01*
X208648628Y-195085771D01*
X209791485Y-196014342D02*
X210934342Y-196014342D01*
X212291485Y-195085771D02*
X212005771Y-195085771D01*
X211862914Y-195157200D01*
X211791485Y-195228628D01*
X211648628Y-195442914D01*
X211577200Y-195728628D01*
X211577200Y-196300057D01*
X211648628Y-196442914D01*
X211720057Y-196514342D01*
X211862914Y-196585771D01*
X212148628Y-196585771D01*
X212291485Y-196514342D01*
X212362914Y-196442914D01*
X212434342Y-196300057D01*
X212434342Y-195942914D01*
X212362914Y-195800057D01*
X212291485Y-195728628D01*
X212148628Y-195657200D01*
X211862914Y-195657200D01*
X211720057Y-195728628D01*
X211648628Y-195800057D01*
X211577200Y-195942914D01*
X213720057Y-195585771D02*
X213720057Y-196585771D01*
X213362914Y-195014342D02*
X213005771Y-196085771D01*
X213934342Y-196085771D01*
X214577200Y-196585771D02*
X214862914Y-196585771D01*
X215005771Y-196514342D01*
X215077200Y-196442914D01*
X215220057Y-196228628D01*
X215291485Y-195942914D01*
X215291485Y-195371485D01*
X215220057Y-195228628D01*
X215148628Y-195157200D01*
X215005771Y-195085771D01*
X214720057Y-195085771D01*
X214577200Y-195157200D01*
X214505771Y-195228628D01*
X214434342Y-195371485D01*
X214434342Y-195728628D01*
X214505771Y-195871485D01*
X214577200Y-195942914D01*
X214720057Y-196014342D01*
X215005771Y-196014342D01*
X215148628Y-195942914D01*
X215220057Y-195871485D01*
X215291485Y-195728628D01*
X216648628Y-195085771D02*
X215934342Y-195085771D01*
X215862914Y-195800057D01*
X215934342Y-195728628D01*
X216077200Y-195657200D01*
X216434342Y-195657200D01*
X216577200Y-195728628D01*
X216648628Y-195800057D01*
X216720057Y-195942914D01*
X216720057Y-196300057D01*
X216648628Y-196442914D01*
X216577200Y-196514342D01*
X216434342Y-196585771D01*
X216077200Y-196585771D01*
X215934342Y-196514342D01*
X215862914Y-196442914D01*
X217362914Y-196014342D02*
X218505771Y-196014342D01*
X219862914Y-195585771D02*
X219862914Y-196800057D01*
X219791485Y-196942914D01*
X219720057Y-197014342D01*
X219577200Y-197085771D01*
X219362914Y-197085771D01*
X219220057Y-197014342D01*
X219862914Y-196514342D02*
X219720057Y-196585771D01*
X219434342Y-196585771D01*
X219291485Y-196514342D01*
X219220057Y-196442914D01*
X219148628Y-196300057D01*
X219148628Y-195871485D01*
X219220057Y-195728628D01*
X219291485Y-195657200D01*
X219434342Y-195585771D01*
X219720057Y-195585771D01*
X219862914Y-195657200D01*
X221362914Y-196585771D02*
X220505771Y-196585771D01*
X220934342Y-196585771D02*
X220934342Y-195085771D01*
X220791485Y-195300057D01*
X220648628Y-195442914D01*
X220505771Y-195514342D01*
X222720057Y-195085771D02*
X222005771Y-195085771D01*
X221934342Y-195800057D01*
X222005771Y-195728628D01*
X222148628Y-195657200D01*
X222505771Y-195657200D01*
X222648628Y-195728628D01*
X222720057Y-195800057D01*
X222791485Y-195942914D01*
X222791485Y-196300057D01*
X222720057Y-196442914D01*
X222648628Y-196514342D01*
X222505771Y-196585771D01*
X222148628Y-196585771D01*
X222005771Y-196514342D01*
X221934342Y-196442914D01*
X223291485Y-195085771D02*
X224220057Y-195085771D01*
X223720057Y-195657200D01*
X223934342Y-195657200D01*
X224077200Y-195728628D01*
X224148628Y-195800057D01*
X224220057Y-195942914D01*
X224220057Y-196300057D01*
X224148628Y-196442914D01*
X224077200Y-196514342D01*
X223934342Y-196585771D01*
X223505771Y-196585771D01*
X223362914Y-196514342D01*
X223291485Y-196442914D01*
X225505771Y-195085771D02*
X225220057Y-195085771D01*
X225077200Y-195157200D01*
X225005771Y-195228628D01*
X224862914Y-195442914D01*
X224791485Y-195728628D01*
X224791485Y-196300057D01*
X224862914Y-196442914D01*
X224934342Y-196514342D01*
X225077200Y-196585771D01*
X225362914Y-196585771D01*
X225505771Y-196514342D01*
X225577200Y-196442914D01*
X225648628Y-196300057D01*
X225648628Y-195942914D01*
X225577200Y-195800057D01*
X225505771Y-195728628D01*
X225362914Y-195657200D01*
X225077200Y-195657200D01*
X224934342Y-195728628D01*
X224862914Y-195800057D01*
X224791485Y-195942914D01*
X226362914Y-196585771D02*
X226648628Y-196585771D01*
X226791485Y-196514342D01*
X226862914Y-196442914D01*
X227005771Y-196228628D01*
X227077199Y-195942914D01*
X227077199Y-195371485D01*
X227005771Y-195228628D01*
X226934342Y-195157200D01*
X226791485Y-195085771D01*
X226505771Y-195085771D01*
X226362914Y-195157200D01*
X226291485Y-195228628D01*
X226220057Y-195371485D01*
X226220057Y-195728628D01*
X226291485Y-195871485D01*
X226362914Y-195942914D01*
X226505771Y-196014342D01*
X226791485Y-196014342D01*
X226934342Y-195942914D01*
X227005771Y-195871485D01*
X227077199Y-195728628D01*
X227791485Y-196585771D02*
X228077199Y-196585771D01*
X228220057Y-196514342D01*
X228291485Y-196442914D01*
X228434342Y-196228628D01*
X228505771Y-195942914D01*
X228505771Y-195371485D01*
X228434342Y-195228628D01*
X228362914Y-195157200D01*
X228220057Y-195085771D01*
X227934342Y-195085771D01*
X227791485Y-195157200D01*
X227720057Y-195228628D01*
X227648628Y-195371485D01*
X227648628Y-195728628D01*
X227720057Y-195871485D01*
X227791485Y-195942914D01*
X227934342Y-196014342D01*
X228220057Y-196014342D01*
X228362914Y-195942914D01*
X228434342Y-195871485D01*
X228505771Y-195728628D01*
X229934342Y-196585771D02*
X229077199Y-196585771D01*
X229505771Y-196585771D02*
X229505771Y-195085771D01*
X229362914Y-195300057D01*
X229220057Y-195442914D01*
X229077199Y-195514342D01*
X231291485Y-195085771D02*
X230577199Y-195085771D01*
X230505771Y-195800057D01*
X230577199Y-195728628D01*
X230720057Y-195657200D01*
X231077199Y-195657200D01*
X231220057Y-195728628D01*
X231291485Y-195800057D01*
X231362914Y-195942914D01*
X231362914Y-196300057D01*
X231291485Y-196442914D01*
X231220057Y-196514342D01*
X231077199Y-196585771D01*
X230720057Y-196585771D01*
X230577199Y-196514342D01*
X230505771Y-196442914D01*
X232648628Y-196514342D02*
X232505771Y-196585771D01*
X232220057Y-196585771D01*
X232077199Y-196514342D01*
X232005771Y-196442914D01*
X231934342Y-196300057D01*
X231934342Y-195871485D01*
X232005771Y-195728628D01*
X232077199Y-195657200D01*
X232220057Y-195585771D01*
X232505771Y-195585771D01*
X232648628Y-195657200D01*
X233934342Y-196514342D02*
X233791485Y-196585771D01*
X233505771Y-196585771D01*
X233362914Y-196514342D01*
X233291485Y-196442914D01*
X233220057Y-196300057D01*
X233220057Y-195871485D01*
X233291485Y-195728628D01*
X233362914Y-195657200D01*
X233505771Y-195585771D01*
X233791485Y-195585771D01*
X233934342Y-195657200D01*
X234434342Y-197157200D02*
X234505771Y-197085771D01*
X234648628Y-196871485D01*
X234720057Y-196728628D01*
X234791485Y-196514342D01*
X234862914Y-196157200D01*
X234862914Y-195871485D01*
X234791485Y-195514342D01*
X234720057Y-195300057D01*
X234648628Y-195157200D01*
X234505771Y-194942914D01*
X234434342Y-194871485D01*
D10*
D11*
X177002200Y-191507200D02*
X285002200Y-191507200D01*
D10*
D12*
X264411485Y-193785771D02*
X263911485Y-193071485D01*
X263554342Y-193785771D02*
X263554342Y-192285771D01*
X264125771Y-192285771D01*
X264268628Y-192357200D01*
X264340057Y-192428628D01*
X264411485Y-192571485D01*
X264411485Y-192785771D01*
X264340057Y-192928628D01*
X264268628Y-193000057D01*
X264125771Y-193071485D01*
X263554342Y-193071485D01*
X265625771Y-193714342D02*
X265482914Y-193785771D01*
X265197200Y-193785771D01*
X265054342Y-193714342D01*
X264982914Y-193571485D01*
X264982914Y-193000057D01*
X265054342Y-192857200D01*
X265197200Y-192785771D01*
X265482914Y-192785771D01*
X265625771Y-192857200D01*
X265697200Y-193000057D01*
X265697200Y-193142914D01*
X264982914Y-193285771D01*
X266197200Y-192785771D02*
X266554342Y-193785771D01*
X266911485Y-192785771D01*
X267482914Y-193642914D02*
X267554342Y-193714342D01*
X267482914Y-193785771D01*
X267411485Y-193714342D01*
X267482914Y-193642914D01*
X267482914Y-193785771D01*
X267482914Y-192857200D02*
X267554342Y-192928628D01*
X267482914Y-193000057D01*
X267411485Y-192928628D01*
X267482914Y-192857200D01*
X267482914Y-193000057D01*
X270125771Y-193785771D02*
X269268628Y-193785771D01*
X269697200Y-193785771D02*
X269697200Y-192285771D01*
X269554342Y-192500057D01*
X269411485Y-192642914D01*
X269268628Y-192714342D01*
X270697200Y-193357200D02*
X271411485Y-193357200D01*
X270554342Y-193785771D02*
X271054342Y-192285771D01*
X271554342Y-193785771D01*
D10*
D11*
X178362914Y-193714342D02*
X178577200Y-193785771D01*
X178934342Y-193785771D01*
X179077200Y-193714342D01*
X179148628Y-193642914D01*
X179220057Y-193500057D01*
X179220057Y-193357200D01*
X179148628Y-193214342D01*
X179077200Y-193142914D01*
X178934342Y-193071485D01*
X178648628Y-193000057D01*
X178505771Y-192928628D01*
X178434342Y-192857200D01*
X178362914Y-192714342D01*
X178362914Y-192571485D01*
X178434342Y-192428628D01*
X178505771Y-192357200D01*
X178648628Y-192285771D01*
X179005771Y-192285771D01*
X179220057Y-192357200D01*
X179862914Y-193785771D02*
X179862914Y-192785771D01*
X179862914Y-192285771D02*
X179791485Y-192357200D01*
X179862914Y-192428628D01*
X179934342Y-192357200D01*
X179862914Y-192285771D01*
X179862914Y-192428628D01*
X180434342Y-192785771D02*
X181220057Y-192785771D01*
X180434342Y-193785771D01*
X181220057Y-193785771D01*
X182362914Y-193714342D02*
X182220057Y-193785771D01*
X181934342Y-193785771D01*
X181791485Y-193714342D01*
X181720057Y-193571485D01*
X181720057Y-193000057D01*
X181791485Y-192857200D01*
X181934342Y-192785771D01*
X182220057Y-192785771D01*
X182362914Y-192857200D01*
X182434342Y-193000057D01*
X182434342Y-193142914D01*
X181720057Y-193285771D01*
X183077200Y-193642914D02*
X183148628Y-193714342D01*
X183077200Y-193785771D01*
X183005771Y-193714342D01*
X183077200Y-193642914D01*
X183077200Y-193785771D01*
X183077200Y-192857200D02*
X183148628Y-192928628D01*
X183077200Y-193000057D01*
X183005771Y-192928628D01*
X183077200Y-192857200D01*
X183077200Y-193000057D01*
X184862914Y-193357200D02*
X185577200Y-193357200D01*
X184720057Y-193785771D02*
X185220057Y-192285771D01*
X185720057Y-193785771D01*
X186862914Y-192785771D02*
X186862914Y-193785771D01*
X186505771Y-192214342D02*
X186148628Y-193285771D01*
X187077200Y-193285771D01*
D10*
D11*
X263434342Y-196585771D02*
X263434342Y-195085771D01*
X264791485Y-196585771D02*
X264791485Y-195085771D01*
X264791485Y-196514342D02*
X264648628Y-196585771D01*
X264362914Y-196585771D01*
X264220057Y-196514342D01*
X264148628Y-196442914D01*
X264077200Y-196300057D01*
X264077200Y-195871485D01*
X264148628Y-195728628D01*
X264220057Y-195657200D01*
X264362914Y-195585771D01*
X264648628Y-195585771D01*
X264791485Y-195657200D01*
X265505771Y-196442914D02*
X265577200Y-196514342D01*
X265505771Y-196585771D01*
X265434342Y-196514342D01*
X265505771Y-196442914D01*
X265505771Y-196585771D01*
X265505771Y-195657200D02*
X265577200Y-195728628D01*
X265505771Y-195800057D01*
X265434342Y-195728628D01*
X265505771Y-195657200D01*
X265505771Y-195800057D01*
X268148628Y-196585771D02*
X267291485Y-196585771D01*
X267720057Y-196585771D02*
X267720057Y-195085771D01*
X267577200Y-195300057D01*
X267434342Y-195442914D01*
X267291485Y-195514342D01*
X269862914Y-195014342D02*
X268577200Y-196942914D01*
X271148628Y-196585771D02*
X270291485Y-196585771D01*
X270720057Y-196585771D02*
X270720057Y-195085771D01*
X270577200Y-195300057D01*
X270434342Y-195442914D01*
X270291485Y-195514342D01*
D10*
D11*
X177002200Y-187507200D02*
X285002200Y-187507200D01*
D10*
D13*
X178714580Y-188211961D02*
X179857438Y-188211961D01*
X179036009Y-190211961D02*
X179286009Y-188211961D01*
X180274104Y-190211961D02*
X180440771Y-188878628D01*
X180524104Y-188211961D02*
X180416961Y-188307200D01*
X180500295Y-188402438D01*
X180607438Y-188307200D01*
X180524104Y-188211961D01*
X180500295Y-188402438D01*
X181107438Y-188878628D02*
X181869342Y-188878628D01*
X181476485Y-188211961D02*
X181262200Y-189926247D01*
X181333628Y-190116723D01*
X181512200Y-190211961D01*
X181702676Y-190211961D01*
X182655057Y-190211961D02*
X182476485Y-190116723D01*
X182405057Y-189926247D01*
X182619342Y-188211961D01*
X184190771Y-190116723D02*
X183988390Y-190211961D01*
X183607438Y-190211961D01*
X183428866Y-190116723D01*
X183357438Y-189926247D01*
X183452676Y-189164342D01*
X183571723Y-188973866D01*
X183774104Y-188878628D01*
X184155057Y-188878628D01*
X184333628Y-188973866D01*
X184405057Y-189164342D01*
X184381247Y-189354819D01*
X183405057Y-189545295D01*
X185155057Y-190021485D02*
X185238390Y-190116723D01*
X185131247Y-190211961D01*
X185047914Y-190116723D01*
X185155057Y-190021485D01*
X185131247Y-190211961D01*
X185286009Y-188973866D02*
X185369342Y-189069104D01*
X185262200Y-189164342D01*
X185178866Y-189069104D01*
X185286009Y-188973866D01*
X185262200Y-189164342D01*
X187738390Y-189164342D02*
X188405057Y-189164342D01*
X188559819Y-190211961D02*
X187607438Y-190211961D01*
X187857438Y-188211961D01*
X188809819Y-188211961D01*
X189381247Y-188211961D02*
X189797914Y-190211961D01*
X190714580Y-188211961D01*
X191107438Y-189640533D02*
X192059819Y-189640533D01*
X190845533Y-190211961D02*
X191762200Y-188211961D01*
X192178866Y-190211961D01*
X193797914Y-190211961D02*
X192845533Y-190211961D01*
X193095533Y-188211961D01*
X194559819Y-189450057D02*
X196083628Y-189450057D01*
X196940771Y-190211961D02*
X197190771Y-188211961D01*
X197678866Y-189640533D01*
X198524104Y-188211961D01*
X198274104Y-190211961D01*
X199226485Y-190211961D02*
X199476485Y-188211961D01*
X200238390Y-188211961D01*
X200416961Y-188307200D01*
X200500295Y-188402438D01*
X200571723Y-188592914D01*
X200536009Y-188878628D01*
X200416961Y-189069104D01*
X200309819Y-189164342D01*
X200107438Y-189259580D01*
X199345533Y-189259580D01*
X201655057Y-189069104D02*
X201476485Y-188973866D01*
X201393152Y-188878628D01*
X201321723Y-188688152D01*
X201333628Y-188592914D01*
X201452676Y-188402438D01*
X201559819Y-188307200D01*
X201762200Y-188211961D01*
X202143152Y-188211961D01*
X202321723Y-188307200D01*
X202405057Y-188402438D01*
X202476485Y-188592914D01*
X202464580Y-188688152D01*
X202345533Y-188878628D01*
X202238390Y-188973866D01*
X202036009Y-189069104D01*
X201655057Y-189069104D01*
X201452676Y-189164342D01*
X201345533Y-189259580D01*
X201226485Y-189450057D01*
X201178866Y-189831009D01*
X201250295Y-190021485D01*
X201333628Y-190116723D01*
X201512200Y-190211961D01*
X201893152Y-190211961D01*
X202095533Y-190116723D01*
X202202676Y-190021485D01*
X202321723Y-189831009D01*
X202369342Y-189450057D01*
X202297914Y-189259580D01*
X202214580Y-189164342D01*
X202036009Y-189069104D01*
X203559819Y-189069104D02*
X203381247Y-188973866D01*
X203297914Y-188878628D01*
X203226485Y-188688152D01*
X203238390Y-188592914D01*
X203357438Y-188402438D01*
X203464580Y-188307200D01*
X203666961Y-188211961D01*
X204047914Y-188211961D01*
X204226485Y-188307200D01*
X204309819Y-188402438D01*
X204381247Y-188592914D01*
X204369342Y-188688152D01*
X204250295Y-188878628D01*
X204143152Y-188973866D01*
X203940771Y-189069104D01*
X203559819Y-189069104D01*
X203357438Y-189164342D01*
X203250295Y-189259580D01*
X203131247Y-189450057D01*
X203083628Y-189831009D01*
X203155057Y-190021485D01*
X203238390Y-190116723D01*
X203416961Y-190211961D01*
X203797914Y-190211961D01*
X204000295Y-190116723D01*
X204107438Y-190021485D01*
X204226485Y-189831009D01*
X204274104Y-189450057D01*
X204202676Y-189259580D01*
X204119342Y-189164342D01*
X203940771Y-189069104D01*
X206143152Y-188211961D02*
X205762200Y-188211961D01*
X205559819Y-188307200D01*
X205452676Y-188402438D01*
X205226485Y-188688152D01*
X205083628Y-189069104D01*
X204988390Y-189831009D01*
X205059819Y-190021485D01*
X205143152Y-190116723D01*
X205321723Y-190211961D01*
X205702676Y-190211961D01*
X205905057Y-190116723D01*
X206012200Y-190021485D01*
X206131247Y-189831009D01*
X206190771Y-189354819D01*
X206119342Y-189164342D01*
X206036009Y-189069104D01*
X205857438Y-188973866D01*
X205476485Y-188973866D01*
X205274104Y-189069104D01*
X205166961Y-189164342D01*
X205047914Y-189354819D01*
X207071723Y-188402438D02*
X207178866Y-188307200D01*
X207381247Y-188211961D01*
X207857438Y-188211961D01*
X208036009Y-188307200D01*
X208119342Y-188402438D01*
X208190771Y-188592914D01*
X208166961Y-188783390D01*
X208036009Y-189069104D01*
X206750295Y-190211961D01*
X207988390Y-190211961D01*
X210131247Y-188307200D02*
X209952676Y-188211961D01*
X209666961Y-188211961D01*
X209369342Y-188307200D01*
X209155057Y-188497676D01*
X209036009Y-188688152D01*
X208893152Y-189069104D01*
X208857438Y-189354819D01*
X208905057Y-189735771D01*
X208976485Y-189926247D01*
X209143152Y-190116723D01*
X209416961Y-190211961D01*
X209607438Y-190211961D01*
X209905057Y-190116723D01*
X210012200Y-190021485D01*
X210095533Y-189354819D01*
X209714580Y-189354819D01*
X212155057Y-190402438D02*
X211976485Y-190307200D01*
X211809819Y-190116723D01*
X211559819Y-189831009D01*
X211381247Y-189735771D01*
X211190771Y-189735771D01*
X211226485Y-190211961D02*
X211047914Y-190116723D01*
X210881247Y-189926247D01*
X210833628Y-189545295D01*
X210916961Y-188878628D01*
X211059819Y-188497676D01*
X211274104Y-188307200D01*
X211476485Y-188211961D01*
X211857438Y-188211961D01*
X212036009Y-188307200D01*
X212202676Y-188497676D01*
X212250295Y-188878628D01*
X212166961Y-189545295D01*
X212024104Y-189926247D01*
X211809819Y-190116723D01*
X211607438Y-190211961D01*
X211226485Y-190211961D01*
X213036009Y-189450057D02*
X214559819Y-189450057D01*
X216047914Y-188211961D02*
X216238390Y-188211961D01*
X216416961Y-188307200D01*
X216500295Y-188402438D01*
X216571723Y-188592914D01*
X216619342Y-188973866D01*
X216559819Y-189450057D01*
X216416961Y-189831009D01*
X216297914Y-190021485D01*
X216190771Y-190116723D01*
X215988390Y-190211961D01*
X215797914Y-190211961D01*
X215619342Y-190116723D01*
X215536009Y-190021485D01*
X215464580Y-189831009D01*
X215416961Y-189450057D01*
X215476485Y-188973866D01*
X215619342Y-188592914D01*
X215738390Y-188402438D01*
X215845533Y-188307200D01*
X216047914Y-188211961D01*
X217952676Y-188211961D02*
X218143152Y-188211961D01*
X218321723Y-188307200D01*
X218405057Y-188402438D01*
X218476485Y-188592914D01*
X218524104Y-188973866D01*
X218464580Y-189450057D01*
X218321723Y-189831009D01*
X218202676Y-190021485D01*
X218095533Y-190116723D01*
X217893152Y-190211961D01*
X217702676Y-190211961D01*
X217524104Y-190116723D01*
X217440771Y-190021485D01*
X217369342Y-189831009D01*
X217321723Y-189450057D01*
X217381247Y-188973866D01*
X217524104Y-188592914D01*
X217643152Y-188402438D01*
X217750295Y-188307200D01*
X217952676Y-188211961D01*
X219857438Y-188211961D02*
X220047914Y-188211961D01*
X220226485Y-188307200D01*
X220309819Y-188402438D01*
X220381247Y-188592914D01*
X220428866Y-188973866D01*
X220369342Y-189450057D01*
X220226485Y-189831009D01*
X220107438Y-190021485D01*
X220000295Y-190116723D01*
X219797914Y-190211961D01*
X219607438Y-190211961D01*
X219428866Y-190116723D01*
X219345533Y-190021485D01*
X219274104Y-189831009D01*
X219226485Y-189450057D01*
X219286009Y-188973866D01*
X219428866Y-188592914D01*
X219547914Y-188402438D01*
X219655057Y-188307200D01*
X219857438Y-188211961D01*
X221762200Y-188211961D02*
X221952676Y-188211961D01*
X222131247Y-188307200D01*
X222214580Y-188402438D01*
X222286009Y-188592914D01*
X222333628Y-188973866D01*
X222274104Y-189450057D01*
X222131247Y-189831009D01*
X222012200Y-190021485D01*
X221905057Y-190116723D01*
X221702676Y-190211961D01*
X221512200Y-190211961D01*
X221333628Y-190116723D01*
X221250295Y-190021485D01*
X221178866Y-189831009D01*
X221131247Y-189450057D01*
X221190771Y-188973866D01*
X221333628Y-188592914D01*
X221452676Y-188402438D01*
X221559819Y-188307200D01*
X221762200Y-188211961D01*
D10*
D11*
X178934342Y-185600057D02*
X178434342Y-185600057D01*
X178434342Y-186385771D02*
X178434342Y-184885771D01*
X179148628Y-184885771D01*
X179720057Y-186385771D02*
X179720057Y-185385771D01*
X179720057Y-184885771D02*
X179648628Y-184957200D01*
X179720057Y-185028628D01*
X179791485Y-184957200D01*
X179720057Y-184885771D01*
X179720057Y-185028628D01*
X180648628Y-186385771D02*
X180505771Y-186314342D01*
X180434342Y-186171485D01*
X180434342Y-184885771D01*
X181791485Y-186314342D02*
X181648628Y-186385771D01*
X181362914Y-186385771D01*
X181220057Y-186314342D01*
X181148628Y-186171485D01*
X181148628Y-185600057D01*
X181220057Y-185457200D01*
X181362914Y-185385771D01*
X181648628Y-185385771D01*
X181791485Y-185457200D01*
X181862914Y-185600057D01*
X181862914Y-185742914D01*
X181148628Y-185885771D01*
X182505771Y-186242914D02*
X182577200Y-186314342D01*
X182505771Y-186385771D01*
X182434342Y-186314342D01*
X182505771Y-186242914D01*
X182505771Y-186385771D01*
X182505771Y-185457200D02*
X182577200Y-185528628D01*
X182505771Y-185600057D01*
X182434342Y-185528628D01*
X182505771Y-185457200D01*
X182505771Y-185600057D01*
X184362914Y-185600057D02*
X184862914Y-185600057D01*
X185077200Y-186385771D02*
X184362914Y-186385771D01*
X184362914Y-184885771D01*
X185077200Y-184885771D01*
X185505771Y-184885771D02*
X186005771Y-186385771D01*
X186505771Y-184885771D01*
X186934342Y-185957200D02*
X187648628Y-185957200D01*
X186791485Y-186385771D02*
X187291485Y-184885771D01*
X187791485Y-186385771D01*
X189005771Y-186385771D02*
X188291485Y-186385771D01*
X188291485Y-184885771D01*
X189505771Y-185814342D02*
X190648628Y-185814342D01*
X191362914Y-186385771D02*
X191362914Y-184885771D01*
X191862914Y-185957200D01*
X192362914Y-184885771D01*
X192362914Y-186385771D01*
X193077200Y-186385771D02*
X193077200Y-184885771D01*
X193648628Y-184885771D01*
X193791485Y-184957200D01*
X193862914Y-185028628D01*
X193934342Y-185171485D01*
X193934342Y-185385771D01*
X193862914Y-185528628D01*
X193791485Y-185600057D01*
X193648628Y-185671485D01*
X193077200Y-185671485D01*
X194791485Y-185528628D02*
X194648628Y-185457200D01*
X194577200Y-185385771D01*
X194505771Y-185242914D01*
X194505771Y-185171485D01*
X194577200Y-185028628D01*
X194648628Y-184957200D01*
X194791485Y-184885771D01*
X195077200Y-184885771D01*
X195220057Y-184957200D01*
X195291485Y-185028628D01*
X195362914Y-185171485D01*
X195362914Y-185242914D01*
X195291485Y-185385771D01*
X195220057Y-185457200D01*
X195077200Y-185528628D01*
X194791485Y-185528628D01*
X194648628Y-185600057D01*
X194577200Y-185671485D01*
X194505771Y-185814342D01*
X194505771Y-186100057D01*
X194577200Y-186242914D01*
X194648628Y-186314342D01*
X194791485Y-186385771D01*
X195077200Y-186385771D01*
X195220057Y-186314342D01*
X195291485Y-186242914D01*
X195362914Y-186100057D01*
X195362914Y-185814342D01*
X195291485Y-185671485D01*
X195220057Y-185600057D01*
X195077200Y-185528628D01*
X196220057Y-185528628D02*
X196077200Y-185457200D01*
X196005771Y-185385771D01*
X195934342Y-185242914D01*
X195934342Y-185171485D01*
X196005771Y-185028628D01*
X196077200Y-184957200D01*
X196220057Y-184885771D01*
X196505771Y-184885771D01*
X196648628Y-184957200D01*
X196720057Y-185028628D01*
X196791485Y-185171485D01*
X196791485Y-185242914D01*
X196720057Y-185385771D01*
X196648628Y-185457200D01*
X196505771Y-185528628D01*
X196220057Y-185528628D01*
X196077200Y-185600057D01*
X196005771Y-185671485D01*
X195934342Y-185814342D01*
X195934342Y-186100057D01*
X196005771Y-186242914D01*
X196077200Y-186314342D01*
X196220057Y-186385771D01*
X196505771Y-186385771D01*
X196648628Y-186314342D01*
X196720057Y-186242914D01*
X196791485Y-186100057D01*
X196791485Y-185814342D01*
X196720057Y-185671485D01*
X196648628Y-185600057D01*
X196505771Y-185528628D01*
X198077200Y-184885771D02*
X197791485Y-184885771D01*
X197648628Y-184957200D01*
X197577200Y-185028628D01*
X197434342Y-185242914D01*
X197362914Y-185528628D01*
X197362914Y-186100057D01*
X197434342Y-186242914D01*
X197505771Y-186314342D01*
X197648628Y-186385771D01*
X197934342Y-186385771D01*
X198077200Y-186314342D01*
X198148628Y-186242914D01*
X198220057Y-186100057D01*
X198220057Y-185742914D01*
X198148628Y-185600057D01*
X198077200Y-185528628D01*
X197934342Y-185457200D01*
X197648628Y-185457200D01*
X197505771Y-185528628D01*
X197434342Y-185600057D01*
X197362914Y-185742914D01*
X198791485Y-185028628D02*
X198862914Y-184957200D01*
X199005771Y-184885771D01*
X199362914Y-184885771D01*
X199505771Y-184957200D01*
X199577200Y-185028628D01*
X199648628Y-185171485D01*
X199648628Y-185314342D01*
X199577200Y-185528628D01*
X198720057Y-186385771D01*
X199648628Y-186385771D01*
X200291485Y-186242914D02*
X200362914Y-186314342D01*
X200291485Y-186385771D01*
X200220057Y-186314342D01*
X200291485Y-186242914D01*
X200291485Y-186385771D01*
X201005771Y-186385771D02*
X201005771Y-184885771D01*
X201148628Y-185814342D02*
X201577200Y-186385771D01*
X201577200Y-185385771D02*
X201005771Y-185957200D01*
X202220057Y-186385771D02*
X202220057Y-185385771D01*
X202220057Y-184885771D02*
X202148628Y-184957200D01*
X202220057Y-185028628D01*
X202291485Y-184957200D01*
X202220057Y-184885771D01*
X202220057Y-185028628D01*
X203577200Y-186314342D02*
X203434342Y-186385771D01*
X203148628Y-186385771D01*
X203005771Y-186314342D01*
X202934342Y-186242914D01*
X202862914Y-186100057D01*
X202862914Y-185671485D01*
X202934342Y-185528628D01*
X203005771Y-185457200D01*
X203148628Y-185385771D01*
X203434342Y-185385771D01*
X203577200Y-185457200D01*
X204862914Y-186385771D02*
X204862914Y-185600057D01*
X204791485Y-185457200D01*
X204648628Y-185385771D01*
X204362914Y-185385771D01*
X204220057Y-185457200D01*
X204862914Y-186314342D02*
X204720057Y-186385771D01*
X204362914Y-186385771D01*
X204220057Y-186314342D01*
X204148628Y-186171485D01*
X204148628Y-186028628D01*
X204220057Y-185885771D01*
X204362914Y-185814342D01*
X204720057Y-185814342D01*
X204862914Y-185742914D01*
X206220057Y-186385771D02*
X206220057Y-184885771D01*
X206220057Y-186314342D02*
X206077200Y-186385771D01*
X205791485Y-186385771D01*
X205648628Y-186314342D01*
X205577200Y-186242914D01*
X205505771Y-186100057D01*
X205505771Y-185671485D01*
X205577200Y-185528628D01*
X205648628Y-185457200D01*
X205791485Y-185385771D01*
X206077200Y-185385771D01*
X206220057Y-185457200D01*
X206577200Y-186528628D02*
X207720057Y-186528628D01*
X208077200Y-185385771D02*
X208077200Y-186885771D01*
X208077200Y-185457200D02*
X208220057Y-185385771D01*
X208505771Y-185385771D01*
X208648628Y-185457200D01*
X208720057Y-185528628D01*
X208791485Y-185671485D01*
X208791485Y-186100057D01*
X208720057Y-186242914D01*
X208648628Y-186314342D01*
X208505771Y-186385771D01*
X208220057Y-186385771D01*
X208077200Y-186314342D01*
X210077200Y-186314342D02*
X209934342Y-186385771D01*
X209648628Y-186385771D01*
X209505771Y-186314342D01*
X209434342Y-186242914D01*
X209362914Y-186100057D01*
X209362914Y-185671485D01*
X209434342Y-185528628D01*
X209505771Y-185457200D01*
X209648628Y-185385771D01*
X209934342Y-185385771D01*
X210077200Y-185457200D01*
X210720057Y-186385771D02*
X210720057Y-184885771D01*
X210720057Y-185457200D02*
X210862914Y-185385771D01*
X211148628Y-185385771D01*
X211291485Y-185457200D01*
X211362914Y-185528628D01*
X211434342Y-185671485D01*
X211434342Y-186100057D01*
X211362914Y-186242914D01*
X211291485Y-186314342D01*
X211148628Y-186385771D01*
X210862914Y-186385771D01*
X210720057Y-186314342D01*
D10*
D11*
X177002200Y-181507200D02*
X285002200Y-181507200D01*
D10*
D11*
X178362914Y-183614342D02*
X178577200Y-183685771D01*
X178934342Y-183685771D01*
X179077200Y-183614342D01*
X179148628Y-183542914D01*
X179220057Y-183400057D01*
X179220057Y-183257200D01*
X179148628Y-183114342D01*
X179077200Y-183042914D01*
X178934342Y-182971485D01*
X178648628Y-182900057D01*
X178505771Y-182828628D01*
X178434342Y-182757200D01*
X178362914Y-182614342D01*
X178362914Y-182471485D01*
X178434342Y-182328628D01*
X178505771Y-182257200D01*
X178648628Y-182185771D01*
X179005771Y-182185771D01*
X179220057Y-182257200D01*
X179862914Y-183685771D02*
X179862914Y-182185771D01*
X180505771Y-183685771D02*
X180505771Y-182900057D01*
X180434342Y-182757200D01*
X180291485Y-182685771D01*
X180077200Y-182685771D01*
X179934342Y-182757200D01*
X179862914Y-182828628D01*
X181791485Y-183614342D02*
X181648628Y-183685771D01*
X181362914Y-183685771D01*
X181220057Y-183614342D01*
X181148628Y-183471485D01*
X181148628Y-182900057D01*
X181220057Y-182757200D01*
X181362914Y-182685771D01*
X181648628Y-182685771D01*
X181791485Y-182757200D01*
X181862914Y-182900057D01*
X181862914Y-183042914D01*
X181148628Y-183185771D01*
X183077200Y-183614342D02*
X182934342Y-183685771D01*
X182648628Y-183685771D01*
X182505771Y-183614342D01*
X182434342Y-183471485D01*
X182434342Y-182900057D01*
X182505771Y-182757200D01*
X182648628Y-182685771D01*
X182934342Y-182685771D01*
X183077200Y-182757200D01*
X183148628Y-182900057D01*
X183148628Y-183042914D01*
X182434342Y-183185771D01*
X183577200Y-182685771D02*
X184148628Y-182685771D01*
X183791485Y-182185771D02*
X183791485Y-183471485D01*
X183862914Y-183614342D01*
X184005771Y-183685771D01*
X184148628Y-183685771D01*
X184648628Y-183542914D02*
X184720057Y-183614342D01*
X184648628Y-183685771D01*
X184577200Y-183614342D01*
X184648628Y-183542914D01*
X184648628Y-183685771D01*
X184648628Y-182757200D02*
X184720057Y-182828628D01*
X184648628Y-182900057D01*
X184577200Y-182828628D01*
X184648628Y-182757200D01*
X184648628Y-182900057D01*
D10*
D12*
X178554342Y-180685771D02*
X178554342Y-179185771D01*
X179197200Y-180685771D02*
X179197200Y-179900057D01*
X179125771Y-179757200D01*
X178982914Y-179685771D01*
X178768628Y-179685771D01*
X178625771Y-179757200D01*
X178554342Y-179828628D01*
X179697200Y-179685771D02*
X180268628Y-179685771D01*
X179911485Y-179185771D02*
X179911485Y-180471485D01*
X179982914Y-180614342D01*
X180125771Y-180685771D01*
X180268628Y-180685771D01*
X180554342Y-179685771D02*
X181125771Y-179685771D01*
X180768628Y-179185771D02*
X180768628Y-180471485D01*
X180840057Y-180614342D01*
X180982914Y-180685771D01*
X181125771Y-180685771D01*
X181625771Y-179685771D02*
X181625771Y-181185771D01*
X181625771Y-179757200D02*
X181768628Y-179685771D01*
X182054342Y-179685771D01*
X182197200Y-179757200D01*
X182268628Y-179828628D01*
X182340057Y-179971485D01*
X182340057Y-180400057D01*
X182268628Y-180542914D01*
X182197200Y-180614342D01*
X182054342Y-180685771D01*
X181768628Y-180685771D01*
X181625771Y-180614342D01*
X182911485Y-180614342D02*
X183054342Y-180685771D01*
X183340057Y-180685771D01*
X183482914Y-180614342D01*
X183554342Y-180471485D01*
X183554342Y-180400057D01*
X183482914Y-180257200D01*
X183340057Y-180185771D01*
X183125771Y-180185771D01*
X182982914Y-180114342D01*
X182911485Y-179971485D01*
X182911485Y-179900057D01*
X182982914Y-179757200D01*
X183125771Y-179685771D01*
X183340057Y-179685771D01*
X183482914Y-179757200D01*
X184197200Y-180542914D02*
X184268628Y-180614342D01*
X184197200Y-180685771D01*
X184125771Y-180614342D01*
X184197200Y-180542914D01*
X184197200Y-180685771D01*
X184197200Y-179757200D02*
X184268628Y-179828628D01*
X184197200Y-179900057D01*
X184125771Y-179828628D01*
X184197200Y-179757200D01*
X184197200Y-179900057D01*
X185982914Y-179114342D02*
X184697200Y-181042914D01*
X187554342Y-179114342D02*
X186268628Y-181042914D01*
X188697200Y-179685771D02*
X188697200Y-180900057D01*
X188625771Y-181042914D01*
X188554342Y-181114342D01*
X188411485Y-181185771D01*
X188197200Y-181185771D01*
X188054342Y-181114342D01*
X188697200Y-180614342D02*
X188554342Y-180685771D01*
X188268628Y-180685771D01*
X188125771Y-180614342D01*
X188054342Y-180542914D01*
X187982914Y-180400057D01*
X187982914Y-179971485D01*
X188054342Y-179828628D01*
X188125771Y-179757200D01*
X188268628Y-179685771D01*
X188554342Y-179685771D01*
X188697200Y-179757200D01*
X189411485Y-180685771D02*
X189411485Y-179685771D01*
X189411485Y-179185771D02*
X189340057Y-179257200D01*
X189411485Y-179328628D01*
X189482914Y-179257200D01*
X189411485Y-179185771D01*
X189411485Y-179328628D01*
X189911485Y-179685771D02*
X190482914Y-179685771D01*
X190125771Y-179185771D02*
X190125771Y-180471485D01*
X190197200Y-180614342D01*
X190340057Y-180685771D01*
X190482914Y-180685771D01*
X190982914Y-180685771D02*
X190982914Y-179185771D01*
X191625771Y-180685771D02*
X191625771Y-179900057D01*
X191554342Y-179757200D01*
X191411485Y-179685771D01*
X191197200Y-179685771D01*
X191054342Y-179757200D01*
X190982914Y-179828628D01*
X192982914Y-179685771D02*
X192982914Y-180685771D01*
X192340057Y-179685771D02*
X192340057Y-180471485D01*
X192411485Y-180614342D01*
X192554342Y-180685771D01*
X192768628Y-180685771D01*
X192911485Y-180614342D01*
X192982914Y-180542914D01*
X193697200Y-180685771D02*
X193697200Y-179185771D01*
X193697200Y-179757200D02*
X193840057Y-179685771D01*
X194125771Y-179685771D01*
X194268628Y-179757200D01*
X194340057Y-179828628D01*
X194411485Y-179971485D01*
X194411485Y-180400057D01*
X194340057Y-180542914D01*
X194268628Y-180614342D01*
X194125771Y-180685771D01*
X193840057Y-180685771D01*
X193697200Y-180614342D01*
X195054342Y-180542914D02*
X195125771Y-180614342D01*
X195054342Y-180685771D01*
X194982914Y-180614342D01*
X195054342Y-180542914D01*
X195054342Y-180685771D01*
X196411485Y-180614342D02*
X196268628Y-180685771D01*
X195982914Y-180685771D01*
X195840057Y-180614342D01*
X195768628Y-180542914D01*
X195697200Y-180400057D01*
X195697200Y-179971485D01*
X195768628Y-179828628D01*
X195840057Y-179757200D01*
X195982914Y-179685771D01*
X196268628Y-179685771D01*
X196411485Y-179757200D01*
X197268628Y-180685771D02*
X197125771Y-180614342D01*
X197054342Y-180542914D01*
X196982914Y-180400057D01*
X196982914Y-179971485D01*
X197054342Y-179828628D01*
X197125771Y-179757200D01*
X197268628Y-179685771D01*
X197482914Y-179685771D01*
X197625771Y-179757200D01*
X197697200Y-179828628D01*
X197768628Y-179971485D01*
X197768628Y-180400057D01*
X197697200Y-180542914D01*
X197625771Y-180614342D01*
X197482914Y-180685771D01*
X197268628Y-180685771D01*
X198411485Y-180685771D02*
X198411485Y-179685771D01*
X198411485Y-179828628D02*
X198482914Y-179757200D01*
X198625771Y-179685771D01*
X198840057Y-179685771D01*
X198982914Y-179757200D01*
X199054342Y-179900057D01*
X199054342Y-180685771D01*
X199054342Y-179900057D02*
X199125771Y-179757200D01*
X199268628Y-179685771D01*
X199482914Y-179685771D01*
X199625771Y-179757200D01*
X199697200Y-179900057D01*
X199697200Y-180685771D01*
X201482914Y-179114342D02*
X200197200Y-181042914D01*
X201982914Y-180685771D02*
X201982914Y-179185771D01*
X202482914Y-180257200D01*
X202982914Y-179185771D01*
X202982914Y-180685771D01*
X203697200Y-180685771D02*
X203697200Y-179685771D01*
X203697200Y-179185771D02*
X203625771Y-179257200D01*
X203697200Y-179328628D01*
X203768628Y-179257200D01*
X203697200Y-179185771D01*
X203697200Y-179328628D01*
X204340057Y-180614342D02*
X204482914Y-180685771D01*
X204768628Y-180685771D01*
X204911485Y-180614342D01*
X204982914Y-180471485D01*
X204982914Y-180400057D01*
X204911485Y-180257200D01*
X204768628Y-180185771D01*
X204554342Y-180185771D01*
X204411485Y-180114342D01*
X204340057Y-179971485D01*
X204340057Y-179900057D01*
X204411485Y-179757200D01*
X204554342Y-179685771D01*
X204768628Y-179685771D01*
X204911485Y-179757200D01*
X205411485Y-179685771D02*
X205982914Y-179685771D01*
X205625771Y-179185771D02*
X205625771Y-180471485D01*
X205697200Y-180614342D01*
X205840057Y-180685771D01*
X205982914Y-180685771D01*
X207054342Y-180614342D02*
X206911485Y-180685771D01*
X206625771Y-180685771D01*
X206482914Y-180614342D01*
X206411485Y-180471485D01*
X206411485Y-179900057D01*
X206482914Y-179757200D01*
X206625771Y-179685771D01*
X206911485Y-179685771D01*
X207054342Y-179757200D01*
X207125771Y-179900057D01*
X207125771Y-180042914D01*
X206411485Y-180185771D01*
X207768628Y-180685771D02*
X207768628Y-179685771D01*
X207768628Y-179971485D02*
X207840057Y-179828628D01*
X207911485Y-179757200D01*
X208054342Y-179685771D01*
X208197200Y-179685771D01*
X208697200Y-180685771D02*
X208697200Y-179185771D01*
X208697200Y-179900057D02*
X209554342Y-179900057D01*
X209554342Y-180685771D02*
X209554342Y-179185771D01*
X210125771Y-179185771D02*
X210482914Y-180685771D01*
X210768628Y-179614342D01*
X211054342Y-180685771D01*
X211411485Y-179185771D01*
D10*
D11*
D10*
D11*
D10*
D11*
D10*
D11*
D10*
D11*
X197002200Y-191507200D02*
X197002200Y-194507200D01*
D10*
D11*
X261002200Y-191507200D02*
X261002200Y-198007200D01*
D14*
X100000000Y-100000000D03*
D15*
X97460000Y-100000000D03*
X100000000Y-97460000D03*
X97460000Y-97460000D03*
X100000000Y-94920000D03*
X97460000Y-94920000D03*
X100000000Y-92380000D03*
X97460000Y-92380000D03*
X100000000Y-89840000D03*
X97460000Y-89840000D03*
D16*
X104500000Y-92200000D03*
X102925000Y-92200000D03*
D17*
X106000000Y-93775000D03*
X106000000Y-92200000D03*
D18*
X108350000Y-92700000D03*
D19*
X103550000Y-100225000D03*
X102850000Y-100225000D03*
X102175000Y-100225000D03*
X103850000Y-89075000D03*
X118150000Y-89275000D03*
X114550000Y-96550000D03*
X114550000Y-95875000D03*
D18*
X108350000Y-95125000D03*
D19*
X112800000Y-99300000D03*
X110175000Y-100225000D03*
X119700000Y-99925000D03*
X119700000Y-98550000D03*
X110850000Y-100225000D03*
X118150000Y-89950000D03*
X105625000Y-97900000D03*
X112800000Y-100675000D03*
D18*
X108350000Y-93300000D03*
D19*
X112800000Y-98625000D03*
X112800000Y-100000000D03*
X119700000Y-99225000D03*
X114550000Y-89275000D03*
X103850000Y-90450000D03*
X107675000Y-97900000D03*
X104225000Y-100225000D03*
X118150000Y-95875000D03*
X114550000Y-89950000D03*
X109475000Y-100225000D03*
X108800000Y-100225000D03*
X103850000Y-91107470D03*
X103850000Y-89750000D03*
X118150000Y-96550000D03*
D20*
X108700000Y-90600000D03*
D19*
X107000000Y-97900000D03*
X106300000Y-97900000D03*
X119700000Y-100600000D03*
D20*
X104500000Y-93825000D03*
D19*
X104900000Y-89100000D03*
X105600000Y-89100000D03*
X105600000Y-91100000D03*
D18*
X109800000Y-91000000D03*
D19*
X104900000Y-91100000D03*
X110975000Y-97875000D03*
X108925000Y-97875000D03*
X109600000Y-97875000D03*
X110300000Y-97875000D03*
X115100000Y-98600000D03*
D18*
X109475000Y-95100000D03*
D19*
X115100000Y-99900000D03*
X115100000Y-99250000D03*
X115100000Y-100550000D03*
D20*
X106900000Y-90800000D03*
X101200000Y-93800000D03*
X106456232Y-91465649D03*
X105990000Y-95360000D03*
X106949998Y-94350000D03*
D21*
X97460000Y-94920000D02*
X100000000Y-94920000D01*
D22*
X103850000Y-89075000D02*
X103850000Y-91107470D01*
X104900000Y-89100000D02*
X105600000Y-89100000D01*
X104900000Y-91100000D02*
X105600000Y-91100000D01*
D23*
X97460000Y-97460000D02*
X100000000Y-97460000D01*
X97460000Y-100000000D02*
X100000000Y-100000000D01*
D22*
X115100000Y-98600000D02*
X115100000Y-100550000D01*
X108925000Y-97875000D02*
X110975000Y-97875000D01*
D24*
X106900000Y-90800000D02*
X106859352Y-90840648D01*
X101060000Y-93660000D02*
X101200000Y-93800000D01*
X97460000Y-92380000D02*
X98740000Y-93660000D01*
X106859352Y-90840648D02*
X106859352Y-90943767D01*
X98740000Y-93660000D02*
X101060000Y-93660000D01*
D22*
X106456232Y-91743768D02*
X106000000Y-92200000D01*
D25*
X106456232Y-91465649D02*
X106456232Y-91743768D01*
D26*
X104500000Y-92200000D02*
X106000000Y-92200000D01*
D22*
X106949998Y-94350000D02*
X106949998Y-94350002D01*
D24*
X106537500Y-94600000D02*
X106537500Y-94762500D01*
X106000000Y-93775000D02*
X106075000Y-93775000D01*
D22*
X106075000Y-93775000D02*
X106650000Y-94350000D01*
D25*
X106949998Y-94350002D02*
X106537500Y-94762500D01*
D24*
X106650000Y-94350000D02*
X106949998Y-94350000D01*
D25*
X106537500Y-94762500D02*
X105990000Y-95360000D01*
G04 #@! TA.AperFunction,Conductor*
G36*
X98190930Y-92220002D02*
G01*
X98240710Y-92281556D01*
X98580333Y-93182537D01*
X98680575Y-93448467D01*
X98675370Y-93549260D01*
X98652884Y-93594231D01*
X98604529Y-93646214D01*
X98535745Y-93663803D01*
X98491092Y-93653923D01*
X97748301Y-93339666D01*
X97376904Y-93182536D01*
X97321962Y-93137573D01*
X97300000Y-93066495D01*
X97300000Y-92326000D01*
X97320002Y-92257879D01*
X97373658Y-92211386D01*
X97426000Y-92200000D01*
X98122809Y-92200000D01*
X98190930Y-92220002D01*
G37*
G04 #@! TD.AperFunction*
G04 #@! TA.AperFunction,Conductor*
G36*
X99308082Y-88770002D02*
G01*
X99354575Y-88823658D01*
X99364679Y-88893932D01*
X99312861Y-88978770D01*
X99277970Y-89003520D01*
X99132822Y-89155144D01*
X99129571Y-89160179D01*
X99033005Y-89309734D01*
X99018964Y-89331479D01*
X99016722Y-89337042D01*
X98946847Y-89510425D01*
X98940504Y-89526163D01*
X98926223Y-89599294D01*
X98901471Y-89726044D01*
X98900274Y-89732171D01*
X98900258Y-89738157D01*
X98900258Y-89738160D01*
X98900216Y-89754207D01*
X98899724Y-89942069D01*
X98938875Y-90148285D01*
X99016315Y-90343377D01*
X99019539Y-90348428D01*
X99019540Y-90348430D01*
X99049303Y-90395058D01*
X99129248Y-90520306D01*
X99181171Y-90575117D01*
X99260756Y-90659129D01*
X99273600Y-90672688D01*
X99278465Y-90676178D01*
X99278468Y-90676180D01*
X99379669Y-90748766D01*
X99444163Y-90795024D01*
X99634782Y-90882900D01*
X99640598Y-90884334D01*
X99640601Y-90884335D01*
X99725360Y-90905232D01*
X99838578Y-90933146D01*
X99844568Y-90933455D01*
X99844570Y-90933455D01*
X99913057Y-90936984D01*
X100048199Y-90943948D01*
X100054134Y-90943119D01*
X100054138Y-90943119D01*
X100206960Y-90921777D01*
X100256081Y-90914917D01*
X100454723Y-90847101D01*
X100636958Y-90742945D01*
X100796209Y-90606209D01*
X100805166Y-90594929D01*
X100856527Y-90530243D01*
X100926731Y-90441826D01*
X100973274Y-90352609D01*
X101002970Y-90295683D01*
X101023814Y-90255728D01*
X101026337Y-90247294D01*
X101082236Y-90060376D01*
X101083955Y-90054629D01*
X101104985Y-89845786D01*
X101105000Y-89840000D01*
X101085064Y-89631050D01*
X101078822Y-89609771D01*
X101053441Y-89523255D01*
X101025977Y-89429639D01*
X101023233Y-89424311D01*
X100932615Y-89248365D01*
X100932613Y-89248362D01*
X100929869Y-89243034D01*
X100800210Y-89077970D01*
X100677126Y-88971163D01*
X100638787Y-88911412D01*
X100638837Y-88840415D01*
X100677264Y-88780717D01*
X100759708Y-88750000D01*
X104152400Y-88750000D01*
X104220521Y-88770002D01*
X104267014Y-88823658D01*
X104276168Y-88899610D01*
X104268386Y-88940402D01*
X104265756Y-88954191D01*
X104264035Y-88961894D01*
X104249669Y-89017844D01*
X104249669Y-89026613D01*
X104247437Y-89050222D01*
X104245793Y-89058841D01*
X104247888Y-89092138D01*
X104249420Y-89116486D01*
X104249669Y-89124398D01*
X104249669Y-89182156D01*
X104251641Y-89189837D01*
X104251851Y-89190655D01*
X104255560Y-89214073D01*
X104256111Y-89222828D01*
X104258561Y-89230368D01*
X104273956Y-89277749D01*
X104276165Y-89285350D01*
X104286716Y-89326442D01*
X104290532Y-89341306D01*
X104294350Y-89348251D01*
X104294756Y-89348989D01*
X104304175Y-89370755D01*
X104306886Y-89379098D01*
X104311133Y-89385790D01*
X104337825Y-89427850D01*
X104341855Y-89434663D01*
X104369689Y-89485293D01*
X104375114Y-89491070D01*
X104375697Y-89491691D01*
X104390229Y-89510425D01*
X104394929Y-89517831D01*
X104437049Y-89557384D01*
X104442616Y-89562951D01*
X104482169Y-89605071D01*
X104488860Y-89609317D01*
X104489575Y-89609771D01*
X104508309Y-89624303D01*
X104514707Y-89630311D01*
X104521650Y-89634128D01*
X104565337Y-89658145D01*
X104572150Y-89662175D01*
X104620902Y-89693114D01*
X104629245Y-89695825D01*
X104651008Y-89705243D01*
X104658694Y-89709468D01*
X104666369Y-89711439D01*
X104666370Y-89711439D01*
X104714650Y-89723835D01*
X104722251Y-89726044D01*
X104777172Y-89743889D01*
X104785085Y-89744387D01*
X104785927Y-89744440D01*
X104809345Y-89748149D01*
X104812090Y-89748854D01*
X104812093Y-89748854D01*
X104817844Y-89750331D01*
X104820530Y-89750500D01*
X104878288Y-89750500D01*
X104886201Y-89750749D01*
X104941159Y-89754207D01*
X104948944Y-89752722D01*
X104949103Y-89752712D01*
X104972501Y-89750500D01*
X105578288Y-89750500D01*
X105586201Y-89750749D01*
X105641159Y-89754207D01*
X105648942Y-89752722D01*
X105648946Y-89752722D01*
X105697911Y-89743381D01*
X105705729Y-89742143D01*
X105755148Y-89735900D01*
X105763016Y-89734906D01*
X105771172Y-89731677D01*
X105793936Y-89725063D01*
X105802561Y-89723418D01*
X105809731Y-89720044D01*
X105809734Y-89720043D01*
X105854831Y-89698822D01*
X105862095Y-89695678D01*
X105908420Y-89677337D01*
X105915790Y-89674419D01*
X105922882Y-89669266D01*
X105943302Y-89657190D01*
X105944060Y-89656834D01*
X105944067Y-89656830D01*
X105951234Y-89653457D01*
X105995739Y-89616640D01*
X106001990Y-89611791D01*
X106042307Y-89582499D01*
X106048721Y-89577839D01*
X106054311Y-89571082D01*
X106071084Y-89554309D01*
X106071732Y-89553773D01*
X106077839Y-89548721D01*
X106111793Y-89501987D01*
X106116642Y-89495736D01*
X106148403Y-89457343D01*
X106153457Y-89451234D01*
X106156830Y-89444067D01*
X106156834Y-89444060D01*
X106157190Y-89443302D01*
X106169267Y-89422881D01*
X106174419Y-89415790D01*
X106195678Y-89362094D01*
X106198822Y-89354831D01*
X106220043Y-89309734D01*
X106220044Y-89309731D01*
X106223418Y-89302561D01*
X106225063Y-89293936D01*
X106231678Y-89271168D01*
X106231988Y-89270385D01*
X106234906Y-89263016D01*
X106242148Y-89205692D01*
X106243381Y-89197908D01*
X106252722Y-89148943D01*
X106254207Y-89141159D01*
X106253656Y-89132404D01*
X106254401Y-89108696D01*
X106254506Y-89107865D01*
X106255500Y-89100000D01*
X106248260Y-89042685D01*
X106247517Y-89034823D01*
X106244387Y-88985082D01*
X106244387Y-88985080D01*
X106243889Y-88977172D01*
X106241180Y-88968835D01*
X106236005Y-88945682D01*
X106235900Y-88944847D01*
X106235899Y-88944841D01*
X106234906Y-88936984D01*
X106229125Y-88922382D01*
X106222646Y-88851684D01*
X106255418Y-88788704D01*
X106346277Y-88750000D01*
X120624000Y-88750000D01*
X120692121Y-88770002D01*
X120738614Y-88823658D01*
X120750000Y-88876000D01*
X120750001Y-101124000D01*
X120729999Y-101192121D01*
X120676343Y-101238614D01*
X120624001Y-101250000D01*
X115625950Y-101250000D01*
X115557829Y-101229998D01*
X115511336Y-101176342D01*
X115501232Y-101106068D01*
X115534100Y-101037747D01*
X115540633Y-101030790D01*
X115552167Y-101019959D01*
X115571730Y-101003775D01*
X115571731Y-101003774D01*
X115577839Y-100998721D01*
X115597423Y-100971766D01*
X115607505Y-100959578D01*
X115630311Y-100935293D01*
X115634130Y-100928346D01*
X115634133Y-100928342D01*
X115646362Y-100906098D01*
X115654839Y-100892741D01*
X115669756Y-100872210D01*
X115669760Y-100872202D01*
X115674419Y-100865790D01*
X115686684Y-100834811D01*
X115693419Y-100820499D01*
X115705648Y-100798254D01*
X115709468Y-100791306D01*
X115717752Y-100759041D01*
X115722639Y-100744001D01*
X115734906Y-100713016D01*
X115735954Y-100704720D01*
X115739081Y-100679971D01*
X115742045Y-100664432D01*
X115748854Y-100637909D01*
X115748854Y-100637908D01*
X115750331Y-100632156D01*
X115750500Y-100629470D01*
X115750500Y-100597503D01*
X115751494Y-100581711D01*
X115754506Y-100557868D01*
X115755500Y-100550000D01*
X115751494Y-100518289D01*
X115750500Y-100502497D01*
X115750500Y-99947503D01*
X115751494Y-99931711D01*
X115754506Y-99907868D01*
X115755500Y-99900000D01*
X115751494Y-99868289D01*
X115750500Y-99852497D01*
X115750500Y-99297503D01*
X115751494Y-99281711D01*
X115754506Y-99257868D01*
X115755500Y-99250000D01*
X115751494Y-99218289D01*
X115750500Y-99202497D01*
X115750500Y-98647503D01*
X115751494Y-98631711D01*
X115754506Y-98607868D01*
X115755500Y-98600000D01*
X115734906Y-98436984D01*
X115712373Y-98380071D01*
X115677339Y-98291584D01*
X115677337Y-98291581D01*
X115674419Y-98284210D01*
X115577839Y-98151279D01*
X115571164Y-98145757D01*
X115457343Y-98051596D01*
X115457339Y-98051593D01*
X115451234Y-98046543D01*
X115302561Y-97976582D01*
X115294778Y-97975097D01*
X115294777Y-97975097D01*
X115147001Y-97946907D01*
X115146997Y-97946907D01*
X115141159Y-97945793D01*
X115141158Y-97945793D01*
X115039004Y-97952221D01*
X114985083Y-97955613D01*
X114985081Y-97955613D01*
X114977172Y-97956111D01*
X114969636Y-97958560D01*
X114969634Y-97958560D01*
X114828444Y-98004435D01*
X114828441Y-98004437D01*
X114820902Y-98006886D01*
X114682169Y-98094929D01*
X114676742Y-98100708D01*
X114676741Y-98100709D01*
X114577675Y-98206203D01*
X114569689Y-98214707D01*
X114490532Y-98358694D01*
X114488561Y-98366369D01*
X114488561Y-98366370D01*
X114471753Y-98431834D01*
X114467238Y-98449419D01*
X114449669Y-98517845D01*
X114449500Y-98520531D01*
X114449501Y-100589579D01*
X114449613Y-100590466D01*
X114449669Y-100592250D01*
X114449669Y-100632156D01*
X114457959Y-100664442D01*
X114460918Y-100679954D01*
X114465095Y-100713016D01*
X114468013Y-100720386D01*
X114468014Y-100720388D01*
X114477357Y-100743987D01*
X114482246Y-100759033D01*
X114490532Y-100791306D01*
X114506586Y-100820509D01*
X114513319Y-100834818D01*
X114522663Y-100858419D01*
X114522665Y-100858423D01*
X114525582Y-100865790D01*
X114530242Y-100872203D01*
X114530242Y-100872204D01*
X114545159Y-100892735D01*
X114553634Y-100906088D01*
X114569689Y-100935293D01*
X114575117Y-100941073D01*
X114592497Y-100959581D01*
X114602580Y-100971769D01*
X114622162Y-100998721D01*
X114628271Y-101003774D01*
X114628274Y-101003778D01*
X114647829Y-101019955D01*
X114659364Y-101030786D01*
X114665900Y-101037746D01*
X114697952Y-101101096D01*
X114690666Y-101171718D01*
X114646355Y-101227190D01*
X114574051Y-101250000D01*
X101111391Y-101250000D01*
X101043270Y-101229998D01*
X100996777Y-101176342D01*
X100986673Y-101106068D01*
X101021722Y-101036052D01*
X101030312Y-101030312D01*
X101039031Y-101017263D01*
X101078696Y-100957901D01*
X101078697Y-100957899D01*
X101085589Y-100947584D01*
X101095224Y-100899149D01*
X101103325Y-100858419D01*
X101105000Y-100850000D01*
X101105000Y-100620352D01*
X101115626Y-100569707D01*
X101187668Y-100405590D01*
X101189923Y-100400453D01*
X101242031Y-100183407D01*
X101254880Y-99960564D01*
X101228064Y-99738967D01*
X101162431Y-99525621D01*
X101159861Y-99520641D01*
X101159857Y-99520632D01*
X101119034Y-99441539D01*
X101105000Y-99383750D01*
X101105000Y-99150000D01*
X101085589Y-99052416D01*
X101078697Y-99042101D01*
X101078696Y-99042099D01*
X101037205Y-98980004D01*
X101030312Y-98969688D01*
X101019996Y-98962795D01*
X100957901Y-98921304D01*
X100957899Y-98921303D01*
X100947584Y-98914411D01*
X100935417Y-98911991D01*
X100935415Y-98911990D01*
X100880760Y-98901119D01*
X100850000Y-98895000D01*
X100625943Y-98895000D01*
X100570568Y-98881707D01*
X100569985Y-98881341D01*
X100486224Y-98847669D01*
X100430481Y-98803703D01*
X100407356Y-98736578D01*
X100424193Y-98667607D01*
X100478976Y-98617038D01*
X100639101Y-98540662D01*
X100820370Y-98410407D01*
X100910590Y-98317307D01*
X100971804Y-98254140D01*
X100971806Y-98254137D01*
X100975707Y-98250112D01*
X101100203Y-98064842D01*
X101189923Y-97860453D01*
X101196312Y-97833841D01*
X108270793Y-97833841D01*
X108272791Y-97865590D01*
X108274420Y-97891486D01*
X108274669Y-97899398D01*
X108274669Y-97957156D01*
X108276641Y-97964837D01*
X108276851Y-97965655D01*
X108280560Y-97989073D01*
X108281111Y-97997828D01*
X108283561Y-98005368D01*
X108298956Y-98052749D01*
X108301165Y-98060350D01*
X108315532Y-98116306D01*
X108319350Y-98123251D01*
X108319756Y-98123989D01*
X108329175Y-98145755D01*
X108331886Y-98154098D01*
X108336133Y-98160790D01*
X108362825Y-98202850D01*
X108366855Y-98209663D01*
X108394689Y-98260293D01*
X108400114Y-98266070D01*
X108400697Y-98266691D01*
X108415229Y-98285425D01*
X108419929Y-98292831D01*
X108462049Y-98332384D01*
X108467616Y-98337951D01*
X108507169Y-98380071D01*
X108513860Y-98384317D01*
X108514575Y-98384771D01*
X108533309Y-98399303D01*
X108539707Y-98405311D01*
X108546650Y-98409128D01*
X108590337Y-98433145D01*
X108597150Y-98437175D01*
X108645902Y-98468114D01*
X108654245Y-98470825D01*
X108676008Y-98480243D01*
X108683694Y-98484468D01*
X108691369Y-98486439D01*
X108691370Y-98486439D01*
X108739650Y-98498835D01*
X108747251Y-98501044D01*
X108802172Y-98518889D01*
X108810085Y-98519387D01*
X108810927Y-98519440D01*
X108834345Y-98523149D01*
X108837090Y-98523854D01*
X108837093Y-98523854D01*
X108842844Y-98525331D01*
X108845530Y-98525500D01*
X108903288Y-98525500D01*
X108911201Y-98525749D01*
X108966159Y-98529207D01*
X108973944Y-98527722D01*
X108974103Y-98527712D01*
X108997501Y-98525500D01*
X109578288Y-98525500D01*
X109586201Y-98525749D01*
X109641159Y-98529207D01*
X109648944Y-98527722D01*
X109649103Y-98527712D01*
X109672501Y-98525500D01*
X110278288Y-98525500D01*
X110286201Y-98525749D01*
X110341159Y-98529207D01*
X110348944Y-98527722D01*
X110349103Y-98527712D01*
X110372501Y-98525500D01*
X110953288Y-98525500D01*
X110961201Y-98525749D01*
X111016159Y-98529207D01*
X111023942Y-98527722D01*
X111023946Y-98527722D01*
X111072911Y-98518381D01*
X111080729Y-98517143D01*
X111130148Y-98510900D01*
X111138016Y-98509906D01*
X111146172Y-98506677D01*
X111168936Y-98500063D01*
X111177561Y-98498418D01*
X111184731Y-98495044D01*
X111184734Y-98495043D01*
X111229831Y-98473822D01*
X111237095Y-98470678D01*
X111283420Y-98452337D01*
X111290790Y-98449419D01*
X111297882Y-98444266D01*
X111318302Y-98432190D01*
X111319060Y-98431834D01*
X111319067Y-98431830D01*
X111326234Y-98428457D01*
X111370739Y-98391640D01*
X111376990Y-98386791D01*
X111417307Y-98357499D01*
X111423721Y-98352839D01*
X111429311Y-98346082D01*
X111446084Y-98329309D01*
X111446732Y-98328773D01*
X111452839Y-98323721D01*
X111486793Y-98276987D01*
X111491642Y-98270736D01*
X111506025Y-98253350D01*
X111528457Y-98226234D01*
X111531830Y-98219067D01*
X111531834Y-98219060D01*
X111532190Y-98218302D01*
X111544267Y-98197881D01*
X111549419Y-98190790D01*
X111570678Y-98137094D01*
X111573822Y-98129831D01*
X111595043Y-98084734D01*
X111595044Y-98084731D01*
X111598418Y-98077561D01*
X111600063Y-98068936D01*
X111606678Y-98046168D01*
X111606988Y-98045385D01*
X111609906Y-98038016D01*
X111617148Y-97980692D01*
X111618381Y-97972908D01*
X111621119Y-97958560D01*
X111629207Y-97916159D01*
X111628656Y-97907404D01*
X111629401Y-97883696D01*
X111629506Y-97882865D01*
X111630500Y-97875000D01*
X111623260Y-97817685D01*
X111622517Y-97809823D01*
X111619387Y-97760082D01*
X111619387Y-97760080D01*
X111618889Y-97752172D01*
X111616180Y-97743835D01*
X111611005Y-97720682D01*
X111610900Y-97719847D01*
X111610899Y-97719841D01*
X111609906Y-97711984D01*
X111606990Y-97704619D01*
X111606989Y-97704615D01*
X111588642Y-97658277D01*
X111585961Y-97650830D01*
X111570565Y-97603447D01*
X111568114Y-97595902D01*
X111563864Y-97589206D01*
X111563862Y-97589201D01*
X111563414Y-97588495D01*
X111552648Y-97567366D01*
X111552338Y-97566582D01*
X111552337Y-97566579D01*
X111549419Y-97559210D01*
X111544757Y-97552793D01*
X111515463Y-97512473D01*
X111511014Y-97505926D01*
X111484321Y-97463864D01*
X111484316Y-97463857D01*
X111480071Y-97457169D01*
X111474296Y-97451746D01*
X111474293Y-97451742D01*
X111473676Y-97451163D01*
X111458001Y-97433383D01*
X111457502Y-97432696D01*
X111457499Y-97432693D01*
X111452839Y-97426279D01*
X111408329Y-97389458D01*
X111402394Y-97384225D01*
X111393323Y-97375707D01*
X111360293Y-97344689D01*
X111353341Y-97340867D01*
X111352605Y-97340462D01*
X111332991Y-97327133D01*
X111326234Y-97321543D01*
X111319066Y-97318170D01*
X111319063Y-97318168D01*
X111273972Y-97296950D01*
X111266921Y-97293357D01*
X111223258Y-97269353D01*
X111223252Y-97269351D01*
X111216306Y-97265532D01*
X111207815Y-97263352D01*
X111185498Y-97255317D01*
X111184740Y-97254960D01*
X111184738Y-97254959D01*
X111177561Y-97251582D01*
X111169771Y-97250096D01*
X111169768Y-97250095D01*
X111120810Y-97240756D01*
X111113106Y-97239035D01*
X111057156Y-97224669D01*
X111054470Y-97224500D01*
X111047501Y-97224500D01*
X111024103Y-97222288D01*
X111023944Y-97222278D01*
X111016159Y-97220793D01*
X110965686Y-97223969D01*
X110961200Y-97224251D01*
X110953288Y-97224500D01*
X110372501Y-97224500D01*
X110349103Y-97222288D01*
X110348944Y-97222278D01*
X110341159Y-97220793D01*
X110290686Y-97223969D01*
X110286200Y-97224251D01*
X110278288Y-97224500D01*
X109672501Y-97224500D01*
X109649103Y-97222288D01*
X109648944Y-97222278D01*
X109641159Y-97220793D01*
X109590686Y-97223969D01*
X109586200Y-97224251D01*
X109578288Y-97224500D01*
X108997501Y-97224500D01*
X108974103Y-97222288D01*
X108973944Y-97222278D01*
X108966159Y-97220793D01*
X108915686Y-97223969D01*
X108911200Y-97224251D01*
X108903288Y-97224500D01*
X108885421Y-97224500D01*
X108870044Y-97226442D01*
X108867687Y-97226740D01*
X108859810Y-97227484D01*
X108810082Y-97230613D01*
X108810080Y-97230613D01*
X108802172Y-97231111D01*
X108793835Y-97233820D01*
X108770682Y-97238995D01*
X108769847Y-97239100D01*
X108769841Y-97239101D01*
X108761984Y-97240094D01*
X108754619Y-97243010D01*
X108754615Y-97243011D01*
X108708277Y-97261358D01*
X108700831Y-97264039D01*
X108645902Y-97281886D01*
X108639206Y-97286136D01*
X108639201Y-97286138D01*
X108638495Y-97286586D01*
X108617366Y-97297352D01*
X108616582Y-97297662D01*
X108616579Y-97297663D01*
X108609210Y-97300581D01*
X108602795Y-97305242D01*
X108602793Y-97305243D01*
X108562473Y-97334537D01*
X108555926Y-97338986D01*
X108513864Y-97365679D01*
X108513857Y-97365684D01*
X108507169Y-97369929D01*
X108501746Y-97375704D01*
X108501742Y-97375707D01*
X108501163Y-97376324D01*
X108483383Y-97391999D01*
X108482696Y-97392498D01*
X108482693Y-97392501D01*
X108476279Y-97397161D01*
X108471226Y-97403269D01*
X108439461Y-97441667D01*
X108434227Y-97447604D01*
X108394689Y-97489707D01*
X108390868Y-97496658D01*
X108390867Y-97496659D01*
X108390462Y-97497395D01*
X108377133Y-97517009D01*
X108371543Y-97523766D01*
X108368170Y-97530934D01*
X108368168Y-97530937D01*
X108346950Y-97576028D01*
X108343357Y-97583079D01*
X108319353Y-97626742D01*
X108319351Y-97626748D01*
X108315532Y-97633694D01*
X108313560Y-97641376D01*
X108313352Y-97642185D01*
X108305317Y-97664502D01*
X108301582Y-97672439D01*
X108300096Y-97680229D01*
X108300095Y-97680232D01*
X108290756Y-97729190D01*
X108289035Y-97736894D01*
X108274669Y-97792844D01*
X108274669Y-97801613D01*
X108272437Y-97825222D01*
X108270793Y-97833841D01*
X101196312Y-97833841D01*
X101204050Y-97801613D01*
X101240721Y-97648864D01*
X101240721Y-97648863D01*
X101242031Y-97643407D01*
X101248516Y-97530937D01*
X101254557Y-97426171D01*
X101254557Y-97426168D01*
X101254880Y-97420564D01*
X101228064Y-97198967D01*
X101162431Y-96985621D01*
X101060054Y-96787269D01*
X100992057Y-96698654D01*
X100927586Y-96614633D01*
X100927582Y-96614629D01*
X100924170Y-96610182D01*
X100759074Y-96459957D01*
X100569985Y-96341341D01*
X100564781Y-96339249D01*
X100564777Y-96339247D01*
X100368093Y-96260181D01*
X100362879Y-96258085D01*
X100144304Y-96212820D01*
X100139693Y-96212554D01*
X100139692Y-96212554D01*
X100088544Y-96209605D01*
X100088540Y-96209605D01*
X100086721Y-96209500D01*
X97403975Y-96209500D01*
X97401189Y-96209749D01*
X97401181Y-96209749D01*
X97319572Y-96217033D01*
X97237670Y-96224342D01*
X97232254Y-96225824D01*
X97232252Y-96225824D01*
X97148083Y-96248850D01*
X97022368Y-96283242D01*
X97017310Y-96285654D01*
X97017306Y-96285656D01*
X96921633Y-96331290D01*
X96820899Y-96379338D01*
X96639630Y-96509593D01*
X96635723Y-96513625D01*
X96545811Y-96606407D01*
X96484293Y-96669888D01*
X96481167Y-96674540D01*
X96481163Y-96674545D01*
X96480584Y-96675407D01*
X96480220Y-96675709D01*
X96477630Y-96678908D01*
X96476993Y-96678392D01*
X96425990Y-96720794D01*
X96355524Y-96729460D01*
X96291559Y-96698654D01*
X96250000Y-96605135D01*
X96250000Y-92960401D01*
X96270002Y-92892280D01*
X96323658Y-92845787D01*
X96393932Y-92835683D01*
X96458512Y-92865177D01*
X96482207Y-92892608D01*
X96589248Y-93060306D01*
X96670624Y-93146209D01*
X96687877Y-93164421D01*
X96733600Y-93212688D01*
X96738465Y-93216178D01*
X96738468Y-93216180D01*
X96896887Y-93329805D01*
X96904163Y-93335024D01*
X97094782Y-93422900D01*
X97100598Y-93424334D01*
X97100601Y-93424335D01*
X97194668Y-93447527D01*
X97298578Y-93473146D01*
X97304568Y-93473455D01*
X97304570Y-93473455D01*
X97417157Y-93479257D01*
X97459767Y-93489048D01*
X97650891Y-93569908D01*
X98281336Y-93836634D01*
X98393682Y-93884165D01*
X98396419Y-93885039D01*
X98396428Y-93885042D01*
X98407111Y-93888452D01*
X98415300Y-93891066D01*
X98457121Y-93917919D01*
X98458570Y-93916081D01*
X98483322Y-93935594D01*
X98488036Y-93939783D01*
X98488084Y-93939726D01*
X98492042Y-93943080D01*
X98495721Y-93946759D01*
X98499950Y-93949781D01*
X98512165Y-93958510D01*
X98516914Y-93962075D01*
X98556693Y-93993435D01*
X98565237Y-93996436D01*
X98572603Y-94001699D01*
X98621124Y-94016210D01*
X98626766Y-94018043D01*
X98667098Y-94032207D01*
X98667104Y-94032208D01*
X98674581Y-94034834D01*
X98682271Y-94035500D01*
X98685007Y-94035500D01*
X98685730Y-94035531D01*
X98692310Y-94037499D01*
X98740723Y-94035597D01*
X98745669Y-94035500D01*
X100628002Y-94035500D01*
X100696123Y-94055502D01*
X100736456Y-94097361D01*
X100752057Y-94123740D01*
X100764658Y-94145048D01*
X100873485Y-94249409D01*
X100920110Y-94274409D01*
X100994656Y-94314380D01*
X101006368Y-94320660D01*
X101027153Y-94325306D01*
X101145131Y-94351678D01*
X101145135Y-94351678D01*
X101153517Y-94353552D01*
X101247950Y-94348603D01*
X101295507Y-94346111D01*
X101295508Y-94346111D01*
X101304090Y-94345661D01*
X101446995Y-94297568D01*
X101571702Y-94212817D01*
X101577245Y-94206258D01*
X101577247Y-94206256D01*
X101647897Y-94122652D01*
X101669024Y-94097652D01*
X101696564Y-94037499D01*
X101728216Y-93968366D01*
X101728216Y-93968364D01*
X101731791Y-93960557D01*
X101755378Y-93811634D01*
X101755500Y-93800000D01*
X101735037Y-93650615D01*
X101689385Y-93545120D01*
X101678567Y-93520120D01*
X101678566Y-93520118D01*
X101675155Y-93512236D01*
X101627711Y-93453647D01*
X101585674Y-93401736D01*
X101585673Y-93401735D01*
X101580266Y-93395058D01*
X101573264Y-93390082D01*
X101573262Y-93390080D01*
X101464363Y-93312690D01*
X101457361Y-93307714D01*
X101315495Y-93256639D01*
X101306935Y-93256010D01*
X101306933Y-93256010D01*
X101228122Y-93250223D01*
X101165120Y-93245596D01*
X101090569Y-93260628D01*
X101025739Y-93273700D01*
X101025736Y-93273701D01*
X101017315Y-93275399D01*
X101012390Y-93277908D01*
X100973414Y-93284500D01*
X100947338Y-93284500D01*
X100879217Y-93264498D01*
X100832724Y-93210842D01*
X100822620Y-93140568D01*
X100848661Y-93080149D01*
X100851698Y-93076325D01*
X100926731Y-92981826D01*
X100932639Y-92970502D01*
X100984256Y-92871557D01*
X101023814Y-92795728D01*
X101083955Y-92594629D01*
X101104985Y-92385786D01*
X101105000Y-92380000D01*
X101102510Y-92353896D01*
X101091725Y-92240857D01*
X103745606Y-92240857D01*
X103746846Y-92248073D01*
X103746846Y-92248075D01*
X103771224Y-92389946D01*
X103775238Y-92413309D01*
X103785764Y-92438046D01*
X103808868Y-92492345D01*
X103817527Y-92522945D01*
X103826703Y-92583975D01*
X103828443Y-92595551D01*
X103889421Y-92722536D01*
X103895813Y-92729451D01*
X103964897Y-92804186D01*
X103985041Y-92825978D01*
X103993188Y-92830710D01*
X103993189Y-92830711D01*
X104083973Y-92883443D01*
X104106851Y-92896732D01*
X104244080Y-92928540D01*
X104281250Y-92930000D01*
X104310892Y-92930000D01*
X104340840Y-92933611D01*
X104401166Y-92948373D01*
X104401170Y-92948374D01*
X104406619Y-92949707D01*
X104412219Y-92950054D01*
X104412223Y-92950055D01*
X104417461Y-92950380D01*
X104417474Y-92950380D01*
X104419402Y-92950500D01*
X105386955Y-92950500D01*
X105455076Y-92970502D01*
X105501569Y-93024158D01*
X105511673Y-93094432D01*
X105472483Y-93169025D01*
X105374021Y-93260041D01*
X105350579Y-93300399D01*
X105313083Y-93364954D01*
X105303268Y-93381851D01*
X105271460Y-93519080D01*
X105270000Y-93556250D01*
X105270000Y-93610151D01*
X105249998Y-93678272D01*
X105196342Y-93724765D01*
X105126068Y-93734869D01*
X105061488Y-93705375D01*
X105028363Y-93660192D01*
X104978567Y-93545120D01*
X104978566Y-93545118D01*
X104975155Y-93537236D01*
X104880266Y-93420058D01*
X104873264Y-93415082D01*
X104873262Y-93415080D01*
X104764363Y-93337690D01*
X104757361Y-93332714D01*
X104615495Y-93281639D01*
X104606935Y-93281010D01*
X104606933Y-93281010D01*
X104528122Y-93275223D01*
X104465120Y-93270596D01*
X104317315Y-93300399D01*
X104182969Y-93368852D01*
X104176647Y-93374665D01*
X104176646Y-93374666D01*
X104124192Y-93422900D01*
X104071980Y-93470911D01*
X104067452Y-93478214D01*
X104067451Y-93478215D01*
X104019067Y-93556250D01*
X103992525Y-93599058D01*
X103950459Y-93743851D01*
X103950369Y-93752437D01*
X103950369Y-93752438D01*
X103949919Y-93795424D01*
X103948880Y-93894623D01*
X103987905Y-94040265D01*
X104064658Y-94170048D01*
X104173485Y-94274409D01*
X104306368Y-94345660D01*
X104348874Y-94355161D01*
X104445131Y-94376678D01*
X104445135Y-94376678D01*
X104453517Y-94378552D01*
X104547950Y-94373603D01*
X104595507Y-94371111D01*
X104595508Y-94371111D01*
X104604090Y-94370661D01*
X104746995Y-94322568D01*
X104871702Y-94237817D01*
X104877245Y-94231258D01*
X104877247Y-94231256D01*
X104953062Y-94141540D01*
X104969024Y-94122652D01*
X105031791Y-93985557D01*
X105033469Y-93986325D01*
X105066488Y-93935789D01*
X105131290Y-93906785D01*
X105201486Y-93917419D01*
X105254789Y-93964316D01*
X105272879Y-94012901D01*
X105289543Y-94123740D01*
X105290943Y-94133051D01*
X105351921Y-94260036D01*
X105386615Y-94297568D01*
X105431071Y-94345661D01*
X105447541Y-94363479D01*
X105569351Y-94434232D01*
X105706580Y-94466040D01*
X105743750Y-94467500D01*
X105774799Y-94467500D01*
X105842920Y-94487502D01*
X105889413Y-94541158D01*
X105899517Y-94611432D01*
X105867697Y-94678624D01*
X105623093Y-94945567D01*
X105602583Y-94967950D01*
X105594970Y-94975575D01*
X105568305Y-95000094D01*
X105568302Y-95000098D01*
X105561980Y-95005911D01*
X105557454Y-95013211D01*
X105531265Y-95055449D01*
X105527769Y-95060781D01*
X105499497Y-95101610D01*
X105499495Y-95101614D01*
X105494605Y-95108676D01*
X105491794Y-95116795D01*
X105489289Y-95121733D01*
X105487052Y-95126757D01*
X105482525Y-95134058D01*
X105480128Y-95142309D01*
X105480127Y-95142311D01*
X105466268Y-95190017D01*
X105464341Y-95196075D01*
X105445268Y-95251156D01*
X105444744Y-95259731D01*
X105443658Y-95265165D01*
X105442855Y-95270605D01*
X105440459Y-95278851D01*
X105440369Y-95287438D01*
X105439848Y-95337127D01*
X105439620Y-95343496D01*
X105436064Y-95401654D01*
X105437864Y-95410049D01*
X105438277Y-95415545D01*
X105438970Y-95421031D01*
X105438880Y-95429623D01*
X105441103Y-95437921D01*
X105441104Y-95437926D01*
X105453968Y-95485933D01*
X105455451Y-95492081D01*
X105467672Y-95549084D01*
X105471666Y-95556691D01*
X105473550Y-95561895D01*
X105475681Y-95566964D01*
X105477905Y-95575265D01*
X105503977Y-95619351D01*
X105507575Y-95625435D01*
X105510678Y-95630998D01*
X105537762Y-95682583D01*
X105543652Y-95688833D01*
X105546881Y-95693360D01*
X105550288Y-95697658D01*
X105554658Y-95705048D01*
X105560856Y-95710991D01*
X105560857Y-95710993D01*
X105596732Y-95745396D01*
X105601219Y-95749923D01*
X105635274Y-95786060D01*
X105635276Y-95786062D01*
X105641170Y-95792316D01*
X105648527Y-95796754D01*
X105652840Y-95800234D01*
X105657284Y-95803463D01*
X105663485Y-95809409D01*
X105671059Y-95813470D01*
X105714855Y-95836953D01*
X105720399Y-95840109D01*
X105762922Y-95865761D01*
X105762924Y-95865762D01*
X105770278Y-95870198D01*
X105778554Y-95872493D01*
X105783626Y-95874677D01*
X105788797Y-95876600D01*
X105796368Y-95880660D01*
X105804747Y-95882533D01*
X105804750Y-95882534D01*
X105853248Y-95893374D01*
X105859433Y-95894922D01*
X105907300Y-95908197D01*
X105907306Y-95908198D01*
X105915575Y-95910491D01*
X105924159Y-95910476D01*
X105929642Y-95911217D01*
X105935134Y-95911678D01*
X105943517Y-95913552D01*
X106001734Y-95910501D01*
X106008072Y-95910329D01*
X106066354Y-95910227D01*
X106074626Y-95907902D01*
X106080107Y-95907141D01*
X106085509Y-95906111D01*
X106094090Y-95905661D01*
X106149325Y-95887073D01*
X106155415Y-95885193D01*
X106164874Y-95882534D01*
X106211509Y-95869425D01*
X106218848Y-95864963D01*
X106223926Y-95862755D01*
X106228860Y-95860306D01*
X106236995Y-95857568D01*
X106244094Y-95852743D01*
X106244099Y-95852741D01*
X106285207Y-95824804D01*
X106290568Y-95821355D01*
X106340343Y-95791091D01*
X106349873Y-95782110D01*
X106349969Y-95782005D01*
X106353447Y-95778681D01*
X106354596Y-95777646D01*
X106361702Y-95772817D01*
X106399361Y-95728254D01*
X106402701Y-95724458D01*
X106933418Y-95145274D01*
X106937221Y-95141303D01*
X106978524Y-95100000D01*
X108869500Y-95100000D01*
X108890132Y-95256715D01*
X108950622Y-95402750D01*
X109046847Y-95528153D01*
X109172250Y-95624378D01*
X109318285Y-95684868D01*
X109475000Y-95705500D01*
X109483188Y-95704422D01*
X109623527Y-95685946D01*
X109631715Y-95684868D01*
X109777750Y-95624378D01*
X109903153Y-95528153D01*
X109999378Y-95402750D01*
X110059868Y-95256715D01*
X110080500Y-95100000D01*
X110059868Y-94943285D01*
X109999378Y-94797250D01*
X109903153Y-94671847D01*
X109777750Y-94575622D01*
X109631715Y-94515132D01*
X109475000Y-94494500D01*
X109318285Y-94515132D01*
X109172250Y-94575622D01*
X109046847Y-94671847D01*
X108950622Y-94797250D01*
X108890132Y-94943285D01*
X108869500Y-95100000D01*
X106978524Y-95100000D01*
X107068925Y-95009599D01*
X107119084Y-94978861D01*
X107221554Y-94945567D01*
X107221557Y-94945565D01*
X107229096Y-94943116D01*
X107367829Y-94855073D01*
X107373257Y-94849293D01*
X107474885Y-94741071D01*
X107474888Y-94741066D01*
X107480309Y-94735294D01*
X107559466Y-94591307D01*
X107600329Y-94432157D01*
X107600498Y-94429471D01*
X107600498Y-94310421D01*
X107584904Y-94186984D01*
X107524417Y-94034210D01*
X107427837Y-93901279D01*
X107301231Y-93796543D01*
X107152558Y-93726582D01*
X107144775Y-93725097D01*
X107144774Y-93725097D01*
X106998942Y-93697278D01*
X106998940Y-93697278D01*
X106991156Y-93695793D01*
X106976983Y-93696685D01*
X106879975Y-93660029D01*
X106751163Y-93531217D01*
X106715658Y-93460855D01*
X106710457Y-93426260D01*
X106710457Y-93426259D01*
X106709057Y-93416949D01*
X106653090Y-93300399D01*
X106652156Y-93298454D01*
X106652156Y-93298453D01*
X106648079Y-93289964D01*
X106552459Y-93186521D01*
X106430649Y-93115768D01*
X106421476Y-93113642D01*
X106421474Y-93113641D01*
X106410903Y-93111191D01*
X106349058Y-93076325D01*
X106315880Y-93013558D01*
X106321904Y-92942817D01*
X106365217Y-92886563D01*
X106395076Y-92871628D01*
X106395551Y-92871557D01*
X106490468Y-92825978D01*
X106514046Y-92814656D01*
X106514047Y-92814656D01*
X106522536Y-92810579D01*
X106625979Y-92714959D01*
X106696732Y-92593149D01*
X106728540Y-92455920D01*
X106729242Y-92438046D01*
X106766050Y-92353896D01*
X106944191Y-92175755D01*
X106952307Y-92165292D01*
X107015588Y-92083710D01*
X107015590Y-92083707D01*
X107020447Y-92077445D01*
X107085704Y-91926647D01*
X107111408Y-91764358D01*
X107095944Y-91600776D01*
X107090217Y-91584868D01*
X107047682Y-91466718D01*
X107043427Y-91395849D01*
X107078162Y-91333929D01*
X107126043Y-91304620D01*
X107138855Y-91300308D01*
X107138859Y-91300306D01*
X107146995Y-91297568D01*
X107163982Y-91286024D01*
X107179304Y-91275611D01*
X107271702Y-91212817D01*
X107277245Y-91206258D01*
X107277247Y-91206256D01*
X107363481Y-91104211D01*
X107369024Y-91097652D01*
X107386793Y-91058841D01*
X107413732Y-91000000D01*
X109194500Y-91000000D01*
X109215132Y-91156715D01*
X109275622Y-91302750D01*
X109371847Y-91428153D01*
X109497250Y-91524378D01*
X109643285Y-91584868D01*
X109800000Y-91605500D01*
X109808188Y-91604422D01*
X109948527Y-91585946D01*
X109956715Y-91584868D01*
X110102750Y-91524378D01*
X110228153Y-91428153D01*
X110324378Y-91302750D01*
X110384868Y-91156715D01*
X110405500Y-91000000D01*
X110384868Y-90843285D01*
X110324378Y-90697250D01*
X110242603Y-90590679D01*
X110233176Y-90578393D01*
X110228153Y-90571847D01*
X110102750Y-90475622D01*
X109977489Y-90423737D01*
X109964344Y-90418292D01*
X109956715Y-90415132D01*
X109800000Y-90394500D01*
X109643285Y-90415132D01*
X109635656Y-90418292D01*
X109622511Y-90423737D01*
X109497250Y-90475622D01*
X109371847Y-90571847D01*
X109366824Y-90578393D01*
X109357397Y-90590679D01*
X109275622Y-90697250D01*
X109215132Y-90843285D01*
X109194500Y-91000000D01*
X107413732Y-91000000D01*
X107428216Y-90968366D01*
X107428216Y-90968364D01*
X107431791Y-90960557D01*
X107455378Y-90811634D01*
X107455500Y-90800000D01*
X107435037Y-90650615D01*
X107413440Y-90600707D01*
X107378567Y-90520120D01*
X107378566Y-90520118D01*
X107375155Y-90512236D01*
X107313839Y-90436517D01*
X107285674Y-90401736D01*
X107285673Y-90401735D01*
X107280266Y-90395058D01*
X107273264Y-90390082D01*
X107273262Y-90390080D01*
X107164363Y-90312690D01*
X107157361Y-90307714D01*
X107015495Y-90256639D01*
X107006935Y-90256010D01*
X107006933Y-90256010D01*
X106928122Y-90250223D01*
X106865120Y-90245596D01*
X106717315Y-90275399D01*
X106582969Y-90343852D01*
X106576647Y-90349665D01*
X106576646Y-90349666D01*
X106526717Y-90395578D01*
X106471980Y-90445911D01*
X106467452Y-90453214D01*
X106467451Y-90453215D01*
X106397051Y-90566758D01*
X106392525Y-90574058D01*
X106380787Y-90614461D01*
X106358564Y-90690952D01*
X106320351Y-90750788D01*
X106255855Y-90780465D01*
X106185552Y-90770562D01*
X106131181Y-90723312D01*
X106109319Y-90688861D01*
X106109314Y-90688855D01*
X106105071Y-90682169D01*
X106099296Y-90676746D01*
X106099293Y-90676742D01*
X106098676Y-90676163D01*
X106083001Y-90658383D01*
X106082502Y-90657696D01*
X106082499Y-90657693D01*
X106077839Y-90651279D01*
X106033329Y-90614458D01*
X106027394Y-90609225D01*
X106018323Y-90600707D01*
X105985293Y-90569689D01*
X105978341Y-90565867D01*
X105977605Y-90565462D01*
X105957991Y-90552133D01*
X105951234Y-90546543D01*
X105944066Y-90543170D01*
X105944063Y-90543168D01*
X105898972Y-90521950D01*
X105891921Y-90518357D01*
X105848258Y-90494353D01*
X105848252Y-90494351D01*
X105841306Y-90490532D01*
X105832815Y-90488352D01*
X105810498Y-90480317D01*
X105809740Y-90479960D01*
X105809738Y-90479959D01*
X105802561Y-90476582D01*
X105794771Y-90475096D01*
X105794768Y-90475095D01*
X105745810Y-90465756D01*
X105738106Y-90464035D01*
X105682156Y-90449669D01*
X105679470Y-90449500D01*
X105672501Y-90449500D01*
X105649103Y-90447288D01*
X105648944Y-90447278D01*
X105641159Y-90445793D01*
X105590686Y-90448969D01*
X105586200Y-90449251D01*
X105578288Y-90449500D01*
X104972501Y-90449500D01*
X104949103Y-90447288D01*
X104948944Y-90447278D01*
X104941159Y-90445793D01*
X104890686Y-90448969D01*
X104886200Y-90449251D01*
X104878288Y-90449500D01*
X104860421Y-90449500D01*
X104845044Y-90451442D01*
X104842687Y-90451740D01*
X104834810Y-90452484D01*
X104785082Y-90455613D01*
X104785080Y-90455613D01*
X104777172Y-90456111D01*
X104768835Y-90458820D01*
X104745682Y-90463995D01*
X104744847Y-90464100D01*
X104744841Y-90464101D01*
X104736984Y-90465094D01*
X104729619Y-90468010D01*
X104729615Y-90468011D01*
X104683277Y-90486358D01*
X104675831Y-90489039D01*
X104620902Y-90506886D01*
X104614206Y-90511136D01*
X104614201Y-90511138D01*
X104613495Y-90511586D01*
X104592366Y-90522352D01*
X104591582Y-90522662D01*
X104591579Y-90522663D01*
X104584210Y-90525581D01*
X104577795Y-90530242D01*
X104577793Y-90530243D01*
X104537473Y-90559537D01*
X104530926Y-90563986D01*
X104488864Y-90590679D01*
X104488857Y-90590684D01*
X104482169Y-90594929D01*
X104476746Y-90600704D01*
X104476742Y-90600707D01*
X104476163Y-90601324D01*
X104458383Y-90616999D01*
X104457696Y-90617498D01*
X104457693Y-90617501D01*
X104451279Y-90622161D01*
X104446226Y-90628269D01*
X104414461Y-90666667D01*
X104409227Y-90672604D01*
X104369689Y-90714707D01*
X104365868Y-90721658D01*
X104365867Y-90721659D01*
X104365462Y-90722395D01*
X104352133Y-90742009D01*
X104346543Y-90748766D01*
X104343170Y-90755934D01*
X104343168Y-90755937D01*
X104321950Y-90801028D01*
X104318357Y-90808079D01*
X104294353Y-90851742D01*
X104294351Y-90851748D01*
X104290532Y-90858694D01*
X104288560Y-90866376D01*
X104288352Y-90867185D01*
X104280317Y-90889502D01*
X104276582Y-90897439D01*
X104275096Y-90905229D01*
X104275095Y-90905232D01*
X104265756Y-90954190D01*
X104264035Y-90961894D01*
X104249669Y-91017844D01*
X104249669Y-91026613D01*
X104247437Y-91050222D01*
X104245793Y-91058841D01*
X104246291Y-91066752D01*
X104249420Y-91116486D01*
X104249669Y-91124398D01*
X104249669Y-91182156D01*
X104251641Y-91189837D01*
X104251851Y-91190655D01*
X104255560Y-91214073D01*
X104256111Y-91222828D01*
X104258561Y-91230368D01*
X104273956Y-91277749D01*
X104276165Y-91285351D01*
X104287292Y-91328689D01*
X104284859Y-91399644D01*
X104244450Y-91458019D01*
X104183984Y-91484622D01*
X104151266Y-91489541D01*
X104151258Y-91489543D01*
X104141949Y-91490943D01*
X104014964Y-91551921D01*
X104008049Y-91558313D01*
X103958168Y-91604422D01*
X103911522Y-91647541D01*
X103906790Y-91655688D01*
X103906789Y-91655689D01*
X103883872Y-91695144D01*
X103840768Y-91769351D01*
X103836361Y-91788365D01*
X103816450Y-91874267D01*
X103809956Y-91893933D01*
X103807161Y-91898745D01*
X103805038Y-91905755D01*
X103805037Y-91905757D01*
X103787303Y-91964311D01*
X103756440Y-92066212D01*
X103755987Y-92073522D01*
X103755986Y-92073525D01*
X103751784Y-92141261D01*
X103745606Y-92240857D01*
X101091725Y-92240857D01*
X101091027Y-92233546D01*
X101085064Y-92171050D01*
X101025977Y-91969639D01*
X100988081Y-91896059D01*
X100932615Y-91788365D01*
X100932613Y-91788362D01*
X100929869Y-91783034D01*
X100800210Y-91617970D01*
X100795679Y-91614038D01*
X100795676Y-91614035D01*
X100646207Y-91484333D01*
X100641677Y-91480402D01*
X100636491Y-91477402D01*
X100636487Y-91477399D01*
X100465186Y-91378300D01*
X100459990Y-91375294D01*
X100261706Y-91306438D01*
X100255771Y-91305577D01*
X100255769Y-91305577D01*
X100059919Y-91277180D01*
X100059916Y-91277180D01*
X100053979Y-91276319D01*
X99844304Y-91286024D01*
X99713445Y-91317561D01*
X99646080Y-91333796D01*
X99646078Y-91333797D01*
X99640247Y-91335202D01*
X99634789Y-91337684D01*
X99634785Y-91337685D01*
X99552069Y-91375294D01*
X99449171Y-91422079D01*
X99361409Y-91484333D01*
X99300501Y-91527538D01*
X99277970Y-91543520D01*
X99132822Y-91695144D01*
X99129571Y-91700179D01*
X99079117Y-91778319D01*
X99018964Y-91871479D01*
X99016722Y-91877042D01*
X98943311Y-92059199D01*
X98940504Y-92066163D01*
X98921146Y-92165292D01*
X98904980Y-92248075D01*
X98900274Y-92272171D01*
X98899724Y-92482069D01*
X98938875Y-92688285D01*
X99016315Y-92883377D01*
X99019539Y-92888428D01*
X99019540Y-92888430D01*
X99075766Y-92976517D01*
X99129248Y-93060306D01*
X99133369Y-93064656D01*
X99133375Y-93064664D01*
X99140180Y-93071847D01*
X99172508Y-93135056D01*
X99165530Y-93205709D01*
X99121462Y-93261373D01*
X99048708Y-93284500D01*
X98973099Y-93284500D01*
X98904978Y-93264498D01*
X98855197Y-93202944D01*
X98840676Y-93164421D01*
X98814265Y-93094357D01*
X98571655Y-92450741D01*
X98564191Y-92393675D01*
X98564676Y-92388857D01*
X98564676Y-92388851D01*
X98564985Y-92385786D01*
X98565000Y-92380000D01*
X98562510Y-92353896D01*
X98551027Y-92233546D01*
X98545064Y-92171050D01*
X98485977Y-91969639D01*
X98448081Y-91896059D01*
X98392615Y-91788365D01*
X98392613Y-91788362D01*
X98389869Y-91783034D01*
X98260210Y-91617970D01*
X98255679Y-91614038D01*
X98255676Y-91614035D01*
X98106207Y-91484333D01*
X98101677Y-91480402D01*
X98096491Y-91477402D01*
X98096487Y-91477399D01*
X97925186Y-91378300D01*
X97919990Y-91375294D01*
X97721706Y-91306438D01*
X97715771Y-91305577D01*
X97715769Y-91305577D01*
X97519919Y-91277180D01*
X97519916Y-91277180D01*
X97513979Y-91276319D01*
X97304304Y-91286024D01*
X97173445Y-91317561D01*
X97106080Y-91333796D01*
X97106078Y-91333797D01*
X97100247Y-91335202D01*
X97094789Y-91337684D01*
X97094785Y-91337685D01*
X97012069Y-91375294D01*
X96909171Y-91422079D01*
X96821409Y-91484333D01*
X96760501Y-91527538D01*
X96737970Y-91543520D01*
X96592822Y-91695144D01*
X96589571Y-91700179D01*
X96481852Y-91867006D01*
X96428097Y-91913384D01*
X96357801Y-91923337D01*
X96293284Y-91893705D01*
X96250000Y-91798658D01*
X96250000Y-90420401D01*
X96270002Y-90352280D01*
X96323658Y-90305787D01*
X96393932Y-90295683D01*
X96458512Y-90325177D01*
X96482207Y-90352608D01*
X96589248Y-90520306D01*
X96641171Y-90575117D01*
X96720756Y-90659129D01*
X96733600Y-90672688D01*
X96738465Y-90676178D01*
X96738468Y-90676180D01*
X96839669Y-90748766D01*
X96904163Y-90795024D01*
X97094782Y-90882900D01*
X97100598Y-90884334D01*
X97100601Y-90884335D01*
X97185360Y-90905232D01*
X97298578Y-90933146D01*
X97304568Y-90933455D01*
X97304570Y-90933455D01*
X97373057Y-90936984D01*
X97508199Y-90943948D01*
X97514134Y-90943119D01*
X97514138Y-90943119D01*
X97666960Y-90921777D01*
X97716081Y-90914917D01*
X97914723Y-90847101D01*
X98096958Y-90742945D01*
X98256209Y-90606209D01*
X98265166Y-90594929D01*
X98316527Y-90530243D01*
X98386731Y-90441826D01*
X98433274Y-90352609D01*
X98462970Y-90295683D01*
X98483814Y-90255728D01*
X98486337Y-90247294D01*
X98542236Y-90060376D01*
X98543955Y-90054629D01*
X98564985Y-89845786D01*
X98565000Y-89840000D01*
X98545064Y-89631050D01*
X98538822Y-89609771D01*
X98513441Y-89523255D01*
X98485977Y-89429639D01*
X98483233Y-89424311D01*
X98392615Y-89248365D01*
X98392613Y-89248362D01*
X98389869Y-89243034D01*
X98260210Y-89077970D01*
X98137126Y-88971163D01*
X98098787Y-88911412D01*
X98098837Y-88840415D01*
X98137264Y-88780717D01*
X98219708Y-88750000D01*
X99239961Y-88750000D01*
X99308082Y-88770002D01*
G37*
G04 #@! TD.AperFunction*
M02*
