G04 #@! TF.GenerationSoftware,KiCad,Pcbnew,(5.99.0-6495-g15369915cc)*
G04 #@! TF.CreationDate,2020-10-24T18:43:56+02:00*
G04 #@! TF.ProjectId,EVAL-MP8862,4556414c-2d4d-4503-9838-36322e6b6963,1A*
G04 #@! TF.SameCoordinates,Original*
G04 #@! TF.FileFunction,Copper,L2,Inr*
G04 #@! TF.FilePolarity,Positive*
%FSLAX46Y46*%
G04 Gerber Fmt 4.6, Leading zero omitted, Abs format (unit mm)*
G04 Created by KiCad (PCBNEW (5.99.0-6495-g15369915cc)) date 2020-10-24 18:43:56*
%MOMM*%
%LPD*%
G01*
G04 APERTURE LIST*
%ADD10C,0.100000*%
%ADD11C,0.150000*%
%ADD12C,0.300000*%
%ADD13C,0.400000*%
G04 #@! TA.AperFunction,ComponentPad*
%ADD14R,1.700000X1.700000*%
G04 #@! TD*
G04 #@! TA.AperFunction,ComponentPad*
%ADD15O,1.700000X1.700000*%
G04 #@! TD*
G04 #@! TA.AperFunction,ViaPad*
%ADD16C,0.700000*%
G04 #@! TD*
G04 #@! TA.AperFunction,ViaPad*
%ADD17C,0.800000*%
G04 #@! TD*
G04 #@! TA.AperFunction,ViaPad*
%ADD18C,0.600000*%
G04 #@! TD*
G04 #@! TA.AperFunction,Conductor*
%ADD19C,0.250000*%
G04 #@! TD*
G04 #@! TA.AperFunction,Conductor*
%ADD20C,0.800000*%
G04 #@! TD*
G04 APERTURE END LIST*
D10*
D11*
X177002200Y-166007200D02*
X177002200Y-198007200D01*
X285002200Y-198007200D01*
X285002200Y-166007200D01*
X177002200Y-166007200D01*
D10*
D11*
X10000000Y-10000000D02*
X10000000Y-200007200D01*
X287002200Y-200007200D01*
X287002200Y-10000000D01*
X10000000Y-10000000D01*
D10*
D11*
X12000000Y-12000000D02*
X12000000Y-198007200D01*
X285002200Y-198007200D01*
X285002200Y-12000000D01*
X12000000Y-12000000D01*
D10*
D11*
X60000000Y-12000000D02*
X60000000Y-10000000D01*
D10*
D11*
X110000000Y-12000000D02*
X110000000Y-10000000D01*
D10*
D11*
X160000000Y-12000000D02*
X160000000Y-10000000D01*
D10*
D11*
X210000000Y-12000000D02*
X210000000Y-10000000D01*
D10*
D11*
X260000000Y-12000000D02*
X260000000Y-10000000D01*
D10*
D11*
X36065476Y-11588095D02*
X35322619Y-11588095D01*
X35694047Y-11588095D02*
X35694047Y-10288095D01*
X35570238Y-10473809D01*
X35446428Y-10597619D01*
X35322619Y-10659523D01*
D10*
D11*
X85322619Y-10411904D02*
X85384523Y-10350000D01*
X85508333Y-10288095D01*
X85817857Y-10288095D01*
X85941666Y-10350000D01*
X86003571Y-10411904D01*
X86065476Y-10535714D01*
X86065476Y-10659523D01*
X86003571Y-10845238D01*
X85260714Y-11588095D01*
X86065476Y-11588095D01*
D10*
D11*
X135260714Y-10288095D02*
X136065476Y-10288095D01*
X135632142Y-10783333D01*
X135817857Y-10783333D01*
X135941666Y-10845238D01*
X136003571Y-10907142D01*
X136065476Y-11030952D01*
X136065476Y-11340476D01*
X136003571Y-11464285D01*
X135941666Y-11526190D01*
X135817857Y-11588095D01*
X135446428Y-11588095D01*
X135322619Y-11526190D01*
X135260714Y-11464285D01*
D10*
D11*
X185941666Y-10721428D02*
X185941666Y-11588095D01*
X185632142Y-10226190D02*
X185322619Y-11154761D01*
X186127380Y-11154761D01*
D10*
D11*
X236003571Y-10288095D02*
X235384523Y-10288095D01*
X235322619Y-10907142D01*
X235384523Y-10845238D01*
X235508333Y-10783333D01*
X235817857Y-10783333D01*
X235941666Y-10845238D01*
X236003571Y-10907142D01*
X236065476Y-11030952D01*
X236065476Y-11340476D01*
X236003571Y-11464285D01*
X235941666Y-11526190D01*
X235817857Y-11588095D01*
X235508333Y-11588095D01*
X235384523Y-11526190D01*
X235322619Y-11464285D01*
D10*
D11*
X285941666Y-10288095D02*
X285694047Y-10288095D01*
X285570238Y-10350000D01*
X285508333Y-10411904D01*
X285384523Y-10597619D01*
X285322619Y-10845238D01*
X285322619Y-11340476D01*
X285384523Y-11464285D01*
X285446428Y-11526190D01*
X285570238Y-11588095D01*
X285817857Y-11588095D01*
X285941666Y-11526190D01*
X286003571Y-11464285D01*
X286065476Y-11340476D01*
X286065476Y-11030952D01*
X286003571Y-10907142D01*
X285941666Y-10845238D01*
X285817857Y-10783333D01*
X285570238Y-10783333D01*
X285446428Y-10845238D01*
X285384523Y-10907142D01*
X285322619Y-11030952D01*
D10*
D11*
X60000000Y-198007200D02*
X60000000Y-200007200D01*
D10*
D11*
X110000000Y-198007200D02*
X110000000Y-200007200D01*
D10*
D11*
X160000000Y-198007200D02*
X160000000Y-200007200D01*
D10*
D11*
X210000000Y-198007200D02*
X210000000Y-200007200D01*
D10*
D11*
X260000000Y-198007200D02*
X260000000Y-200007200D01*
D10*
D11*
X36065476Y-199595295D02*
X35322619Y-199595295D01*
X35694047Y-199595295D02*
X35694047Y-198295295D01*
X35570238Y-198481009D01*
X35446428Y-198604819D01*
X35322619Y-198666723D01*
D10*
D11*
X85322619Y-198419104D02*
X85384523Y-198357200D01*
X85508333Y-198295295D01*
X85817857Y-198295295D01*
X85941666Y-198357200D01*
X86003571Y-198419104D01*
X86065476Y-198542914D01*
X86065476Y-198666723D01*
X86003571Y-198852438D01*
X85260714Y-199595295D01*
X86065476Y-199595295D01*
D10*
D11*
X135260714Y-198295295D02*
X136065476Y-198295295D01*
X135632142Y-198790533D01*
X135817857Y-198790533D01*
X135941666Y-198852438D01*
X136003571Y-198914342D01*
X136065476Y-199038152D01*
X136065476Y-199347676D01*
X136003571Y-199471485D01*
X135941666Y-199533390D01*
X135817857Y-199595295D01*
X135446428Y-199595295D01*
X135322619Y-199533390D01*
X135260714Y-199471485D01*
D10*
D11*
X185941666Y-198728628D02*
X185941666Y-199595295D01*
X185632142Y-198233390D02*
X185322619Y-199161961D01*
X186127380Y-199161961D01*
D10*
D11*
X236003571Y-198295295D02*
X235384523Y-198295295D01*
X235322619Y-198914342D01*
X235384523Y-198852438D01*
X235508333Y-198790533D01*
X235817857Y-198790533D01*
X235941666Y-198852438D01*
X236003571Y-198914342D01*
X236065476Y-199038152D01*
X236065476Y-199347676D01*
X236003571Y-199471485D01*
X235941666Y-199533390D01*
X235817857Y-199595295D01*
X235508333Y-199595295D01*
X235384523Y-199533390D01*
X235322619Y-199471485D01*
D10*
D11*
X285941666Y-198295295D02*
X285694047Y-198295295D01*
X285570238Y-198357200D01*
X285508333Y-198419104D01*
X285384523Y-198604819D01*
X285322619Y-198852438D01*
X285322619Y-199347676D01*
X285384523Y-199471485D01*
X285446428Y-199533390D01*
X285570238Y-199595295D01*
X285817857Y-199595295D01*
X285941666Y-199533390D01*
X286003571Y-199471485D01*
X286065476Y-199347676D01*
X286065476Y-199038152D01*
X286003571Y-198914342D01*
X285941666Y-198852438D01*
X285817857Y-198790533D01*
X285570238Y-198790533D01*
X285446428Y-198852438D01*
X285384523Y-198914342D01*
X285322619Y-199038152D01*
D10*
D11*
X10000000Y-60000000D02*
X12000000Y-60000000D01*
D10*
D11*
X10000000Y-110000000D02*
X12000000Y-110000000D01*
D10*
D11*
X10000000Y-160000000D02*
X12000000Y-160000000D01*
D10*
D11*
X10690476Y-35216666D02*
X11309523Y-35216666D01*
X10566666Y-35588095D02*
X11000000Y-34288095D01*
X11433333Y-35588095D01*
D10*
D11*
X11092857Y-84907142D02*
X11278571Y-84969047D01*
X11340476Y-85030952D01*
X11402380Y-85154761D01*
X11402380Y-85340476D01*
X11340476Y-85464285D01*
X11278571Y-85526190D01*
X11154761Y-85588095D01*
X10659523Y-85588095D01*
X10659523Y-84288095D01*
X11092857Y-84288095D01*
X11216666Y-84350000D01*
X11278571Y-84411904D01*
X11340476Y-84535714D01*
X11340476Y-84659523D01*
X11278571Y-84783333D01*
X11216666Y-84845238D01*
X11092857Y-84907142D01*
X10659523Y-84907142D01*
D10*
D11*
X11402380Y-135464285D02*
X11340476Y-135526190D01*
X11154761Y-135588095D01*
X11030952Y-135588095D01*
X10845238Y-135526190D01*
X10721428Y-135402380D01*
X10659523Y-135278571D01*
X10597619Y-135030952D01*
X10597619Y-134845238D01*
X10659523Y-134597619D01*
X10721428Y-134473809D01*
X10845238Y-134350000D01*
X11030952Y-134288095D01*
X11154761Y-134288095D01*
X11340476Y-134350000D01*
X11402380Y-134411904D01*
D10*
D11*
X10659523Y-185588095D02*
X10659523Y-184288095D01*
X10969047Y-184288095D01*
X11154761Y-184350000D01*
X11278571Y-184473809D01*
X11340476Y-184597619D01*
X11402380Y-184845238D01*
X11402380Y-185030952D01*
X11340476Y-185278571D01*
X11278571Y-185402380D01*
X11154761Y-185526190D01*
X10969047Y-185588095D01*
X10659523Y-185588095D01*
D10*
D11*
X287002200Y-60000000D02*
X285002200Y-60000000D01*
D10*
D11*
X287002200Y-110000000D02*
X285002200Y-110000000D01*
D10*
D11*
X287002200Y-160000000D02*
X285002200Y-160000000D01*
D10*
D11*
X285692676Y-35216666D02*
X286311723Y-35216666D01*
X285568866Y-35588095D02*
X286002200Y-34288095D01*
X286435533Y-35588095D01*
D10*
D11*
X286095057Y-84907142D02*
X286280771Y-84969047D01*
X286342676Y-85030952D01*
X286404580Y-85154761D01*
X286404580Y-85340476D01*
X286342676Y-85464285D01*
X286280771Y-85526190D01*
X286156961Y-85588095D01*
X285661723Y-85588095D01*
X285661723Y-84288095D01*
X286095057Y-84288095D01*
X286218866Y-84350000D01*
X286280771Y-84411904D01*
X286342676Y-84535714D01*
X286342676Y-84659523D01*
X286280771Y-84783333D01*
X286218866Y-84845238D01*
X286095057Y-84907142D01*
X285661723Y-84907142D01*
D10*
D11*
X286404580Y-135464285D02*
X286342676Y-135526190D01*
X286156961Y-135588095D01*
X286033152Y-135588095D01*
X285847438Y-135526190D01*
X285723628Y-135402380D01*
X285661723Y-135278571D01*
X285599819Y-135030952D01*
X285599819Y-134845238D01*
X285661723Y-134597619D01*
X285723628Y-134473809D01*
X285847438Y-134350000D01*
X286033152Y-134288095D01*
X286156961Y-134288095D01*
X286342676Y-134350000D01*
X286404580Y-134411904D01*
D10*
D11*
X285661723Y-185588095D02*
X285661723Y-184288095D01*
X285971247Y-184288095D01*
X286156961Y-184350000D01*
X286280771Y-184473809D01*
X286342676Y-184597619D01*
X286404580Y-184845238D01*
X286404580Y-185030952D01*
X286342676Y-185278571D01*
X286280771Y-185402380D01*
X286156961Y-185526190D01*
X285971247Y-185588095D01*
X285661723Y-185588095D01*
D10*
D11*
X200434342Y-193785771D02*
X200434342Y-192285771D01*
X200791485Y-192285771D01*
X201005771Y-192357200D01*
X201148628Y-192500057D01*
X201220057Y-192642914D01*
X201291485Y-192928628D01*
X201291485Y-193142914D01*
X201220057Y-193428628D01*
X201148628Y-193571485D01*
X201005771Y-193714342D01*
X200791485Y-193785771D01*
X200434342Y-193785771D01*
X202577200Y-193785771D02*
X202577200Y-193000057D01*
X202505771Y-192857200D01*
X202362914Y-192785771D01*
X202077200Y-192785771D01*
X201934342Y-192857200D01*
X202577200Y-193714342D02*
X202434342Y-193785771D01*
X202077200Y-193785771D01*
X201934342Y-193714342D01*
X201862914Y-193571485D01*
X201862914Y-193428628D01*
X201934342Y-193285771D01*
X202077200Y-193214342D01*
X202434342Y-193214342D01*
X202577200Y-193142914D01*
X203077200Y-192785771D02*
X203648628Y-192785771D01*
X203291485Y-192285771D02*
X203291485Y-193571485D01*
X203362914Y-193714342D01*
X203505771Y-193785771D01*
X203648628Y-193785771D01*
X204720057Y-193714342D02*
X204577200Y-193785771D01*
X204291485Y-193785771D01*
X204148628Y-193714342D01*
X204077200Y-193571485D01*
X204077200Y-193000057D01*
X204148628Y-192857200D01*
X204291485Y-192785771D01*
X204577200Y-192785771D01*
X204720057Y-192857200D01*
X204791485Y-193000057D01*
X204791485Y-193142914D01*
X204077200Y-193285771D01*
X205434342Y-193642914D02*
X205505771Y-193714342D01*
X205434342Y-193785771D01*
X205362914Y-193714342D01*
X205434342Y-193642914D01*
X205434342Y-193785771D01*
X205434342Y-192857200D02*
X205505771Y-192928628D01*
X205434342Y-193000057D01*
X205362914Y-192928628D01*
X205434342Y-192857200D01*
X205434342Y-193000057D01*
X207220057Y-192428628D02*
X207291485Y-192357200D01*
X207434342Y-192285771D01*
X207791485Y-192285771D01*
X207934342Y-192357200D01*
X208005771Y-192428628D01*
X208077200Y-192571485D01*
X208077200Y-192714342D01*
X208005771Y-192928628D01*
X207148628Y-193785771D01*
X208077200Y-193785771D01*
X209005771Y-192285771D02*
X209148628Y-192285771D01*
X209291485Y-192357200D01*
X209362914Y-192428628D01*
X209434342Y-192571485D01*
X209505771Y-192857200D01*
X209505771Y-193214342D01*
X209434342Y-193500057D01*
X209362914Y-193642914D01*
X209291485Y-193714342D01*
X209148628Y-193785771D01*
X209005771Y-193785771D01*
X208862914Y-193714342D01*
X208791485Y-193642914D01*
X208720057Y-193500057D01*
X208648628Y-193214342D01*
X208648628Y-192857200D01*
X208720057Y-192571485D01*
X208791485Y-192428628D01*
X208862914Y-192357200D01*
X209005771Y-192285771D01*
X210077200Y-192428628D02*
X210148628Y-192357200D01*
X210291485Y-192285771D01*
X210648628Y-192285771D01*
X210791485Y-192357200D01*
X210862914Y-192428628D01*
X210934342Y-192571485D01*
X210934342Y-192714342D01*
X210862914Y-192928628D01*
X210005771Y-193785771D01*
X210934342Y-193785771D01*
X211862914Y-192285771D02*
X212005771Y-192285771D01*
X212148628Y-192357200D01*
X212220057Y-192428628D01*
X212291485Y-192571485D01*
X212362914Y-192857200D01*
X212362914Y-193214342D01*
X212291485Y-193500057D01*
X212220057Y-193642914D01*
X212148628Y-193714342D01*
X212005771Y-193785771D01*
X211862914Y-193785771D01*
X211720057Y-193714342D01*
X211648628Y-193642914D01*
X211577200Y-193500057D01*
X211505771Y-193214342D01*
X211505771Y-192857200D01*
X211577200Y-192571485D01*
X211648628Y-192428628D01*
X211720057Y-192357200D01*
X211862914Y-192285771D01*
X213005771Y-193214342D02*
X214148628Y-193214342D01*
X215648628Y-193785771D02*
X214791485Y-193785771D01*
X215220057Y-193785771D02*
X215220057Y-192285771D01*
X215077200Y-192500057D01*
X214934342Y-192642914D01*
X214791485Y-192714342D01*
X216577200Y-192285771D02*
X216720057Y-192285771D01*
X216862914Y-192357200D01*
X216934342Y-192428628D01*
X217005771Y-192571485D01*
X217077200Y-192857200D01*
X217077200Y-193214342D01*
X217005771Y-193500057D01*
X216934342Y-193642914D01*
X216862914Y-193714342D01*
X216720057Y-193785771D01*
X216577200Y-193785771D01*
X216434342Y-193714342D01*
X216362914Y-193642914D01*
X216291485Y-193500057D01*
X216220057Y-193214342D01*
X216220057Y-192857200D01*
X216291485Y-192571485D01*
X216362914Y-192428628D01*
X216434342Y-192357200D01*
X216577200Y-192285771D01*
X217720057Y-193214342D02*
X218862914Y-193214342D01*
X219505771Y-192428628D02*
X219577200Y-192357200D01*
X219720057Y-192285771D01*
X220077200Y-192285771D01*
X220220057Y-192357200D01*
X220291485Y-192428628D01*
X220362914Y-192571485D01*
X220362914Y-192714342D01*
X220291485Y-192928628D01*
X219434342Y-193785771D01*
X220362914Y-193785771D01*
X221648628Y-192785771D02*
X221648628Y-193785771D01*
X221291485Y-192214342D02*
X220934342Y-193285771D01*
X221862914Y-193285771D01*
D10*
D11*
X177002200Y-194507200D02*
X285002200Y-194507200D01*
D10*
D11*
X178434342Y-196585771D02*
X178434342Y-195085771D01*
X179291485Y-196585771D02*
X178648628Y-195728628D01*
X179291485Y-195085771D02*
X178434342Y-195942914D01*
X179934342Y-196585771D02*
X179934342Y-195585771D01*
X179934342Y-195085771D02*
X179862914Y-195157200D01*
X179934342Y-195228628D01*
X180005771Y-195157200D01*
X179934342Y-195085771D01*
X179934342Y-195228628D01*
X181505771Y-196442914D02*
X181434342Y-196514342D01*
X181220057Y-196585771D01*
X181077200Y-196585771D01*
X180862914Y-196514342D01*
X180720057Y-196371485D01*
X180648628Y-196228628D01*
X180577200Y-195942914D01*
X180577200Y-195728628D01*
X180648628Y-195442914D01*
X180720057Y-195300057D01*
X180862914Y-195157200D01*
X181077200Y-195085771D01*
X181220057Y-195085771D01*
X181434342Y-195157200D01*
X181505771Y-195228628D01*
X182791485Y-196585771D02*
X182791485Y-195800057D01*
X182720057Y-195657200D01*
X182577200Y-195585771D01*
X182291485Y-195585771D01*
X182148628Y-195657200D01*
X182791485Y-196514342D02*
X182648628Y-196585771D01*
X182291485Y-196585771D01*
X182148628Y-196514342D01*
X182077200Y-196371485D01*
X182077200Y-196228628D01*
X182148628Y-196085771D01*
X182291485Y-196014342D01*
X182648628Y-196014342D01*
X182791485Y-195942914D01*
X184148628Y-196585771D02*
X184148628Y-195085771D01*
X184148628Y-196514342D02*
X184005771Y-196585771D01*
X183720057Y-196585771D01*
X183577200Y-196514342D01*
X183505771Y-196442914D01*
X183434342Y-196300057D01*
X183434342Y-195871485D01*
X183505771Y-195728628D01*
X183577200Y-195657200D01*
X183720057Y-195585771D01*
X184005771Y-195585771D01*
X184148628Y-195657200D01*
X186005771Y-195800057D02*
X186505771Y-195800057D01*
X186720057Y-196585771D02*
X186005771Y-196585771D01*
X186005771Y-195085771D01*
X186720057Y-195085771D01*
X187362914Y-196442914D02*
X187434342Y-196514342D01*
X187362914Y-196585771D01*
X187291485Y-196514342D01*
X187362914Y-196442914D01*
X187362914Y-196585771D01*
X188077200Y-196585771D02*
X188077200Y-195085771D01*
X188434342Y-195085771D01*
X188648628Y-195157200D01*
X188791485Y-195300057D01*
X188862914Y-195442914D01*
X188934342Y-195728628D01*
X188934342Y-195942914D01*
X188862914Y-196228628D01*
X188791485Y-196371485D01*
X188648628Y-196514342D01*
X188434342Y-196585771D01*
X188077200Y-196585771D01*
X189577200Y-196442914D02*
X189648628Y-196514342D01*
X189577200Y-196585771D01*
X189505771Y-196514342D01*
X189577200Y-196442914D01*
X189577200Y-196585771D01*
X190220057Y-196157200D02*
X190934342Y-196157200D01*
X190077200Y-196585771D02*
X190577200Y-195085771D01*
X191077200Y-196585771D01*
X191577200Y-196442914D02*
X191648628Y-196514342D01*
X191577200Y-196585771D01*
X191505771Y-196514342D01*
X191577200Y-196442914D01*
X191577200Y-196585771D01*
X194577200Y-196585771D02*
X194577200Y-195085771D01*
X194720057Y-196014342D02*
X195148628Y-196585771D01*
X195148628Y-195585771D02*
X194577200Y-196157200D01*
X195791485Y-196585771D02*
X195791485Y-195585771D01*
X195791485Y-195085771D02*
X195720057Y-195157200D01*
X195791485Y-195228628D01*
X195862914Y-195157200D01*
X195791485Y-195085771D01*
X195791485Y-195228628D01*
X197148628Y-196514342D02*
X197005771Y-196585771D01*
X196720057Y-196585771D01*
X196577200Y-196514342D01*
X196505771Y-196442914D01*
X196434342Y-196300057D01*
X196434342Y-195871485D01*
X196505771Y-195728628D01*
X196577200Y-195657200D01*
X196720057Y-195585771D01*
X197005771Y-195585771D01*
X197148628Y-195657200D01*
X198434342Y-196585771D02*
X198434342Y-195800057D01*
X198362914Y-195657200D01*
X198220057Y-195585771D01*
X197934342Y-195585771D01*
X197791485Y-195657200D01*
X198434342Y-196514342D02*
X198291485Y-196585771D01*
X197934342Y-196585771D01*
X197791485Y-196514342D01*
X197720057Y-196371485D01*
X197720057Y-196228628D01*
X197791485Y-196085771D01*
X197934342Y-196014342D01*
X198291485Y-196014342D01*
X198434342Y-195942914D01*
X199791485Y-196585771D02*
X199791485Y-195085771D01*
X199791485Y-196514342D02*
X199648628Y-196585771D01*
X199362914Y-196585771D01*
X199220057Y-196514342D01*
X199148628Y-196442914D01*
X199077200Y-196300057D01*
X199077200Y-195871485D01*
X199148628Y-195728628D01*
X199220057Y-195657200D01*
X199362914Y-195585771D01*
X199648628Y-195585771D01*
X199791485Y-195657200D01*
X202077200Y-197157200D02*
X202005771Y-197085771D01*
X201862914Y-196871485D01*
X201791485Y-196728628D01*
X201720057Y-196514342D01*
X201648628Y-196157200D01*
X201648628Y-195871485D01*
X201720057Y-195514342D01*
X201791485Y-195300057D01*
X201862914Y-195157200D01*
X202005771Y-194942914D01*
X202077200Y-194871485D01*
X203362914Y-195085771D02*
X202648628Y-195085771D01*
X202577200Y-195800057D01*
X202648628Y-195728628D01*
X202791485Y-195657200D01*
X203148628Y-195657200D01*
X203291485Y-195728628D01*
X203362914Y-195800057D01*
X203434342Y-195942914D01*
X203434342Y-196300057D01*
X203362914Y-196442914D01*
X203291485Y-196514342D01*
X203148628Y-196585771D01*
X202791485Y-196585771D01*
X202648628Y-196514342D01*
X202577200Y-196442914D01*
X204077200Y-196442914D02*
X204148628Y-196514342D01*
X204077200Y-196585771D01*
X204005771Y-196514342D01*
X204077200Y-196442914D01*
X204077200Y-196585771D01*
X204862914Y-196585771D02*
X205148628Y-196585771D01*
X205291485Y-196514342D01*
X205362914Y-196442914D01*
X205505771Y-196228628D01*
X205577200Y-195942914D01*
X205577200Y-195371485D01*
X205505771Y-195228628D01*
X205434342Y-195157200D01*
X205291485Y-195085771D01*
X205005771Y-195085771D01*
X204862914Y-195157200D01*
X204791485Y-195228628D01*
X204720057Y-195371485D01*
X204720057Y-195728628D01*
X204791485Y-195871485D01*
X204862914Y-195942914D01*
X205005771Y-196014342D01*
X205291485Y-196014342D01*
X205434342Y-195942914D01*
X205505771Y-195871485D01*
X205577200Y-195728628D01*
X206291485Y-196585771D02*
X206577200Y-196585771D01*
X206720057Y-196514342D01*
X206791485Y-196442914D01*
X206934342Y-196228628D01*
X207005771Y-195942914D01*
X207005771Y-195371485D01*
X206934342Y-195228628D01*
X206862914Y-195157200D01*
X206720057Y-195085771D01*
X206434342Y-195085771D01*
X206291485Y-195157200D01*
X206220057Y-195228628D01*
X206148628Y-195371485D01*
X206148628Y-195728628D01*
X206220057Y-195871485D01*
X206291485Y-195942914D01*
X206434342Y-196014342D01*
X206720057Y-196014342D01*
X206862914Y-195942914D01*
X206934342Y-195871485D01*
X207005771Y-195728628D01*
X207648628Y-196442914D02*
X207720057Y-196514342D01*
X207648628Y-196585771D01*
X207577200Y-196514342D01*
X207648628Y-196442914D01*
X207648628Y-196585771D01*
X208648628Y-195085771D02*
X208791485Y-195085771D01*
X208934342Y-195157200D01*
X209005771Y-195228628D01*
X209077200Y-195371485D01*
X209148628Y-195657200D01*
X209148628Y-196014342D01*
X209077200Y-196300057D01*
X209005771Y-196442914D01*
X208934342Y-196514342D01*
X208791485Y-196585771D01*
X208648628Y-196585771D01*
X208505771Y-196514342D01*
X208434342Y-196442914D01*
X208362914Y-196300057D01*
X208291485Y-196014342D01*
X208291485Y-195657200D01*
X208362914Y-195371485D01*
X208434342Y-195228628D01*
X208505771Y-195157200D01*
X208648628Y-195085771D01*
X209791485Y-196014342D02*
X210934342Y-196014342D01*
X212291485Y-195085771D02*
X212005771Y-195085771D01*
X211862914Y-195157200D01*
X211791485Y-195228628D01*
X211648628Y-195442914D01*
X211577200Y-195728628D01*
X211577200Y-196300057D01*
X211648628Y-196442914D01*
X211720057Y-196514342D01*
X211862914Y-196585771D01*
X212148628Y-196585771D01*
X212291485Y-196514342D01*
X212362914Y-196442914D01*
X212434342Y-196300057D01*
X212434342Y-195942914D01*
X212362914Y-195800057D01*
X212291485Y-195728628D01*
X212148628Y-195657200D01*
X211862914Y-195657200D01*
X211720057Y-195728628D01*
X211648628Y-195800057D01*
X211577200Y-195942914D01*
X213720057Y-195585771D02*
X213720057Y-196585771D01*
X213362914Y-195014342D02*
X213005771Y-196085771D01*
X213934342Y-196085771D01*
X214577200Y-196585771D02*
X214862914Y-196585771D01*
X215005771Y-196514342D01*
X215077200Y-196442914D01*
X215220057Y-196228628D01*
X215291485Y-195942914D01*
X215291485Y-195371485D01*
X215220057Y-195228628D01*
X215148628Y-195157200D01*
X215005771Y-195085771D01*
X214720057Y-195085771D01*
X214577200Y-195157200D01*
X214505771Y-195228628D01*
X214434342Y-195371485D01*
X214434342Y-195728628D01*
X214505771Y-195871485D01*
X214577200Y-195942914D01*
X214720057Y-196014342D01*
X215005771Y-196014342D01*
X215148628Y-195942914D01*
X215220057Y-195871485D01*
X215291485Y-195728628D01*
X216648628Y-195085771D02*
X215934342Y-195085771D01*
X215862914Y-195800057D01*
X215934342Y-195728628D01*
X216077200Y-195657200D01*
X216434342Y-195657200D01*
X216577200Y-195728628D01*
X216648628Y-195800057D01*
X216720057Y-195942914D01*
X216720057Y-196300057D01*
X216648628Y-196442914D01*
X216577200Y-196514342D01*
X216434342Y-196585771D01*
X216077200Y-196585771D01*
X215934342Y-196514342D01*
X215862914Y-196442914D01*
X217362914Y-196014342D02*
X218505771Y-196014342D01*
X219862914Y-195585771D02*
X219862914Y-196800057D01*
X219791485Y-196942914D01*
X219720057Y-197014342D01*
X219577200Y-197085771D01*
X219362914Y-197085771D01*
X219220057Y-197014342D01*
X219862914Y-196514342D02*
X219720057Y-196585771D01*
X219434342Y-196585771D01*
X219291485Y-196514342D01*
X219220057Y-196442914D01*
X219148628Y-196300057D01*
X219148628Y-195871485D01*
X219220057Y-195728628D01*
X219291485Y-195657200D01*
X219434342Y-195585771D01*
X219720057Y-195585771D01*
X219862914Y-195657200D01*
X221362914Y-196585771D02*
X220505771Y-196585771D01*
X220934342Y-196585771D02*
X220934342Y-195085771D01*
X220791485Y-195300057D01*
X220648628Y-195442914D01*
X220505771Y-195514342D01*
X222720057Y-195085771D02*
X222005771Y-195085771D01*
X221934342Y-195800057D01*
X222005771Y-195728628D01*
X222148628Y-195657200D01*
X222505771Y-195657200D01*
X222648628Y-195728628D01*
X222720057Y-195800057D01*
X222791485Y-195942914D01*
X222791485Y-196300057D01*
X222720057Y-196442914D01*
X222648628Y-196514342D01*
X222505771Y-196585771D01*
X222148628Y-196585771D01*
X222005771Y-196514342D01*
X221934342Y-196442914D01*
X223291485Y-195085771D02*
X224220057Y-195085771D01*
X223720057Y-195657200D01*
X223934342Y-195657200D01*
X224077200Y-195728628D01*
X224148628Y-195800057D01*
X224220057Y-195942914D01*
X224220057Y-196300057D01*
X224148628Y-196442914D01*
X224077200Y-196514342D01*
X223934342Y-196585771D01*
X223505771Y-196585771D01*
X223362914Y-196514342D01*
X223291485Y-196442914D01*
X225505771Y-195085771D02*
X225220057Y-195085771D01*
X225077200Y-195157200D01*
X225005771Y-195228628D01*
X224862914Y-195442914D01*
X224791485Y-195728628D01*
X224791485Y-196300057D01*
X224862914Y-196442914D01*
X224934342Y-196514342D01*
X225077200Y-196585771D01*
X225362914Y-196585771D01*
X225505771Y-196514342D01*
X225577200Y-196442914D01*
X225648628Y-196300057D01*
X225648628Y-195942914D01*
X225577200Y-195800057D01*
X225505771Y-195728628D01*
X225362914Y-195657200D01*
X225077200Y-195657200D01*
X224934342Y-195728628D01*
X224862914Y-195800057D01*
X224791485Y-195942914D01*
X226362914Y-196585771D02*
X226648628Y-196585771D01*
X226791485Y-196514342D01*
X226862914Y-196442914D01*
X227005771Y-196228628D01*
X227077199Y-195942914D01*
X227077199Y-195371485D01*
X227005771Y-195228628D01*
X226934342Y-195157200D01*
X226791485Y-195085771D01*
X226505771Y-195085771D01*
X226362914Y-195157200D01*
X226291485Y-195228628D01*
X226220057Y-195371485D01*
X226220057Y-195728628D01*
X226291485Y-195871485D01*
X226362914Y-195942914D01*
X226505771Y-196014342D01*
X226791485Y-196014342D01*
X226934342Y-195942914D01*
X227005771Y-195871485D01*
X227077199Y-195728628D01*
X227791485Y-196585771D02*
X228077199Y-196585771D01*
X228220057Y-196514342D01*
X228291485Y-196442914D01*
X228434342Y-196228628D01*
X228505771Y-195942914D01*
X228505771Y-195371485D01*
X228434342Y-195228628D01*
X228362914Y-195157200D01*
X228220057Y-195085771D01*
X227934342Y-195085771D01*
X227791485Y-195157200D01*
X227720057Y-195228628D01*
X227648628Y-195371485D01*
X227648628Y-195728628D01*
X227720057Y-195871485D01*
X227791485Y-195942914D01*
X227934342Y-196014342D01*
X228220057Y-196014342D01*
X228362914Y-195942914D01*
X228434342Y-195871485D01*
X228505771Y-195728628D01*
X229934342Y-196585771D02*
X229077199Y-196585771D01*
X229505771Y-196585771D02*
X229505771Y-195085771D01*
X229362914Y-195300057D01*
X229220057Y-195442914D01*
X229077199Y-195514342D01*
X231291485Y-195085771D02*
X230577199Y-195085771D01*
X230505771Y-195800057D01*
X230577199Y-195728628D01*
X230720057Y-195657200D01*
X231077199Y-195657200D01*
X231220057Y-195728628D01*
X231291485Y-195800057D01*
X231362914Y-195942914D01*
X231362914Y-196300057D01*
X231291485Y-196442914D01*
X231220057Y-196514342D01*
X231077199Y-196585771D01*
X230720057Y-196585771D01*
X230577199Y-196514342D01*
X230505771Y-196442914D01*
X232648628Y-196514342D02*
X232505771Y-196585771D01*
X232220057Y-196585771D01*
X232077199Y-196514342D01*
X232005771Y-196442914D01*
X231934342Y-196300057D01*
X231934342Y-195871485D01*
X232005771Y-195728628D01*
X232077199Y-195657200D01*
X232220057Y-195585771D01*
X232505771Y-195585771D01*
X232648628Y-195657200D01*
X233934342Y-196514342D02*
X233791485Y-196585771D01*
X233505771Y-196585771D01*
X233362914Y-196514342D01*
X233291485Y-196442914D01*
X233220057Y-196300057D01*
X233220057Y-195871485D01*
X233291485Y-195728628D01*
X233362914Y-195657200D01*
X233505771Y-195585771D01*
X233791485Y-195585771D01*
X233934342Y-195657200D01*
X234434342Y-197157200D02*
X234505771Y-197085771D01*
X234648628Y-196871485D01*
X234720057Y-196728628D01*
X234791485Y-196514342D01*
X234862914Y-196157200D01*
X234862914Y-195871485D01*
X234791485Y-195514342D01*
X234720057Y-195300057D01*
X234648628Y-195157200D01*
X234505771Y-194942914D01*
X234434342Y-194871485D01*
D10*
D11*
X177002200Y-191507200D02*
X285002200Y-191507200D01*
D10*
D12*
X264411485Y-193785771D02*
X263911485Y-193071485D01*
X263554342Y-193785771D02*
X263554342Y-192285771D01*
X264125771Y-192285771D01*
X264268628Y-192357200D01*
X264340057Y-192428628D01*
X264411485Y-192571485D01*
X264411485Y-192785771D01*
X264340057Y-192928628D01*
X264268628Y-193000057D01*
X264125771Y-193071485D01*
X263554342Y-193071485D01*
X265625771Y-193714342D02*
X265482914Y-193785771D01*
X265197200Y-193785771D01*
X265054342Y-193714342D01*
X264982914Y-193571485D01*
X264982914Y-193000057D01*
X265054342Y-192857200D01*
X265197200Y-192785771D01*
X265482914Y-192785771D01*
X265625771Y-192857200D01*
X265697200Y-193000057D01*
X265697200Y-193142914D01*
X264982914Y-193285771D01*
X266197200Y-192785771D02*
X266554342Y-193785771D01*
X266911485Y-192785771D01*
X267482914Y-193642914D02*
X267554342Y-193714342D01*
X267482914Y-193785771D01*
X267411485Y-193714342D01*
X267482914Y-193642914D01*
X267482914Y-193785771D01*
X267482914Y-192857200D02*
X267554342Y-192928628D01*
X267482914Y-193000057D01*
X267411485Y-192928628D01*
X267482914Y-192857200D01*
X267482914Y-193000057D01*
X270125771Y-193785771D02*
X269268628Y-193785771D01*
X269697200Y-193785771D02*
X269697200Y-192285771D01*
X269554342Y-192500057D01*
X269411485Y-192642914D01*
X269268628Y-192714342D01*
X270697200Y-193357200D02*
X271411485Y-193357200D01*
X270554342Y-193785771D02*
X271054342Y-192285771D01*
X271554342Y-193785771D01*
D10*
D11*
X178362914Y-193714342D02*
X178577200Y-193785771D01*
X178934342Y-193785771D01*
X179077200Y-193714342D01*
X179148628Y-193642914D01*
X179220057Y-193500057D01*
X179220057Y-193357200D01*
X179148628Y-193214342D01*
X179077200Y-193142914D01*
X178934342Y-193071485D01*
X178648628Y-193000057D01*
X178505771Y-192928628D01*
X178434342Y-192857200D01*
X178362914Y-192714342D01*
X178362914Y-192571485D01*
X178434342Y-192428628D01*
X178505771Y-192357200D01*
X178648628Y-192285771D01*
X179005771Y-192285771D01*
X179220057Y-192357200D01*
X179862914Y-193785771D02*
X179862914Y-192785771D01*
X179862914Y-192285771D02*
X179791485Y-192357200D01*
X179862914Y-192428628D01*
X179934342Y-192357200D01*
X179862914Y-192285771D01*
X179862914Y-192428628D01*
X180434342Y-192785771D02*
X181220057Y-192785771D01*
X180434342Y-193785771D01*
X181220057Y-193785771D01*
X182362914Y-193714342D02*
X182220057Y-193785771D01*
X181934342Y-193785771D01*
X181791485Y-193714342D01*
X181720057Y-193571485D01*
X181720057Y-193000057D01*
X181791485Y-192857200D01*
X181934342Y-192785771D01*
X182220057Y-192785771D01*
X182362914Y-192857200D01*
X182434342Y-193000057D01*
X182434342Y-193142914D01*
X181720057Y-193285771D01*
X183077200Y-193642914D02*
X183148628Y-193714342D01*
X183077200Y-193785771D01*
X183005771Y-193714342D01*
X183077200Y-193642914D01*
X183077200Y-193785771D01*
X183077200Y-192857200D02*
X183148628Y-192928628D01*
X183077200Y-193000057D01*
X183005771Y-192928628D01*
X183077200Y-192857200D01*
X183077200Y-193000057D01*
X184862914Y-193357200D02*
X185577200Y-193357200D01*
X184720057Y-193785771D02*
X185220057Y-192285771D01*
X185720057Y-193785771D01*
X186862914Y-192785771D02*
X186862914Y-193785771D01*
X186505771Y-192214342D02*
X186148628Y-193285771D01*
X187077200Y-193285771D01*
D10*
D11*
X263434342Y-196585771D02*
X263434342Y-195085771D01*
X264791485Y-196585771D02*
X264791485Y-195085771D01*
X264791485Y-196514342D02*
X264648628Y-196585771D01*
X264362914Y-196585771D01*
X264220057Y-196514342D01*
X264148628Y-196442914D01*
X264077200Y-196300057D01*
X264077200Y-195871485D01*
X264148628Y-195728628D01*
X264220057Y-195657200D01*
X264362914Y-195585771D01*
X264648628Y-195585771D01*
X264791485Y-195657200D01*
X265505771Y-196442914D02*
X265577200Y-196514342D01*
X265505771Y-196585771D01*
X265434342Y-196514342D01*
X265505771Y-196442914D01*
X265505771Y-196585771D01*
X265505771Y-195657200D02*
X265577200Y-195728628D01*
X265505771Y-195800057D01*
X265434342Y-195728628D01*
X265505771Y-195657200D01*
X265505771Y-195800057D01*
X268148628Y-196585771D02*
X267291485Y-196585771D01*
X267720057Y-196585771D02*
X267720057Y-195085771D01*
X267577200Y-195300057D01*
X267434342Y-195442914D01*
X267291485Y-195514342D01*
X269862914Y-195014342D02*
X268577200Y-196942914D01*
X271148628Y-196585771D02*
X270291485Y-196585771D01*
X270720057Y-196585771D02*
X270720057Y-195085771D01*
X270577200Y-195300057D01*
X270434342Y-195442914D01*
X270291485Y-195514342D01*
D10*
D11*
X177002200Y-187507200D02*
X285002200Y-187507200D01*
D10*
D13*
X178714580Y-188211961D02*
X179857438Y-188211961D01*
X179036009Y-190211961D02*
X179286009Y-188211961D01*
X180274104Y-190211961D02*
X180440771Y-188878628D01*
X180524104Y-188211961D02*
X180416961Y-188307200D01*
X180500295Y-188402438D01*
X180607438Y-188307200D01*
X180524104Y-188211961D01*
X180500295Y-188402438D01*
X181107438Y-188878628D02*
X181869342Y-188878628D01*
X181476485Y-188211961D02*
X181262200Y-189926247D01*
X181333628Y-190116723D01*
X181512200Y-190211961D01*
X181702676Y-190211961D01*
X182655057Y-190211961D02*
X182476485Y-190116723D01*
X182405057Y-189926247D01*
X182619342Y-188211961D01*
X184190771Y-190116723D02*
X183988390Y-190211961D01*
X183607438Y-190211961D01*
X183428866Y-190116723D01*
X183357438Y-189926247D01*
X183452676Y-189164342D01*
X183571723Y-188973866D01*
X183774104Y-188878628D01*
X184155057Y-188878628D01*
X184333628Y-188973866D01*
X184405057Y-189164342D01*
X184381247Y-189354819D01*
X183405057Y-189545295D01*
X185155057Y-190021485D02*
X185238390Y-190116723D01*
X185131247Y-190211961D01*
X185047914Y-190116723D01*
X185155057Y-190021485D01*
X185131247Y-190211961D01*
X185286009Y-188973866D02*
X185369342Y-189069104D01*
X185262200Y-189164342D01*
X185178866Y-189069104D01*
X185286009Y-188973866D01*
X185262200Y-189164342D01*
X187738390Y-189164342D02*
X188405057Y-189164342D01*
X188559819Y-190211961D02*
X187607438Y-190211961D01*
X187857438Y-188211961D01*
X188809819Y-188211961D01*
X189381247Y-188211961D02*
X189797914Y-190211961D01*
X190714580Y-188211961D01*
X191107438Y-189640533D02*
X192059819Y-189640533D01*
X190845533Y-190211961D02*
X191762200Y-188211961D01*
X192178866Y-190211961D01*
X193797914Y-190211961D02*
X192845533Y-190211961D01*
X193095533Y-188211961D01*
X194559819Y-189450057D02*
X196083628Y-189450057D01*
X196940771Y-190211961D02*
X197190771Y-188211961D01*
X197678866Y-189640533D01*
X198524104Y-188211961D01*
X198274104Y-190211961D01*
X199226485Y-190211961D02*
X199476485Y-188211961D01*
X200238390Y-188211961D01*
X200416961Y-188307200D01*
X200500295Y-188402438D01*
X200571723Y-188592914D01*
X200536009Y-188878628D01*
X200416961Y-189069104D01*
X200309819Y-189164342D01*
X200107438Y-189259580D01*
X199345533Y-189259580D01*
X201655057Y-189069104D02*
X201476485Y-188973866D01*
X201393152Y-188878628D01*
X201321723Y-188688152D01*
X201333628Y-188592914D01*
X201452676Y-188402438D01*
X201559819Y-188307200D01*
X201762200Y-188211961D01*
X202143152Y-188211961D01*
X202321723Y-188307200D01*
X202405057Y-188402438D01*
X202476485Y-188592914D01*
X202464580Y-188688152D01*
X202345533Y-188878628D01*
X202238390Y-188973866D01*
X202036009Y-189069104D01*
X201655057Y-189069104D01*
X201452676Y-189164342D01*
X201345533Y-189259580D01*
X201226485Y-189450057D01*
X201178866Y-189831009D01*
X201250295Y-190021485D01*
X201333628Y-190116723D01*
X201512200Y-190211961D01*
X201893152Y-190211961D01*
X202095533Y-190116723D01*
X202202676Y-190021485D01*
X202321723Y-189831009D01*
X202369342Y-189450057D01*
X202297914Y-189259580D01*
X202214580Y-189164342D01*
X202036009Y-189069104D01*
X203559819Y-189069104D02*
X203381247Y-188973866D01*
X203297914Y-188878628D01*
X203226485Y-188688152D01*
X203238390Y-188592914D01*
X203357438Y-188402438D01*
X203464580Y-188307200D01*
X203666961Y-188211961D01*
X204047914Y-188211961D01*
X204226485Y-188307200D01*
X204309819Y-188402438D01*
X204381247Y-188592914D01*
X204369342Y-188688152D01*
X204250295Y-188878628D01*
X204143152Y-188973866D01*
X203940771Y-189069104D01*
X203559819Y-189069104D01*
X203357438Y-189164342D01*
X203250295Y-189259580D01*
X203131247Y-189450057D01*
X203083628Y-189831009D01*
X203155057Y-190021485D01*
X203238390Y-190116723D01*
X203416961Y-190211961D01*
X203797914Y-190211961D01*
X204000295Y-190116723D01*
X204107438Y-190021485D01*
X204226485Y-189831009D01*
X204274104Y-189450057D01*
X204202676Y-189259580D01*
X204119342Y-189164342D01*
X203940771Y-189069104D01*
X206143152Y-188211961D02*
X205762200Y-188211961D01*
X205559819Y-188307200D01*
X205452676Y-188402438D01*
X205226485Y-188688152D01*
X205083628Y-189069104D01*
X204988390Y-189831009D01*
X205059819Y-190021485D01*
X205143152Y-190116723D01*
X205321723Y-190211961D01*
X205702676Y-190211961D01*
X205905057Y-190116723D01*
X206012200Y-190021485D01*
X206131247Y-189831009D01*
X206190771Y-189354819D01*
X206119342Y-189164342D01*
X206036009Y-189069104D01*
X205857438Y-188973866D01*
X205476485Y-188973866D01*
X205274104Y-189069104D01*
X205166961Y-189164342D01*
X205047914Y-189354819D01*
X207071723Y-188402438D02*
X207178866Y-188307200D01*
X207381247Y-188211961D01*
X207857438Y-188211961D01*
X208036009Y-188307200D01*
X208119342Y-188402438D01*
X208190771Y-188592914D01*
X208166961Y-188783390D01*
X208036009Y-189069104D01*
X206750295Y-190211961D01*
X207988390Y-190211961D01*
X210131247Y-188307200D02*
X209952676Y-188211961D01*
X209666961Y-188211961D01*
X209369342Y-188307200D01*
X209155057Y-188497676D01*
X209036009Y-188688152D01*
X208893152Y-189069104D01*
X208857438Y-189354819D01*
X208905057Y-189735771D01*
X208976485Y-189926247D01*
X209143152Y-190116723D01*
X209416961Y-190211961D01*
X209607438Y-190211961D01*
X209905057Y-190116723D01*
X210012200Y-190021485D01*
X210095533Y-189354819D01*
X209714580Y-189354819D01*
X212155057Y-190402438D02*
X211976485Y-190307200D01*
X211809819Y-190116723D01*
X211559819Y-189831009D01*
X211381247Y-189735771D01*
X211190771Y-189735771D01*
X211226485Y-190211961D02*
X211047914Y-190116723D01*
X210881247Y-189926247D01*
X210833628Y-189545295D01*
X210916961Y-188878628D01*
X211059819Y-188497676D01*
X211274104Y-188307200D01*
X211476485Y-188211961D01*
X211857438Y-188211961D01*
X212036009Y-188307200D01*
X212202676Y-188497676D01*
X212250295Y-188878628D01*
X212166961Y-189545295D01*
X212024104Y-189926247D01*
X211809819Y-190116723D01*
X211607438Y-190211961D01*
X211226485Y-190211961D01*
X213036009Y-189450057D02*
X214559819Y-189450057D01*
X216047914Y-188211961D02*
X216238390Y-188211961D01*
X216416961Y-188307200D01*
X216500295Y-188402438D01*
X216571723Y-188592914D01*
X216619342Y-188973866D01*
X216559819Y-189450057D01*
X216416961Y-189831009D01*
X216297914Y-190021485D01*
X216190771Y-190116723D01*
X215988390Y-190211961D01*
X215797914Y-190211961D01*
X215619342Y-190116723D01*
X215536009Y-190021485D01*
X215464580Y-189831009D01*
X215416961Y-189450057D01*
X215476485Y-188973866D01*
X215619342Y-188592914D01*
X215738390Y-188402438D01*
X215845533Y-188307200D01*
X216047914Y-188211961D01*
X217952676Y-188211961D02*
X218143152Y-188211961D01*
X218321723Y-188307200D01*
X218405057Y-188402438D01*
X218476485Y-188592914D01*
X218524104Y-188973866D01*
X218464580Y-189450057D01*
X218321723Y-189831009D01*
X218202676Y-190021485D01*
X218095533Y-190116723D01*
X217893152Y-190211961D01*
X217702676Y-190211961D01*
X217524104Y-190116723D01*
X217440771Y-190021485D01*
X217369342Y-189831009D01*
X217321723Y-189450057D01*
X217381247Y-188973866D01*
X217524104Y-188592914D01*
X217643152Y-188402438D01*
X217750295Y-188307200D01*
X217952676Y-188211961D01*
X219857438Y-188211961D02*
X220047914Y-188211961D01*
X220226485Y-188307200D01*
X220309819Y-188402438D01*
X220381247Y-188592914D01*
X220428866Y-188973866D01*
X220369342Y-189450057D01*
X220226485Y-189831009D01*
X220107438Y-190021485D01*
X220000295Y-190116723D01*
X219797914Y-190211961D01*
X219607438Y-190211961D01*
X219428866Y-190116723D01*
X219345533Y-190021485D01*
X219274104Y-189831009D01*
X219226485Y-189450057D01*
X219286009Y-188973866D01*
X219428866Y-188592914D01*
X219547914Y-188402438D01*
X219655057Y-188307200D01*
X219857438Y-188211961D01*
X221762200Y-188211961D02*
X221952676Y-188211961D01*
X222131247Y-188307200D01*
X222214580Y-188402438D01*
X222286009Y-188592914D01*
X222333628Y-188973866D01*
X222274104Y-189450057D01*
X222131247Y-189831009D01*
X222012200Y-190021485D01*
X221905057Y-190116723D01*
X221702676Y-190211961D01*
X221512200Y-190211961D01*
X221333628Y-190116723D01*
X221250295Y-190021485D01*
X221178866Y-189831009D01*
X221131247Y-189450057D01*
X221190771Y-188973866D01*
X221333628Y-188592914D01*
X221452676Y-188402438D01*
X221559819Y-188307200D01*
X221762200Y-188211961D01*
D10*
D11*
X178934342Y-185600057D02*
X178434342Y-185600057D01*
X178434342Y-186385771D02*
X178434342Y-184885771D01*
X179148628Y-184885771D01*
X179720057Y-186385771D02*
X179720057Y-185385771D01*
X179720057Y-184885771D02*
X179648628Y-184957200D01*
X179720057Y-185028628D01*
X179791485Y-184957200D01*
X179720057Y-184885771D01*
X179720057Y-185028628D01*
X180648628Y-186385771D02*
X180505771Y-186314342D01*
X180434342Y-186171485D01*
X180434342Y-184885771D01*
X181791485Y-186314342D02*
X181648628Y-186385771D01*
X181362914Y-186385771D01*
X181220057Y-186314342D01*
X181148628Y-186171485D01*
X181148628Y-185600057D01*
X181220057Y-185457200D01*
X181362914Y-185385771D01*
X181648628Y-185385771D01*
X181791485Y-185457200D01*
X181862914Y-185600057D01*
X181862914Y-185742914D01*
X181148628Y-185885771D01*
X182505771Y-186242914D02*
X182577200Y-186314342D01*
X182505771Y-186385771D01*
X182434342Y-186314342D01*
X182505771Y-186242914D01*
X182505771Y-186385771D01*
X182505771Y-185457200D02*
X182577200Y-185528628D01*
X182505771Y-185600057D01*
X182434342Y-185528628D01*
X182505771Y-185457200D01*
X182505771Y-185600057D01*
X184362914Y-185600057D02*
X184862914Y-185600057D01*
X185077200Y-186385771D02*
X184362914Y-186385771D01*
X184362914Y-184885771D01*
X185077200Y-184885771D01*
X185505771Y-184885771D02*
X186005771Y-186385771D01*
X186505771Y-184885771D01*
X186934342Y-185957200D02*
X187648628Y-185957200D01*
X186791485Y-186385771D02*
X187291485Y-184885771D01*
X187791485Y-186385771D01*
X189005771Y-186385771D02*
X188291485Y-186385771D01*
X188291485Y-184885771D01*
X189505771Y-185814342D02*
X190648628Y-185814342D01*
X191362914Y-186385771D02*
X191362914Y-184885771D01*
X191862914Y-185957200D01*
X192362914Y-184885771D01*
X192362914Y-186385771D01*
X193077200Y-186385771D02*
X193077200Y-184885771D01*
X193648628Y-184885771D01*
X193791485Y-184957200D01*
X193862914Y-185028628D01*
X193934342Y-185171485D01*
X193934342Y-185385771D01*
X193862914Y-185528628D01*
X193791485Y-185600057D01*
X193648628Y-185671485D01*
X193077200Y-185671485D01*
X194791485Y-185528628D02*
X194648628Y-185457200D01*
X194577200Y-185385771D01*
X194505771Y-185242914D01*
X194505771Y-185171485D01*
X194577200Y-185028628D01*
X194648628Y-184957200D01*
X194791485Y-184885771D01*
X195077200Y-184885771D01*
X195220057Y-184957200D01*
X195291485Y-185028628D01*
X195362914Y-185171485D01*
X195362914Y-185242914D01*
X195291485Y-185385771D01*
X195220057Y-185457200D01*
X195077200Y-185528628D01*
X194791485Y-185528628D01*
X194648628Y-185600057D01*
X194577200Y-185671485D01*
X194505771Y-185814342D01*
X194505771Y-186100057D01*
X194577200Y-186242914D01*
X194648628Y-186314342D01*
X194791485Y-186385771D01*
X195077200Y-186385771D01*
X195220057Y-186314342D01*
X195291485Y-186242914D01*
X195362914Y-186100057D01*
X195362914Y-185814342D01*
X195291485Y-185671485D01*
X195220057Y-185600057D01*
X195077200Y-185528628D01*
X196220057Y-185528628D02*
X196077200Y-185457200D01*
X196005771Y-185385771D01*
X195934342Y-185242914D01*
X195934342Y-185171485D01*
X196005771Y-185028628D01*
X196077200Y-184957200D01*
X196220057Y-184885771D01*
X196505771Y-184885771D01*
X196648628Y-184957200D01*
X196720057Y-185028628D01*
X196791485Y-185171485D01*
X196791485Y-185242914D01*
X196720057Y-185385771D01*
X196648628Y-185457200D01*
X196505771Y-185528628D01*
X196220057Y-185528628D01*
X196077200Y-185600057D01*
X196005771Y-185671485D01*
X195934342Y-185814342D01*
X195934342Y-186100057D01*
X196005771Y-186242914D01*
X196077200Y-186314342D01*
X196220057Y-186385771D01*
X196505771Y-186385771D01*
X196648628Y-186314342D01*
X196720057Y-186242914D01*
X196791485Y-186100057D01*
X196791485Y-185814342D01*
X196720057Y-185671485D01*
X196648628Y-185600057D01*
X196505771Y-185528628D01*
X198077200Y-184885771D02*
X197791485Y-184885771D01*
X197648628Y-184957200D01*
X197577200Y-185028628D01*
X197434342Y-185242914D01*
X197362914Y-185528628D01*
X197362914Y-186100057D01*
X197434342Y-186242914D01*
X197505771Y-186314342D01*
X197648628Y-186385771D01*
X197934342Y-186385771D01*
X198077200Y-186314342D01*
X198148628Y-186242914D01*
X198220057Y-186100057D01*
X198220057Y-185742914D01*
X198148628Y-185600057D01*
X198077200Y-185528628D01*
X197934342Y-185457200D01*
X197648628Y-185457200D01*
X197505771Y-185528628D01*
X197434342Y-185600057D01*
X197362914Y-185742914D01*
X198791485Y-185028628D02*
X198862914Y-184957200D01*
X199005771Y-184885771D01*
X199362914Y-184885771D01*
X199505771Y-184957200D01*
X199577200Y-185028628D01*
X199648628Y-185171485D01*
X199648628Y-185314342D01*
X199577200Y-185528628D01*
X198720057Y-186385771D01*
X199648628Y-186385771D01*
X200291485Y-186242914D02*
X200362914Y-186314342D01*
X200291485Y-186385771D01*
X200220057Y-186314342D01*
X200291485Y-186242914D01*
X200291485Y-186385771D01*
X201005771Y-186385771D02*
X201005771Y-184885771D01*
X201148628Y-185814342D02*
X201577200Y-186385771D01*
X201577200Y-185385771D02*
X201005771Y-185957200D01*
X202220057Y-186385771D02*
X202220057Y-185385771D01*
X202220057Y-184885771D02*
X202148628Y-184957200D01*
X202220057Y-185028628D01*
X202291485Y-184957200D01*
X202220057Y-184885771D01*
X202220057Y-185028628D01*
X203577200Y-186314342D02*
X203434342Y-186385771D01*
X203148628Y-186385771D01*
X203005771Y-186314342D01*
X202934342Y-186242914D01*
X202862914Y-186100057D01*
X202862914Y-185671485D01*
X202934342Y-185528628D01*
X203005771Y-185457200D01*
X203148628Y-185385771D01*
X203434342Y-185385771D01*
X203577200Y-185457200D01*
X204862914Y-186385771D02*
X204862914Y-185600057D01*
X204791485Y-185457200D01*
X204648628Y-185385771D01*
X204362914Y-185385771D01*
X204220057Y-185457200D01*
X204862914Y-186314342D02*
X204720057Y-186385771D01*
X204362914Y-186385771D01*
X204220057Y-186314342D01*
X204148628Y-186171485D01*
X204148628Y-186028628D01*
X204220057Y-185885771D01*
X204362914Y-185814342D01*
X204720057Y-185814342D01*
X204862914Y-185742914D01*
X206220057Y-186385771D02*
X206220057Y-184885771D01*
X206220057Y-186314342D02*
X206077200Y-186385771D01*
X205791485Y-186385771D01*
X205648628Y-186314342D01*
X205577200Y-186242914D01*
X205505771Y-186100057D01*
X205505771Y-185671485D01*
X205577200Y-185528628D01*
X205648628Y-185457200D01*
X205791485Y-185385771D01*
X206077200Y-185385771D01*
X206220057Y-185457200D01*
X206577200Y-186528628D02*
X207720057Y-186528628D01*
X208077200Y-185385771D02*
X208077200Y-186885771D01*
X208077200Y-185457200D02*
X208220057Y-185385771D01*
X208505771Y-185385771D01*
X208648628Y-185457200D01*
X208720057Y-185528628D01*
X208791485Y-185671485D01*
X208791485Y-186100057D01*
X208720057Y-186242914D01*
X208648628Y-186314342D01*
X208505771Y-186385771D01*
X208220057Y-186385771D01*
X208077200Y-186314342D01*
X210077200Y-186314342D02*
X209934342Y-186385771D01*
X209648628Y-186385771D01*
X209505771Y-186314342D01*
X209434342Y-186242914D01*
X209362914Y-186100057D01*
X209362914Y-185671485D01*
X209434342Y-185528628D01*
X209505771Y-185457200D01*
X209648628Y-185385771D01*
X209934342Y-185385771D01*
X210077200Y-185457200D01*
X210720057Y-186385771D02*
X210720057Y-184885771D01*
X210720057Y-185457200D02*
X210862914Y-185385771D01*
X211148628Y-185385771D01*
X211291485Y-185457200D01*
X211362914Y-185528628D01*
X211434342Y-185671485D01*
X211434342Y-186100057D01*
X211362914Y-186242914D01*
X211291485Y-186314342D01*
X211148628Y-186385771D01*
X210862914Y-186385771D01*
X210720057Y-186314342D01*
D10*
D11*
X177002200Y-181507200D02*
X285002200Y-181507200D01*
D10*
D11*
X178362914Y-183614342D02*
X178577200Y-183685771D01*
X178934342Y-183685771D01*
X179077200Y-183614342D01*
X179148628Y-183542914D01*
X179220057Y-183400057D01*
X179220057Y-183257200D01*
X179148628Y-183114342D01*
X179077200Y-183042914D01*
X178934342Y-182971485D01*
X178648628Y-182900057D01*
X178505771Y-182828628D01*
X178434342Y-182757200D01*
X178362914Y-182614342D01*
X178362914Y-182471485D01*
X178434342Y-182328628D01*
X178505771Y-182257200D01*
X178648628Y-182185771D01*
X179005771Y-182185771D01*
X179220057Y-182257200D01*
X179862914Y-183685771D02*
X179862914Y-182185771D01*
X180505771Y-183685771D02*
X180505771Y-182900057D01*
X180434342Y-182757200D01*
X180291485Y-182685771D01*
X180077200Y-182685771D01*
X179934342Y-182757200D01*
X179862914Y-182828628D01*
X181791485Y-183614342D02*
X181648628Y-183685771D01*
X181362914Y-183685771D01*
X181220057Y-183614342D01*
X181148628Y-183471485D01*
X181148628Y-182900057D01*
X181220057Y-182757200D01*
X181362914Y-182685771D01*
X181648628Y-182685771D01*
X181791485Y-182757200D01*
X181862914Y-182900057D01*
X181862914Y-183042914D01*
X181148628Y-183185771D01*
X183077200Y-183614342D02*
X182934342Y-183685771D01*
X182648628Y-183685771D01*
X182505771Y-183614342D01*
X182434342Y-183471485D01*
X182434342Y-182900057D01*
X182505771Y-182757200D01*
X182648628Y-182685771D01*
X182934342Y-182685771D01*
X183077200Y-182757200D01*
X183148628Y-182900057D01*
X183148628Y-183042914D01*
X182434342Y-183185771D01*
X183577200Y-182685771D02*
X184148628Y-182685771D01*
X183791485Y-182185771D02*
X183791485Y-183471485D01*
X183862914Y-183614342D01*
X184005771Y-183685771D01*
X184148628Y-183685771D01*
X184648628Y-183542914D02*
X184720057Y-183614342D01*
X184648628Y-183685771D01*
X184577200Y-183614342D01*
X184648628Y-183542914D01*
X184648628Y-183685771D01*
X184648628Y-182757200D02*
X184720057Y-182828628D01*
X184648628Y-182900057D01*
X184577200Y-182828628D01*
X184648628Y-182757200D01*
X184648628Y-182900057D01*
D10*
D12*
X178554342Y-180685771D02*
X178554342Y-179185771D01*
X179197200Y-180685771D02*
X179197200Y-179900057D01*
X179125771Y-179757200D01*
X178982914Y-179685771D01*
X178768628Y-179685771D01*
X178625771Y-179757200D01*
X178554342Y-179828628D01*
X179697200Y-179685771D02*
X180268628Y-179685771D01*
X179911485Y-179185771D02*
X179911485Y-180471485D01*
X179982914Y-180614342D01*
X180125771Y-180685771D01*
X180268628Y-180685771D01*
X180554342Y-179685771D02*
X181125771Y-179685771D01*
X180768628Y-179185771D02*
X180768628Y-180471485D01*
X180840057Y-180614342D01*
X180982914Y-180685771D01*
X181125771Y-180685771D01*
X181625771Y-179685771D02*
X181625771Y-181185771D01*
X181625771Y-179757200D02*
X181768628Y-179685771D01*
X182054342Y-179685771D01*
X182197200Y-179757200D01*
X182268628Y-179828628D01*
X182340057Y-179971485D01*
X182340057Y-180400057D01*
X182268628Y-180542914D01*
X182197200Y-180614342D01*
X182054342Y-180685771D01*
X181768628Y-180685771D01*
X181625771Y-180614342D01*
X182911485Y-180614342D02*
X183054342Y-180685771D01*
X183340057Y-180685771D01*
X183482914Y-180614342D01*
X183554342Y-180471485D01*
X183554342Y-180400057D01*
X183482914Y-180257200D01*
X183340057Y-180185771D01*
X183125771Y-180185771D01*
X182982914Y-180114342D01*
X182911485Y-179971485D01*
X182911485Y-179900057D01*
X182982914Y-179757200D01*
X183125771Y-179685771D01*
X183340057Y-179685771D01*
X183482914Y-179757200D01*
X184197200Y-180542914D02*
X184268628Y-180614342D01*
X184197200Y-180685771D01*
X184125771Y-180614342D01*
X184197200Y-180542914D01*
X184197200Y-180685771D01*
X184197200Y-179757200D02*
X184268628Y-179828628D01*
X184197200Y-179900057D01*
X184125771Y-179828628D01*
X184197200Y-179757200D01*
X184197200Y-179900057D01*
X185982914Y-179114342D02*
X184697200Y-181042914D01*
X187554342Y-179114342D02*
X186268628Y-181042914D01*
X188697200Y-179685771D02*
X188697200Y-180900057D01*
X188625771Y-181042914D01*
X188554342Y-181114342D01*
X188411485Y-181185771D01*
X188197200Y-181185771D01*
X188054342Y-181114342D01*
X188697200Y-180614342D02*
X188554342Y-180685771D01*
X188268628Y-180685771D01*
X188125771Y-180614342D01*
X188054342Y-180542914D01*
X187982914Y-180400057D01*
X187982914Y-179971485D01*
X188054342Y-179828628D01*
X188125771Y-179757200D01*
X188268628Y-179685771D01*
X188554342Y-179685771D01*
X188697200Y-179757200D01*
X189411485Y-180685771D02*
X189411485Y-179685771D01*
X189411485Y-179185771D02*
X189340057Y-179257200D01*
X189411485Y-179328628D01*
X189482914Y-179257200D01*
X189411485Y-179185771D01*
X189411485Y-179328628D01*
X189911485Y-179685771D02*
X190482914Y-179685771D01*
X190125771Y-179185771D02*
X190125771Y-180471485D01*
X190197200Y-180614342D01*
X190340057Y-180685771D01*
X190482914Y-180685771D01*
X190982914Y-180685771D02*
X190982914Y-179185771D01*
X191625771Y-180685771D02*
X191625771Y-179900057D01*
X191554342Y-179757200D01*
X191411485Y-179685771D01*
X191197200Y-179685771D01*
X191054342Y-179757200D01*
X190982914Y-179828628D01*
X192982914Y-179685771D02*
X192982914Y-180685771D01*
X192340057Y-179685771D02*
X192340057Y-180471485D01*
X192411485Y-180614342D01*
X192554342Y-180685771D01*
X192768628Y-180685771D01*
X192911485Y-180614342D01*
X192982914Y-180542914D01*
X193697200Y-180685771D02*
X193697200Y-179185771D01*
X193697200Y-179757200D02*
X193840057Y-179685771D01*
X194125771Y-179685771D01*
X194268628Y-179757200D01*
X194340057Y-179828628D01*
X194411485Y-179971485D01*
X194411485Y-180400057D01*
X194340057Y-180542914D01*
X194268628Y-180614342D01*
X194125771Y-180685771D01*
X193840057Y-180685771D01*
X193697200Y-180614342D01*
X195054342Y-180542914D02*
X195125771Y-180614342D01*
X195054342Y-180685771D01*
X194982914Y-180614342D01*
X195054342Y-180542914D01*
X195054342Y-180685771D01*
X196411485Y-180614342D02*
X196268628Y-180685771D01*
X195982914Y-180685771D01*
X195840057Y-180614342D01*
X195768628Y-180542914D01*
X195697200Y-180400057D01*
X195697200Y-179971485D01*
X195768628Y-179828628D01*
X195840057Y-179757200D01*
X195982914Y-179685771D01*
X196268628Y-179685771D01*
X196411485Y-179757200D01*
X197268628Y-180685771D02*
X197125771Y-180614342D01*
X197054342Y-180542914D01*
X196982914Y-180400057D01*
X196982914Y-179971485D01*
X197054342Y-179828628D01*
X197125771Y-179757200D01*
X197268628Y-179685771D01*
X197482914Y-179685771D01*
X197625771Y-179757200D01*
X197697200Y-179828628D01*
X197768628Y-179971485D01*
X197768628Y-180400057D01*
X197697200Y-180542914D01*
X197625771Y-180614342D01*
X197482914Y-180685771D01*
X197268628Y-180685771D01*
X198411485Y-180685771D02*
X198411485Y-179685771D01*
X198411485Y-179828628D02*
X198482914Y-179757200D01*
X198625771Y-179685771D01*
X198840057Y-179685771D01*
X198982914Y-179757200D01*
X199054342Y-179900057D01*
X199054342Y-180685771D01*
X199054342Y-179900057D02*
X199125771Y-179757200D01*
X199268628Y-179685771D01*
X199482914Y-179685771D01*
X199625771Y-179757200D01*
X199697200Y-179900057D01*
X199697200Y-180685771D01*
X201482914Y-179114342D02*
X200197200Y-181042914D01*
X201982914Y-180685771D02*
X201982914Y-179185771D01*
X202482914Y-180257200D01*
X202982914Y-179185771D01*
X202982914Y-180685771D01*
X203697200Y-180685771D02*
X203697200Y-179685771D01*
X203697200Y-179185771D02*
X203625771Y-179257200D01*
X203697200Y-179328628D01*
X203768628Y-179257200D01*
X203697200Y-179185771D01*
X203697200Y-179328628D01*
X204340057Y-180614342D02*
X204482914Y-180685771D01*
X204768628Y-180685771D01*
X204911485Y-180614342D01*
X204982914Y-180471485D01*
X204982914Y-180400057D01*
X204911485Y-180257200D01*
X204768628Y-180185771D01*
X204554342Y-180185771D01*
X204411485Y-180114342D01*
X204340057Y-179971485D01*
X204340057Y-179900057D01*
X204411485Y-179757200D01*
X204554342Y-179685771D01*
X204768628Y-179685771D01*
X204911485Y-179757200D01*
X205411485Y-179685771D02*
X205982914Y-179685771D01*
X205625771Y-179185771D02*
X205625771Y-180471485D01*
X205697200Y-180614342D01*
X205840057Y-180685771D01*
X205982914Y-180685771D01*
X207054342Y-180614342D02*
X206911485Y-180685771D01*
X206625771Y-180685771D01*
X206482914Y-180614342D01*
X206411485Y-180471485D01*
X206411485Y-179900057D01*
X206482914Y-179757200D01*
X206625771Y-179685771D01*
X206911485Y-179685771D01*
X207054342Y-179757200D01*
X207125771Y-179900057D01*
X207125771Y-180042914D01*
X206411485Y-180185771D01*
X207768628Y-180685771D02*
X207768628Y-179685771D01*
X207768628Y-179971485D02*
X207840057Y-179828628D01*
X207911485Y-179757200D01*
X208054342Y-179685771D01*
X208197200Y-179685771D01*
X208697200Y-180685771D02*
X208697200Y-179185771D01*
X208697200Y-179900057D02*
X209554342Y-179900057D01*
X209554342Y-180685771D02*
X209554342Y-179185771D01*
X210125771Y-179185771D02*
X210482914Y-180685771D01*
X210768628Y-179614342D01*
X211054342Y-180685771D01*
X211411485Y-179185771D01*
D10*
D11*
D10*
D11*
D10*
D11*
D10*
D11*
D10*
D11*
X197002200Y-191507200D02*
X197002200Y-194507200D01*
D10*
D11*
X261002200Y-191507200D02*
X261002200Y-198007200D01*
D14*
X100000000Y-100000000D03*
D15*
X97460000Y-100000000D03*
X100000000Y-97460000D03*
X97460000Y-97460000D03*
X100000000Y-94920000D03*
X97460000Y-94920000D03*
X100000000Y-92380000D03*
X97460000Y-92380000D03*
X100000000Y-89840000D03*
X97460000Y-89840000D03*
D16*
X108350000Y-92700000D03*
D17*
X103550000Y-100225000D03*
X102850000Y-100225000D03*
X102175000Y-100225000D03*
X103850000Y-89075000D03*
X118150000Y-89275000D03*
X114550000Y-96550000D03*
X114550000Y-95875000D03*
D16*
X108350000Y-95125000D03*
D17*
X112800000Y-99300000D03*
X110175000Y-100225000D03*
X119700000Y-99925000D03*
X119700000Y-98550000D03*
X110850000Y-100225000D03*
X118150000Y-89950000D03*
X105625000Y-97900000D03*
X112800000Y-100675000D03*
D16*
X108350000Y-93300000D03*
D17*
X112800000Y-98625000D03*
X112800000Y-100000000D03*
X119700000Y-99225000D03*
X114550000Y-89275000D03*
X103850000Y-90450000D03*
X107675000Y-97900000D03*
X104225000Y-100225000D03*
X118150000Y-95875000D03*
X114550000Y-89950000D03*
X109475000Y-100225000D03*
X108800000Y-100225000D03*
X103850000Y-91107470D03*
X103850000Y-89750000D03*
X118150000Y-96550000D03*
D18*
X108700000Y-90600000D03*
D17*
X107000000Y-97900000D03*
X106300000Y-97900000D03*
X119700000Y-100600000D03*
D18*
X104500000Y-93825000D03*
D17*
X104900000Y-89100000D03*
X105600000Y-89100000D03*
X105600000Y-91100000D03*
D16*
X109800000Y-91000000D03*
D17*
X104900000Y-91100000D03*
X110975000Y-97875000D03*
X108925000Y-97875000D03*
X109600000Y-97875000D03*
X110300000Y-97875000D03*
X115100000Y-98600000D03*
D16*
X109475000Y-95100000D03*
D17*
X115100000Y-99900000D03*
X115100000Y-99250000D03*
X115100000Y-100550000D03*
D18*
X106900000Y-90800000D03*
X101200000Y-93800000D03*
X106456232Y-91465649D03*
X105990000Y-95360000D03*
X106949998Y-94350000D03*
D19*
X102990000Y-93310000D02*
X101910000Y-93310000D01*
X101910000Y-93310000D02*
X101290000Y-92690000D01*
X101290000Y-92690000D02*
X101290000Y-91610000D01*
X98309999Y-90689999D02*
X97460000Y-89840000D01*
X98720000Y-91100000D02*
X98309999Y-90689999D01*
X104500000Y-93825000D02*
X103505000Y-93825000D01*
X103505000Y-93825000D02*
X102990000Y-93310000D01*
X100780000Y-91100000D02*
X98720000Y-91100000D01*
X101290000Y-91610000D02*
X100780000Y-91100000D01*
D20*
X105600000Y-91100000D02*
X104900000Y-91100000D01*
X104900000Y-89100000D02*
X105600000Y-89100000D01*
X108925000Y-97875000D02*
X110975000Y-97875000D01*
X115100000Y-100650000D02*
X115100000Y-98600000D01*
D19*
X107120000Y-91020000D02*
X107120000Y-92130002D01*
X103310001Y-94450001D02*
X102660000Y-93800000D01*
X104800001Y-94450001D02*
X103310001Y-94450001D01*
X107120000Y-92130002D02*
X104800001Y-94450001D01*
X102660000Y-93800000D02*
X101200000Y-93800000D01*
X106900000Y-90800000D02*
X107120000Y-91020000D01*
G04 #@! TA.AperFunction,Conductor*
G36*
X104220521Y-88770002D02*
G01*
X104267014Y-88823658D01*
X104276168Y-88899610D01*
X104268386Y-88940402D01*
X104265756Y-88954191D01*
X104264035Y-88961894D01*
X104249669Y-89017844D01*
X104249669Y-89026613D01*
X104247437Y-89050222D01*
X104245793Y-89058841D01*
X104247888Y-89092138D01*
X104249420Y-89116486D01*
X104249669Y-89124398D01*
X104249669Y-89182156D01*
X104251641Y-89189837D01*
X104251851Y-89190655D01*
X104255560Y-89214073D01*
X104256111Y-89222828D01*
X104258561Y-89230368D01*
X104273956Y-89277749D01*
X104276165Y-89285350D01*
X104286716Y-89326442D01*
X104290532Y-89341306D01*
X104294350Y-89348251D01*
X104294756Y-89348989D01*
X104304175Y-89370755D01*
X104306886Y-89379098D01*
X104311133Y-89385790D01*
X104337825Y-89427850D01*
X104341855Y-89434663D01*
X104369689Y-89485293D01*
X104375114Y-89491070D01*
X104375697Y-89491691D01*
X104390229Y-89510425D01*
X104394929Y-89517831D01*
X104437049Y-89557384D01*
X104442616Y-89562951D01*
X104482169Y-89605071D01*
X104488860Y-89609317D01*
X104489575Y-89609771D01*
X104508309Y-89624303D01*
X104514707Y-89630311D01*
X104521650Y-89634128D01*
X104565337Y-89658145D01*
X104572150Y-89662175D01*
X104620902Y-89693114D01*
X104629245Y-89695825D01*
X104651008Y-89705243D01*
X104658694Y-89709468D01*
X104666369Y-89711439D01*
X104666370Y-89711439D01*
X104714650Y-89723835D01*
X104722251Y-89726044D01*
X104777172Y-89743889D01*
X104785085Y-89744387D01*
X104785927Y-89744440D01*
X104809345Y-89748149D01*
X104812090Y-89748854D01*
X104812093Y-89748854D01*
X104817844Y-89750331D01*
X104820530Y-89750500D01*
X104878288Y-89750500D01*
X104886201Y-89750749D01*
X104941159Y-89754207D01*
X104948944Y-89752722D01*
X104949103Y-89752712D01*
X104972501Y-89750500D01*
X105578288Y-89750500D01*
X105586201Y-89750749D01*
X105641159Y-89754207D01*
X105648942Y-89752722D01*
X105648946Y-89752722D01*
X105697911Y-89743381D01*
X105705729Y-89742143D01*
X105755148Y-89735900D01*
X105763016Y-89734906D01*
X105771172Y-89731677D01*
X105793936Y-89725063D01*
X105802561Y-89723418D01*
X105809731Y-89720044D01*
X105809734Y-89720043D01*
X105854831Y-89698822D01*
X105862095Y-89695678D01*
X105908420Y-89677337D01*
X105915790Y-89674419D01*
X105922882Y-89669266D01*
X105943302Y-89657190D01*
X105944060Y-89656834D01*
X105944067Y-89656830D01*
X105951234Y-89653457D01*
X105995739Y-89616640D01*
X106001990Y-89611791D01*
X106042307Y-89582499D01*
X106048721Y-89577839D01*
X106054311Y-89571082D01*
X106071084Y-89554309D01*
X106071732Y-89553773D01*
X106077839Y-89548721D01*
X106111793Y-89501987D01*
X106116642Y-89495736D01*
X106148403Y-89457343D01*
X106153457Y-89451234D01*
X106156830Y-89444067D01*
X106156834Y-89444060D01*
X106157190Y-89443302D01*
X106169267Y-89422881D01*
X106174419Y-89415790D01*
X106195678Y-89362094D01*
X106198822Y-89354831D01*
X106220043Y-89309734D01*
X106220044Y-89309731D01*
X106223418Y-89302561D01*
X106225063Y-89293936D01*
X106231678Y-89271168D01*
X106231988Y-89270385D01*
X106234906Y-89263016D01*
X106242148Y-89205692D01*
X106243381Y-89197908D01*
X106252722Y-89148943D01*
X106254207Y-89141159D01*
X106253656Y-89132404D01*
X106254401Y-89108696D01*
X106254506Y-89107865D01*
X106255500Y-89100000D01*
X106248260Y-89042685D01*
X106247517Y-89034823D01*
X106244387Y-88985082D01*
X106244387Y-88985080D01*
X106243889Y-88977172D01*
X106241180Y-88968835D01*
X106236005Y-88945682D01*
X106235900Y-88944847D01*
X106235899Y-88944841D01*
X106234906Y-88936984D01*
X106229125Y-88922382D01*
X106222646Y-88851684D01*
X106255418Y-88788704D01*
X106346277Y-88750000D01*
X120624000Y-88750000D01*
X120692121Y-88770002D01*
X120738614Y-88823658D01*
X120750000Y-88876000D01*
X120750001Y-101124000D01*
X120729999Y-101192121D01*
X120676343Y-101238614D01*
X120624001Y-101250000D01*
X115719856Y-101250000D01*
X115651735Y-101229998D01*
X115605242Y-101176342D01*
X115595138Y-101106068D01*
X115622523Y-101049153D01*
X115620225Y-101047484D01*
X115624883Y-101041074D01*
X115630311Y-101035293D01*
X115709468Y-100891306D01*
X115750331Y-100732156D01*
X115750500Y-100729470D01*
X115750500Y-100597503D01*
X115751494Y-100581711D01*
X115754506Y-100557868D01*
X115755500Y-100550000D01*
X115751494Y-100518289D01*
X115750500Y-100502497D01*
X115750500Y-99947503D01*
X115751494Y-99931711D01*
X115754506Y-99907868D01*
X115755500Y-99900000D01*
X115751494Y-99868289D01*
X115750500Y-99852497D01*
X115750500Y-99297503D01*
X115751494Y-99281711D01*
X115754506Y-99257868D01*
X115755500Y-99250000D01*
X115751494Y-99218289D01*
X115750500Y-99202497D01*
X115750500Y-98647503D01*
X115751494Y-98631711D01*
X115754506Y-98607866D01*
X115755500Y-98600000D01*
X115746068Y-98525331D01*
X115745461Y-98520530D01*
X115745254Y-98518889D01*
X115734906Y-98436984D01*
X115727205Y-98417534D01*
X115677339Y-98291584D01*
X115677337Y-98291581D01*
X115674419Y-98284210D01*
X115577839Y-98151279D01*
X115564575Y-98140306D01*
X115457343Y-98051596D01*
X115457339Y-98051593D01*
X115451234Y-98046543D01*
X115302561Y-97976582D01*
X115294778Y-97975097D01*
X115294777Y-97975097D01*
X115148945Y-97947278D01*
X115148943Y-97947278D01*
X115141159Y-97945793D01*
X115059166Y-97950952D01*
X114985083Y-97955613D01*
X114985081Y-97955613D01*
X114977172Y-97956111D01*
X114969636Y-97958560D01*
X114969634Y-97958560D01*
X114828444Y-98004435D01*
X114828441Y-98004437D01*
X114820902Y-98006886D01*
X114682169Y-98094929D01*
X114676742Y-98100708D01*
X114676741Y-98100709D01*
X114577675Y-98206203D01*
X114569689Y-98214707D01*
X114490532Y-98358694D01*
X114488560Y-98366375D01*
X114453138Y-98504335D01*
X114449669Y-98517844D01*
X114449669Y-98517860D01*
X114449501Y-98520530D01*
X114449500Y-100689578D01*
X114465094Y-100813015D01*
X114468013Y-100820387D01*
X114522458Y-100957901D01*
X114525581Y-100965789D01*
X114586720Y-101049939D01*
X114610578Y-101116806D01*
X114594498Y-101185958D01*
X114543584Y-101235438D01*
X114484784Y-101250000D01*
X101111391Y-101250000D01*
X101043270Y-101229998D01*
X100996777Y-101176342D01*
X100986673Y-101106068D01*
X101021722Y-101036052D01*
X101030312Y-101030312D01*
X101073425Y-100965789D01*
X101078696Y-100957901D01*
X101078697Y-100957899D01*
X101085589Y-100947584D01*
X101093877Y-100905921D01*
X101103793Y-100856067D01*
X101105000Y-100850000D01*
X101105000Y-99150000D01*
X101085589Y-99052416D01*
X101078697Y-99042101D01*
X101078696Y-99042099D01*
X101037205Y-98980004D01*
X101030312Y-98969688D01*
X100965584Y-98926438D01*
X100957901Y-98921304D01*
X100957899Y-98921303D01*
X100947584Y-98914411D01*
X100935417Y-98911991D01*
X100935415Y-98911990D01*
X100860959Y-98897180D01*
X100850000Y-98895000D01*
X99150000Y-98895000D01*
X99139041Y-98897180D01*
X99064585Y-98911990D01*
X99064583Y-98911991D01*
X99052416Y-98914411D01*
X99042101Y-98921303D01*
X99042099Y-98921304D01*
X99034416Y-98926438D01*
X98969688Y-98969688D01*
X98962795Y-98980004D01*
X98921304Y-99042099D01*
X98921303Y-99042101D01*
X98914411Y-99052416D01*
X98895000Y-99150000D01*
X98895000Y-100850000D01*
X98896207Y-100856067D01*
X98906124Y-100905921D01*
X98914411Y-100947584D01*
X98921303Y-100957899D01*
X98921304Y-100957901D01*
X98926575Y-100965789D01*
X98969688Y-101030312D01*
X98978360Y-101036106D01*
X99011730Y-101097217D01*
X99006665Y-101168032D01*
X98964118Y-101224868D01*
X98888609Y-101250000D01*
X97960621Y-101250000D01*
X97892500Y-101229998D01*
X97846007Y-101176342D01*
X97835903Y-101106068D01*
X97865397Y-101041488D01*
X97908773Y-101009162D01*
X97909043Y-101009040D01*
X97914723Y-101007101D01*
X98096958Y-100902945D01*
X98256209Y-100766209D01*
X98283248Y-100732156D01*
X98383006Y-100606517D01*
X98386731Y-100601826D01*
X98413768Y-100550000D01*
X98481041Y-100421043D01*
X98483814Y-100415728D01*
X98543955Y-100214629D01*
X98564985Y-100005786D01*
X98565000Y-100000000D01*
X98545064Y-99791050D01*
X98485977Y-99589639D01*
X98457004Y-99533384D01*
X98392615Y-99408365D01*
X98392613Y-99408362D01*
X98389869Y-99403034D01*
X98260210Y-99237970D01*
X98255679Y-99234038D01*
X98255676Y-99234035D01*
X98106207Y-99104333D01*
X98101677Y-99100402D01*
X98096491Y-99097402D01*
X98096487Y-99097399D01*
X97925186Y-98998300D01*
X97919990Y-98995294D01*
X97721706Y-98926438D01*
X97715771Y-98925577D01*
X97715769Y-98925577D01*
X97519919Y-98897180D01*
X97519916Y-98897180D01*
X97513979Y-98896319D01*
X97304304Y-98906024D01*
X97173445Y-98937561D01*
X97106080Y-98953796D01*
X97106078Y-98953797D01*
X97100247Y-98955202D01*
X97094789Y-98957684D01*
X97094785Y-98957685D01*
X97012069Y-98995294D01*
X96909171Y-99042079D01*
X96737970Y-99163520D01*
X96733828Y-99167847D01*
X96609710Y-99297503D01*
X96592822Y-99315144D01*
X96589571Y-99320179D01*
X96481852Y-99487006D01*
X96428097Y-99533384D01*
X96357801Y-99543337D01*
X96293284Y-99513705D01*
X96250000Y-99418658D01*
X96250000Y-98040401D01*
X96270002Y-97972280D01*
X96323658Y-97925787D01*
X96393932Y-97915683D01*
X96458512Y-97945177D01*
X96482207Y-97972608D01*
X96589248Y-98140306D01*
X96733600Y-98292688D01*
X96738465Y-98296178D01*
X96738468Y-98296180D01*
X96883057Y-98399886D01*
X96904163Y-98415024D01*
X96968664Y-98444759D01*
X97088624Y-98500061D01*
X97094782Y-98502900D01*
X97100598Y-98504334D01*
X97100601Y-98504335D01*
X97185761Y-98525331D01*
X97298578Y-98553146D01*
X97304568Y-98553455D01*
X97304570Y-98553455D01*
X97378178Y-98557248D01*
X97508199Y-98563948D01*
X97514134Y-98563119D01*
X97514138Y-98563119D01*
X97666960Y-98541777D01*
X97716081Y-98534917D01*
X97914723Y-98467101D01*
X98096958Y-98362945D01*
X98256209Y-98226209D01*
X98386731Y-98061826D01*
X98391467Y-98052749D01*
X98481041Y-97881043D01*
X98483814Y-97875728D01*
X98502418Y-97813522D01*
X98530432Y-97719847D01*
X98543955Y-97674629D01*
X98544899Y-97665260D01*
X98554835Y-97566582D01*
X98555289Y-97562069D01*
X98899724Y-97562069D01*
X98913322Y-97633694D01*
X98937318Y-97760082D01*
X98938875Y-97768285D01*
X99016315Y-97963377D01*
X99019539Y-97968428D01*
X99019540Y-97968430D01*
X99046799Y-98011136D01*
X99129248Y-98140306D01*
X99273600Y-98292688D01*
X99278465Y-98296178D01*
X99278468Y-98296180D01*
X99423057Y-98399886D01*
X99444163Y-98415024D01*
X99508664Y-98444759D01*
X99628624Y-98500061D01*
X99634782Y-98502900D01*
X99640598Y-98504334D01*
X99640601Y-98504335D01*
X99725761Y-98525331D01*
X99838578Y-98553146D01*
X99844568Y-98553455D01*
X99844570Y-98553455D01*
X99918178Y-98557248D01*
X100048199Y-98563948D01*
X100054134Y-98563119D01*
X100054138Y-98563119D01*
X100206960Y-98541777D01*
X100256081Y-98534917D01*
X100454723Y-98467101D01*
X100636958Y-98362945D01*
X100796209Y-98226209D01*
X100926731Y-98061826D01*
X100931467Y-98052749D01*
X101021041Y-97881043D01*
X101023814Y-97875728D01*
X101036341Y-97833841D01*
X108270793Y-97833841D01*
X108271291Y-97841752D01*
X108274420Y-97891486D01*
X108274669Y-97899398D01*
X108274669Y-97957156D01*
X108276641Y-97964837D01*
X108276851Y-97965655D01*
X108280560Y-97989073D01*
X108281111Y-97997828D01*
X108283561Y-98005368D01*
X108298956Y-98052749D01*
X108301165Y-98060350D01*
X108315532Y-98116306D01*
X108319350Y-98123251D01*
X108319756Y-98123989D01*
X108329175Y-98145755D01*
X108331886Y-98154098D01*
X108336133Y-98160790D01*
X108362825Y-98202850D01*
X108366855Y-98209663D01*
X108394689Y-98260293D01*
X108400114Y-98266070D01*
X108400697Y-98266691D01*
X108415229Y-98285425D01*
X108419929Y-98292831D01*
X108462049Y-98332384D01*
X108467616Y-98337951D01*
X108507169Y-98380071D01*
X108513860Y-98384317D01*
X108514575Y-98384771D01*
X108533309Y-98399303D01*
X108539707Y-98405311D01*
X108546650Y-98409128D01*
X108590337Y-98433145D01*
X108597150Y-98437175D01*
X108645902Y-98468114D01*
X108654245Y-98470825D01*
X108676008Y-98480243D01*
X108683694Y-98484468D01*
X108691369Y-98486439D01*
X108691370Y-98486439D01*
X108739650Y-98498835D01*
X108747251Y-98501044D01*
X108802172Y-98518889D01*
X108810085Y-98519387D01*
X108810927Y-98519440D01*
X108834345Y-98523149D01*
X108837090Y-98523854D01*
X108837093Y-98523854D01*
X108842844Y-98525331D01*
X108845530Y-98525500D01*
X108903288Y-98525500D01*
X108911201Y-98525749D01*
X108966159Y-98529207D01*
X108973944Y-98527722D01*
X108974103Y-98527712D01*
X108997501Y-98525500D01*
X109578288Y-98525500D01*
X109586201Y-98525749D01*
X109641159Y-98529207D01*
X109648944Y-98527722D01*
X109649103Y-98527712D01*
X109672501Y-98525500D01*
X110278288Y-98525500D01*
X110286201Y-98525749D01*
X110341159Y-98529207D01*
X110348944Y-98527722D01*
X110349103Y-98527712D01*
X110372501Y-98525500D01*
X110953288Y-98525500D01*
X110961201Y-98525749D01*
X111016159Y-98529207D01*
X111023942Y-98527722D01*
X111023946Y-98527722D01*
X111072911Y-98518381D01*
X111080729Y-98517143D01*
X111130148Y-98510900D01*
X111138016Y-98509906D01*
X111146172Y-98506677D01*
X111168936Y-98500063D01*
X111177561Y-98498418D01*
X111184731Y-98495044D01*
X111184734Y-98495043D01*
X111229831Y-98473822D01*
X111237095Y-98470678D01*
X111283420Y-98452337D01*
X111290790Y-98449419D01*
X111297882Y-98444266D01*
X111318302Y-98432190D01*
X111319060Y-98431834D01*
X111319067Y-98431830D01*
X111326234Y-98428457D01*
X111370739Y-98391640D01*
X111376990Y-98386791D01*
X111417307Y-98357499D01*
X111423721Y-98352839D01*
X111429311Y-98346082D01*
X111446084Y-98329309D01*
X111446732Y-98328773D01*
X111452839Y-98323721D01*
X111486793Y-98276987D01*
X111491642Y-98270736D01*
X111523403Y-98232343D01*
X111528457Y-98226234D01*
X111531830Y-98219067D01*
X111531834Y-98219060D01*
X111532190Y-98218302D01*
X111544267Y-98197881D01*
X111549419Y-98190790D01*
X111570678Y-98137094D01*
X111573822Y-98129831D01*
X111595043Y-98084734D01*
X111595044Y-98084731D01*
X111598418Y-98077561D01*
X111600063Y-98068936D01*
X111606678Y-98046168D01*
X111606988Y-98045385D01*
X111609906Y-98038016D01*
X111617148Y-97980692D01*
X111618381Y-97972908D01*
X111618439Y-97972609D01*
X111629207Y-97916159D01*
X111628656Y-97907404D01*
X111629401Y-97883696D01*
X111629506Y-97882865D01*
X111630500Y-97875000D01*
X111623260Y-97817685D01*
X111622517Y-97809823D01*
X111619387Y-97760082D01*
X111619387Y-97760080D01*
X111618889Y-97752172D01*
X111616180Y-97743835D01*
X111611005Y-97720682D01*
X111610900Y-97719847D01*
X111610899Y-97719841D01*
X111609906Y-97711984D01*
X111606990Y-97704619D01*
X111606989Y-97704615D01*
X111588642Y-97658277D01*
X111585961Y-97650830D01*
X111570565Y-97603447D01*
X111568114Y-97595902D01*
X111563864Y-97589206D01*
X111563862Y-97589201D01*
X111563414Y-97588495D01*
X111552648Y-97567366D01*
X111552338Y-97566582D01*
X111552337Y-97566579D01*
X111549419Y-97559210D01*
X111544757Y-97552793D01*
X111515463Y-97512473D01*
X111511014Y-97505926D01*
X111484321Y-97463864D01*
X111484316Y-97463857D01*
X111480071Y-97457169D01*
X111474296Y-97451746D01*
X111474293Y-97451742D01*
X111473676Y-97451163D01*
X111458001Y-97433383D01*
X111457502Y-97432696D01*
X111457499Y-97432693D01*
X111452839Y-97426279D01*
X111408329Y-97389458D01*
X111402394Y-97384225D01*
X111393323Y-97375707D01*
X111360293Y-97344689D01*
X111353341Y-97340867D01*
X111352605Y-97340462D01*
X111332991Y-97327133D01*
X111326234Y-97321543D01*
X111319066Y-97318170D01*
X111319063Y-97318168D01*
X111273972Y-97296950D01*
X111266921Y-97293357D01*
X111223258Y-97269353D01*
X111223252Y-97269351D01*
X111216306Y-97265532D01*
X111207815Y-97263352D01*
X111185498Y-97255317D01*
X111184740Y-97254960D01*
X111184738Y-97254959D01*
X111177561Y-97251582D01*
X111169771Y-97250096D01*
X111169768Y-97250095D01*
X111120810Y-97240756D01*
X111113106Y-97239035D01*
X111057156Y-97224669D01*
X111054470Y-97224500D01*
X111047501Y-97224500D01*
X111024103Y-97222288D01*
X111023944Y-97222278D01*
X111016159Y-97220793D01*
X110965686Y-97223969D01*
X110961200Y-97224251D01*
X110953288Y-97224500D01*
X110372501Y-97224500D01*
X110349103Y-97222288D01*
X110348944Y-97222278D01*
X110341159Y-97220793D01*
X110290686Y-97223969D01*
X110286200Y-97224251D01*
X110278288Y-97224500D01*
X109672501Y-97224500D01*
X109649103Y-97222288D01*
X109648944Y-97222278D01*
X109641159Y-97220793D01*
X109590686Y-97223969D01*
X109586200Y-97224251D01*
X109578288Y-97224500D01*
X108997501Y-97224500D01*
X108974103Y-97222288D01*
X108973944Y-97222278D01*
X108966159Y-97220793D01*
X108915686Y-97223969D01*
X108911200Y-97224251D01*
X108903288Y-97224500D01*
X108885421Y-97224500D01*
X108870044Y-97226442D01*
X108867687Y-97226740D01*
X108859810Y-97227484D01*
X108810082Y-97230613D01*
X108810080Y-97230613D01*
X108802172Y-97231111D01*
X108793835Y-97233820D01*
X108770682Y-97238995D01*
X108769847Y-97239100D01*
X108769841Y-97239101D01*
X108761984Y-97240094D01*
X108754619Y-97243010D01*
X108754615Y-97243011D01*
X108708277Y-97261358D01*
X108700831Y-97264039D01*
X108645902Y-97281886D01*
X108639206Y-97286136D01*
X108639201Y-97286138D01*
X108638495Y-97286586D01*
X108617366Y-97297352D01*
X108616582Y-97297662D01*
X108616579Y-97297663D01*
X108609210Y-97300581D01*
X108602795Y-97305242D01*
X108602793Y-97305243D01*
X108562473Y-97334537D01*
X108555926Y-97338986D01*
X108513864Y-97365679D01*
X108513857Y-97365684D01*
X108507169Y-97369929D01*
X108501746Y-97375704D01*
X108501742Y-97375707D01*
X108501163Y-97376324D01*
X108483383Y-97391999D01*
X108482696Y-97392498D01*
X108482693Y-97392501D01*
X108476279Y-97397161D01*
X108471226Y-97403269D01*
X108439461Y-97441667D01*
X108434227Y-97447604D01*
X108394689Y-97489707D01*
X108390868Y-97496658D01*
X108390867Y-97496659D01*
X108390462Y-97497395D01*
X108377133Y-97517009D01*
X108371543Y-97523766D01*
X108368170Y-97530934D01*
X108368168Y-97530937D01*
X108346950Y-97576028D01*
X108343357Y-97583079D01*
X108319353Y-97626742D01*
X108319351Y-97626748D01*
X108315532Y-97633694D01*
X108313560Y-97641376D01*
X108313352Y-97642185D01*
X108305317Y-97664502D01*
X108301582Y-97672439D01*
X108300096Y-97680229D01*
X108300095Y-97680232D01*
X108290756Y-97729190D01*
X108289035Y-97736894D01*
X108274669Y-97792844D01*
X108274669Y-97801613D01*
X108272437Y-97825222D01*
X108270793Y-97833841D01*
X101036341Y-97833841D01*
X101042418Y-97813522D01*
X101070432Y-97719847D01*
X101083955Y-97674629D01*
X101084899Y-97665260D01*
X101094835Y-97566582D01*
X101104985Y-97465786D01*
X101105000Y-97460000D01*
X101103818Y-97447606D01*
X101093047Y-97334725D01*
X101085064Y-97251050D01*
X101081528Y-97238995D01*
X101054294Y-97146163D01*
X101025977Y-97049639D01*
X100997004Y-96993384D01*
X100932615Y-96868365D01*
X100932613Y-96868362D01*
X100929869Y-96863034D01*
X100800210Y-96697970D01*
X100795679Y-96694038D01*
X100795676Y-96694035D01*
X100646207Y-96564333D01*
X100641677Y-96560402D01*
X100636491Y-96557402D01*
X100636487Y-96557399D01*
X100465186Y-96458300D01*
X100459990Y-96455294D01*
X100261706Y-96386438D01*
X100255771Y-96385577D01*
X100255769Y-96385577D01*
X100059919Y-96357180D01*
X100059916Y-96357180D01*
X100053979Y-96356319D01*
X99844304Y-96366024D01*
X99713445Y-96397561D01*
X99646080Y-96413796D01*
X99646078Y-96413797D01*
X99640247Y-96415202D01*
X99634789Y-96417684D01*
X99634785Y-96417685D01*
X99552069Y-96455294D01*
X99449171Y-96502079D01*
X99277970Y-96623520D01*
X99132822Y-96775144D01*
X99129571Y-96780179D01*
X99079117Y-96858319D01*
X99018964Y-96951479D01*
X99016722Y-96957042D01*
X98981552Y-97044311D01*
X98940504Y-97146163D01*
X98924769Y-97226740D01*
X98902561Y-97340462D01*
X98900274Y-97352171D01*
X98900258Y-97358157D01*
X98900258Y-97358160D01*
X98900168Y-97392498D01*
X98899724Y-97562069D01*
X98555289Y-97562069D01*
X98564985Y-97465786D01*
X98565000Y-97460000D01*
X98563818Y-97447606D01*
X98553047Y-97334725D01*
X98545064Y-97251050D01*
X98541528Y-97238995D01*
X98514294Y-97146163D01*
X98485977Y-97049639D01*
X98457004Y-96993384D01*
X98392615Y-96868365D01*
X98392613Y-96868362D01*
X98389869Y-96863034D01*
X98260210Y-96697970D01*
X98255679Y-96694038D01*
X98255676Y-96694035D01*
X98106207Y-96564333D01*
X98101677Y-96560402D01*
X98096491Y-96557402D01*
X98096487Y-96557399D01*
X97925186Y-96458300D01*
X97919990Y-96455294D01*
X97721706Y-96386438D01*
X97715771Y-96385577D01*
X97715769Y-96385577D01*
X97519919Y-96357180D01*
X97519916Y-96357180D01*
X97513979Y-96356319D01*
X97304304Y-96366024D01*
X97173445Y-96397561D01*
X97106080Y-96413796D01*
X97106078Y-96413797D01*
X97100247Y-96415202D01*
X97094789Y-96417684D01*
X97094785Y-96417685D01*
X97012069Y-96455294D01*
X96909171Y-96502079D01*
X96737970Y-96623520D01*
X96592822Y-96775144D01*
X96589571Y-96780179D01*
X96481852Y-96947006D01*
X96428097Y-96993384D01*
X96357801Y-97003337D01*
X96293284Y-96973705D01*
X96250000Y-96878658D01*
X96250000Y-95429623D01*
X105438880Y-95429623D01*
X105477905Y-95575265D01*
X105554658Y-95705048D01*
X105663485Y-95809409D01*
X105796368Y-95880660D01*
X105838874Y-95890161D01*
X105935131Y-95911678D01*
X105935135Y-95911678D01*
X105943517Y-95913552D01*
X106037950Y-95908603D01*
X106085507Y-95906111D01*
X106085508Y-95906111D01*
X106094090Y-95905661D01*
X106236995Y-95857568D01*
X106361702Y-95772817D01*
X106367245Y-95766258D01*
X106367247Y-95766256D01*
X106453481Y-95664211D01*
X106459024Y-95657652D01*
X106521791Y-95520557D01*
X106545378Y-95371634D01*
X106545500Y-95360000D01*
X106525037Y-95210615D01*
X106477170Y-95100000D01*
X108869500Y-95100000D01*
X108890132Y-95256715D01*
X108950622Y-95402750D01*
X109046847Y-95528153D01*
X109172250Y-95624378D01*
X109318285Y-95684868D01*
X109475000Y-95705500D01*
X109483188Y-95704422D01*
X109623527Y-95685946D01*
X109631715Y-95684868D01*
X109777750Y-95624378D01*
X109903153Y-95528153D01*
X109999378Y-95402750D01*
X110059868Y-95256715D01*
X110080500Y-95100000D01*
X110059868Y-94943285D01*
X109999378Y-94797250D01*
X109903153Y-94671847D01*
X109777750Y-94575622D01*
X109631715Y-94515132D01*
X109475000Y-94494500D01*
X109318285Y-94515132D01*
X109172250Y-94575622D01*
X109046847Y-94671847D01*
X108950622Y-94797250D01*
X108890132Y-94943285D01*
X108869500Y-95100000D01*
X106477170Y-95100000D01*
X106468567Y-95080120D01*
X106468566Y-95080118D01*
X106465155Y-95072236D01*
X106370266Y-94955058D01*
X106363264Y-94950082D01*
X106363262Y-94950080D01*
X106254363Y-94872690D01*
X106247361Y-94867714D01*
X106105495Y-94816639D01*
X106096935Y-94816010D01*
X106096933Y-94816010D01*
X106018122Y-94810223D01*
X105955120Y-94805596D01*
X105807315Y-94835399D01*
X105672969Y-94903852D01*
X105666647Y-94909665D01*
X105666646Y-94909666D01*
X105610020Y-94961736D01*
X105561980Y-95005911D01*
X105557452Y-95013214D01*
X105557451Y-95013215D01*
X105515968Y-95080120D01*
X105482525Y-95134058D01*
X105440459Y-95278851D01*
X105438880Y-95429623D01*
X96250000Y-95429623D01*
X96250000Y-92960401D01*
X96270002Y-92892280D01*
X96323658Y-92845787D01*
X96393932Y-92835683D01*
X96458512Y-92865177D01*
X96482207Y-92892608D01*
X96589248Y-93060306D01*
X96733600Y-93212688D01*
X96738465Y-93216178D01*
X96738468Y-93216180D01*
X96853521Y-93298701D01*
X96904163Y-93335024D01*
X96909608Y-93337534D01*
X97080353Y-93416248D01*
X97094782Y-93422900D01*
X97100598Y-93424334D01*
X97100601Y-93424335D01*
X97188114Y-93445911D01*
X97298578Y-93473146D01*
X97304568Y-93473455D01*
X97304570Y-93473455D01*
X97378178Y-93477248D01*
X97508199Y-93483948D01*
X97514134Y-93483119D01*
X97514138Y-93483119D01*
X97666960Y-93461777D01*
X97716081Y-93454917D01*
X97914723Y-93387101D01*
X98096958Y-93282945D01*
X98256209Y-93146209D01*
X98386731Y-92981826D01*
X98389746Y-92976048D01*
X98481041Y-92801043D01*
X98483814Y-92795728D01*
X98543955Y-92594629D01*
X98550014Y-92534464D01*
X98555269Y-92482273D01*
X98564985Y-92385786D01*
X98565000Y-92380000D01*
X98562886Y-92357837D01*
X98551951Y-92243236D01*
X98545064Y-92171050D01*
X98485977Y-91969639D01*
X98483233Y-91964311D01*
X98392615Y-91788365D01*
X98392613Y-91788362D01*
X98389869Y-91783034D01*
X98260210Y-91617970D01*
X98160109Y-91531107D01*
X98121769Y-91471355D01*
X98121820Y-91400358D01*
X98160247Y-91340659D01*
X98224849Y-91311213D01*
X98291784Y-91319901D01*
X98360539Y-91348989D01*
X98437291Y-91381461D01*
X98443682Y-91384165D01*
X98446414Y-91385037D01*
X98446430Y-91385043D01*
X98473201Y-91393588D01*
X98512888Y-91414669D01*
X98536693Y-91433435D01*
X98545238Y-91436436D01*
X98552603Y-91441699D01*
X98601124Y-91456210D01*
X98606766Y-91458043D01*
X98647098Y-91472207D01*
X98647104Y-91472208D01*
X98654581Y-91474834D01*
X98662271Y-91475500D01*
X98665007Y-91475500D01*
X98665730Y-91475531D01*
X98672310Y-91477499D01*
X98720723Y-91475597D01*
X98725669Y-91475500D01*
X99048039Y-91475500D01*
X99116160Y-91495502D01*
X99162653Y-91549158D01*
X99172757Y-91619432D01*
X99140398Y-91685877D01*
X99140686Y-91686105D01*
X99139644Y-91687424D01*
X99139056Y-91688632D01*
X99132822Y-91695144D01*
X99129571Y-91700179D01*
X99062985Y-91803303D01*
X99018964Y-91871479D01*
X99016722Y-91877042D01*
X98981552Y-91964311D01*
X98940504Y-92066163D01*
X98921146Y-92165292D01*
X98904822Y-92248884D01*
X98900274Y-92272171D01*
X98900258Y-92278157D01*
X98900258Y-92278160D01*
X98900006Y-92374280D01*
X98899724Y-92482069D01*
X98938875Y-92688285D01*
X99016315Y-92883377D01*
X99019539Y-92888428D01*
X99019540Y-92888430D01*
X99073099Y-92972339D01*
X99129248Y-93060306D01*
X99273600Y-93212688D01*
X99278465Y-93216178D01*
X99278468Y-93216180D01*
X99393521Y-93298701D01*
X99444163Y-93335024D01*
X99449608Y-93337534D01*
X99620353Y-93416248D01*
X99634782Y-93422900D01*
X99640598Y-93424334D01*
X99640601Y-93424335D01*
X99728114Y-93445911D01*
X99838578Y-93473146D01*
X99844568Y-93473455D01*
X99844570Y-93473455D01*
X99918178Y-93477248D01*
X100048199Y-93483948D01*
X100054134Y-93483119D01*
X100054138Y-93483119D01*
X100206960Y-93461777D01*
X100256081Y-93454917D01*
X100454723Y-93387101D01*
X100530393Y-93343852D01*
X100571071Y-93320603D01*
X100640139Y-93304166D01*
X100707129Y-93327679D01*
X100750772Y-93383678D01*
X100757212Y-93454382D01*
X100740681Y-93496391D01*
X100692525Y-93574058D01*
X100650459Y-93718851D01*
X100648880Y-93869623D01*
X100687905Y-94015265D01*
X100764658Y-94145048D01*
X100873485Y-94249409D01*
X101006368Y-94320660D01*
X101048874Y-94330161D01*
X101145131Y-94351678D01*
X101145135Y-94351678D01*
X101153517Y-94353552D01*
X101247950Y-94348603D01*
X101295507Y-94346111D01*
X101295508Y-94346111D01*
X101304090Y-94345661D01*
X101446995Y-94297568D01*
X101571702Y-94212817D01*
X101576092Y-94207622D01*
X101659771Y-94175500D01*
X102452273Y-94175500D01*
X102541368Y-94212405D01*
X103007289Y-94678326D01*
X103020417Y-94694580D01*
X103022922Y-94697333D01*
X103028571Y-94706082D01*
X103036749Y-94712529D01*
X103053327Y-94725598D01*
X103058036Y-94729783D01*
X103058085Y-94729726D01*
X103062042Y-94733079D01*
X103065723Y-94736760D01*
X103082183Y-94748523D01*
X103086911Y-94752074D01*
X103126694Y-94783436D01*
X103135239Y-94786437D01*
X103142604Y-94791700D01*
X103191125Y-94806211D01*
X103196767Y-94808044D01*
X103237099Y-94822208D01*
X103237105Y-94822209D01*
X103244582Y-94824835D01*
X103252272Y-94825501D01*
X103255008Y-94825501D01*
X103255731Y-94825532D01*
X103262311Y-94827500D01*
X103310724Y-94825598D01*
X103315670Y-94825501D01*
X104747406Y-94825501D01*
X104768173Y-94827711D01*
X104771898Y-94827887D01*
X104782077Y-94830078D01*
X104813371Y-94826374D01*
X104819667Y-94826003D01*
X104819661Y-94825929D01*
X104824841Y-94825501D01*
X104830040Y-94825501D01*
X104835164Y-94824648D01*
X104835177Y-94824647D01*
X104849979Y-94822183D01*
X104855854Y-94821346D01*
X104895819Y-94816616D01*
X104895822Y-94816615D01*
X104906157Y-94815392D01*
X104914318Y-94811473D01*
X104923252Y-94809986D01*
X104932716Y-94804880D01*
X104962646Y-94788730D01*
X104967860Y-94785917D01*
X104973107Y-94783243D01*
X105018790Y-94761306D01*
X105024699Y-94756340D01*
X105026637Y-94754402D01*
X105027165Y-94753918D01*
X105033212Y-94750655D01*
X105046057Y-94736760D01*
X105066125Y-94715050D01*
X105069555Y-94711484D01*
X105361416Y-94419623D01*
X106398878Y-94419623D01*
X106437903Y-94565265D01*
X106514656Y-94695048D01*
X106623483Y-94799409D01*
X106756366Y-94870660D01*
X106765448Y-94872690D01*
X106895129Y-94901678D01*
X106895133Y-94901678D01*
X106903515Y-94903552D01*
X106997948Y-94898603D01*
X107045505Y-94896111D01*
X107045506Y-94896111D01*
X107054088Y-94895661D01*
X107196993Y-94847568D01*
X107209161Y-94839299D01*
X107229671Y-94825360D01*
X107321700Y-94762817D01*
X107327243Y-94756258D01*
X107327245Y-94756256D01*
X107413479Y-94654211D01*
X107419022Y-94647652D01*
X107422597Y-94639844D01*
X107478214Y-94518366D01*
X107478214Y-94518364D01*
X107481789Y-94510557D01*
X107505376Y-94361634D01*
X107505498Y-94350000D01*
X107485035Y-94200615D01*
X107425153Y-94062236D01*
X107330264Y-93945058D01*
X107323262Y-93940082D01*
X107323260Y-93940080D01*
X107214361Y-93862690D01*
X107207359Y-93857714D01*
X107065493Y-93806639D01*
X107056933Y-93806010D01*
X107056931Y-93806010D01*
X106978120Y-93800223D01*
X106915118Y-93795596D01*
X106767313Y-93825399D01*
X106632967Y-93893852D01*
X106626645Y-93899665D01*
X106626644Y-93899666D01*
X106570018Y-93951736D01*
X106521978Y-93995911D01*
X106517450Y-94003214D01*
X106517449Y-94003215D01*
X106475966Y-94070120D01*
X106442523Y-94124058D01*
X106400457Y-94268851D01*
X106398878Y-94419623D01*
X105361416Y-94419623D01*
X107348325Y-92432714D01*
X107364579Y-92419586D01*
X107367332Y-92417081D01*
X107376081Y-92411432D01*
X107395597Y-92386676D01*
X107399782Y-92381967D01*
X107399725Y-92381918D01*
X107403078Y-92377961D01*
X107406759Y-92374280D01*
X107418522Y-92357820D01*
X107422073Y-92353092D01*
X107446987Y-92321488D01*
X107453435Y-92313309D01*
X107456436Y-92304764D01*
X107461699Y-92297399D01*
X107476210Y-92248878D01*
X107478043Y-92243236D01*
X107492207Y-92202904D01*
X107492208Y-92202898D01*
X107494834Y-92195421D01*
X107495500Y-92187731D01*
X107495500Y-92184995D01*
X107495531Y-92184272D01*
X107497499Y-92177692D01*
X107495597Y-92129279D01*
X107495500Y-92124333D01*
X107495500Y-92000000D01*
X110750000Y-92000000D01*
X110750000Y-94500000D01*
X111250000Y-95000000D01*
X119500000Y-95000000D01*
X120000000Y-94500000D01*
X120000000Y-92000000D01*
X119500000Y-91500000D01*
X115302190Y-91500000D01*
X115213095Y-91463095D01*
X114000000Y-90250000D01*
X112500000Y-90250000D01*
X110750000Y-92000000D01*
X107495500Y-92000000D01*
X107495500Y-91072595D01*
X107497710Y-91051828D01*
X107497886Y-91048103D01*
X107500077Y-91037924D01*
X107496373Y-91006629D01*
X107496002Y-91000333D01*
X107495928Y-91000339D01*
X107495900Y-91000000D01*
X109194500Y-91000000D01*
X109215132Y-91156715D01*
X109275622Y-91302750D01*
X109371847Y-91428153D01*
X109378393Y-91433176D01*
X109390096Y-91442156D01*
X109497250Y-91524378D01*
X109583295Y-91560019D01*
X109631439Y-91579961D01*
X109643285Y-91584868D01*
X109800000Y-91605500D01*
X109808188Y-91604422D01*
X109948527Y-91585946D01*
X109956715Y-91584868D01*
X109968562Y-91579961D01*
X110016705Y-91560019D01*
X110102750Y-91524378D01*
X110209904Y-91442156D01*
X110221607Y-91433176D01*
X110228153Y-91428153D01*
X110324378Y-91302750D01*
X110384868Y-91156715D01*
X110405500Y-91000000D01*
X110384868Y-90843285D01*
X110324378Y-90697250D01*
X110239725Y-90586928D01*
X110233176Y-90578393D01*
X110228153Y-90571847D01*
X110102750Y-90475622D01*
X109977489Y-90423737D01*
X109964344Y-90418292D01*
X109956715Y-90415132D01*
X109800000Y-90394500D01*
X109643285Y-90415132D01*
X109635656Y-90418292D01*
X109622511Y-90423737D01*
X109497250Y-90475622D01*
X109371847Y-90571847D01*
X109366824Y-90578393D01*
X109360275Y-90586928D01*
X109275622Y-90697250D01*
X109215132Y-90843285D01*
X109194500Y-91000000D01*
X107495900Y-91000000D01*
X107495500Y-90995161D01*
X107495500Y-90989961D01*
X107494646Y-90984829D01*
X107492181Y-90970019D01*
X107491344Y-90964141D01*
X107488611Y-90941048D01*
X107485391Y-90913843D01*
X107481472Y-90905681D01*
X107479985Y-90896749D01*
X107470022Y-90878285D01*
X107456132Y-90811642D01*
X107455378Y-90811634D01*
X107455414Y-90808197D01*
X107455500Y-90800000D01*
X107435037Y-90650615D01*
X107431625Y-90642730D01*
X107378567Y-90520120D01*
X107378566Y-90520118D01*
X107375155Y-90512236D01*
X107313839Y-90436517D01*
X107285674Y-90401736D01*
X107285673Y-90401735D01*
X107280266Y-90395058D01*
X107273264Y-90390082D01*
X107273262Y-90390080D01*
X107164363Y-90312690D01*
X107157361Y-90307714D01*
X107015495Y-90256639D01*
X107006935Y-90256010D01*
X107006933Y-90256010D01*
X106925090Y-90250000D01*
X106865120Y-90245596D01*
X106717315Y-90275399D01*
X106582969Y-90343852D01*
X106576647Y-90349665D01*
X106576646Y-90349666D01*
X106520020Y-90401736D01*
X106471980Y-90445911D01*
X106467452Y-90453214D01*
X106467451Y-90453215D01*
X106397051Y-90566758D01*
X106392525Y-90574058D01*
X106380787Y-90614461D01*
X106358564Y-90690952D01*
X106320351Y-90750788D01*
X106255855Y-90780465D01*
X106185552Y-90770562D01*
X106131181Y-90723312D01*
X106109319Y-90688861D01*
X106109314Y-90688855D01*
X106105071Y-90682169D01*
X106099296Y-90676746D01*
X106099293Y-90676742D01*
X106098676Y-90676163D01*
X106083001Y-90658383D01*
X106082502Y-90657696D01*
X106082499Y-90657693D01*
X106077839Y-90651279D01*
X106033329Y-90614458D01*
X106027394Y-90609225D01*
X106018323Y-90600707D01*
X105985293Y-90569689D01*
X105978341Y-90565867D01*
X105977605Y-90565462D01*
X105957991Y-90552133D01*
X105951234Y-90546543D01*
X105944066Y-90543170D01*
X105944063Y-90543168D01*
X105898972Y-90521950D01*
X105891921Y-90518357D01*
X105848258Y-90494353D01*
X105848252Y-90494351D01*
X105841306Y-90490532D01*
X105832815Y-90488352D01*
X105810498Y-90480317D01*
X105809740Y-90479960D01*
X105809738Y-90479959D01*
X105802561Y-90476582D01*
X105794771Y-90475096D01*
X105794768Y-90475095D01*
X105745810Y-90465756D01*
X105738106Y-90464035D01*
X105682156Y-90449669D01*
X105679470Y-90449500D01*
X105672501Y-90449500D01*
X105649103Y-90447288D01*
X105648944Y-90447278D01*
X105641159Y-90445793D01*
X105590686Y-90448969D01*
X105586200Y-90449251D01*
X105578288Y-90449500D01*
X104972501Y-90449500D01*
X104949103Y-90447288D01*
X104948944Y-90447278D01*
X104941159Y-90445793D01*
X104890686Y-90448969D01*
X104886200Y-90449251D01*
X104878288Y-90449500D01*
X104860421Y-90449500D01*
X104845044Y-90451442D01*
X104842687Y-90451740D01*
X104834810Y-90452484D01*
X104785082Y-90455613D01*
X104785080Y-90455613D01*
X104777172Y-90456111D01*
X104768835Y-90458820D01*
X104745682Y-90463995D01*
X104744847Y-90464100D01*
X104744841Y-90464101D01*
X104736984Y-90465094D01*
X104729619Y-90468010D01*
X104729615Y-90468011D01*
X104683277Y-90486358D01*
X104675831Y-90489039D01*
X104620902Y-90506886D01*
X104614206Y-90511136D01*
X104614201Y-90511138D01*
X104613495Y-90511586D01*
X104592366Y-90522352D01*
X104591582Y-90522662D01*
X104591579Y-90522663D01*
X104584210Y-90525581D01*
X104577795Y-90530242D01*
X104577793Y-90530243D01*
X104537473Y-90559537D01*
X104530926Y-90563986D01*
X104488864Y-90590679D01*
X104488857Y-90590684D01*
X104482169Y-90594929D01*
X104476746Y-90600704D01*
X104476742Y-90600707D01*
X104476163Y-90601324D01*
X104458383Y-90616999D01*
X104457696Y-90617498D01*
X104457693Y-90617501D01*
X104451279Y-90622161D01*
X104446226Y-90628269D01*
X104414461Y-90666667D01*
X104409227Y-90672604D01*
X104369689Y-90714707D01*
X104365868Y-90721658D01*
X104365867Y-90721659D01*
X104365462Y-90722395D01*
X104352133Y-90742009D01*
X104346543Y-90748766D01*
X104343170Y-90755934D01*
X104343168Y-90755937D01*
X104321950Y-90801028D01*
X104318357Y-90808079D01*
X104294353Y-90851742D01*
X104294351Y-90851748D01*
X104290532Y-90858694D01*
X104288560Y-90866376D01*
X104288352Y-90867185D01*
X104280317Y-90889502D01*
X104276582Y-90897439D01*
X104275096Y-90905229D01*
X104275095Y-90905232D01*
X104265756Y-90954190D01*
X104264035Y-90961894D01*
X104249669Y-91017844D01*
X104249669Y-91026613D01*
X104247437Y-91050222D01*
X104245793Y-91058841D01*
X104249120Y-91111715D01*
X104249420Y-91116486D01*
X104249669Y-91124398D01*
X104249669Y-91182156D01*
X104251641Y-91189837D01*
X104251851Y-91190655D01*
X104255560Y-91214073D01*
X104256111Y-91222828D01*
X104258561Y-91230368D01*
X104273956Y-91277749D01*
X104276165Y-91285350D01*
X104282806Y-91311213D01*
X104290532Y-91341306D01*
X104294350Y-91348251D01*
X104294756Y-91348989D01*
X104304175Y-91370755D01*
X104306886Y-91379098D01*
X104311133Y-91385790D01*
X104337825Y-91427850D01*
X104341855Y-91434663D01*
X104365872Y-91478350D01*
X104369689Y-91485293D01*
X104375114Y-91491070D01*
X104375697Y-91491691D01*
X104390229Y-91510425D01*
X104394929Y-91517831D01*
X104437049Y-91557384D01*
X104442616Y-91562951D01*
X104482169Y-91605071D01*
X104488860Y-91609317D01*
X104489575Y-91609771D01*
X104508309Y-91624303D01*
X104514707Y-91630311D01*
X104521650Y-91634128D01*
X104565337Y-91658145D01*
X104572150Y-91662175D01*
X104620902Y-91693114D01*
X104629245Y-91695825D01*
X104651008Y-91705243D01*
X104658694Y-91709468D01*
X104666369Y-91711439D01*
X104666370Y-91711439D01*
X104714650Y-91723835D01*
X104722251Y-91726044D01*
X104777172Y-91743889D01*
X104785085Y-91744387D01*
X104785927Y-91744440D01*
X104809345Y-91748149D01*
X104812090Y-91748854D01*
X104812093Y-91748854D01*
X104817844Y-91750331D01*
X104820530Y-91750500D01*
X104878288Y-91750500D01*
X104886201Y-91750749D01*
X104941159Y-91754207D01*
X104948944Y-91752722D01*
X104949103Y-91752712D01*
X104972501Y-91750500D01*
X105578288Y-91750500D01*
X105586201Y-91750749D01*
X105641159Y-91754207D01*
X105648942Y-91752722D01*
X105648946Y-91752722D01*
X105697911Y-91743381D01*
X105705729Y-91742143D01*
X105755148Y-91735900D01*
X105763016Y-91734906D01*
X105771172Y-91731677D01*
X105793936Y-91725063D01*
X105802561Y-91723418D01*
X105829239Y-91710864D01*
X105899393Y-91699958D01*
X105964306Y-91728710D01*
X105991342Y-91760734D01*
X106020890Y-91810697D01*
X106129717Y-91915058D01*
X106262600Y-91986309D01*
X106305106Y-91995810D01*
X106401363Y-92017327D01*
X106401367Y-92017327D01*
X106409749Y-92019201D01*
X106411125Y-92019129D01*
X106474092Y-92043505D01*
X106515932Y-92100863D01*
X106520121Y-92171736D01*
X106486437Y-92232527D01*
X106147596Y-92571369D01*
X105473370Y-93245596D01*
X105165852Y-93553114D01*
X105103539Y-93587139D01*
X105032724Y-93582075D01*
X104976882Y-93535838D01*
X104975155Y-93537236D01*
X104885674Y-93426736D01*
X104885673Y-93426735D01*
X104880266Y-93420058D01*
X104873264Y-93415082D01*
X104873262Y-93415080D01*
X104764363Y-93337690D01*
X104757361Y-93332714D01*
X104615495Y-93281639D01*
X104606935Y-93281010D01*
X104606933Y-93281010D01*
X104507401Y-93273701D01*
X104465120Y-93270596D01*
X104317315Y-93300399D01*
X104277663Y-93320603D01*
X104190618Y-93364954D01*
X104190615Y-93364956D01*
X104182969Y-93368852D01*
X104176647Y-93374665D01*
X104176646Y-93374666D01*
X104131425Y-93416248D01*
X104046139Y-93449500D01*
X103712728Y-93449500D01*
X103623633Y-93412596D01*
X103292714Y-93081678D01*
X103279586Y-93065422D01*
X103277077Y-93062665D01*
X103271430Y-93053919D01*
X103246669Y-93034399D01*
X103241965Y-93030219D01*
X103241917Y-93030276D01*
X103237956Y-93026920D01*
X103234277Y-93023241D01*
X103217859Y-93011509D01*
X103213118Y-93007950D01*
X103173307Y-92976565D01*
X103164760Y-92973564D01*
X103157396Y-92968301D01*
X103108852Y-92953783D01*
X103103246Y-92951961D01*
X103062902Y-92937793D01*
X103062896Y-92937792D01*
X103055419Y-92935166D01*
X103047729Y-92934500D01*
X103044993Y-92934500D01*
X103044268Y-92934469D01*
X103037689Y-92932501D01*
X102989659Y-92934388D01*
X102989277Y-92934403D01*
X102984331Y-92934500D01*
X102117728Y-92934500D01*
X102028633Y-92897596D01*
X101702405Y-92571369D01*
X101665500Y-92482273D01*
X101665500Y-91662595D01*
X101667710Y-91641828D01*
X101667886Y-91638103D01*
X101670077Y-91627924D01*
X101666373Y-91596629D01*
X101666002Y-91590333D01*
X101665928Y-91590339D01*
X101665500Y-91585161D01*
X101665500Y-91579961D01*
X101664646Y-91574829D01*
X101662181Y-91560019D01*
X101661344Y-91554141D01*
X101657226Y-91519351D01*
X101655391Y-91503843D01*
X101651472Y-91495681D01*
X101649985Y-91486749D01*
X101625910Y-91442131D01*
X101623238Y-91436885D01*
X101601305Y-91391210D01*
X101596339Y-91385302D01*
X101594407Y-91383370D01*
X101593916Y-91382835D01*
X101590654Y-91376789D01*
X101555074Y-91343899D01*
X101551508Y-91340471D01*
X101082714Y-90871678D01*
X101069586Y-90855422D01*
X101067077Y-90852665D01*
X101061430Y-90843919D01*
X101036669Y-90824399D01*
X101031965Y-90820219D01*
X101031917Y-90820276D01*
X101027956Y-90816920D01*
X101024277Y-90813241D01*
X101007859Y-90801509D01*
X101003118Y-90797950D01*
X100963307Y-90766565D01*
X100954760Y-90763564D01*
X100947396Y-90758301D01*
X100905930Y-90745900D01*
X100846396Y-90707218D01*
X100817226Y-90642491D01*
X100843355Y-90546832D01*
X100846264Y-90543168D01*
X100926731Y-90441826D01*
X100964947Y-90368571D01*
X101002970Y-90295683D01*
X101023814Y-90255728D01*
X101026337Y-90247294D01*
X101082236Y-90060376D01*
X101083955Y-90054629D01*
X101104985Y-89845786D01*
X101105000Y-89840000D01*
X101085064Y-89631050D01*
X101078822Y-89609771D01*
X101053441Y-89523255D01*
X101025977Y-89429639D01*
X101023233Y-89424311D01*
X100932615Y-89248365D01*
X100932613Y-89248362D01*
X100929869Y-89243034D01*
X100800210Y-89077970D01*
X100677126Y-88971163D01*
X100638787Y-88911412D01*
X100638837Y-88840415D01*
X100677264Y-88780717D01*
X100759708Y-88750000D01*
X104152400Y-88750000D01*
X104220521Y-88770002D01*
G37*
G04 #@! TD.AperFunction*
G04 #@! TA.AperFunction,Conductor*
G36*
X98240930Y-89720002D02*
G01*
X98290710Y-89781556D01*
X98630333Y-90682537D01*
X98730575Y-90948467D01*
X98725370Y-91049260D01*
X98702884Y-91094231D01*
X98654529Y-91146214D01*
X98585745Y-91163803D01*
X98541092Y-91153923D01*
X97798301Y-90839666D01*
X97426904Y-90682536D01*
X97371962Y-90637573D01*
X97350000Y-90566495D01*
X97350000Y-89826000D01*
X97370002Y-89757879D01*
X97423658Y-89711386D01*
X97476000Y-89700000D01*
X98172809Y-89700000D01*
X98240930Y-89720002D01*
G37*
G04 #@! TD.AperFunction*
M02*
