G04 #@! TF.GenerationSoftware,KiCad,Pcbnew,(5.99.0-6495-g15369915cc)*
G04 #@! TF.CreationDate,2020-10-24T18:43:56+02:00*
G04 #@! TF.ProjectId,EVAL-MP8862,4556414c-2d4d-4503-9838-36322e6b6963,1A*
G04 #@! TF.SameCoordinates,Original*
G04 #@! TF.FileFunction,Legend,Bot*
G04 #@! TF.FilePolarity,Positive*
%FSLAX46Y46*%
G04 Gerber Fmt 4.6, Leading zero omitted, Abs format (unit mm)*
G04 Created by KiCad (PCBNEW (5.99.0-6495-g15369915cc)) date 2020-10-24 18:43:56*
%MOMM*%
%LPD*%
G01*
G04 APERTURE LIST*
%ADD10C,0.100000*%
%ADD11C,0.150000*%
%ADD12C,0.300000*%
%ADD13C,0.400000*%
%ADD14C,0.250000*%
%ADD15C,0.125000*%
%ADD16C,0.120000*%
G04 APERTURE END LIST*
D10*
D11*
X177002200Y-166007200D02*
X177002200Y-198007200D01*
X285002200Y-198007200D01*
X285002200Y-166007200D01*
X177002200Y-166007200D01*
D10*
D11*
X10000000Y-10000000D02*
X10000000Y-200007200D01*
X287002200Y-200007200D01*
X287002200Y-10000000D01*
X10000000Y-10000000D01*
D10*
D11*
X12000000Y-12000000D02*
X12000000Y-198007200D01*
X285002200Y-198007200D01*
X285002200Y-12000000D01*
X12000000Y-12000000D01*
D10*
D11*
X60000000Y-12000000D02*
X60000000Y-10000000D01*
D10*
D11*
X110000000Y-12000000D02*
X110000000Y-10000000D01*
D10*
D11*
X160000000Y-12000000D02*
X160000000Y-10000000D01*
D10*
D11*
X210000000Y-12000000D02*
X210000000Y-10000000D01*
D10*
D11*
X260000000Y-12000000D02*
X260000000Y-10000000D01*
D10*
D11*
X36065476Y-11588095D02*
X35322619Y-11588095D01*
X35694047Y-11588095D02*
X35694047Y-10288095D01*
X35570238Y-10473809D01*
X35446428Y-10597619D01*
X35322619Y-10659523D01*
D10*
D11*
X85322619Y-10411904D02*
X85384523Y-10350000D01*
X85508333Y-10288095D01*
X85817857Y-10288095D01*
X85941666Y-10350000D01*
X86003571Y-10411904D01*
X86065476Y-10535714D01*
X86065476Y-10659523D01*
X86003571Y-10845238D01*
X85260714Y-11588095D01*
X86065476Y-11588095D01*
D10*
D11*
X135260714Y-10288095D02*
X136065476Y-10288095D01*
X135632142Y-10783333D01*
X135817857Y-10783333D01*
X135941666Y-10845238D01*
X136003571Y-10907142D01*
X136065476Y-11030952D01*
X136065476Y-11340476D01*
X136003571Y-11464285D01*
X135941666Y-11526190D01*
X135817857Y-11588095D01*
X135446428Y-11588095D01*
X135322619Y-11526190D01*
X135260714Y-11464285D01*
D10*
D11*
X185941666Y-10721428D02*
X185941666Y-11588095D01*
X185632142Y-10226190D02*
X185322619Y-11154761D01*
X186127380Y-11154761D01*
D10*
D11*
X236003571Y-10288095D02*
X235384523Y-10288095D01*
X235322619Y-10907142D01*
X235384523Y-10845238D01*
X235508333Y-10783333D01*
X235817857Y-10783333D01*
X235941666Y-10845238D01*
X236003571Y-10907142D01*
X236065476Y-11030952D01*
X236065476Y-11340476D01*
X236003571Y-11464285D01*
X235941666Y-11526190D01*
X235817857Y-11588095D01*
X235508333Y-11588095D01*
X235384523Y-11526190D01*
X235322619Y-11464285D01*
D10*
D11*
X285941666Y-10288095D02*
X285694047Y-10288095D01*
X285570238Y-10350000D01*
X285508333Y-10411904D01*
X285384523Y-10597619D01*
X285322619Y-10845238D01*
X285322619Y-11340476D01*
X285384523Y-11464285D01*
X285446428Y-11526190D01*
X285570238Y-11588095D01*
X285817857Y-11588095D01*
X285941666Y-11526190D01*
X286003571Y-11464285D01*
X286065476Y-11340476D01*
X286065476Y-11030952D01*
X286003571Y-10907142D01*
X285941666Y-10845238D01*
X285817857Y-10783333D01*
X285570238Y-10783333D01*
X285446428Y-10845238D01*
X285384523Y-10907142D01*
X285322619Y-11030952D01*
D10*
D11*
X60000000Y-198007200D02*
X60000000Y-200007200D01*
D10*
D11*
X110000000Y-198007200D02*
X110000000Y-200007200D01*
D10*
D11*
X160000000Y-198007200D02*
X160000000Y-200007200D01*
D10*
D11*
X210000000Y-198007200D02*
X210000000Y-200007200D01*
D10*
D11*
X260000000Y-198007200D02*
X260000000Y-200007200D01*
D10*
D11*
X36065476Y-199595295D02*
X35322619Y-199595295D01*
X35694047Y-199595295D02*
X35694047Y-198295295D01*
X35570238Y-198481009D01*
X35446428Y-198604819D01*
X35322619Y-198666723D01*
D10*
D11*
X85322619Y-198419104D02*
X85384523Y-198357200D01*
X85508333Y-198295295D01*
X85817857Y-198295295D01*
X85941666Y-198357200D01*
X86003571Y-198419104D01*
X86065476Y-198542914D01*
X86065476Y-198666723D01*
X86003571Y-198852438D01*
X85260714Y-199595295D01*
X86065476Y-199595295D01*
D10*
D11*
X135260714Y-198295295D02*
X136065476Y-198295295D01*
X135632142Y-198790533D01*
X135817857Y-198790533D01*
X135941666Y-198852438D01*
X136003571Y-198914342D01*
X136065476Y-199038152D01*
X136065476Y-199347676D01*
X136003571Y-199471485D01*
X135941666Y-199533390D01*
X135817857Y-199595295D01*
X135446428Y-199595295D01*
X135322619Y-199533390D01*
X135260714Y-199471485D01*
D10*
D11*
X185941666Y-198728628D02*
X185941666Y-199595295D01*
X185632142Y-198233390D02*
X185322619Y-199161961D01*
X186127380Y-199161961D01*
D10*
D11*
X236003571Y-198295295D02*
X235384523Y-198295295D01*
X235322619Y-198914342D01*
X235384523Y-198852438D01*
X235508333Y-198790533D01*
X235817857Y-198790533D01*
X235941666Y-198852438D01*
X236003571Y-198914342D01*
X236065476Y-199038152D01*
X236065476Y-199347676D01*
X236003571Y-199471485D01*
X235941666Y-199533390D01*
X235817857Y-199595295D01*
X235508333Y-199595295D01*
X235384523Y-199533390D01*
X235322619Y-199471485D01*
D10*
D11*
X285941666Y-198295295D02*
X285694047Y-198295295D01*
X285570238Y-198357200D01*
X285508333Y-198419104D01*
X285384523Y-198604819D01*
X285322619Y-198852438D01*
X285322619Y-199347676D01*
X285384523Y-199471485D01*
X285446428Y-199533390D01*
X285570238Y-199595295D01*
X285817857Y-199595295D01*
X285941666Y-199533390D01*
X286003571Y-199471485D01*
X286065476Y-199347676D01*
X286065476Y-199038152D01*
X286003571Y-198914342D01*
X285941666Y-198852438D01*
X285817857Y-198790533D01*
X285570238Y-198790533D01*
X285446428Y-198852438D01*
X285384523Y-198914342D01*
X285322619Y-199038152D01*
D10*
D11*
X10000000Y-60000000D02*
X12000000Y-60000000D01*
D10*
D11*
X10000000Y-110000000D02*
X12000000Y-110000000D01*
D10*
D11*
X10000000Y-160000000D02*
X12000000Y-160000000D01*
D10*
D11*
X10690476Y-35216666D02*
X11309523Y-35216666D01*
X10566666Y-35588095D02*
X11000000Y-34288095D01*
X11433333Y-35588095D01*
D10*
D11*
X11092857Y-84907142D02*
X11278571Y-84969047D01*
X11340476Y-85030952D01*
X11402380Y-85154761D01*
X11402380Y-85340476D01*
X11340476Y-85464285D01*
X11278571Y-85526190D01*
X11154761Y-85588095D01*
X10659523Y-85588095D01*
X10659523Y-84288095D01*
X11092857Y-84288095D01*
X11216666Y-84350000D01*
X11278571Y-84411904D01*
X11340476Y-84535714D01*
X11340476Y-84659523D01*
X11278571Y-84783333D01*
X11216666Y-84845238D01*
X11092857Y-84907142D01*
X10659523Y-84907142D01*
D10*
D11*
X11402380Y-135464285D02*
X11340476Y-135526190D01*
X11154761Y-135588095D01*
X11030952Y-135588095D01*
X10845238Y-135526190D01*
X10721428Y-135402380D01*
X10659523Y-135278571D01*
X10597619Y-135030952D01*
X10597619Y-134845238D01*
X10659523Y-134597619D01*
X10721428Y-134473809D01*
X10845238Y-134350000D01*
X11030952Y-134288095D01*
X11154761Y-134288095D01*
X11340476Y-134350000D01*
X11402380Y-134411904D01*
D10*
D11*
X10659523Y-185588095D02*
X10659523Y-184288095D01*
X10969047Y-184288095D01*
X11154761Y-184350000D01*
X11278571Y-184473809D01*
X11340476Y-184597619D01*
X11402380Y-184845238D01*
X11402380Y-185030952D01*
X11340476Y-185278571D01*
X11278571Y-185402380D01*
X11154761Y-185526190D01*
X10969047Y-185588095D01*
X10659523Y-185588095D01*
D10*
D11*
X287002200Y-60000000D02*
X285002200Y-60000000D01*
D10*
D11*
X287002200Y-110000000D02*
X285002200Y-110000000D01*
D10*
D11*
X287002200Y-160000000D02*
X285002200Y-160000000D01*
D10*
D11*
X285692676Y-35216666D02*
X286311723Y-35216666D01*
X285568866Y-35588095D02*
X286002200Y-34288095D01*
X286435533Y-35588095D01*
D10*
D11*
X286095057Y-84907142D02*
X286280771Y-84969047D01*
X286342676Y-85030952D01*
X286404580Y-85154761D01*
X286404580Y-85340476D01*
X286342676Y-85464285D01*
X286280771Y-85526190D01*
X286156961Y-85588095D01*
X285661723Y-85588095D01*
X285661723Y-84288095D01*
X286095057Y-84288095D01*
X286218866Y-84350000D01*
X286280771Y-84411904D01*
X286342676Y-84535714D01*
X286342676Y-84659523D01*
X286280771Y-84783333D01*
X286218866Y-84845238D01*
X286095057Y-84907142D01*
X285661723Y-84907142D01*
D10*
D11*
X286404580Y-135464285D02*
X286342676Y-135526190D01*
X286156961Y-135588095D01*
X286033152Y-135588095D01*
X285847438Y-135526190D01*
X285723628Y-135402380D01*
X285661723Y-135278571D01*
X285599819Y-135030952D01*
X285599819Y-134845238D01*
X285661723Y-134597619D01*
X285723628Y-134473809D01*
X285847438Y-134350000D01*
X286033152Y-134288095D01*
X286156961Y-134288095D01*
X286342676Y-134350000D01*
X286404580Y-134411904D01*
D10*
D11*
X285661723Y-185588095D02*
X285661723Y-184288095D01*
X285971247Y-184288095D01*
X286156961Y-184350000D01*
X286280771Y-184473809D01*
X286342676Y-184597619D01*
X286404580Y-184845238D01*
X286404580Y-185030952D01*
X286342676Y-185278571D01*
X286280771Y-185402380D01*
X286156961Y-185526190D01*
X285971247Y-185588095D01*
X285661723Y-185588095D01*
D10*
D11*
X200434342Y-193785771D02*
X200434342Y-192285771D01*
X200791485Y-192285771D01*
X201005771Y-192357200D01*
X201148628Y-192500057D01*
X201220057Y-192642914D01*
X201291485Y-192928628D01*
X201291485Y-193142914D01*
X201220057Y-193428628D01*
X201148628Y-193571485D01*
X201005771Y-193714342D01*
X200791485Y-193785771D01*
X200434342Y-193785771D01*
X202577200Y-193785771D02*
X202577200Y-193000057D01*
X202505771Y-192857200D01*
X202362914Y-192785771D01*
X202077200Y-192785771D01*
X201934342Y-192857200D01*
X202577200Y-193714342D02*
X202434342Y-193785771D01*
X202077200Y-193785771D01*
X201934342Y-193714342D01*
X201862914Y-193571485D01*
X201862914Y-193428628D01*
X201934342Y-193285771D01*
X202077200Y-193214342D01*
X202434342Y-193214342D01*
X202577200Y-193142914D01*
X203077200Y-192785771D02*
X203648628Y-192785771D01*
X203291485Y-192285771D02*
X203291485Y-193571485D01*
X203362914Y-193714342D01*
X203505771Y-193785771D01*
X203648628Y-193785771D01*
X204720057Y-193714342D02*
X204577200Y-193785771D01*
X204291485Y-193785771D01*
X204148628Y-193714342D01*
X204077200Y-193571485D01*
X204077200Y-193000057D01*
X204148628Y-192857200D01*
X204291485Y-192785771D01*
X204577200Y-192785771D01*
X204720057Y-192857200D01*
X204791485Y-193000057D01*
X204791485Y-193142914D01*
X204077200Y-193285771D01*
X205434342Y-193642914D02*
X205505771Y-193714342D01*
X205434342Y-193785771D01*
X205362914Y-193714342D01*
X205434342Y-193642914D01*
X205434342Y-193785771D01*
X205434342Y-192857200D02*
X205505771Y-192928628D01*
X205434342Y-193000057D01*
X205362914Y-192928628D01*
X205434342Y-192857200D01*
X205434342Y-193000057D01*
X207220057Y-192428628D02*
X207291485Y-192357200D01*
X207434342Y-192285771D01*
X207791485Y-192285771D01*
X207934342Y-192357200D01*
X208005771Y-192428628D01*
X208077200Y-192571485D01*
X208077200Y-192714342D01*
X208005771Y-192928628D01*
X207148628Y-193785771D01*
X208077200Y-193785771D01*
X209005771Y-192285771D02*
X209148628Y-192285771D01*
X209291485Y-192357200D01*
X209362914Y-192428628D01*
X209434342Y-192571485D01*
X209505771Y-192857200D01*
X209505771Y-193214342D01*
X209434342Y-193500057D01*
X209362914Y-193642914D01*
X209291485Y-193714342D01*
X209148628Y-193785771D01*
X209005771Y-193785771D01*
X208862914Y-193714342D01*
X208791485Y-193642914D01*
X208720057Y-193500057D01*
X208648628Y-193214342D01*
X208648628Y-192857200D01*
X208720057Y-192571485D01*
X208791485Y-192428628D01*
X208862914Y-192357200D01*
X209005771Y-192285771D01*
X210077200Y-192428628D02*
X210148628Y-192357200D01*
X210291485Y-192285771D01*
X210648628Y-192285771D01*
X210791485Y-192357200D01*
X210862914Y-192428628D01*
X210934342Y-192571485D01*
X210934342Y-192714342D01*
X210862914Y-192928628D01*
X210005771Y-193785771D01*
X210934342Y-193785771D01*
X211862914Y-192285771D02*
X212005771Y-192285771D01*
X212148628Y-192357200D01*
X212220057Y-192428628D01*
X212291485Y-192571485D01*
X212362914Y-192857200D01*
X212362914Y-193214342D01*
X212291485Y-193500057D01*
X212220057Y-193642914D01*
X212148628Y-193714342D01*
X212005771Y-193785771D01*
X211862914Y-193785771D01*
X211720057Y-193714342D01*
X211648628Y-193642914D01*
X211577200Y-193500057D01*
X211505771Y-193214342D01*
X211505771Y-192857200D01*
X211577200Y-192571485D01*
X211648628Y-192428628D01*
X211720057Y-192357200D01*
X211862914Y-192285771D01*
X213005771Y-193214342D02*
X214148628Y-193214342D01*
X215648628Y-193785771D02*
X214791485Y-193785771D01*
X215220057Y-193785771D02*
X215220057Y-192285771D01*
X215077200Y-192500057D01*
X214934342Y-192642914D01*
X214791485Y-192714342D01*
X216577200Y-192285771D02*
X216720057Y-192285771D01*
X216862914Y-192357200D01*
X216934342Y-192428628D01*
X217005771Y-192571485D01*
X217077200Y-192857200D01*
X217077200Y-193214342D01*
X217005771Y-193500057D01*
X216934342Y-193642914D01*
X216862914Y-193714342D01*
X216720057Y-193785771D01*
X216577200Y-193785771D01*
X216434342Y-193714342D01*
X216362914Y-193642914D01*
X216291485Y-193500057D01*
X216220057Y-193214342D01*
X216220057Y-192857200D01*
X216291485Y-192571485D01*
X216362914Y-192428628D01*
X216434342Y-192357200D01*
X216577200Y-192285771D01*
X217720057Y-193214342D02*
X218862914Y-193214342D01*
X219505771Y-192428628D02*
X219577200Y-192357200D01*
X219720057Y-192285771D01*
X220077200Y-192285771D01*
X220220057Y-192357200D01*
X220291485Y-192428628D01*
X220362914Y-192571485D01*
X220362914Y-192714342D01*
X220291485Y-192928628D01*
X219434342Y-193785771D01*
X220362914Y-193785771D01*
X221648628Y-192785771D02*
X221648628Y-193785771D01*
X221291485Y-192214342D02*
X220934342Y-193285771D01*
X221862914Y-193285771D01*
D10*
D11*
X177002200Y-194507200D02*
X285002200Y-194507200D01*
D10*
D11*
X178434342Y-196585771D02*
X178434342Y-195085771D01*
X179291485Y-196585771D02*
X178648628Y-195728628D01*
X179291485Y-195085771D02*
X178434342Y-195942914D01*
X179934342Y-196585771D02*
X179934342Y-195585771D01*
X179934342Y-195085771D02*
X179862914Y-195157200D01*
X179934342Y-195228628D01*
X180005771Y-195157200D01*
X179934342Y-195085771D01*
X179934342Y-195228628D01*
X181505771Y-196442914D02*
X181434342Y-196514342D01*
X181220057Y-196585771D01*
X181077200Y-196585771D01*
X180862914Y-196514342D01*
X180720057Y-196371485D01*
X180648628Y-196228628D01*
X180577200Y-195942914D01*
X180577200Y-195728628D01*
X180648628Y-195442914D01*
X180720057Y-195300057D01*
X180862914Y-195157200D01*
X181077200Y-195085771D01*
X181220057Y-195085771D01*
X181434342Y-195157200D01*
X181505771Y-195228628D01*
X182791485Y-196585771D02*
X182791485Y-195800057D01*
X182720057Y-195657200D01*
X182577200Y-195585771D01*
X182291485Y-195585771D01*
X182148628Y-195657200D01*
X182791485Y-196514342D02*
X182648628Y-196585771D01*
X182291485Y-196585771D01*
X182148628Y-196514342D01*
X182077200Y-196371485D01*
X182077200Y-196228628D01*
X182148628Y-196085771D01*
X182291485Y-196014342D01*
X182648628Y-196014342D01*
X182791485Y-195942914D01*
X184148628Y-196585771D02*
X184148628Y-195085771D01*
X184148628Y-196514342D02*
X184005771Y-196585771D01*
X183720057Y-196585771D01*
X183577200Y-196514342D01*
X183505771Y-196442914D01*
X183434342Y-196300057D01*
X183434342Y-195871485D01*
X183505771Y-195728628D01*
X183577200Y-195657200D01*
X183720057Y-195585771D01*
X184005771Y-195585771D01*
X184148628Y-195657200D01*
X186005771Y-195800057D02*
X186505771Y-195800057D01*
X186720057Y-196585771D02*
X186005771Y-196585771D01*
X186005771Y-195085771D01*
X186720057Y-195085771D01*
X187362914Y-196442914D02*
X187434342Y-196514342D01*
X187362914Y-196585771D01*
X187291485Y-196514342D01*
X187362914Y-196442914D01*
X187362914Y-196585771D01*
X188077200Y-196585771D02*
X188077200Y-195085771D01*
X188434342Y-195085771D01*
X188648628Y-195157200D01*
X188791485Y-195300057D01*
X188862914Y-195442914D01*
X188934342Y-195728628D01*
X188934342Y-195942914D01*
X188862914Y-196228628D01*
X188791485Y-196371485D01*
X188648628Y-196514342D01*
X188434342Y-196585771D01*
X188077200Y-196585771D01*
X189577200Y-196442914D02*
X189648628Y-196514342D01*
X189577200Y-196585771D01*
X189505771Y-196514342D01*
X189577200Y-196442914D01*
X189577200Y-196585771D01*
X190220057Y-196157200D02*
X190934342Y-196157200D01*
X190077200Y-196585771D02*
X190577200Y-195085771D01*
X191077200Y-196585771D01*
X191577200Y-196442914D02*
X191648628Y-196514342D01*
X191577200Y-196585771D01*
X191505771Y-196514342D01*
X191577200Y-196442914D01*
X191577200Y-196585771D01*
X194577200Y-196585771D02*
X194577200Y-195085771D01*
X194720057Y-196014342D02*
X195148628Y-196585771D01*
X195148628Y-195585771D02*
X194577200Y-196157200D01*
X195791485Y-196585771D02*
X195791485Y-195585771D01*
X195791485Y-195085771D02*
X195720057Y-195157200D01*
X195791485Y-195228628D01*
X195862914Y-195157200D01*
X195791485Y-195085771D01*
X195791485Y-195228628D01*
X197148628Y-196514342D02*
X197005771Y-196585771D01*
X196720057Y-196585771D01*
X196577200Y-196514342D01*
X196505771Y-196442914D01*
X196434342Y-196300057D01*
X196434342Y-195871485D01*
X196505771Y-195728628D01*
X196577200Y-195657200D01*
X196720057Y-195585771D01*
X197005771Y-195585771D01*
X197148628Y-195657200D01*
X198434342Y-196585771D02*
X198434342Y-195800057D01*
X198362914Y-195657200D01*
X198220057Y-195585771D01*
X197934342Y-195585771D01*
X197791485Y-195657200D01*
X198434342Y-196514342D02*
X198291485Y-196585771D01*
X197934342Y-196585771D01*
X197791485Y-196514342D01*
X197720057Y-196371485D01*
X197720057Y-196228628D01*
X197791485Y-196085771D01*
X197934342Y-196014342D01*
X198291485Y-196014342D01*
X198434342Y-195942914D01*
X199791485Y-196585771D02*
X199791485Y-195085771D01*
X199791485Y-196514342D02*
X199648628Y-196585771D01*
X199362914Y-196585771D01*
X199220057Y-196514342D01*
X199148628Y-196442914D01*
X199077200Y-196300057D01*
X199077200Y-195871485D01*
X199148628Y-195728628D01*
X199220057Y-195657200D01*
X199362914Y-195585771D01*
X199648628Y-195585771D01*
X199791485Y-195657200D01*
X202077200Y-197157200D02*
X202005771Y-197085771D01*
X201862914Y-196871485D01*
X201791485Y-196728628D01*
X201720057Y-196514342D01*
X201648628Y-196157200D01*
X201648628Y-195871485D01*
X201720057Y-195514342D01*
X201791485Y-195300057D01*
X201862914Y-195157200D01*
X202005771Y-194942914D01*
X202077200Y-194871485D01*
X203362914Y-195085771D02*
X202648628Y-195085771D01*
X202577200Y-195800057D01*
X202648628Y-195728628D01*
X202791485Y-195657200D01*
X203148628Y-195657200D01*
X203291485Y-195728628D01*
X203362914Y-195800057D01*
X203434342Y-195942914D01*
X203434342Y-196300057D01*
X203362914Y-196442914D01*
X203291485Y-196514342D01*
X203148628Y-196585771D01*
X202791485Y-196585771D01*
X202648628Y-196514342D01*
X202577200Y-196442914D01*
X204077200Y-196442914D02*
X204148628Y-196514342D01*
X204077200Y-196585771D01*
X204005771Y-196514342D01*
X204077200Y-196442914D01*
X204077200Y-196585771D01*
X204862914Y-196585771D02*
X205148628Y-196585771D01*
X205291485Y-196514342D01*
X205362914Y-196442914D01*
X205505771Y-196228628D01*
X205577200Y-195942914D01*
X205577200Y-195371485D01*
X205505771Y-195228628D01*
X205434342Y-195157200D01*
X205291485Y-195085771D01*
X205005771Y-195085771D01*
X204862914Y-195157200D01*
X204791485Y-195228628D01*
X204720057Y-195371485D01*
X204720057Y-195728628D01*
X204791485Y-195871485D01*
X204862914Y-195942914D01*
X205005771Y-196014342D01*
X205291485Y-196014342D01*
X205434342Y-195942914D01*
X205505771Y-195871485D01*
X205577200Y-195728628D01*
X206291485Y-196585771D02*
X206577200Y-196585771D01*
X206720057Y-196514342D01*
X206791485Y-196442914D01*
X206934342Y-196228628D01*
X207005771Y-195942914D01*
X207005771Y-195371485D01*
X206934342Y-195228628D01*
X206862914Y-195157200D01*
X206720057Y-195085771D01*
X206434342Y-195085771D01*
X206291485Y-195157200D01*
X206220057Y-195228628D01*
X206148628Y-195371485D01*
X206148628Y-195728628D01*
X206220057Y-195871485D01*
X206291485Y-195942914D01*
X206434342Y-196014342D01*
X206720057Y-196014342D01*
X206862914Y-195942914D01*
X206934342Y-195871485D01*
X207005771Y-195728628D01*
X207648628Y-196442914D02*
X207720057Y-196514342D01*
X207648628Y-196585771D01*
X207577200Y-196514342D01*
X207648628Y-196442914D01*
X207648628Y-196585771D01*
X208648628Y-195085771D02*
X208791485Y-195085771D01*
X208934342Y-195157200D01*
X209005771Y-195228628D01*
X209077200Y-195371485D01*
X209148628Y-195657200D01*
X209148628Y-196014342D01*
X209077200Y-196300057D01*
X209005771Y-196442914D01*
X208934342Y-196514342D01*
X208791485Y-196585771D01*
X208648628Y-196585771D01*
X208505771Y-196514342D01*
X208434342Y-196442914D01*
X208362914Y-196300057D01*
X208291485Y-196014342D01*
X208291485Y-195657200D01*
X208362914Y-195371485D01*
X208434342Y-195228628D01*
X208505771Y-195157200D01*
X208648628Y-195085771D01*
X209791485Y-196014342D02*
X210934342Y-196014342D01*
X212291485Y-195085771D02*
X212005771Y-195085771D01*
X211862914Y-195157200D01*
X211791485Y-195228628D01*
X211648628Y-195442914D01*
X211577200Y-195728628D01*
X211577200Y-196300057D01*
X211648628Y-196442914D01*
X211720057Y-196514342D01*
X211862914Y-196585771D01*
X212148628Y-196585771D01*
X212291485Y-196514342D01*
X212362914Y-196442914D01*
X212434342Y-196300057D01*
X212434342Y-195942914D01*
X212362914Y-195800057D01*
X212291485Y-195728628D01*
X212148628Y-195657200D01*
X211862914Y-195657200D01*
X211720057Y-195728628D01*
X211648628Y-195800057D01*
X211577200Y-195942914D01*
X213720057Y-195585771D02*
X213720057Y-196585771D01*
X213362914Y-195014342D02*
X213005771Y-196085771D01*
X213934342Y-196085771D01*
X214577200Y-196585771D02*
X214862914Y-196585771D01*
X215005771Y-196514342D01*
X215077200Y-196442914D01*
X215220057Y-196228628D01*
X215291485Y-195942914D01*
X215291485Y-195371485D01*
X215220057Y-195228628D01*
X215148628Y-195157200D01*
X215005771Y-195085771D01*
X214720057Y-195085771D01*
X214577200Y-195157200D01*
X214505771Y-195228628D01*
X214434342Y-195371485D01*
X214434342Y-195728628D01*
X214505771Y-195871485D01*
X214577200Y-195942914D01*
X214720057Y-196014342D01*
X215005771Y-196014342D01*
X215148628Y-195942914D01*
X215220057Y-195871485D01*
X215291485Y-195728628D01*
X216648628Y-195085771D02*
X215934342Y-195085771D01*
X215862914Y-195800057D01*
X215934342Y-195728628D01*
X216077200Y-195657200D01*
X216434342Y-195657200D01*
X216577200Y-195728628D01*
X216648628Y-195800057D01*
X216720057Y-195942914D01*
X216720057Y-196300057D01*
X216648628Y-196442914D01*
X216577200Y-196514342D01*
X216434342Y-196585771D01*
X216077200Y-196585771D01*
X215934342Y-196514342D01*
X215862914Y-196442914D01*
X217362914Y-196014342D02*
X218505771Y-196014342D01*
X219862914Y-195585771D02*
X219862914Y-196800057D01*
X219791485Y-196942914D01*
X219720057Y-197014342D01*
X219577200Y-197085771D01*
X219362914Y-197085771D01*
X219220057Y-197014342D01*
X219862914Y-196514342D02*
X219720057Y-196585771D01*
X219434342Y-196585771D01*
X219291485Y-196514342D01*
X219220057Y-196442914D01*
X219148628Y-196300057D01*
X219148628Y-195871485D01*
X219220057Y-195728628D01*
X219291485Y-195657200D01*
X219434342Y-195585771D01*
X219720057Y-195585771D01*
X219862914Y-195657200D01*
X221362914Y-196585771D02*
X220505771Y-196585771D01*
X220934342Y-196585771D02*
X220934342Y-195085771D01*
X220791485Y-195300057D01*
X220648628Y-195442914D01*
X220505771Y-195514342D01*
X222720057Y-195085771D02*
X222005771Y-195085771D01*
X221934342Y-195800057D01*
X222005771Y-195728628D01*
X222148628Y-195657200D01*
X222505771Y-195657200D01*
X222648628Y-195728628D01*
X222720057Y-195800057D01*
X222791485Y-195942914D01*
X222791485Y-196300057D01*
X222720057Y-196442914D01*
X222648628Y-196514342D01*
X222505771Y-196585771D01*
X222148628Y-196585771D01*
X222005771Y-196514342D01*
X221934342Y-196442914D01*
X223291485Y-195085771D02*
X224220057Y-195085771D01*
X223720057Y-195657200D01*
X223934342Y-195657200D01*
X224077200Y-195728628D01*
X224148628Y-195800057D01*
X224220057Y-195942914D01*
X224220057Y-196300057D01*
X224148628Y-196442914D01*
X224077200Y-196514342D01*
X223934342Y-196585771D01*
X223505771Y-196585771D01*
X223362914Y-196514342D01*
X223291485Y-196442914D01*
X225505771Y-195085771D02*
X225220057Y-195085771D01*
X225077200Y-195157200D01*
X225005771Y-195228628D01*
X224862914Y-195442914D01*
X224791485Y-195728628D01*
X224791485Y-196300057D01*
X224862914Y-196442914D01*
X224934342Y-196514342D01*
X225077200Y-196585771D01*
X225362914Y-196585771D01*
X225505771Y-196514342D01*
X225577200Y-196442914D01*
X225648628Y-196300057D01*
X225648628Y-195942914D01*
X225577200Y-195800057D01*
X225505771Y-195728628D01*
X225362914Y-195657200D01*
X225077200Y-195657200D01*
X224934342Y-195728628D01*
X224862914Y-195800057D01*
X224791485Y-195942914D01*
X226362914Y-196585771D02*
X226648628Y-196585771D01*
X226791485Y-196514342D01*
X226862914Y-196442914D01*
X227005771Y-196228628D01*
X227077199Y-195942914D01*
X227077199Y-195371485D01*
X227005771Y-195228628D01*
X226934342Y-195157200D01*
X226791485Y-195085771D01*
X226505771Y-195085771D01*
X226362914Y-195157200D01*
X226291485Y-195228628D01*
X226220057Y-195371485D01*
X226220057Y-195728628D01*
X226291485Y-195871485D01*
X226362914Y-195942914D01*
X226505771Y-196014342D01*
X226791485Y-196014342D01*
X226934342Y-195942914D01*
X227005771Y-195871485D01*
X227077199Y-195728628D01*
X227791485Y-196585771D02*
X228077199Y-196585771D01*
X228220057Y-196514342D01*
X228291485Y-196442914D01*
X228434342Y-196228628D01*
X228505771Y-195942914D01*
X228505771Y-195371485D01*
X228434342Y-195228628D01*
X228362914Y-195157200D01*
X228220057Y-195085771D01*
X227934342Y-195085771D01*
X227791485Y-195157200D01*
X227720057Y-195228628D01*
X227648628Y-195371485D01*
X227648628Y-195728628D01*
X227720057Y-195871485D01*
X227791485Y-195942914D01*
X227934342Y-196014342D01*
X228220057Y-196014342D01*
X228362914Y-195942914D01*
X228434342Y-195871485D01*
X228505771Y-195728628D01*
X229934342Y-196585771D02*
X229077199Y-196585771D01*
X229505771Y-196585771D02*
X229505771Y-195085771D01*
X229362914Y-195300057D01*
X229220057Y-195442914D01*
X229077199Y-195514342D01*
X231291485Y-195085771D02*
X230577199Y-195085771D01*
X230505771Y-195800057D01*
X230577199Y-195728628D01*
X230720057Y-195657200D01*
X231077199Y-195657200D01*
X231220057Y-195728628D01*
X231291485Y-195800057D01*
X231362914Y-195942914D01*
X231362914Y-196300057D01*
X231291485Y-196442914D01*
X231220057Y-196514342D01*
X231077199Y-196585771D01*
X230720057Y-196585771D01*
X230577199Y-196514342D01*
X230505771Y-196442914D01*
X232648628Y-196514342D02*
X232505771Y-196585771D01*
X232220057Y-196585771D01*
X232077199Y-196514342D01*
X232005771Y-196442914D01*
X231934342Y-196300057D01*
X231934342Y-195871485D01*
X232005771Y-195728628D01*
X232077199Y-195657200D01*
X232220057Y-195585771D01*
X232505771Y-195585771D01*
X232648628Y-195657200D01*
X233934342Y-196514342D02*
X233791485Y-196585771D01*
X233505771Y-196585771D01*
X233362914Y-196514342D01*
X233291485Y-196442914D01*
X233220057Y-196300057D01*
X233220057Y-195871485D01*
X233291485Y-195728628D01*
X233362914Y-195657200D01*
X233505771Y-195585771D01*
X233791485Y-195585771D01*
X233934342Y-195657200D01*
X234434342Y-197157200D02*
X234505771Y-197085771D01*
X234648628Y-196871485D01*
X234720057Y-196728628D01*
X234791485Y-196514342D01*
X234862914Y-196157200D01*
X234862914Y-195871485D01*
X234791485Y-195514342D01*
X234720057Y-195300057D01*
X234648628Y-195157200D01*
X234505771Y-194942914D01*
X234434342Y-194871485D01*
D10*
D11*
X177002200Y-191507200D02*
X285002200Y-191507200D01*
D10*
D12*
X264411485Y-193785771D02*
X263911485Y-193071485D01*
X263554342Y-193785771D02*
X263554342Y-192285771D01*
X264125771Y-192285771D01*
X264268628Y-192357200D01*
X264340057Y-192428628D01*
X264411485Y-192571485D01*
X264411485Y-192785771D01*
X264340057Y-192928628D01*
X264268628Y-193000057D01*
X264125771Y-193071485D01*
X263554342Y-193071485D01*
X265625771Y-193714342D02*
X265482914Y-193785771D01*
X265197200Y-193785771D01*
X265054342Y-193714342D01*
X264982914Y-193571485D01*
X264982914Y-193000057D01*
X265054342Y-192857200D01*
X265197200Y-192785771D01*
X265482914Y-192785771D01*
X265625771Y-192857200D01*
X265697200Y-193000057D01*
X265697200Y-193142914D01*
X264982914Y-193285771D01*
X266197200Y-192785771D02*
X266554342Y-193785771D01*
X266911485Y-192785771D01*
X267482914Y-193642914D02*
X267554342Y-193714342D01*
X267482914Y-193785771D01*
X267411485Y-193714342D01*
X267482914Y-193642914D01*
X267482914Y-193785771D01*
X267482914Y-192857200D02*
X267554342Y-192928628D01*
X267482914Y-193000057D01*
X267411485Y-192928628D01*
X267482914Y-192857200D01*
X267482914Y-193000057D01*
X270125771Y-193785771D02*
X269268628Y-193785771D01*
X269697200Y-193785771D02*
X269697200Y-192285771D01*
X269554342Y-192500057D01*
X269411485Y-192642914D01*
X269268628Y-192714342D01*
X270697200Y-193357200D02*
X271411485Y-193357200D01*
X270554342Y-193785771D02*
X271054342Y-192285771D01*
X271554342Y-193785771D01*
D10*
D11*
X178362914Y-193714342D02*
X178577200Y-193785771D01*
X178934342Y-193785771D01*
X179077200Y-193714342D01*
X179148628Y-193642914D01*
X179220057Y-193500057D01*
X179220057Y-193357200D01*
X179148628Y-193214342D01*
X179077200Y-193142914D01*
X178934342Y-193071485D01*
X178648628Y-193000057D01*
X178505771Y-192928628D01*
X178434342Y-192857200D01*
X178362914Y-192714342D01*
X178362914Y-192571485D01*
X178434342Y-192428628D01*
X178505771Y-192357200D01*
X178648628Y-192285771D01*
X179005771Y-192285771D01*
X179220057Y-192357200D01*
X179862914Y-193785771D02*
X179862914Y-192785771D01*
X179862914Y-192285771D02*
X179791485Y-192357200D01*
X179862914Y-192428628D01*
X179934342Y-192357200D01*
X179862914Y-192285771D01*
X179862914Y-192428628D01*
X180434342Y-192785771D02*
X181220057Y-192785771D01*
X180434342Y-193785771D01*
X181220057Y-193785771D01*
X182362914Y-193714342D02*
X182220057Y-193785771D01*
X181934342Y-193785771D01*
X181791485Y-193714342D01*
X181720057Y-193571485D01*
X181720057Y-193000057D01*
X181791485Y-192857200D01*
X181934342Y-192785771D01*
X182220057Y-192785771D01*
X182362914Y-192857200D01*
X182434342Y-193000057D01*
X182434342Y-193142914D01*
X181720057Y-193285771D01*
X183077200Y-193642914D02*
X183148628Y-193714342D01*
X183077200Y-193785771D01*
X183005771Y-193714342D01*
X183077200Y-193642914D01*
X183077200Y-193785771D01*
X183077200Y-192857200D02*
X183148628Y-192928628D01*
X183077200Y-193000057D01*
X183005771Y-192928628D01*
X183077200Y-192857200D01*
X183077200Y-193000057D01*
X184862914Y-193357200D02*
X185577200Y-193357200D01*
X184720057Y-193785771D02*
X185220057Y-192285771D01*
X185720057Y-193785771D01*
X186862914Y-192785771D02*
X186862914Y-193785771D01*
X186505771Y-192214342D02*
X186148628Y-193285771D01*
X187077200Y-193285771D01*
D10*
D11*
X263434342Y-196585771D02*
X263434342Y-195085771D01*
X264791485Y-196585771D02*
X264791485Y-195085771D01*
X264791485Y-196514342D02*
X264648628Y-196585771D01*
X264362914Y-196585771D01*
X264220057Y-196514342D01*
X264148628Y-196442914D01*
X264077200Y-196300057D01*
X264077200Y-195871485D01*
X264148628Y-195728628D01*
X264220057Y-195657200D01*
X264362914Y-195585771D01*
X264648628Y-195585771D01*
X264791485Y-195657200D01*
X265505771Y-196442914D02*
X265577200Y-196514342D01*
X265505771Y-196585771D01*
X265434342Y-196514342D01*
X265505771Y-196442914D01*
X265505771Y-196585771D01*
X265505771Y-195657200D02*
X265577200Y-195728628D01*
X265505771Y-195800057D01*
X265434342Y-195728628D01*
X265505771Y-195657200D01*
X265505771Y-195800057D01*
X268148628Y-196585771D02*
X267291485Y-196585771D01*
X267720057Y-196585771D02*
X267720057Y-195085771D01*
X267577200Y-195300057D01*
X267434342Y-195442914D01*
X267291485Y-195514342D01*
X269862914Y-195014342D02*
X268577200Y-196942914D01*
X271148628Y-196585771D02*
X270291485Y-196585771D01*
X270720057Y-196585771D02*
X270720057Y-195085771D01*
X270577200Y-195300057D01*
X270434342Y-195442914D01*
X270291485Y-195514342D01*
D10*
D11*
X177002200Y-187507200D02*
X285002200Y-187507200D01*
D10*
D13*
X178714580Y-188211961D02*
X179857438Y-188211961D01*
X179036009Y-190211961D02*
X179286009Y-188211961D01*
X180274104Y-190211961D02*
X180440771Y-188878628D01*
X180524104Y-188211961D02*
X180416961Y-188307200D01*
X180500295Y-188402438D01*
X180607438Y-188307200D01*
X180524104Y-188211961D01*
X180500295Y-188402438D01*
X181107438Y-188878628D02*
X181869342Y-188878628D01*
X181476485Y-188211961D02*
X181262200Y-189926247D01*
X181333628Y-190116723D01*
X181512200Y-190211961D01*
X181702676Y-190211961D01*
X182655057Y-190211961D02*
X182476485Y-190116723D01*
X182405057Y-189926247D01*
X182619342Y-188211961D01*
X184190771Y-190116723D02*
X183988390Y-190211961D01*
X183607438Y-190211961D01*
X183428866Y-190116723D01*
X183357438Y-189926247D01*
X183452676Y-189164342D01*
X183571723Y-188973866D01*
X183774104Y-188878628D01*
X184155057Y-188878628D01*
X184333628Y-188973866D01*
X184405057Y-189164342D01*
X184381247Y-189354819D01*
X183405057Y-189545295D01*
X185155057Y-190021485D02*
X185238390Y-190116723D01*
X185131247Y-190211961D01*
X185047914Y-190116723D01*
X185155057Y-190021485D01*
X185131247Y-190211961D01*
X185286009Y-188973866D02*
X185369342Y-189069104D01*
X185262200Y-189164342D01*
X185178866Y-189069104D01*
X185286009Y-188973866D01*
X185262200Y-189164342D01*
X187738390Y-189164342D02*
X188405057Y-189164342D01*
X188559819Y-190211961D02*
X187607438Y-190211961D01*
X187857438Y-188211961D01*
X188809819Y-188211961D01*
X189381247Y-188211961D02*
X189797914Y-190211961D01*
X190714580Y-188211961D01*
X191107438Y-189640533D02*
X192059819Y-189640533D01*
X190845533Y-190211961D02*
X191762200Y-188211961D01*
X192178866Y-190211961D01*
X193797914Y-190211961D02*
X192845533Y-190211961D01*
X193095533Y-188211961D01*
X194559819Y-189450057D02*
X196083628Y-189450057D01*
X196940771Y-190211961D02*
X197190771Y-188211961D01*
X197678866Y-189640533D01*
X198524104Y-188211961D01*
X198274104Y-190211961D01*
X199226485Y-190211961D02*
X199476485Y-188211961D01*
X200238390Y-188211961D01*
X200416961Y-188307200D01*
X200500295Y-188402438D01*
X200571723Y-188592914D01*
X200536009Y-188878628D01*
X200416961Y-189069104D01*
X200309819Y-189164342D01*
X200107438Y-189259580D01*
X199345533Y-189259580D01*
X201655057Y-189069104D02*
X201476485Y-188973866D01*
X201393152Y-188878628D01*
X201321723Y-188688152D01*
X201333628Y-188592914D01*
X201452676Y-188402438D01*
X201559819Y-188307200D01*
X201762200Y-188211961D01*
X202143152Y-188211961D01*
X202321723Y-188307200D01*
X202405057Y-188402438D01*
X202476485Y-188592914D01*
X202464580Y-188688152D01*
X202345533Y-188878628D01*
X202238390Y-188973866D01*
X202036009Y-189069104D01*
X201655057Y-189069104D01*
X201452676Y-189164342D01*
X201345533Y-189259580D01*
X201226485Y-189450057D01*
X201178866Y-189831009D01*
X201250295Y-190021485D01*
X201333628Y-190116723D01*
X201512200Y-190211961D01*
X201893152Y-190211961D01*
X202095533Y-190116723D01*
X202202676Y-190021485D01*
X202321723Y-189831009D01*
X202369342Y-189450057D01*
X202297914Y-189259580D01*
X202214580Y-189164342D01*
X202036009Y-189069104D01*
X203559819Y-189069104D02*
X203381247Y-188973866D01*
X203297914Y-188878628D01*
X203226485Y-188688152D01*
X203238390Y-188592914D01*
X203357438Y-188402438D01*
X203464580Y-188307200D01*
X203666961Y-188211961D01*
X204047914Y-188211961D01*
X204226485Y-188307200D01*
X204309819Y-188402438D01*
X204381247Y-188592914D01*
X204369342Y-188688152D01*
X204250295Y-188878628D01*
X204143152Y-188973866D01*
X203940771Y-189069104D01*
X203559819Y-189069104D01*
X203357438Y-189164342D01*
X203250295Y-189259580D01*
X203131247Y-189450057D01*
X203083628Y-189831009D01*
X203155057Y-190021485D01*
X203238390Y-190116723D01*
X203416961Y-190211961D01*
X203797914Y-190211961D01*
X204000295Y-190116723D01*
X204107438Y-190021485D01*
X204226485Y-189831009D01*
X204274104Y-189450057D01*
X204202676Y-189259580D01*
X204119342Y-189164342D01*
X203940771Y-189069104D01*
X206143152Y-188211961D02*
X205762200Y-188211961D01*
X205559819Y-188307200D01*
X205452676Y-188402438D01*
X205226485Y-188688152D01*
X205083628Y-189069104D01*
X204988390Y-189831009D01*
X205059819Y-190021485D01*
X205143152Y-190116723D01*
X205321723Y-190211961D01*
X205702676Y-190211961D01*
X205905057Y-190116723D01*
X206012200Y-190021485D01*
X206131247Y-189831009D01*
X206190771Y-189354819D01*
X206119342Y-189164342D01*
X206036009Y-189069104D01*
X205857438Y-188973866D01*
X205476485Y-188973866D01*
X205274104Y-189069104D01*
X205166961Y-189164342D01*
X205047914Y-189354819D01*
X207071723Y-188402438D02*
X207178866Y-188307200D01*
X207381247Y-188211961D01*
X207857438Y-188211961D01*
X208036009Y-188307200D01*
X208119342Y-188402438D01*
X208190771Y-188592914D01*
X208166961Y-188783390D01*
X208036009Y-189069104D01*
X206750295Y-190211961D01*
X207988390Y-190211961D01*
X210131247Y-188307200D02*
X209952676Y-188211961D01*
X209666961Y-188211961D01*
X209369342Y-188307200D01*
X209155057Y-188497676D01*
X209036009Y-188688152D01*
X208893152Y-189069104D01*
X208857438Y-189354819D01*
X208905057Y-189735771D01*
X208976485Y-189926247D01*
X209143152Y-190116723D01*
X209416961Y-190211961D01*
X209607438Y-190211961D01*
X209905057Y-190116723D01*
X210012200Y-190021485D01*
X210095533Y-189354819D01*
X209714580Y-189354819D01*
X212155057Y-190402438D02*
X211976485Y-190307200D01*
X211809819Y-190116723D01*
X211559819Y-189831009D01*
X211381247Y-189735771D01*
X211190771Y-189735771D01*
X211226485Y-190211961D02*
X211047914Y-190116723D01*
X210881247Y-189926247D01*
X210833628Y-189545295D01*
X210916961Y-188878628D01*
X211059819Y-188497676D01*
X211274104Y-188307200D01*
X211476485Y-188211961D01*
X211857438Y-188211961D01*
X212036009Y-188307200D01*
X212202676Y-188497676D01*
X212250295Y-188878628D01*
X212166961Y-189545295D01*
X212024104Y-189926247D01*
X211809819Y-190116723D01*
X211607438Y-190211961D01*
X211226485Y-190211961D01*
X213036009Y-189450057D02*
X214559819Y-189450057D01*
X216047914Y-188211961D02*
X216238390Y-188211961D01*
X216416961Y-188307200D01*
X216500295Y-188402438D01*
X216571723Y-188592914D01*
X216619342Y-188973866D01*
X216559819Y-189450057D01*
X216416961Y-189831009D01*
X216297914Y-190021485D01*
X216190771Y-190116723D01*
X215988390Y-190211961D01*
X215797914Y-190211961D01*
X215619342Y-190116723D01*
X215536009Y-190021485D01*
X215464580Y-189831009D01*
X215416961Y-189450057D01*
X215476485Y-188973866D01*
X215619342Y-188592914D01*
X215738390Y-188402438D01*
X215845533Y-188307200D01*
X216047914Y-188211961D01*
X217952676Y-188211961D02*
X218143152Y-188211961D01*
X218321723Y-188307200D01*
X218405057Y-188402438D01*
X218476485Y-188592914D01*
X218524104Y-188973866D01*
X218464580Y-189450057D01*
X218321723Y-189831009D01*
X218202676Y-190021485D01*
X218095533Y-190116723D01*
X217893152Y-190211961D01*
X217702676Y-190211961D01*
X217524104Y-190116723D01*
X217440771Y-190021485D01*
X217369342Y-189831009D01*
X217321723Y-189450057D01*
X217381247Y-188973866D01*
X217524104Y-188592914D01*
X217643152Y-188402438D01*
X217750295Y-188307200D01*
X217952676Y-188211961D01*
X219857438Y-188211961D02*
X220047914Y-188211961D01*
X220226485Y-188307200D01*
X220309819Y-188402438D01*
X220381247Y-188592914D01*
X220428866Y-188973866D01*
X220369342Y-189450057D01*
X220226485Y-189831009D01*
X220107438Y-190021485D01*
X220000295Y-190116723D01*
X219797914Y-190211961D01*
X219607438Y-190211961D01*
X219428866Y-190116723D01*
X219345533Y-190021485D01*
X219274104Y-189831009D01*
X219226485Y-189450057D01*
X219286009Y-188973866D01*
X219428866Y-188592914D01*
X219547914Y-188402438D01*
X219655057Y-188307200D01*
X219857438Y-188211961D01*
X221762200Y-188211961D02*
X221952676Y-188211961D01*
X222131247Y-188307200D01*
X222214580Y-188402438D01*
X222286009Y-188592914D01*
X222333628Y-188973866D01*
X222274104Y-189450057D01*
X222131247Y-189831009D01*
X222012200Y-190021485D01*
X221905057Y-190116723D01*
X221702676Y-190211961D01*
X221512200Y-190211961D01*
X221333628Y-190116723D01*
X221250295Y-190021485D01*
X221178866Y-189831009D01*
X221131247Y-189450057D01*
X221190771Y-188973866D01*
X221333628Y-188592914D01*
X221452676Y-188402438D01*
X221559819Y-188307200D01*
X221762200Y-188211961D01*
D10*
D11*
X178934342Y-185600057D02*
X178434342Y-185600057D01*
X178434342Y-186385771D02*
X178434342Y-184885771D01*
X179148628Y-184885771D01*
X179720057Y-186385771D02*
X179720057Y-185385771D01*
X179720057Y-184885771D02*
X179648628Y-184957200D01*
X179720057Y-185028628D01*
X179791485Y-184957200D01*
X179720057Y-184885771D01*
X179720057Y-185028628D01*
X180648628Y-186385771D02*
X180505771Y-186314342D01*
X180434342Y-186171485D01*
X180434342Y-184885771D01*
X181791485Y-186314342D02*
X181648628Y-186385771D01*
X181362914Y-186385771D01*
X181220057Y-186314342D01*
X181148628Y-186171485D01*
X181148628Y-185600057D01*
X181220057Y-185457200D01*
X181362914Y-185385771D01*
X181648628Y-185385771D01*
X181791485Y-185457200D01*
X181862914Y-185600057D01*
X181862914Y-185742914D01*
X181148628Y-185885771D01*
X182505771Y-186242914D02*
X182577200Y-186314342D01*
X182505771Y-186385771D01*
X182434342Y-186314342D01*
X182505771Y-186242914D01*
X182505771Y-186385771D01*
X182505771Y-185457200D02*
X182577200Y-185528628D01*
X182505771Y-185600057D01*
X182434342Y-185528628D01*
X182505771Y-185457200D01*
X182505771Y-185600057D01*
X184362914Y-185600057D02*
X184862914Y-185600057D01*
X185077200Y-186385771D02*
X184362914Y-186385771D01*
X184362914Y-184885771D01*
X185077200Y-184885771D01*
X185505771Y-184885771D02*
X186005771Y-186385771D01*
X186505771Y-184885771D01*
X186934342Y-185957200D02*
X187648628Y-185957200D01*
X186791485Y-186385771D02*
X187291485Y-184885771D01*
X187791485Y-186385771D01*
X189005771Y-186385771D02*
X188291485Y-186385771D01*
X188291485Y-184885771D01*
X189505771Y-185814342D02*
X190648628Y-185814342D01*
X191362914Y-186385771D02*
X191362914Y-184885771D01*
X191862914Y-185957200D01*
X192362914Y-184885771D01*
X192362914Y-186385771D01*
X193077200Y-186385771D02*
X193077200Y-184885771D01*
X193648628Y-184885771D01*
X193791485Y-184957200D01*
X193862914Y-185028628D01*
X193934342Y-185171485D01*
X193934342Y-185385771D01*
X193862914Y-185528628D01*
X193791485Y-185600057D01*
X193648628Y-185671485D01*
X193077200Y-185671485D01*
X194791485Y-185528628D02*
X194648628Y-185457200D01*
X194577200Y-185385771D01*
X194505771Y-185242914D01*
X194505771Y-185171485D01*
X194577200Y-185028628D01*
X194648628Y-184957200D01*
X194791485Y-184885771D01*
X195077200Y-184885771D01*
X195220057Y-184957200D01*
X195291485Y-185028628D01*
X195362914Y-185171485D01*
X195362914Y-185242914D01*
X195291485Y-185385771D01*
X195220057Y-185457200D01*
X195077200Y-185528628D01*
X194791485Y-185528628D01*
X194648628Y-185600057D01*
X194577200Y-185671485D01*
X194505771Y-185814342D01*
X194505771Y-186100057D01*
X194577200Y-186242914D01*
X194648628Y-186314342D01*
X194791485Y-186385771D01*
X195077200Y-186385771D01*
X195220057Y-186314342D01*
X195291485Y-186242914D01*
X195362914Y-186100057D01*
X195362914Y-185814342D01*
X195291485Y-185671485D01*
X195220057Y-185600057D01*
X195077200Y-185528628D01*
X196220057Y-185528628D02*
X196077200Y-185457200D01*
X196005771Y-185385771D01*
X195934342Y-185242914D01*
X195934342Y-185171485D01*
X196005771Y-185028628D01*
X196077200Y-184957200D01*
X196220057Y-184885771D01*
X196505771Y-184885771D01*
X196648628Y-184957200D01*
X196720057Y-185028628D01*
X196791485Y-185171485D01*
X196791485Y-185242914D01*
X196720057Y-185385771D01*
X196648628Y-185457200D01*
X196505771Y-185528628D01*
X196220057Y-185528628D01*
X196077200Y-185600057D01*
X196005771Y-185671485D01*
X195934342Y-185814342D01*
X195934342Y-186100057D01*
X196005771Y-186242914D01*
X196077200Y-186314342D01*
X196220057Y-186385771D01*
X196505771Y-186385771D01*
X196648628Y-186314342D01*
X196720057Y-186242914D01*
X196791485Y-186100057D01*
X196791485Y-185814342D01*
X196720057Y-185671485D01*
X196648628Y-185600057D01*
X196505771Y-185528628D01*
X198077200Y-184885771D02*
X197791485Y-184885771D01*
X197648628Y-184957200D01*
X197577200Y-185028628D01*
X197434342Y-185242914D01*
X197362914Y-185528628D01*
X197362914Y-186100057D01*
X197434342Y-186242914D01*
X197505771Y-186314342D01*
X197648628Y-186385771D01*
X197934342Y-186385771D01*
X198077200Y-186314342D01*
X198148628Y-186242914D01*
X198220057Y-186100057D01*
X198220057Y-185742914D01*
X198148628Y-185600057D01*
X198077200Y-185528628D01*
X197934342Y-185457200D01*
X197648628Y-185457200D01*
X197505771Y-185528628D01*
X197434342Y-185600057D01*
X197362914Y-185742914D01*
X198791485Y-185028628D02*
X198862914Y-184957200D01*
X199005771Y-184885771D01*
X199362914Y-184885771D01*
X199505771Y-184957200D01*
X199577200Y-185028628D01*
X199648628Y-185171485D01*
X199648628Y-185314342D01*
X199577200Y-185528628D01*
X198720057Y-186385771D01*
X199648628Y-186385771D01*
X200291485Y-186242914D02*
X200362914Y-186314342D01*
X200291485Y-186385771D01*
X200220057Y-186314342D01*
X200291485Y-186242914D01*
X200291485Y-186385771D01*
X201005771Y-186385771D02*
X201005771Y-184885771D01*
X201148628Y-185814342D02*
X201577200Y-186385771D01*
X201577200Y-185385771D02*
X201005771Y-185957200D01*
X202220057Y-186385771D02*
X202220057Y-185385771D01*
X202220057Y-184885771D02*
X202148628Y-184957200D01*
X202220057Y-185028628D01*
X202291485Y-184957200D01*
X202220057Y-184885771D01*
X202220057Y-185028628D01*
X203577200Y-186314342D02*
X203434342Y-186385771D01*
X203148628Y-186385771D01*
X203005771Y-186314342D01*
X202934342Y-186242914D01*
X202862914Y-186100057D01*
X202862914Y-185671485D01*
X202934342Y-185528628D01*
X203005771Y-185457200D01*
X203148628Y-185385771D01*
X203434342Y-185385771D01*
X203577200Y-185457200D01*
X204862914Y-186385771D02*
X204862914Y-185600057D01*
X204791485Y-185457200D01*
X204648628Y-185385771D01*
X204362914Y-185385771D01*
X204220057Y-185457200D01*
X204862914Y-186314342D02*
X204720057Y-186385771D01*
X204362914Y-186385771D01*
X204220057Y-186314342D01*
X204148628Y-186171485D01*
X204148628Y-186028628D01*
X204220057Y-185885771D01*
X204362914Y-185814342D01*
X204720057Y-185814342D01*
X204862914Y-185742914D01*
X206220057Y-186385771D02*
X206220057Y-184885771D01*
X206220057Y-186314342D02*
X206077200Y-186385771D01*
X205791485Y-186385771D01*
X205648628Y-186314342D01*
X205577200Y-186242914D01*
X205505771Y-186100057D01*
X205505771Y-185671485D01*
X205577200Y-185528628D01*
X205648628Y-185457200D01*
X205791485Y-185385771D01*
X206077200Y-185385771D01*
X206220057Y-185457200D01*
X206577200Y-186528628D02*
X207720057Y-186528628D01*
X208077200Y-185385771D02*
X208077200Y-186885771D01*
X208077200Y-185457200D02*
X208220057Y-185385771D01*
X208505771Y-185385771D01*
X208648628Y-185457200D01*
X208720057Y-185528628D01*
X208791485Y-185671485D01*
X208791485Y-186100057D01*
X208720057Y-186242914D01*
X208648628Y-186314342D01*
X208505771Y-186385771D01*
X208220057Y-186385771D01*
X208077200Y-186314342D01*
X210077200Y-186314342D02*
X209934342Y-186385771D01*
X209648628Y-186385771D01*
X209505771Y-186314342D01*
X209434342Y-186242914D01*
X209362914Y-186100057D01*
X209362914Y-185671485D01*
X209434342Y-185528628D01*
X209505771Y-185457200D01*
X209648628Y-185385771D01*
X209934342Y-185385771D01*
X210077200Y-185457200D01*
X210720057Y-186385771D02*
X210720057Y-184885771D01*
X210720057Y-185457200D02*
X210862914Y-185385771D01*
X211148628Y-185385771D01*
X211291485Y-185457200D01*
X211362914Y-185528628D01*
X211434342Y-185671485D01*
X211434342Y-186100057D01*
X211362914Y-186242914D01*
X211291485Y-186314342D01*
X211148628Y-186385771D01*
X210862914Y-186385771D01*
X210720057Y-186314342D01*
D10*
D11*
X177002200Y-181507200D02*
X285002200Y-181507200D01*
D10*
D11*
X178362914Y-183614342D02*
X178577200Y-183685771D01*
X178934342Y-183685771D01*
X179077200Y-183614342D01*
X179148628Y-183542914D01*
X179220057Y-183400057D01*
X179220057Y-183257200D01*
X179148628Y-183114342D01*
X179077200Y-183042914D01*
X178934342Y-182971485D01*
X178648628Y-182900057D01*
X178505771Y-182828628D01*
X178434342Y-182757200D01*
X178362914Y-182614342D01*
X178362914Y-182471485D01*
X178434342Y-182328628D01*
X178505771Y-182257200D01*
X178648628Y-182185771D01*
X179005771Y-182185771D01*
X179220057Y-182257200D01*
X179862914Y-183685771D02*
X179862914Y-182185771D01*
X180505771Y-183685771D02*
X180505771Y-182900057D01*
X180434342Y-182757200D01*
X180291485Y-182685771D01*
X180077200Y-182685771D01*
X179934342Y-182757200D01*
X179862914Y-182828628D01*
X181791485Y-183614342D02*
X181648628Y-183685771D01*
X181362914Y-183685771D01*
X181220057Y-183614342D01*
X181148628Y-183471485D01*
X181148628Y-182900057D01*
X181220057Y-182757200D01*
X181362914Y-182685771D01*
X181648628Y-182685771D01*
X181791485Y-182757200D01*
X181862914Y-182900057D01*
X181862914Y-183042914D01*
X181148628Y-183185771D01*
X183077200Y-183614342D02*
X182934342Y-183685771D01*
X182648628Y-183685771D01*
X182505771Y-183614342D01*
X182434342Y-183471485D01*
X182434342Y-182900057D01*
X182505771Y-182757200D01*
X182648628Y-182685771D01*
X182934342Y-182685771D01*
X183077200Y-182757200D01*
X183148628Y-182900057D01*
X183148628Y-183042914D01*
X182434342Y-183185771D01*
X183577200Y-182685771D02*
X184148628Y-182685771D01*
X183791485Y-182185771D02*
X183791485Y-183471485D01*
X183862914Y-183614342D01*
X184005771Y-183685771D01*
X184148628Y-183685771D01*
X184648628Y-183542914D02*
X184720057Y-183614342D01*
X184648628Y-183685771D01*
X184577200Y-183614342D01*
X184648628Y-183542914D01*
X184648628Y-183685771D01*
X184648628Y-182757200D02*
X184720057Y-182828628D01*
X184648628Y-182900057D01*
X184577200Y-182828628D01*
X184648628Y-182757200D01*
X184648628Y-182900057D01*
D10*
D12*
X178554342Y-180685771D02*
X178554342Y-179185771D01*
X179197200Y-180685771D02*
X179197200Y-179900057D01*
X179125771Y-179757200D01*
X178982914Y-179685771D01*
X178768628Y-179685771D01*
X178625771Y-179757200D01*
X178554342Y-179828628D01*
X179697200Y-179685771D02*
X180268628Y-179685771D01*
X179911485Y-179185771D02*
X179911485Y-180471485D01*
X179982914Y-180614342D01*
X180125771Y-180685771D01*
X180268628Y-180685771D01*
X180554342Y-179685771D02*
X181125771Y-179685771D01*
X180768628Y-179185771D02*
X180768628Y-180471485D01*
X180840057Y-180614342D01*
X180982914Y-180685771D01*
X181125771Y-180685771D01*
X181625771Y-179685771D02*
X181625771Y-181185771D01*
X181625771Y-179757200D02*
X181768628Y-179685771D01*
X182054342Y-179685771D01*
X182197200Y-179757200D01*
X182268628Y-179828628D01*
X182340057Y-179971485D01*
X182340057Y-180400057D01*
X182268628Y-180542914D01*
X182197200Y-180614342D01*
X182054342Y-180685771D01*
X181768628Y-180685771D01*
X181625771Y-180614342D01*
X182911485Y-180614342D02*
X183054342Y-180685771D01*
X183340057Y-180685771D01*
X183482914Y-180614342D01*
X183554342Y-180471485D01*
X183554342Y-180400057D01*
X183482914Y-180257200D01*
X183340057Y-180185771D01*
X183125771Y-180185771D01*
X182982914Y-180114342D01*
X182911485Y-179971485D01*
X182911485Y-179900057D01*
X182982914Y-179757200D01*
X183125771Y-179685771D01*
X183340057Y-179685771D01*
X183482914Y-179757200D01*
X184197200Y-180542914D02*
X184268628Y-180614342D01*
X184197200Y-180685771D01*
X184125771Y-180614342D01*
X184197200Y-180542914D01*
X184197200Y-180685771D01*
X184197200Y-179757200D02*
X184268628Y-179828628D01*
X184197200Y-179900057D01*
X184125771Y-179828628D01*
X184197200Y-179757200D01*
X184197200Y-179900057D01*
X185982914Y-179114342D02*
X184697200Y-181042914D01*
X187554342Y-179114342D02*
X186268628Y-181042914D01*
X188697200Y-179685771D02*
X188697200Y-180900057D01*
X188625771Y-181042914D01*
X188554342Y-181114342D01*
X188411485Y-181185771D01*
X188197200Y-181185771D01*
X188054342Y-181114342D01*
X188697200Y-180614342D02*
X188554342Y-180685771D01*
X188268628Y-180685771D01*
X188125771Y-180614342D01*
X188054342Y-180542914D01*
X187982914Y-180400057D01*
X187982914Y-179971485D01*
X188054342Y-179828628D01*
X188125771Y-179757200D01*
X188268628Y-179685771D01*
X188554342Y-179685771D01*
X188697200Y-179757200D01*
X189411485Y-180685771D02*
X189411485Y-179685771D01*
X189411485Y-179185771D02*
X189340057Y-179257200D01*
X189411485Y-179328628D01*
X189482914Y-179257200D01*
X189411485Y-179185771D01*
X189411485Y-179328628D01*
X189911485Y-179685771D02*
X190482914Y-179685771D01*
X190125771Y-179185771D02*
X190125771Y-180471485D01*
X190197200Y-180614342D01*
X190340057Y-180685771D01*
X190482914Y-180685771D01*
X190982914Y-180685771D02*
X190982914Y-179185771D01*
X191625771Y-180685771D02*
X191625771Y-179900057D01*
X191554342Y-179757200D01*
X191411485Y-179685771D01*
X191197200Y-179685771D01*
X191054342Y-179757200D01*
X190982914Y-179828628D01*
X192982914Y-179685771D02*
X192982914Y-180685771D01*
X192340057Y-179685771D02*
X192340057Y-180471485D01*
X192411485Y-180614342D01*
X192554342Y-180685771D01*
X192768628Y-180685771D01*
X192911485Y-180614342D01*
X192982914Y-180542914D01*
X193697200Y-180685771D02*
X193697200Y-179185771D01*
X193697200Y-179757200D02*
X193840057Y-179685771D01*
X194125771Y-179685771D01*
X194268628Y-179757200D01*
X194340057Y-179828628D01*
X194411485Y-179971485D01*
X194411485Y-180400057D01*
X194340057Y-180542914D01*
X194268628Y-180614342D01*
X194125771Y-180685771D01*
X193840057Y-180685771D01*
X193697200Y-180614342D01*
X195054342Y-180542914D02*
X195125771Y-180614342D01*
X195054342Y-180685771D01*
X194982914Y-180614342D01*
X195054342Y-180542914D01*
X195054342Y-180685771D01*
X196411485Y-180614342D02*
X196268628Y-180685771D01*
X195982914Y-180685771D01*
X195840057Y-180614342D01*
X195768628Y-180542914D01*
X195697200Y-180400057D01*
X195697200Y-179971485D01*
X195768628Y-179828628D01*
X195840057Y-179757200D01*
X195982914Y-179685771D01*
X196268628Y-179685771D01*
X196411485Y-179757200D01*
X197268628Y-180685771D02*
X197125771Y-180614342D01*
X197054342Y-180542914D01*
X196982914Y-180400057D01*
X196982914Y-179971485D01*
X197054342Y-179828628D01*
X197125771Y-179757200D01*
X197268628Y-179685771D01*
X197482914Y-179685771D01*
X197625771Y-179757200D01*
X197697200Y-179828628D01*
X197768628Y-179971485D01*
X197768628Y-180400057D01*
X197697200Y-180542914D01*
X197625771Y-180614342D01*
X197482914Y-180685771D01*
X197268628Y-180685771D01*
X198411485Y-180685771D02*
X198411485Y-179685771D01*
X198411485Y-179828628D02*
X198482914Y-179757200D01*
X198625771Y-179685771D01*
X198840057Y-179685771D01*
X198982914Y-179757200D01*
X199054342Y-179900057D01*
X199054342Y-180685771D01*
X199054342Y-179900057D02*
X199125771Y-179757200D01*
X199268628Y-179685771D01*
X199482914Y-179685771D01*
X199625771Y-179757200D01*
X199697200Y-179900057D01*
X199697200Y-180685771D01*
X201482914Y-179114342D02*
X200197200Y-181042914D01*
X201982914Y-180685771D02*
X201982914Y-179185771D01*
X202482914Y-180257200D01*
X202982914Y-179185771D01*
X202982914Y-180685771D01*
X203697200Y-180685771D02*
X203697200Y-179685771D01*
X203697200Y-179185771D02*
X203625771Y-179257200D01*
X203697200Y-179328628D01*
X203768628Y-179257200D01*
X203697200Y-179185771D01*
X203697200Y-179328628D01*
X204340057Y-180614342D02*
X204482914Y-180685771D01*
X204768628Y-180685771D01*
X204911485Y-180614342D01*
X204982914Y-180471485D01*
X204982914Y-180400057D01*
X204911485Y-180257200D01*
X204768628Y-180185771D01*
X204554342Y-180185771D01*
X204411485Y-180114342D01*
X204340057Y-179971485D01*
X204340057Y-179900057D01*
X204411485Y-179757200D01*
X204554342Y-179685771D01*
X204768628Y-179685771D01*
X204911485Y-179757200D01*
X205411485Y-179685771D02*
X205982914Y-179685771D01*
X205625771Y-179185771D02*
X205625771Y-180471485D01*
X205697200Y-180614342D01*
X205840057Y-180685771D01*
X205982914Y-180685771D01*
X207054342Y-180614342D02*
X206911485Y-180685771D01*
X206625771Y-180685771D01*
X206482914Y-180614342D01*
X206411485Y-180471485D01*
X206411485Y-179900057D01*
X206482914Y-179757200D01*
X206625771Y-179685771D01*
X206911485Y-179685771D01*
X207054342Y-179757200D01*
X207125771Y-179900057D01*
X207125771Y-180042914D01*
X206411485Y-180185771D01*
X207768628Y-180685771D02*
X207768628Y-179685771D01*
X207768628Y-179971485D02*
X207840057Y-179828628D01*
X207911485Y-179757200D01*
X208054342Y-179685771D01*
X208197200Y-179685771D01*
X208697200Y-180685771D02*
X208697200Y-179185771D01*
X208697200Y-179900057D02*
X209554342Y-179900057D01*
X209554342Y-180685771D02*
X209554342Y-179185771D01*
X210125771Y-179185771D02*
X210482914Y-180685771D01*
X210768628Y-179614342D01*
X211054342Y-180685771D01*
X211411485Y-179185771D01*
D10*
D11*
D10*
D11*
D10*
D11*
D10*
D11*
D10*
D11*
X197002200Y-191507200D02*
X197002200Y-194507200D01*
D10*
D11*
X261002200Y-191507200D02*
X261002200Y-198007200D01*
D14*
X103140000Y-94920000D02*
X103140000Y-95720000D01*
X103940000Y-94920000D02*
X103140000Y-94920000D01*
X102340000Y-95720000D02*
X102340000Y-94920000D01*
X103940000Y-95720000D02*
X102340000Y-95720000D01*
X103940000Y-94920000D02*
X103940000Y-95720000D01*
X103940000Y-94920000D02*
X103940000Y-94320000D01*
X104740000Y-94920000D02*
X103940000Y-94920000D01*
X104740000Y-94120000D02*
X104740000Y-95720000D01*
X101140000Y-93520000D02*
X101140000Y-96320000D01*
X101740000Y-93520000D02*
X105340000Y-93520000D01*
X101740000Y-96320000D02*
X101740000Y-93520000D01*
X105340000Y-96320000D02*
X101740000Y-96320000D01*
X105340000Y-93520000D02*
X105340000Y-96320000D01*
D15*
X112733809Y-97039285D02*
X112233809Y-96872619D01*
X112733809Y-96705952D01*
X112376666Y-96563095D02*
X112376666Y-96325000D01*
X112233809Y-96610714D02*
X112733809Y-96444047D01*
X112233809Y-96277380D01*
X112233809Y-96110714D02*
X112733809Y-96110714D01*
X112733809Y-95991666D01*
X112710000Y-95920238D01*
X112662380Y-95872619D01*
X112614761Y-95848809D01*
X112519523Y-95825000D01*
X112448095Y-95825000D01*
X112352857Y-95848809D01*
X112305238Y-95872619D01*
X112257619Y-95920238D01*
X112233809Y-95991666D01*
X112233809Y-96110714D01*
X112233809Y-95610714D02*
X112733809Y-95610714D01*
X112733809Y-95491666D01*
X112710000Y-95420238D01*
X112662380Y-95372619D01*
X112614761Y-95348809D01*
X112519523Y-95325000D01*
X112448095Y-95325000D01*
X112352857Y-95348809D01*
X112305238Y-95372619D01*
X112257619Y-95420238D01*
X112233809Y-95491666D01*
X112233809Y-95610714D01*
X112233809Y-94729761D02*
X112733809Y-94729761D01*
X112852857Y-94515476D02*
X112876666Y-94467857D01*
X112876666Y-94396428D01*
X112852857Y-94348809D01*
X112805238Y-94325000D01*
X112757619Y-94325000D01*
X112710000Y-94348809D01*
X112543333Y-94515476D01*
X112543333Y-94325000D01*
X112281428Y-93825000D02*
X112257619Y-93848809D01*
X112233809Y-93920238D01*
X112233809Y-93967857D01*
X112257619Y-94039285D01*
X112305238Y-94086904D01*
X112352857Y-94110714D01*
X112448095Y-94134523D01*
X112519523Y-94134523D01*
X112614761Y-94110714D01*
X112662380Y-94086904D01*
X112710000Y-94039285D01*
X112733809Y-93967857D01*
X112733809Y-93920238D01*
X112710000Y-93848809D01*
X112686190Y-93825000D01*
X112233809Y-93015476D02*
X112495714Y-93015476D01*
X112543333Y-93039285D01*
X112567142Y-93086904D01*
X112567142Y-93182142D01*
X112543333Y-93229761D01*
X112257619Y-93015476D02*
X112233809Y-93063095D01*
X112233809Y-93182142D01*
X112257619Y-93229761D01*
X112305238Y-93253571D01*
X112352857Y-93253571D01*
X112400476Y-93229761D01*
X112424285Y-93182142D01*
X112424285Y-93063095D01*
X112448095Y-93015476D01*
X112233809Y-92563095D02*
X112733809Y-92563095D01*
X112257619Y-92563095D02*
X112233809Y-92610714D01*
X112233809Y-92705952D01*
X112257619Y-92753571D01*
X112281428Y-92777380D01*
X112329047Y-92801190D01*
X112471904Y-92801190D01*
X112519523Y-92777380D01*
X112543333Y-92753571D01*
X112567142Y-92705952D01*
X112567142Y-92610714D01*
X112543333Y-92563095D01*
X112233809Y-92110714D02*
X112733809Y-92110714D01*
X112257619Y-92110714D02*
X112233809Y-92158333D01*
X112233809Y-92253571D01*
X112257619Y-92301190D01*
X112281428Y-92325000D01*
X112329047Y-92348809D01*
X112471904Y-92348809D01*
X112519523Y-92325000D01*
X112543333Y-92301190D01*
X112567142Y-92253571D01*
X112567142Y-92158333D01*
X112543333Y-92110714D01*
X112233809Y-91872619D02*
X112567142Y-91872619D01*
X112471904Y-91872619D02*
X112519523Y-91848809D01*
X112543333Y-91825000D01*
X112567142Y-91777380D01*
X112567142Y-91729761D01*
X112257619Y-91205952D02*
X112233809Y-91158333D01*
X112233809Y-91063095D01*
X112257619Y-91015476D01*
X112305238Y-90991666D01*
X112329047Y-90991666D01*
X112376666Y-91015476D01*
X112400476Y-91063095D01*
X112400476Y-91134523D01*
X112424285Y-91182142D01*
X112471904Y-91205952D01*
X112495714Y-91205952D01*
X112543333Y-91182142D01*
X112567142Y-91134523D01*
X112567142Y-91063095D01*
X112543333Y-91015476D01*
X112257619Y-90586904D02*
X112233809Y-90634523D01*
X112233809Y-90729761D01*
X112257619Y-90777380D01*
X112305238Y-90801190D01*
X112495714Y-90801190D01*
X112543333Y-90777380D01*
X112567142Y-90729761D01*
X112567142Y-90634523D01*
X112543333Y-90586904D01*
X112495714Y-90563095D01*
X112448095Y-90563095D01*
X112400476Y-90801190D01*
X112233809Y-90277380D02*
X112257619Y-90325000D01*
X112305238Y-90348809D01*
X112733809Y-90348809D01*
X112257619Y-89896428D02*
X112233809Y-89944047D01*
X112233809Y-90039285D01*
X112257619Y-90086904D01*
X112305238Y-90110714D01*
X112495714Y-90110714D01*
X112543333Y-90086904D01*
X112567142Y-90039285D01*
X112567142Y-89944047D01*
X112543333Y-89896428D01*
X112495714Y-89872619D01*
X112448095Y-89872619D01*
X112400476Y-90110714D01*
X112257619Y-89444047D02*
X112233809Y-89491666D01*
X112233809Y-89586904D01*
X112257619Y-89634523D01*
X112281428Y-89658333D01*
X112329047Y-89682142D01*
X112471904Y-89682142D01*
X112519523Y-89658333D01*
X112543333Y-89634523D01*
X112567142Y-89586904D01*
X112567142Y-89491666D01*
X112543333Y-89444047D01*
X112567142Y-89301190D02*
X112567142Y-89110714D01*
X112733809Y-89229761D02*
X112305238Y-89229761D01*
X112257619Y-89205952D01*
X112233809Y-89158333D01*
X112233809Y-89110714D01*
X111928809Y-97170238D02*
X111928809Y-97122619D01*
X111905000Y-97075000D01*
X111881190Y-97051190D01*
X111833571Y-97027380D01*
X111738333Y-97003571D01*
X111619285Y-97003571D01*
X111524047Y-97027380D01*
X111476428Y-97051190D01*
X111452619Y-97075000D01*
X111428809Y-97122619D01*
X111428809Y-97170238D01*
X111452619Y-97217857D01*
X111476428Y-97241666D01*
X111524047Y-97265476D01*
X111619285Y-97289285D01*
X111738333Y-97289285D01*
X111833571Y-97265476D01*
X111881190Y-97241666D01*
X111905000Y-97217857D01*
X111928809Y-97170238D01*
X111476428Y-96789285D02*
X111452619Y-96765476D01*
X111428809Y-96789285D01*
X111452619Y-96813095D01*
X111476428Y-96789285D01*
X111428809Y-96789285D01*
X111928809Y-96455952D02*
X111928809Y-96408333D01*
X111905000Y-96360714D01*
X111881190Y-96336904D01*
X111833571Y-96313095D01*
X111738333Y-96289285D01*
X111619285Y-96289285D01*
X111524047Y-96313095D01*
X111476428Y-96336904D01*
X111452619Y-96360714D01*
X111428809Y-96408333D01*
X111428809Y-96455952D01*
X111452619Y-96503571D01*
X111476428Y-96527380D01*
X111524047Y-96551190D01*
X111619285Y-96575000D01*
X111738333Y-96575000D01*
X111833571Y-96551190D01*
X111881190Y-96527380D01*
X111905000Y-96503571D01*
X111928809Y-96455952D01*
X111619285Y-96075000D02*
X111619285Y-95694047D01*
X111928809Y-95360714D02*
X111928809Y-95313095D01*
X111905000Y-95265476D01*
X111881190Y-95241666D01*
X111833571Y-95217857D01*
X111738333Y-95194047D01*
X111619285Y-95194047D01*
X111524047Y-95217857D01*
X111476428Y-95241666D01*
X111452619Y-95265476D01*
X111428809Y-95313095D01*
X111428809Y-95360714D01*
X111452619Y-95408333D01*
X111476428Y-95432142D01*
X111524047Y-95455952D01*
X111619285Y-95479761D01*
X111738333Y-95479761D01*
X111833571Y-95455952D01*
X111881190Y-95432142D01*
X111905000Y-95408333D01*
X111928809Y-95360714D01*
X111476428Y-94979761D02*
X111452619Y-94955952D01*
X111428809Y-94979761D01*
X111452619Y-95003571D01*
X111476428Y-94979761D01*
X111428809Y-94979761D01*
X111881190Y-94765476D02*
X111905000Y-94741666D01*
X111928809Y-94694047D01*
X111928809Y-94575000D01*
X111905000Y-94527380D01*
X111881190Y-94503571D01*
X111833571Y-94479761D01*
X111785952Y-94479761D01*
X111714523Y-94503571D01*
X111428809Y-94789285D01*
X111428809Y-94479761D01*
X111928809Y-94027380D02*
X111928809Y-94265476D01*
X111690714Y-94289285D01*
X111714523Y-94265476D01*
X111738333Y-94217857D01*
X111738333Y-94098809D01*
X111714523Y-94051190D01*
X111690714Y-94027380D01*
X111643095Y-94003571D01*
X111524047Y-94003571D01*
X111476428Y-94027380D01*
X111452619Y-94051190D01*
X111428809Y-94098809D01*
X111428809Y-94217857D01*
X111452619Y-94265476D01*
X111476428Y-94289285D01*
X111928809Y-93860714D02*
X111428809Y-93694047D01*
X111928809Y-93527380D01*
X111476428Y-93075000D02*
X111452619Y-93098809D01*
X111428809Y-93170238D01*
X111428809Y-93217857D01*
X111452619Y-93289285D01*
X111500238Y-93336904D01*
X111547857Y-93360714D01*
X111643095Y-93384523D01*
X111714523Y-93384523D01*
X111809761Y-93360714D01*
X111857380Y-93336904D01*
X111905000Y-93289285D01*
X111928809Y-93217857D01*
X111928809Y-93170238D01*
X111905000Y-93098809D01*
X111881190Y-93075000D01*
X111476428Y-92575000D02*
X111452619Y-92598809D01*
X111428809Y-92670238D01*
X111428809Y-92717857D01*
X111452619Y-92789285D01*
X111500238Y-92836904D01*
X111547857Y-92860714D01*
X111643095Y-92884523D01*
X111714523Y-92884523D01*
X111809761Y-92860714D01*
X111857380Y-92836904D01*
X111905000Y-92789285D01*
X111928809Y-92717857D01*
X111928809Y-92670238D01*
X111905000Y-92598809D01*
X111881190Y-92575000D01*
X111428809Y-91717857D02*
X111428809Y-92003571D01*
X111428809Y-91860714D02*
X111928809Y-91860714D01*
X111857380Y-91908333D01*
X111809761Y-91955952D01*
X111785952Y-92003571D01*
X111428809Y-91241666D02*
X111428809Y-91527380D01*
X111428809Y-91384523D02*
X111928809Y-91384523D01*
X111857380Y-91432142D01*
X111809761Y-91479761D01*
X111785952Y-91527380D01*
X111928809Y-90932142D02*
X111928809Y-90884523D01*
X111905000Y-90836904D01*
X111881190Y-90813095D01*
X111833571Y-90789285D01*
X111738333Y-90765476D01*
X111619285Y-90765476D01*
X111524047Y-90789285D01*
X111476428Y-90813095D01*
X111452619Y-90836904D01*
X111428809Y-90884523D01*
X111428809Y-90932142D01*
X111452619Y-90979761D01*
X111476428Y-91003571D01*
X111524047Y-91027380D01*
X111619285Y-91051190D01*
X111738333Y-91051190D01*
X111833571Y-91027380D01*
X111881190Y-91003571D01*
X111905000Y-90979761D01*
X111928809Y-90932142D01*
X111428809Y-90289285D02*
X111428809Y-90575000D01*
X111428809Y-90432142D02*
X111928809Y-90432142D01*
X111857380Y-90479761D01*
X111809761Y-90527380D01*
X111785952Y-90575000D01*
X111928809Y-89979761D02*
X111928809Y-89932142D01*
X111905000Y-89884523D01*
X111881190Y-89860714D01*
X111833571Y-89836904D01*
X111738333Y-89813095D01*
X111619285Y-89813095D01*
X111524047Y-89836904D01*
X111476428Y-89860714D01*
X111452619Y-89884523D01*
X111428809Y-89932142D01*
X111428809Y-89979761D01*
X111452619Y-90027380D01*
X111476428Y-90051190D01*
X111524047Y-90075000D01*
X111619285Y-90098809D01*
X111738333Y-90098809D01*
X111833571Y-90075000D01*
X111881190Y-90051190D01*
X111905000Y-90027380D01*
X111928809Y-89979761D01*
X111928809Y-89503571D02*
X111928809Y-89455952D01*
X111905000Y-89408333D01*
X111881190Y-89384523D01*
X111833571Y-89360714D01*
X111738333Y-89336904D01*
X111619285Y-89336904D01*
X111524047Y-89360714D01*
X111476428Y-89384523D01*
X111452619Y-89408333D01*
X111428809Y-89455952D01*
X111428809Y-89503571D01*
X111452619Y-89551190D01*
X111476428Y-89575000D01*
X111524047Y-89598809D01*
X111619285Y-89622619D01*
X111738333Y-89622619D01*
X111833571Y-89598809D01*
X111881190Y-89575000D01*
X111905000Y-89551190D01*
X111928809Y-89503571D01*
X111428809Y-88860714D02*
X111428809Y-89146428D01*
X111428809Y-89003571D02*
X111928809Y-89003571D01*
X111857380Y-89051190D01*
X111809761Y-89098809D01*
X111785952Y-89146428D01*
X111123809Y-97170238D02*
X111123809Y-97122619D01*
X111100000Y-97075000D01*
X111076190Y-97051190D01*
X111028571Y-97027380D01*
X110933333Y-97003571D01*
X110814285Y-97003571D01*
X110719047Y-97027380D01*
X110671428Y-97051190D01*
X110647619Y-97075000D01*
X110623809Y-97122619D01*
X110623809Y-97170238D01*
X110647619Y-97217857D01*
X110671428Y-97241666D01*
X110719047Y-97265476D01*
X110814285Y-97289285D01*
X110933333Y-97289285D01*
X111028571Y-97265476D01*
X111076190Y-97241666D01*
X111100000Y-97217857D01*
X111123809Y-97170238D01*
X110671428Y-96789285D02*
X110647619Y-96765476D01*
X110623809Y-96789285D01*
X110647619Y-96813095D01*
X110671428Y-96789285D01*
X110623809Y-96789285D01*
X111076190Y-96575000D02*
X111100000Y-96551190D01*
X111123809Y-96503571D01*
X111123809Y-96384523D01*
X111100000Y-96336904D01*
X111076190Y-96313095D01*
X111028571Y-96289285D01*
X110980952Y-96289285D01*
X110909523Y-96313095D01*
X110623809Y-96598809D01*
X110623809Y-96289285D01*
X111123809Y-95836904D02*
X111123809Y-96075000D01*
X110885714Y-96098809D01*
X110909523Y-96075000D01*
X110933333Y-96027380D01*
X110933333Y-95908333D01*
X110909523Y-95860714D01*
X110885714Y-95836904D01*
X110838095Y-95813095D01*
X110719047Y-95813095D01*
X110671428Y-95836904D01*
X110647619Y-95860714D01*
X110623809Y-95908333D01*
X110623809Y-96027380D01*
X110647619Y-96075000D01*
X110671428Y-96098809D01*
X110814285Y-95598809D02*
X110814285Y-95217857D01*
X111123809Y-94884523D02*
X111123809Y-94836904D01*
X111100000Y-94789285D01*
X111076190Y-94765476D01*
X111028571Y-94741666D01*
X110933333Y-94717857D01*
X110814285Y-94717857D01*
X110719047Y-94741666D01*
X110671428Y-94765476D01*
X110647619Y-94789285D01*
X110623809Y-94836904D01*
X110623809Y-94884523D01*
X110647619Y-94932142D01*
X110671428Y-94955952D01*
X110719047Y-94979761D01*
X110814285Y-95003571D01*
X110933333Y-95003571D01*
X111028571Y-94979761D01*
X111076190Y-94955952D01*
X111100000Y-94932142D01*
X111123809Y-94884523D01*
X110671428Y-94503571D02*
X110647619Y-94479761D01*
X110623809Y-94503571D01*
X110647619Y-94527380D01*
X110671428Y-94503571D01*
X110623809Y-94503571D01*
X111123809Y-94027380D02*
X111123809Y-94265476D01*
X110885714Y-94289285D01*
X110909523Y-94265476D01*
X110933333Y-94217857D01*
X110933333Y-94098809D01*
X110909523Y-94051190D01*
X110885714Y-94027380D01*
X110838095Y-94003571D01*
X110719047Y-94003571D01*
X110671428Y-94027380D01*
X110647619Y-94051190D01*
X110623809Y-94098809D01*
X110623809Y-94217857D01*
X110647619Y-94265476D01*
X110671428Y-94289285D01*
X111123809Y-93860714D02*
X110623809Y-93694047D01*
X111123809Y-93527380D01*
X110671428Y-93075000D02*
X110647619Y-93098809D01*
X110623809Y-93170238D01*
X110623809Y-93217857D01*
X110647619Y-93289285D01*
X110695238Y-93336904D01*
X110742857Y-93360714D01*
X110838095Y-93384523D01*
X110909523Y-93384523D01*
X111004761Y-93360714D01*
X111052380Y-93336904D01*
X111100000Y-93289285D01*
X111123809Y-93217857D01*
X111123809Y-93170238D01*
X111100000Y-93098809D01*
X111076190Y-93075000D01*
X110671428Y-92575000D02*
X110647619Y-92598809D01*
X110623809Y-92670238D01*
X110623809Y-92717857D01*
X110647619Y-92789285D01*
X110695238Y-92836904D01*
X110742857Y-92860714D01*
X110838095Y-92884523D01*
X110909523Y-92884523D01*
X111004761Y-92860714D01*
X111052380Y-92836904D01*
X111100000Y-92789285D01*
X111123809Y-92717857D01*
X111123809Y-92670238D01*
X111100000Y-92598809D01*
X111076190Y-92575000D01*
X110623809Y-91717857D02*
X110623809Y-92003571D01*
X110623809Y-91860714D02*
X111123809Y-91860714D01*
X111052380Y-91908333D01*
X111004761Y-91955952D01*
X110980952Y-92003571D01*
X110623809Y-91241666D02*
X110623809Y-91527380D01*
X110623809Y-91384523D02*
X111123809Y-91384523D01*
X111052380Y-91432142D01*
X111004761Y-91479761D01*
X110980952Y-91527380D01*
X111123809Y-90932142D02*
X111123809Y-90884523D01*
X111100000Y-90836904D01*
X111076190Y-90813095D01*
X111028571Y-90789285D01*
X110933333Y-90765476D01*
X110814285Y-90765476D01*
X110719047Y-90789285D01*
X110671428Y-90813095D01*
X110647619Y-90836904D01*
X110623809Y-90884523D01*
X110623809Y-90932142D01*
X110647619Y-90979761D01*
X110671428Y-91003571D01*
X110719047Y-91027380D01*
X110814285Y-91051190D01*
X110933333Y-91051190D01*
X111028571Y-91027380D01*
X111076190Y-91003571D01*
X111100000Y-90979761D01*
X111123809Y-90932142D01*
X110623809Y-90289285D02*
X110623809Y-90575000D01*
X110623809Y-90432142D02*
X111123809Y-90432142D01*
X111052380Y-90479761D01*
X111004761Y-90527380D01*
X110980952Y-90575000D01*
X111123809Y-89979761D02*
X111123809Y-89932142D01*
X111100000Y-89884523D01*
X111076190Y-89860714D01*
X111028571Y-89836904D01*
X110933333Y-89813095D01*
X110814285Y-89813095D01*
X110719047Y-89836904D01*
X110671428Y-89860714D01*
X110647619Y-89884523D01*
X110623809Y-89932142D01*
X110623809Y-89979761D01*
X110647619Y-90027380D01*
X110671428Y-90051190D01*
X110719047Y-90075000D01*
X110814285Y-90098809D01*
X110933333Y-90098809D01*
X111028571Y-90075000D01*
X111076190Y-90051190D01*
X111100000Y-90027380D01*
X111123809Y-89979761D01*
X110623809Y-89336904D02*
X110623809Y-89622619D01*
X110623809Y-89479761D02*
X111123809Y-89479761D01*
X111052380Y-89527380D01*
X111004761Y-89575000D01*
X110980952Y-89622619D01*
X110623809Y-88860714D02*
X110623809Y-89146428D01*
X110623809Y-89003571D02*
X111123809Y-89003571D01*
X111052380Y-89051190D01*
X111004761Y-89098809D01*
X110980952Y-89146428D01*
X110318809Y-97170238D02*
X110318809Y-97122619D01*
X110295000Y-97075000D01*
X110271190Y-97051190D01*
X110223571Y-97027380D01*
X110128333Y-97003571D01*
X110009285Y-97003571D01*
X109914047Y-97027380D01*
X109866428Y-97051190D01*
X109842619Y-97075000D01*
X109818809Y-97122619D01*
X109818809Y-97170238D01*
X109842619Y-97217857D01*
X109866428Y-97241666D01*
X109914047Y-97265476D01*
X110009285Y-97289285D01*
X110128333Y-97289285D01*
X110223571Y-97265476D01*
X110271190Y-97241666D01*
X110295000Y-97217857D01*
X110318809Y-97170238D01*
X109866428Y-96789285D02*
X109842619Y-96765476D01*
X109818809Y-96789285D01*
X109842619Y-96813095D01*
X109866428Y-96789285D01*
X109818809Y-96789285D01*
X110318809Y-96313095D02*
X110318809Y-96551190D01*
X110080714Y-96575000D01*
X110104523Y-96551190D01*
X110128333Y-96503571D01*
X110128333Y-96384523D01*
X110104523Y-96336904D01*
X110080714Y-96313095D01*
X110033095Y-96289285D01*
X109914047Y-96289285D01*
X109866428Y-96313095D01*
X109842619Y-96336904D01*
X109818809Y-96384523D01*
X109818809Y-96503571D01*
X109842619Y-96551190D01*
X109866428Y-96575000D01*
X110009285Y-96075000D02*
X110009285Y-95694047D01*
X110318809Y-95360714D02*
X110318809Y-95313095D01*
X110295000Y-95265476D01*
X110271190Y-95241666D01*
X110223571Y-95217857D01*
X110128333Y-95194047D01*
X110009285Y-95194047D01*
X109914047Y-95217857D01*
X109866428Y-95241666D01*
X109842619Y-95265476D01*
X109818809Y-95313095D01*
X109818809Y-95360714D01*
X109842619Y-95408333D01*
X109866428Y-95432142D01*
X109914047Y-95455952D01*
X110009285Y-95479761D01*
X110128333Y-95479761D01*
X110223571Y-95455952D01*
X110271190Y-95432142D01*
X110295000Y-95408333D01*
X110318809Y-95360714D01*
X109866428Y-94979761D02*
X109842619Y-94955952D01*
X109818809Y-94979761D01*
X109842619Y-95003571D01*
X109866428Y-94979761D01*
X109818809Y-94979761D01*
X110318809Y-94789285D02*
X110318809Y-94455952D01*
X109818809Y-94670238D01*
X110318809Y-94027380D02*
X110318809Y-94265476D01*
X110080714Y-94289285D01*
X110104523Y-94265476D01*
X110128333Y-94217857D01*
X110128333Y-94098809D01*
X110104523Y-94051190D01*
X110080714Y-94027380D01*
X110033095Y-94003571D01*
X109914047Y-94003571D01*
X109866428Y-94027380D01*
X109842619Y-94051190D01*
X109818809Y-94098809D01*
X109818809Y-94217857D01*
X109842619Y-94265476D01*
X109866428Y-94289285D01*
X110318809Y-93860714D02*
X109818809Y-93694047D01*
X110318809Y-93527380D01*
X109866428Y-93075000D02*
X109842619Y-93098809D01*
X109818809Y-93170238D01*
X109818809Y-93217857D01*
X109842619Y-93289285D01*
X109890238Y-93336904D01*
X109937857Y-93360714D01*
X110033095Y-93384523D01*
X110104523Y-93384523D01*
X110199761Y-93360714D01*
X110247380Y-93336904D01*
X110295000Y-93289285D01*
X110318809Y-93217857D01*
X110318809Y-93170238D01*
X110295000Y-93098809D01*
X110271190Y-93075000D01*
X109866428Y-92575000D02*
X109842619Y-92598809D01*
X109818809Y-92670238D01*
X109818809Y-92717857D01*
X109842619Y-92789285D01*
X109890238Y-92836904D01*
X109937857Y-92860714D01*
X110033095Y-92884523D01*
X110104523Y-92884523D01*
X110199761Y-92860714D01*
X110247380Y-92836904D01*
X110295000Y-92789285D01*
X110318809Y-92717857D01*
X110318809Y-92670238D01*
X110295000Y-92598809D01*
X110271190Y-92575000D01*
X109818809Y-91717857D02*
X109818809Y-92003571D01*
X109818809Y-91860714D02*
X110318809Y-91860714D01*
X110247380Y-91908333D01*
X110199761Y-91955952D01*
X110175952Y-92003571D01*
X109818809Y-91241666D02*
X109818809Y-91527380D01*
X109818809Y-91384523D02*
X110318809Y-91384523D01*
X110247380Y-91432142D01*
X110199761Y-91479761D01*
X110175952Y-91527380D01*
X110318809Y-90932142D02*
X110318809Y-90884523D01*
X110295000Y-90836904D01*
X110271190Y-90813095D01*
X110223571Y-90789285D01*
X110128333Y-90765476D01*
X110009285Y-90765476D01*
X109914047Y-90789285D01*
X109866428Y-90813095D01*
X109842619Y-90836904D01*
X109818809Y-90884523D01*
X109818809Y-90932142D01*
X109842619Y-90979761D01*
X109866428Y-91003571D01*
X109914047Y-91027380D01*
X110009285Y-91051190D01*
X110128333Y-91051190D01*
X110223571Y-91027380D01*
X110271190Y-91003571D01*
X110295000Y-90979761D01*
X110318809Y-90932142D01*
X109818809Y-90289285D02*
X109818809Y-90575000D01*
X109818809Y-90432142D02*
X110318809Y-90432142D01*
X110247380Y-90479761D01*
X110199761Y-90527380D01*
X110175952Y-90575000D01*
X109818809Y-89813095D02*
X109818809Y-90098809D01*
X109818809Y-89955952D02*
X110318809Y-89955952D01*
X110247380Y-90003571D01*
X110199761Y-90051190D01*
X110175952Y-90098809D01*
X110318809Y-89503571D02*
X110318809Y-89455952D01*
X110295000Y-89408333D01*
X110271190Y-89384523D01*
X110223571Y-89360714D01*
X110128333Y-89336904D01*
X110009285Y-89336904D01*
X109914047Y-89360714D01*
X109866428Y-89384523D01*
X109842619Y-89408333D01*
X109818809Y-89455952D01*
X109818809Y-89503571D01*
X109842619Y-89551190D01*
X109866428Y-89575000D01*
X109914047Y-89598809D01*
X110009285Y-89622619D01*
X110128333Y-89622619D01*
X110223571Y-89598809D01*
X110271190Y-89575000D01*
X110295000Y-89551190D01*
X110318809Y-89503571D01*
X109818809Y-88860714D02*
X109818809Y-89146428D01*
X109818809Y-89003571D02*
X110318809Y-89003571D01*
X110247380Y-89051190D01*
X110199761Y-89098809D01*
X110175952Y-89146428D01*
X109513809Y-97170238D02*
X109513809Y-97122619D01*
X109490000Y-97075000D01*
X109466190Y-97051190D01*
X109418571Y-97027380D01*
X109323333Y-97003571D01*
X109204285Y-97003571D01*
X109109047Y-97027380D01*
X109061428Y-97051190D01*
X109037619Y-97075000D01*
X109013809Y-97122619D01*
X109013809Y-97170238D01*
X109037619Y-97217857D01*
X109061428Y-97241666D01*
X109109047Y-97265476D01*
X109204285Y-97289285D01*
X109323333Y-97289285D01*
X109418571Y-97265476D01*
X109466190Y-97241666D01*
X109490000Y-97217857D01*
X109513809Y-97170238D01*
X109061428Y-96789285D02*
X109037619Y-96765476D01*
X109013809Y-96789285D01*
X109037619Y-96813095D01*
X109061428Y-96789285D01*
X109013809Y-96789285D01*
X109513809Y-96598809D02*
X109513809Y-96265476D01*
X109013809Y-96479761D01*
X109513809Y-95836904D02*
X109513809Y-96075000D01*
X109275714Y-96098809D01*
X109299523Y-96075000D01*
X109323333Y-96027380D01*
X109323333Y-95908333D01*
X109299523Y-95860714D01*
X109275714Y-95836904D01*
X109228095Y-95813095D01*
X109109047Y-95813095D01*
X109061428Y-95836904D01*
X109037619Y-95860714D01*
X109013809Y-95908333D01*
X109013809Y-96027380D01*
X109037619Y-96075000D01*
X109061428Y-96098809D01*
X109204285Y-95598809D02*
X109204285Y-95217857D01*
X109013809Y-94717857D02*
X109013809Y-95003571D01*
X109013809Y-94860714D02*
X109513809Y-94860714D01*
X109442380Y-94908333D01*
X109394761Y-94955952D01*
X109370952Y-95003571D01*
X109061428Y-94503571D02*
X109037619Y-94479761D01*
X109013809Y-94503571D01*
X109037619Y-94527380D01*
X109061428Y-94503571D01*
X109013809Y-94503571D01*
X109513809Y-94170238D02*
X109513809Y-94122619D01*
X109490000Y-94075000D01*
X109466190Y-94051190D01*
X109418571Y-94027380D01*
X109323333Y-94003571D01*
X109204285Y-94003571D01*
X109109047Y-94027380D01*
X109061428Y-94051190D01*
X109037619Y-94075000D01*
X109013809Y-94122619D01*
X109013809Y-94170238D01*
X109037619Y-94217857D01*
X109061428Y-94241666D01*
X109109047Y-94265476D01*
X109204285Y-94289285D01*
X109323333Y-94289285D01*
X109418571Y-94265476D01*
X109466190Y-94241666D01*
X109490000Y-94217857D01*
X109513809Y-94170238D01*
X109513809Y-93860714D02*
X109013809Y-93694047D01*
X109513809Y-93527380D01*
X109061428Y-93075000D02*
X109037619Y-93098809D01*
X109013809Y-93170238D01*
X109013809Y-93217857D01*
X109037619Y-93289285D01*
X109085238Y-93336904D01*
X109132857Y-93360714D01*
X109228095Y-93384523D01*
X109299523Y-93384523D01*
X109394761Y-93360714D01*
X109442380Y-93336904D01*
X109490000Y-93289285D01*
X109513809Y-93217857D01*
X109513809Y-93170238D01*
X109490000Y-93098809D01*
X109466190Y-93075000D01*
X109061428Y-92575000D02*
X109037619Y-92598809D01*
X109013809Y-92670238D01*
X109013809Y-92717857D01*
X109037619Y-92789285D01*
X109085238Y-92836904D01*
X109132857Y-92860714D01*
X109228095Y-92884523D01*
X109299523Y-92884523D01*
X109394761Y-92860714D01*
X109442380Y-92836904D01*
X109490000Y-92789285D01*
X109513809Y-92717857D01*
X109513809Y-92670238D01*
X109490000Y-92598809D01*
X109466190Y-92575000D01*
X109013809Y-91717857D02*
X109013809Y-92003571D01*
X109013809Y-91860714D02*
X109513809Y-91860714D01*
X109442380Y-91908333D01*
X109394761Y-91955952D01*
X109370952Y-92003571D01*
X109013809Y-91241666D02*
X109013809Y-91527380D01*
X109013809Y-91384523D02*
X109513809Y-91384523D01*
X109442380Y-91432142D01*
X109394761Y-91479761D01*
X109370952Y-91527380D01*
X109513809Y-90932142D02*
X109513809Y-90884523D01*
X109490000Y-90836904D01*
X109466190Y-90813095D01*
X109418571Y-90789285D01*
X109323333Y-90765476D01*
X109204285Y-90765476D01*
X109109047Y-90789285D01*
X109061428Y-90813095D01*
X109037619Y-90836904D01*
X109013809Y-90884523D01*
X109013809Y-90932142D01*
X109037619Y-90979761D01*
X109061428Y-91003571D01*
X109109047Y-91027380D01*
X109204285Y-91051190D01*
X109323333Y-91051190D01*
X109418571Y-91027380D01*
X109466190Y-91003571D01*
X109490000Y-90979761D01*
X109513809Y-90932142D01*
X109013809Y-90289285D02*
X109013809Y-90575000D01*
X109013809Y-90432142D02*
X109513809Y-90432142D01*
X109442380Y-90479761D01*
X109394761Y-90527380D01*
X109370952Y-90575000D01*
X109013809Y-89813095D02*
X109013809Y-90098809D01*
X109013809Y-89955952D02*
X109513809Y-89955952D01*
X109442380Y-90003571D01*
X109394761Y-90051190D01*
X109370952Y-90098809D01*
X109013809Y-89336904D02*
X109013809Y-89622619D01*
X109013809Y-89479761D02*
X109513809Y-89479761D01*
X109442380Y-89527380D01*
X109394761Y-89575000D01*
X109370952Y-89622619D01*
X109013809Y-88860714D02*
X109013809Y-89146428D01*
X109013809Y-89003571D02*
X109513809Y-89003571D01*
X109442380Y-89051190D01*
X109394761Y-89098809D01*
X109370952Y-89146428D01*
X102050000Y-92630952D02*
X102073809Y-92678571D01*
X102073809Y-92750000D01*
X102050000Y-92821428D01*
X102002380Y-92869047D01*
X101954761Y-92892857D01*
X101859523Y-92916666D01*
X101788095Y-92916666D01*
X101692857Y-92892857D01*
X101645238Y-92869047D01*
X101597619Y-92821428D01*
X101573809Y-92750000D01*
X101573809Y-92702380D01*
X101597619Y-92630952D01*
X101621428Y-92607142D01*
X101788095Y-92607142D01*
X101788095Y-92702380D01*
X101573809Y-92392857D02*
X102073809Y-92392857D01*
X101573809Y-92107142D01*
X102073809Y-92107142D01*
X101573809Y-91869047D02*
X102073809Y-91869047D01*
X102073809Y-91750000D01*
X102050000Y-91678571D01*
X102002380Y-91630952D01*
X101954761Y-91607142D01*
X101859523Y-91583333D01*
X101788095Y-91583333D01*
X101692857Y-91607142D01*
X101645238Y-91630952D01*
X101597619Y-91678571D01*
X101573809Y-91750000D01*
X101573809Y-91869047D01*
X106573809Y-91130952D02*
X106073809Y-90964285D01*
X106573809Y-90797619D01*
X106216666Y-90654761D02*
X106216666Y-90416666D01*
X106073809Y-90702380D02*
X106573809Y-90535714D01*
X106073809Y-90369047D01*
X106073809Y-90202380D02*
X106573809Y-90202380D01*
X106573809Y-90083333D01*
X106550000Y-90011904D01*
X106502380Y-89964285D01*
X106454761Y-89940476D01*
X106359523Y-89916666D01*
X106288095Y-89916666D01*
X106192857Y-89940476D01*
X106145238Y-89964285D01*
X106097619Y-90011904D01*
X106073809Y-90083333D01*
X106073809Y-90202380D01*
X106073809Y-89702380D02*
X106573809Y-89702380D01*
X106573809Y-89583333D01*
X106550000Y-89511904D01*
X106502380Y-89464285D01*
X106454761Y-89440476D01*
X106359523Y-89416666D01*
X106288095Y-89416666D01*
X106192857Y-89440476D01*
X106145238Y-89464285D01*
X106097619Y-89511904D01*
X106073809Y-89583333D01*
X106073809Y-89702380D01*
D11*
X118834500Y-99546666D02*
X118834500Y-99313333D01*
X118467833Y-99213333D02*
X118467833Y-99546666D01*
X119167833Y-99546666D01*
X119167833Y-99213333D01*
X119167833Y-99013333D02*
X118467833Y-98780000D01*
X119167833Y-98546666D01*
X118667833Y-98346666D02*
X118667833Y-98013333D01*
X118467833Y-98413333D02*
X119167833Y-98180000D01*
X118467833Y-97946666D01*
X118467833Y-97380000D02*
X118467833Y-97713333D01*
X119167833Y-97713333D01*
X118734500Y-97146666D02*
X118734500Y-96613333D01*
X118467833Y-96280000D02*
X119167833Y-96280000D01*
X118667833Y-96046666D01*
X119167833Y-95813333D01*
X118467833Y-95813333D01*
X118467833Y-95480000D02*
X119167833Y-95480000D01*
X119167833Y-95213333D01*
X119134500Y-95146666D01*
X119101166Y-95113333D01*
X119034500Y-95080000D01*
X118934500Y-95080000D01*
X118867833Y-95113333D01*
X118834500Y-95146666D01*
X118801166Y-95213333D01*
X118801166Y-95480000D01*
X118867833Y-94680000D02*
X118901166Y-94746666D01*
X118934500Y-94780000D01*
X119001166Y-94813333D01*
X119034500Y-94813333D01*
X119101166Y-94780000D01*
X119134500Y-94746666D01*
X119167833Y-94680000D01*
X119167833Y-94546666D01*
X119134500Y-94480000D01*
X119101166Y-94446666D01*
X119034500Y-94413333D01*
X119001166Y-94413333D01*
X118934500Y-94446666D01*
X118901166Y-94480000D01*
X118867833Y-94546666D01*
X118867833Y-94680000D01*
X118834500Y-94746666D01*
X118801166Y-94780000D01*
X118734500Y-94813333D01*
X118601166Y-94813333D01*
X118534500Y-94780000D01*
X118501166Y-94746666D01*
X118467833Y-94680000D01*
X118467833Y-94546666D01*
X118501166Y-94480000D01*
X118534500Y-94446666D01*
X118601166Y-94413333D01*
X118734500Y-94413333D01*
X118801166Y-94446666D01*
X118834500Y-94480000D01*
X118867833Y-94546666D01*
X118867833Y-94013333D02*
X118901166Y-94080000D01*
X118934500Y-94113333D01*
X119001166Y-94146666D01*
X119034500Y-94146666D01*
X119101166Y-94113333D01*
X119134500Y-94080000D01*
X119167833Y-94013333D01*
X119167833Y-93880000D01*
X119134500Y-93813333D01*
X119101166Y-93780000D01*
X119034500Y-93746666D01*
X119001166Y-93746666D01*
X118934500Y-93780000D01*
X118901166Y-93813333D01*
X118867833Y-93880000D01*
X118867833Y-94013333D01*
X118834500Y-94080000D01*
X118801166Y-94113333D01*
X118734500Y-94146666D01*
X118601166Y-94146666D01*
X118534500Y-94113333D01*
X118501166Y-94080000D01*
X118467833Y-94013333D01*
X118467833Y-93880000D01*
X118501166Y-93813333D01*
X118534500Y-93780000D01*
X118601166Y-93746666D01*
X118734500Y-93746666D01*
X118801166Y-93780000D01*
X118834500Y-93813333D01*
X118867833Y-93880000D01*
X119167833Y-93146666D02*
X119167833Y-93280000D01*
X119134500Y-93346666D01*
X119101166Y-93380000D01*
X119001166Y-93446666D01*
X118867833Y-93480000D01*
X118601166Y-93480000D01*
X118534500Y-93446666D01*
X118501166Y-93413333D01*
X118467833Y-93346666D01*
X118467833Y-93213333D01*
X118501166Y-93146666D01*
X118534500Y-93113333D01*
X118601166Y-93080000D01*
X118767833Y-93080000D01*
X118834500Y-93113333D01*
X118867833Y-93146666D01*
X118901166Y-93213333D01*
X118901166Y-93346666D01*
X118867833Y-93413333D01*
X118834500Y-93446666D01*
X118767833Y-93480000D01*
X119101166Y-92813333D02*
X119134500Y-92780000D01*
X119167833Y-92713333D01*
X119167833Y-92546666D01*
X119134500Y-92480000D01*
X119101166Y-92446666D01*
X119034500Y-92413333D01*
X118967833Y-92413333D01*
X118867833Y-92446666D01*
X118467833Y-92846666D01*
X118467833Y-92413333D01*
X118734500Y-92113333D02*
X118734500Y-91580000D01*
X118467833Y-90880000D02*
X118467833Y-91280000D01*
X118467833Y-91080000D02*
X119167833Y-91080000D01*
X119067833Y-91146666D01*
X119001166Y-91213333D01*
X118967833Y-91280000D01*
X118667833Y-90613333D02*
X118667833Y-90280000D01*
X118467833Y-90680000D02*
X119167833Y-90446666D01*
X118467833Y-90213333D01*
X117974166Y-98780000D02*
X118007500Y-98746666D01*
X118040833Y-98680000D01*
X118040833Y-98513333D01*
X118007500Y-98446666D01*
X117974166Y-98413333D01*
X117907500Y-98380000D01*
X117840833Y-98380000D01*
X117740833Y-98413333D01*
X117340833Y-98813333D01*
X117340833Y-98380000D01*
X117540833Y-98113333D02*
X117540833Y-97780000D01*
X117340833Y-98180000D02*
X118040833Y-97946666D01*
X117340833Y-97713333D01*
X117340833Y-96946666D02*
X118040833Y-96946666D01*
X117774166Y-96946666D02*
X117807500Y-96880000D01*
X117807500Y-96746666D01*
X117774166Y-96680000D01*
X117740833Y-96646666D01*
X117674166Y-96613333D01*
X117474166Y-96613333D01*
X117407500Y-96646666D01*
X117374166Y-96680000D01*
X117340833Y-96746666D01*
X117340833Y-96880000D01*
X117374166Y-96946666D01*
X117807500Y-96013333D02*
X117340833Y-96013333D01*
X117807500Y-96313333D02*
X117440833Y-96313333D01*
X117374166Y-96280000D01*
X117340833Y-96213333D01*
X117340833Y-96113333D01*
X117374166Y-96046666D01*
X117407500Y-96013333D01*
X117374166Y-95380000D02*
X117340833Y-95446666D01*
X117340833Y-95580000D01*
X117374166Y-95646666D01*
X117407500Y-95680000D01*
X117474166Y-95713333D01*
X117674166Y-95713333D01*
X117740833Y-95680000D01*
X117774166Y-95646666D01*
X117807500Y-95580000D01*
X117807500Y-95446666D01*
X117774166Y-95380000D01*
X117340833Y-95080000D02*
X118040833Y-95080000D01*
X117607500Y-95013333D02*
X117340833Y-94813333D01*
X117807500Y-94813333D02*
X117540833Y-95080000D01*
X117607500Y-94513333D02*
X117607500Y-93980000D01*
X117340833Y-93646666D02*
X118040833Y-93646666D01*
X117774166Y-93646666D02*
X117807500Y-93580000D01*
X117807500Y-93446666D01*
X117774166Y-93380000D01*
X117740833Y-93346666D01*
X117674166Y-93313333D01*
X117474166Y-93313333D01*
X117407500Y-93346666D01*
X117374166Y-93380000D01*
X117340833Y-93446666D01*
X117340833Y-93580000D01*
X117374166Y-93646666D01*
X117340833Y-92913333D02*
X117374166Y-92980000D01*
X117407500Y-93013333D01*
X117474166Y-93046666D01*
X117674166Y-93046666D01*
X117740833Y-93013333D01*
X117774166Y-92980000D01*
X117807500Y-92913333D01*
X117807500Y-92813333D01*
X117774166Y-92746666D01*
X117740833Y-92713333D01*
X117674166Y-92680000D01*
X117474166Y-92680000D01*
X117407500Y-92713333D01*
X117374166Y-92746666D01*
X117340833Y-92813333D01*
X117340833Y-92913333D01*
X117340833Y-92280000D02*
X117374166Y-92346666D01*
X117407500Y-92380000D01*
X117474166Y-92413333D01*
X117674166Y-92413333D01*
X117740833Y-92380000D01*
X117774166Y-92346666D01*
X117807500Y-92280000D01*
X117807500Y-92180000D01*
X117774166Y-92113333D01*
X117740833Y-92080000D01*
X117674166Y-92046666D01*
X117474166Y-92046666D01*
X117407500Y-92080000D01*
X117374166Y-92113333D01*
X117340833Y-92180000D01*
X117340833Y-92280000D01*
X117374166Y-91780000D02*
X117340833Y-91713333D01*
X117340833Y-91580000D01*
X117374166Y-91513333D01*
X117440833Y-91480000D01*
X117474166Y-91480000D01*
X117540833Y-91513333D01*
X117574166Y-91580000D01*
X117574166Y-91680000D01*
X117607500Y-91746666D01*
X117674166Y-91780000D01*
X117707500Y-91780000D01*
X117774166Y-91746666D01*
X117807500Y-91680000D01*
X117807500Y-91580000D01*
X117774166Y-91513333D01*
X117807500Y-91280000D02*
X117807500Y-91013333D01*
X118040833Y-91180000D02*
X117440833Y-91180000D01*
X117374166Y-91146666D01*
X117340833Y-91080000D01*
X117340833Y-91013333D01*
X116913833Y-98430000D02*
X116213833Y-98196666D01*
X116913833Y-97963333D01*
X116213833Y-97730000D02*
X116913833Y-97730000D01*
X116213833Y-97396666D02*
X116913833Y-97396666D01*
X116213833Y-96996666D01*
X116913833Y-96996666D01*
X116847166Y-96163333D02*
X116880500Y-96130000D01*
X116913833Y-96063333D01*
X116913833Y-95896666D01*
X116880500Y-95830000D01*
X116847166Y-95796666D01*
X116780500Y-95763333D01*
X116713833Y-95763333D01*
X116613833Y-95796666D01*
X116213833Y-96196666D01*
X116213833Y-95763333D01*
X116280500Y-95463333D02*
X116247166Y-95430000D01*
X116213833Y-95463333D01*
X116247166Y-95496666D01*
X116280500Y-95463333D01*
X116213833Y-95463333D01*
X116613833Y-95030000D02*
X116647166Y-95096666D01*
X116680500Y-95130000D01*
X116747166Y-95163333D01*
X116780500Y-95163333D01*
X116847166Y-95130000D01*
X116880500Y-95096666D01*
X116913833Y-95030000D01*
X116913833Y-94896666D01*
X116880500Y-94830000D01*
X116847166Y-94796666D01*
X116780500Y-94763333D01*
X116747166Y-94763333D01*
X116680500Y-94796666D01*
X116647166Y-94830000D01*
X116613833Y-94896666D01*
X116613833Y-95030000D01*
X116580500Y-95096666D01*
X116547166Y-95130000D01*
X116480500Y-95163333D01*
X116347166Y-95163333D01*
X116280500Y-95130000D01*
X116247166Y-95096666D01*
X116213833Y-95030000D01*
X116213833Y-94896666D01*
X116247166Y-94830000D01*
X116280500Y-94796666D01*
X116347166Y-94763333D01*
X116480500Y-94763333D01*
X116547166Y-94796666D01*
X116580500Y-94830000D01*
X116613833Y-94896666D01*
X116480500Y-94463333D02*
X116480500Y-93930000D01*
X116847166Y-93630000D02*
X116880500Y-93596666D01*
X116913833Y-93530000D01*
X116913833Y-93363333D01*
X116880500Y-93296666D01*
X116847166Y-93263333D01*
X116780500Y-93230000D01*
X116713833Y-93230000D01*
X116613833Y-93263333D01*
X116213833Y-93663333D01*
X116213833Y-93230000D01*
X116847166Y-92963333D02*
X116880500Y-92930000D01*
X116913833Y-92863333D01*
X116913833Y-92696666D01*
X116880500Y-92630000D01*
X116847166Y-92596666D01*
X116780500Y-92563333D01*
X116713833Y-92563333D01*
X116613833Y-92596666D01*
X116213833Y-92996666D01*
X116213833Y-92563333D01*
X116280500Y-92263333D02*
X116247166Y-92230000D01*
X116213833Y-92263333D01*
X116247166Y-92296666D01*
X116280500Y-92263333D01*
X116213833Y-92263333D01*
X116913833Y-91796666D02*
X116913833Y-91730000D01*
X116880500Y-91663333D01*
X116847166Y-91630000D01*
X116780500Y-91596666D01*
X116647166Y-91563333D01*
X116480500Y-91563333D01*
X116347166Y-91596666D01*
X116280500Y-91630000D01*
X116247166Y-91663333D01*
X116213833Y-91730000D01*
X116213833Y-91796666D01*
X116247166Y-91863333D01*
X116280500Y-91896666D01*
X116347166Y-91930000D01*
X116480500Y-91963333D01*
X116647166Y-91963333D01*
X116780500Y-91930000D01*
X116847166Y-91896666D01*
X116880500Y-91863333D01*
X116913833Y-91796666D01*
X116913833Y-90830000D02*
X116213833Y-90596666D01*
X116913833Y-90363333D01*
X115786833Y-98396666D02*
X115086833Y-98163333D01*
X115786833Y-97930000D01*
X115786833Y-97563333D02*
X115786833Y-97430000D01*
X115753500Y-97363333D01*
X115686833Y-97296666D01*
X115553500Y-97263333D01*
X115320166Y-97263333D01*
X115186833Y-97296666D01*
X115120166Y-97363333D01*
X115086833Y-97430000D01*
X115086833Y-97563333D01*
X115120166Y-97630000D01*
X115186833Y-97696666D01*
X115320166Y-97730000D01*
X115553500Y-97730000D01*
X115686833Y-97696666D01*
X115753500Y-97630000D01*
X115786833Y-97563333D01*
X115786833Y-96963333D02*
X115220166Y-96963333D01*
X115153500Y-96930000D01*
X115120166Y-96896666D01*
X115086833Y-96830000D01*
X115086833Y-96696666D01*
X115120166Y-96630000D01*
X115153500Y-96596666D01*
X115220166Y-96563333D01*
X115786833Y-96563333D01*
X115786833Y-96330000D02*
X115786833Y-95930000D01*
X115086833Y-96130000D02*
X115786833Y-96130000D01*
X115086833Y-94796666D02*
X115086833Y-95196666D01*
X115086833Y-94996666D02*
X115786833Y-94996666D01*
X115686833Y-95063333D01*
X115620166Y-95130000D01*
X115586833Y-95196666D01*
X115353500Y-94496666D02*
X115353500Y-93963333D01*
X115720166Y-93663333D02*
X115753500Y-93630000D01*
X115786833Y-93563333D01*
X115786833Y-93396666D01*
X115753500Y-93330000D01*
X115720166Y-93296666D01*
X115653500Y-93263333D01*
X115586833Y-93263333D01*
X115486833Y-93296666D01*
X115086833Y-93696666D01*
X115086833Y-93263333D01*
X115786833Y-92830000D02*
X115786833Y-92763333D01*
X115753500Y-92696666D01*
X115720166Y-92663333D01*
X115653500Y-92630000D01*
X115520166Y-92596666D01*
X115353500Y-92596666D01*
X115220166Y-92630000D01*
X115153500Y-92663333D01*
X115120166Y-92696666D01*
X115086833Y-92763333D01*
X115086833Y-92830000D01*
X115120166Y-92896666D01*
X115153500Y-92930000D01*
X115220166Y-92963333D01*
X115353500Y-92996666D01*
X115520166Y-92996666D01*
X115653500Y-92963333D01*
X115720166Y-92930000D01*
X115753500Y-92896666D01*
X115786833Y-92830000D01*
X115153500Y-92296666D02*
X115120166Y-92263333D01*
X115086833Y-92296666D01*
X115120166Y-92330000D01*
X115153500Y-92296666D01*
X115086833Y-92296666D01*
X115786833Y-91630000D02*
X115786833Y-91963333D01*
X115453500Y-91996666D01*
X115486833Y-91963333D01*
X115520166Y-91896666D01*
X115520166Y-91730000D01*
X115486833Y-91663333D01*
X115453500Y-91630000D01*
X115386833Y-91596666D01*
X115220166Y-91596666D01*
X115153500Y-91630000D01*
X115120166Y-91663333D01*
X115086833Y-91730000D01*
X115086833Y-91896666D01*
X115120166Y-91963333D01*
X115153500Y-91996666D01*
X115786833Y-90863333D02*
X115086833Y-90630000D01*
X115786833Y-90396666D01*
X102553333Y-90794666D02*
X102886666Y-91028000D01*
X102553333Y-91194666D02*
X103253333Y-91194666D01*
X103253333Y-90928000D01*
X103220000Y-90861333D01*
X103186666Y-90828000D01*
X103120000Y-90794666D01*
X103020000Y-90794666D01*
X102953333Y-90828000D01*
X102920000Y-90861333D01*
X102886666Y-90928000D01*
X102886666Y-91194666D01*
X103253333Y-90161333D02*
X103253333Y-90494666D01*
X102920000Y-90528000D01*
X102953333Y-90494666D01*
X102986666Y-90428000D01*
X102986666Y-90261333D01*
X102953333Y-90194666D01*
X102920000Y-90161333D01*
X102853333Y-90128000D01*
X102686666Y-90128000D01*
X102620000Y-90161333D01*
X102586666Y-90194666D01*
X102553333Y-90261333D01*
X102553333Y-90428000D01*
X102586666Y-90494666D01*
X102620000Y-90528000D01*
X106871333Y-93334666D02*
X107204666Y-93568000D01*
X106871333Y-93734666D02*
X107571333Y-93734666D01*
X107571333Y-93468000D01*
X107538000Y-93401333D01*
X107504666Y-93368000D01*
X107438000Y-93334666D01*
X107338000Y-93334666D01*
X107271333Y-93368000D01*
X107238000Y-93401333D01*
X107204666Y-93468000D01*
X107204666Y-93734666D01*
X107338000Y-92734666D02*
X106871333Y-92734666D01*
X107604666Y-92901333D02*
X107104666Y-93068000D01*
X107104666Y-92634666D01*
D16*
X103875279Y-92710000D02*
X103549721Y-92710000D01*
X103875279Y-91690000D02*
X103549721Y-91690000D01*
X105490000Y-93150279D02*
X105490000Y-92824721D01*
X106510000Y-93150279D02*
X106510000Y-92824721D01*
M02*
