G04 #@! TF.GenerationSoftware,KiCad,Pcbnew,(5.99.0-6495-g15369915cc)*
G04 #@! TF.CreationDate,2020-10-24T18:43:56+02:00*
G04 #@! TF.ProjectId,EVAL-MP8862,4556414c-2d4d-4503-9838-36322e6b6963,1A*
G04 #@! TF.SameCoordinates,Original*
G04 #@! TF.FileFunction,Copper,L1,Top*
G04 #@! TF.FilePolarity,Positive*
%FSLAX46Y46*%
G04 Gerber Fmt 4.6, Leading zero omitted, Abs format (unit mm)*
G04 Created by KiCad (PCBNEW (5.99.0-6495-g15369915cc)) date 2020-10-24 18:43:56*
%MOMM*%
%LPD*%
G01*
G04 APERTURE LIST*
G04 Aperture macros list*
%AMRoundRect*
0 Rectangle with rounded corners*
0 $1 Rounding radius*
0 $2 $3 $4 $5 $6 $7 $8 $9 X,Y pos of 4 corners*
0 Add a 4 corners polygon primitive as box body*
4,1,4,$2,$3,$4,$5,$6,$7,$8,$9,$2,$3,0*
0 Add four circle primitives for the rounded corners*
1,1,$1+$1,$2,$3,0*
1,1,$1+$1,$4,$5,0*
1,1,$1+$1,$6,$7,0*
1,1,$1+$1,$8,$9,0*
0 Add four rect primitives between the rounded corners*
20,1,$1+$1,$2,$3,$4,$5,0*
20,1,$1+$1,$4,$5,$6,$7,0*
20,1,$1+$1,$6,$7,$8,$9,0*
20,1,$1+$1,$8,$9,$2,$3,0*%
G04 Aperture macros list end*
%ADD10C,0.100000*%
%ADD11C,0.150000*%
%ADD12C,0.300000*%
%ADD13C,0.400000*%
G04 #@! TA.AperFunction,SMDPad,CuDef*
%ADD14RoundRect,0.218750X-0.256250X0.218750X-0.256250X-0.218750X0.256250X-0.218750X0.256250X0.218750X0*%
G04 #@! TD*
G04 #@! TA.AperFunction,SMDPad,CuDef*
%ADD15RoundRect,0.250000X-1.075000X0.375000X-1.075000X-0.375000X1.075000X-0.375000X1.075000X0.375000X0*%
G04 #@! TD*
G04 #@! TA.AperFunction,SMDPad,CuDef*
%ADD16RoundRect,0.218750X0.218750X0.256250X-0.218750X0.256250X-0.218750X-0.256250X0.218750X-0.256250X0*%
G04 #@! TD*
G04 #@! TA.AperFunction,SMDPad,CuDef*
%ADD17RoundRect,0.250000X1.075000X-0.375000X1.075000X0.375000X-1.075000X0.375000X-1.075000X-0.375000X0*%
G04 #@! TD*
G04 #@! TA.AperFunction,SMDPad,CuDef*
%ADD18RoundRect,0.250000X0.375000X1.075000X-0.375000X1.075000X-0.375000X-1.075000X0.375000X-1.075000X0*%
G04 #@! TD*
G04 #@! TA.AperFunction,SMDPad,CuDef*
%ADD19RoundRect,0.250000X-0.375000X-1.075000X0.375000X-1.075000X0.375000X1.075000X-0.375000X1.075000X0*%
G04 #@! TD*
G04 #@! TA.AperFunction,SMDPad,CuDef*
%ADD20RoundRect,0.218750X0.256250X-0.218750X0.256250X0.218750X-0.256250X0.218750X-0.256250X-0.218750X0*%
G04 #@! TD*
G04 #@! TA.AperFunction,SMDPad,CuDef*
%ADD21R,0.250000X0.800000*%
G04 #@! TD*
G04 #@! TA.AperFunction,SMDPad,CuDef*
%ADD22R,0.250000X0.700000*%
G04 #@! TD*
G04 #@! TA.AperFunction,SMDPad,CuDef*
%ADD23R,0.700000X0.250000*%
G04 #@! TD*
G04 #@! TA.AperFunction,SMDPad,CuDef*
%ADD24R,1.200000X0.250000*%
G04 #@! TD*
G04 #@! TA.AperFunction,SMDPad,CuDef*
%ADD25RoundRect,0.600000X0.600000X1.100000X-0.600000X1.100000X-0.600000X-1.100000X0.600000X-1.100000X0*%
G04 #@! TD*
G04 #@! TA.AperFunction,SMDPad,CuDef*
%ADD26RoundRect,0.571250X0.623750X-0.571250X0.623750X0.571250X-0.623750X0.571250X-0.623750X-0.571250X0*%
G04 #@! TD*
G04 #@! TA.AperFunction,SMDPad,CuDef*
%ADD27RoundRect,0.548400X0.646600X-0.594100X0.646600X0.594100X-0.646600X0.594100X-0.646600X-0.594100X0*%
G04 #@! TD*
G04 #@! TA.AperFunction,ComponentPad*
%ADD28R,1.700000X1.700000*%
G04 #@! TD*
G04 #@! TA.AperFunction,ComponentPad*
%ADD29O,1.700000X1.700000*%
G04 #@! TD*
G04 #@! TA.AperFunction,ViaPad*
%ADD30C,0.700000*%
G04 #@! TD*
G04 #@! TA.AperFunction,ViaPad*
%ADD31C,0.800000*%
G04 #@! TD*
G04 #@! TA.AperFunction,ViaPad*
%ADD32C,0.600000*%
G04 #@! TD*
G04 #@! TA.AperFunction,Conductor*
%ADD33C,0.600000*%
G04 #@! TD*
G04 #@! TA.AperFunction,Conductor*
%ADD34C,0.300000*%
G04 #@! TD*
G04 #@! TA.AperFunction,Conductor*
%ADD35C,0.800000*%
G04 #@! TD*
G04 #@! TA.AperFunction,Conductor*
%ADD36C,0.250000*%
G04 #@! TD*
G04 #@! TA.AperFunction,Conductor*
%ADD37C,1.700000*%
G04 #@! TD*
G04 #@! TA.AperFunction,Conductor*
%ADD38C,1.000000*%
G04 #@! TD*
G04 #@! TA.AperFunction,Conductor*
%ADD39C,2.000000*%
G04 #@! TD*
G04 APERTURE END LIST*
D10*
D11*
X177002200Y-166007200D02*
X177002200Y-198007200D01*
X285002200Y-198007200D01*
X285002200Y-166007200D01*
X177002200Y-166007200D01*
D10*
D11*
X10000000Y-10000000D02*
X10000000Y-200007200D01*
X287002200Y-200007200D01*
X287002200Y-10000000D01*
X10000000Y-10000000D01*
D10*
D11*
X12000000Y-12000000D02*
X12000000Y-198007200D01*
X285002200Y-198007200D01*
X285002200Y-12000000D01*
X12000000Y-12000000D01*
D10*
D11*
X60000000Y-12000000D02*
X60000000Y-10000000D01*
D10*
D11*
X110000000Y-12000000D02*
X110000000Y-10000000D01*
D10*
D11*
X160000000Y-12000000D02*
X160000000Y-10000000D01*
D10*
D11*
X210000000Y-12000000D02*
X210000000Y-10000000D01*
D10*
D11*
X260000000Y-12000000D02*
X260000000Y-10000000D01*
D10*
D11*
X36065476Y-11588095D02*
X35322619Y-11588095D01*
X35694047Y-11588095D02*
X35694047Y-10288095D01*
X35570238Y-10473809D01*
X35446428Y-10597619D01*
X35322619Y-10659523D01*
D10*
D11*
X85322619Y-10411904D02*
X85384523Y-10350000D01*
X85508333Y-10288095D01*
X85817857Y-10288095D01*
X85941666Y-10350000D01*
X86003571Y-10411904D01*
X86065476Y-10535714D01*
X86065476Y-10659523D01*
X86003571Y-10845238D01*
X85260714Y-11588095D01*
X86065476Y-11588095D01*
D10*
D11*
X135260714Y-10288095D02*
X136065476Y-10288095D01*
X135632142Y-10783333D01*
X135817857Y-10783333D01*
X135941666Y-10845238D01*
X136003571Y-10907142D01*
X136065476Y-11030952D01*
X136065476Y-11340476D01*
X136003571Y-11464285D01*
X135941666Y-11526190D01*
X135817857Y-11588095D01*
X135446428Y-11588095D01*
X135322619Y-11526190D01*
X135260714Y-11464285D01*
D10*
D11*
X185941666Y-10721428D02*
X185941666Y-11588095D01*
X185632142Y-10226190D02*
X185322619Y-11154761D01*
X186127380Y-11154761D01*
D10*
D11*
X236003571Y-10288095D02*
X235384523Y-10288095D01*
X235322619Y-10907142D01*
X235384523Y-10845238D01*
X235508333Y-10783333D01*
X235817857Y-10783333D01*
X235941666Y-10845238D01*
X236003571Y-10907142D01*
X236065476Y-11030952D01*
X236065476Y-11340476D01*
X236003571Y-11464285D01*
X235941666Y-11526190D01*
X235817857Y-11588095D01*
X235508333Y-11588095D01*
X235384523Y-11526190D01*
X235322619Y-11464285D01*
D10*
D11*
X285941666Y-10288095D02*
X285694047Y-10288095D01*
X285570238Y-10350000D01*
X285508333Y-10411904D01*
X285384523Y-10597619D01*
X285322619Y-10845238D01*
X285322619Y-11340476D01*
X285384523Y-11464285D01*
X285446428Y-11526190D01*
X285570238Y-11588095D01*
X285817857Y-11588095D01*
X285941666Y-11526190D01*
X286003571Y-11464285D01*
X286065476Y-11340476D01*
X286065476Y-11030952D01*
X286003571Y-10907142D01*
X285941666Y-10845238D01*
X285817857Y-10783333D01*
X285570238Y-10783333D01*
X285446428Y-10845238D01*
X285384523Y-10907142D01*
X285322619Y-11030952D01*
D10*
D11*
X60000000Y-198007200D02*
X60000000Y-200007200D01*
D10*
D11*
X110000000Y-198007200D02*
X110000000Y-200007200D01*
D10*
D11*
X160000000Y-198007200D02*
X160000000Y-200007200D01*
D10*
D11*
X210000000Y-198007200D02*
X210000000Y-200007200D01*
D10*
D11*
X260000000Y-198007200D02*
X260000000Y-200007200D01*
D10*
D11*
X36065476Y-199595295D02*
X35322619Y-199595295D01*
X35694047Y-199595295D02*
X35694047Y-198295295D01*
X35570238Y-198481009D01*
X35446428Y-198604819D01*
X35322619Y-198666723D01*
D10*
D11*
X85322619Y-198419104D02*
X85384523Y-198357200D01*
X85508333Y-198295295D01*
X85817857Y-198295295D01*
X85941666Y-198357200D01*
X86003571Y-198419104D01*
X86065476Y-198542914D01*
X86065476Y-198666723D01*
X86003571Y-198852438D01*
X85260714Y-199595295D01*
X86065476Y-199595295D01*
D10*
D11*
X135260714Y-198295295D02*
X136065476Y-198295295D01*
X135632142Y-198790533D01*
X135817857Y-198790533D01*
X135941666Y-198852438D01*
X136003571Y-198914342D01*
X136065476Y-199038152D01*
X136065476Y-199347676D01*
X136003571Y-199471485D01*
X135941666Y-199533390D01*
X135817857Y-199595295D01*
X135446428Y-199595295D01*
X135322619Y-199533390D01*
X135260714Y-199471485D01*
D10*
D11*
X185941666Y-198728628D02*
X185941666Y-199595295D01*
X185632142Y-198233390D02*
X185322619Y-199161961D01*
X186127380Y-199161961D01*
D10*
D11*
X236003571Y-198295295D02*
X235384523Y-198295295D01*
X235322619Y-198914342D01*
X235384523Y-198852438D01*
X235508333Y-198790533D01*
X235817857Y-198790533D01*
X235941666Y-198852438D01*
X236003571Y-198914342D01*
X236065476Y-199038152D01*
X236065476Y-199347676D01*
X236003571Y-199471485D01*
X235941666Y-199533390D01*
X235817857Y-199595295D01*
X235508333Y-199595295D01*
X235384523Y-199533390D01*
X235322619Y-199471485D01*
D10*
D11*
X285941666Y-198295295D02*
X285694047Y-198295295D01*
X285570238Y-198357200D01*
X285508333Y-198419104D01*
X285384523Y-198604819D01*
X285322619Y-198852438D01*
X285322619Y-199347676D01*
X285384523Y-199471485D01*
X285446428Y-199533390D01*
X285570238Y-199595295D01*
X285817857Y-199595295D01*
X285941666Y-199533390D01*
X286003571Y-199471485D01*
X286065476Y-199347676D01*
X286065476Y-199038152D01*
X286003571Y-198914342D01*
X285941666Y-198852438D01*
X285817857Y-198790533D01*
X285570238Y-198790533D01*
X285446428Y-198852438D01*
X285384523Y-198914342D01*
X285322619Y-199038152D01*
D10*
D11*
X10000000Y-60000000D02*
X12000000Y-60000000D01*
D10*
D11*
X10000000Y-110000000D02*
X12000000Y-110000000D01*
D10*
D11*
X10000000Y-160000000D02*
X12000000Y-160000000D01*
D10*
D11*
X10690476Y-35216666D02*
X11309523Y-35216666D01*
X10566666Y-35588095D02*
X11000000Y-34288095D01*
X11433333Y-35588095D01*
D10*
D11*
X11092857Y-84907142D02*
X11278571Y-84969047D01*
X11340476Y-85030952D01*
X11402380Y-85154761D01*
X11402380Y-85340476D01*
X11340476Y-85464285D01*
X11278571Y-85526190D01*
X11154761Y-85588095D01*
X10659523Y-85588095D01*
X10659523Y-84288095D01*
X11092857Y-84288095D01*
X11216666Y-84350000D01*
X11278571Y-84411904D01*
X11340476Y-84535714D01*
X11340476Y-84659523D01*
X11278571Y-84783333D01*
X11216666Y-84845238D01*
X11092857Y-84907142D01*
X10659523Y-84907142D01*
D10*
D11*
X11402380Y-135464285D02*
X11340476Y-135526190D01*
X11154761Y-135588095D01*
X11030952Y-135588095D01*
X10845238Y-135526190D01*
X10721428Y-135402380D01*
X10659523Y-135278571D01*
X10597619Y-135030952D01*
X10597619Y-134845238D01*
X10659523Y-134597619D01*
X10721428Y-134473809D01*
X10845238Y-134350000D01*
X11030952Y-134288095D01*
X11154761Y-134288095D01*
X11340476Y-134350000D01*
X11402380Y-134411904D01*
D10*
D11*
X10659523Y-185588095D02*
X10659523Y-184288095D01*
X10969047Y-184288095D01*
X11154761Y-184350000D01*
X11278571Y-184473809D01*
X11340476Y-184597619D01*
X11402380Y-184845238D01*
X11402380Y-185030952D01*
X11340476Y-185278571D01*
X11278571Y-185402380D01*
X11154761Y-185526190D01*
X10969047Y-185588095D01*
X10659523Y-185588095D01*
D10*
D11*
X287002200Y-60000000D02*
X285002200Y-60000000D01*
D10*
D11*
X287002200Y-110000000D02*
X285002200Y-110000000D01*
D10*
D11*
X287002200Y-160000000D02*
X285002200Y-160000000D01*
D10*
D11*
X285692676Y-35216666D02*
X286311723Y-35216666D01*
X285568866Y-35588095D02*
X286002200Y-34288095D01*
X286435533Y-35588095D01*
D10*
D11*
X286095057Y-84907142D02*
X286280771Y-84969047D01*
X286342676Y-85030952D01*
X286404580Y-85154761D01*
X286404580Y-85340476D01*
X286342676Y-85464285D01*
X286280771Y-85526190D01*
X286156961Y-85588095D01*
X285661723Y-85588095D01*
X285661723Y-84288095D01*
X286095057Y-84288095D01*
X286218866Y-84350000D01*
X286280771Y-84411904D01*
X286342676Y-84535714D01*
X286342676Y-84659523D01*
X286280771Y-84783333D01*
X286218866Y-84845238D01*
X286095057Y-84907142D01*
X285661723Y-84907142D01*
D10*
D11*
X286404580Y-135464285D02*
X286342676Y-135526190D01*
X286156961Y-135588095D01*
X286033152Y-135588095D01*
X285847438Y-135526190D01*
X285723628Y-135402380D01*
X285661723Y-135278571D01*
X285599819Y-135030952D01*
X285599819Y-134845238D01*
X285661723Y-134597619D01*
X285723628Y-134473809D01*
X285847438Y-134350000D01*
X286033152Y-134288095D01*
X286156961Y-134288095D01*
X286342676Y-134350000D01*
X286404580Y-134411904D01*
D10*
D11*
X285661723Y-185588095D02*
X285661723Y-184288095D01*
X285971247Y-184288095D01*
X286156961Y-184350000D01*
X286280771Y-184473809D01*
X286342676Y-184597619D01*
X286404580Y-184845238D01*
X286404580Y-185030952D01*
X286342676Y-185278571D01*
X286280771Y-185402380D01*
X286156961Y-185526190D01*
X285971247Y-185588095D01*
X285661723Y-185588095D01*
D10*
D11*
X200434342Y-193785771D02*
X200434342Y-192285771D01*
X200791485Y-192285771D01*
X201005771Y-192357200D01*
X201148628Y-192500057D01*
X201220057Y-192642914D01*
X201291485Y-192928628D01*
X201291485Y-193142914D01*
X201220057Y-193428628D01*
X201148628Y-193571485D01*
X201005771Y-193714342D01*
X200791485Y-193785771D01*
X200434342Y-193785771D01*
X202577200Y-193785771D02*
X202577200Y-193000057D01*
X202505771Y-192857200D01*
X202362914Y-192785771D01*
X202077200Y-192785771D01*
X201934342Y-192857200D01*
X202577200Y-193714342D02*
X202434342Y-193785771D01*
X202077200Y-193785771D01*
X201934342Y-193714342D01*
X201862914Y-193571485D01*
X201862914Y-193428628D01*
X201934342Y-193285771D01*
X202077200Y-193214342D01*
X202434342Y-193214342D01*
X202577200Y-193142914D01*
X203077200Y-192785771D02*
X203648628Y-192785771D01*
X203291485Y-192285771D02*
X203291485Y-193571485D01*
X203362914Y-193714342D01*
X203505771Y-193785771D01*
X203648628Y-193785771D01*
X204720057Y-193714342D02*
X204577200Y-193785771D01*
X204291485Y-193785771D01*
X204148628Y-193714342D01*
X204077200Y-193571485D01*
X204077200Y-193000057D01*
X204148628Y-192857200D01*
X204291485Y-192785771D01*
X204577200Y-192785771D01*
X204720057Y-192857200D01*
X204791485Y-193000057D01*
X204791485Y-193142914D01*
X204077200Y-193285771D01*
X205434342Y-193642914D02*
X205505771Y-193714342D01*
X205434342Y-193785771D01*
X205362914Y-193714342D01*
X205434342Y-193642914D01*
X205434342Y-193785771D01*
X205434342Y-192857200D02*
X205505771Y-192928628D01*
X205434342Y-193000057D01*
X205362914Y-192928628D01*
X205434342Y-192857200D01*
X205434342Y-193000057D01*
X207220057Y-192428628D02*
X207291485Y-192357200D01*
X207434342Y-192285771D01*
X207791485Y-192285771D01*
X207934342Y-192357200D01*
X208005771Y-192428628D01*
X208077200Y-192571485D01*
X208077200Y-192714342D01*
X208005771Y-192928628D01*
X207148628Y-193785771D01*
X208077200Y-193785771D01*
X209005771Y-192285771D02*
X209148628Y-192285771D01*
X209291485Y-192357200D01*
X209362914Y-192428628D01*
X209434342Y-192571485D01*
X209505771Y-192857200D01*
X209505771Y-193214342D01*
X209434342Y-193500057D01*
X209362914Y-193642914D01*
X209291485Y-193714342D01*
X209148628Y-193785771D01*
X209005771Y-193785771D01*
X208862914Y-193714342D01*
X208791485Y-193642914D01*
X208720057Y-193500057D01*
X208648628Y-193214342D01*
X208648628Y-192857200D01*
X208720057Y-192571485D01*
X208791485Y-192428628D01*
X208862914Y-192357200D01*
X209005771Y-192285771D01*
X210077200Y-192428628D02*
X210148628Y-192357200D01*
X210291485Y-192285771D01*
X210648628Y-192285771D01*
X210791485Y-192357200D01*
X210862914Y-192428628D01*
X210934342Y-192571485D01*
X210934342Y-192714342D01*
X210862914Y-192928628D01*
X210005771Y-193785771D01*
X210934342Y-193785771D01*
X211862914Y-192285771D02*
X212005771Y-192285771D01*
X212148628Y-192357200D01*
X212220057Y-192428628D01*
X212291485Y-192571485D01*
X212362914Y-192857200D01*
X212362914Y-193214342D01*
X212291485Y-193500057D01*
X212220057Y-193642914D01*
X212148628Y-193714342D01*
X212005771Y-193785771D01*
X211862914Y-193785771D01*
X211720057Y-193714342D01*
X211648628Y-193642914D01*
X211577200Y-193500057D01*
X211505771Y-193214342D01*
X211505771Y-192857200D01*
X211577200Y-192571485D01*
X211648628Y-192428628D01*
X211720057Y-192357200D01*
X211862914Y-192285771D01*
X213005771Y-193214342D02*
X214148628Y-193214342D01*
X215648628Y-193785771D02*
X214791485Y-193785771D01*
X215220057Y-193785771D02*
X215220057Y-192285771D01*
X215077200Y-192500057D01*
X214934342Y-192642914D01*
X214791485Y-192714342D01*
X216577200Y-192285771D02*
X216720057Y-192285771D01*
X216862914Y-192357200D01*
X216934342Y-192428628D01*
X217005771Y-192571485D01*
X217077200Y-192857200D01*
X217077200Y-193214342D01*
X217005771Y-193500057D01*
X216934342Y-193642914D01*
X216862914Y-193714342D01*
X216720057Y-193785771D01*
X216577200Y-193785771D01*
X216434342Y-193714342D01*
X216362914Y-193642914D01*
X216291485Y-193500057D01*
X216220057Y-193214342D01*
X216220057Y-192857200D01*
X216291485Y-192571485D01*
X216362914Y-192428628D01*
X216434342Y-192357200D01*
X216577200Y-192285771D01*
X217720057Y-193214342D02*
X218862914Y-193214342D01*
X219505771Y-192428628D02*
X219577200Y-192357200D01*
X219720057Y-192285771D01*
X220077200Y-192285771D01*
X220220057Y-192357200D01*
X220291485Y-192428628D01*
X220362914Y-192571485D01*
X220362914Y-192714342D01*
X220291485Y-192928628D01*
X219434342Y-193785771D01*
X220362914Y-193785771D01*
X221648628Y-192785771D02*
X221648628Y-193785771D01*
X221291485Y-192214342D02*
X220934342Y-193285771D01*
X221862914Y-193285771D01*
D10*
D11*
X177002200Y-194507200D02*
X285002200Y-194507200D01*
D10*
D11*
X178434342Y-196585771D02*
X178434342Y-195085771D01*
X179291485Y-196585771D02*
X178648628Y-195728628D01*
X179291485Y-195085771D02*
X178434342Y-195942914D01*
X179934342Y-196585771D02*
X179934342Y-195585771D01*
X179934342Y-195085771D02*
X179862914Y-195157200D01*
X179934342Y-195228628D01*
X180005771Y-195157200D01*
X179934342Y-195085771D01*
X179934342Y-195228628D01*
X181505771Y-196442914D02*
X181434342Y-196514342D01*
X181220057Y-196585771D01*
X181077200Y-196585771D01*
X180862914Y-196514342D01*
X180720057Y-196371485D01*
X180648628Y-196228628D01*
X180577200Y-195942914D01*
X180577200Y-195728628D01*
X180648628Y-195442914D01*
X180720057Y-195300057D01*
X180862914Y-195157200D01*
X181077200Y-195085771D01*
X181220057Y-195085771D01*
X181434342Y-195157200D01*
X181505771Y-195228628D01*
X182791485Y-196585771D02*
X182791485Y-195800057D01*
X182720057Y-195657200D01*
X182577200Y-195585771D01*
X182291485Y-195585771D01*
X182148628Y-195657200D01*
X182791485Y-196514342D02*
X182648628Y-196585771D01*
X182291485Y-196585771D01*
X182148628Y-196514342D01*
X182077200Y-196371485D01*
X182077200Y-196228628D01*
X182148628Y-196085771D01*
X182291485Y-196014342D01*
X182648628Y-196014342D01*
X182791485Y-195942914D01*
X184148628Y-196585771D02*
X184148628Y-195085771D01*
X184148628Y-196514342D02*
X184005771Y-196585771D01*
X183720057Y-196585771D01*
X183577200Y-196514342D01*
X183505771Y-196442914D01*
X183434342Y-196300057D01*
X183434342Y-195871485D01*
X183505771Y-195728628D01*
X183577200Y-195657200D01*
X183720057Y-195585771D01*
X184005771Y-195585771D01*
X184148628Y-195657200D01*
X186005771Y-195800057D02*
X186505771Y-195800057D01*
X186720057Y-196585771D02*
X186005771Y-196585771D01*
X186005771Y-195085771D01*
X186720057Y-195085771D01*
X187362914Y-196442914D02*
X187434342Y-196514342D01*
X187362914Y-196585771D01*
X187291485Y-196514342D01*
X187362914Y-196442914D01*
X187362914Y-196585771D01*
X188077200Y-196585771D02*
X188077200Y-195085771D01*
X188434342Y-195085771D01*
X188648628Y-195157200D01*
X188791485Y-195300057D01*
X188862914Y-195442914D01*
X188934342Y-195728628D01*
X188934342Y-195942914D01*
X188862914Y-196228628D01*
X188791485Y-196371485D01*
X188648628Y-196514342D01*
X188434342Y-196585771D01*
X188077200Y-196585771D01*
X189577200Y-196442914D02*
X189648628Y-196514342D01*
X189577200Y-196585771D01*
X189505771Y-196514342D01*
X189577200Y-196442914D01*
X189577200Y-196585771D01*
X190220057Y-196157200D02*
X190934342Y-196157200D01*
X190077200Y-196585771D02*
X190577200Y-195085771D01*
X191077200Y-196585771D01*
X191577200Y-196442914D02*
X191648628Y-196514342D01*
X191577200Y-196585771D01*
X191505771Y-196514342D01*
X191577200Y-196442914D01*
X191577200Y-196585771D01*
X194577200Y-196585771D02*
X194577200Y-195085771D01*
X194720057Y-196014342D02*
X195148628Y-196585771D01*
X195148628Y-195585771D02*
X194577200Y-196157200D01*
X195791485Y-196585771D02*
X195791485Y-195585771D01*
X195791485Y-195085771D02*
X195720057Y-195157200D01*
X195791485Y-195228628D01*
X195862914Y-195157200D01*
X195791485Y-195085771D01*
X195791485Y-195228628D01*
X197148628Y-196514342D02*
X197005771Y-196585771D01*
X196720057Y-196585771D01*
X196577200Y-196514342D01*
X196505771Y-196442914D01*
X196434342Y-196300057D01*
X196434342Y-195871485D01*
X196505771Y-195728628D01*
X196577200Y-195657200D01*
X196720057Y-195585771D01*
X197005771Y-195585771D01*
X197148628Y-195657200D01*
X198434342Y-196585771D02*
X198434342Y-195800057D01*
X198362914Y-195657200D01*
X198220057Y-195585771D01*
X197934342Y-195585771D01*
X197791485Y-195657200D01*
X198434342Y-196514342D02*
X198291485Y-196585771D01*
X197934342Y-196585771D01*
X197791485Y-196514342D01*
X197720057Y-196371485D01*
X197720057Y-196228628D01*
X197791485Y-196085771D01*
X197934342Y-196014342D01*
X198291485Y-196014342D01*
X198434342Y-195942914D01*
X199791485Y-196585771D02*
X199791485Y-195085771D01*
X199791485Y-196514342D02*
X199648628Y-196585771D01*
X199362914Y-196585771D01*
X199220057Y-196514342D01*
X199148628Y-196442914D01*
X199077200Y-196300057D01*
X199077200Y-195871485D01*
X199148628Y-195728628D01*
X199220057Y-195657200D01*
X199362914Y-195585771D01*
X199648628Y-195585771D01*
X199791485Y-195657200D01*
X202077200Y-197157200D02*
X202005771Y-197085771D01*
X201862914Y-196871485D01*
X201791485Y-196728628D01*
X201720057Y-196514342D01*
X201648628Y-196157200D01*
X201648628Y-195871485D01*
X201720057Y-195514342D01*
X201791485Y-195300057D01*
X201862914Y-195157200D01*
X202005771Y-194942914D01*
X202077200Y-194871485D01*
X203362914Y-195085771D02*
X202648628Y-195085771D01*
X202577200Y-195800057D01*
X202648628Y-195728628D01*
X202791485Y-195657200D01*
X203148628Y-195657200D01*
X203291485Y-195728628D01*
X203362914Y-195800057D01*
X203434342Y-195942914D01*
X203434342Y-196300057D01*
X203362914Y-196442914D01*
X203291485Y-196514342D01*
X203148628Y-196585771D01*
X202791485Y-196585771D01*
X202648628Y-196514342D01*
X202577200Y-196442914D01*
X204077200Y-196442914D02*
X204148628Y-196514342D01*
X204077200Y-196585771D01*
X204005771Y-196514342D01*
X204077200Y-196442914D01*
X204077200Y-196585771D01*
X204862914Y-196585771D02*
X205148628Y-196585771D01*
X205291485Y-196514342D01*
X205362914Y-196442914D01*
X205505771Y-196228628D01*
X205577200Y-195942914D01*
X205577200Y-195371485D01*
X205505771Y-195228628D01*
X205434342Y-195157200D01*
X205291485Y-195085771D01*
X205005771Y-195085771D01*
X204862914Y-195157200D01*
X204791485Y-195228628D01*
X204720057Y-195371485D01*
X204720057Y-195728628D01*
X204791485Y-195871485D01*
X204862914Y-195942914D01*
X205005771Y-196014342D01*
X205291485Y-196014342D01*
X205434342Y-195942914D01*
X205505771Y-195871485D01*
X205577200Y-195728628D01*
X206291485Y-196585771D02*
X206577200Y-196585771D01*
X206720057Y-196514342D01*
X206791485Y-196442914D01*
X206934342Y-196228628D01*
X207005771Y-195942914D01*
X207005771Y-195371485D01*
X206934342Y-195228628D01*
X206862914Y-195157200D01*
X206720057Y-195085771D01*
X206434342Y-195085771D01*
X206291485Y-195157200D01*
X206220057Y-195228628D01*
X206148628Y-195371485D01*
X206148628Y-195728628D01*
X206220057Y-195871485D01*
X206291485Y-195942914D01*
X206434342Y-196014342D01*
X206720057Y-196014342D01*
X206862914Y-195942914D01*
X206934342Y-195871485D01*
X207005771Y-195728628D01*
X207648628Y-196442914D02*
X207720057Y-196514342D01*
X207648628Y-196585771D01*
X207577200Y-196514342D01*
X207648628Y-196442914D01*
X207648628Y-196585771D01*
X208648628Y-195085771D02*
X208791485Y-195085771D01*
X208934342Y-195157200D01*
X209005771Y-195228628D01*
X209077200Y-195371485D01*
X209148628Y-195657200D01*
X209148628Y-196014342D01*
X209077200Y-196300057D01*
X209005771Y-196442914D01*
X208934342Y-196514342D01*
X208791485Y-196585771D01*
X208648628Y-196585771D01*
X208505771Y-196514342D01*
X208434342Y-196442914D01*
X208362914Y-196300057D01*
X208291485Y-196014342D01*
X208291485Y-195657200D01*
X208362914Y-195371485D01*
X208434342Y-195228628D01*
X208505771Y-195157200D01*
X208648628Y-195085771D01*
X209791485Y-196014342D02*
X210934342Y-196014342D01*
X212291485Y-195085771D02*
X212005771Y-195085771D01*
X211862914Y-195157200D01*
X211791485Y-195228628D01*
X211648628Y-195442914D01*
X211577200Y-195728628D01*
X211577200Y-196300057D01*
X211648628Y-196442914D01*
X211720057Y-196514342D01*
X211862914Y-196585771D01*
X212148628Y-196585771D01*
X212291485Y-196514342D01*
X212362914Y-196442914D01*
X212434342Y-196300057D01*
X212434342Y-195942914D01*
X212362914Y-195800057D01*
X212291485Y-195728628D01*
X212148628Y-195657200D01*
X211862914Y-195657200D01*
X211720057Y-195728628D01*
X211648628Y-195800057D01*
X211577200Y-195942914D01*
X213720057Y-195585771D02*
X213720057Y-196585771D01*
X213362914Y-195014342D02*
X213005771Y-196085771D01*
X213934342Y-196085771D01*
X214577200Y-196585771D02*
X214862914Y-196585771D01*
X215005771Y-196514342D01*
X215077200Y-196442914D01*
X215220057Y-196228628D01*
X215291485Y-195942914D01*
X215291485Y-195371485D01*
X215220057Y-195228628D01*
X215148628Y-195157200D01*
X215005771Y-195085771D01*
X214720057Y-195085771D01*
X214577200Y-195157200D01*
X214505771Y-195228628D01*
X214434342Y-195371485D01*
X214434342Y-195728628D01*
X214505771Y-195871485D01*
X214577200Y-195942914D01*
X214720057Y-196014342D01*
X215005771Y-196014342D01*
X215148628Y-195942914D01*
X215220057Y-195871485D01*
X215291485Y-195728628D01*
X216648628Y-195085771D02*
X215934342Y-195085771D01*
X215862914Y-195800057D01*
X215934342Y-195728628D01*
X216077200Y-195657200D01*
X216434342Y-195657200D01*
X216577200Y-195728628D01*
X216648628Y-195800057D01*
X216720057Y-195942914D01*
X216720057Y-196300057D01*
X216648628Y-196442914D01*
X216577200Y-196514342D01*
X216434342Y-196585771D01*
X216077200Y-196585771D01*
X215934342Y-196514342D01*
X215862914Y-196442914D01*
X217362914Y-196014342D02*
X218505771Y-196014342D01*
X219862914Y-195585771D02*
X219862914Y-196800057D01*
X219791485Y-196942914D01*
X219720057Y-197014342D01*
X219577200Y-197085771D01*
X219362914Y-197085771D01*
X219220057Y-197014342D01*
X219862914Y-196514342D02*
X219720057Y-196585771D01*
X219434342Y-196585771D01*
X219291485Y-196514342D01*
X219220057Y-196442914D01*
X219148628Y-196300057D01*
X219148628Y-195871485D01*
X219220057Y-195728628D01*
X219291485Y-195657200D01*
X219434342Y-195585771D01*
X219720057Y-195585771D01*
X219862914Y-195657200D01*
X221362914Y-196585771D02*
X220505771Y-196585771D01*
X220934342Y-196585771D02*
X220934342Y-195085771D01*
X220791485Y-195300057D01*
X220648628Y-195442914D01*
X220505771Y-195514342D01*
X222720057Y-195085771D02*
X222005771Y-195085771D01*
X221934342Y-195800057D01*
X222005771Y-195728628D01*
X222148628Y-195657200D01*
X222505771Y-195657200D01*
X222648628Y-195728628D01*
X222720057Y-195800057D01*
X222791485Y-195942914D01*
X222791485Y-196300057D01*
X222720057Y-196442914D01*
X222648628Y-196514342D01*
X222505771Y-196585771D01*
X222148628Y-196585771D01*
X222005771Y-196514342D01*
X221934342Y-196442914D01*
X223291485Y-195085771D02*
X224220057Y-195085771D01*
X223720057Y-195657200D01*
X223934342Y-195657200D01*
X224077200Y-195728628D01*
X224148628Y-195800057D01*
X224220057Y-195942914D01*
X224220057Y-196300057D01*
X224148628Y-196442914D01*
X224077200Y-196514342D01*
X223934342Y-196585771D01*
X223505771Y-196585771D01*
X223362914Y-196514342D01*
X223291485Y-196442914D01*
X225505771Y-195085771D02*
X225220057Y-195085771D01*
X225077200Y-195157200D01*
X225005771Y-195228628D01*
X224862914Y-195442914D01*
X224791485Y-195728628D01*
X224791485Y-196300057D01*
X224862914Y-196442914D01*
X224934342Y-196514342D01*
X225077200Y-196585771D01*
X225362914Y-196585771D01*
X225505771Y-196514342D01*
X225577200Y-196442914D01*
X225648628Y-196300057D01*
X225648628Y-195942914D01*
X225577200Y-195800057D01*
X225505771Y-195728628D01*
X225362914Y-195657200D01*
X225077200Y-195657200D01*
X224934342Y-195728628D01*
X224862914Y-195800057D01*
X224791485Y-195942914D01*
X226362914Y-196585771D02*
X226648628Y-196585771D01*
X226791485Y-196514342D01*
X226862914Y-196442914D01*
X227005771Y-196228628D01*
X227077199Y-195942914D01*
X227077199Y-195371485D01*
X227005771Y-195228628D01*
X226934342Y-195157200D01*
X226791485Y-195085771D01*
X226505771Y-195085771D01*
X226362914Y-195157200D01*
X226291485Y-195228628D01*
X226220057Y-195371485D01*
X226220057Y-195728628D01*
X226291485Y-195871485D01*
X226362914Y-195942914D01*
X226505771Y-196014342D01*
X226791485Y-196014342D01*
X226934342Y-195942914D01*
X227005771Y-195871485D01*
X227077199Y-195728628D01*
X227791485Y-196585771D02*
X228077199Y-196585771D01*
X228220057Y-196514342D01*
X228291485Y-196442914D01*
X228434342Y-196228628D01*
X228505771Y-195942914D01*
X228505771Y-195371485D01*
X228434342Y-195228628D01*
X228362914Y-195157200D01*
X228220057Y-195085771D01*
X227934342Y-195085771D01*
X227791485Y-195157200D01*
X227720057Y-195228628D01*
X227648628Y-195371485D01*
X227648628Y-195728628D01*
X227720057Y-195871485D01*
X227791485Y-195942914D01*
X227934342Y-196014342D01*
X228220057Y-196014342D01*
X228362914Y-195942914D01*
X228434342Y-195871485D01*
X228505771Y-195728628D01*
X229934342Y-196585771D02*
X229077199Y-196585771D01*
X229505771Y-196585771D02*
X229505771Y-195085771D01*
X229362914Y-195300057D01*
X229220057Y-195442914D01*
X229077199Y-195514342D01*
X231291485Y-195085771D02*
X230577199Y-195085771D01*
X230505771Y-195800057D01*
X230577199Y-195728628D01*
X230720057Y-195657200D01*
X231077199Y-195657200D01*
X231220057Y-195728628D01*
X231291485Y-195800057D01*
X231362914Y-195942914D01*
X231362914Y-196300057D01*
X231291485Y-196442914D01*
X231220057Y-196514342D01*
X231077199Y-196585771D01*
X230720057Y-196585771D01*
X230577199Y-196514342D01*
X230505771Y-196442914D01*
X232648628Y-196514342D02*
X232505771Y-196585771D01*
X232220057Y-196585771D01*
X232077199Y-196514342D01*
X232005771Y-196442914D01*
X231934342Y-196300057D01*
X231934342Y-195871485D01*
X232005771Y-195728628D01*
X232077199Y-195657200D01*
X232220057Y-195585771D01*
X232505771Y-195585771D01*
X232648628Y-195657200D01*
X233934342Y-196514342D02*
X233791485Y-196585771D01*
X233505771Y-196585771D01*
X233362914Y-196514342D01*
X233291485Y-196442914D01*
X233220057Y-196300057D01*
X233220057Y-195871485D01*
X233291485Y-195728628D01*
X233362914Y-195657200D01*
X233505771Y-195585771D01*
X233791485Y-195585771D01*
X233934342Y-195657200D01*
X234434342Y-197157200D02*
X234505771Y-197085771D01*
X234648628Y-196871485D01*
X234720057Y-196728628D01*
X234791485Y-196514342D01*
X234862914Y-196157200D01*
X234862914Y-195871485D01*
X234791485Y-195514342D01*
X234720057Y-195300057D01*
X234648628Y-195157200D01*
X234505771Y-194942914D01*
X234434342Y-194871485D01*
D10*
D11*
X177002200Y-191507200D02*
X285002200Y-191507200D01*
D10*
D12*
X264411485Y-193785771D02*
X263911485Y-193071485D01*
X263554342Y-193785771D02*
X263554342Y-192285771D01*
X264125771Y-192285771D01*
X264268628Y-192357200D01*
X264340057Y-192428628D01*
X264411485Y-192571485D01*
X264411485Y-192785771D01*
X264340057Y-192928628D01*
X264268628Y-193000057D01*
X264125771Y-193071485D01*
X263554342Y-193071485D01*
X265625771Y-193714342D02*
X265482914Y-193785771D01*
X265197200Y-193785771D01*
X265054342Y-193714342D01*
X264982914Y-193571485D01*
X264982914Y-193000057D01*
X265054342Y-192857200D01*
X265197200Y-192785771D01*
X265482914Y-192785771D01*
X265625771Y-192857200D01*
X265697200Y-193000057D01*
X265697200Y-193142914D01*
X264982914Y-193285771D01*
X266197200Y-192785771D02*
X266554342Y-193785771D01*
X266911485Y-192785771D01*
X267482914Y-193642914D02*
X267554342Y-193714342D01*
X267482914Y-193785771D01*
X267411485Y-193714342D01*
X267482914Y-193642914D01*
X267482914Y-193785771D01*
X267482914Y-192857200D02*
X267554342Y-192928628D01*
X267482914Y-193000057D01*
X267411485Y-192928628D01*
X267482914Y-192857200D01*
X267482914Y-193000057D01*
X270125771Y-193785771D02*
X269268628Y-193785771D01*
X269697200Y-193785771D02*
X269697200Y-192285771D01*
X269554342Y-192500057D01*
X269411485Y-192642914D01*
X269268628Y-192714342D01*
X270697200Y-193357200D02*
X271411485Y-193357200D01*
X270554342Y-193785771D02*
X271054342Y-192285771D01*
X271554342Y-193785771D01*
D10*
D11*
X178362914Y-193714342D02*
X178577200Y-193785771D01*
X178934342Y-193785771D01*
X179077200Y-193714342D01*
X179148628Y-193642914D01*
X179220057Y-193500057D01*
X179220057Y-193357200D01*
X179148628Y-193214342D01*
X179077200Y-193142914D01*
X178934342Y-193071485D01*
X178648628Y-193000057D01*
X178505771Y-192928628D01*
X178434342Y-192857200D01*
X178362914Y-192714342D01*
X178362914Y-192571485D01*
X178434342Y-192428628D01*
X178505771Y-192357200D01*
X178648628Y-192285771D01*
X179005771Y-192285771D01*
X179220057Y-192357200D01*
X179862914Y-193785771D02*
X179862914Y-192785771D01*
X179862914Y-192285771D02*
X179791485Y-192357200D01*
X179862914Y-192428628D01*
X179934342Y-192357200D01*
X179862914Y-192285771D01*
X179862914Y-192428628D01*
X180434342Y-192785771D02*
X181220057Y-192785771D01*
X180434342Y-193785771D01*
X181220057Y-193785771D01*
X182362914Y-193714342D02*
X182220057Y-193785771D01*
X181934342Y-193785771D01*
X181791485Y-193714342D01*
X181720057Y-193571485D01*
X181720057Y-193000057D01*
X181791485Y-192857200D01*
X181934342Y-192785771D01*
X182220057Y-192785771D01*
X182362914Y-192857200D01*
X182434342Y-193000057D01*
X182434342Y-193142914D01*
X181720057Y-193285771D01*
X183077200Y-193642914D02*
X183148628Y-193714342D01*
X183077200Y-193785771D01*
X183005771Y-193714342D01*
X183077200Y-193642914D01*
X183077200Y-193785771D01*
X183077200Y-192857200D02*
X183148628Y-192928628D01*
X183077200Y-193000057D01*
X183005771Y-192928628D01*
X183077200Y-192857200D01*
X183077200Y-193000057D01*
X184862914Y-193357200D02*
X185577200Y-193357200D01*
X184720057Y-193785771D02*
X185220057Y-192285771D01*
X185720057Y-193785771D01*
X186862914Y-192785771D02*
X186862914Y-193785771D01*
X186505771Y-192214342D02*
X186148628Y-193285771D01*
X187077200Y-193285771D01*
D10*
D11*
X263434342Y-196585771D02*
X263434342Y-195085771D01*
X264791485Y-196585771D02*
X264791485Y-195085771D01*
X264791485Y-196514342D02*
X264648628Y-196585771D01*
X264362914Y-196585771D01*
X264220057Y-196514342D01*
X264148628Y-196442914D01*
X264077200Y-196300057D01*
X264077200Y-195871485D01*
X264148628Y-195728628D01*
X264220057Y-195657200D01*
X264362914Y-195585771D01*
X264648628Y-195585771D01*
X264791485Y-195657200D01*
X265505771Y-196442914D02*
X265577200Y-196514342D01*
X265505771Y-196585771D01*
X265434342Y-196514342D01*
X265505771Y-196442914D01*
X265505771Y-196585771D01*
X265505771Y-195657200D02*
X265577200Y-195728628D01*
X265505771Y-195800057D01*
X265434342Y-195728628D01*
X265505771Y-195657200D01*
X265505771Y-195800057D01*
X268148628Y-196585771D02*
X267291485Y-196585771D01*
X267720057Y-196585771D02*
X267720057Y-195085771D01*
X267577200Y-195300057D01*
X267434342Y-195442914D01*
X267291485Y-195514342D01*
X269862914Y-195014342D02*
X268577200Y-196942914D01*
X271148628Y-196585771D02*
X270291485Y-196585771D01*
X270720057Y-196585771D02*
X270720057Y-195085771D01*
X270577200Y-195300057D01*
X270434342Y-195442914D01*
X270291485Y-195514342D01*
D10*
D11*
X177002200Y-187507200D02*
X285002200Y-187507200D01*
D10*
D13*
X178714580Y-188211961D02*
X179857438Y-188211961D01*
X179036009Y-190211961D02*
X179286009Y-188211961D01*
X180274104Y-190211961D02*
X180440771Y-188878628D01*
X180524104Y-188211961D02*
X180416961Y-188307200D01*
X180500295Y-188402438D01*
X180607438Y-188307200D01*
X180524104Y-188211961D01*
X180500295Y-188402438D01*
X181107438Y-188878628D02*
X181869342Y-188878628D01*
X181476485Y-188211961D02*
X181262200Y-189926247D01*
X181333628Y-190116723D01*
X181512200Y-190211961D01*
X181702676Y-190211961D01*
X182655057Y-190211961D02*
X182476485Y-190116723D01*
X182405057Y-189926247D01*
X182619342Y-188211961D01*
X184190771Y-190116723D02*
X183988390Y-190211961D01*
X183607438Y-190211961D01*
X183428866Y-190116723D01*
X183357438Y-189926247D01*
X183452676Y-189164342D01*
X183571723Y-188973866D01*
X183774104Y-188878628D01*
X184155057Y-188878628D01*
X184333628Y-188973866D01*
X184405057Y-189164342D01*
X184381247Y-189354819D01*
X183405057Y-189545295D01*
X185155057Y-190021485D02*
X185238390Y-190116723D01*
X185131247Y-190211961D01*
X185047914Y-190116723D01*
X185155057Y-190021485D01*
X185131247Y-190211961D01*
X185286009Y-188973866D02*
X185369342Y-189069104D01*
X185262200Y-189164342D01*
X185178866Y-189069104D01*
X185286009Y-188973866D01*
X185262200Y-189164342D01*
X187738390Y-189164342D02*
X188405057Y-189164342D01*
X188559819Y-190211961D02*
X187607438Y-190211961D01*
X187857438Y-188211961D01*
X188809819Y-188211961D01*
X189381247Y-188211961D02*
X189797914Y-190211961D01*
X190714580Y-188211961D01*
X191107438Y-189640533D02*
X192059819Y-189640533D01*
X190845533Y-190211961D02*
X191762200Y-188211961D01*
X192178866Y-190211961D01*
X193797914Y-190211961D02*
X192845533Y-190211961D01*
X193095533Y-188211961D01*
X194559819Y-189450057D02*
X196083628Y-189450057D01*
X196940771Y-190211961D02*
X197190771Y-188211961D01*
X197678866Y-189640533D01*
X198524104Y-188211961D01*
X198274104Y-190211961D01*
X199226485Y-190211961D02*
X199476485Y-188211961D01*
X200238390Y-188211961D01*
X200416961Y-188307200D01*
X200500295Y-188402438D01*
X200571723Y-188592914D01*
X200536009Y-188878628D01*
X200416961Y-189069104D01*
X200309819Y-189164342D01*
X200107438Y-189259580D01*
X199345533Y-189259580D01*
X201655057Y-189069104D02*
X201476485Y-188973866D01*
X201393152Y-188878628D01*
X201321723Y-188688152D01*
X201333628Y-188592914D01*
X201452676Y-188402438D01*
X201559819Y-188307200D01*
X201762200Y-188211961D01*
X202143152Y-188211961D01*
X202321723Y-188307200D01*
X202405057Y-188402438D01*
X202476485Y-188592914D01*
X202464580Y-188688152D01*
X202345533Y-188878628D01*
X202238390Y-188973866D01*
X202036009Y-189069104D01*
X201655057Y-189069104D01*
X201452676Y-189164342D01*
X201345533Y-189259580D01*
X201226485Y-189450057D01*
X201178866Y-189831009D01*
X201250295Y-190021485D01*
X201333628Y-190116723D01*
X201512200Y-190211961D01*
X201893152Y-190211961D01*
X202095533Y-190116723D01*
X202202676Y-190021485D01*
X202321723Y-189831009D01*
X202369342Y-189450057D01*
X202297914Y-189259580D01*
X202214580Y-189164342D01*
X202036009Y-189069104D01*
X203559819Y-189069104D02*
X203381247Y-188973866D01*
X203297914Y-188878628D01*
X203226485Y-188688152D01*
X203238390Y-188592914D01*
X203357438Y-188402438D01*
X203464580Y-188307200D01*
X203666961Y-188211961D01*
X204047914Y-188211961D01*
X204226485Y-188307200D01*
X204309819Y-188402438D01*
X204381247Y-188592914D01*
X204369342Y-188688152D01*
X204250295Y-188878628D01*
X204143152Y-188973866D01*
X203940771Y-189069104D01*
X203559819Y-189069104D01*
X203357438Y-189164342D01*
X203250295Y-189259580D01*
X203131247Y-189450057D01*
X203083628Y-189831009D01*
X203155057Y-190021485D01*
X203238390Y-190116723D01*
X203416961Y-190211961D01*
X203797914Y-190211961D01*
X204000295Y-190116723D01*
X204107438Y-190021485D01*
X204226485Y-189831009D01*
X204274104Y-189450057D01*
X204202676Y-189259580D01*
X204119342Y-189164342D01*
X203940771Y-189069104D01*
X206143152Y-188211961D02*
X205762200Y-188211961D01*
X205559819Y-188307200D01*
X205452676Y-188402438D01*
X205226485Y-188688152D01*
X205083628Y-189069104D01*
X204988390Y-189831009D01*
X205059819Y-190021485D01*
X205143152Y-190116723D01*
X205321723Y-190211961D01*
X205702676Y-190211961D01*
X205905057Y-190116723D01*
X206012200Y-190021485D01*
X206131247Y-189831009D01*
X206190771Y-189354819D01*
X206119342Y-189164342D01*
X206036009Y-189069104D01*
X205857438Y-188973866D01*
X205476485Y-188973866D01*
X205274104Y-189069104D01*
X205166961Y-189164342D01*
X205047914Y-189354819D01*
X207071723Y-188402438D02*
X207178866Y-188307200D01*
X207381247Y-188211961D01*
X207857438Y-188211961D01*
X208036009Y-188307200D01*
X208119342Y-188402438D01*
X208190771Y-188592914D01*
X208166961Y-188783390D01*
X208036009Y-189069104D01*
X206750295Y-190211961D01*
X207988390Y-190211961D01*
X210131247Y-188307200D02*
X209952676Y-188211961D01*
X209666961Y-188211961D01*
X209369342Y-188307200D01*
X209155057Y-188497676D01*
X209036009Y-188688152D01*
X208893152Y-189069104D01*
X208857438Y-189354819D01*
X208905057Y-189735771D01*
X208976485Y-189926247D01*
X209143152Y-190116723D01*
X209416961Y-190211961D01*
X209607438Y-190211961D01*
X209905057Y-190116723D01*
X210012200Y-190021485D01*
X210095533Y-189354819D01*
X209714580Y-189354819D01*
X212155057Y-190402438D02*
X211976485Y-190307200D01*
X211809819Y-190116723D01*
X211559819Y-189831009D01*
X211381247Y-189735771D01*
X211190771Y-189735771D01*
X211226485Y-190211961D02*
X211047914Y-190116723D01*
X210881247Y-189926247D01*
X210833628Y-189545295D01*
X210916961Y-188878628D01*
X211059819Y-188497676D01*
X211274104Y-188307200D01*
X211476485Y-188211961D01*
X211857438Y-188211961D01*
X212036009Y-188307200D01*
X212202676Y-188497676D01*
X212250295Y-188878628D01*
X212166961Y-189545295D01*
X212024104Y-189926247D01*
X211809819Y-190116723D01*
X211607438Y-190211961D01*
X211226485Y-190211961D01*
X213036009Y-189450057D02*
X214559819Y-189450057D01*
X216047914Y-188211961D02*
X216238390Y-188211961D01*
X216416961Y-188307200D01*
X216500295Y-188402438D01*
X216571723Y-188592914D01*
X216619342Y-188973866D01*
X216559819Y-189450057D01*
X216416961Y-189831009D01*
X216297914Y-190021485D01*
X216190771Y-190116723D01*
X215988390Y-190211961D01*
X215797914Y-190211961D01*
X215619342Y-190116723D01*
X215536009Y-190021485D01*
X215464580Y-189831009D01*
X215416961Y-189450057D01*
X215476485Y-188973866D01*
X215619342Y-188592914D01*
X215738390Y-188402438D01*
X215845533Y-188307200D01*
X216047914Y-188211961D01*
X217952676Y-188211961D02*
X218143152Y-188211961D01*
X218321723Y-188307200D01*
X218405057Y-188402438D01*
X218476485Y-188592914D01*
X218524104Y-188973866D01*
X218464580Y-189450057D01*
X218321723Y-189831009D01*
X218202676Y-190021485D01*
X218095533Y-190116723D01*
X217893152Y-190211961D01*
X217702676Y-190211961D01*
X217524104Y-190116723D01*
X217440771Y-190021485D01*
X217369342Y-189831009D01*
X217321723Y-189450057D01*
X217381247Y-188973866D01*
X217524104Y-188592914D01*
X217643152Y-188402438D01*
X217750295Y-188307200D01*
X217952676Y-188211961D01*
X219857438Y-188211961D02*
X220047914Y-188211961D01*
X220226485Y-188307200D01*
X220309819Y-188402438D01*
X220381247Y-188592914D01*
X220428866Y-188973866D01*
X220369342Y-189450057D01*
X220226485Y-189831009D01*
X220107438Y-190021485D01*
X220000295Y-190116723D01*
X219797914Y-190211961D01*
X219607438Y-190211961D01*
X219428866Y-190116723D01*
X219345533Y-190021485D01*
X219274104Y-189831009D01*
X219226485Y-189450057D01*
X219286009Y-188973866D01*
X219428866Y-188592914D01*
X219547914Y-188402438D01*
X219655057Y-188307200D01*
X219857438Y-188211961D01*
X221762200Y-188211961D02*
X221952676Y-188211961D01*
X222131247Y-188307200D01*
X222214580Y-188402438D01*
X222286009Y-188592914D01*
X222333628Y-188973866D01*
X222274104Y-189450057D01*
X222131247Y-189831009D01*
X222012200Y-190021485D01*
X221905057Y-190116723D01*
X221702676Y-190211961D01*
X221512200Y-190211961D01*
X221333628Y-190116723D01*
X221250295Y-190021485D01*
X221178866Y-189831009D01*
X221131247Y-189450057D01*
X221190771Y-188973866D01*
X221333628Y-188592914D01*
X221452676Y-188402438D01*
X221559819Y-188307200D01*
X221762200Y-188211961D01*
D10*
D11*
X178934342Y-185600057D02*
X178434342Y-185600057D01*
X178434342Y-186385771D02*
X178434342Y-184885771D01*
X179148628Y-184885771D01*
X179720057Y-186385771D02*
X179720057Y-185385771D01*
X179720057Y-184885771D02*
X179648628Y-184957200D01*
X179720057Y-185028628D01*
X179791485Y-184957200D01*
X179720057Y-184885771D01*
X179720057Y-185028628D01*
X180648628Y-186385771D02*
X180505771Y-186314342D01*
X180434342Y-186171485D01*
X180434342Y-184885771D01*
X181791485Y-186314342D02*
X181648628Y-186385771D01*
X181362914Y-186385771D01*
X181220057Y-186314342D01*
X181148628Y-186171485D01*
X181148628Y-185600057D01*
X181220057Y-185457200D01*
X181362914Y-185385771D01*
X181648628Y-185385771D01*
X181791485Y-185457200D01*
X181862914Y-185600057D01*
X181862914Y-185742914D01*
X181148628Y-185885771D01*
X182505771Y-186242914D02*
X182577200Y-186314342D01*
X182505771Y-186385771D01*
X182434342Y-186314342D01*
X182505771Y-186242914D01*
X182505771Y-186385771D01*
X182505771Y-185457200D02*
X182577200Y-185528628D01*
X182505771Y-185600057D01*
X182434342Y-185528628D01*
X182505771Y-185457200D01*
X182505771Y-185600057D01*
X184362914Y-185600057D02*
X184862914Y-185600057D01*
X185077200Y-186385771D02*
X184362914Y-186385771D01*
X184362914Y-184885771D01*
X185077200Y-184885771D01*
X185505771Y-184885771D02*
X186005771Y-186385771D01*
X186505771Y-184885771D01*
X186934342Y-185957200D02*
X187648628Y-185957200D01*
X186791485Y-186385771D02*
X187291485Y-184885771D01*
X187791485Y-186385771D01*
X189005771Y-186385771D02*
X188291485Y-186385771D01*
X188291485Y-184885771D01*
X189505771Y-185814342D02*
X190648628Y-185814342D01*
X191362914Y-186385771D02*
X191362914Y-184885771D01*
X191862914Y-185957200D01*
X192362914Y-184885771D01*
X192362914Y-186385771D01*
X193077200Y-186385771D02*
X193077200Y-184885771D01*
X193648628Y-184885771D01*
X193791485Y-184957200D01*
X193862914Y-185028628D01*
X193934342Y-185171485D01*
X193934342Y-185385771D01*
X193862914Y-185528628D01*
X193791485Y-185600057D01*
X193648628Y-185671485D01*
X193077200Y-185671485D01*
X194791485Y-185528628D02*
X194648628Y-185457200D01*
X194577200Y-185385771D01*
X194505771Y-185242914D01*
X194505771Y-185171485D01*
X194577200Y-185028628D01*
X194648628Y-184957200D01*
X194791485Y-184885771D01*
X195077200Y-184885771D01*
X195220057Y-184957200D01*
X195291485Y-185028628D01*
X195362914Y-185171485D01*
X195362914Y-185242914D01*
X195291485Y-185385771D01*
X195220057Y-185457200D01*
X195077200Y-185528628D01*
X194791485Y-185528628D01*
X194648628Y-185600057D01*
X194577200Y-185671485D01*
X194505771Y-185814342D01*
X194505771Y-186100057D01*
X194577200Y-186242914D01*
X194648628Y-186314342D01*
X194791485Y-186385771D01*
X195077200Y-186385771D01*
X195220057Y-186314342D01*
X195291485Y-186242914D01*
X195362914Y-186100057D01*
X195362914Y-185814342D01*
X195291485Y-185671485D01*
X195220057Y-185600057D01*
X195077200Y-185528628D01*
X196220057Y-185528628D02*
X196077200Y-185457200D01*
X196005771Y-185385771D01*
X195934342Y-185242914D01*
X195934342Y-185171485D01*
X196005771Y-185028628D01*
X196077200Y-184957200D01*
X196220057Y-184885771D01*
X196505771Y-184885771D01*
X196648628Y-184957200D01*
X196720057Y-185028628D01*
X196791485Y-185171485D01*
X196791485Y-185242914D01*
X196720057Y-185385771D01*
X196648628Y-185457200D01*
X196505771Y-185528628D01*
X196220057Y-185528628D01*
X196077200Y-185600057D01*
X196005771Y-185671485D01*
X195934342Y-185814342D01*
X195934342Y-186100057D01*
X196005771Y-186242914D01*
X196077200Y-186314342D01*
X196220057Y-186385771D01*
X196505771Y-186385771D01*
X196648628Y-186314342D01*
X196720057Y-186242914D01*
X196791485Y-186100057D01*
X196791485Y-185814342D01*
X196720057Y-185671485D01*
X196648628Y-185600057D01*
X196505771Y-185528628D01*
X198077200Y-184885771D02*
X197791485Y-184885771D01*
X197648628Y-184957200D01*
X197577200Y-185028628D01*
X197434342Y-185242914D01*
X197362914Y-185528628D01*
X197362914Y-186100057D01*
X197434342Y-186242914D01*
X197505771Y-186314342D01*
X197648628Y-186385771D01*
X197934342Y-186385771D01*
X198077200Y-186314342D01*
X198148628Y-186242914D01*
X198220057Y-186100057D01*
X198220057Y-185742914D01*
X198148628Y-185600057D01*
X198077200Y-185528628D01*
X197934342Y-185457200D01*
X197648628Y-185457200D01*
X197505771Y-185528628D01*
X197434342Y-185600057D01*
X197362914Y-185742914D01*
X198791485Y-185028628D02*
X198862914Y-184957200D01*
X199005771Y-184885771D01*
X199362914Y-184885771D01*
X199505771Y-184957200D01*
X199577200Y-185028628D01*
X199648628Y-185171485D01*
X199648628Y-185314342D01*
X199577200Y-185528628D01*
X198720057Y-186385771D01*
X199648628Y-186385771D01*
X200291485Y-186242914D02*
X200362914Y-186314342D01*
X200291485Y-186385771D01*
X200220057Y-186314342D01*
X200291485Y-186242914D01*
X200291485Y-186385771D01*
X201005771Y-186385771D02*
X201005771Y-184885771D01*
X201148628Y-185814342D02*
X201577200Y-186385771D01*
X201577200Y-185385771D02*
X201005771Y-185957200D01*
X202220057Y-186385771D02*
X202220057Y-185385771D01*
X202220057Y-184885771D02*
X202148628Y-184957200D01*
X202220057Y-185028628D01*
X202291485Y-184957200D01*
X202220057Y-184885771D01*
X202220057Y-185028628D01*
X203577200Y-186314342D02*
X203434342Y-186385771D01*
X203148628Y-186385771D01*
X203005771Y-186314342D01*
X202934342Y-186242914D01*
X202862914Y-186100057D01*
X202862914Y-185671485D01*
X202934342Y-185528628D01*
X203005771Y-185457200D01*
X203148628Y-185385771D01*
X203434342Y-185385771D01*
X203577200Y-185457200D01*
X204862914Y-186385771D02*
X204862914Y-185600057D01*
X204791485Y-185457200D01*
X204648628Y-185385771D01*
X204362914Y-185385771D01*
X204220057Y-185457200D01*
X204862914Y-186314342D02*
X204720057Y-186385771D01*
X204362914Y-186385771D01*
X204220057Y-186314342D01*
X204148628Y-186171485D01*
X204148628Y-186028628D01*
X204220057Y-185885771D01*
X204362914Y-185814342D01*
X204720057Y-185814342D01*
X204862914Y-185742914D01*
X206220057Y-186385771D02*
X206220057Y-184885771D01*
X206220057Y-186314342D02*
X206077200Y-186385771D01*
X205791485Y-186385771D01*
X205648628Y-186314342D01*
X205577200Y-186242914D01*
X205505771Y-186100057D01*
X205505771Y-185671485D01*
X205577200Y-185528628D01*
X205648628Y-185457200D01*
X205791485Y-185385771D01*
X206077200Y-185385771D01*
X206220057Y-185457200D01*
X206577200Y-186528628D02*
X207720057Y-186528628D01*
X208077200Y-185385771D02*
X208077200Y-186885771D01*
X208077200Y-185457200D02*
X208220057Y-185385771D01*
X208505771Y-185385771D01*
X208648628Y-185457200D01*
X208720057Y-185528628D01*
X208791485Y-185671485D01*
X208791485Y-186100057D01*
X208720057Y-186242914D01*
X208648628Y-186314342D01*
X208505771Y-186385771D01*
X208220057Y-186385771D01*
X208077200Y-186314342D01*
X210077200Y-186314342D02*
X209934342Y-186385771D01*
X209648628Y-186385771D01*
X209505771Y-186314342D01*
X209434342Y-186242914D01*
X209362914Y-186100057D01*
X209362914Y-185671485D01*
X209434342Y-185528628D01*
X209505771Y-185457200D01*
X209648628Y-185385771D01*
X209934342Y-185385771D01*
X210077200Y-185457200D01*
X210720057Y-186385771D02*
X210720057Y-184885771D01*
X210720057Y-185457200D02*
X210862914Y-185385771D01*
X211148628Y-185385771D01*
X211291485Y-185457200D01*
X211362914Y-185528628D01*
X211434342Y-185671485D01*
X211434342Y-186100057D01*
X211362914Y-186242914D01*
X211291485Y-186314342D01*
X211148628Y-186385771D01*
X210862914Y-186385771D01*
X210720057Y-186314342D01*
D10*
D11*
X177002200Y-181507200D02*
X285002200Y-181507200D01*
D10*
D11*
X178362914Y-183614342D02*
X178577200Y-183685771D01*
X178934342Y-183685771D01*
X179077200Y-183614342D01*
X179148628Y-183542914D01*
X179220057Y-183400057D01*
X179220057Y-183257200D01*
X179148628Y-183114342D01*
X179077200Y-183042914D01*
X178934342Y-182971485D01*
X178648628Y-182900057D01*
X178505771Y-182828628D01*
X178434342Y-182757200D01*
X178362914Y-182614342D01*
X178362914Y-182471485D01*
X178434342Y-182328628D01*
X178505771Y-182257200D01*
X178648628Y-182185771D01*
X179005771Y-182185771D01*
X179220057Y-182257200D01*
X179862914Y-183685771D02*
X179862914Y-182185771D01*
X180505771Y-183685771D02*
X180505771Y-182900057D01*
X180434342Y-182757200D01*
X180291485Y-182685771D01*
X180077200Y-182685771D01*
X179934342Y-182757200D01*
X179862914Y-182828628D01*
X181791485Y-183614342D02*
X181648628Y-183685771D01*
X181362914Y-183685771D01*
X181220057Y-183614342D01*
X181148628Y-183471485D01*
X181148628Y-182900057D01*
X181220057Y-182757200D01*
X181362914Y-182685771D01*
X181648628Y-182685771D01*
X181791485Y-182757200D01*
X181862914Y-182900057D01*
X181862914Y-183042914D01*
X181148628Y-183185771D01*
X183077200Y-183614342D02*
X182934342Y-183685771D01*
X182648628Y-183685771D01*
X182505771Y-183614342D01*
X182434342Y-183471485D01*
X182434342Y-182900057D01*
X182505771Y-182757200D01*
X182648628Y-182685771D01*
X182934342Y-182685771D01*
X183077200Y-182757200D01*
X183148628Y-182900057D01*
X183148628Y-183042914D01*
X182434342Y-183185771D01*
X183577200Y-182685771D02*
X184148628Y-182685771D01*
X183791485Y-182185771D02*
X183791485Y-183471485D01*
X183862914Y-183614342D01*
X184005771Y-183685771D01*
X184148628Y-183685771D01*
X184648628Y-183542914D02*
X184720057Y-183614342D01*
X184648628Y-183685771D01*
X184577200Y-183614342D01*
X184648628Y-183542914D01*
X184648628Y-183685771D01*
X184648628Y-182757200D02*
X184720057Y-182828628D01*
X184648628Y-182900057D01*
X184577200Y-182828628D01*
X184648628Y-182757200D01*
X184648628Y-182900057D01*
D10*
D12*
X178554342Y-180685771D02*
X178554342Y-179185771D01*
X179197200Y-180685771D02*
X179197200Y-179900057D01*
X179125771Y-179757200D01*
X178982914Y-179685771D01*
X178768628Y-179685771D01*
X178625771Y-179757200D01*
X178554342Y-179828628D01*
X179697200Y-179685771D02*
X180268628Y-179685771D01*
X179911485Y-179185771D02*
X179911485Y-180471485D01*
X179982914Y-180614342D01*
X180125771Y-180685771D01*
X180268628Y-180685771D01*
X180554342Y-179685771D02*
X181125771Y-179685771D01*
X180768628Y-179185771D02*
X180768628Y-180471485D01*
X180840057Y-180614342D01*
X180982914Y-180685771D01*
X181125771Y-180685771D01*
X181625771Y-179685771D02*
X181625771Y-181185771D01*
X181625771Y-179757200D02*
X181768628Y-179685771D01*
X182054342Y-179685771D01*
X182197200Y-179757200D01*
X182268628Y-179828628D01*
X182340057Y-179971485D01*
X182340057Y-180400057D01*
X182268628Y-180542914D01*
X182197200Y-180614342D01*
X182054342Y-180685771D01*
X181768628Y-180685771D01*
X181625771Y-180614342D01*
X182911485Y-180614342D02*
X183054342Y-180685771D01*
X183340057Y-180685771D01*
X183482914Y-180614342D01*
X183554342Y-180471485D01*
X183554342Y-180400057D01*
X183482914Y-180257200D01*
X183340057Y-180185771D01*
X183125771Y-180185771D01*
X182982914Y-180114342D01*
X182911485Y-179971485D01*
X182911485Y-179900057D01*
X182982914Y-179757200D01*
X183125771Y-179685771D01*
X183340057Y-179685771D01*
X183482914Y-179757200D01*
X184197200Y-180542914D02*
X184268628Y-180614342D01*
X184197200Y-180685771D01*
X184125771Y-180614342D01*
X184197200Y-180542914D01*
X184197200Y-180685771D01*
X184197200Y-179757200D02*
X184268628Y-179828628D01*
X184197200Y-179900057D01*
X184125771Y-179828628D01*
X184197200Y-179757200D01*
X184197200Y-179900057D01*
X185982914Y-179114342D02*
X184697200Y-181042914D01*
X187554342Y-179114342D02*
X186268628Y-181042914D01*
X188697200Y-179685771D02*
X188697200Y-180900057D01*
X188625771Y-181042914D01*
X188554342Y-181114342D01*
X188411485Y-181185771D01*
X188197200Y-181185771D01*
X188054342Y-181114342D01*
X188697200Y-180614342D02*
X188554342Y-180685771D01*
X188268628Y-180685771D01*
X188125771Y-180614342D01*
X188054342Y-180542914D01*
X187982914Y-180400057D01*
X187982914Y-179971485D01*
X188054342Y-179828628D01*
X188125771Y-179757200D01*
X188268628Y-179685771D01*
X188554342Y-179685771D01*
X188697200Y-179757200D01*
X189411485Y-180685771D02*
X189411485Y-179685771D01*
X189411485Y-179185771D02*
X189340057Y-179257200D01*
X189411485Y-179328628D01*
X189482914Y-179257200D01*
X189411485Y-179185771D01*
X189411485Y-179328628D01*
X189911485Y-179685771D02*
X190482914Y-179685771D01*
X190125771Y-179185771D02*
X190125771Y-180471485D01*
X190197200Y-180614342D01*
X190340057Y-180685771D01*
X190482914Y-180685771D01*
X190982914Y-180685771D02*
X190982914Y-179185771D01*
X191625771Y-180685771D02*
X191625771Y-179900057D01*
X191554342Y-179757200D01*
X191411485Y-179685771D01*
X191197200Y-179685771D01*
X191054342Y-179757200D01*
X190982914Y-179828628D01*
X192982914Y-179685771D02*
X192982914Y-180685771D01*
X192340057Y-179685771D02*
X192340057Y-180471485D01*
X192411485Y-180614342D01*
X192554342Y-180685771D01*
X192768628Y-180685771D01*
X192911485Y-180614342D01*
X192982914Y-180542914D01*
X193697200Y-180685771D02*
X193697200Y-179185771D01*
X193697200Y-179757200D02*
X193840057Y-179685771D01*
X194125771Y-179685771D01*
X194268628Y-179757200D01*
X194340057Y-179828628D01*
X194411485Y-179971485D01*
X194411485Y-180400057D01*
X194340057Y-180542914D01*
X194268628Y-180614342D01*
X194125771Y-180685771D01*
X193840057Y-180685771D01*
X193697200Y-180614342D01*
X195054342Y-180542914D02*
X195125771Y-180614342D01*
X195054342Y-180685771D01*
X194982914Y-180614342D01*
X195054342Y-180542914D01*
X195054342Y-180685771D01*
X196411485Y-180614342D02*
X196268628Y-180685771D01*
X195982914Y-180685771D01*
X195840057Y-180614342D01*
X195768628Y-180542914D01*
X195697200Y-180400057D01*
X195697200Y-179971485D01*
X195768628Y-179828628D01*
X195840057Y-179757200D01*
X195982914Y-179685771D01*
X196268628Y-179685771D01*
X196411485Y-179757200D01*
X197268628Y-180685771D02*
X197125771Y-180614342D01*
X197054342Y-180542914D01*
X196982914Y-180400057D01*
X196982914Y-179971485D01*
X197054342Y-179828628D01*
X197125771Y-179757200D01*
X197268628Y-179685771D01*
X197482914Y-179685771D01*
X197625771Y-179757200D01*
X197697200Y-179828628D01*
X197768628Y-179971485D01*
X197768628Y-180400057D01*
X197697200Y-180542914D01*
X197625771Y-180614342D01*
X197482914Y-180685771D01*
X197268628Y-180685771D01*
X198411485Y-180685771D02*
X198411485Y-179685771D01*
X198411485Y-179828628D02*
X198482914Y-179757200D01*
X198625771Y-179685771D01*
X198840057Y-179685771D01*
X198982914Y-179757200D01*
X199054342Y-179900057D01*
X199054342Y-180685771D01*
X199054342Y-179900057D02*
X199125771Y-179757200D01*
X199268628Y-179685771D01*
X199482914Y-179685771D01*
X199625771Y-179757200D01*
X199697200Y-179900057D01*
X199697200Y-180685771D01*
X201482914Y-179114342D02*
X200197200Y-181042914D01*
X201982914Y-180685771D02*
X201982914Y-179185771D01*
X202482914Y-180257200D01*
X202982914Y-179185771D01*
X202982914Y-180685771D01*
X203697200Y-180685771D02*
X203697200Y-179685771D01*
X203697200Y-179185771D02*
X203625771Y-179257200D01*
X203697200Y-179328628D01*
X203768628Y-179257200D01*
X203697200Y-179185771D01*
X203697200Y-179328628D01*
X204340057Y-180614342D02*
X204482914Y-180685771D01*
X204768628Y-180685771D01*
X204911485Y-180614342D01*
X204982914Y-180471485D01*
X204982914Y-180400057D01*
X204911485Y-180257200D01*
X204768628Y-180185771D01*
X204554342Y-180185771D01*
X204411485Y-180114342D01*
X204340057Y-179971485D01*
X204340057Y-179900057D01*
X204411485Y-179757200D01*
X204554342Y-179685771D01*
X204768628Y-179685771D01*
X204911485Y-179757200D01*
X205411485Y-179685771D02*
X205982914Y-179685771D01*
X205625771Y-179185771D02*
X205625771Y-180471485D01*
X205697200Y-180614342D01*
X205840057Y-180685771D01*
X205982914Y-180685771D01*
X207054342Y-180614342D02*
X206911485Y-180685771D01*
X206625771Y-180685771D01*
X206482914Y-180614342D01*
X206411485Y-180471485D01*
X206411485Y-179900057D01*
X206482914Y-179757200D01*
X206625771Y-179685771D01*
X206911485Y-179685771D01*
X207054342Y-179757200D01*
X207125771Y-179900057D01*
X207125771Y-180042914D01*
X206411485Y-180185771D01*
X207768628Y-180685771D02*
X207768628Y-179685771D01*
X207768628Y-179971485D02*
X207840057Y-179828628D01*
X207911485Y-179757200D01*
X208054342Y-179685771D01*
X208197200Y-179685771D01*
X208697200Y-180685771D02*
X208697200Y-179185771D01*
X208697200Y-179900057D02*
X209554342Y-179900057D01*
X209554342Y-180685771D02*
X209554342Y-179185771D01*
X210125771Y-179185771D02*
X210482914Y-180685771D01*
X210768628Y-179614342D01*
X211054342Y-180685771D01*
X211411485Y-179185771D01*
D10*
D11*
D10*
D11*
D10*
D11*
D10*
D11*
D10*
D11*
X197002200Y-191507200D02*
X197002200Y-194507200D01*
D10*
D11*
X261002200Y-191507200D02*
X261002200Y-198007200D01*
D14*
X105230000Y-93045000D03*
X105230000Y-94620000D03*
D15*
X103200000Y-97660000D03*
X103200000Y-100460000D03*
D16*
X109725000Y-96030000D03*
X108150000Y-96030000D03*
D17*
X106640000Y-100460000D03*
X106640000Y-97660000D03*
D18*
X115375000Y-99575000D03*
X112575000Y-99575000D03*
D15*
X109950000Y-97650000D03*
X109950000Y-100450000D03*
D19*
X117125000Y-99575000D03*
X119925000Y-99575000D03*
D20*
X102280000Y-94620000D03*
X102280000Y-93045000D03*
X103750000Y-94620000D03*
X103750000Y-93045000D03*
D16*
X103820000Y-96030000D03*
X102245000Y-96030000D03*
D21*
X109090000Y-91500000D03*
D22*
X108590000Y-91450000D03*
X108090000Y-91450000D03*
X107590000Y-91450000D03*
D23*
X106890000Y-92150000D03*
D24*
X107140000Y-92650000D03*
X107140000Y-93150000D03*
D23*
X106890000Y-93650000D03*
D22*
X107590000Y-94350000D03*
X108090000Y-94350000D03*
X108590000Y-94350000D03*
X109090000Y-94350000D03*
D23*
X109790000Y-93650000D03*
D24*
X109540000Y-93150000D03*
X109540000Y-92650000D03*
D23*
X109790000Y-92150000D03*
D16*
X109607500Y-89930000D03*
X108032500Y-89930000D03*
D25*
X119350000Y-93300000D03*
X113350000Y-93300000D03*
D26*
X116350000Y-90247000D03*
D27*
X116350000Y-96353000D03*
D14*
X111100000Y-94425000D03*
X111100000Y-96000000D03*
D18*
X105200000Y-90100000D03*
X102400000Y-90100000D03*
D20*
X111150000Y-92175000D03*
X111150000Y-90600000D03*
D28*
X100000000Y-100000000D03*
D29*
X97460000Y-100000000D03*
X100000000Y-97460000D03*
X97460000Y-97460000D03*
X100000000Y-94920000D03*
X97460000Y-94920000D03*
X100000000Y-92380000D03*
X97460000Y-92380000D03*
X100000000Y-89840000D03*
X97460000Y-89840000D03*
D16*
X106797500Y-96030000D03*
X105222500Y-96030000D03*
D30*
X108350000Y-92700000D03*
D31*
X103550000Y-100225000D03*
X102850000Y-100225000D03*
X102175000Y-100225000D03*
X103850000Y-89075000D03*
X118150000Y-89275000D03*
X114550000Y-96550000D03*
X114550000Y-95875000D03*
D30*
X108350000Y-95125000D03*
D31*
X112800000Y-99300000D03*
X110175000Y-100225000D03*
X119700000Y-99925000D03*
X119700000Y-98550000D03*
X110850000Y-100225000D03*
X118150000Y-89950000D03*
X105625000Y-97900000D03*
X112800000Y-100675000D03*
D30*
X108350000Y-93300000D03*
D31*
X112800000Y-98625000D03*
X112800000Y-100000000D03*
X119700000Y-99225000D03*
X114550000Y-89275000D03*
X103850000Y-90450000D03*
X107675000Y-97900000D03*
X104225000Y-100225000D03*
X118150000Y-95875000D03*
X114550000Y-89950000D03*
X109475000Y-100225000D03*
X108800000Y-100225000D03*
X103850000Y-91107470D03*
X103850000Y-89750000D03*
X118150000Y-96550000D03*
D32*
X108700000Y-90600000D03*
D31*
X107000000Y-97900000D03*
X106300000Y-97900000D03*
X119700000Y-100600000D03*
D32*
X104500000Y-93825000D03*
D31*
X104900000Y-89100000D03*
X105600000Y-89100000D03*
X105600000Y-91100000D03*
D30*
X109800000Y-91000000D03*
D31*
X104900000Y-91100000D03*
X110975000Y-97875000D03*
X108925000Y-97875000D03*
X109600000Y-97875000D03*
X110300000Y-97875000D03*
X115100000Y-98600000D03*
D30*
X109475000Y-95100000D03*
D31*
X115100000Y-99900000D03*
X115100000Y-99250000D03*
X115100000Y-100550000D03*
D32*
X106900000Y-90800000D03*
X101200000Y-93800000D03*
X106456232Y-91465649D03*
X105990000Y-95360000D03*
X106949998Y-94350000D03*
D33*
X107675000Y-97900000D02*
X107040000Y-97660000D01*
X106275000Y-97900000D02*
X106640000Y-97660000D01*
X107025000Y-97900000D02*
X106275000Y-97900000D01*
X103850000Y-89725000D02*
X103850000Y-90475000D01*
D34*
X106797500Y-95187500D02*
X106797500Y-95227500D01*
D33*
X107180000Y-97320000D02*
X106980000Y-97320000D01*
D35*
X106940000Y-97660000D02*
X106640000Y-97660000D01*
D34*
X102280000Y-93045000D02*
X102280000Y-93150000D01*
D36*
X105230000Y-94620000D02*
X105430000Y-94620000D01*
D34*
X108590000Y-94350000D02*
X108590000Y-95590000D01*
X106925000Y-95100000D02*
X106797500Y-95227500D01*
X108052500Y-89950000D02*
X108032500Y-89930000D01*
X102280000Y-93150000D02*
X103750000Y-94620000D01*
D35*
X108150000Y-96030000D02*
X108150000Y-96450000D01*
D34*
X108590000Y-95590000D02*
X108150000Y-96030000D01*
D35*
X108150000Y-96450000D02*
X106940000Y-97660000D01*
D34*
X106230000Y-94620000D02*
X106797500Y-95187500D01*
X105330000Y-94620000D02*
X105550000Y-94400000D01*
D33*
X107040000Y-97660000D02*
X107025000Y-97900000D01*
D34*
X108090000Y-95000000D02*
X107990000Y-95100000D01*
X108310000Y-93590000D02*
X108590000Y-93590000D01*
X103750000Y-94620000D02*
X105230000Y-94620000D01*
X105230000Y-94620000D02*
X105330000Y-94620000D01*
X107990000Y-95100000D02*
X106925000Y-95100000D01*
X106797500Y-95227500D02*
X106797500Y-96030000D01*
X108500000Y-89950000D02*
X108052500Y-89950000D01*
X105230000Y-94620000D02*
X106230000Y-94620000D01*
X108090000Y-94350000D02*
X108090000Y-95000000D01*
X108590000Y-91450000D02*
X108590000Y-90040000D01*
D37*
X97460000Y-94920000D02*
X100000000Y-94920000D01*
D34*
X108090000Y-93810000D02*
X108310000Y-93590000D01*
X108090000Y-94350000D02*
X108090000Y-93810000D01*
X108590000Y-90040000D02*
X108500000Y-89950000D01*
D36*
X106890000Y-93650000D02*
X106650000Y-93650000D01*
X106650000Y-93650000D02*
X106475000Y-93825000D01*
X106475000Y-93825000D02*
X104500000Y-93825000D01*
X107140000Y-92650000D02*
X106088585Y-92650000D01*
X98740000Y-93060000D02*
X98740000Y-91100000D01*
X99330000Y-93650000D02*
X98740000Y-93060000D01*
X106088585Y-92650000D02*
X105721076Y-92282491D01*
X99150001Y-90689999D02*
X100000000Y-89840000D01*
X101787509Y-92282491D02*
X100420000Y-93650000D01*
X100420000Y-93650000D02*
X99330000Y-93650000D01*
X98740000Y-91100000D02*
X99150001Y-90689999D01*
X105721076Y-92282491D02*
X101787509Y-92282491D01*
X106224996Y-92150000D02*
X105907476Y-91832480D01*
X100547520Y-91832480D02*
X100000000Y-92380000D01*
X105907476Y-91832480D02*
X100547520Y-91832480D01*
X106890000Y-92150000D02*
X106224996Y-92150000D01*
X103820000Y-97040000D02*
X103200000Y-97660000D01*
D38*
X100000000Y-97460000D02*
X100000000Y-97500000D01*
D39*
X97460000Y-97460000D02*
X100000000Y-97460000D01*
D38*
X103200000Y-97660000D02*
X100200000Y-97660000D01*
X100200000Y-97660000D02*
X100000000Y-97460000D01*
D36*
X103820000Y-96030000D02*
X103820000Y-97040000D01*
D33*
X110325000Y-97875000D02*
X109575000Y-97875000D01*
D34*
X109475000Y-95150000D02*
X109500000Y-96000000D01*
D33*
X109725000Y-97555000D02*
X109820000Y-97650000D01*
D34*
X109500000Y-96000000D02*
X109530000Y-96030000D01*
X109090000Y-94350000D02*
X109500000Y-94760000D01*
X109500000Y-94760000D02*
X109475000Y-95150000D01*
X109530000Y-96030000D02*
X109725000Y-96030000D01*
D33*
X109725000Y-96030000D02*
X109725000Y-97555000D01*
D39*
X97460000Y-100000000D02*
X100000000Y-100000000D01*
D36*
X102245000Y-96030000D02*
X102179999Y-96095001D01*
X106950000Y-90750010D02*
X106900010Y-90800000D01*
X108090000Y-90990000D02*
X107850010Y-90750010D01*
X102280000Y-94620000D02*
X101460000Y-93800000D01*
X106900010Y-90800000D02*
X106900000Y-90800000D01*
D34*
X102280000Y-94620000D02*
X102280000Y-95995000D01*
X102280000Y-95995000D02*
X102245000Y-96030000D01*
D36*
X108090000Y-91450000D02*
X108090000Y-90990000D01*
X107850010Y-90750010D02*
X106950000Y-90750010D01*
X101460000Y-93800000D02*
X101200000Y-93800000D01*
X107590000Y-91450000D02*
X106471881Y-91450000D01*
X106471881Y-91450000D02*
X106456232Y-91465649D01*
D34*
X107550000Y-94350000D02*
X106949998Y-94350000D01*
D36*
X105222500Y-96030000D02*
X105320000Y-96030000D01*
X105320000Y-96030000D02*
X105990000Y-95360000D01*
D34*
X105222500Y-96030000D02*
X105270000Y-96030000D01*
X110675000Y-92650000D02*
X111150000Y-92175000D01*
X109540000Y-92650000D02*
X110675000Y-92650000D01*
X113050000Y-93150000D02*
X113200000Y-93300000D01*
X109540000Y-93150000D02*
X113200000Y-93150000D01*
X111100000Y-94425000D02*
X112225000Y-94425000D01*
X113200000Y-93150000D02*
X113350000Y-93300000D01*
X112225000Y-94425000D02*
X113350000Y-93300000D01*
X111150000Y-90750000D02*
X110000000Y-91900000D01*
X111150000Y-90600000D02*
X111150000Y-90750000D01*
X110000000Y-91900000D02*
X110000000Y-92100000D01*
X111100000Y-95940000D02*
X110200000Y-95040000D01*
X110200000Y-94050000D02*
X109900000Y-93750000D01*
X111100000Y-96000000D02*
X111100000Y-95940000D01*
X110200000Y-95040000D02*
X110200000Y-94050000D01*
X105335000Y-93150000D02*
X105230000Y-93045000D01*
X105230000Y-93045000D02*
X103750000Y-93045000D01*
X107140000Y-93150000D02*
X105335000Y-93150000D01*
G04 #@! TA.AperFunction,Conductor*
G36*
X113966403Y-90270002D02*
G01*
X114008696Y-90315298D01*
X114015870Y-90328347D01*
X114019689Y-90335293D01*
X114025113Y-90341069D01*
X114034832Y-90351418D01*
X114132169Y-90455071D01*
X114270902Y-90543114D01*
X114278441Y-90545563D01*
X114278444Y-90545565D01*
X114419634Y-90591440D01*
X114419636Y-90591440D01*
X114427172Y-90593889D01*
X114435081Y-90594387D01*
X114435083Y-90594387D01*
X114479060Y-90597154D01*
X114504209Y-90598736D01*
X114585392Y-90635392D01*
X114886812Y-90936812D01*
X114920053Y-90997023D01*
X114920533Y-91001303D01*
X114922851Y-91007958D01*
X114922851Y-91007960D01*
X114977120Y-91163799D01*
X114981111Y-91175260D01*
X114984847Y-91181239D01*
X115038736Y-91267480D01*
X115078723Y-91331473D01*
X115083684Y-91336469D01*
X115083685Y-91336470D01*
X115203556Y-91457181D01*
X115203560Y-91457184D01*
X115208519Y-91462178D01*
X115214465Y-91465952D01*
X115214467Y-91465953D01*
X115358092Y-91557101D01*
X115358096Y-91557103D01*
X115364046Y-91560879D01*
X115370689Y-91563244D01*
X115370688Y-91563244D01*
X115530941Y-91620308D01*
X115530943Y-91620309D01*
X115537575Y-91622670D01*
X115544561Y-91623503D01*
X115544565Y-91623504D01*
X115649000Y-91635956D01*
X115720482Y-91644480D01*
X115724101Y-91644493D01*
X115724108Y-91644493D01*
X115725043Y-91644496D01*
X115726250Y-91644500D01*
X116973749Y-91644500D01*
X117156803Y-91623967D01*
X117167311Y-91620308D01*
X117315991Y-91568532D01*
X117330760Y-91563389D01*
X117401564Y-91519146D01*
X117468334Y-91500000D01*
X119234000Y-91500000D01*
X119302121Y-91520002D01*
X119348614Y-91573658D01*
X119360000Y-91626000D01*
X119360000Y-94934000D01*
X119339998Y-95002121D01*
X119286342Y-95048614D01*
X119234000Y-95060000D01*
X117421936Y-95060000D01*
X117361644Y-95042484D01*
X117361065Y-95043672D01*
X117354741Y-95040588D01*
X117348787Y-95036809D01*
X117318963Y-95026189D01*
X117186692Y-94979089D01*
X117186687Y-94979088D01*
X117180057Y-94976727D01*
X117173071Y-94975894D01*
X117173067Y-94975893D01*
X117005807Y-94955949D01*
X117005806Y-94955949D01*
X117002209Y-94955520D01*
X116998581Y-94955507D01*
X116998580Y-94955507D01*
X116998344Y-94955506D01*
X116996600Y-94955500D01*
X115703401Y-94955500D01*
X115525409Y-94975465D01*
X115518756Y-94977782D01*
X115518755Y-94977782D01*
X115449750Y-95001812D01*
X115356263Y-95034368D01*
X115345882Y-95040855D01*
X115279113Y-95060000D01*
X114767146Y-95060000D01*
X114699025Y-95039998D01*
X114652532Y-94986342D01*
X114642428Y-94916068D01*
X114662932Y-94863180D01*
X114704919Y-94801398D01*
X114707451Y-94795068D01*
X114707453Y-94795064D01*
X114770969Y-94636263D01*
X114770970Y-94636258D01*
X114773503Y-94629926D01*
X114774617Y-94623199D01*
X114774618Y-94623194D01*
X114802965Y-94451963D01*
X114802965Y-94451959D01*
X114803666Y-94447727D01*
X114804999Y-94400000D01*
X114805000Y-92200001D01*
X114785055Y-92016402D01*
X114726150Y-91841369D01*
X114631033Y-91683069D01*
X114504143Y-91548886D01*
X114498500Y-91545051D01*
X114357040Y-91448915D01*
X114357038Y-91448914D01*
X114351398Y-91445081D01*
X114345069Y-91442549D01*
X114345066Y-91442548D01*
X114186267Y-91379032D01*
X114186265Y-91379031D01*
X114179926Y-91376496D01*
X114063899Y-91357288D01*
X114001963Y-91347034D01*
X114001959Y-91347034D01*
X113997727Y-91346333D01*
X113993440Y-91346213D01*
X113993437Y-91346213D01*
X113971490Y-91345600D01*
X113950000Y-91345000D01*
X112750001Y-91345000D01*
X112566402Y-91364945D01*
X112391369Y-91423850D01*
X112385519Y-91427365D01*
X112385517Y-91427366D01*
X112356035Y-91445081D01*
X112233069Y-91518967D01*
X112098886Y-91645857D01*
X111995081Y-91798602D01*
X111992549Y-91804932D01*
X111992547Y-91804936D01*
X111929031Y-91963737D01*
X111929030Y-91963742D01*
X111926497Y-91970074D01*
X111925383Y-91976801D01*
X111925382Y-91976806D01*
X111898356Y-92140057D01*
X111896334Y-92152273D01*
X111895001Y-92200000D01*
X111895001Y-92623500D01*
X111874999Y-92691621D01*
X111821343Y-92738114D01*
X111769001Y-92749500D01*
X110591094Y-92749500D01*
X110522973Y-92729498D01*
X110476480Y-92675842D01*
X110465100Y-92624647D01*
X110459976Y-92059754D01*
X110496875Y-91969517D01*
X110759413Y-91706980D01*
X111136989Y-91329404D01*
X111226084Y-91292500D01*
X111406249Y-91292500D01*
X111410896Y-91291801D01*
X111410901Y-91291801D01*
X111536240Y-91272957D01*
X111536241Y-91272957D01*
X111545551Y-91271557D01*
X111672536Y-91210579D01*
X111754606Y-91134716D01*
X111769063Y-91121352D01*
X111775979Y-91114959D01*
X111846732Y-90993149D01*
X111878540Y-90855920D01*
X111879912Y-90820984D01*
X111916720Y-90736834D01*
X112039872Y-90613682D01*
X112046889Y-90603180D01*
X112090630Y-90537717D01*
X112090632Y-90537714D01*
X112094064Y-90532577D01*
X112130969Y-90443482D01*
X112149282Y-90351417D01*
X112182190Y-90288509D01*
X112272861Y-90250000D01*
X113898282Y-90250000D01*
X113966403Y-90270002D01*
G37*
G04 #@! TD.AperFunction*
G04 #@! TA.AperFunction,Conductor*
G36*
X111842121Y-88920002D02*
G01*
X111888614Y-88973658D01*
X111900000Y-89026000D01*
X111900000Y-90347810D01*
X111863095Y-90436905D01*
X111336905Y-90963095D01*
X111247810Y-91000000D01*
X110796459Y-91000000D01*
X110728338Y-90979998D01*
X110681845Y-90926342D01*
X110671917Y-90872324D01*
X110670623Y-90872332D01*
X110670325Y-90825952D01*
X110670591Y-90823406D01*
X110670700Y-90823406D01*
X110670700Y-90823404D01*
X110670525Y-90821061D01*
X110670437Y-90818716D01*
X110670461Y-90818715D01*
X110670245Y-90813389D01*
X110670178Y-90802827D01*
X110670178Y-90802815D01*
X110670167Y-90801176D01*
X110670095Y-90800696D01*
X110670000Y-90798263D01*
X110670000Y-90388619D01*
X110670097Y-90383677D01*
X110670337Y-90377563D01*
X110670345Y-90377472D01*
X110670374Y-90376638D01*
X110670386Y-90376324D01*
X110670571Y-90371600D01*
X110670579Y-90371559D01*
X110671125Y-90367495D01*
X110671282Y-90366582D01*
X110671345Y-90365852D01*
X110671353Y-90365792D01*
X110671417Y-90365801D01*
X110672272Y-90360837D01*
X110671330Y-90360729D01*
X110673380Y-90342808D01*
X110673938Y-90333023D01*
X110674899Y-90316176D01*
X110674899Y-90316159D01*
X110675000Y-90314396D01*
X110675000Y-89026000D01*
X110695002Y-88957879D01*
X110748658Y-88911386D01*
X110801000Y-88900000D01*
X111774000Y-88900000D01*
X111842121Y-88920002D01*
G37*
G04 #@! TD.AperFunction*
G04 #@! TA.AperFunction,Conductor*
G36*
X99975186Y-89643066D02*
G01*
X100042093Y-89666816D01*
X100085538Y-89722968D01*
X100094054Y-89774865D01*
X100054107Y-90613761D01*
X100030888Y-90680853D01*
X99968096Y-90727301D01*
X98899512Y-91083496D01*
X98803318Y-91076659D01*
X98778186Y-91064093D01*
X98753055Y-91051527D01*
X98701072Y-91003171D01*
X98683484Y-90934388D01*
X98692131Y-90892758D01*
X99166691Y-89684787D01*
X99210217Y-89628697D01*
X99290955Y-89605053D01*
X99975186Y-89643066D01*
G37*
G04 #@! TD.AperFunction*
G04 #@! TA.AperFunction,Conductor*
G36*
X113328484Y-96336535D02*
G01*
X114098329Y-97100000D01*
X114300000Y-97300000D01*
X114854375Y-97300000D01*
X114922496Y-97320002D01*
X114962379Y-97361106D01*
X115023641Y-97463065D01*
X115150294Y-97596997D01*
X115155939Y-97600833D01*
X115155941Y-97600835D01*
X115297111Y-97696773D01*
X115302753Y-97700607D01*
X115309082Y-97703139D01*
X115309085Y-97703140D01*
X115467563Y-97766527D01*
X115467565Y-97766528D01*
X115473904Y-97769063D01*
X115569246Y-97784847D01*
X115651525Y-97798468D01*
X115651531Y-97798469D01*
X115655762Y-97799169D01*
X115660051Y-97799289D01*
X115660053Y-97799289D01*
X115673198Y-97799656D01*
X115703400Y-97800500D01*
X116996599Y-97800500D01*
X117007747Y-97799289D01*
X117047545Y-97794965D01*
X117179854Y-97780592D01*
X117354559Y-97721797D01*
X117360406Y-97718284D01*
X117360410Y-97718282D01*
X117449062Y-97665015D01*
X117512565Y-97626859D01*
X117646497Y-97500206D01*
X117745057Y-97355178D01*
X117799889Y-97310079D01*
X117849269Y-97300000D01*
X117875238Y-97300000D01*
X117943359Y-97320002D01*
X117989852Y-97373658D01*
X118001232Y-97424756D01*
X118012839Y-98599939D01*
X118036320Y-100977348D01*
X118037262Y-101072756D01*
X118017934Y-101141071D01*
X117964740Y-101188091D01*
X117911268Y-101200000D01*
X113528475Y-101200000D01*
X113460354Y-101179998D01*
X113413861Y-101126342D01*
X113403757Y-101056068D01*
X113416921Y-101016704D01*
X113418234Y-101014877D01*
X113434667Y-100974000D01*
X113478626Y-100864650D01*
X113478627Y-100864648D01*
X113481461Y-100857597D01*
X113505345Y-100689775D01*
X113505500Y-100675000D01*
X113505005Y-100670907D01*
X113504778Y-100666785D01*
X113505166Y-100666764D01*
X113504695Y-100652894D01*
X113504999Y-100650000D01*
X113504999Y-100020550D01*
X113505173Y-100015984D01*
X113505345Y-100014775D01*
X113505500Y-100000000D01*
X113505124Y-99996898D01*
X113504999Y-99992352D01*
X113505000Y-99320545D01*
X113505173Y-99315986D01*
X113505345Y-99314775D01*
X113505500Y-99300000D01*
X113505125Y-99296898D01*
X113505000Y-99292352D01*
X113505000Y-98645542D01*
X113505173Y-98640982D01*
X113505345Y-98639775D01*
X113505500Y-98625000D01*
X113505125Y-98621899D01*
X113505000Y-98617356D01*
X113505000Y-98500000D01*
X113503773Y-98491038D01*
X113487380Y-98371372D01*
X113484555Y-98350749D01*
X113437872Y-98242871D01*
X113428138Y-98220376D01*
X113428136Y-98220373D01*
X113424727Y-98212495D01*
X113329924Y-98095422D01*
X113311878Y-98082597D01*
X113214131Y-98013133D01*
X113207129Y-98008157D01*
X113065391Y-97957128D01*
X113031917Y-97953610D01*
X112989469Y-97949148D01*
X112971945Y-97946042D01*
X112895793Y-97926914D01*
X112895791Y-97926914D01*
X112888423Y-97925063D01*
X112880825Y-97925023D01*
X112880823Y-97925023D01*
X112807792Y-97924641D01*
X112718912Y-97924176D01*
X112711533Y-97925948D01*
X112711529Y-97925948D01*
X112646673Y-97941519D01*
X112617259Y-97945000D01*
X112200001Y-97945000D01*
X112195756Y-97945582D01*
X112195749Y-97945582D01*
X112117261Y-97956334D01*
X112050750Y-97965445D01*
X112042866Y-97968857D01*
X112042865Y-97968857D01*
X111920377Y-98021862D01*
X111920374Y-98021864D01*
X111912496Y-98025273D01*
X111905824Y-98030676D01*
X111905822Y-98030677D01*
X111825868Y-98095422D01*
X111795423Y-98120076D01*
X111708158Y-98242871D01*
X111657129Y-98384609D01*
X111645001Y-98500000D01*
X111645001Y-99178545D01*
X111608096Y-99267640D01*
X111346354Y-99529382D01*
X111284042Y-99563408D01*
X111214578Y-99558838D01*
X111188996Y-99549628D01*
X111140391Y-99532129D01*
X111025000Y-99520001D01*
X110091821Y-99520001D01*
X108879291Y-99520000D01*
X108875001Y-99520000D01*
X108870746Y-99520583D01*
X108870744Y-99520583D01*
X108848730Y-99523598D01*
X108830973Y-99524762D01*
X108773196Y-99524460D01*
X108718912Y-99524176D01*
X108711533Y-99525948D01*
X108711529Y-99525948D01*
X108561461Y-99561976D01*
X108561457Y-99561977D01*
X108554082Y-99563748D01*
X108403450Y-99641495D01*
X108275711Y-99752928D01*
X108178240Y-99891615D01*
X108116665Y-100049549D01*
X108115674Y-100057078D01*
X108101883Y-100161830D01*
X108081726Y-100215386D01*
X108063183Y-100243137D01*
X108063180Y-100243143D01*
X108059742Y-100248288D01*
X108022837Y-100337383D01*
X108021630Y-100343450D01*
X108021629Y-100343454D01*
X108010367Y-100400071D01*
X108000000Y-100452190D01*
X108000000Y-100974000D01*
X108006856Y-101037768D01*
X108007573Y-101041064D01*
X108008912Y-101047223D01*
X108003843Y-101118039D01*
X107961294Y-101174872D01*
X107885790Y-101200000D01*
X104907287Y-101200000D01*
X104839166Y-101179998D01*
X104792673Y-101126342D01*
X104788736Y-101031319D01*
X104815299Y-100957539D01*
X104815300Y-100957536D01*
X104817872Y-100950391D01*
X104830000Y-100835000D01*
X104830000Y-100619406D01*
X104843930Y-100565157D01*
X104843234Y-100564877D01*
X104845358Y-100559593D01*
X104886047Y-100458377D01*
X104903626Y-100414650D01*
X104903627Y-100414648D01*
X104906461Y-100407597D01*
X104928320Y-100254006D01*
X104929764Y-100243859D01*
X104929764Y-100243856D01*
X104930345Y-100239775D01*
X104930500Y-100225000D01*
X104926381Y-100190960D01*
X104911048Y-100064258D01*
X104911048Y-100064257D01*
X104910135Y-100056715D01*
X104907427Y-100049549D01*
X104852902Y-99905250D01*
X104852901Y-99905248D01*
X104850217Y-99898145D01*
X104845918Y-99891890D01*
X104845916Y-99891886D01*
X104758505Y-99764703D01*
X104758504Y-99764701D01*
X104754203Y-99758444D01*
X104627638Y-99645679D01*
X104620922Y-99642123D01*
X104620919Y-99642121D01*
X104550200Y-99604677D01*
X104542105Y-99599688D01*
X104539129Y-99598132D01*
X104532129Y-99593158D01*
X104524051Y-99590250D01*
X104519011Y-99587615D01*
X104512736Y-99584841D01*
X104477829Y-99566359D01*
X104433133Y-99555132D01*
X104417304Y-99551156D01*
X104405322Y-99547504D01*
X104397541Y-99544703D01*
X104397540Y-99544703D01*
X104390391Y-99542129D01*
X104382836Y-99541335D01*
X104381570Y-99541045D01*
X104366228Y-99538327D01*
X104313423Y-99525063D01*
X104305825Y-99525023D01*
X104305823Y-99525023D01*
X104232792Y-99524641D01*
X104143912Y-99524176D01*
X104136527Y-99525949D01*
X104134147Y-99526520D01*
X104104734Y-99530001D01*
X103673666Y-99530001D01*
X103653378Y-99527492D01*
X103653331Y-99527866D01*
X103645789Y-99526913D01*
X103638423Y-99525063D01*
X103630826Y-99525023D01*
X103630824Y-99525023D01*
X103553668Y-99524620D01*
X103468912Y-99524176D01*
X103459151Y-99526520D01*
X103429738Y-99530001D01*
X103206711Y-99530001D01*
X102973663Y-99530000D01*
X102953376Y-99527492D01*
X102953329Y-99527865D01*
X102945786Y-99526912D01*
X102938423Y-99525063D01*
X102930829Y-99525023D01*
X102930827Y-99525023D01*
X102854459Y-99524624D01*
X102768912Y-99524176D01*
X102761527Y-99525949D01*
X102761526Y-99525949D01*
X102759151Y-99526519D01*
X102729739Y-99530000D01*
X102298662Y-99530000D01*
X102278376Y-99527492D01*
X102278329Y-99527866D01*
X102270792Y-99526914D01*
X102263423Y-99525063D01*
X102255825Y-99525023D01*
X102255823Y-99525023D01*
X102182792Y-99524641D01*
X102093912Y-99524176D01*
X102086533Y-99525948D01*
X102086529Y-99525948D01*
X102002203Y-99546193D01*
X101989895Y-99548507D01*
X101975750Y-99550445D01*
X101967864Y-99553858D01*
X101959590Y-99556168D01*
X101959527Y-99555943D01*
X101954241Y-99557708D01*
X101936471Y-99561974D01*
X101936470Y-99561974D01*
X101929082Y-99563748D01*
X101922338Y-99567229D01*
X101922333Y-99567231D01*
X101850249Y-99604437D01*
X101846270Y-99606322D01*
X101845376Y-99606863D01*
X101837496Y-99610273D01*
X101837346Y-99609927D01*
X101834151Y-99610773D01*
X101834955Y-99612330D01*
X101778450Y-99641495D01*
X101650711Y-99752928D01*
X101553240Y-99891615D01*
X101491665Y-100049549D01*
X101490674Y-100057078D01*
X101473048Y-100190960D01*
X101469539Y-100217612D01*
X101488140Y-100386102D01*
X101546395Y-100545290D01*
X101550631Y-100551593D01*
X101554081Y-100558365D01*
X101551913Y-100559469D01*
X101570000Y-100618821D01*
X101570000Y-100834999D01*
X101570582Y-100839244D01*
X101570582Y-100839251D01*
X101582137Y-100923602D01*
X101590445Y-100984250D01*
X101607629Y-101023960D01*
X101616326Y-101094420D01*
X101585549Y-101158399D01*
X101491992Y-101200000D01*
X96426000Y-101200000D01*
X96357879Y-101179998D01*
X96311386Y-101126342D01*
X96300000Y-101074000D01*
X96300000Y-98556000D01*
X96320002Y-98487879D01*
X96373658Y-98441386D01*
X96426000Y-98430000D01*
X96539890Y-98430000D01*
X96619890Y-98459120D01*
X96620841Y-98460071D01*
X96625343Y-98463223D01*
X96625345Y-98463225D01*
X96802741Y-98587439D01*
X96807250Y-98590596D01*
X96812232Y-98592919D01*
X96812237Y-98592922D01*
X97008511Y-98684446D01*
X97013493Y-98686769D01*
X97018801Y-98688191D01*
X97018803Y-98688192D01*
X97086664Y-98706375D01*
X97233302Y-98745667D01*
X97312697Y-98752613D01*
X97400123Y-98760262D01*
X97400132Y-98760262D01*
X97402848Y-98760500D01*
X100057152Y-98760500D01*
X100059868Y-98760262D01*
X100059877Y-98760262D01*
X100147303Y-98752613D01*
X100226698Y-98745667D01*
X100373336Y-98706375D01*
X100441197Y-98688192D01*
X100441199Y-98688191D01*
X100446507Y-98686769D01*
X100451489Y-98684446D01*
X100647763Y-98592922D01*
X100647768Y-98592919D01*
X100652750Y-98590596D01*
X100669790Y-98578665D01*
X100806003Y-98483287D01*
X100878274Y-98460500D01*
X101734307Y-98460500D01*
X101807296Y-98483794D01*
X101867871Y-98526842D01*
X102009609Y-98577871D01*
X102125000Y-98589999D01*
X103058179Y-98589999D01*
X104270709Y-98590000D01*
X104274999Y-98590000D01*
X104279244Y-98589418D01*
X104279251Y-98589418D01*
X104363602Y-98577863D01*
X104424250Y-98569555D01*
X104445457Y-98560378D01*
X104554623Y-98513138D01*
X104554626Y-98513136D01*
X104562504Y-98509727D01*
X104569176Y-98504324D01*
X104569178Y-98504323D01*
X104626285Y-98458079D01*
X104705579Y-98430000D01*
X105118037Y-98430000D01*
X105202837Y-98462807D01*
X105216317Y-98475073D01*
X105222994Y-98478698D01*
X105222995Y-98478699D01*
X105288910Y-98514487D01*
X105300082Y-98521455D01*
X105300873Y-98521868D01*
X105307871Y-98526842D01*
X105315952Y-98529752D01*
X105322877Y-98533372D01*
X105327546Y-98535466D01*
X105358613Y-98552333D01*
X105365288Y-98555957D01*
X105529253Y-98598973D01*
X105617481Y-98600359D01*
X105691147Y-98601516D01*
X105691150Y-98601516D01*
X105698745Y-98601635D01*
X105706149Y-98599939D01*
X105706151Y-98599939D01*
X105735667Y-98593179D01*
X105763796Y-98589999D01*
X106153796Y-98589999D01*
X106185769Y-98594124D01*
X106204253Y-98598973D01*
X106287131Y-98600275D01*
X106366147Y-98601516D01*
X106366150Y-98601516D01*
X106373745Y-98601635D01*
X106406539Y-98594124D01*
X106410665Y-98593179D01*
X106438795Y-98589999D01*
X106632641Y-98589999D01*
X106853796Y-98590000D01*
X106885768Y-98594124D01*
X106895909Y-98596784D01*
X106904253Y-98598973D01*
X106990702Y-98600331D01*
X107066146Y-98601516D01*
X107066149Y-98601516D01*
X107073745Y-98601635D01*
X107081150Y-98599939D01*
X107081151Y-98599939D01*
X107110662Y-98593180D01*
X107138791Y-98590000D01*
X107528796Y-98590000D01*
X107560769Y-98594124D01*
X107579253Y-98598973D01*
X107667481Y-98600359D01*
X107741147Y-98601516D01*
X107741150Y-98601516D01*
X107748745Y-98601635D01*
X107810728Y-98587439D01*
X107906577Y-98565487D01*
X107906581Y-98565486D01*
X107913980Y-98563791D01*
X108065418Y-98487626D01*
X108194316Y-98377536D01*
X108293234Y-98239877D01*
X108296067Y-98232830D01*
X108353626Y-98089650D01*
X108353627Y-98089648D01*
X108356461Y-98082597D01*
X108373951Y-97959702D01*
X108379764Y-97918859D01*
X108379764Y-97918856D01*
X108380345Y-97914775D01*
X108380500Y-97900000D01*
X108373779Y-97844462D01*
X108385452Y-97774431D01*
X108409771Y-97740229D01*
X109013095Y-97136905D01*
X109102190Y-97100000D01*
X110150000Y-97100000D01*
X110150000Y-97094681D01*
X110162513Y-97091007D01*
X110196351Y-97069261D01*
X110233422Y-97064168D01*
X111074528Y-97074682D01*
X111074529Y-97074682D01*
X111100000Y-97075000D01*
X111338095Y-96836905D01*
X111427190Y-96800000D01*
X112497810Y-96800000D01*
X112557222Y-96788182D01*
X112606546Y-96778371D01*
X112606550Y-96778370D01*
X112612617Y-96777163D01*
X112701712Y-96740258D01*
X112711451Y-96733751D01*
X112774303Y-96691754D01*
X112799037Y-96675227D01*
X112975227Y-96499037D01*
X113040258Y-96401712D01*
X113042627Y-96395992D01*
X113042630Y-96395987D01*
X113050172Y-96377780D01*
X113094721Y-96322500D01*
X113166580Y-96300000D01*
X113239760Y-96300000D01*
X113328484Y-96336535D01*
G37*
G04 #@! TD.AperFunction*
G04 #@! TA.AperFunction,Conductor*
G36*
X113872121Y-93020002D02*
G01*
X113918614Y-93073658D01*
X113930000Y-93126000D01*
X113930000Y-94704000D01*
X113909998Y-94772121D01*
X113856342Y-94818614D01*
X113804000Y-94830000D01*
X110816000Y-94830000D01*
X110747879Y-94809998D01*
X110701386Y-94756342D01*
X110690000Y-94704000D01*
X110690000Y-93860000D01*
X110430573Y-93600573D01*
X110395000Y-93525360D01*
X110395000Y-93525000D01*
X110375589Y-93427416D01*
X110368697Y-93417101D01*
X110368696Y-93417099D01*
X110327205Y-93355004D01*
X110320312Y-93344688D01*
X110237584Y-93289411D01*
X110234633Y-93288824D01*
X110184421Y-93248360D01*
X110162000Y-93180997D01*
X110179558Y-93112206D01*
X110231521Y-93063827D01*
X110287920Y-93050500D01*
X110611522Y-93050500D01*
X110611552Y-93050502D01*
X110611567Y-93050507D01*
X110738433Y-93050507D01*
X110759357Y-93043708D01*
X110778574Y-93039095D01*
X110800306Y-93035653D01*
X110811401Y-93030000D01*
X110819910Y-93025665D01*
X110838170Y-93018101D01*
X110849660Y-93014367D01*
X110857764Y-93011734D01*
X110859090Y-93011303D01*
X110859230Y-93011734D01*
X110908108Y-93000000D01*
X113804000Y-93000000D01*
X113872121Y-93020002D01*
G37*
G04 #@! TD.AperFunction*
G04 #@! TA.AperFunction,Conductor*
G36*
X108667121Y-91170002D02*
G01*
X108713614Y-91223658D01*
X108725000Y-91276000D01*
X108725000Y-91546479D01*
X108723651Y-91563620D01*
X108723755Y-91563632D01*
X108723462Y-91566105D01*
X108723078Y-91568532D01*
X108720000Y-91607642D01*
X108720000Y-91762966D01*
X108717579Y-91787548D01*
X108717286Y-91789021D01*
X108707225Y-91839600D01*
X108706997Y-91841138D01*
X108706996Y-91841143D01*
X108703852Y-91862337D01*
X108703849Y-91862358D01*
X108703625Y-91863871D01*
X108701204Y-91888453D01*
X108700000Y-91912956D01*
X108700000Y-91924000D01*
X108700360Y-91927347D01*
X108700360Y-91927350D01*
X108703687Y-91958292D01*
X108705713Y-91977140D01*
X108706431Y-91980440D01*
X108706431Y-91980441D01*
X108715323Y-92021316D01*
X108717099Y-92029482D01*
X108718433Y-92032146D01*
X108725000Y-92070500D01*
X108725000Y-96372810D01*
X108688095Y-96461905D01*
X108411905Y-96738095D01*
X108322810Y-96775000D01*
X107576000Y-96775000D01*
X107507879Y-96754998D01*
X107461386Y-96701342D01*
X107450000Y-96649000D01*
X107450000Y-95031000D01*
X107470002Y-94962879D01*
X107523658Y-94916386D01*
X107576000Y-94905000D01*
X107715000Y-94905000D01*
X107793450Y-94889395D01*
X107859957Y-94844957D01*
X107880692Y-94813925D01*
X107895936Y-94791111D01*
X107928104Y-94767475D01*
X107943247Y-94750000D01*
X107950000Y-94750000D01*
X107950000Y-92176000D01*
X107970002Y-92107879D01*
X108023658Y-92061386D01*
X108076000Y-92050000D01*
X108400000Y-92050000D01*
X108400000Y-91907798D01*
X108405782Y-91878726D01*
X108404395Y-91878450D01*
X108418793Y-91806067D01*
X108420000Y-91800000D01*
X108420000Y-91276000D01*
X108440002Y-91207879D01*
X108493658Y-91161386D01*
X108546000Y-91150000D01*
X108599000Y-91150000D01*
X108667121Y-91170002D01*
G37*
G04 #@! TD.AperFunction*
G04 #@! TA.AperFunction,Conductor*
G36*
X104224123Y-88770002D02*
G01*
X104270616Y-88823658D01*
X104278043Y-88907335D01*
X104249669Y-89017844D01*
X104249669Y-89182156D01*
X104290532Y-89341306D01*
X104291813Y-89343636D01*
X104300000Y-89386555D01*
X104300000Y-90813445D01*
X104291813Y-90856364D01*
X104290532Y-90858694D01*
X104249669Y-91017844D01*
X104249669Y-91182156D01*
X104251641Y-91189835D01*
X104279835Y-91299645D01*
X104277403Y-91370600D01*
X104236995Y-91428976D01*
X104157794Y-91456980D01*
X101735359Y-91456980D01*
X101667238Y-91436978D01*
X101620745Y-91383322D01*
X101609361Y-91331410D01*
X101601039Y-88876427D01*
X101620810Y-88808239D01*
X101674308Y-88761564D01*
X101727038Y-88750000D01*
X104156002Y-88750000D01*
X104224123Y-88770002D01*
G37*
G04 #@! TD.AperFunction*
G04 #@! TA.AperFunction,Conductor*
G36*
X113025596Y-100978570D02*
G01*
X113082432Y-101021117D01*
X113107348Y-101092806D01*
X113106811Y-101098763D01*
X113107856Y-101106031D01*
X113107856Y-101106033D01*
X113107862Y-101106073D01*
X113107858Y-101106100D01*
X113108050Y-101113369D01*
X113106808Y-101113402D01*
X113097756Y-101176347D01*
X113051260Y-101230001D01*
X112983144Y-101250000D01*
X112954190Y-101250000D01*
X112886069Y-101229998D01*
X112839576Y-101176342D01*
X112829472Y-101106068D01*
X112865095Y-101034905D01*
X112892469Y-101007531D01*
X112954781Y-100973505D01*
X113025596Y-100978570D01*
G37*
G04 #@! TD.AperFunction*
G04 #@! TA.AperFunction,Conductor*
G36*
X120671311Y-94989137D02*
G01*
X120726937Y-95033254D01*
X120750000Y-95105917D01*
X120750001Y-101124000D01*
X120729999Y-101192121D01*
X120676343Y-101238614D01*
X120624001Y-101250000D01*
X118457121Y-101250000D01*
X118389000Y-101229998D01*
X118342507Y-101176342D01*
X118332232Y-101107302D01*
X118336651Y-101074254D01*
X118336651Y-101074249D01*
X118337247Y-101069794D01*
X118337128Y-101057669D01*
X118336305Y-100974386D01*
X118336305Y-100974385D01*
X118312824Y-98596976D01*
X118312068Y-98520448D01*
X118301217Y-97421793D01*
X118294058Y-97359541D01*
X118282678Y-97308443D01*
X118275054Y-97293304D01*
X118220084Y-97184163D01*
X118216577Y-97177200D01*
X118170084Y-97123544D01*
X118126154Y-97082124D01*
X118027878Y-97032154D01*
X118022292Y-97030514D01*
X118022290Y-97030513D01*
X117964069Y-97013418D01*
X117964068Y-97013418D01*
X117959757Y-97012152D01*
X117955317Y-97011514D01*
X117955314Y-97011513D01*
X117879684Y-97000639D01*
X117879681Y-97000639D01*
X117875238Y-97000000D01*
X117849269Y-97000000D01*
X117846123Y-97000318D01*
X117846118Y-97000318D01*
X117792430Y-97005741D01*
X117792428Y-97005741D01*
X117789273Y-97006060D01*
X117739893Y-97016139D01*
X117732964Y-97019442D01*
X117732961Y-97019443D01*
X117641217Y-97063177D01*
X117609320Y-97078382D01*
X117603388Y-97083261D01*
X117569551Y-97111092D01*
X117554488Y-97123481D01*
X117551461Y-97126799D01*
X117551457Y-97126802D01*
X117510845Y-97171307D01*
X117496932Y-97186554D01*
X117494400Y-97190280D01*
X117424385Y-97293304D01*
X117406746Y-97314030D01*
X117340063Y-97377089D01*
X117318391Y-97393540D01*
X117294552Y-97407864D01*
X117239715Y-97440813D01*
X117215013Y-97452227D01*
X117128026Y-97481501D01*
X117101446Y-97487345D01*
X117015155Y-97496719D01*
X117015142Y-97496720D01*
X117015140Y-97496720D01*
X117015128Y-97496721D01*
X116987132Y-97499763D01*
X116973523Y-97500500D01*
X115709358Y-97500500D01*
X115705840Y-97500451D01*
X115704144Y-97500404D01*
X115693163Y-97500097D01*
X115676108Y-97498455D01*
X115618244Y-97488875D01*
X115599320Y-97485742D01*
X115568557Y-97480649D01*
X115542345Y-97473330D01*
X115457131Y-97439247D01*
X115433106Y-97426473D01*
X115357188Y-97374880D01*
X115336472Y-97357248D01*
X115290319Y-97308443D01*
X115273411Y-97290563D01*
X115256957Y-97268885D01*
X115221398Y-97209704D01*
X115221388Y-97209690D01*
X115219530Y-97206597D01*
X115214730Y-97200356D01*
X115179892Y-97155065D01*
X115179890Y-97155063D01*
X115177685Y-97152196D01*
X115137802Y-97111092D01*
X115007015Y-97032154D01*
X114938894Y-97012152D01*
X114934454Y-97011514D01*
X114934451Y-97011513D01*
X114858821Y-97000639D01*
X114858818Y-97000639D01*
X114854375Y-97000000D01*
X114475418Y-97000000D01*
X114386694Y-96963465D01*
X114309577Y-96886987D01*
X113544103Y-96127857D01*
X113539732Y-96123522D01*
X113534607Y-96120121D01*
X113534605Y-96120119D01*
X113447842Y-96062537D01*
X113442713Y-96059133D01*
X113437027Y-96056791D01*
X113437022Y-96056789D01*
X113359680Y-96024941D01*
X113359676Y-96024940D01*
X113353989Y-96022598D01*
X113347950Y-96021403D01*
X113347949Y-96021403D01*
X113309041Y-96013706D01*
X113239760Y-96000000D01*
X113176000Y-96000000D01*
X113107879Y-95979998D01*
X113061386Y-95926342D01*
X113050000Y-95874000D01*
X113050000Y-95502190D01*
X113030969Y-95406518D01*
X113033588Y-95405997D01*
X113033054Y-95346590D01*
X113070899Y-95286521D01*
X113154264Y-95255000D01*
X113949999Y-95255000D01*
X114133598Y-95235055D01*
X114308631Y-95176150D01*
X114334632Y-95160527D01*
X114403324Y-95142586D01*
X114494752Y-95186016D01*
X114504183Y-95196900D01*
X114504185Y-95196902D01*
X114510087Y-95203713D01*
X114517671Y-95208587D01*
X114537993Y-95221647D01*
X114628592Y-95279871D01*
X114637241Y-95282411D01*
X114637242Y-95282411D01*
X114637743Y-95282558D01*
X114696713Y-95299873D01*
X114701172Y-95300514D01*
X114701176Y-95300515D01*
X114727412Y-95304287D01*
X114767146Y-95310000D01*
X115279113Y-95310000D01*
X115348020Y-95300316D01*
X115352249Y-95299104D01*
X115352251Y-95299103D01*
X115410548Y-95282387D01*
X115410547Y-95282387D01*
X115414789Y-95281171D01*
X115418815Y-95279378D01*
X115418819Y-95279377D01*
X115435315Y-95272032D01*
X115445128Y-95268147D01*
X115531965Y-95237907D01*
X115531968Y-95237906D01*
X115531968Y-95237905D01*
X115567794Y-95225429D01*
X115595185Y-95219206D01*
X115710379Y-95206285D01*
X115724424Y-95205500D01*
X116979705Y-95205500D01*
X116994623Y-95206386D01*
X117013082Y-95208587D01*
X117108578Y-95219974D01*
X117135926Y-95226389D01*
X117188910Y-95245256D01*
X117235099Y-95261703D01*
X117238479Y-95262906D01*
X117240078Y-95263580D01*
X117240106Y-95263504D01*
X117245918Y-95265662D01*
X117251484Y-95268376D01*
X117257475Y-95269952D01*
X117260501Y-95270748D01*
X117260423Y-95271046D01*
X117263280Y-95272107D01*
X117262697Y-95273679D01*
X117264444Y-95274301D01*
X117265063Y-95271949D01*
X117276254Y-95274894D01*
X117292281Y-95281241D01*
X117291898Y-95282558D01*
X117352190Y-95300074D01*
X117421936Y-95310000D01*
X119234000Y-95310000D01*
X119237347Y-95309640D01*
X119237350Y-95309640D01*
X119283776Y-95304649D01*
X119283782Y-95304648D01*
X119287140Y-95304287D01*
X119339482Y-95292901D01*
X119346532Y-95289372D01*
X119346535Y-95289371D01*
X119388577Y-95268327D01*
X119444975Y-95255000D01*
X119949999Y-95255000D01*
X120133598Y-95235055D01*
X120308631Y-95176150D01*
X120466931Y-95081033D01*
X120471892Y-95076342D01*
X120537427Y-95014369D01*
X120600665Y-94982097D01*
X120671311Y-94989137D01*
G37*
G04 #@! TD.AperFunction*
G04 #@! TA.AperFunction,Conductor*
G36*
X120692121Y-88770002D02*
G01*
X120738614Y-88823658D01*
X120750000Y-88876000D01*
X120750000Y-91492248D01*
X120729998Y-91560369D01*
X120676342Y-91606862D01*
X120606068Y-91616966D01*
X120532451Y-91578821D01*
X120515152Y-91560528D01*
X120504143Y-91548886D01*
X120498500Y-91545051D01*
X120357040Y-91448915D01*
X120357038Y-91448914D01*
X120351398Y-91445081D01*
X120345069Y-91442549D01*
X120345066Y-91442548D01*
X120186267Y-91379032D01*
X120186265Y-91379031D01*
X120179926Y-91376496D01*
X120063899Y-91357288D01*
X120001963Y-91347034D01*
X120001959Y-91347034D01*
X119997727Y-91346333D01*
X119993440Y-91346213D01*
X119993437Y-91346213D01*
X119971490Y-91345600D01*
X119950000Y-91345000D01*
X119510492Y-91345000D01*
X119442372Y-91324998D01*
X119380138Y-91285003D01*
X119380139Y-91285003D01*
X119372554Y-91280129D01*
X119363905Y-91277589D01*
X119363904Y-91277589D01*
X119346248Y-91272405D01*
X119304433Y-91260127D01*
X119299974Y-91259486D01*
X119299970Y-91259485D01*
X119269216Y-91255063D01*
X119234000Y-91250000D01*
X117468334Y-91250000D01*
X117463989Y-91250611D01*
X117463984Y-91250611D01*
X117403779Y-91259073D01*
X117399425Y-91259685D01*
X117332655Y-91278831D01*
X117328647Y-91280615D01*
X117328640Y-91280618D01*
X117294162Y-91295969D01*
X117269085Y-91307134D01*
X117265361Y-91309461D01*
X117234049Y-91329027D01*
X117208716Y-91341164D01*
X117114418Y-91374002D01*
X117087026Y-91380226D01*
X116966770Y-91393715D01*
X116952725Y-91394500D01*
X115742990Y-91394500D01*
X115728071Y-91393614D01*
X115678602Y-91387715D01*
X115678598Y-91387714D01*
X115637999Y-91382873D01*
X115609055Y-91379422D01*
X115581706Y-91373007D01*
X115487637Y-91339510D01*
X115462390Y-91327196D01*
X115378086Y-91273695D01*
X115356194Y-91256094D01*
X115285835Y-91185242D01*
X115268387Y-91163228D01*
X115250748Y-91135000D01*
X115215472Y-91078548D01*
X115203339Y-91053226D01*
X115158945Y-90925743D01*
X115158943Y-90925744D01*
X115158940Y-90925726D01*
X115156622Y-90919071D01*
X115155240Y-90919552D01*
X115148308Y-90905714D01*
X115138915Y-90876195D01*
X115105674Y-90815984D01*
X115063589Y-90760035D01*
X114762169Y-90458615D01*
X114688272Y-90407542D01*
X114635453Y-90383693D01*
X114612272Y-90373226D01*
X114612270Y-90373225D01*
X114607089Y-90370886D01*
X114601570Y-90369515D01*
X114525433Y-90350602D01*
X114525429Y-90350601D01*
X114519904Y-90349229D01*
X114514216Y-90348871D01*
X114514215Y-90348871D01*
X114509610Y-90348581D01*
X114494759Y-90347647D01*
X114490278Y-90347365D01*
X114459257Y-90341449D01*
X114393331Y-90320028D01*
X114364757Y-90306582D01*
X114306232Y-90269441D01*
X114281896Y-90249309D01*
X114223168Y-90186770D01*
X114212986Y-90174445D01*
X114191426Y-90144682D01*
X114149133Y-90099386D01*
X114036836Y-90030129D01*
X114028757Y-90027757D01*
X114028753Y-90027755D01*
X113993507Y-90017407D01*
X113968715Y-90010127D01*
X113964256Y-90009486D01*
X113964252Y-90009485D01*
X113933499Y-90005064D01*
X113898282Y-90000000D01*
X112276000Y-90000000D01*
X112207879Y-89979998D01*
X112161386Y-89926342D01*
X112150000Y-89874000D01*
X112150000Y-89026000D01*
X112144287Y-88972860D01*
X112132901Y-88920518D01*
X112130864Y-88916449D01*
X112127142Y-88847026D01*
X112162272Y-88785330D01*
X112249765Y-88750000D01*
X120624000Y-88750000D01*
X120692121Y-88770002D01*
G37*
G04 #@! TD.AperFunction*
G04 #@! TA.AperFunction,Conductor*
G36*
X108336905Y-89486905D02*
G01*
X108713095Y-89863095D01*
X108750000Y-89952190D01*
X108750000Y-90933972D01*
X108740409Y-90982190D01*
X108736305Y-90992099D01*
X108729411Y-91002416D01*
X108726990Y-91014587D01*
X108720228Y-91048581D01*
X108687321Y-91111491D01*
X108596649Y-91150000D01*
X108593747Y-91150000D01*
X108525626Y-91129998D01*
X108479133Y-91076342D01*
X108467890Y-91018081D01*
X108470077Y-91007924D01*
X108466373Y-90976629D01*
X108466002Y-90970333D01*
X108465928Y-90970339D01*
X108465500Y-90965161D01*
X108465500Y-90959961D01*
X108462352Y-90941048D01*
X108462181Y-90940019D01*
X108461344Y-90934141D01*
X108456614Y-90894180D01*
X108455391Y-90883843D01*
X108451472Y-90875681D01*
X108449985Y-90866749D01*
X108425910Y-90822131D01*
X108423238Y-90816885D01*
X108401305Y-90771210D01*
X108396339Y-90765301D01*
X108394402Y-90763364D01*
X108393916Y-90762834D01*
X108390654Y-90756789D01*
X108383005Y-90749719D01*
X108383004Y-90749717D01*
X108355071Y-90723897D01*
X108351504Y-90720467D01*
X108152723Y-90521686D01*
X108139588Y-90505424D01*
X108137090Y-90502678D01*
X108131440Y-90493929D01*
X108106679Y-90474409D01*
X108101975Y-90470229D01*
X108101927Y-90470286D01*
X108097966Y-90466930D01*
X108094287Y-90463251D01*
X108077869Y-90451519D01*
X108073128Y-90447960D01*
X108033317Y-90416575D01*
X108024770Y-90413574D01*
X108017406Y-90408311D01*
X107968862Y-90393793D01*
X107963256Y-90391971D01*
X107922912Y-90377803D01*
X107922906Y-90377802D01*
X107915429Y-90375176D01*
X107907739Y-90374510D01*
X107905003Y-90374510D01*
X107904278Y-90374479D01*
X107897699Y-90372511D01*
X107849669Y-90374398D01*
X107849287Y-90374413D01*
X107844341Y-90374510D01*
X107291563Y-90374510D01*
X107218575Y-90351217D01*
X107157361Y-90307714D01*
X107149284Y-90304806D01*
X107149278Y-90304803D01*
X107149260Y-90304797D01*
X107149246Y-90304787D01*
X107141666Y-90300824D01*
X107142263Y-90299682D01*
X107091942Y-90262901D01*
X107066375Y-90196668D01*
X107080674Y-90127127D01*
X107102848Y-90097152D01*
X107713095Y-89486905D01*
X107802190Y-89450000D01*
X108247810Y-89450000D01*
X108336905Y-89486905D01*
G37*
G04 #@! TD.AperFunction*
G04 #@! TA.AperFunction,Conductor*
G36*
X109338629Y-94008058D02*
G01*
X109342416Y-94010589D01*
X109440000Y-94030000D01*
X109477810Y-94030000D01*
X109566905Y-94066905D01*
X109762596Y-94262596D01*
X109799501Y-94351691D01*
X109799500Y-94976522D01*
X109799498Y-94976552D01*
X109799493Y-94976567D01*
X109799493Y-95103433D01*
X109806293Y-95124361D01*
X109810905Y-95143575D01*
X109814347Y-95165305D01*
X109818849Y-95174141D01*
X109824334Y-95184907D01*
X109831898Y-95203167D01*
X109836917Y-95218611D01*
X109836917Y-95218612D01*
X109838697Y-95224090D01*
X109838266Y-95224230D01*
X109850000Y-95273108D01*
X109850000Y-95350000D01*
X110113095Y-95613095D01*
X110150000Y-95702190D01*
X110150000Y-96974000D01*
X110129998Y-97042121D01*
X110076342Y-97088614D01*
X110024000Y-97100000D01*
X109126000Y-97100000D01*
X109057879Y-97079998D01*
X109011386Y-97026342D01*
X109000000Y-96974000D01*
X109000000Y-94126000D01*
X109020002Y-94057879D01*
X109073658Y-94011386D01*
X109126000Y-94000000D01*
X109298115Y-94000000D01*
X109338629Y-94008058D01*
G37*
G04 #@! TD.AperFunction*
G04 #@! TA.AperFunction,Conductor*
G36*
X112483838Y-95209010D02*
G01*
X112520074Y-95223504D01*
X112544194Y-95227497D01*
X112612710Y-95262710D01*
X112763095Y-95413095D01*
X112800000Y-95502190D01*
X112800000Y-96197810D01*
X112763095Y-96286905D01*
X112586905Y-96463095D01*
X112497810Y-96500000D01*
X110902190Y-96500000D01*
X110813095Y-96463095D01*
X110636905Y-96286905D01*
X110600000Y-96197810D01*
X110600000Y-95700000D01*
X110517723Y-95617723D01*
X110490409Y-95576846D01*
X110429705Y-95430293D01*
X110422116Y-95359704D01*
X110457019Y-95292981D01*
X110513095Y-95236905D01*
X110602190Y-95200000D01*
X112437047Y-95200000D01*
X112483838Y-95209010D01*
G37*
G04 #@! TD.AperFunction*
G04 #@! TA.AperFunction,Conductor*
G36*
X113042121Y-98320002D02*
G01*
X113088614Y-98373658D01*
X113100000Y-98426000D01*
X113100000Y-100747810D01*
X113063095Y-100836905D01*
X112836905Y-101063095D01*
X112747810Y-101100000D01*
X108426000Y-101100000D01*
X108357879Y-101079998D01*
X108311386Y-101026342D01*
X108300000Y-100974000D01*
X108300000Y-100452190D01*
X108336905Y-100363095D01*
X108763095Y-99936905D01*
X108852190Y-99900000D01*
X111400000Y-99900000D01*
X112000000Y-99300000D01*
X112000000Y-98426000D01*
X112020002Y-98357879D01*
X112073658Y-98311386D01*
X112126000Y-98300000D01*
X112974000Y-98300000D01*
X113042121Y-98320002D01*
G37*
G04 #@! TD.AperFunction*
G04 #@! TA.AperFunction,Conductor*
G36*
X110367121Y-88770002D02*
G01*
X110413614Y-88823658D01*
X110425000Y-88876000D01*
X110425000Y-90314396D01*
X110422950Y-90332317D01*
X110423593Y-90332403D01*
X110422803Y-90338286D01*
X110421460Y-90344080D01*
X110420000Y-90381250D01*
X110420000Y-90818749D01*
X110420700Y-90823404D01*
X110420700Y-90823406D01*
X110422945Y-90838340D01*
X110413292Y-90908677D01*
X110387441Y-90946166D01*
X109761692Y-91571916D01*
X109761668Y-91571937D01*
X109761653Y-91571944D01*
X109671944Y-91661654D01*
X109667441Y-91670492D01*
X109661957Y-91681254D01*
X109651629Y-91698109D01*
X109638700Y-91715905D01*
X109635942Y-91713901D01*
X109599163Y-91752829D01*
X109535664Y-91770000D01*
X109440000Y-91770000D01*
X109409240Y-91776119D01*
X109354585Y-91786990D01*
X109354583Y-91786991D01*
X109342416Y-91789411D01*
X109332101Y-91796303D01*
X109332099Y-91796304D01*
X109326568Y-91800000D01*
X109259688Y-91844688D01*
X109252795Y-91855004D01*
X109211304Y-91917099D01*
X109211303Y-91917101D01*
X109204411Y-91927416D01*
X109201990Y-91939585D01*
X109201990Y-91939586D01*
X109200201Y-91948580D01*
X109167294Y-92011490D01*
X109076622Y-92050000D01*
X109076000Y-92050000D01*
X109007879Y-92029998D01*
X108961386Y-91976342D01*
X108950000Y-91924000D01*
X108950000Y-91912956D01*
X108952421Y-91888374D01*
X108962482Y-91837795D01*
X108970000Y-91800000D01*
X108970000Y-91607642D01*
X108974882Y-91576819D01*
X108975653Y-91575306D01*
X108990500Y-91481568D01*
X108990500Y-91134716D01*
X109010502Y-91066595D01*
X109045676Y-91030505D01*
X109064596Y-91017647D01*
X109064599Y-91017644D01*
X109071702Y-91012817D01*
X109077245Y-91006258D01*
X109077247Y-91006256D01*
X109163481Y-90904211D01*
X109169024Y-90897652D01*
X109181857Y-90869623D01*
X109228216Y-90768366D01*
X109228216Y-90768364D01*
X109231791Y-90760557D01*
X109255378Y-90611634D01*
X109255500Y-90600000D01*
X109235037Y-90450615D01*
X109205560Y-90382497D01*
X109178567Y-90320120D01*
X109178566Y-90320118D01*
X109175155Y-90312236D01*
X109080266Y-90195058D01*
X109073264Y-90190082D01*
X109073262Y-90190080D01*
X109053011Y-90175689D01*
X109009070Y-90119924D01*
X109000000Y-90072983D01*
X109000000Y-89952190D01*
X108980969Y-89856518D01*
X108944064Y-89767423D01*
X108889872Y-89686318D01*
X108687887Y-89484333D01*
X108663399Y-89449780D01*
X108647156Y-89415954D01*
X108647156Y-89415953D01*
X108643079Y-89407464D01*
X108547459Y-89304022D01*
X108539311Y-89299289D01*
X108433796Y-89238000D01*
X108433795Y-89238000D01*
X108425649Y-89233268D01*
X108372476Y-89220943D01*
X108294210Y-89202802D01*
X108294209Y-89202802D01*
X108288420Y-89201460D01*
X108251250Y-89200000D01*
X107802190Y-89200000D01*
X107769301Y-89206542D01*
X107763501Y-89207554D01*
X107701564Y-89216866D01*
X107683760Y-89219543D01*
X107683759Y-89219543D01*
X107674449Y-89220943D01*
X107547464Y-89281921D01*
X107444022Y-89377541D01*
X107439292Y-89385684D01*
X107417785Y-89422711D01*
X107397926Y-89448520D01*
X106926071Y-89920375D01*
X106901863Y-89948474D01*
X106879689Y-89978449D01*
X106835797Y-90076775D01*
X106821498Y-90146316D01*
X106822243Y-90155296D01*
X106822041Y-90158661D01*
X106797991Y-90225460D01*
X106732603Y-90267308D01*
X106733846Y-90270877D01*
X106725738Y-90273701D01*
X106717315Y-90275399D01*
X106582969Y-90343852D01*
X106576647Y-90349665D01*
X106576646Y-90349666D01*
X106478307Y-90440093D01*
X106471980Y-90445911D01*
X106392525Y-90574058D01*
X106350459Y-90718851D01*
X106350369Y-90727439D01*
X106349319Y-90827669D01*
X106328605Y-90895576D01*
X106272617Y-90939222D01*
X106273547Y-90941048D01*
X106139201Y-91009501D01*
X106028212Y-91111560D01*
X106023684Y-91118863D01*
X106023683Y-91118864D01*
X105966817Y-91210579D01*
X105948757Y-91239707D01*
X105946361Y-91247955D01*
X105912027Y-91366133D01*
X105873814Y-91425968D01*
X105791030Y-91456980D01*
X104676000Y-91456980D01*
X104607879Y-91436978D01*
X104561386Y-91383322D01*
X104550000Y-91330980D01*
X104550000Y-88876000D01*
X104570002Y-88807879D01*
X104623658Y-88761386D01*
X104676000Y-88750000D01*
X110299000Y-88750000D01*
X110367121Y-88770002D01*
G37*
G04 #@! TD.AperFunction*
G04 #@! TA.AperFunction,Conductor*
G36*
X101584464Y-91690372D02*
G01*
X101650688Y-91715962D01*
X101692565Y-91773294D01*
X101700000Y-91815937D01*
X101700000Y-91828036D01*
X101679998Y-91896157D01*
X101633829Y-91938925D01*
X101619678Y-91946560D01*
X101614392Y-91949254D01*
X101568719Y-91971185D01*
X101562811Y-91976152D01*
X101560866Y-91978097D01*
X101560347Y-91978573D01*
X101554298Y-91981837D01*
X101547230Y-91989483D01*
X101521385Y-92017442D01*
X101517955Y-92021008D01*
X100852015Y-92686949D01*
X100475869Y-93063095D01*
X100386774Y-93100000D01*
X100026000Y-93100000D01*
X99957879Y-93079998D01*
X99911386Y-93026342D01*
X99900000Y-92974000D01*
X99900000Y-91686937D01*
X99920002Y-91618816D01*
X99973658Y-91572323D01*
X100036464Y-91561372D01*
X101584464Y-91690372D01*
G37*
G04 #@! TD.AperFunction*
M02*
