G04 #@! TF.GenerationSoftware,KiCad,Pcbnew,(5.99.0-6495-g15369915cc)*
G04 #@! TF.CreationDate,2020-10-24T17:34:59+02:00*
G04 #@! TF.ProjectId,EVAL-MP8862,4556414c-2d4d-4503-9838-36322e6b6963,1B*
G04 #@! TF.SameCoordinates,Original*
G04 #@! TF.FileFunction,Paste,Top*
G04 #@! TF.FilePolarity,Positive*
%FSLAX46Y46*%
G04 Gerber Fmt 4.6, Leading zero omitted, Abs format (unit mm)*
G04 Created by KiCad (PCBNEW (5.99.0-6495-g15369915cc)) date 2020-10-24 17:34:59*
%MOMM*%
%LPD*%
G01*
G04 APERTURE LIST*
G04 Aperture macros list*
%AMRoundRect*
0 Rectangle with rounded corners*
0 $1 Rounding radius*
0 $2 $3 $4 $5 $6 $7 $8 $9 X,Y pos of 4 corners*
0 Add a 4 corners polygon primitive as box body*
4,1,4,$2,$3,$4,$5,$6,$7,$8,$9,$2,$3,0*
0 Add four circle primitives for the rounded corners*
1,1,$1+$1,$2,$3,0*
1,1,$1+$1,$4,$5,0*
1,1,$1+$1,$6,$7,0*
1,1,$1+$1,$8,$9,0*
0 Add four rect primitives between the rounded corners*
20,1,$1+$1,$2,$3,$4,$5,0*
20,1,$1+$1,$4,$5,$6,$7,0*
20,1,$1+$1,$6,$7,$8,$9,0*
20,1,$1+$1,$8,$9,$2,$3,0*%
G04 Aperture macros list end*
%ADD10C,0.100000*%
%ADD11RoundRect,0.218750X-0.256250X0.218750X-0.256250X-0.218750X0.256250X-0.218750X0.256250X0.218750X0*%
%ADD12RoundRect,0.250000X-1.075000X0.375000X-1.075000X-0.375000X1.075000X-0.375000X1.075000X0.375000X0*%
%ADD13RoundRect,0.218750X0.218750X0.256250X-0.218750X0.256250X-0.218750X-0.256250X0.218750X-0.256250X0*%
%ADD14RoundRect,0.250000X1.075000X-0.375000X1.075000X0.375000X-1.075000X0.375000X-1.075000X-0.375000X0*%
%ADD15RoundRect,0.250000X0.375000X1.075000X-0.375000X1.075000X-0.375000X-1.075000X0.375000X-1.075000X0*%
%ADD16RoundRect,0.250000X-0.375000X-1.075000X0.375000X-1.075000X0.375000X1.075000X-0.375000X1.075000X0*%
%ADD17RoundRect,0.218750X0.256250X-0.218750X0.256250X0.218750X-0.256250X0.218750X-0.256250X-0.218750X0*%
%ADD18R,0.250000X0.800000*%
%ADD19R,0.250000X0.700000*%
%ADD20R,0.700000X0.250000*%
%ADD21R,1.200000X0.250000*%
%ADD22RoundRect,0.600000X0.600000X1.100000X-0.600000X1.100000X-0.600000X-1.100000X0.600000X-1.100000X0*%
%ADD23RoundRect,0.571250X0.623750X-0.571250X0.623750X0.571250X-0.623750X0.571250X-0.623750X-0.571250X0*%
%ADD24RoundRect,0.548400X0.646600X-0.594100X0.646600X0.594100X-0.646600X0.594100X-0.646600X-0.594100X0*%
G04 APERTURE END LIST*
D10*
G36*
X106000000Y-88850000D02*
G01*
X106000000Y-91450000D01*
X105800000Y-91650000D01*
X104500000Y-91650000D01*
X104287271Y-91442451D01*
X104287271Y-88842451D01*
X104450000Y-88700000D01*
X105850000Y-88700000D01*
X106000000Y-88850000D01*
G37*
X106000000Y-88850000D02*
X106000000Y-91450000D01*
X105800000Y-91650000D01*
X104500000Y-91650000D01*
X104287271Y-91442451D01*
X104287271Y-88842451D01*
X104450000Y-88700000D01*
X105850000Y-88700000D01*
X106000000Y-88850000D01*
G36*
X104700000Y-99750000D02*
G01*
X104700000Y-101150000D01*
X104550000Y-101300000D01*
X101950000Y-101300000D01*
X101750000Y-101100000D01*
X101750000Y-99800000D01*
X101957549Y-99587271D01*
X104557549Y-99587271D01*
X104700000Y-99750000D01*
G37*
X104700000Y-99750000D02*
X104700000Y-101150000D01*
X104550000Y-101300000D01*
X101950000Y-101300000D01*
X101750000Y-101100000D01*
X101750000Y-99800000D01*
X101957549Y-99587271D01*
X104557549Y-99587271D01*
X104700000Y-99750000D01*
G36*
X111400000Y-99750000D02*
G01*
X111400000Y-101150000D01*
X111250000Y-101300000D01*
X108650000Y-101300000D01*
X108450000Y-101100000D01*
X108450000Y-99800000D01*
X108657549Y-99587271D01*
X111257549Y-99587271D01*
X111400000Y-99750000D01*
G37*
X111400000Y-99750000D02*
X111400000Y-101150000D01*
X111250000Y-101300000D01*
X108650000Y-101300000D01*
X108450000Y-101100000D01*
X108450000Y-99800000D01*
X108657549Y-99587271D01*
X111257549Y-99587271D01*
X111400000Y-99750000D01*
G36*
X111500000Y-97050000D02*
G01*
X111500000Y-98450000D01*
X111350000Y-98600000D01*
X108750000Y-98600000D01*
X108550000Y-98400000D01*
X108550000Y-97100000D01*
X108757549Y-96887271D01*
X111357549Y-96887271D01*
X111500000Y-97050000D01*
G37*
X111500000Y-97050000D02*
X111500000Y-98450000D01*
X111350000Y-98600000D01*
X108750000Y-98600000D01*
X108550000Y-98400000D01*
X108550000Y-97100000D01*
X108757549Y-96887271D01*
X111357549Y-96887271D01*
X111500000Y-97050000D01*
G36*
X108000000Y-97050000D02*
G01*
X108000000Y-98450000D01*
X107850000Y-98600000D01*
X105250000Y-98600000D01*
X105050000Y-98400000D01*
X105050000Y-97100000D01*
X105257549Y-96887271D01*
X107857549Y-96887271D01*
X108000000Y-97050000D01*
G37*
X108000000Y-97050000D02*
X108000000Y-98450000D01*
X107850000Y-98600000D01*
X105250000Y-98600000D01*
X105050000Y-98400000D01*
X105050000Y-97100000D01*
X105257549Y-96887271D01*
X107857549Y-96887271D01*
X108000000Y-97050000D01*
D11*
X105230000Y-93045000D03*
X105230000Y-94620000D03*
D12*
X103200000Y-97660000D03*
X103200000Y-100460000D03*
D13*
X109725000Y-96030000D03*
X108150000Y-96030000D03*
D14*
X106640000Y-100460000D03*
X106640000Y-97660000D03*
D15*
X115375000Y-99575000D03*
X112575000Y-99575000D03*
D12*
X109950000Y-97650000D03*
X109950000Y-100450000D03*
D16*
X117125000Y-99575000D03*
X119925000Y-99575000D03*
D17*
X102280000Y-94620000D03*
X102280000Y-93045000D03*
X103750000Y-94620000D03*
X103750000Y-93045000D03*
D13*
X103820000Y-96030000D03*
X102245000Y-96030000D03*
D18*
X109090000Y-91500000D03*
D19*
X108590000Y-91450000D03*
X108090000Y-91450000D03*
X107590000Y-91450000D03*
D20*
X106890000Y-92150000D03*
D21*
X107140000Y-92650000D03*
X107140000Y-93150000D03*
D20*
X106890000Y-93650000D03*
D19*
X107590000Y-94350000D03*
X108090000Y-94350000D03*
X108590000Y-94350000D03*
X109090000Y-94350000D03*
D20*
X109790000Y-93650000D03*
D21*
X109540000Y-93150000D03*
X109540000Y-92650000D03*
D20*
X109790000Y-92150000D03*
D13*
X109607500Y-89930000D03*
X108032500Y-89930000D03*
D22*
X119350000Y-93300000D03*
X113350000Y-93300000D03*
D23*
X116350000Y-90247000D03*
D24*
X116350000Y-96353000D03*
D11*
X111100000Y-94425000D03*
X111100000Y-96000000D03*
D15*
X105200000Y-90100000D03*
X102400000Y-90100000D03*
D17*
X111150000Y-92175000D03*
X111150000Y-90600000D03*
D13*
X106797500Y-96030000D03*
X105222500Y-96030000D03*
M02*
