G04 #@! TF.GenerationSoftware,KiCad,Pcbnew,(5.99.0-6495-g15369915cc)*
G04 #@! TF.CreationDate,2020-10-24T17:34:59+02:00*
G04 #@! TF.ProjectId,EVAL-MP8862,4556414c-2d4d-4503-9838-36322e6b6963,1B*
G04 #@! TF.SameCoordinates,Original*
G04 #@! TF.FileFunction,Copper,L3,Inr*
G04 #@! TF.FilePolarity,Positive*
%FSLAX46Y46*%
G04 Gerber Fmt 4.6, Leading zero omitted, Abs format (unit mm)*
G04 Created by KiCad (PCBNEW (5.99.0-6495-g15369915cc)) date 2020-10-24 17:34:59*
%MOMM*%
%LPD*%
G01*
G04 APERTURE LIST*
G04 #@! TA.AperFunction,ComponentPad*
%ADD10R,1.700000X1.700000*%
G04 #@! TD*
G04 #@! TA.AperFunction,ComponentPad*
%ADD11O,1.700000X1.700000*%
G04 #@! TD*
G04 #@! TA.AperFunction,ViaPad*
%ADD12C,0.700000*%
G04 #@! TD*
G04 #@! TA.AperFunction,ViaPad*
%ADD13C,0.600000*%
G04 #@! TD*
G04 #@! TA.AperFunction,ViaPad*
%ADD14C,0.800000*%
G04 #@! TD*
G04 #@! TA.AperFunction,Conductor*
%ADD15C,0.600000*%
G04 #@! TD*
G04 #@! TA.AperFunction,Conductor*
%ADD16C,0.800000*%
G04 #@! TD*
G04 APERTURE END LIST*
D10*
X100000000Y-100000000D03*
D11*
X97460000Y-100000000D03*
X100000000Y-97460000D03*
X97460000Y-97460000D03*
X100000000Y-94920000D03*
X97460000Y-94920000D03*
X100000000Y-92380000D03*
X97460000Y-92380000D03*
X100000000Y-89840000D03*
X97460000Y-89840000D03*
D12*
X108350000Y-92700000D03*
D13*
X103550000Y-100925000D03*
X102850000Y-100925000D03*
X102175000Y-100925000D03*
X103850000Y-89075000D03*
D14*
X118150000Y-89275000D03*
X114550000Y-96550000D03*
X114550000Y-95875000D03*
D12*
X108350000Y-95125000D03*
D13*
X113600000Y-100150000D03*
X109575000Y-100925000D03*
X119000000Y-100550000D03*
X119000000Y-98600000D03*
D14*
X114550000Y-89275000D03*
D13*
X105625000Y-97050000D03*
D14*
X118150000Y-96550000D03*
D12*
X108350000Y-93300000D03*
D13*
X104225000Y-100925000D03*
D14*
X118150000Y-89950000D03*
D13*
X110275000Y-100925000D03*
X113600000Y-100775000D03*
X107675000Y-97050000D03*
D14*
X114550000Y-89950000D03*
D13*
X103850000Y-89750000D03*
X111600000Y-100150000D03*
X103850000Y-91107470D03*
X108700000Y-90600000D03*
X111600000Y-100800000D03*
X107000000Y-97050000D03*
D14*
X118150000Y-95875000D03*
D13*
X103850000Y-90450000D03*
X106300000Y-97050000D03*
X110950000Y-100925000D03*
X119000000Y-99900000D03*
X108900000Y-100925000D03*
X119000000Y-99250000D03*
X104500000Y-93825000D03*
X104900000Y-89100000D03*
X105600000Y-89100000D03*
X105600000Y-91100000D03*
D12*
X109800000Y-91000000D03*
D13*
X104900000Y-91100000D03*
X116250000Y-98600000D03*
X110300000Y-97025000D03*
X110975000Y-97025000D03*
D12*
X109475000Y-95100000D03*
D13*
X116250000Y-99900000D03*
X116250000Y-99250000D03*
X109600000Y-97025000D03*
X116250000Y-100550000D03*
X108925000Y-97025000D03*
X106900000Y-90800000D03*
X101200000Y-93800000D03*
X106456232Y-91465649D03*
X105990000Y-95360000D03*
X106949998Y-94350000D03*
D15*
X102175000Y-100925000D02*
X104225000Y-100925000D01*
D16*
X108350000Y-92700000D02*
X108350000Y-93300000D01*
X103850000Y-91107470D02*
X103850000Y-89125010D01*
X114550000Y-95875000D02*
X114550000Y-96550000D01*
X114550000Y-89275000D02*
X114550000Y-89950000D01*
X118150000Y-95875000D02*
X118150000Y-96550000D01*
X118150000Y-89275000D02*
X118150000Y-89950000D01*
D15*
X107675000Y-97050000D02*
X105625000Y-97050000D01*
X119000000Y-98550000D02*
X119000000Y-100600000D01*
G04 #@! TA.AperFunction,Conductor*
G36*
X111786905Y-94786905D02*
G01*
X114250000Y-97250000D01*
X120624000Y-97250000D01*
X120692121Y-97270002D01*
X120738614Y-97323658D01*
X120750000Y-97376000D01*
X120750000Y-101124000D01*
X120729998Y-101192121D01*
X120676342Y-101238614D01*
X120624000Y-101250000D01*
X119429391Y-101250000D01*
X119361270Y-101229998D01*
X119314777Y-101176342D01*
X119304673Y-101106068D01*
X119344104Y-101031254D01*
X119428020Y-100954089D01*
X119436019Y-100941189D01*
X119502949Y-100833242D01*
X119502950Y-100833241D01*
X119507475Y-100825942D01*
X119549541Y-100681149D01*
X119550500Y-100668089D01*
X119550500Y-100602350D01*
X119552051Y-100582639D01*
X119552752Y-100578213D01*
X119555378Y-100561634D01*
X119555500Y-100550000D01*
X119551666Y-100522011D01*
X119550500Y-100504911D01*
X119550500Y-99952350D01*
X119552051Y-99932639D01*
X119554656Y-99916190D01*
X119555378Y-99911634D01*
X119555500Y-99900000D01*
X119551666Y-99872011D01*
X119550500Y-99854911D01*
X119550500Y-99302350D01*
X119552051Y-99282639D01*
X119554656Y-99266190D01*
X119555378Y-99261634D01*
X119555500Y-99250000D01*
X119551666Y-99222011D01*
X119550500Y-99204911D01*
X119550500Y-98652350D01*
X119552051Y-98632639D01*
X119555378Y-98611634D01*
X119555500Y-98600000D01*
X119551666Y-98572011D01*
X119550500Y-98554911D01*
X119550500Y-98513499D01*
X119549049Y-98502900D01*
X119536203Y-98409129D01*
X119535037Y-98400615D01*
X119475155Y-98262236D01*
X119380266Y-98145058D01*
X119373264Y-98140082D01*
X119373262Y-98140080D01*
X119264362Y-98062690D01*
X119257360Y-98057714D01*
X119115494Y-98006639D01*
X119106934Y-98006010D01*
X119106932Y-98006010D01*
X119027862Y-98000204D01*
X118965120Y-97995596D01*
X118817315Y-98025399D01*
X118682969Y-98093852D01*
X118571980Y-98195911D01*
X118492525Y-98324059D01*
X118450459Y-98468852D01*
X118449500Y-98481912D01*
X118449500Y-98609765D01*
X118449493Y-98611084D01*
X118448880Y-98669623D01*
X118449400Y-98671563D01*
X118449500Y-98673157D01*
X118449500Y-99259737D01*
X118449493Y-99261056D01*
X118448880Y-99319623D01*
X118449400Y-99321564D01*
X118449500Y-99323159D01*
X118449501Y-99909707D01*
X118449494Y-99911027D01*
X118448880Y-99969623D01*
X118449401Y-99971564D01*
X118449501Y-99973160D01*
X118449501Y-100559678D01*
X118449494Y-100560998D01*
X118448880Y-100619623D01*
X118449401Y-100621566D01*
X118449501Y-100623164D01*
X118449501Y-100636501D01*
X118450083Y-100640747D01*
X118450083Y-100640753D01*
X118455995Y-100683912D01*
X118464964Y-100749385D01*
X118468376Y-100757269D01*
X118468376Y-100757270D01*
X118499522Y-100829243D01*
X118524846Y-100887764D01*
X118547550Y-100915801D01*
X118610533Y-100993578D01*
X118619735Y-101004942D01*
X118642745Y-101021294D01*
X118686685Y-101077058D01*
X118693502Y-101147727D01*
X118661030Y-101210862D01*
X118569756Y-101250000D01*
X114352588Y-101250000D01*
X114284467Y-101229998D01*
X114237974Y-101176342D01*
X114232524Y-101094027D01*
X114230748Y-101093672D01*
X114248777Y-101003577D01*
X114250000Y-100997467D01*
X114250000Y-100152190D01*
X114230969Y-100056518D01*
X114194064Y-99967423D01*
X114177367Y-99942433D01*
X114143310Y-99891463D01*
X114143309Y-99891461D01*
X114139872Y-99886318D01*
X113963682Y-99710128D01*
X113958537Y-99706690D01*
X113887717Y-99659370D01*
X113887714Y-99659368D01*
X113882577Y-99655936D01*
X113793482Y-99619031D01*
X113787414Y-99617824D01*
X113787411Y-99617823D01*
X113729184Y-99606241D01*
X113697810Y-99600000D01*
X113629715Y-99600000D01*
X113620487Y-99599662D01*
X113565120Y-99595596D01*
X113555608Y-99597514D01*
X113530703Y-99600000D01*
X111629715Y-99600000D01*
X111620487Y-99599662D01*
X111565120Y-99595596D01*
X111555608Y-99597514D01*
X111530703Y-99600000D01*
X108902190Y-99600000D01*
X108870816Y-99606241D01*
X108812589Y-99617823D01*
X108812586Y-99617824D01*
X108806518Y-99619031D01*
X108717423Y-99655936D01*
X108712286Y-99659368D01*
X108712283Y-99659370D01*
X108641463Y-99706690D01*
X108636318Y-99710128D01*
X108460128Y-99886318D01*
X108456691Y-99891461D01*
X108456690Y-99891463D01*
X108422634Y-99942433D01*
X108405936Y-99967423D01*
X108369031Y-100056518D01*
X108350000Y-100152190D01*
X108350000Y-100887028D01*
X108349993Y-100888347D01*
X108348880Y-100994623D01*
X108351103Y-101002920D01*
X108351104Y-101002926D01*
X108374808Y-101091388D01*
X108373119Y-101162365D01*
X108333326Y-101221161D01*
X108253102Y-101250000D01*
X104875584Y-101250000D01*
X104807463Y-101229998D01*
X104760970Y-101176342D01*
X104755078Y-101089298D01*
X104756791Y-101085557D01*
X104758135Y-101077074D01*
X104758136Y-101077069D01*
X104758584Y-101074240D01*
X104764480Y-101051277D01*
X104765452Y-101048576D01*
X104765453Y-101048573D01*
X104768361Y-101040495D01*
X104771807Y-100993573D01*
X104773019Y-100983093D01*
X104780378Y-100936634D01*
X104780500Y-100925000D01*
X104779873Y-100920426D01*
X104779583Y-100915812D01*
X104779761Y-100915801D01*
X104779492Y-100907250D01*
X104779315Y-100907261D01*
X104778775Y-100898681D01*
X104779404Y-100890120D01*
X104777707Y-100881706D01*
X104777707Y-100881700D01*
X104768703Y-100837048D01*
X104767383Y-100829243D01*
X104761203Y-100784125D01*
X104761202Y-100784123D01*
X104760037Y-100775615D01*
X104756626Y-100767733D01*
X104754316Y-100759458D01*
X104754488Y-100759410D01*
X104754293Y-100758790D01*
X104754125Y-100758849D01*
X104751299Y-100750733D01*
X104749601Y-100742315D01*
X104725025Y-100694084D01*
X104721656Y-100686923D01*
X104719158Y-100681149D01*
X104700155Y-100637236D01*
X104694745Y-100630555D01*
X104690299Y-100623214D01*
X104690451Y-100623122D01*
X104690095Y-100622574D01*
X104689949Y-100622675D01*
X104685049Y-100615625D01*
X104681148Y-100607969D01*
X104644506Y-100568122D01*
X104639344Y-100562141D01*
X104610674Y-100526735D01*
X104610669Y-100526731D01*
X104605266Y-100520058D01*
X104598266Y-100515083D01*
X104592003Y-100509202D01*
X104592125Y-100509072D01*
X104591635Y-100508639D01*
X104591520Y-100508778D01*
X104584907Y-100503307D01*
X104579089Y-100496980D01*
X104533073Y-100468449D01*
X104526494Y-100464077D01*
X104482361Y-100432714D01*
X104474281Y-100429805D01*
X104466667Y-100425824D01*
X104466749Y-100425666D01*
X104466160Y-100425382D01*
X104466088Y-100425544D01*
X104458241Y-100422050D01*
X104450942Y-100417525D01*
X104442696Y-100415129D01*
X104442693Y-100415128D01*
X104408757Y-100405269D01*
X104398949Y-100402420D01*
X104391446Y-100399982D01*
X104340495Y-100381639D01*
X104331933Y-100381010D01*
X104323525Y-100379223D01*
X104323562Y-100379048D01*
X104319030Y-100378233D01*
X104318987Y-100378470D01*
X104312488Y-100377301D01*
X104306149Y-100375459D01*
X104293089Y-100374500D01*
X104247907Y-100374500D01*
X104238679Y-100374162D01*
X104190120Y-100370596D01*
X104181701Y-100372294D01*
X104177880Y-100372534D01*
X104158182Y-100374500D01*
X103572907Y-100374500D01*
X103563679Y-100374162D01*
X103515120Y-100370596D01*
X103506701Y-100372294D01*
X103502880Y-100372534D01*
X103483182Y-100374500D01*
X102872907Y-100374500D01*
X102863679Y-100374162D01*
X102815120Y-100370596D01*
X102806701Y-100372294D01*
X102802880Y-100372534D01*
X102783182Y-100374500D01*
X102197907Y-100374500D01*
X102188679Y-100374162D01*
X102140120Y-100370596D01*
X102131706Y-100372293D01*
X102131700Y-100372293D01*
X102087048Y-100381297D01*
X102079243Y-100382617D01*
X102034125Y-100388797D01*
X102034123Y-100388798D01*
X102025615Y-100389963D01*
X102017733Y-100393374D01*
X102009458Y-100395684D01*
X102009410Y-100395512D01*
X102008790Y-100395707D01*
X102008849Y-100395875D01*
X102000733Y-100398701D01*
X101992315Y-100400399D01*
X101984663Y-100404298D01*
X101984660Y-100404299D01*
X101944087Y-100424973D01*
X101936927Y-100428342D01*
X101887236Y-100449845D01*
X101880555Y-100455255D01*
X101873214Y-100459701D01*
X101873122Y-100459549D01*
X101872574Y-100459905D01*
X101872675Y-100460051D01*
X101865625Y-100464951D01*
X101857969Y-100468852D01*
X101818122Y-100505494D01*
X101812141Y-100510656D01*
X101776735Y-100539326D01*
X101776731Y-100539331D01*
X101770058Y-100544734D01*
X101765083Y-100551734D01*
X101759202Y-100557997D01*
X101759072Y-100557875D01*
X101758639Y-100558365D01*
X101758778Y-100558480D01*
X101753307Y-100565093D01*
X101746980Y-100570911D01*
X101727487Y-100602350D01*
X101718450Y-100616925D01*
X101714077Y-100623506D01*
X101682714Y-100667639D01*
X101679805Y-100675719D01*
X101675824Y-100683333D01*
X101675666Y-100683251D01*
X101675382Y-100683840D01*
X101675544Y-100683912D01*
X101672050Y-100691759D01*
X101667525Y-100699058D01*
X101665129Y-100707304D01*
X101665128Y-100707307D01*
X101652421Y-100751047D01*
X101649982Y-100758554D01*
X101631639Y-100809505D01*
X101631010Y-100818067D01*
X101629223Y-100826475D01*
X101629048Y-100826438D01*
X101628933Y-100827079D01*
X101629110Y-100827105D01*
X101627855Y-100835604D01*
X101625459Y-100843851D01*
X101624994Y-100888347D01*
X101624893Y-100897974D01*
X101624561Y-100905886D01*
X101621224Y-100951311D01*
X101621225Y-100951321D01*
X101620596Y-100959880D01*
X101622293Y-100968296D01*
X101622833Y-100976874D01*
X101622655Y-100976885D01*
X101622717Y-100977534D01*
X101622894Y-100977512D01*
X101623970Y-100986031D01*
X101623880Y-100994623D01*
X101626103Y-101002918D01*
X101626103Y-101002921D01*
X101637894Y-101046924D01*
X101639699Y-101054622D01*
X101647574Y-101093672D01*
X101648667Y-101099094D01*
X101642525Y-101169825D01*
X101599117Y-101226006D01*
X101525153Y-101250000D01*
X96626000Y-101250000D01*
X96557879Y-101229998D01*
X96511386Y-101176342D01*
X96500000Y-101124000D01*
X96500000Y-98626000D01*
X96520002Y-98557879D01*
X96573658Y-98511386D01*
X96626000Y-98500000D01*
X97067715Y-98500000D01*
X97097876Y-98503663D01*
X97298578Y-98553146D01*
X97304568Y-98553455D01*
X97304570Y-98553455D01*
X97378178Y-98557248D01*
X97508199Y-98563948D01*
X97514134Y-98563119D01*
X97514138Y-98563119D01*
X97666960Y-98541777D01*
X97716081Y-98534917D01*
X97798563Y-98506758D01*
X97839271Y-98500000D01*
X99607715Y-98500000D01*
X99637876Y-98503663D01*
X99838578Y-98553146D01*
X99844568Y-98553455D01*
X99844570Y-98553455D01*
X99918178Y-98557248D01*
X100048199Y-98563948D01*
X100054134Y-98563119D01*
X100054138Y-98563119D01*
X100206960Y-98541777D01*
X100256081Y-98534917D01*
X100338563Y-98506758D01*
X100379271Y-98500000D01*
X103300000Y-98500000D01*
X104462403Y-97289164D01*
X104554288Y-97250427D01*
X104867891Y-97252897D01*
X105035146Y-97254214D01*
X105103107Y-97274752D01*
X105146419Y-97323005D01*
X105168852Y-97367031D01*
X105174667Y-97373355D01*
X105179569Y-97380408D01*
X105179422Y-97380510D01*
X105179810Y-97381032D01*
X105179949Y-97380922D01*
X105185286Y-97387655D01*
X105189658Y-97395048D01*
X105219084Y-97423266D01*
X105228744Y-97432530D01*
X105234266Y-97438169D01*
X105270911Y-97478020D01*
X105278208Y-97482544D01*
X105284830Y-97488023D01*
X105284716Y-97488161D01*
X105285230Y-97488559D01*
X105285335Y-97488414D01*
X105292282Y-97493461D01*
X105298485Y-97499409D01*
X105346190Y-97524988D01*
X105353044Y-97528945D01*
X105399058Y-97557475D01*
X105407310Y-97559872D01*
X105415157Y-97563366D01*
X105415084Y-97563529D01*
X105415681Y-97563773D01*
X105415743Y-97563605D01*
X105423796Y-97566600D01*
X105431368Y-97570660D01*
X105484224Y-97582475D01*
X105491845Y-97584432D01*
X105543851Y-97599541D01*
X105550429Y-97600024D01*
X105556911Y-97600500D01*
X105556900Y-97600646D01*
X105561548Y-97601245D01*
X105561572Y-97600960D01*
X105570139Y-97601679D01*
X105578517Y-97603552D01*
X105587090Y-97603103D01*
X105587094Y-97603103D01*
X105633453Y-97600673D01*
X105640047Y-97600500D01*
X106225950Y-97600500D01*
X106236513Y-97601659D01*
X106236572Y-97600960D01*
X106245139Y-97601679D01*
X106253517Y-97603552D01*
X106262090Y-97603103D01*
X106262094Y-97603103D01*
X106308453Y-97600673D01*
X106315047Y-97600500D01*
X106925950Y-97600500D01*
X106936513Y-97601659D01*
X106936572Y-97600960D01*
X106945139Y-97601679D01*
X106953517Y-97603552D01*
X106962090Y-97603103D01*
X106962094Y-97603103D01*
X107008453Y-97600673D01*
X107015047Y-97600500D01*
X107600950Y-97600500D01*
X107611513Y-97601659D01*
X107611572Y-97600960D01*
X107620139Y-97601679D01*
X107628517Y-97603552D01*
X107637090Y-97603103D01*
X107637094Y-97603103D01*
X107683453Y-97600673D01*
X107690047Y-97600500D01*
X107711501Y-97600500D01*
X107715740Y-97599919D01*
X107715743Y-97599919D01*
X107718963Y-97599478D01*
X107721612Y-97599115D01*
X107732118Y-97598122D01*
X107739793Y-97597720D01*
X107770508Y-97596111D01*
X107770510Y-97596111D01*
X107779090Y-97595661D01*
X107789947Y-97592007D01*
X107813032Y-97586592D01*
X107824385Y-97585037D01*
X107832270Y-97581625D01*
X107867559Y-97566354D01*
X107877411Y-97562572D01*
X107913854Y-97550308D01*
X107913856Y-97550307D01*
X107921995Y-97547568D01*
X107931472Y-97541127D01*
X107952253Y-97529704D01*
X107962764Y-97525155D01*
X107999328Y-97495546D01*
X108007796Y-97489258D01*
X108039595Y-97467648D01*
X108039600Y-97467644D01*
X108046702Y-97462817D01*
X108054097Y-97454066D01*
X108071041Y-97437474D01*
X108073267Y-97435672D01*
X108073270Y-97435669D01*
X108079942Y-97430266D01*
X108107194Y-97391919D01*
X108113661Y-97383582D01*
X108138482Y-97354210D01*
X108144024Y-97347652D01*
X108148796Y-97337230D01*
X108160650Y-97316699D01*
X108162309Y-97314364D01*
X108167286Y-97307361D01*
X108183221Y-97263099D01*
X108187208Y-97253330D01*
X108203216Y-97218365D01*
X108206791Y-97210557D01*
X108208207Y-97201617D01*
X108208584Y-97199240D01*
X108214480Y-97176277D01*
X108215452Y-97173576D01*
X108215453Y-97173573D01*
X108218361Y-97165495D01*
X108220005Y-97143114D01*
X108221806Y-97118578D01*
X108223019Y-97108093D01*
X108230378Y-97061634D01*
X108230500Y-97050000D01*
X108229873Y-97045426D01*
X108229583Y-97040812D01*
X108229761Y-97040801D01*
X108229492Y-97032250D01*
X108229315Y-97032261D01*
X108228775Y-97023681D01*
X108229404Y-97015120D01*
X108227707Y-97006706D01*
X108227707Y-97006700D01*
X108218703Y-96962048D01*
X108217383Y-96954243D01*
X108211203Y-96909125D01*
X108211202Y-96909123D01*
X108210037Y-96900615D01*
X108206626Y-96892733D01*
X108204316Y-96884458D01*
X108204488Y-96884410D01*
X108204293Y-96883788D01*
X108204124Y-96883847D01*
X108201299Y-96875736D01*
X108199601Y-96867315D01*
X108195701Y-96859661D01*
X108194481Y-96856158D01*
X108190967Y-96785248D01*
X108224377Y-96725623D01*
X109075000Y-95875000D01*
X109075000Y-94876000D01*
X109095002Y-94807879D01*
X109148658Y-94761386D01*
X109201000Y-94750000D01*
X111697810Y-94750000D01*
X111786905Y-94786905D01*
G37*
G04 #@! TD.AperFunction*
G04 #@! TA.AperFunction,Conductor*
G36*
X103180546Y-88770002D02*
G01*
X103227039Y-88823658D01*
X103234466Y-88907334D01*
X103199670Y-89042854D01*
X103199501Y-89045540D01*
X103199500Y-91147048D01*
X103215094Y-91270485D01*
X103225817Y-91297568D01*
X103256971Y-91376254D01*
X103275581Y-91423259D01*
X103372161Y-91556190D01*
X103378267Y-91561241D01*
X103492661Y-91655877D01*
X103492664Y-91655879D01*
X103498766Y-91660927D01*
X103647439Y-91730888D01*
X103655222Y-91732373D01*
X103655223Y-91732373D01*
X103801055Y-91760192D01*
X103801057Y-91760192D01*
X103808841Y-91761677D01*
X103907125Y-91755493D01*
X103964916Y-91751857D01*
X103964918Y-91751857D01*
X103972827Y-91751359D01*
X103980363Y-91748910D01*
X103980365Y-91748910D01*
X104121555Y-91703035D01*
X104121558Y-91703033D01*
X104129097Y-91700584D01*
X104267830Y-91612541D01*
X104340391Y-91535272D01*
X105905112Y-91535272D01*
X105944137Y-91680914D01*
X106020890Y-91810697D01*
X106129717Y-91915058D01*
X106262600Y-91986309D01*
X106305106Y-91995810D01*
X106401363Y-92017327D01*
X106401367Y-92017327D01*
X106409749Y-92019201D01*
X106504182Y-92014252D01*
X106551739Y-92011760D01*
X106551740Y-92011760D01*
X106560322Y-92011310D01*
X106703227Y-91963217D01*
X106827934Y-91878466D01*
X106833477Y-91871907D01*
X106833479Y-91871905D01*
X106919713Y-91769860D01*
X106925256Y-91763301D01*
X106928831Y-91755493D01*
X106984448Y-91634015D01*
X106984448Y-91634013D01*
X106988023Y-91626206D01*
X107011610Y-91477283D01*
X107011732Y-91465649D01*
X107009829Y-91451758D01*
X107020403Y-91381555D01*
X107094475Y-91315243D01*
X107138859Y-91300306D01*
X107146995Y-91297568D01*
X107163982Y-91286024D01*
X107198424Y-91262617D01*
X107271702Y-91212817D01*
X107277245Y-91206258D01*
X107277247Y-91206256D01*
X107363481Y-91104211D01*
X107369024Y-91097652D01*
X107372599Y-91089844D01*
X107428216Y-90968366D01*
X107428216Y-90968364D01*
X107431791Y-90960557D01*
X107455378Y-90811634D01*
X107455500Y-90800000D01*
X107437641Y-90669623D01*
X108148880Y-90669623D01*
X108187905Y-90815265D01*
X108264658Y-90945048D01*
X108373485Y-91049409D01*
X108448896Y-91089844D01*
X108489397Y-91111560D01*
X108506368Y-91120660D01*
X108548874Y-91130161D01*
X108645131Y-91151678D01*
X108645135Y-91151678D01*
X108653517Y-91153552D01*
X108747950Y-91148603D01*
X108795507Y-91146111D01*
X108795508Y-91146111D01*
X108804090Y-91145661D01*
X108946995Y-91097568D01*
X108958361Y-91089844D01*
X109011887Y-91053467D01*
X109071702Y-91012817D01*
X109077245Y-91006258D01*
X109077247Y-91006256D01*
X109163481Y-90904211D01*
X109169024Y-90897652D01*
X109208406Y-90811634D01*
X109228216Y-90768366D01*
X109228216Y-90768364D01*
X109231791Y-90760557D01*
X109255378Y-90611634D01*
X109255500Y-90600000D01*
X109235037Y-90450615D01*
X109213885Y-90401736D01*
X109178567Y-90320120D01*
X109178566Y-90320118D01*
X109175155Y-90312236D01*
X109106492Y-90227444D01*
X109085674Y-90201736D01*
X109085673Y-90201735D01*
X109080266Y-90195058D01*
X109073264Y-90190082D01*
X109073262Y-90190080D01*
X108964363Y-90112690D01*
X108957361Y-90107714D01*
X108815495Y-90056639D01*
X108806935Y-90056010D01*
X108806933Y-90056010D01*
X108728122Y-90050223D01*
X108665120Y-90045596D01*
X108517315Y-90075399D01*
X108382969Y-90143852D01*
X108376647Y-90149665D01*
X108376646Y-90149666D01*
X108284041Y-90234820D01*
X108271980Y-90245911D01*
X108267452Y-90253214D01*
X108267451Y-90253215D01*
X108197051Y-90366758D01*
X108192525Y-90374058D01*
X108150459Y-90518851D01*
X108150369Y-90527437D01*
X108150369Y-90527438D01*
X108149881Y-90574058D01*
X108148880Y-90669623D01*
X107437641Y-90669623D01*
X107435037Y-90650615D01*
X107431625Y-90642730D01*
X107378567Y-90520120D01*
X107378566Y-90520118D01*
X107375155Y-90512236D01*
X107316735Y-90440093D01*
X107285674Y-90401736D01*
X107285673Y-90401735D01*
X107280266Y-90395058D01*
X107273264Y-90390082D01*
X107273262Y-90390080D01*
X107164363Y-90312690D01*
X107157361Y-90307714D01*
X107015495Y-90256639D01*
X107006935Y-90256010D01*
X107006933Y-90256010D01*
X106928122Y-90250223D01*
X106865120Y-90245596D01*
X106717315Y-90275399D01*
X106582969Y-90343852D01*
X106576647Y-90349665D01*
X106576646Y-90349666D01*
X106500207Y-90419955D01*
X106471980Y-90445911D01*
X106467452Y-90453214D01*
X106467451Y-90453215D01*
X106414345Y-90538866D01*
X106392525Y-90574058D01*
X106350459Y-90718851D01*
X106350369Y-90727439D01*
X106349319Y-90827669D01*
X106328605Y-90895576D01*
X106272617Y-90939222D01*
X106273547Y-90941048D01*
X106139201Y-91009501D01*
X106028212Y-91111560D01*
X106023684Y-91118863D01*
X106023683Y-91118864D01*
X105962436Y-91217645D01*
X105948757Y-91239707D01*
X105906691Y-91384500D01*
X105905112Y-91535272D01*
X104340391Y-91535272D01*
X104380311Y-91492763D01*
X104459468Y-91348776D01*
X104500331Y-91189626D01*
X104500500Y-91186940D01*
X104500500Y-89085431D01*
X104484906Y-88961994D01*
X104469223Y-88922383D01*
X104462744Y-88851683D01*
X104495516Y-88788703D01*
X104586375Y-88750000D01*
X113883439Y-88750000D01*
X113951560Y-88770002D01*
X113998053Y-88823658D01*
X114008157Y-88893932D01*
X113993854Y-88936701D01*
X113940532Y-89033694D01*
X113912050Y-89144623D01*
X113899669Y-89192845D01*
X113899500Y-89195531D01*
X113899500Y-89989579D01*
X113899613Y-89990472D01*
X113899669Y-89992266D01*
X113899669Y-90032156D01*
X113901641Y-90039835D01*
X113901641Y-90039838D01*
X113907955Y-90064432D01*
X113910919Y-90079971D01*
X113915094Y-90113016D01*
X113927303Y-90143852D01*
X113927356Y-90143986D01*
X113932245Y-90159032D01*
X113938560Y-90183625D01*
X113940532Y-90191306D01*
X113944348Y-90198248D01*
X113944349Y-90198250D01*
X113956584Y-90220506D01*
X113963319Y-90234819D01*
X113965407Y-90240093D01*
X113975582Y-90265790D01*
X113980243Y-90272205D01*
X113980244Y-90272207D01*
X113995159Y-90292735D01*
X114003634Y-90306088D01*
X114019689Y-90335293D01*
X114033186Y-90349666D01*
X114042497Y-90359581D01*
X114052580Y-90371769D01*
X114072162Y-90398721D01*
X114078271Y-90403774D01*
X114078274Y-90403778D01*
X114097829Y-90419955D01*
X114109364Y-90430786D01*
X114132169Y-90455071D01*
X114138858Y-90459316D01*
X114138862Y-90459319D01*
X114160301Y-90472925D01*
X114173099Y-90482223D01*
X114198767Y-90503457D01*
X114205939Y-90506832D01*
X114205941Y-90506833D01*
X114228914Y-90517644D01*
X114242775Y-90525265D01*
X114262701Y-90537909D01*
X114270902Y-90543114D01*
X114302582Y-90553407D01*
X114317290Y-90559231D01*
X114333287Y-90566758D01*
X114347440Y-90573418D01*
X114355223Y-90574903D01*
X114355227Y-90574904D01*
X114380171Y-90579662D01*
X114395483Y-90583593D01*
X114427172Y-90593889D01*
X114435082Y-90594387D01*
X114435084Y-90594387D01*
X114460411Y-90595980D01*
X114476112Y-90597963D01*
X114508842Y-90604207D01*
X114537762Y-90602387D01*
X114542087Y-90602115D01*
X114557913Y-90602115D01*
X114562888Y-90602428D01*
X114591159Y-90604207D01*
X114623889Y-90597963D01*
X114639590Y-90595980D01*
X114664917Y-90594387D01*
X114664919Y-90594387D01*
X114672828Y-90593889D01*
X114704506Y-90583596D01*
X114719829Y-90579662D01*
X114722896Y-90579077D01*
X114752561Y-90573418D01*
X114782720Y-90559226D01*
X114797418Y-90553407D01*
X114829098Y-90543114D01*
X114835788Y-90538868D01*
X114835793Y-90538866D01*
X114857227Y-90525264D01*
X114871089Y-90517643D01*
X114894062Y-90506832D01*
X114901234Y-90503457D01*
X114926901Y-90482223D01*
X114939702Y-90472922D01*
X114967831Y-90455071D01*
X114990636Y-90430787D01*
X115002167Y-90419959D01*
X115021730Y-90403775D01*
X115021731Y-90403774D01*
X115027839Y-90398721D01*
X115047423Y-90371766D01*
X115057505Y-90359578D01*
X115080311Y-90335293D01*
X115084130Y-90328346D01*
X115084133Y-90328342D01*
X115096362Y-90306098D01*
X115104839Y-90292741D01*
X115119756Y-90272210D01*
X115119760Y-90272202D01*
X115124419Y-90265790D01*
X115136684Y-90234811D01*
X115143419Y-90220499D01*
X115155648Y-90198254D01*
X115159468Y-90191306D01*
X115167755Y-90159032D01*
X115172639Y-90144001D01*
X115184906Y-90113016D01*
X115189081Y-90079971D01*
X115192045Y-90064432D01*
X115198854Y-90037909D01*
X115198854Y-90037908D01*
X115200331Y-90032156D01*
X115200500Y-90029470D01*
X115200500Y-89997503D01*
X115201494Y-89981711D01*
X115204506Y-89957868D01*
X115205500Y-89950000D01*
X115201494Y-89918289D01*
X115200500Y-89902497D01*
X115200500Y-89322503D01*
X115201494Y-89306711D01*
X115204506Y-89282868D01*
X115205500Y-89275000D01*
X115184906Y-89111984D01*
X115151159Y-89026748D01*
X115127339Y-88966584D01*
X115127337Y-88966581D01*
X115124419Y-88959210D01*
X115117771Y-88950060D01*
X115116877Y-88947555D01*
X115115940Y-88945850D01*
X115116215Y-88945699D01*
X115093913Y-88883192D01*
X115109995Y-88814041D01*
X115160909Y-88764561D01*
X115219708Y-88750000D01*
X117483439Y-88750000D01*
X117551560Y-88770002D01*
X117598053Y-88823658D01*
X117608157Y-88893932D01*
X117593854Y-88936701D01*
X117540532Y-89033694D01*
X117512050Y-89144623D01*
X117499669Y-89192845D01*
X117499500Y-89195531D01*
X117499500Y-89989579D01*
X117499613Y-89990472D01*
X117499669Y-89992266D01*
X117499669Y-90032156D01*
X117501641Y-90039835D01*
X117501641Y-90039838D01*
X117507955Y-90064432D01*
X117510919Y-90079971D01*
X117515094Y-90113016D01*
X117527303Y-90143852D01*
X117527356Y-90143986D01*
X117532245Y-90159032D01*
X117538560Y-90183625D01*
X117540532Y-90191306D01*
X117544348Y-90198248D01*
X117544349Y-90198250D01*
X117556584Y-90220506D01*
X117563319Y-90234819D01*
X117565407Y-90240093D01*
X117575582Y-90265790D01*
X117580243Y-90272205D01*
X117580244Y-90272207D01*
X117595159Y-90292735D01*
X117603634Y-90306088D01*
X117619689Y-90335293D01*
X117633186Y-90349666D01*
X117642497Y-90359581D01*
X117652580Y-90371769D01*
X117672162Y-90398721D01*
X117678271Y-90403774D01*
X117678274Y-90403778D01*
X117697829Y-90419955D01*
X117709364Y-90430786D01*
X117732169Y-90455071D01*
X117738858Y-90459316D01*
X117738862Y-90459319D01*
X117760301Y-90472925D01*
X117773099Y-90482223D01*
X117798767Y-90503457D01*
X117805939Y-90506832D01*
X117805941Y-90506833D01*
X117828914Y-90517644D01*
X117842775Y-90525265D01*
X117862701Y-90537909D01*
X117870902Y-90543114D01*
X117902582Y-90553407D01*
X117917290Y-90559231D01*
X117933287Y-90566758D01*
X117947440Y-90573418D01*
X117955223Y-90574903D01*
X117955227Y-90574904D01*
X117980171Y-90579662D01*
X117995483Y-90583593D01*
X118027172Y-90593889D01*
X118035082Y-90594387D01*
X118035084Y-90594387D01*
X118060411Y-90595980D01*
X118076112Y-90597963D01*
X118108842Y-90604207D01*
X118137762Y-90602387D01*
X118142087Y-90602115D01*
X118157913Y-90602115D01*
X118162888Y-90602428D01*
X118191159Y-90604207D01*
X118223889Y-90597963D01*
X118239590Y-90595980D01*
X118264917Y-90594387D01*
X118264919Y-90594387D01*
X118272828Y-90593889D01*
X118304506Y-90583596D01*
X118319829Y-90579662D01*
X118322896Y-90579077D01*
X118352561Y-90573418D01*
X118382720Y-90559226D01*
X118397418Y-90553407D01*
X118429098Y-90543114D01*
X118435788Y-90538868D01*
X118435793Y-90538866D01*
X118457227Y-90525264D01*
X118471089Y-90517643D01*
X118494062Y-90506832D01*
X118501234Y-90503457D01*
X118526901Y-90482223D01*
X118539702Y-90472922D01*
X118567831Y-90455071D01*
X118590636Y-90430787D01*
X118602167Y-90419959D01*
X118621730Y-90403775D01*
X118621731Y-90403774D01*
X118627839Y-90398721D01*
X118647423Y-90371766D01*
X118657505Y-90359578D01*
X118680311Y-90335293D01*
X118684130Y-90328346D01*
X118684133Y-90328342D01*
X118696362Y-90306098D01*
X118704839Y-90292741D01*
X118719756Y-90272210D01*
X118719760Y-90272202D01*
X118724419Y-90265790D01*
X118736684Y-90234811D01*
X118743419Y-90220499D01*
X118755648Y-90198254D01*
X118759468Y-90191306D01*
X118767755Y-90159032D01*
X118772639Y-90144001D01*
X118784906Y-90113016D01*
X118789081Y-90079971D01*
X118792045Y-90064432D01*
X118798854Y-90037909D01*
X118798854Y-90037908D01*
X118800331Y-90032156D01*
X118800500Y-90029470D01*
X118800500Y-89997503D01*
X118801494Y-89981711D01*
X118804506Y-89957868D01*
X118805500Y-89950000D01*
X118801494Y-89918289D01*
X118800500Y-89902497D01*
X118800500Y-89322503D01*
X118801494Y-89306711D01*
X118804506Y-89282868D01*
X118805500Y-89275000D01*
X118784906Y-89111984D01*
X118751159Y-89026748D01*
X118727339Y-88966584D01*
X118727337Y-88966581D01*
X118724419Y-88959210D01*
X118717771Y-88950060D01*
X118716877Y-88947555D01*
X118715940Y-88945850D01*
X118716215Y-88945699D01*
X118693913Y-88883192D01*
X118709995Y-88814041D01*
X118760909Y-88764561D01*
X118819708Y-88750000D01*
X120624000Y-88750000D01*
X120692121Y-88770002D01*
X120738614Y-88823658D01*
X120750000Y-88876000D01*
X120750000Y-96874000D01*
X120729998Y-96942121D01*
X120676342Y-96988614D01*
X120624000Y-97000000D01*
X118857792Y-97000000D01*
X118789671Y-96979998D01*
X118743178Y-96926342D01*
X118733074Y-96856068D01*
X118747378Y-96813298D01*
X118755648Y-96798255D01*
X118755649Y-96798253D01*
X118759468Y-96791306D01*
X118767755Y-96759032D01*
X118772639Y-96744001D01*
X118784906Y-96713016D01*
X118788567Y-96684036D01*
X118789081Y-96679971D01*
X118792045Y-96664432D01*
X118798854Y-96637909D01*
X118798854Y-96637908D01*
X118800331Y-96632156D01*
X118800500Y-96629470D01*
X118800500Y-96597503D01*
X118801494Y-96581711D01*
X118804506Y-96557868D01*
X118805500Y-96550000D01*
X118801494Y-96518289D01*
X118800500Y-96502497D01*
X118800500Y-95922503D01*
X118801494Y-95906711D01*
X118804506Y-95882868D01*
X118805500Y-95875000D01*
X118784906Y-95711984D01*
X118724419Y-95559210D01*
X118627839Y-95426279D01*
X118566710Y-95375709D01*
X118507343Y-95326596D01*
X118507339Y-95326593D01*
X118501234Y-95321543D01*
X118352561Y-95251582D01*
X118344778Y-95250097D01*
X118344777Y-95250097D01*
X118197001Y-95221907D01*
X118196997Y-95221907D01*
X118191159Y-95220793D01*
X118191158Y-95220793D01*
X118072086Y-95228285D01*
X118035083Y-95230613D01*
X118035081Y-95230613D01*
X118027172Y-95231111D01*
X118019636Y-95233560D01*
X118019634Y-95233560D01*
X117878444Y-95279435D01*
X117878441Y-95279437D01*
X117870902Y-95281886D01*
X117732169Y-95369929D01*
X117726742Y-95375708D01*
X117726741Y-95375709D01*
X117679252Y-95426279D01*
X117619689Y-95489707D01*
X117540532Y-95633694D01*
X117505163Y-95771446D01*
X117499669Y-95792845D01*
X117499500Y-95795531D01*
X117499500Y-96589579D01*
X117499613Y-96590472D01*
X117499669Y-96592266D01*
X117499669Y-96632156D01*
X117501641Y-96639835D01*
X117501641Y-96639838D01*
X117507955Y-96664432D01*
X117510919Y-96679971D01*
X117511433Y-96684036D01*
X117515094Y-96713016D01*
X117518011Y-96720383D01*
X117527356Y-96743986D01*
X117532245Y-96759032D01*
X117538560Y-96783625D01*
X117540532Y-96791306D01*
X117544350Y-96798250D01*
X117544351Y-96798254D01*
X117552623Y-96813302D01*
X117567911Y-96882634D01*
X117543288Y-96949224D01*
X117486573Y-96991931D01*
X117442207Y-97000000D01*
X115257792Y-97000000D01*
X115189671Y-96979998D01*
X115143178Y-96926342D01*
X115133074Y-96856068D01*
X115147378Y-96813298D01*
X115155648Y-96798255D01*
X115155649Y-96798253D01*
X115159468Y-96791306D01*
X115167755Y-96759032D01*
X115172639Y-96744001D01*
X115184906Y-96713016D01*
X115188567Y-96684036D01*
X115189081Y-96679971D01*
X115192045Y-96664432D01*
X115198854Y-96637909D01*
X115198854Y-96637908D01*
X115200331Y-96632156D01*
X115200500Y-96629470D01*
X115200500Y-96597503D01*
X115201494Y-96581711D01*
X115204506Y-96557868D01*
X115205500Y-96550000D01*
X115201494Y-96518289D01*
X115200500Y-96502497D01*
X115200500Y-95922503D01*
X115201494Y-95906711D01*
X115204506Y-95882868D01*
X115205500Y-95875000D01*
X115184906Y-95711984D01*
X115124419Y-95559210D01*
X115027839Y-95426279D01*
X114966710Y-95375709D01*
X114907343Y-95326596D01*
X114907339Y-95326593D01*
X114901234Y-95321543D01*
X114752561Y-95251582D01*
X114744778Y-95250097D01*
X114744777Y-95250097D01*
X114597001Y-95221907D01*
X114596997Y-95221907D01*
X114591159Y-95220793D01*
X114591158Y-95220793D01*
X114472086Y-95228285D01*
X114435083Y-95230613D01*
X114435081Y-95230613D01*
X114427172Y-95231111D01*
X114419636Y-95233560D01*
X114419634Y-95233560D01*
X114278444Y-95279435D01*
X114278441Y-95279437D01*
X114270902Y-95281886D01*
X114132169Y-95369929D01*
X114126742Y-95375708D01*
X114126741Y-95375709D01*
X114079252Y-95426279D01*
X114019689Y-95489707D01*
X113940532Y-95633694D01*
X113905163Y-95771446D01*
X113899669Y-95792845D01*
X113899500Y-95795531D01*
X113899500Y-96241756D01*
X113879498Y-96309877D01*
X113825842Y-96356370D01*
X113755568Y-96366474D01*
X113684405Y-96330851D01*
X111963682Y-94610128D01*
X111957748Y-94606163D01*
X111887717Y-94559370D01*
X111887714Y-94559368D01*
X111882577Y-94555936D01*
X111793482Y-94519031D01*
X111787414Y-94517824D01*
X111787411Y-94517823D01*
X111708241Y-94502075D01*
X111697810Y-94500000D01*
X109525035Y-94500000D01*
X109508588Y-94498922D01*
X109483188Y-94495578D01*
X109475000Y-94494500D01*
X109466812Y-94495578D01*
X109441412Y-94498922D01*
X109424965Y-94500000D01*
X109201000Y-94500000D01*
X109197653Y-94500360D01*
X109197650Y-94500360D01*
X109151224Y-94505351D01*
X109151218Y-94505352D01*
X109147860Y-94505713D01*
X109095518Y-94517099D01*
X108984943Y-94572448D01*
X108956075Y-94597462D01*
X108941458Y-94610128D01*
X108931287Y-94618941D01*
X108921226Y-94634597D01*
X108867570Y-94681090D01*
X108797296Y-94691193D01*
X108738524Y-94666438D01*
X108659306Y-94605652D01*
X108659301Y-94605649D01*
X108652750Y-94600622D01*
X108506715Y-94540132D01*
X108350000Y-94519500D01*
X108193285Y-94540132D01*
X108047250Y-94600622D01*
X107921847Y-94696847D01*
X107825622Y-94822250D01*
X107765132Y-94968285D01*
X107744500Y-95125000D01*
X107765132Y-95281715D01*
X107825622Y-95427750D01*
X107921847Y-95553153D01*
X108047250Y-95649378D01*
X108163803Y-95697656D01*
X108181649Y-95705048D01*
X108193285Y-95709868D01*
X108201473Y-95710946D01*
X108269121Y-95719852D01*
X108350000Y-95730500D01*
X108358188Y-95729422D01*
X108498527Y-95710946D01*
X108506715Y-95709868D01*
X108569958Y-95683672D01*
X108640546Y-95676083D01*
X108704033Y-95707862D01*
X108740261Y-95768920D01*
X108737727Y-95839871D01*
X108707270Y-95889176D01*
X108066798Y-96529648D01*
X108004486Y-96563674D01*
X107933641Y-96554146D01*
X107932357Y-96557712D01*
X107928308Y-96556254D01*
X107920213Y-96552341D01*
X107919346Y-96552224D01*
X107916688Y-96550835D01*
X107916771Y-96550677D01*
X107916160Y-96550382D01*
X107916088Y-96550544D01*
X107908241Y-96547050D01*
X107900942Y-96542525D01*
X107892696Y-96540129D01*
X107892693Y-96540128D01*
X107856619Y-96529648D01*
X107848949Y-96527420D01*
X107841446Y-96524982D01*
X107790495Y-96506639D01*
X107781933Y-96506010D01*
X107773525Y-96504223D01*
X107773562Y-96504048D01*
X107769030Y-96503233D01*
X107768987Y-96503470D01*
X107762488Y-96502301D01*
X107756149Y-96500459D01*
X107743089Y-96499500D01*
X107697907Y-96499500D01*
X107688679Y-96499162D01*
X107640120Y-96495596D01*
X107631701Y-96497294D01*
X107627880Y-96497534D01*
X107608182Y-96499500D01*
X107022907Y-96499500D01*
X107013679Y-96499162D01*
X106965120Y-96495596D01*
X106956701Y-96497294D01*
X106952880Y-96497534D01*
X106933182Y-96499500D01*
X106322907Y-96499500D01*
X106313679Y-96499162D01*
X106265120Y-96495596D01*
X106256701Y-96497294D01*
X106252880Y-96497534D01*
X106233182Y-96499500D01*
X105647907Y-96499500D01*
X105638679Y-96499162D01*
X105590120Y-96495596D01*
X105581706Y-96497293D01*
X105581700Y-96497293D01*
X105537048Y-96506297D01*
X105529243Y-96507617D01*
X105484125Y-96513797D01*
X105484123Y-96513798D01*
X105475615Y-96514963D01*
X105467733Y-96518374D01*
X105459458Y-96520684D01*
X105459410Y-96520512D01*
X105458790Y-96520707D01*
X105458849Y-96520875D01*
X105450733Y-96523701D01*
X105442315Y-96525399D01*
X105434663Y-96529298D01*
X105434660Y-96529299D01*
X105394087Y-96549973D01*
X105386927Y-96553342D01*
X105337236Y-96574845D01*
X105330555Y-96580255D01*
X105323214Y-96584701D01*
X105323122Y-96584549D01*
X105322574Y-96584905D01*
X105322675Y-96585051D01*
X105315625Y-96589951D01*
X105307969Y-96593852D01*
X105268122Y-96630494D01*
X105262141Y-96635656D01*
X105226735Y-96664326D01*
X105226731Y-96664331D01*
X105220058Y-96669734D01*
X105215083Y-96676734D01*
X105209202Y-96682997D01*
X105209072Y-96682875D01*
X105208639Y-96683365D01*
X105208778Y-96683480D01*
X105203307Y-96690093D01*
X105196980Y-96695911D01*
X105181807Y-96720383D01*
X105168450Y-96741925D01*
X105164077Y-96748506D01*
X105132714Y-96792639D01*
X105129805Y-96800719D01*
X105125824Y-96808333D01*
X105125666Y-96808251D01*
X105125382Y-96808840D01*
X105125544Y-96808912D01*
X105122050Y-96816759D01*
X105117525Y-96824058D01*
X105115129Y-96832304D01*
X105115128Y-96832307D01*
X105102421Y-96876047D01*
X105099982Y-96883554D01*
X105094366Y-96899155D01*
X105086733Y-96920357D01*
X105044837Y-96977675D01*
X104967190Y-97003671D01*
X104869860Y-97002905D01*
X104556257Y-97000435D01*
X104457170Y-97020062D01*
X104365285Y-97058799D01*
X104282056Y-97116031D01*
X104277612Y-97120660D01*
X104277611Y-97120661D01*
X103278636Y-98161259D01*
X103187741Y-98200000D01*
X96626000Y-98200000D01*
X96557879Y-98179998D01*
X96511386Y-98126342D01*
X96500000Y-98074000D01*
X96500000Y-96126000D01*
X96520002Y-96057879D01*
X96573658Y-96011386D01*
X96626000Y-96000000D01*
X97229953Y-96000000D01*
X97260116Y-96003663D01*
X97298578Y-96013146D01*
X97304568Y-96013455D01*
X97304570Y-96013455D01*
X97378178Y-96017248D01*
X97508199Y-96023948D01*
X97514134Y-96023119D01*
X97514138Y-96023119D01*
X97642648Y-96005172D01*
X97671012Y-96001211D01*
X97688438Y-96000000D01*
X99769953Y-96000000D01*
X99800116Y-96003663D01*
X99838578Y-96013146D01*
X99844568Y-96013455D01*
X99844570Y-96013455D01*
X99918178Y-96017248D01*
X100048199Y-96023948D01*
X100054134Y-96023119D01*
X100054138Y-96023119D01*
X100182648Y-96005172D01*
X100211012Y-96001211D01*
X100228438Y-96000000D01*
X100500000Y-96000000D01*
X101070377Y-95429623D01*
X105438880Y-95429623D01*
X105477905Y-95575265D01*
X105554658Y-95705048D01*
X105663485Y-95809409D01*
X105796368Y-95880660D01*
X105834466Y-95889176D01*
X105935131Y-95911678D01*
X105935135Y-95911678D01*
X105943517Y-95913552D01*
X106037950Y-95908603D01*
X106085507Y-95906111D01*
X106085508Y-95906111D01*
X106094090Y-95905661D01*
X106236995Y-95857568D01*
X106361702Y-95772817D01*
X106367245Y-95766258D01*
X106367247Y-95766256D01*
X106437035Y-95683672D01*
X106459024Y-95657652D01*
X106500718Y-95566584D01*
X106518216Y-95528366D01*
X106518216Y-95528364D01*
X106521791Y-95520557D01*
X106545378Y-95371634D01*
X106545500Y-95360000D01*
X106525037Y-95210615D01*
X106491908Y-95134058D01*
X106468567Y-95080120D01*
X106468566Y-95080118D01*
X106465155Y-95072236D01*
X106370266Y-94955058D01*
X106363264Y-94950082D01*
X106363262Y-94950080D01*
X106254363Y-94872690D01*
X106247361Y-94867714D01*
X106105495Y-94816639D01*
X106096935Y-94816010D01*
X106096933Y-94816010D01*
X106018122Y-94810223D01*
X105955120Y-94805596D01*
X105807315Y-94835399D01*
X105672969Y-94903852D01*
X105666647Y-94909665D01*
X105666646Y-94909666D01*
X105611195Y-94960656D01*
X105561980Y-95005911D01*
X105557452Y-95013214D01*
X105557451Y-95013215D01*
X105515968Y-95080120D01*
X105482525Y-95134058D01*
X105440459Y-95278851D01*
X105438880Y-95429623D01*
X101070377Y-95429623D01*
X101250000Y-95250000D01*
X101250000Y-94454405D01*
X101260212Y-94419623D01*
X106398878Y-94419623D01*
X106437903Y-94565265D01*
X106514656Y-94695048D01*
X106623483Y-94799409D01*
X106756366Y-94870660D01*
X106765448Y-94872690D01*
X106895129Y-94901678D01*
X106895133Y-94901678D01*
X106903515Y-94903552D01*
X106997948Y-94898603D01*
X107045505Y-94896111D01*
X107045506Y-94896111D01*
X107054088Y-94895661D01*
X107196993Y-94847568D01*
X107209161Y-94839299D01*
X107238223Y-94819548D01*
X107321700Y-94762817D01*
X107327243Y-94756258D01*
X107327245Y-94756256D01*
X107390765Y-94681090D01*
X107419022Y-94647652D01*
X107438251Y-94605652D01*
X107478214Y-94518366D01*
X107478214Y-94518364D01*
X107481789Y-94510557D01*
X107505376Y-94361634D01*
X107505498Y-94350000D01*
X107485035Y-94200615D01*
X107474380Y-94175992D01*
X107428565Y-94070120D01*
X107428564Y-94070118D01*
X107425153Y-94062236D01*
X107366733Y-93990093D01*
X107335672Y-93951736D01*
X107335671Y-93951735D01*
X107330264Y-93945058D01*
X107323262Y-93940082D01*
X107323260Y-93940080D01*
X107214361Y-93862690D01*
X107207359Y-93857714D01*
X107065493Y-93806639D01*
X107056933Y-93806010D01*
X107056931Y-93806010D01*
X106975088Y-93800000D01*
X106915118Y-93795596D01*
X106767313Y-93825399D01*
X106632967Y-93893852D01*
X106626645Y-93899665D01*
X106626644Y-93899666D01*
X106567331Y-93954207D01*
X106521978Y-93995911D01*
X106517450Y-94003214D01*
X106517449Y-94003215D01*
X106454829Y-94104211D01*
X106442523Y-94124058D01*
X106400457Y-94268851D01*
X106398878Y-94419623D01*
X101260212Y-94419623D01*
X101270002Y-94386284D01*
X101335811Y-94334986D01*
X101438859Y-94300306D01*
X101446995Y-94297568D01*
X101571702Y-94212817D01*
X101577245Y-94206258D01*
X101577247Y-94206256D01*
X101652878Y-94116758D01*
X101669024Y-94097652D01*
X101716770Y-93993366D01*
X101728216Y-93968366D01*
X101728216Y-93968364D01*
X101731791Y-93960557D01*
X101742233Y-93894623D01*
X103948880Y-93894623D01*
X103987905Y-94040265D01*
X104064658Y-94170048D01*
X104173485Y-94274409D01*
X104306368Y-94345660D01*
X104346439Y-94354617D01*
X104445131Y-94376678D01*
X104445135Y-94376678D01*
X104453517Y-94378552D01*
X104547950Y-94373603D01*
X104595507Y-94371111D01*
X104595508Y-94371111D01*
X104604090Y-94370661D01*
X104746995Y-94322568D01*
X104871702Y-94237817D01*
X104877245Y-94231258D01*
X104877247Y-94231256D01*
X104939178Y-94157970D01*
X104969024Y-94122652D01*
X104972599Y-94114844D01*
X105028216Y-93993366D01*
X105028216Y-93993364D01*
X105031791Y-93985557D01*
X105055378Y-93836634D01*
X105055500Y-93825000D01*
X105035037Y-93675615D01*
X105024219Y-93650615D01*
X104978567Y-93545120D01*
X104978566Y-93545118D01*
X104975155Y-93537236D01*
X104921446Y-93470911D01*
X104885674Y-93426736D01*
X104885673Y-93426735D01*
X104880266Y-93420058D01*
X104873264Y-93415082D01*
X104873262Y-93415080D01*
X104764363Y-93337690D01*
X104757361Y-93332714D01*
X104615495Y-93281639D01*
X104606935Y-93281010D01*
X104606933Y-93281010D01*
X104528122Y-93275223D01*
X104465120Y-93270596D01*
X104317315Y-93300399D01*
X104182969Y-93368852D01*
X104176647Y-93374665D01*
X104176646Y-93374666D01*
X104124192Y-93422900D01*
X104071980Y-93470911D01*
X104067452Y-93478214D01*
X104067451Y-93478215D01*
X104028333Y-93541306D01*
X103992525Y-93599058D01*
X103950459Y-93743851D01*
X103948880Y-93894623D01*
X101742233Y-93894623D01*
X101755378Y-93811634D01*
X101755500Y-93800000D01*
X101735037Y-93650615D01*
X101687735Y-93541306D01*
X101678567Y-93520120D01*
X101678566Y-93520118D01*
X101675155Y-93512236D01*
X101621446Y-93445911D01*
X101585674Y-93401736D01*
X101585673Y-93401735D01*
X101580266Y-93395058D01*
X101573264Y-93390082D01*
X101573262Y-93390080D01*
X101464363Y-93312690D01*
X101457361Y-93307714D01*
X101333319Y-93263056D01*
X101276001Y-93221161D01*
X101250000Y-93144505D01*
X101250000Y-92620531D01*
X107699500Y-92620531D01*
X107699500Y-93339579D01*
X107715094Y-93463016D01*
X107731937Y-93505558D01*
X107772222Y-93607305D01*
X107775581Y-93615790D01*
X107780240Y-93622203D01*
X107780242Y-93622206D01*
X107826078Y-93685293D01*
X107872162Y-93748721D01*
X107878270Y-93753774D01*
X107992658Y-93848404D01*
X107992662Y-93848407D01*
X107998767Y-93853457D01*
X108147440Y-93923418D01*
X108155223Y-93924903D01*
X108155224Y-93924903D01*
X108301056Y-93952722D01*
X108301058Y-93952722D01*
X108308842Y-93954207D01*
X108390835Y-93949048D01*
X108464917Y-93944387D01*
X108464919Y-93944387D01*
X108472828Y-93943889D01*
X108480364Y-93941440D01*
X108480366Y-93941440D01*
X108621556Y-93895565D01*
X108621559Y-93895563D01*
X108629098Y-93893114D01*
X108767831Y-93805071D01*
X108833065Y-93735605D01*
X108874887Y-93691069D01*
X108880311Y-93685293D01*
X108885632Y-93675615D01*
X108931732Y-93591758D01*
X108959468Y-93541306D01*
X109000331Y-93382156D01*
X109000500Y-93379470D01*
X109000500Y-92660421D01*
X108984906Y-92536984D01*
X108956951Y-92466376D01*
X108927339Y-92391584D01*
X108927337Y-92391581D01*
X108924419Y-92384210D01*
X108827839Y-92251279D01*
X108701233Y-92146543D01*
X108552560Y-92076582D01*
X108544777Y-92075097D01*
X108544776Y-92075097D01*
X108398944Y-92047278D01*
X108398942Y-92047278D01*
X108391158Y-92045793D01*
X108309165Y-92050952D01*
X108235083Y-92055613D01*
X108235081Y-92055613D01*
X108227172Y-92056111D01*
X108219636Y-92058560D01*
X108219634Y-92058560D01*
X108078444Y-92104435D01*
X108078441Y-92104437D01*
X108070902Y-92106886D01*
X107932169Y-92194929D01*
X107926742Y-92200708D01*
X107926741Y-92200709D01*
X107825113Y-92308931D01*
X107825110Y-92308936D01*
X107819689Y-92314708D01*
X107740532Y-92458695D01*
X107699669Y-92617845D01*
X107699500Y-92620531D01*
X101250000Y-92620531D01*
X101250000Y-88876000D01*
X101270002Y-88807879D01*
X101323658Y-88761386D01*
X101376000Y-88750000D01*
X103112425Y-88750000D01*
X103180546Y-88770002D01*
G37*
G04 #@! TD.AperFunction*
G04 #@! TA.AperFunction,Conductor*
G36*
X113786905Y-99886905D02*
G01*
X113963095Y-100063095D01*
X114000000Y-100152190D01*
X114000000Y-100997467D01*
X113962682Y-101086974D01*
X113834972Y-101213507D01*
X113746290Y-101250000D01*
X108900228Y-101250000D01*
X108810721Y-101212682D01*
X108636493Y-101036833D01*
X108600000Y-100948151D01*
X108600000Y-100152190D01*
X108636905Y-100063095D01*
X108813095Y-99886905D01*
X108902190Y-99850000D01*
X113697810Y-99850000D01*
X113786905Y-99886905D01*
G37*
G04 #@! TD.AperFunction*
M02*
