G04 #@! TF.GenerationSoftware,KiCad,Pcbnew,(5.99.0-6495-g15369915cc)*
G04 #@! TF.CreationDate,2020-10-24T17:34:59+02:00*
G04 #@! TF.ProjectId,EVAL-MP8862,4556414c-2d4d-4503-9838-36322e6b6963,1B*
G04 #@! TF.SameCoordinates,Original*
G04 #@! TF.FileFunction,Soldermask,Top*
G04 #@! TF.FilePolarity,Negative*
%FSLAX46Y46*%
G04 Gerber Fmt 4.6, Leading zero omitted, Abs format (unit mm)*
G04 Created by KiCad (PCBNEW (5.99.0-6495-g15369915cc)) date 2020-10-24 17:34:59*
%MOMM*%
%LPD*%
G01*
G04 APERTURE LIST*
G04 Aperture macros list*
%AMRoundRect*
0 Rectangle with rounded corners*
0 $1 Rounding radius*
0 $2 $3 $4 $5 $6 $7 $8 $9 X,Y pos of 4 corners*
0 Add a 4 corners polygon primitive as box body*
4,1,4,$2,$3,$4,$5,$6,$7,$8,$9,$2,$3,0*
0 Add four circle primitives for the rounded corners*
1,1,$1+$1,$2,$3,0*
1,1,$1+$1,$4,$5,0*
1,1,$1+$1,$6,$7,0*
1,1,$1+$1,$8,$9,0*
0 Add four rect primitives between the rounded corners*
20,1,$1+$1,$2,$3,$4,$5,0*
20,1,$1+$1,$4,$5,$6,$7,0*
20,1,$1+$1,$6,$7,$8,$9,0*
20,1,$1+$1,$8,$9,$2,$3,0*%
G04 Aperture macros list end*
%ADD10RoundRect,0.244250X-0.281750X0.244250X-0.281750X-0.244250X0.281750X-0.244250X0.281750X0.244250X0*%
%ADD11RoundRect,0.270400X-1.105600X0.405600X-1.105600X-0.405600X1.105600X-0.405600X1.105600X0.405600X0*%
%ADD12RoundRect,0.244250X0.244250X0.281750X-0.244250X0.281750X-0.244250X-0.281750X0.244250X-0.281750X0*%
%ADD13RoundRect,0.270400X1.105600X-0.405600X1.105600X0.405600X-1.105600X0.405600X-1.105600X-0.405600X0*%
%ADD14RoundRect,0.270400X0.405600X1.105600X-0.405600X1.105600X-0.405600X-1.105600X0.405600X-1.105600X0*%
%ADD15RoundRect,0.270400X-0.405600X-1.105600X0.405600X-1.105600X0.405600X1.105600X-0.405600X1.105600X0*%
%ADD16RoundRect,0.244250X0.281750X-0.244250X0.281750X0.244250X-0.281750X0.244250X-0.281750X-0.244250X0*%
%ADD17RoundRect,0.051000X-0.125000X-0.400000X0.125000X-0.400000X0.125000X0.400000X-0.125000X0.400000X0*%
%ADD18RoundRect,0.051000X-0.125000X-0.350000X0.125000X-0.350000X0.125000X0.350000X-0.125000X0.350000X0*%
%ADD19RoundRect,0.051000X-0.350000X0.125000X-0.350000X-0.125000X0.350000X-0.125000X0.350000X0.125000X0*%
%ADD20RoundRect,0.051000X-0.600000X0.125000X-0.600000X-0.125000X0.600000X-0.125000X0.600000X0.125000X0*%
%ADD21RoundRect,0.625500X0.625500X1.125500X-0.625500X1.125500X-0.625500X-1.125500X0.625500X-1.125500X0*%
%ADD22RoundRect,0.596750X0.649250X-0.596750X0.649250X0.596750X-0.649250X0.596750X-0.649250X-0.596750X0*%
%ADD23RoundRect,0.572880X0.673120X-0.620620X0.673120X0.620620X-0.673120X0.620620X-0.673120X-0.620620X0*%
%ADD24RoundRect,0.051000X0.850000X0.850000X-0.850000X0.850000X-0.850000X-0.850000X0.850000X-0.850000X0*%
%ADD25O,1.802000X1.802000*%
%ADD26RoundRect,0.440800X0.360200X-0.110200X0.360200X0.110200X-0.360200X0.110200X-0.360200X-0.110200X0*%
G04 APERTURE END LIST*
D10*
X105230000Y-93045000D03*
X105230000Y-94620000D03*
D11*
X103200000Y-97660000D03*
X103200000Y-100460000D03*
D12*
X109725000Y-96030000D03*
X108150000Y-96030000D03*
D13*
X106640000Y-100460000D03*
X106640000Y-97660000D03*
D14*
X115375000Y-99575000D03*
X112575000Y-99575000D03*
D11*
X109950000Y-97650000D03*
X109950000Y-100450000D03*
D15*
X117125000Y-99575000D03*
X119925000Y-99575000D03*
D16*
X102280000Y-94620000D03*
X102280000Y-93045000D03*
X103750000Y-94620000D03*
X103750000Y-93045000D03*
D12*
X103820000Y-96030000D03*
X102245000Y-96030000D03*
D17*
X109090000Y-91500000D03*
D18*
X108590000Y-91450000D03*
X108090000Y-91450000D03*
X107590000Y-91450000D03*
D19*
X106890000Y-92150000D03*
D20*
X107140000Y-92650000D03*
X107140000Y-93150000D03*
D19*
X106890000Y-93650000D03*
D18*
X107590000Y-94350000D03*
X108090000Y-94350000D03*
X108590000Y-94350000D03*
X109090000Y-94350000D03*
D19*
X109790000Y-93650000D03*
D20*
X109540000Y-93150000D03*
X109540000Y-92650000D03*
D19*
X109790000Y-92150000D03*
D12*
X109607500Y-89930000D03*
X108032500Y-89930000D03*
D21*
X119350000Y-93300000D03*
X113350000Y-93300000D03*
D22*
X116350000Y-90247000D03*
D23*
X116350000Y-96353000D03*
D10*
X111100000Y-94425000D03*
X111100000Y-96000000D03*
D14*
X105200000Y-90100000D03*
X102400000Y-90100000D03*
D16*
X111150000Y-92175000D03*
X111150000Y-90600000D03*
D24*
X100000000Y-100000000D03*
D25*
X97460000Y-100000000D03*
X100000000Y-97460000D03*
X97460000Y-97460000D03*
X100000000Y-94920000D03*
X97460000Y-94920000D03*
X100000000Y-92380000D03*
X97460000Y-92380000D03*
X100000000Y-89840000D03*
X97460000Y-89840000D03*
D12*
X106797500Y-96030000D03*
X105222500Y-96030000D03*
G36*
X101463938Y-96863938D02*
G01*
X101500000Y-96849000D01*
X103000000Y-96849000D01*
X103036062Y-96863938D01*
X103051000Y-96900001D01*
X103051000Y-97400000D01*
X103045812Y-97412525D01*
X103044559Y-97480875D01*
X103042248Y-97495149D01*
X102999973Y-97630464D01*
X102993747Y-97643516D01*
X102915192Y-97761526D01*
X102905554Y-97772306D01*
X102797035Y-97863526D01*
X102784759Y-97871167D01*
X102654999Y-97928262D01*
X102641072Y-97932150D01*
X102506612Y-97949733D01*
X102506429Y-97948336D01*
X102499999Y-97951000D01*
X102000000Y-97951000D01*
X101998821Y-97950512D01*
X101986044Y-97950356D01*
X101845967Y-97928545D01*
X101832140Y-97924317D01*
X101703815Y-97864068D01*
X101691729Y-97856129D01*
X101585471Y-97762285D01*
X101576099Y-97751273D01*
X101500451Y-97631378D01*
X101494546Y-97618179D01*
X101455589Y-97481872D01*
X101453627Y-97467545D01*
X101453967Y-97411989D01*
X101449000Y-97400000D01*
X101449000Y-96900000D01*
X101463938Y-96863938D01*
G37*
D26*
X102250000Y-96100000D03*
G36*
X102836279Y-96580173D02*
G01*
X102837145Y-96581976D01*
X102836369Y-96583411D01*
X102826178Y-96591231D01*
X102825725Y-96591492D01*
X102781380Y-96609860D01*
X102780668Y-96609766D01*
X102780400Y-96610275D01*
X102726264Y-96653900D01*
X102704392Y-96719615D01*
X102721520Y-96786721D01*
X102772252Y-96833955D01*
X102827688Y-96847055D01*
X102829144Y-96848426D01*
X102828684Y-96850373D01*
X102827228Y-96851001D01*
X101512310Y-96851000D01*
X101510578Y-96850000D01*
X101510578Y-96848000D01*
X101512310Y-96847000D01*
X101672483Y-96847000D01*
X101739222Y-96827404D01*
X101784577Y-96775061D01*
X101794434Y-96706508D01*
X101765639Y-96643457D01*
X101735195Y-96621504D01*
X101734375Y-96619680D01*
X101735545Y-96618058D01*
X101736817Y-96617934D01*
X101864883Y-96647619D01*
X101900028Y-96649000D01*
X102599848Y-96649000D01*
X102732016Y-96629130D01*
X102778279Y-96606915D01*
X102779187Y-96606984D01*
X102779749Y-96606209D01*
X102834285Y-96580021D01*
X102836279Y-96580173D01*
G37*
G36*
X108755660Y-93967493D02*
G01*
X108769452Y-93976709D01*
X108770615Y-93974969D01*
X108772409Y-93974084D01*
X108773560Y-93974545D01*
X108790952Y-93989078D01*
X108859532Y-93997687D01*
X108903376Y-93969510D01*
X108906120Y-93970082D01*
X108910548Y-93976709D01*
X108924340Y-93967493D01*
X108926336Y-93967362D01*
X108927447Y-93969025D01*
X108927114Y-93970267D01*
X108919767Y-93981262D01*
X108916000Y-94000199D01*
X108916000Y-94699801D01*
X108919767Y-94718738D01*
X108927114Y-94729733D01*
X108927245Y-94731729D01*
X108925582Y-94732840D01*
X108924340Y-94732507D01*
X108910548Y-94723291D01*
X108909385Y-94725031D01*
X108907591Y-94725916D01*
X108906440Y-94725455D01*
X108889048Y-94710922D01*
X108820468Y-94702313D01*
X108776624Y-94730490D01*
X108773880Y-94729918D01*
X108769452Y-94723291D01*
X108755660Y-94732507D01*
X108753664Y-94732638D01*
X108752553Y-94730975D01*
X108752886Y-94729733D01*
X108760233Y-94718738D01*
X108764000Y-94699801D01*
X108764000Y-94000199D01*
X108760233Y-93981262D01*
X108752886Y-93970267D01*
X108752755Y-93968271D01*
X108754418Y-93967160D01*
X108755660Y-93967493D01*
G37*
G36*
X108255660Y-93967493D02*
G01*
X108269452Y-93976709D01*
X108270615Y-93974969D01*
X108272409Y-93974084D01*
X108273560Y-93974545D01*
X108290952Y-93989078D01*
X108359532Y-93997687D01*
X108403376Y-93969510D01*
X108406120Y-93970082D01*
X108410548Y-93976709D01*
X108424340Y-93967493D01*
X108426336Y-93967362D01*
X108427447Y-93969025D01*
X108427114Y-93970267D01*
X108419767Y-93981262D01*
X108416000Y-94000199D01*
X108416000Y-94699801D01*
X108419767Y-94718738D01*
X108427114Y-94729733D01*
X108427245Y-94731729D01*
X108425582Y-94732840D01*
X108424340Y-94732507D01*
X108410548Y-94723291D01*
X108409385Y-94725031D01*
X108407591Y-94725916D01*
X108406440Y-94725455D01*
X108389048Y-94710922D01*
X108320468Y-94702313D01*
X108276624Y-94730490D01*
X108273880Y-94729918D01*
X108269452Y-94723291D01*
X108255660Y-94732507D01*
X108253664Y-94732638D01*
X108252553Y-94730975D01*
X108252886Y-94729733D01*
X108260233Y-94718738D01*
X108264000Y-94699801D01*
X108264000Y-94000199D01*
X108260233Y-93981262D01*
X108252886Y-93970267D01*
X108252755Y-93968271D01*
X108254418Y-93967160D01*
X108255660Y-93967493D01*
G37*
G36*
X107755660Y-93967493D02*
G01*
X107769452Y-93976709D01*
X107770615Y-93974969D01*
X107772409Y-93974084D01*
X107773560Y-93974545D01*
X107790952Y-93989078D01*
X107859532Y-93997687D01*
X107903376Y-93969510D01*
X107906120Y-93970082D01*
X107910548Y-93976709D01*
X107924340Y-93967493D01*
X107926336Y-93967362D01*
X107927447Y-93969025D01*
X107927114Y-93970267D01*
X107919767Y-93981262D01*
X107916000Y-94000199D01*
X107916000Y-94699801D01*
X107919767Y-94718738D01*
X107927114Y-94729733D01*
X107927245Y-94731729D01*
X107925582Y-94732840D01*
X107924340Y-94732507D01*
X107910548Y-94723291D01*
X107909385Y-94725031D01*
X107907591Y-94725916D01*
X107906440Y-94725455D01*
X107889048Y-94710922D01*
X107820468Y-94702313D01*
X107776624Y-94730490D01*
X107773880Y-94729918D01*
X107769452Y-94723291D01*
X107755660Y-94732507D01*
X107753664Y-94732638D01*
X107752553Y-94730975D01*
X107752886Y-94729733D01*
X107760233Y-94718738D01*
X107764000Y-94699801D01*
X107764000Y-94000199D01*
X107760233Y-93981262D01*
X107752886Y-93970267D01*
X107752755Y-93968271D01*
X107754418Y-93967160D01*
X107755660Y-93967493D01*
G37*
G36*
X110172840Y-93314418D02*
G01*
X110172507Y-93315660D01*
X110163291Y-93329452D01*
X110165031Y-93330615D01*
X110165916Y-93332409D01*
X110165455Y-93333560D01*
X110150922Y-93350952D01*
X110142313Y-93419532D01*
X110170490Y-93463376D01*
X110169918Y-93466120D01*
X110163291Y-93470548D01*
X110172507Y-93484340D01*
X110172638Y-93486336D01*
X110170975Y-93487447D01*
X110169733Y-93487114D01*
X110158738Y-93479767D01*
X110139801Y-93476000D01*
X109440199Y-93476000D01*
X109421262Y-93479767D01*
X109405380Y-93490380D01*
X109398032Y-93501376D01*
X109396238Y-93502261D01*
X109394575Y-93501150D01*
X109394407Y-93499875D01*
X109397643Y-93483605D01*
X109397540Y-93483585D01*
X109396036Y-93482266D01*
X109396021Y-93481025D01*
X109404736Y-93453196D01*
X109386415Y-93386406D01*
X109334841Y-93340077D01*
X109281398Y-93327950D01*
X109279931Y-93326592D01*
X109280373Y-93324642D01*
X109281841Y-93324000D01*
X110139801Y-93324000D01*
X110158738Y-93320233D01*
X110169733Y-93312886D01*
X110171729Y-93312755D01*
X110172840Y-93314418D01*
G37*
G36*
X106510267Y-93312886D02*
G01*
X106521262Y-93320233D01*
X106540199Y-93324000D01*
X107398159Y-93324000D01*
X107399891Y-93325000D01*
X107399891Y-93327000D01*
X107398722Y-93327919D01*
X107331707Y-93347596D01*
X107286352Y-93399939D01*
X107276486Y-93468558D01*
X107282410Y-93484016D01*
X107282504Y-93484342D01*
X107285594Y-93499876D01*
X107284951Y-93501770D01*
X107282989Y-93502160D01*
X107281969Y-93501377D01*
X107274620Y-93490380D01*
X107258738Y-93479767D01*
X107239801Y-93476000D01*
X106540199Y-93476000D01*
X106521262Y-93479767D01*
X106510267Y-93487114D01*
X106508271Y-93487245D01*
X106507160Y-93485582D01*
X106507493Y-93484340D01*
X106516709Y-93470548D01*
X106514969Y-93469385D01*
X106514084Y-93467591D01*
X106514545Y-93466440D01*
X106529078Y-93449048D01*
X106537687Y-93380468D01*
X106509510Y-93336624D01*
X106510082Y-93333880D01*
X106516709Y-93329452D01*
X106507493Y-93315660D01*
X106507362Y-93313664D01*
X106509025Y-93312553D01*
X106510267Y-93312886D01*
G37*
G36*
X108910267Y-92812886D02*
G01*
X108921262Y-92820233D01*
X108940199Y-92824000D01*
X110139801Y-92824000D01*
X110158738Y-92820233D01*
X110169733Y-92812886D01*
X110171729Y-92812755D01*
X110172840Y-92814418D01*
X110172507Y-92815660D01*
X110163291Y-92829452D01*
X110165031Y-92830615D01*
X110165916Y-92832409D01*
X110165455Y-92833560D01*
X110150922Y-92850952D01*
X110142313Y-92919532D01*
X110170490Y-92963376D01*
X110169918Y-92966120D01*
X110163291Y-92970548D01*
X110172507Y-92984340D01*
X110172638Y-92986336D01*
X110170975Y-92987447D01*
X110169733Y-92987114D01*
X110158738Y-92979767D01*
X110139801Y-92976000D01*
X108940199Y-92976000D01*
X108921262Y-92979767D01*
X108910267Y-92987114D01*
X108908271Y-92987245D01*
X108907160Y-92985582D01*
X108907493Y-92984340D01*
X108916709Y-92970548D01*
X108914969Y-92969385D01*
X108914084Y-92967591D01*
X108914545Y-92966440D01*
X108929078Y-92949048D01*
X108937687Y-92880468D01*
X108909510Y-92836624D01*
X108910082Y-92833880D01*
X108916709Y-92829452D01*
X108907493Y-92815660D01*
X108907362Y-92813664D01*
X108909025Y-92812553D01*
X108910267Y-92812886D01*
G37*
G36*
X106510267Y-92812886D02*
G01*
X106521262Y-92820233D01*
X106540199Y-92824000D01*
X107739801Y-92824000D01*
X107758738Y-92820233D01*
X107769733Y-92812886D01*
X107771729Y-92812755D01*
X107772840Y-92814418D01*
X107772507Y-92815660D01*
X107763291Y-92829452D01*
X107765031Y-92830615D01*
X107765916Y-92832409D01*
X107765455Y-92833560D01*
X107750922Y-92850952D01*
X107742313Y-92919532D01*
X107770490Y-92963376D01*
X107769918Y-92966120D01*
X107763291Y-92970548D01*
X107772507Y-92984340D01*
X107772638Y-92986336D01*
X107770975Y-92987447D01*
X107769733Y-92987114D01*
X107758738Y-92979767D01*
X107739801Y-92976000D01*
X106540199Y-92976000D01*
X106521262Y-92979767D01*
X106510267Y-92987114D01*
X106508271Y-92987245D01*
X106507160Y-92985582D01*
X106507493Y-92984340D01*
X106516709Y-92970548D01*
X106514969Y-92969385D01*
X106514084Y-92967591D01*
X106514545Y-92966440D01*
X106529078Y-92949048D01*
X106537687Y-92880468D01*
X106509510Y-92836624D01*
X106510082Y-92833880D01*
X106516709Y-92829452D01*
X106507493Y-92815660D01*
X106507362Y-92813664D01*
X106509025Y-92812553D01*
X106510267Y-92812886D01*
G37*
G36*
X109398031Y-92298623D02*
G01*
X109405380Y-92309620D01*
X109421262Y-92320233D01*
X109440199Y-92324000D01*
X110139801Y-92324000D01*
X110158738Y-92320233D01*
X110169733Y-92312886D01*
X110171729Y-92312755D01*
X110172840Y-92314418D01*
X110172507Y-92315660D01*
X110163291Y-92329452D01*
X110165031Y-92330615D01*
X110165916Y-92332409D01*
X110165455Y-92333560D01*
X110150922Y-92350952D01*
X110142313Y-92419532D01*
X110170490Y-92463376D01*
X110169918Y-92466120D01*
X110163291Y-92470548D01*
X110172507Y-92484340D01*
X110172638Y-92486336D01*
X110170975Y-92487447D01*
X110169733Y-92487114D01*
X110158738Y-92479767D01*
X110139801Y-92476000D01*
X109281841Y-92476000D01*
X109280109Y-92475000D01*
X109280109Y-92473000D01*
X109281278Y-92472081D01*
X109348293Y-92452404D01*
X109393648Y-92400061D01*
X109403514Y-92331442D01*
X109397590Y-92315984D01*
X109397496Y-92315658D01*
X109394406Y-92300124D01*
X109395049Y-92298230D01*
X109397011Y-92297840D01*
X109398031Y-92298623D01*
G37*
G36*
X107285425Y-92298850D02*
G01*
X107285593Y-92300125D01*
X107282357Y-92316395D01*
X107282460Y-92316415D01*
X107283964Y-92317734D01*
X107283979Y-92318975D01*
X107275264Y-92346804D01*
X107293585Y-92413594D01*
X107345159Y-92459923D01*
X107398602Y-92472050D01*
X107400069Y-92473408D01*
X107399627Y-92475358D01*
X107398159Y-92476000D01*
X106540199Y-92476000D01*
X106521262Y-92479767D01*
X106510267Y-92487114D01*
X106508271Y-92487245D01*
X106507160Y-92485582D01*
X106507493Y-92484340D01*
X106516709Y-92470548D01*
X106514969Y-92469385D01*
X106514084Y-92467591D01*
X106514545Y-92466440D01*
X106529078Y-92449048D01*
X106537687Y-92380468D01*
X106509510Y-92336624D01*
X106510082Y-92333880D01*
X106516709Y-92329452D01*
X106507493Y-92315660D01*
X106507362Y-92313664D01*
X106509025Y-92312553D01*
X106510267Y-92312886D01*
X106521262Y-92320233D01*
X106540199Y-92324000D01*
X107239801Y-92324000D01*
X107258738Y-92320233D01*
X107274620Y-92309620D01*
X107281968Y-92298624D01*
X107283762Y-92297739D01*
X107285425Y-92298850D01*
G37*
G36*
X108755660Y-91067493D02*
G01*
X108769452Y-91076709D01*
X108770615Y-91074969D01*
X108772409Y-91074084D01*
X108773560Y-91074545D01*
X108790952Y-91089078D01*
X108859532Y-91097687D01*
X108903376Y-91069510D01*
X108906120Y-91070082D01*
X108910548Y-91076709D01*
X108924340Y-91067493D01*
X108926336Y-91067362D01*
X108927447Y-91069025D01*
X108927114Y-91070267D01*
X108919767Y-91081262D01*
X108916000Y-91100199D01*
X108916000Y-91899801D01*
X108918620Y-91912971D01*
X108917977Y-91914865D01*
X108916015Y-91915255D01*
X108914995Y-91914472D01*
X108905984Y-91900987D01*
X108905875Y-91900803D01*
X108887662Y-91865987D01*
X108827597Y-91831784D01*
X108758765Y-91844204D01*
X108756448Y-91842626D01*
X108756394Y-91842357D01*
X108740125Y-91845593D01*
X108738231Y-91844950D01*
X108737841Y-91842988D01*
X108738624Y-91841968D01*
X108749620Y-91834620D01*
X108760233Y-91818738D01*
X108764000Y-91799801D01*
X108764000Y-91100199D01*
X108760233Y-91081262D01*
X108752886Y-91070267D01*
X108752755Y-91068271D01*
X108754418Y-91067160D01*
X108755660Y-91067493D01*
G37*
G36*
X108255660Y-91067493D02*
G01*
X108269452Y-91076709D01*
X108270615Y-91074969D01*
X108272409Y-91074084D01*
X108273560Y-91074545D01*
X108290952Y-91089078D01*
X108359532Y-91097687D01*
X108403376Y-91069510D01*
X108406120Y-91070082D01*
X108410548Y-91076709D01*
X108424340Y-91067493D01*
X108426336Y-91067362D01*
X108427447Y-91069025D01*
X108427114Y-91070267D01*
X108419767Y-91081262D01*
X108416000Y-91100199D01*
X108416000Y-91799801D01*
X108419767Y-91818738D01*
X108427114Y-91829733D01*
X108427245Y-91831729D01*
X108425582Y-91832840D01*
X108424340Y-91832507D01*
X108410548Y-91823291D01*
X108409385Y-91825031D01*
X108407591Y-91825916D01*
X108406440Y-91825455D01*
X108389048Y-91810922D01*
X108320468Y-91802313D01*
X108276624Y-91830490D01*
X108273880Y-91829918D01*
X108269452Y-91823291D01*
X108255660Y-91832507D01*
X108253664Y-91832638D01*
X108252553Y-91830975D01*
X108252886Y-91829733D01*
X108260233Y-91818738D01*
X108264000Y-91799801D01*
X108264000Y-91100199D01*
X108260233Y-91081262D01*
X108252886Y-91070267D01*
X108252755Y-91068271D01*
X108254418Y-91067160D01*
X108255660Y-91067493D01*
G37*
G36*
X107755660Y-91067493D02*
G01*
X107769452Y-91076709D01*
X107770615Y-91074969D01*
X107772409Y-91074084D01*
X107773560Y-91074545D01*
X107790952Y-91089078D01*
X107859532Y-91097687D01*
X107903376Y-91069510D01*
X107906120Y-91070082D01*
X107910548Y-91076709D01*
X107924340Y-91067493D01*
X107926336Y-91067362D01*
X107927447Y-91069025D01*
X107927114Y-91070267D01*
X107919767Y-91081262D01*
X107916000Y-91100199D01*
X107916000Y-91799801D01*
X107919767Y-91818738D01*
X107927114Y-91829733D01*
X107927245Y-91831729D01*
X107925582Y-91832840D01*
X107924340Y-91832507D01*
X107910548Y-91823291D01*
X107909385Y-91825031D01*
X107907591Y-91825916D01*
X107906440Y-91825455D01*
X107889048Y-91810922D01*
X107820468Y-91802313D01*
X107776624Y-91830490D01*
X107773880Y-91829918D01*
X107769452Y-91823291D01*
X107755660Y-91832507D01*
X107753664Y-91832638D01*
X107752553Y-91830975D01*
X107752886Y-91829733D01*
X107760233Y-91818738D01*
X107764000Y-91799801D01*
X107764000Y-91100199D01*
X107760233Y-91081262D01*
X107752886Y-91070267D01*
X107752755Y-91068271D01*
X107754418Y-91067160D01*
X107755660Y-91067493D01*
G37*
M02*
