G04 #@! TF.GenerationSoftware,KiCad,Pcbnew,(5.99.0-6495-g15369915cc)*
G04 #@! TF.CreationDate,2020-10-24T17:34:58+02:00*
G04 #@! TF.ProjectId,EVAL-MP8862,4556414c-2d4d-4503-9838-36322e6b6963,1B*
G04 #@! TF.SameCoordinates,Original*
G04 #@! TF.FileFunction,Copper,L2,Inr*
G04 #@! TF.FilePolarity,Positive*
%FSLAX46Y46*%
G04 Gerber Fmt 4.6, Leading zero omitted, Abs format (unit mm)*
G04 Created by KiCad (PCBNEW (5.99.0-6495-g15369915cc)) date 2020-10-24 17:34:58*
%MOMM*%
%LPD*%
G01*
G04 APERTURE LIST*
G04 #@! TA.AperFunction,ComponentPad*
%ADD10R,1.700000X1.700000*%
G04 #@! TD*
G04 #@! TA.AperFunction,ComponentPad*
%ADD11O,1.700000X1.700000*%
G04 #@! TD*
G04 #@! TA.AperFunction,ViaPad*
%ADD12C,0.700000*%
G04 #@! TD*
G04 #@! TA.AperFunction,ViaPad*
%ADD13C,0.600000*%
G04 #@! TD*
G04 #@! TA.AperFunction,ViaPad*
%ADD14C,0.800000*%
G04 #@! TD*
G04 #@! TA.AperFunction,Conductor*
%ADD15C,0.250000*%
G04 #@! TD*
G04 #@! TA.AperFunction,Conductor*
%ADD16C,0.600000*%
G04 #@! TD*
G04 APERTURE END LIST*
D10*
X100000000Y-100000000D03*
D11*
X97460000Y-100000000D03*
X100000000Y-97460000D03*
X97460000Y-97460000D03*
X100000000Y-94920000D03*
X97460000Y-94920000D03*
X100000000Y-92380000D03*
X97460000Y-92380000D03*
X100000000Y-89840000D03*
X97460000Y-89840000D03*
D12*
X108350000Y-92700000D03*
D13*
X103550000Y-100925000D03*
X102850000Y-100925000D03*
X102175000Y-100925000D03*
X103850000Y-89075000D03*
D14*
X118150000Y-89275000D03*
X114550000Y-96550000D03*
X114550000Y-95875000D03*
D12*
X108350000Y-95125000D03*
D13*
X113600000Y-100150000D03*
X109575000Y-100925000D03*
X119000000Y-100550000D03*
X119000000Y-98600000D03*
D14*
X114550000Y-89275000D03*
D13*
X105625000Y-97050000D03*
D14*
X118150000Y-96550000D03*
D12*
X108350000Y-93300000D03*
D13*
X104225000Y-100925000D03*
D14*
X118150000Y-89950000D03*
D13*
X110275000Y-100925000D03*
X113600000Y-100775000D03*
X107675000Y-97050000D03*
D14*
X114550000Y-89950000D03*
D13*
X103850000Y-89750000D03*
X111600000Y-100150000D03*
X103850000Y-91107470D03*
X108700000Y-90600000D03*
X111600000Y-100800000D03*
X107000000Y-97050000D03*
D14*
X118150000Y-95875000D03*
D13*
X103850000Y-90450000D03*
X106300000Y-97050000D03*
X110950000Y-100925000D03*
X119000000Y-99900000D03*
X108900000Y-100925000D03*
X119000000Y-99250000D03*
X104500000Y-93825000D03*
X104900000Y-89100000D03*
X105600000Y-89100000D03*
X105600000Y-91100000D03*
D12*
X109800000Y-91000000D03*
D13*
X104900000Y-91100000D03*
X116250000Y-98600000D03*
X110300000Y-97025000D03*
X110975000Y-97025000D03*
D12*
X109475000Y-95100000D03*
D13*
X116250000Y-99900000D03*
X116250000Y-99250000D03*
X109600000Y-97025000D03*
X116250000Y-100550000D03*
X108925000Y-97025000D03*
X106900000Y-90800000D03*
X101200000Y-93800000D03*
X106456232Y-91465649D03*
X105990000Y-95360000D03*
X106949998Y-94350000D03*
D15*
X102990000Y-93310000D02*
X101910000Y-93310000D01*
X101910000Y-93310000D02*
X101290000Y-92690000D01*
X101290000Y-92690000D02*
X101290000Y-91610000D01*
X98309999Y-90689999D02*
X97460000Y-89840000D01*
X98720000Y-91100000D02*
X98309999Y-90689999D01*
X104500000Y-93825000D02*
X103505000Y-93825000D01*
X103505000Y-93825000D02*
X102990000Y-93310000D01*
X100780000Y-91100000D02*
X98720000Y-91100000D01*
X101290000Y-91610000D02*
X100780000Y-91100000D01*
D16*
X105600000Y-91100000D02*
X104900000Y-91100000D01*
X104900000Y-89100000D02*
X105600000Y-89100000D01*
X108925000Y-97025000D02*
X110975000Y-97025000D01*
X116250000Y-100600000D02*
X116250000Y-98550000D01*
D15*
X107120000Y-91020000D02*
X107120000Y-92130002D01*
X103310001Y-94450001D02*
X102660000Y-93800000D01*
X104800001Y-94450001D02*
X103310001Y-94450001D01*
X107120000Y-92130002D02*
X104800001Y-94450001D01*
X102660000Y-93800000D02*
X101200000Y-93800000D01*
X106900000Y-90800000D02*
X107120000Y-91020000D01*
G04 #@! TA.AperFunction,Conductor*
G36*
X104328872Y-88770002D02*
G01*
X104375365Y-88823658D01*
X104381749Y-88911150D01*
X104377417Y-88926061D01*
X104374982Y-88933554D01*
X104356639Y-88984505D01*
X104356010Y-88993067D01*
X104354223Y-89001475D01*
X104354048Y-89001438D01*
X104353933Y-89002079D01*
X104354110Y-89002105D01*
X104352855Y-89010604D01*
X104350459Y-89018851D01*
X104350369Y-89027437D01*
X104350369Y-89027438D01*
X104349893Y-89072974D01*
X104349561Y-89080886D01*
X104346224Y-89126311D01*
X104346225Y-89126321D01*
X104345596Y-89134880D01*
X104347293Y-89143296D01*
X104347833Y-89151874D01*
X104347655Y-89151885D01*
X104347717Y-89152534D01*
X104347894Y-89152512D01*
X104348970Y-89161033D01*
X104348880Y-89169623D01*
X104351103Y-89177918D01*
X104351103Y-89177921D01*
X104362894Y-89221924D01*
X104364701Y-89229630D01*
X104372512Y-89268365D01*
X104375399Y-89282685D01*
X104379300Y-89290341D01*
X104382125Y-89298452D01*
X104381955Y-89298511D01*
X104382189Y-89299119D01*
X104382354Y-89299049D01*
X104385681Y-89306964D01*
X104387905Y-89315265D01*
X104397494Y-89331479D01*
X104415467Y-89361871D01*
X104419279Y-89368805D01*
X104443852Y-89417031D01*
X104449667Y-89423355D01*
X104454569Y-89430408D01*
X104454422Y-89430510D01*
X104454810Y-89431032D01*
X104454949Y-89430922D01*
X104460286Y-89437655D01*
X104464658Y-89445048D01*
X104494084Y-89473266D01*
X104503744Y-89482530D01*
X104509266Y-89488169D01*
X104545911Y-89528020D01*
X104553208Y-89532544D01*
X104559830Y-89538023D01*
X104559716Y-89538161D01*
X104560230Y-89538559D01*
X104560335Y-89538414D01*
X104567282Y-89543461D01*
X104573485Y-89549409D01*
X104621190Y-89574988D01*
X104628044Y-89578945D01*
X104674058Y-89607475D01*
X104682310Y-89609872D01*
X104690157Y-89613366D01*
X104690084Y-89613529D01*
X104690681Y-89613773D01*
X104690743Y-89613605D01*
X104698796Y-89616600D01*
X104706368Y-89620660D01*
X104759224Y-89632475D01*
X104766845Y-89634432D01*
X104818851Y-89649541D01*
X104825429Y-89650024D01*
X104831911Y-89650500D01*
X104831900Y-89650646D01*
X104836548Y-89651245D01*
X104836572Y-89650960D01*
X104845139Y-89651679D01*
X104853517Y-89653552D01*
X104862090Y-89653103D01*
X104862094Y-89653103D01*
X104908453Y-89650673D01*
X104915047Y-89650500D01*
X105525950Y-89650500D01*
X105536513Y-89651659D01*
X105536572Y-89650960D01*
X105545139Y-89651679D01*
X105553517Y-89653552D01*
X105562090Y-89653103D01*
X105562094Y-89653103D01*
X105608453Y-89650673D01*
X105615047Y-89650500D01*
X105636501Y-89650500D01*
X105640740Y-89649919D01*
X105640743Y-89649919D01*
X105643963Y-89649478D01*
X105646612Y-89649115D01*
X105657118Y-89648122D01*
X105664793Y-89647720D01*
X105695508Y-89646111D01*
X105695510Y-89646111D01*
X105704090Y-89645661D01*
X105714947Y-89642007D01*
X105738032Y-89636592D01*
X105749385Y-89635037D01*
X105757270Y-89631625D01*
X105792559Y-89616354D01*
X105802411Y-89612572D01*
X105838854Y-89600308D01*
X105838856Y-89600307D01*
X105846995Y-89597568D01*
X105856472Y-89591127D01*
X105877253Y-89579704D01*
X105887764Y-89575155D01*
X105924328Y-89545546D01*
X105932796Y-89539258D01*
X105964595Y-89517648D01*
X105964600Y-89517644D01*
X105971702Y-89512817D01*
X105979097Y-89504066D01*
X105996041Y-89487474D01*
X105998267Y-89485672D01*
X105998270Y-89485669D01*
X106004942Y-89480266D01*
X106032194Y-89441919D01*
X106038661Y-89433582D01*
X106063482Y-89404210D01*
X106069024Y-89397652D01*
X106073796Y-89387230D01*
X106085650Y-89366699D01*
X106087309Y-89364364D01*
X106092286Y-89357361D01*
X106108221Y-89313099D01*
X106112208Y-89303330D01*
X106128216Y-89268365D01*
X106131791Y-89260557D01*
X106133135Y-89252072D01*
X106133584Y-89249240D01*
X106139480Y-89226277D01*
X106140452Y-89223576D01*
X106140453Y-89223573D01*
X106143361Y-89215495D01*
X106146807Y-89168573D01*
X106148019Y-89158093D01*
X106155378Y-89111634D01*
X106155500Y-89100000D01*
X106154873Y-89095426D01*
X106154583Y-89090812D01*
X106154761Y-89090801D01*
X106154492Y-89082250D01*
X106154315Y-89082261D01*
X106153775Y-89073681D01*
X106154404Y-89065120D01*
X106152707Y-89056706D01*
X106152707Y-89056700D01*
X106143703Y-89012048D01*
X106142383Y-89004243D01*
X106136203Y-88959125D01*
X106136202Y-88959123D01*
X106135037Y-88950615D01*
X106131626Y-88942733D01*
X106129316Y-88934458D01*
X106129488Y-88934410D01*
X106129293Y-88933789D01*
X106129125Y-88933847D01*
X106126298Y-88925729D01*
X106124601Y-88917315D01*
X106123276Y-88914714D01*
X106119896Y-88846531D01*
X106155275Y-88784977D01*
X106242401Y-88750000D01*
X120624000Y-88750000D01*
X120692121Y-88770002D01*
X120738614Y-88823658D01*
X120750000Y-88876000D01*
X120750001Y-101124000D01*
X120729999Y-101192121D01*
X120676343Y-101238614D01*
X120624001Y-101250000D01*
X116679391Y-101250000D01*
X116611270Y-101229998D01*
X116564777Y-101176342D01*
X116554673Y-101106068D01*
X116594104Y-101031254D01*
X116678020Y-100954089D01*
X116689599Y-100935415D01*
X116752949Y-100833242D01*
X116752950Y-100833241D01*
X116757475Y-100825942D01*
X116799541Y-100681149D01*
X116800500Y-100668089D01*
X116800500Y-100602350D01*
X116802051Y-100582639D01*
X116805378Y-100561634D01*
X116805500Y-100550000D01*
X116801666Y-100522011D01*
X116800500Y-100504911D01*
X116800500Y-99952350D01*
X116802051Y-99932639D01*
X116804656Y-99916190D01*
X116805378Y-99911634D01*
X116805500Y-99900000D01*
X116801666Y-99872011D01*
X116800500Y-99854911D01*
X116800500Y-99302350D01*
X116802051Y-99282639D01*
X116804656Y-99266190D01*
X116805378Y-99261634D01*
X116805500Y-99250000D01*
X116801666Y-99222011D01*
X116800500Y-99204911D01*
X116800500Y-98652350D01*
X116802051Y-98632639D01*
X116804656Y-98616190D01*
X116805378Y-98611634D01*
X116805500Y-98600000D01*
X116801666Y-98572011D01*
X116800500Y-98554911D01*
X116800500Y-98513499D01*
X116799049Y-98502900D01*
X116791252Y-98445984D01*
X116785037Y-98400615D01*
X116738333Y-98292688D01*
X116728567Y-98270120D01*
X116728566Y-98270118D01*
X116725155Y-98262236D01*
X116630266Y-98145058D01*
X116623264Y-98140082D01*
X116623262Y-98140080D01*
X116514363Y-98062690D01*
X116507361Y-98057714D01*
X116365495Y-98006639D01*
X116356935Y-98006010D01*
X116356933Y-98006010D01*
X116277863Y-98000204D01*
X116215121Y-97995596D01*
X116067316Y-98025399D01*
X115932970Y-98093852D01*
X115926648Y-98099665D01*
X115926647Y-98099666D01*
X115870021Y-98151736D01*
X115821981Y-98195911D01*
X115817453Y-98203214D01*
X115817452Y-98203215D01*
X115775969Y-98270120D01*
X115742526Y-98324058D01*
X115700460Y-98468851D01*
X115699501Y-98481911D01*
X115699501Y-98609680D01*
X115699494Y-98611000D01*
X115698880Y-98669623D01*
X115699400Y-98671565D01*
X115699501Y-98673163D01*
X115699501Y-99259709D01*
X115699494Y-99261029D01*
X115698880Y-99319623D01*
X115699401Y-99321564D01*
X115699501Y-99323160D01*
X115699500Y-99909740D01*
X115699493Y-99911059D01*
X115698880Y-99969623D01*
X115699400Y-99971564D01*
X115699500Y-99973159D01*
X115699500Y-100559767D01*
X115699493Y-100561086D01*
X115698880Y-100619623D01*
X115699400Y-100621563D01*
X115699500Y-100623157D01*
X115699500Y-100636500D01*
X115700082Y-100640746D01*
X115700082Y-100640752D01*
X115713797Y-100740875D01*
X115714963Y-100749384D01*
X115718374Y-100757266D01*
X115761129Y-100856067D01*
X115774845Y-100887764D01*
X115780254Y-100894444D01*
X115780255Y-100894445D01*
X115831344Y-100957534D01*
X115869734Y-101004942D01*
X115892744Y-101021294D01*
X115936684Y-101077058D01*
X115943501Y-101147727D01*
X115911029Y-101210862D01*
X115819755Y-101250000D01*
X101111391Y-101250000D01*
X101043270Y-101229998D01*
X100996777Y-101176342D01*
X100986673Y-101106068D01*
X101021722Y-101036052D01*
X101030312Y-101030312D01*
X101077358Y-100959903D01*
X101078696Y-100957901D01*
X101078697Y-100957899D01*
X101085589Y-100947584D01*
X101093877Y-100905921D01*
X101103793Y-100856067D01*
X101105000Y-100850000D01*
X101105000Y-99150000D01*
X101085589Y-99052416D01*
X101078697Y-99042101D01*
X101078696Y-99042099D01*
X101037205Y-98980004D01*
X101030312Y-98969688D01*
X100965584Y-98926438D01*
X100957901Y-98921304D01*
X100957899Y-98921303D01*
X100947584Y-98914411D01*
X100935417Y-98911991D01*
X100935415Y-98911990D01*
X100860959Y-98897180D01*
X100850000Y-98895000D01*
X99150000Y-98895000D01*
X99139041Y-98897180D01*
X99064585Y-98911990D01*
X99064583Y-98911991D01*
X99052416Y-98914411D01*
X99042101Y-98921303D01*
X99042099Y-98921304D01*
X99034416Y-98926438D01*
X98969688Y-98969688D01*
X98962795Y-98980004D01*
X98921304Y-99042099D01*
X98921303Y-99042101D01*
X98914411Y-99052416D01*
X98895000Y-99150000D01*
X98895000Y-100850000D01*
X98896207Y-100856067D01*
X98906124Y-100905921D01*
X98914411Y-100947584D01*
X98921303Y-100957899D01*
X98921304Y-100957901D01*
X98922642Y-100959903D01*
X98969688Y-101030312D01*
X98978360Y-101036106D01*
X99011730Y-101097217D01*
X99006665Y-101168032D01*
X98964118Y-101224868D01*
X98888609Y-101250000D01*
X97960621Y-101250000D01*
X97892500Y-101229998D01*
X97846007Y-101176342D01*
X97835903Y-101106068D01*
X97865397Y-101041488D01*
X97908773Y-101009162D01*
X97909043Y-101009040D01*
X97914723Y-101007101D01*
X98096958Y-100902945D01*
X98256209Y-100766209D01*
X98276325Y-100740875D01*
X98294896Y-100717486D01*
X98386731Y-100601826D01*
X98391632Y-100592433D01*
X98481041Y-100421043D01*
X98483814Y-100415728D01*
X98543955Y-100214629D01*
X98564985Y-100005786D01*
X98565000Y-100000000D01*
X98545064Y-99791050D01*
X98485977Y-99589639D01*
X98457004Y-99533384D01*
X98392615Y-99408365D01*
X98392613Y-99408362D01*
X98389869Y-99403034D01*
X98260210Y-99237970D01*
X98255679Y-99234038D01*
X98255676Y-99234035D01*
X98106207Y-99104333D01*
X98101677Y-99100402D01*
X98096491Y-99097402D01*
X98096487Y-99097399D01*
X97925186Y-98998300D01*
X97919990Y-98995294D01*
X97721706Y-98926438D01*
X97715771Y-98925577D01*
X97715769Y-98925577D01*
X97519919Y-98897180D01*
X97519916Y-98897180D01*
X97513979Y-98896319D01*
X97304304Y-98906024D01*
X97173445Y-98937561D01*
X97106080Y-98953796D01*
X97106078Y-98953797D01*
X97100247Y-98955202D01*
X97094789Y-98957684D01*
X97094785Y-98957685D01*
X97012069Y-98995294D01*
X96909171Y-99042079D01*
X96737970Y-99163520D01*
X96592822Y-99315144D01*
X96589571Y-99320179D01*
X96481852Y-99487006D01*
X96428097Y-99533384D01*
X96357801Y-99543337D01*
X96293284Y-99513705D01*
X96250000Y-99418658D01*
X96250000Y-98040401D01*
X96270002Y-97972280D01*
X96323658Y-97925787D01*
X96393932Y-97915683D01*
X96458512Y-97945177D01*
X96482207Y-97972608D01*
X96589248Y-98140306D01*
X96733600Y-98292688D01*
X96738465Y-98296178D01*
X96738468Y-98296180D01*
X96873080Y-98392730D01*
X96904163Y-98415024D01*
X96909608Y-98417534D01*
X97044247Y-98479603D01*
X97094782Y-98502900D01*
X97100598Y-98504334D01*
X97100601Y-98504335D01*
X97155171Y-98517789D01*
X97298578Y-98553146D01*
X97304568Y-98553455D01*
X97304570Y-98553455D01*
X97378178Y-98557248D01*
X97508199Y-98563948D01*
X97514134Y-98563119D01*
X97514138Y-98563119D01*
X97666960Y-98541777D01*
X97716081Y-98534917D01*
X97914723Y-98467101D01*
X98096958Y-98362945D01*
X98256209Y-98226209D01*
X98386731Y-98061826D01*
X98433274Y-97972609D01*
X98481041Y-97881043D01*
X98483814Y-97875728D01*
X98543955Y-97674629D01*
X98555289Y-97562069D01*
X98899724Y-97562069D01*
X98938875Y-97768285D01*
X99016315Y-97963377D01*
X99019539Y-97968428D01*
X99019540Y-97968430D01*
X99055903Y-98025399D01*
X99129248Y-98140306D01*
X99273600Y-98292688D01*
X99278465Y-98296178D01*
X99278468Y-98296180D01*
X99413080Y-98392730D01*
X99444163Y-98415024D01*
X99449608Y-98417534D01*
X99584247Y-98479603D01*
X99634782Y-98502900D01*
X99640598Y-98504334D01*
X99640601Y-98504335D01*
X99695171Y-98517789D01*
X99838578Y-98553146D01*
X99844568Y-98553455D01*
X99844570Y-98553455D01*
X99918178Y-98557248D01*
X100048199Y-98563948D01*
X100054134Y-98563119D01*
X100054138Y-98563119D01*
X100206960Y-98541777D01*
X100256081Y-98534917D01*
X100454723Y-98467101D01*
X100636958Y-98362945D01*
X100796209Y-98226209D01*
X100926731Y-98061826D01*
X100973274Y-97972609D01*
X101021041Y-97881043D01*
X101023814Y-97875728D01*
X101083955Y-97674629D01*
X101104985Y-97465786D01*
X101105000Y-97460000D01*
X101103345Y-97442648D01*
X101094151Y-97346290D01*
X101085064Y-97251050D01*
X101077164Y-97224119D01*
X101054294Y-97146163D01*
X101028982Y-97059880D01*
X108370596Y-97059880D01*
X108372293Y-97068296D01*
X108372833Y-97076874D01*
X108372655Y-97076885D01*
X108372717Y-97077534D01*
X108372894Y-97077512D01*
X108373970Y-97086033D01*
X108373880Y-97094623D01*
X108376103Y-97102918D01*
X108376103Y-97102921D01*
X108387894Y-97146924D01*
X108389701Y-97154630D01*
X108397512Y-97193365D01*
X108400399Y-97207685D01*
X108404300Y-97215341D01*
X108407125Y-97223452D01*
X108406955Y-97223511D01*
X108407189Y-97224119D01*
X108407354Y-97224049D01*
X108410681Y-97231964D01*
X108412905Y-97240265D01*
X108417279Y-97247661D01*
X108440467Y-97286871D01*
X108444279Y-97293805D01*
X108468852Y-97342031D01*
X108474667Y-97348355D01*
X108479569Y-97355408D01*
X108479422Y-97355510D01*
X108479810Y-97356032D01*
X108479949Y-97355922D01*
X108485286Y-97362655D01*
X108489658Y-97370048D01*
X108519084Y-97398266D01*
X108528744Y-97407530D01*
X108534266Y-97413169D01*
X108570911Y-97453020D01*
X108578208Y-97457544D01*
X108584830Y-97463023D01*
X108584716Y-97463161D01*
X108585230Y-97463559D01*
X108585335Y-97463414D01*
X108592282Y-97468461D01*
X108598485Y-97474409D01*
X108646190Y-97499988D01*
X108653044Y-97503945D01*
X108699058Y-97532475D01*
X108707310Y-97534872D01*
X108715157Y-97538366D01*
X108715084Y-97538529D01*
X108715681Y-97538773D01*
X108715743Y-97538605D01*
X108723796Y-97541600D01*
X108731368Y-97545660D01*
X108784224Y-97557475D01*
X108791845Y-97559432D01*
X108843851Y-97574541D01*
X108850429Y-97575024D01*
X108856911Y-97575500D01*
X108856900Y-97575646D01*
X108861548Y-97576245D01*
X108861572Y-97575960D01*
X108870139Y-97576679D01*
X108878517Y-97578552D01*
X108887090Y-97578103D01*
X108887094Y-97578103D01*
X108933453Y-97575673D01*
X108940047Y-97575500D01*
X109525950Y-97575500D01*
X109536513Y-97576659D01*
X109536572Y-97575960D01*
X109545139Y-97576679D01*
X109553517Y-97578552D01*
X109562090Y-97578103D01*
X109562094Y-97578103D01*
X109608453Y-97575673D01*
X109615047Y-97575500D01*
X110225950Y-97575500D01*
X110236513Y-97576659D01*
X110236572Y-97575960D01*
X110245139Y-97576679D01*
X110253517Y-97578552D01*
X110262090Y-97578103D01*
X110262094Y-97578103D01*
X110308453Y-97575673D01*
X110315047Y-97575500D01*
X110900950Y-97575500D01*
X110911513Y-97576659D01*
X110911572Y-97575960D01*
X110920139Y-97576679D01*
X110928517Y-97578552D01*
X110937090Y-97578103D01*
X110937094Y-97578103D01*
X110983453Y-97575673D01*
X110990047Y-97575500D01*
X111011501Y-97575500D01*
X111015740Y-97574919D01*
X111015743Y-97574919D01*
X111018963Y-97574478D01*
X111021612Y-97574115D01*
X111032118Y-97573122D01*
X111039793Y-97572720D01*
X111070508Y-97571111D01*
X111070510Y-97571111D01*
X111079090Y-97570661D01*
X111089947Y-97567007D01*
X111113032Y-97561592D01*
X111124385Y-97560037D01*
X111133534Y-97556078D01*
X111167559Y-97541354D01*
X111177411Y-97537572D01*
X111213854Y-97525308D01*
X111213856Y-97525307D01*
X111221995Y-97522568D01*
X111231472Y-97516127D01*
X111252253Y-97504704D01*
X111262764Y-97500155D01*
X111299328Y-97470546D01*
X111307796Y-97464258D01*
X111339595Y-97442648D01*
X111339600Y-97442644D01*
X111346702Y-97437817D01*
X111354097Y-97429066D01*
X111371041Y-97412474D01*
X111373267Y-97410672D01*
X111373270Y-97410669D01*
X111379942Y-97405266D01*
X111407194Y-97366919D01*
X111413661Y-97358582D01*
X111438482Y-97329210D01*
X111444024Y-97322652D01*
X111448796Y-97312230D01*
X111460650Y-97291699D01*
X111462309Y-97289364D01*
X111467286Y-97282361D01*
X111483221Y-97238099D01*
X111487208Y-97228330D01*
X111503216Y-97193365D01*
X111506791Y-97185557D01*
X111508135Y-97177072D01*
X111508584Y-97174240D01*
X111514480Y-97151277D01*
X111515452Y-97148576D01*
X111515453Y-97148573D01*
X111518361Y-97140495D01*
X111521807Y-97093573D01*
X111523019Y-97083093D01*
X111530378Y-97036634D01*
X111530500Y-97025000D01*
X111529873Y-97020426D01*
X111529583Y-97015812D01*
X111529761Y-97015801D01*
X111529492Y-97007250D01*
X111529315Y-97007261D01*
X111528775Y-96998681D01*
X111529404Y-96990120D01*
X111527707Y-96981706D01*
X111527707Y-96981700D01*
X111518703Y-96937048D01*
X111517383Y-96929243D01*
X111511203Y-96884125D01*
X111511202Y-96884123D01*
X111510037Y-96875615D01*
X111506626Y-96867733D01*
X111504316Y-96859458D01*
X111504488Y-96859410D01*
X111504293Y-96858790D01*
X111504125Y-96858849D01*
X111501299Y-96850733D01*
X111499601Y-96842315D01*
X111475025Y-96794084D01*
X111471656Y-96786923D01*
X111453569Y-96745125D01*
X111453568Y-96745124D01*
X111450155Y-96737236D01*
X111444745Y-96730555D01*
X111440299Y-96723214D01*
X111440451Y-96723122D01*
X111440095Y-96722574D01*
X111439949Y-96722675D01*
X111435049Y-96715625D01*
X111431148Y-96707969D01*
X111394506Y-96668122D01*
X111389344Y-96662141D01*
X111360674Y-96626735D01*
X111360669Y-96626731D01*
X111355266Y-96620058D01*
X111348266Y-96615083D01*
X111342003Y-96609202D01*
X111342125Y-96609072D01*
X111341635Y-96608639D01*
X111341520Y-96608778D01*
X111334907Y-96603307D01*
X111329089Y-96596980D01*
X111283073Y-96568449D01*
X111276494Y-96564077D01*
X111232361Y-96532714D01*
X111224281Y-96529805D01*
X111216667Y-96525824D01*
X111216749Y-96525666D01*
X111216160Y-96525382D01*
X111216088Y-96525544D01*
X111208241Y-96522050D01*
X111200942Y-96517525D01*
X111192696Y-96515129D01*
X111192693Y-96515128D01*
X111158757Y-96505269D01*
X111148949Y-96502420D01*
X111141446Y-96499982D01*
X111090495Y-96481639D01*
X111081933Y-96481010D01*
X111073525Y-96479223D01*
X111073562Y-96479048D01*
X111069030Y-96478233D01*
X111068987Y-96478470D01*
X111062488Y-96477301D01*
X111056149Y-96475459D01*
X111043089Y-96474500D01*
X110997907Y-96474500D01*
X110988679Y-96474162D01*
X110940120Y-96470596D01*
X110931701Y-96472294D01*
X110927880Y-96472534D01*
X110908182Y-96474500D01*
X110322907Y-96474500D01*
X110313679Y-96474162D01*
X110265120Y-96470596D01*
X110256701Y-96472294D01*
X110252880Y-96472534D01*
X110233182Y-96474500D01*
X109622907Y-96474500D01*
X109613679Y-96474162D01*
X109565120Y-96470596D01*
X109556701Y-96472294D01*
X109552880Y-96472534D01*
X109533182Y-96474500D01*
X108947907Y-96474500D01*
X108938679Y-96474162D01*
X108890120Y-96470596D01*
X108881706Y-96472293D01*
X108881700Y-96472293D01*
X108837048Y-96481297D01*
X108829243Y-96482617D01*
X108784125Y-96488797D01*
X108784123Y-96488798D01*
X108775615Y-96489963D01*
X108767733Y-96493374D01*
X108759458Y-96495684D01*
X108759410Y-96495512D01*
X108758790Y-96495707D01*
X108758849Y-96495875D01*
X108750733Y-96498701D01*
X108742315Y-96500399D01*
X108734663Y-96504298D01*
X108734660Y-96504299D01*
X108694087Y-96524973D01*
X108686927Y-96528342D01*
X108637236Y-96549845D01*
X108630555Y-96555255D01*
X108623214Y-96559701D01*
X108623122Y-96559549D01*
X108622574Y-96559905D01*
X108622675Y-96560051D01*
X108615625Y-96564951D01*
X108607969Y-96568852D01*
X108568122Y-96605494D01*
X108562141Y-96610656D01*
X108526735Y-96639326D01*
X108526731Y-96639331D01*
X108520058Y-96644734D01*
X108515083Y-96651734D01*
X108509202Y-96657997D01*
X108509072Y-96657875D01*
X108508639Y-96658365D01*
X108508778Y-96658480D01*
X108503307Y-96665093D01*
X108496980Y-96670911D01*
X108474003Y-96707969D01*
X108468450Y-96716925D01*
X108464077Y-96723506D01*
X108432714Y-96767639D01*
X108429805Y-96775719D01*
X108425824Y-96783333D01*
X108425666Y-96783251D01*
X108425382Y-96783840D01*
X108425544Y-96783912D01*
X108422050Y-96791759D01*
X108417525Y-96799058D01*
X108415129Y-96807304D01*
X108415128Y-96807307D01*
X108402421Y-96851047D01*
X108399982Y-96858554D01*
X108381639Y-96909505D01*
X108381010Y-96918067D01*
X108379223Y-96926475D01*
X108379048Y-96926438D01*
X108378933Y-96927079D01*
X108379110Y-96927105D01*
X108377855Y-96935604D01*
X108375459Y-96943851D01*
X108375369Y-96952437D01*
X108375369Y-96952438D01*
X108374893Y-96997974D01*
X108374561Y-97005886D01*
X108371224Y-97051311D01*
X108371225Y-97051321D01*
X108370596Y-97059880D01*
X101028982Y-97059880D01*
X101025977Y-97049639D01*
X101002130Y-97003337D01*
X100932615Y-96868365D01*
X100932613Y-96868362D01*
X100929869Y-96863034D01*
X100800210Y-96697970D01*
X100795679Y-96694038D01*
X100795676Y-96694035D01*
X100646207Y-96564333D01*
X100641677Y-96560402D01*
X100636491Y-96557402D01*
X100636487Y-96557399D01*
X100465186Y-96458300D01*
X100459990Y-96455294D01*
X100261706Y-96386438D01*
X100255771Y-96385577D01*
X100255769Y-96385577D01*
X100059919Y-96357180D01*
X100059916Y-96357180D01*
X100053979Y-96356319D01*
X99844304Y-96366024D01*
X99713445Y-96397561D01*
X99646080Y-96413796D01*
X99646078Y-96413797D01*
X99640247Y-96415202D01*
X99634789Y-96417684D01*
X99634785Y-96417685D01*
X99552069Y-96455294D01*
X99449171Y-96502079D01*
X99277970Y-96623520D01*
X99132822Y-96775144D01*
X99129571Y-96780179D01*
X99033322Y-96929243D01*
X99018964Y-96951479D01*
X99016722Y-96957042D01*
X98981552Y-97044311D01*
X98940504Y-97146163D01*
X98924458Y-97228330D01*
X98906039Y-97322652D01*
X98900274Y-97352171D01*
X98900258Y-97358157D01*
X98900258Y-97358160D01*
X98900153Y-97398266D01*
X98899724Y-97562069D01*
X98555289Y-97562069D01*
X98564985Y-97465786D01*
X98565000Y-97460000D01*
X98563345Y-97442648D01*
X98554151Y-97346290D01*
X98545064Y-97251050D01*
X98537164Y-97224119D01*
X98514294Y-97146163D01*
X98485977Y-97049639D01*
X98462130Y-97003337D01*
X98392615Y-96868365D01*
X98392613Y-96868362D01*
X98389869Y-96863034D01*
X98260210Y-96697970D01*
X98255679Y-96694038D01*
X98255676Y-96694035D01*
X98106207Y-96564333D01*
X98101677Y-96560402D01*
X98096491Y-96557402D01*
X98096487Y-96557399D01*
X97925186Y-96458300D01*
X97919990Y-96455294D01*
X97721706Y-96386438D01*
X97715771Y-96385577D01*
X97715769Y-96385577D01*
X97519919Y-96357180D01*
X97519916Y-96357180D01*
X97513979Y-96356319D01*
X97304304Y-96366024D01*
X97173445Y-96397561D01*
X97106080Y-96413796D01*
X97106078Y-96413797D01*
X97100247Y-96415202D01*
X97094789Y-96417684D01*
X97094785Y-96417685D01*
X97012069Y-96455294D01*
X96909171Y-96502079D01*
X96737970Y-96623520D01*
X96592822Y-96775144D01*
X96589571Y-96780179D01*
X96481852Y-96947006D01*
X96428097Y-96993384D01*
X96357801Y-97003337D01*
X96293284Y-96973705D01*
X96250000Y-96878658D01*
X96250000Y-95429623D01*
X105438880Y-95429623D01*
X105477905Y-95575265D01*
X105554658Y-95705048D01*
X105663485Y-95809409D01*
X105796368Y-95880660D01*
X105838874Y-95890161D01*
X105935131Y-95911678D01*
X105935135Y-95911678D01*
X105943517Y-95913552D01*
X106037950Y-95908603D01*
X106085507Y-95906111D01*
X106085508Y-95906111D01*
X106094090Y-95905661D01*
X106236995Y-95857568D01*
X106361702Y-95772817D01*
X106367245Y-95766258D01*
X106367247Y-95766256D01*
X106453481Y-95664211D01*
X106459024Y-95657652D01*
X106521791Y-95520557D01*
X106545378Y-95371634D01*
X106545500Y-95360000D01*
X106525037Y-95210615D01*
X106477170Y-95100000D01*
X108869500Y-95100000D01*
X108890132Y-95256715D01*
X108950622Y-95402750D01*
X109046847Y-95528153D01*
X109172250Y-95624378D01*
X109318285Y-95684868D01*
X109475000Y-95705500D01*
X109483188Y-95704422D01*
X109623527Y-95685946D01*
X109631715Y-95684868D01*
X109777750Y-95624378D01*
X109903153Y-95528153D01*
X109999378Y-95402750D01*
X110059868Y-95256715D01*
X110080500Y-95100000D01*
X110059868Y-94943285D01*
X109999378Y-94797250D01*
X109903153Y-94671847D01*
X109777750Y-94575622D01*
X109631715Y-94515132D01*
X109475000Y-94494500D01*
X109318285Y-94515132D01*
X109172250Y-94575622D01*
X109046847Y-94671847D01*
X108950622Y-94797250D01*
X108890132Y-94943285D01*
X108869500Y-95100000D01*
X106477170Y-95100000D01*
X106468567Y-95080120D01*
X106468566Y-95080118D01*
X106465155Y-95072236D01*
X106370266Y-94955058D01*
X106363264Y-94950082D01*
X106363262Y-94950080D01*
X106254363Y-94872690D01*
X106247361Y-94867714D01*
X106105495Y-94816639D01*
X106096935Y-94816010D01*
X106096933Y-94816010D01*
X106018122Y-94810223D01*
X105955120Y-94805596D01*
X105807315Y-94835399D01*
X105672969Y-94903852D01*
X105666647Y-94909665D01*
X105666646Y-94909666D01*
X105610020Y-94961736D01*
X105561980Y-95005911D01*
X105557452Y-95013214D01*
X105557451Y-95013215D01*
X105515968Y-95080120D01*
X105482525Y-95134058D01*
X105440459Y-95278851D01*
X105438880Y-95429623D01*
X96250000Y-95429623D01*
X96250000Y-92960401D01*
X96270002Y-92892280D01*
X96323658Y-92845787D01*
X96393932Y-92835683D01*
X96458512Y-92865177D01*
X96482207Y-92892608D01*
X96589248Y-93060306D01*
X96733600Y-93212688D01*
X96738465Y-93216178D01*
X96738468Y-93216180D01*
X96853521Y-93298701D01*
X96904163Y-93335024D01*
X96909608Y-93337534D01*
X97080353Y-93416248D01*
X97094782Y-93422900D01*
X97100598Y-93424334D01*
X97100601Y-93424335D01*
X97188114Y-93445911D01*
X97298578Y-93473146D01*
X97304568Y-93473455D01*
X97304570Y-93473455D01*
X97378178Y-93477248D01*
X97508199Y-93483948D01*
X97514134Y-93483119D01*
X97514138Y-93483119D01*
X97666960Y-93461777D01*
X97716081Y-93454917D01*
X97914723Y-93387101D01*
X98096958Y-93282945D01*
X98256209Y-93146209D01*
X98386731Y-92981826D01*
X98389746Y-92976048D01*
X98481041Y-92801043D01*
X98483814Y-92795728D01*
X98543955Y-92594629D01*
X98550014Y-92534464D01*
X98555269Y-92482273D01*
X98564985Y-92385786D01*
X98565000Y-92380000D01*
X98562886Y-92357837D01*
X98551951Y-92243236D01*
X98545064Y-92171050D01*
X98485977Y-91969639D01*
X98483233Y-91964311D01*
X98392615Y-91788365D01*
X98392613Y-91788362D01*
X98389869Y-91783034D01*
X98260210Y-91617970D01*
X98160109Y-91531107D01*
X98121769Y-91471355D01*
X98121820Y-91400358D01*
X98160247Y-91340659D01*
X98224849Y-91311213D01*
X98291784Y-91319901D01*
X98348508Y-91343899D01*
X98437291Y-91381461D01*
X98443682Y-91384165D01*
X98446414Y-91385037D01*
X98446430Y-91385043D01*
X98473201Y-91393588D01*
X98512888Y-91414669D01*
X98536693Y-91433435D01*
X98545238Y-91436436D01*
X98552603Y-91441699D01*
X98601124Y-91456210D01*
X98606766Y-91458043D01*
X98647098Y-91472207D01*
X98647104Y-91472208D01*
X98654581Y-91474834D01*
X98662271Y-91475500D01*
X98665007Y-91475500D01*
X98665730Y-91475531D01*
X98672310Y-91477499D01*
X98720723Y-91475597D01*
X98725669Y-91475500D01*
X99048039Y-91475500D01*
X99116160Y-91495502D01*
X99162653Y-91549158D01*
X99172757Y-91619432D01*
X99140398Y-91685877D01*
X99140686Y-91686105D01*
X99139644Y-91687424D01*
X99139056Y-91688632D01*
X99132822Y-91695144D01*
X99129571Y-91700179D01*
X99079117Y-91778319D01*
X99018964Y-91871479D01*
X99016722Y-91877042D01*
X98981552Y-91964311D01*
X98940504Y-92066163D01*
X98921146Y-92165292D01*
X98904822Y-92248884D01*
X98900274Y-92272171D01*
X98900258Y-92278157D01*
X98900258Y-92278160D01*
X98900006Y-92374280D01*
X98899724Y-92482069D01*
X98938875Y-92688285D01*
X99016315Y-92883377D01*
X99019539Y-92888428D01*
X99019540Y-92888430D01*
X99073099Y-92972339D01*
X99129248Y-93060306D01*
X99273600Y-93212688D01*
X99278465Y-93216178D01*
X99278468Y-93216180D01*
X99393521Y-93298701D01*
X99444163Y-93335024D01*
X99449608Y-93337534D01*
X99620353Y-93416248D01*
X99634782Y-93422900D01*
X99640598Y-93424334D01*
X99640601Y-93424335D01*
X99728114Y-93445911D01*
X99838578Y-93473146D01*
X99844568Y-93473455D01*
X99844570Y-93473455D01*
X99918178Y-93477248D01*
X100048199Y-93483948D01*
X100054134Y-93483119D01*
X100054138Y-93483119D01*
X100206960Y-93461777D01*
X100256081Y-93454917D01*
X100454723Y-93387101D01*
X100530393Y-93343852D01*
X100571071Y-93320603D01*
X100640139Y-93304166D01*
X100707129Y-93327679D01*
X100750772Y-93383678D01*
X100757212Y-93454382D01*
X100740681Y-93496391D01*
X100692525Y-93574058D01*
X100650459Y-93718851D01*
X100648880Y-93869623D01*
X100687905Y-94015265D01*
X100764658Y-94145048D01*
X100873485Y-94249409D01*
X101006368Y-94320660D01*
X101048874Y-94330161D01*
X101145131Y-94351678D01*
X101145135Y-94351678D01*
X101153517Y-94353552D01*
X101247950Y-94348603D01*
X101295507Y-94346111D01*
X101295508Y-94346111D01*
X101304090Y-94345661D01*
X101446995Y-94297568D01*
X101571702Y-94212817D01*
X101576092Y-94207622D01*
X101659771Y-94175500D01*
X102452273Y-94175500D01*
X102541368Y-94212405D01*
X103007289Y-94678326D01*
X103020417Y-94694580D01*
X103022922Y-94697333D01*
X103028571Y-94706082D01*
X103036749Y-94712529D01*
X103053327Y-94725598D01*
X103058036Y-94729783D01*
X103058085Y-94729726D01*
X103062042Y-94733079D01*
X103065723Y-94736760D01*
X103082183Y-94748523D01*
X103086911Y-94752074D01*
X103126694Y-94783436D01*
X103135239Y-94786437D01*
X103142604Y-94791700D01*
X103191125Y-94806211D01*
X103196767Y-94808044D01*
X103237099Y-94822208D01*
X103237105Y-94822209D01*
X103244582Y-94824835D01*
X103252272Y-94825501D01*
X103255008Y-94825501D01*
X103255731Y-94825532D01*
X103262311Y-94827500D01*
X103310724Y-94825598D01*
X103315670Y-94825501D01*
X104747406Y-94825501D01*
X104768173Y-94827711D01*
X104771898Y-94827887D01*
X104782077Y-94830078D01*
X104813371Y-94826374D01*
X104819667Y-94826003D01*
X104819661Y-94825929D01*
X104824841Y-94825501D01*
X104830040Y-94825501D01*
X104835164Y-94824648D01*
X104835177Y-94824647D01*
X104849979Y-94822183D01*
X104855854Y-94821346D01*
X104895819Y-94816616D01*
X104895822Y-94816615D01*
X104906157Y-94815392D01*
X104914318Y-94811473D01*
X104923252Y-94809986D01*
X104932716Y-94804880D01*
X104962646Y-94788730D01*
X104967860Y-94785917D01*
X104973107Y-94783243D01*
X105018790Y-94761306D01*
X105024699Y-94756340D01*
X105026637Y-94754402D01*
X105027165Y-94753918D01*
X105033212Y-94750655D01*
X105046057Y-94736760D01*
X105066125Y-94715050D01*
X105069555Y-94711484D01*
X105361416Y-94419623D01*
X106398878Y-94419623D01*
X106437903Y-94565265D01*
X106514656Y-94695048D01*
X106623483Y-94799409D01*
X106756366Y-94870660D01*
X106765448Y-94872690D01*
X106895129Y-94901678D01*
X106895133Y-94901678D01*
X106903515Y-94903552D01*
X106997948Y-94898603D01*
X107045505Y-94896111D01*
X107045506Y-94896111D01*
X107054088Y-94895661D01*
X107196993Y-94847568D01*
X107209161Y-94839299D01*
X107229671Y-94825360D01*
X107321700Y-94762817D01*
X107327243Y-94756258D01*
X107327245Y-94756256D01*
X107413479Y-94654211D01*
X107419022Y-94647652D01*
X107422597Y-94639844D01*
X107478214Y-94518366D01*
X107478214Y-94518364D01*
X107481789Y-94510557D01*
X107505376Y-94361634D01*
X107505498Y-94350000D01*
X107485035Y-94200615D01*
X107425153Y-94062236D01*
X107330264Y-93945058D01*
X107323262Y-93940082D01*
X107323260Y-93940080D01*
X107214361Y-93862690D01*
X107207359Y-93857714D01*
X107065493Y-93806639D01*
X107056933Y-93806010D01*
X107056931Y-93806010D01*
X106978120Y-93800223D01*
X106915118Y-93795596D01*
X106767313Y-93825399D01*
X106632967Y-93893852D01*
X106626645Y-93899665D01*
X106626644Y-93899666D01*
X106570018Y-93951736D01*
X106521978Y-93995911D01*
X106517450Y-94003214D01*
X106517449Y-94003215D01*
X106475966Y-94070120D01*
X106442523Y-94124058D01*
X106400457Y-94268851D01*
X106398878Y-94419623D01*
X105361416Y-94419623D01*
X107348325Y-92432714D01*
X107364579Y-92419586D01*
X107367332Y-92417081D01*
X107376081Y-92411432D01*
X107395597Y-92386676D01*
X107399782Y-92381967D01*
X107399725Y-92381918D01*
X107403078Y-92377961D01*
X107406759Y-92374280D01*
X107418522Y-92357820D01*
X107422073Y-92353092D01*
X107446987Y-92321488D01*
X107453435Y-92313309D01*
X107456436Y-92304764D01*
X107461699Y-92297399D01*
X107476210Y-92248878D01*
X107478043Y-92243236D01*
X107492207Y-92202904D01*
X107492208Y-92202898D01*
X107494834Y-92195421D01*
X107495500Y-92187731D01*
X107495500Y-92184995D01*
X107495531Y-92184272D01*
X107497499Y-92177692D01*
X107495597Y-92129279D01*
X107495500Y-92124333D01*
X107495500Y-92000000D01*
X110750000Y-92000000D01*
X110750000Y-94500000D01*
X111250000Y-95000000D01*
X119500000Y-95000000D01*
X120000000Y-94500000D01*
X120000000Y-92000000D01*
X119500000Y-91500000D01*
X115302190Y-91500000D01*
X115213095Y-91463095D01*
X114000000Y-90250000D01*
X112500000Y-90250000D01*
X110750000Y-92000000D01*
X107495500Y-92000000D01*
X107495500Y-91072595D01*
X107497710Y-91051828D01*
X107497886Y-91048103D01*
X107500077Y-91037924D01*
X107496373Y-91006629D01*
X107496002Y-91000333D01*
X107495928Y-91000339D01*
X107495900Y-91000000D01*
X109194500Y-91000000D01*
X109215132Y-91156715D01*
X109275622Y-91302750D01*
X109371847Y-91428153D01*
X109378393Y-91433176D01*
X109390096Y-91442156D01*
X109497250Y-91524378D01*
X109576226Y-91557091D01*
X109631439Y-91579961D01*
X109643285Y-91584868D01*
X109800000Y-91605500D01*
X109808188Y-91604422D01*
X109948527Y-91585946D01*
X109956715Y-91584868D01*
X109968562Y-91579961D01*
X110023774Y-91557091D01*
X110102750Y-91524378D01*
X110209904Y-91442156D01*
X110221607Y-91433176D01*
X110228153Y-91428153D01*
X110324378Y-91302750D01*
X110384868Y-91156715D01*
X110405500Y-91000000D01*
X110384868Y-90843285D01*
X110324378Y-90697250D01*
X110244020Y-90592525D01*
X110233176Y-90578393D01*
X110228153Y-90571847D01*
X110102750Y-90475622D01*
X109977489Y-90423737D01*
X109964344Y-90418292D01*
X109956715Y-90415132D01*
X109800000Y-90394500D01*
X109643285Y-90415132D01*
X109635656Y-90418292D01*
X109622511Y-90423737D01*
X109497250Y-90475622D01*
X109371847Y-90571847D01*
X109366824Y-90578393D01*
X109355980Y-90592525D01*
X109275622Y-90697250D01*
X109215132Y-90843285D01*
X109194500Y-91000000D01*
X107495900Y-91000000D01*
X107495500Y-90995161D01*
X107495500Y-90989961D01*
X107494592Y-90984505D01*
X107492181Y-90970019D01*
X107491344Y-90964141D01*
X107488611Y-90941048D01*
X107485391Y-90913843D01*
X107481472Y-90905681D01*
X107479985Y-90896749D01*
X107470022Y-90878285D01*
X107456132Y-90811642D01*
X107455378Y-90811634D01*
X107455414Y-90808197D01*
X107455500Y-90800000D01*
X107435037Y-90650615D01*
X107431625Y-90642730D01*
X107378567Y-90520120D01*
X107378566Y-90520118D01*
X107375155Y-90512236D01*
X107313839Y-90436517D01*
X107285674Y-90401736D01*
X107285673Y-90401735D01*
X107280266Y-90395058D01*
X107273264Y-90390082D01*
X107273262Y-90390080D01*
X107164363Y-90312690D01*
X107157361Y-90307714D01*
X107015495Y-90256639D01*
X107006935Y-90256010D01*
X107006933Y-90256010D01*
X106925090Y-90250000D01*
X106865120Y-90245596D01*
X106717315Y-90275399D01*
X106582969Y-90343852D01*
X106576647Y-90349665D01*
X106576646Y-90349666D01*
X106520020Y-90401736D01*
X106471980Y-90445911D01*
X106467452Y-90453214D01*
X106467451Y-90453215D01*
X106407157Y-90550459D01*
X106392525Y-90574058D01*
X106350459Y-90718851D01*
X106350369Y-90727439D01*
X106349319Y-90827669D01*
X106328605Y-90895576D01*
X106264797Y-90945329D01*
X106261687Y-90946413D01*
X106190778Y-90949946D01*
X106129216Y-90914582D01*
X106107949Y-90884635D01*
X106107797Y-90884335D01*
X106100025Y-90869082D01*
X106096656Y-90861923D01*
X106078569Y-90820125D01*
X106078568Y-90820124D01*
X106075155Y-90812236D01*
X106069745Y-90805555D01*
X106065299Y-90798214D01*
X106065451Y-90798122D01*
X106065095Y-90797574D01*
X106064949Y-90797675D01*
X106060049Y-90790625D01*
X106056148Y-90782969D01*
X106019506Y-90743122D01*
X106014344Y-90737141D01*
X105985674Y-90701735D01*
X105985669Y-90701731D01*
X105980266Y-90695058D01*
X105973266Y-90690083D01*
X105967003Y-90684202D01*
X105967125Y-90684072D01*
X105966635Y-90683639D01*
X105966520Y-90683778D01*
X105959907Y-90678307D01*
X105954089Y-90671980D01*
X105908073Y-90643449D01*
X105901494Y-90639077D01*
X105857361Y-90607714D01*
X105849281Y-90604805D01*
X105841667Y-90600824D01*
X105841749Y-90600666D01*
X105841160Y-90600382D01*
X105841088Y-90600544D01*
X105833241Y-90597050D01*
X105825942Y-90592525D01*
X105817696Y-90590129D01*
X105817693Y-90590128D01*
X105783757Y-90580269D01*
X105773949Y-90577420D01*
X105766446Y-90574982D01*
X105715495Y-90556639D01*
X105706933Y-90556010D01*
X105698525Y-90554223D01*
X105698562Y-90554048D01*
X105694030Y-90553233D01*
X105693987Y-90553470D01*
X105687488Y-90552301D01*
X105681149Y-90550459D01*
X105668089Y-90549500D01*
X105622907Y-90549500D01*
X105613679Y-90549162D01*
X105565120Y-90545596D01*
X105556701Y-90547294D01*
X105552880Y-90547534D01*
X105533182Y-90549500D01*
X104922907Y-90549500D01*
X104913679Y-90549162D01*
X104865120Y-90545596D01*
X104856706Y-90547293D01*
X104856700Y-90547293D01*
X104812048Y-90556297D01*
X104804243Y-90557617D01*
X104759125Y-90563797D01*
X104759123Y-90563798D01*
X104750615Y-90564963D01*
X104742733Y-90568374D01*
X104734458Y-90570684D01*
X104734410Y-90570512D01*
X104733790Y-90570707D01*
X104733849Y-90570875D01*
X104725733Y-90573701D01*
X104717315Y-90575399D01*
X104709663Y-90579298D01*
X104709660Y-90579299D01*
X104669087Y-90599973D01*
X104661927Y-90603342D01*
X104612236Y-90624845D01*
X104605555Y-90630255D01*
X104598214Y-90634701D01*
X104598122Y-90634549D01*
X104597574Y-90634905D01*
X104597675Y-90635051D01*
X104590625Y-90639951D01*
X104582969Y-90643852D01*
X104543122Y-90680494D01*
X104537141Y-90685656D01*
X104501735Y-90714326D01*
X104501731Y-90714331D01*
X104495058Y-90719734D01*
X104490083Y-90726734D01*
X104484202Y-90732997D01*
X104484072Y-90732875D01*
X104483639Y-90733365D01*
X104483778Y-90733480D01*
X104478307Y-90740093D01*
X104471980Y-90745911D01*
X104449003Y-90782969D01*
X104443450Y-90791925D01*
X104439077Y-90798506D01*
X104407714Y-90842639D01*
X104404805Y-90850719D01*
X104400824Y-90858333D01*
X104400666Y-90858251D01*
X104400382Y-90858840D01*
X104400544Y-90858912D01*
X104397050Y-90866759D01*
X104392525Y-90874058D01*
X104390129Y-90882304D01*
X104390128Y-90882307D01*
X104377421Y-90926047D01*
X104374982Y-90933554D01*
X104356639Y-90984505D01*
X104356010Y-90993067D01*
X104354223Y-91001475D01*
X104354048Y-91001438D01*
X104353933Y-91002079D01*
X104354110Y-91002105D01*
X104352855Y-91010604D01*
X104350459Y-91018851D01*
X104350369Y-91027437D01*
X104350369Y-91027438D01*
X104349893Y-91072974D01*
X104349561Y-91080886D01*
X104346224Y-91126311D01*
X104346225Y-91126321D01*
X104345596Y-91134880D01*
X104347293Y-91143296D01*
X104347833Y-91151874D01*
X104347655Y-91151885D01*
X104347717Y-91152534D01*
X104347894Y-91152512D01*
X104348970Y-91161033D01*
X104348880Y-91169623D01*
X104351103Y-91177918D01*
X104351103Y-91177921D01*
X104362894Y-91221924D01*
X104364701Y-91229629D01*
X104375399Y-91282685D01*
X104379300Y-91290341D01*
X104382125Y-91298452D01*
X104381955Y-91298511D01*
X104382189Y-91299119D01*
X104382354Y-91299049D01*
X104385681Y-91306964D01*
X104387905Y-91315265D01*
X104392279Y-91322661D01*
X104415467Y-91361871D01*
X104419279Y-91368805D01*
X104439175Y-91407853D01*
X104443852Y-91417031D01*
X104449667Y-91423355D01*
X104454569Y-91430408D01*
X104454422Y-91430510D01*
X104454810Y-91431032D01*
X104454949Y-91430922D01*
X104460286Y-91437655D01*
X104464658Y-91445048D01*
X104498071Y-91477090D01*
X104503744Y-91482530D01*
X104509266Y-91488169D01*
X104545911Y-91528020D01*
X104553208Y-91532544D01*
X104559830Y-91538023D01*
X104559716Y-91538161D01*
X104560230Y-91538559D01*
X104560335Y-91538414D01*
X104567282Y-91543461D01*
X104573485Y-91549409D01*
X104620893Y-91574829D01*
X104621190Y-91574988D01*
X104628044Y-91578945D01*
X104674058Y-91607475D01*
X104682310Y-91609872D01*
X104690157Y-91613366D01*
X104690084Y-91613529D01*
X104690681Y-91613773D01*
X104690743Y-91613605D01*
X104698796Y-91616600D01*
X104706368Y-91620660D01*
X104759224Y-91632475D01*
X104766845Y-91634432D01*
X104818851Y-91649541D01*
X104825429Y-91650024D01*
X104831911Y-91650500D01*
X104831900Y-91650646D01*
X104836548Y-91651245D01*
X104836572Y-91650960D01*
X104845139Y-91651679D01*
X104853517Y-91653552D01*
X104862090Y-91653103D01*
X104862094Y-91653103D01*
X104908453Y-91650673D01*
X104915047Y-91650500D01*
X105525950Y-91650500D01*
X105536513Y-91651659D01*
X105536572Y-91650960D01*
X105545139Y-91651679D01*
X105553517Y-91653552D01*
X105562090Y-91653103D01*
X105562094Y-91653103D01*
X105608453Y-91650673D01*
X105615047Y-91650500D01*
X105636501Y-91650500D01*
X105640740Y-91649919D01*
X105640743Y-91649919D01*
X105643963Y-91649478D01*
X105646612Y-91649115D01*
X105657118Y-91648122D01*
X105664793Y-91647720D01*
X105695508Y-91646111D01*
X105695510Y-91646111D01*
X105704090Y-91645661D01*
X105714947Y-91642007D01*
X105738032Y-91636592D01*
X105749385Y-91635037D01*
X105757268Y-91631626D01*
X105757274Y-91631624D01*
X105782062Y-91620897D01*
X105852524Y-91612200D01*
X105916502Y-91642978D01*
X105943642Y-91681207D01*
X105944137Y-91680914D01*
X106020890Y-91810697D01*
X106129717Y-91915058D01*
X106262600Y-91986309D01*
X106305106Y-91995810D01*
X106401363Y-92017327D01*
X106401367Y-92017327D01*
X106409749Y-92019201D01*
X106411125Y-92019129D01*
X106474092Y-92043505D01*
X106515932Y-92100863D01*
X106520121Y-92171736D01*
X106486437Y-92232527D01*
X106147596Y-92571369D01*
X105473370Y-93245596D01*
X105165852Y-93553114D01*
X105103539Y-93587139D01*
X105032724Y-93582075D01*
X104976882Y-93535838D01*
X104975155Y-93537236D01*
X104885674Y-93426736D01*
X104885673Y-93426735D01*
X104880266Y-93420058D01*
X104873264Y-93415082D01*
X104873262Y-93415080D01*
X104764363Y-93337690D01*
X104757361Y-93332714D01*
X104615495Y-93281639D01*
X104606935Y-93281010D01*
X104606933Y-93281010D01*
X104507401Y-93273701D01*
X104465120Y-93270596D01*
X104317315Y-93300399D01*
X104277663Y-93320603D01*
X104190618Y-93364954D01*
X104190615Y-93364956D01*
X104182969Y-93368852D01*
X104176647Y-93374665D01*
X104176646Y-93374666D01*
X104131425Y-93416248D01*
X104046139Y-93449500D01*
X103712728Y-93449500D01*
X103623633Y-93412596D01*
X103292714Y-93081678D01*
X103279586Y-93065422D01*
X103277077Y-93062665D01*
X103271430Y-93053919D01*
X103246669Y-93034399D01*
X103241965Y-93030219D01*
X103241917Y-93030276D01*
X103237956Y-93026920D01*
X103234277Y-93023241D01*
X103217859Y-93011509D01*
X103213118Y-93007950D01*
X103173307Y-92976565D01*
X103164760Y-92973564D01*
X103157396Y-92968301D01*
X103108852Y-92953783D01*
X103103246Y-92951961D01*
X103062902Y-92937793D01*
X103062896Y-92937792D01*
X103055419Y-92935166D01*
X103047729Y-92934500D01*
X103044993Y-92934500D01*
X103044268Y-92934469D01*
X103037689Y-92932501D01*
X102989659Y-92934388D01*
X102989277Y-92934403D01*
X102984331Y-92934500D01*
X102117728Y-92934500D01*
X102028633Y-92897596D01*
X101702405Y-92571369D01*
X101665500Y-92482273D01*
X101665500Y-91662595D01*
X101667710Y-91641828D01*
X101667886Y-91638103D01*
X101670077Y-91627924D01*
X101666373Y-91596629D01*
X101666002Y-91590333D01*
X101665928Y-91590339D01*
X101665500Y-91585161D01*
X101665500Y-91579961D01*
X101664646Y-91574829D01*
X101662181Y-91560019D01*
X101661344Y-91554141D01*
X101659500Y-91538559D01*
X101655391Y-91503843D01*
X101651472Y-91495681D01*
X101649985Y-91486749D01*
X101625910Y-91442131D01*
X101623238Y-91436885D01*
X101601305Y-91391210D01*
X101596339Y-91385302D01*
X101594407Y-91383370D01*
X101593916Y-91382835D01*
X101590654Y-91376789D01*
X101555074Y-91343899D01*
X101551508Y-91340471D01*
X101082714Y-90871678D01*
X101069586Y-90855422D01*
X101067077Y-90852665D01*
X101061430Y-90843919D01*
X101036669Y-90824399D01*
X101031965Y-90820219D01*
X101031917Y-90820276D01*
X101027956Y-90816920D01*
X101024277Y-90813241D01*
X101007859Y-90801509D01*
X101003118Y-90797950D01*
X100963307Y-90766565D01*
X100954760Y-90763564D01*
X100947396Y-90758301D01*
X100913792Y-90748251D01*
X100905930Y-90745900D01*
X100846396Y-90707218D01*
X100817226Y-90642491D01*
X100843355Y-90546832D01*
X100844336Y-90545596D01*
X100926731Y-90441826D01*
X100964947Y-90368571D01*
X101002970Y-90295683D01*
X101023814Y-90255728D01*
X101026337Y-90247294D01*
X101082236Y-90060376D01*
X101083955Y-90054629D01*
X101104985Y-89845786D01*
X101105000Y-89840000D01*
X101085064Y-89631050D01*
X101076046Y-89600308D01*
X101052985Y-89521702D01*
X101025977Y-89429639D01*
X101023233Y-89424311D01*
X100932615Y-89248365D01*
X100932613Y-89248362D01*
X100929869Y-89243034D01*
X100800210Y-89077970D01*
X100677126Y-88971163D01*
X100638787Y-88911412D01*
X100638837Y-88840415D01*
X100677264Y-88780717D01*
X100759708Y-88750000D01*
X104260751Y-88750000D01*
X104328872Y-88770002D01*
G37*
G04 #@! TD.AperFunction*
G04 #@! TA.AperFunction,Conductor*
G36*
X98240930Y-89720002D02*
G01*
X98290710Y-89781556D01*
X98630333Y-90682537D01*
X98730575Y-90948467D01*
X98725370Y-91049260D01*
X98702884Y-91094231D01*
X98654529Y-91146214D01*
X98585745Y-91163803D01*
X98541092Y-91153923D01*
X97798301Y-90839666D01*
X97426904Y-90682536D01*
X97371962Y-90637573D01*
X97350000Y-90566495D01*
X97350000Y-89826000D01*
X97370002Y-89757879D01*
X97423658Y-89711386D01*
X97476000Y-89700000D01*
X98172809Y-89700000D01*
X98240930Y-89720002D01*
G37*
G04 #@! TD.AperFunction*
M02*
