G04 #@! TF.GenerationSoftware,KiCad,Pcbnew,(5.99.0-6495-g15369915cc)*
G04 #@! TF.CreationDate,2020-10-24T17:34:59+02:00*
G04 #@! TF.ProjectId,EVAL-MP8862,4556414c-2d4d-4503-9838-36322e6b6963,1B*
G04 #@! TF.SameCoordinates,Original*
G04 #@! TF.FileFunction,Copper,L4,Bot*
G04 #@! TF.FilePolarity,Positive*
%FSLAX46Y46*%
G04 Gerber Fmt 4.6, Leading zero omitted, Abs format (unit mm)*
G04 Created by KiCad (PCBNEW (5.99.0-6495-g15369915cc)) date 2020-10-24 17:34:59*
%MOMM*%
%LPD*%
G01*
G04 APERTURE LIST*
G04 Aperture macros list*
%AMRoundRect*
0 Rectangle with rounded corners*
0 $1 Rounding radius*
0 $2 $3 $4 $5 $6 $7 $8 $9 X,Y pos of 4 corners*
0 Add a 4 corners polygon primitive as box body*
4,1,4,$2,$3,$4,$5,$6,$7,$8,$9,$2,$3,0*
0 Add four circle primitives for the rounded corners*
1,1,$1+$1,$2,$3,0*
1,1,$1+$1,$4,$5,0*
1,1,$1+$1,$6,$7,0*
1,1,$1+$1,$8,$9,0*
0 Add four rect primitives between the rounded corners*
20,1,$1+$1,$2,$3,$4,$5,0*
20,1,$1+$1,$4,$5,$6,$7,0*
20,1,$1+$1,$6,$7,$8,$9,0*
20,1,$1+$1,$8,$9,$2,$3,0*%
G04 Aperture macros list end*
G04 #@! TA.AperFunction,ComponentPad*
%ADD10R,1.700000X1.700000*%
G04 #@! TD*
G04 #@! TA.AperFunction,ComponentPad*
%ADD11O,1.700000X1.700000*%
G04 #@! TD*
G04 #@! TA.AperFunction,SMDPad,CuDef*
%ADD12RoundRect,0.218750X0.218750X0.256250X-0.218750X0.256250X-0.218750X-0.256250X0.218750X-0.256250X0*%
G04 #@! TD*
G04 #@! TA.AperFunction,SMDPad,CuDef*
%ADD13RoundRect,0.218750X0.256250X-0.218750X0.256250X0.218750X-0.256250X0.218750X-0.256250X-0.218750X0*%
G04 #@! TD*
G04 #@! TA.AperFunction,ViaPad*
%ADD14C,0.700000*%
G04 #@! TD*
G04 #@! TA.AperFunction,ViaPad*
%ADD15C,0.600000*%
G04 #@! TD*
G04 #@! TA.AperFunction,ViaPad*
%ADD16C,0.800000*%
G04 #@! TD*
G04 #@! TA.AperFunction,Conductor*
%ADD17C,1.500000*%
G04 #@! TD*
G04 #@! TA.AperFunction,Conductor*
%ADD18C,0.800000*%
G04 #@! TD*
G04 #@! TA.AperFunction,Conductor*
%ADD19C,0.600000*%
G04 #@! TD*
G04 #@! TA.AperFunction,Conductor*
%ADD20C,2.000000*%
G04 #@! TD*
G04 #@! TA.AperFunction,Conductor*
%ADD21C,0.250000*%
G04 #@! TD*
G04 #@! TA.AperFunction,Conductor*
%ADD22C,1.000000*%
G04 #@! TD*
G04 APERTURE END LIST*
D10*
X100000000Y-100000000D03*
D11*
X97460000Y-100000000D03*
X100000000Y-97460000D03*
X97460000Y-97460000D03*
X100000000Y-94920000D03*
X97460000Y-94920000D03*
X100000000Y-92380000D03*
X97460000Y-92380000D03*
X100000000Y-89840000D03*
X97460000Y-89840000D03*
D12*
X104500000Y-92200000D03*
X102925000Y-92200000D03*
D13*
X106000000Y-93775000D03*
X106000000Y-92200000D03*
D14*
X108350000Y-92700000D03*
D15*
X103550000Y-100925000D03*
X102850000Y-100925000D03*
X102175000Y-100925000D03*
X103850000Y-89075000D03*
D16*
X118150000Y-89275000D03*
X114550000Y-96550000D03*
X114550000Y-95875000D03*
D14*
X108350000Y-95125000D03*
D15*
X113600000Y-100150000D03*
X109575000Y-100925000D03*
X119000000Y-100550000D03*
X119000000Y-98600000D03*
D16*
X114550000Y-89275000D03*
D15*
X105625000Y-97050000D03*
D16*
X118150000Y-96550000D03*
D14*
X108350000Y-93300000D03*
D15*
X104225000Y-100925000D03*
D16*
X118150000Y-89950000D03*
D15*
X110275000Y-100925000D03*
X113600000Y-100775000D03*
X107675000Y-97050000D03*
D16*
X114550000Y-89950000D03*
D15*
X103850000Y-89750000D03*
X111600000Y-100150000D03*
X103850000Y-91107470D03*
X108700000Y-90600000D03*
X111600000Y-100800000D03*
X107000000Y-97050000D03*
D16*
X118150000Y-95875000D03*
D15*
X103850000Y-90450000D03*
X106300000Y-97050000D03*
X110950000Y-100925000D03*
X119000000Y-99900000D03*
X108900000Y-100925000D03*
X119000000Y-99250000D03*
X104500000Y-93825000D03*
X104900000Y-89100000D03*
X105600000Y-89100000D03*
X105600000Y-91100000D03*
D14*
X109800000Y-91000000D03*
D15*
X104900000Y-91100000D03*
X116250000Y-98600000D03*
X110300000Y-97025000D03*
X110975000Y-97025000D03*
D14*
X109475000Y-95100000D03*
D15*
X116250000Y-99900000D03*
X116250000Y-99250000D03*
X109600000Y-97025000D03*
X116250000Y-100550000D03*
X108925000Y-97025000D03*
X106900000Y-90800000D03*
X101200000Y-93800000D03*
X106456232Y-91465649D03*
X105990000Y-95360000D03*
X106949998Y-94350000D03*
D17*
X97460000Y-94920000D02*
X100000000Y-94920000D01*
D18*
X103850000Y-89075000D02*
X103850000Y-91107470D01*
D19*
X104900000Y-89100000D02*
X105600000Y-89100000D01*
X104900000Y-91100000D02*
X105600000Y-91100000D01*
D20*
X97460000Y-97460000D02*
X100000000Y-97460000D01*
X97460000Y-100000000D02*
X100000000Y-100000000D01*
D18*
X116250000Y-98600000D02*
X116250000Y-100550000D01*
D19*
X108925000Y-97025000D02*
X110975000Y-97025000D01*
D21*
X106900000Y-90800000D02*
X106859352Y-90840648D01*
X101060000Y-93660000D02*
X101200000Y-93800000D01*
X97460000Y-92380000D02*
X98740000Y-93660000D01*
X106859352Y-90840648D02*
X106859352Y-90943767D01*
X98740000Y-93660000D02*
X101060000Y-93660000D01*
D18*
X106456232Y-91743768D02*
X106000000Y-92200000D01*
D19*
X106456232Y-91465649D02*
X106456232Y-91743768D01*
D22*
X104500000Y-92200000D02*
X106000000Y-92200000D01*
D18*
X106949998Y-94350000D02*
X106949998Y-94350002D01*
D21*
X106537500Y-94600000D02*
X106537500Y-94762500D01*
X106000000Y-93775000D02*
X106075000Y-93775000D01*
D18*
X106075000Y-93775000D02*
X106650000Y-94350000D01*
D19*
X106949998Y-94350002D02*
X106537500Y-94762500D01*
D21*
X106650000Y-94350000D02*
X106949998Y-94350000D01*
D19*
X106537500Y-94762500D02*
X105990000Y-95360000D01*
G04 #@! TA.AperFunction,Conductor*
G36*
X98190930Y-92220002D02*
G01*
X98240710Y-92281556D01*
X98580333Y-93182537D01*
X98680575Y-93448467D01*
X98675370Y-93549260D01*
X98652884Y-93594231D01*
X98604529Y-93646214D01*
X98535745Y-93663803D01*
X98491092Y-93653923D01*
X97748301Y-93339666D01*
X97376904Y-93182536D01*
X97321962Y-93137573D01*
X97300000Y-93066495D01*
X97300000Y-92326000D01*
X97320002Y-92257879D01*
X97373658Y-92211386D01*
X97426000Y-92200000D01*
X98122809Y-92200000D01*
X98190930Y-92220002D01*
G37*
G04 #@! TD.AperFunction*
G04 #@! TA.AperFunction,Conductor*
G36*
X99308082Y-88770002D02*
G01*
X99354575Y-88823658D01*
X99364679Y-88893932D01*
X99312861Y-88978770D01*
X99277970Y-89003520D01*
X99174474Y-89111634D01*
X99152221Y-89134880D01*
X99132822Y-89155144D01*
X99129571Y-89160179D01*
X99024658Y-89322661D01*
X99018964Y-89331479D01*
X99016722Y-89337042D01*
X98943936Y-89517648D01*
X98940504Y-89526163D01*
X98927818Y-89591127D01*
X98916078Y-89651245D01*
X98900274Y-89732171D01*
X98899724Y-89942069D01*
X98938875Y-90148285D01*
X99016315Y-90343377D01*
X99019539Y-90348428D01*
X99019540Y-90348430D01*
X99049303Y-90395058D01*
X99129248Y-90520306D01*
X99183353Y-90577421D01*
X99260756Y-90659129D01*
X99273600Y-90672688D01*
X99278465Y-90676178D01*
X99278468Y-90676180D01*
X99385869Y-90753213D01*
X99444163Y-90795024D01*
X99449914Y-90797675D01*
X99604815Y-90869085D01*
X99634782Y-90882900D01*
X99640598Y-90884334D01*
X99640601Y-90884335D01*
X99686195Y-90895576D01*
X99838578Y-90933146D01*
X99844568Y-90933455D01*
X99844570Y-90933455D01*
X99918178Y-90937248D01*
X100048199Y-90943948D01*
X100054134Y-90943119D01*
X100054138Y-90943119D01*
X100206960Y-90921777D01*
X100256081Y-90914917D01*
X100454723Y-90847101D01*
X100636958Y-90742945D01*
X100796209Y-90606209D01*
X100801161Y-90599973D01*
X100895905Y-90480649D01*
X100926731Y-90441826D01*
X100973274Y-90352609D01*
X101002970Y-90295683D01*
X101023814Y-90255728D01*
X101026337Y-90247294D01*
X101082236Y-90060376D01*
X101083955Y-90054629D01*
X101104985Y-89845786D01*
X101105000Y-89840000D01*
X101085064Y-89631050D01*
X101076046Y-89600308D01*
X101052985Y-89521702D01*
X101025977Y-89429639D01*
X101023233Y-89424311D01*
X100932615Y-89248365D01*
X100932613Y-89248362D01*
X100929869Y-89243034D01*
X100800210Y-89077970D01*
X100677126Y-88971163D01*
X100638787Y-88911412D01*
X100638837Y-88840415D01*
X100677264Y-88780717D01*
X100759708Y-88750000D01*
X104260751Y-88750000D01*
X104328872Y-88770002D01*
X104375365Y-88823658D01*
X104381749Y-88911150D01*
X104377417Y-88926061D01*
X104374982Y-88933554D01*
X104356639Y-88984505D01*
X104356010Y-88993067D01*
X104354223Y-89001475D01*
X104354048Y-89001438D01*
X104353933Y-89002079D01*
X104354110Y-89002105D01*
X104352855Y-89010604D01*
X104350459Y-89018851D01*
X104350369Y-89027437D01*
X104350369Y-89027438D01*
X104349893Y-89072974D01*
X104349561Y-89080886D01*
X104346224Y-89126311D01*
X104346225Y-89126321D01*
X104345596Y-89134880D01*
X104347293Y-89143296D01*
X104347833Y-89151874D01*
X104347655Y-89151885D01*
X104347717Y-89152534D01*
X104347894Y-89152512D01*
X104348970Y-89161033D01*
X104348880Y-89169623D01*
X104351103Y-89177918D01*
X104351103Y-89177921D01*
X104362894Y-89221924D01*
X104364701Y-89229630D01*
X104372512Y-89268365D01*
X104375399Y-89282685D01*
X104379300Y-89290341D01*
X104382125Y-89298452D01*
X104381955Y-89298511D01*
X104382189Y-89299119D01*
X104382354Y-89299049D01*
X104385681Y-89306964D01*
X104387905Y-89315265D01*
X104397494Y-89331479D01*
X104415467Y-89361871D01*
X104419279Y-89368805D01*
X104443852Y-89417031D01*
X104449667Y-89423355D01*
X104454569Y-89430408D01*
X104454422Y-89430510D01*
X104454810Y-89431032D01*
X104454949Y-89430922D01*
X104460286Y-89437655D01*
X104464658Y-89445048D01*
X104494084Y-89473266D01*
X104503744Y-89482530D01*
X104509266Y-89488169D01*
X104545911Y-89528020D01*
X104553208Y-89532544D01*
X104559830Y-89538023D01*
X104559716Y-89538161D01*
X104560230Y-89538559D01*
X104560335Y-89538414D01*
X104567282Y-89543461D01*
X104573485Y-89549409D01*
X104621190Y-89574988D01*
X104628044Y-89578945D01*
X104674058Y-89607475D01*
X104682310Y-89609872D01*
X104690157Y-89613366D01*
X104690084Y-89613529D01*
X104690681Y-89613773D01*
X104690743Y-89613605D01*
X104698796Y-89616600D01*
X104706368Y-89620660D01*
X104759224Y-89632475D01*
X104766845Y-89634432D01*
X104818851Y-89649541D01*
X104825429Y-89650024D01*
X104831911Y-89650500D01*
X104831900Y-89650646D01*
X104836548Y-89651245D01*
X104836572Y-89650960D01*
X104845139Y-89651679D01*
X104853517Y-89653552D01*
X104862090Y-89653103D01*
X104862094Y-89653103D01*
X104908453Y-89650673D01*
X104915047Y-89650500D01*
X105525950Y-89650500D01*
X105536513Y-89651659D01*
X105536572Y-89650960D01*
X105545139Y-89651679D01*
X105553517Y-89653552D01*
X105562090Y-89653103D01*
X105562094Y-89653103D01*
X105608453Y-89650673D01*
X105615047Y-89650500D01*
X105636501Y-89650500D01*
X105640740Y-89649919D01*
X105640743Y-89649919D01*
X105643963Y-89649478D01*
X105646612Y-89649115D01*
X105657118Y-89648122D01*
X105664793Y-89647720D01*
X105695508Y-89646111D01*
X105695510Y-89646111D01*
X105704090Y-89645661D01*
X105714947Y-89642007D01*
X105738032Y-89636592D01*
X105749385Y-89635037D01*
X105757270Y-89631625D01*
X105792559Y-89616354D01*
X105802411Y-89612572D01*
X105838854Y-89600308D01*
X105838856Y-89600307D01*
X105846995Y-89597568D01*
X105856472Y-89591127D01*
X105877253Y-89579704D01*
X105887764Y-89575155D01*
X105924328Y-89545546D01*
X105932796Y-89539258D01*
X105964595Y-89517648D01*
X105964600Y-89517644D01*
X105971702Y-89512817D01*
X105979097Y-89504066D01*
X105996041Y-89487474D01*
X105998267Y-89485672D01*
X105998270Y-89485669D01*
X106004942Y-89480266D01*
X106032194Y-89441919D01*
X106038661Y-89433582D01*
X106063482Y-89404210D01*
X106069024Y-89397652D01*
X106073796Y-89387230D01*
X106085650Y-89366699D01*
X106087309Y-89364364D01*
X106092286Y-89357361D01*
X106108221Y-89313099D01*
X106112208Y-89303330D01*
X106128216Y-89268365D01*
X106131791Y-89260557D01*
X106133135Y-89252072D01*
X106133584Y-89249240D01*
X106139480Y-89226277D01*
X106140452Y-89223576D01*
X106140453Y-89223573D01*
X106143361Y-89215495D01*
X106146807Y-89168573D01*
X106148019Y-89158093D01*
X106155378Y-89111634D01*
X106155500Y-89100000D01*
X106154873Y-89095426D01*
X106154583Y-89090812D01*
X106154761Y-89090801D01*
X106154492Y-89082250D01*
X106154315Y-89082261D01*
X106153775Y-89073681D01*
X106154404Y-89065120D01*
X106152707Y-89056706D01*
X106152707Y-89056700D01*
X106143703Y-89012048D01*
X106142383Y-89004243D01*
X106136203Y-88959125D01*
X106136202Y-88959123D01*
X106135037Y-88950615D01*
X106131626Y-88942733D01*
X106129316Y-88934458D01*
X106129488Y-88934410D01*
X106129293Y-88933789D01*
X106129125Y-88933847D01*
X106126298Y-88925729D01*
X106124601Y-88917315D01*
X106123276Y-88914714D01*
X106119896Y-88846531D01*
X106155275Y-88784977D01*
X106242401Y-88750000D01*
X120624000Y-88750000D01*
X120692121Y-88770002D01*
X120738614Y-88823658D01*
X120750000Y-88876000D01*
X120750001Y-101124000D01*
X120729999Y-101192121D01*
X120676343Y-101238614D01*
X120624001Y-101250000D01*
X116775949Y-101250000D01*
X116707828Y-101229998D01*
X116661335Y-101176342D01*
X116651231Y-101106068D01*
X116684100Y-101037746D01*
X116716003Y-101003774D01*
X116780311Y-100935293D01*
X116859468Y-100791306D01*
X116900331Y-100632156D01*
X116900500Y-100629470D01*
X116900500Y-98560421D01*
X116884906Y-98436984D01*
X116856951Y-98366376D01*
X116827339Y-98291584D01*
X116827337Y-98291581D01*
X116824419Y-98284210D01*
X116727839Y-98151279D01*
X116601233Y-98046543D01*
X116452560Y-97976582D01*
X116444777Y-97975097D01*
X116444776Y-97975097D01*
X116298944Y-97947278D01*
X116298942Y-97947278D01*
X116291158Y-97945793D01*
X116209165Y-97950952D01*
X116135083Y-97955613D01*
X116135081Y-97955613D01*
X116127172Y-97956111D01*
X116119636Y-97958560D01*
X116119634Y-97958560D01*
X115978444Y-98004435D01*
X115978441Y-98004437D01*
X115970902Y-98006886D01*
X115832169Y-98094929D01*
X115826742Y-98100708D01*
X115826741Y-98100709D01*
X115725113Y-98208931D01*
X115725110Y-98208936D01*
X115719689Y-98214708D01*
X115640532Y-98358695D01*
X115599669Y-98517845D01*
X115599500Y-98520531D01*
X115599501Y-100589579D01*
X115615095Y-100713016D01*
X115637147Y-100768714D01*
X115670753Y-100853593D01*
X115675582Y-100865790D01*
X115772162Y-100998721D01*
X115778270Y-101003774D01*
X115806243Y-101026915D01*
X115845981Y-101085748D01*
X115847604Y-101156727D01*
X115810595Y-101217314D01*
X115725928Y-101250000D01*
X101111391Y-101250000D01*
X101043270Y-101229998D01*
X100996777Y-101176342D01*
X100986673Y-101106068D01*
X101021722Y-101036052D01*
X101030312Y-101030312D01*
X101050537Y-101000043D01*
X101078696Y-100957901D01*
X101078697Y-100957899D01*
X101085589Y-100947584D01*
X101105000Y-100850000D01*
X101105000Y-100620352D01*
X101115626Y-100569707D01*
X101187668Y-100405590D01*
X101189923Y-100400453D01*
X101242031Y-100183407D01*
X101254880Y-99960564D01*
X101228064Y-99738967D01*
X101162431Y-99525621D01*
X101159861Y-99520641D01*
X101159857Y-99520632D01*
X101119034Y-99441539D01*
X101105000Y-99383750D01*
X101105000Y-99150000D01*
X101085589Y-99052416D01*
X101078697Y-99042101D01*
X101078696Y-99042099D01*
X101037205Y-98980004D01*
X101030312Y-98969688D01*
X101019996Y-98962795D01*
X100957901Y-98921304D01*
X100957899Y-98921303D01*
X100947584Y-98914411D01*
X100935417Y-98911991D01*
X100935415Y-98911990D01*
X100880760Y-98901119D01*
X100850000Y-98895000D01*
X100625943Y-98895000D01*
X100570568Y-98881707D01*
X100569985Y-98881341D01*
X100486224Y-98847669D01*
X100430481Y-98803703D01*
X100407356Y-98736578D01*
X100424193Y-98667607D01*
X100478976Y-98617038D01*
X100639101Y-98540662D01*
X100820370Y-98410407D01*
X100885011Y-98343703D01*
X100971804Y-98254140D01*
X100971806Y-98254137D01*
X100975707Y-98250112D01*
X101100203Y-98064842D01*
X101189923Y-97860453D01*
X101242031Y-97643407D01*
X101250094Y-97503567D01*
X101254557Y-97426171D01*
X101254557Y-97426168D01*
X101254880Y-97420564D01*
X101228064Y-97198967D01*
X101185276Y-97059880D01*
X108370596Y-97059880D01*
X108372293Y-97068296D01*
X108372833Y-97076874D01*
X108372655Y-97076885D01*
X108372717Y-97077534D01*
X108372894Y-97077512D01*
X108373970Y-97086033D01*
X108373880Y-97094623D01*
X108376103Y-97102918D01*
X108376103Y-97102921D01*
X108387894Y-97146924D01*
X108389701Y-97154630D01*
X108397512Y-97193365D01*
X108400399Y-97207685D01*
X108404300Y-97215341D01*
X108407125Y-97223452D01*
X108406955Y-97223511D01*
X108407189Y-97224119D01*
X108407354Y-97224049D01*
X108410681Y-97231964D01*
X108412905Y-97240265D01*
X108417279Y-97247661D01*
X108440467Y-97286871D01*
X108444279Y-97293805D01*
X108468852Y-97342031D01*
X108474667Y-97348355D01*
X108479569Y-97355408D01*
X108479422Y-97355510D01*
X108479810Y-97356032D01*
X108479949Y-97355922D01*
X108485286Y-97362655D01*
X108489658Y-97370048D01*
X108519084Y-97398266D01*
X108528744Y-97407530D01*
X108534266Y-97413169D01*
X108570911Y-97453020D01*
X108578208Y-97457544D01*
X108584830Y-97463023D01*
X108584716Y-97463161D01*
X108585230Y-97463559D01*
X108585335Y-97463414D01*
X108592282Y-97468461D01*
X108598485Y-97474409D01*
X108646190Y-97499988D01*
X108653044Y-97503945D01*
X108699058Y-97532475D01*
X108707310Y-97534872D01*
X108715157Y-97538366D01*
X108715084Y-97538529D01*
X108715681Y-97538773D01*
X108715743Y-97538605D01*
X108723796Y-97541600D01*
X108731368Y-97545660D01*
X108784224Y-97557475D01*
X108791845Y-97559432D01*
X108843851Y-97574541D01*
X108850429Y-97575024D01*
X108856911Y-97575500D01*
X108856900Y-97575646D01*
X108861548Y-97576245D01*
X108861572Y-97575960D01*
X108870139Y-97576679D01*
X108878517Y-97578552D01*
X108887090Y-97578103D01*
X108887094Y-97578103D01*
X108933453Y-97575673D01*
X108940047Y-97575500D01*
X109525950Y-97575500D01*
X109536513Y-97576659D01*
X109536572Y-97575960D01*
X109545139Y-97576679D01*
X109553517Y-97578552D01*
X109562090Y-97578103D01*
X109562094Y-97578103D01*
X109608453Y-97575673D01*
X109615047Y-97575500D01*
X110225950Y-97575500D01*
X110236513Y-97576659D01*
X110236572Y-97575960D01*
X110245139Y-97576679D01*
X110253517Y-97578552D01*
X110262090Y-97578103D01*
X110262094Y-97578103D01*
X110308453Y-97575673D01*
X110315047Y-97575500D01*
X110900950Y-97575500D01*
X110911513Y-97576659D01*
X110911572Y-97575960D01*
X110920139Y-97576679D01*
X110928517Y-97578552D01*
X110937090Y-97578103D01*
X110937094Y-97578103D01*
X110983453Y-97575673D01*
X110990047Y-97575500D01*
X111011501Y-97575500D01*
X111015740Y-97574919D01*
X111015743Y-97574919D01*
X111018963Y-97574478D01*
X111021612Y-97574115D01*
X111032118Y-97573122D01*
X111039793Y-97572720D01*
X111070508Y-97571111D01*
X111070510Y-97571111D01*
X111079090Y-97570661D01*
X111089947Y-97567007D01*
X111113032Y-97561592D01*
X111124385Y-97560037D01*
X111132270Y-97556625D01*
X111167559Y-97541354D01*
X111177411Y-97537572D01*
X111213854Y-97525308D01*
X111213856Y-97525307D01*
X111221995Y-97522568D01*
X111231472Y-97516127D01*
X111252253Y-97504704D01*
X111262764Y-97500155D01*
X111299328Y-97470546D01*
X111307796Y-97464258D01*
X111339595Y-97442648D01*
X111339600Y-97442644D01*
X111346702Y-97437817D01*
X111354097Y-97429066D01*
X111371041Y-97412474D01*
X111373267Y-97410672D01*
X111373270Y-97410669D01*
X111379942Y-97405266D01*
X111407194Y-97366919D01*
X111413661Y-97358582D01*
X111438482Y-97329210D01*
X111444024Y-97322652D01*
X111448796Y-97312230D01*
X111460650Y-97291699D01*
X111462309Y-97289364D01*
X111467286Y-97282361D01*
X111483221Y-97238099D01*
X111487208Y-97228330D01*
X111503216Y-97193365D01*
X111506791Y-97185557D01*
X111508135Y-97177072D01*
X111508584Y-97174240D01*
X111514480Y-97151277D01*
X111515452Y-97148576D01*
X111515453Y-97148573D01*
X111518361Y-97140495D01*
X111521807Y-97093573D01*
X111523019Y-97083093D01*
X111530378Y-97036634D01*
X111530500Y-97025000D01*
X111529873Y-97020426D01*
X111529583Y-97015812D01*
X111529761Y-97015801D01*
X111529492Y-97007250D01*
X111529315Y-97007261D01*
X111528775Y-96998681D01*
X111529404Y-96990120D01*
X111527707Y-96981706D01*
X111527707Y-96981700D01*
X111518703Y-96937048D01*
X111517383Y-96929243D01*
X111511203Y-96884125D01*
X111511202Y-96884123D01*
X111510037Y-96875615D01*
X111506626Y-96867733D01*
X111504316Y-96859458D01*
X111504488Y-96859410D01*
X111504293Y-96858790D01*
X111504125Y-96858849D01*
X111501299Y-96850733D01*
X111499601Y-96842315D01*
X111475025Y-96794084D01*
X111471656Y-96786923D01*
X111453569Y-96745125D01*
X111453568Y-96745124D01*
X111450155Y-96737236D01*
X111444745Y-96730555D01*
X111440299Y-96723214D01*
X111440451Y-96723122D01*
X111440095Y-96722574D01*
X111439949Y-96722675D01*
X111435049Y-96715625D01*
X111431148Y-96707969D01*
X111394506Y-96668122D01*
X111389344Y-96662141D01*
X111360674Y-96626735D01*
X111360669Y-96626731D01*
X111355266Y-96620058D01*
X111348266Y-96615083D01*
X111342003Y-96609202D01*
X111342125Y-96609072D01*
X111341635Y-96608639D01*
X111341520Y-96608778D01*
X111334907Y-96603307D01*
X111329089Y-96596980D01*
X111283073Y-96568449D01*
X111276494Y-96564077D01*
X111232361Y-96532714D01*
X111224281Y-96529805D01*
X111216667Y-96525824D01*
X111216749Y-96525666D01*
X111216160Y-96525382D01*
X111216088Y-96525544D01*
X111208241Y-96522050D01*
X111200942Y-96517525D01*
X111192696Y-96515129D01*
X111192693Y-96515128D01*
X111158757Y-96505269D01*
X111148949Y-96502420D01*
X111141446Y-96499982D01*
X111090495Y-96481639D01*
X111081933Y-96481010D01*
X111073525Y-96479223D01*
X111073562Y-96479048D01*
X111069030Y-96478233D01*
X111068987Y-96478470D01*
X111062488Y-96477301D01*
X111056149Y-96475459D01*
X111043089Y-96474500D01*
X110997907Y-96474500D01*
X110988679Y-96474162D01*
X110940120Y-96470596D01*
X110931701Y-96472294D01*
X110927880Y-96472534D01*
X110908182Y-96474500D01*
X110322907Y-96474500D01*
X110313679Y-96474162D01*
X110265120Y-96470596D01*
X110256701Y-96472294D01*
X110252880Y-96472534D01*
X110233182Y-96474500D01*
X109622907Y-96474500D01*
X109613679Y-96474162D01*
X109565120Y-96470596D01*
X109556701Y-96472294D01*
X109552880Y-96472534D01*
X109533182Y-96474500D01*
X108947907Y-96474500D01*
X108938679Y-96474162D01*
X108890120Y-96470596D01*
X108881706Y-96472293D01*
X108881700Y-96472293D01*
X108837048Y-96481297D01*
X108829243Y-96482617D01*
X108784125Y-96488797D01*
X108784123Y-96488798D01*
X108775615Y-96489963D01*
X108767733Y-96493374D01*
X108759458Y-96495684D01*
X108759410Y-96495512D01*
X108758790Y-96495707D01*
X108758849Y-96495875D01*
X108750733Y-96498701D01*
X108742315Y-96500399D01*
X108734663Y-96504298D01*
X108734660Y-96504299D01*
X108694087Y-96524973D01*
X108686927Y-96528342D01*
X108637236Y-96549845D01*
X108630555Y-96555255D01*
X108623214Y-96559701D01*
X108623122Y-96559549D01*
X108622574Y-96559905D01*
X108622675Y-96560051D01*
X108615625Y-96564951D01*
X108607969Y-96568852D01*
X108568122Y-96605494D01*
X108562141Y-96610656D01*
X108526735Y-96639326D01*
X108526731Y-96639331D01*
X108520058Y-96644734D01*
X108515083Y-96651734D01*
X108509202Y-96657997D01*
X108509072Y-96657875D01*
X108508639Y-96658365D01*
X108508778Y-96658480D01*
X108503307Y-96665093D01*
X108496980Y-96670911D01*
X108474003Y-96707969D01*
X108468450Y-96716925D01*
X108464077Y-96723506D01*
X108432714Y-96767639D01*
X108429805Y-96775719D01*
X108425824Y-96783333D01*
X108425666Y-96783251D01*
X108425382Y-96783840D01*
X108425544Y-96783912D01*
X108422050Y-96791759D01*
X108417525Y-96799058D01*
X108415129Y-96807304D01*
X108415128Y-96807307D01*
X108402421Y-96851047D01*
X108399982Y-96858554D01*
X108381639Y-96909505D01*
X108381010Y-96918067D01*
X108379223Y-96926475D01*
X108379048Y-96926438D01*
X108378933Y-96927079D01*
X108379110Y-96927105D01*
X108377855Y-96935604D01*
X108375459Y-96943851D01*
X108375369Y-96952437D01*
X108375369Y-96952438D01*
X108374893Y-96997974D01*
X108374561Y-97005886D01*
X108371224Y-97051311D01*
X108371225Y-97051321D01*
X108370596Y-97059880D01*
X101185276Y-97059880D01*
X101162431Y-96985621D01*
X101133333Y-96929243D01*
X101062625Y-96792250D01*
X101062624Y-96792249D01*
X101060054Y-96787269D01*
X100992057Y-96698654D01*
X100927586Y-96614633D01*
X100927582Y-96614629D01*
X100924170Y-96610182D01*
X100759074Y-96459957D01*
X100569985Y-96341341D01*
X100564781Y-96339249D01*
X100564777Y-96339247D01*
X100368093Y-96260181D01*
X100362879Y-96258085D01*
X100144304Y-96212820D01*
X100139693Y-96212554D01*
X100139692Y-96212554D01*
X100088544Y-96209605D01*
X100088540Y-96209605D01*
X100086721Y-96209500D01*
X97403975Y-96209500D01*
X97401189Y-96209749D01*
X97401181Y-96209749D01*
X97319572Y-96217033D01*
X97237670Y-96224342D01*
X97232254Y-96225824D01*
X97232252Y-96225824D01*
X97148083Y-96248850D01*
X97022368Y-96283242D01*
X97017310Y-96285654D01*
X97017306Y-96285656D01*
X96921633Y-96331290D01*
X96820899Y-96379338D01*
X96639630Y-96509593D01*
X96582204Y-96568852D01*
X96495460Y-96658365D01*
X96484293Y-96669888D01*
X96481167Y-96674540D01*
X96481163Y-96674545D01*
X96480584Y-96675407D01*
X96480220Y-96675709D01*
X96477630Y-96678908D01*
X96476993Y-96678392D01*
X96425990Y-96720794D01*
X96355524Y-96729460D01*
X96291559Y-96698654D01*
X96250000Y-96605135D01*
X96250000Y-92960401D01*
X96270002Y-92892280D01*
X96323658Y-92845787D01*
X96393932Y-92835683D01*
X96458512Y-92865177D01*
X96482207Y-92892608D01*
X96589248Y-93060306D01*
X96670624Y-93146209D01*
X96687877Y-93164421D01*
X96733600Y-93212688D01*
X96738465Y-93216178D01*
X96738468Y-93216180D01*
X96896887Y-93329805D01*
X96904163Y-93335024D01*
X97094782Y-93422900D01*
X97100598Y-93424334D01*
X97100601Y-93424335D01*
X97194668Y-93447527D01*
X97298578Y-93473146D01*
X97304568Y-93473455D01*
X97304570Y-93473455D01*
X97417157Y-93479257D01*
X97459767Y-93489048D01*
X97650891Y-93569908D01*
X98281336Y-93836634D01*
X98393682Y-93884165D01*
X98396419Y-93885039D01*
X98396428Y-93885042D01*
X98407111Y-93888452D01*
X98415300Y-93891066D01*
X98457121Y-93917919D01*
X98458570Y-93916081D01*
X98483322Y-93935594D01*
X98488036Y-93939783D01*
X98488084Y-93939726D01*
X98492042Y-93943080D01*
X98495721Y-93946759D01*
X98499950Y-93949781D01*
X98512165Y-93958510D01*
X98516914Y-93962075D01*
X98556693Y-93993435D01*
X98565237Y-93996436D01*
X98572603Y-94001699D01*
X98621124Y-94016210D01*
X98626766Y-94018043D01*
X98667098Y-94032207D01*
X98667104Y-94032208D01*
X98674581Y-94034834D01*
X98682271Y-94035500D01*
X98685007Y-94035500D01*
X98685730Y-94035531D01*
X98692310Y-94037499D01*
X98740723Y-94035597D01*
X98745669Y-94035500D01*
X100628002Y-94035500D01*
X100696123Y-94055502D01*
X100736456Y-94097361D01*
X100752057Y-94123740D01*
X100764658Y-94145048D01*
X100873485Y-94249409D01*
X100920110Y-94274409D01*
X100994656Y-94314380D01*
X101006368Y-94320660D01*
X101027153Y-94325306D01*
X101145131Y-94351678D01*
X101145135Y-94351678D01*
X101153517Y-94353552D01*
X101247950Y-94348603D01*
X101295507Y-94346111D01*
X101295508Y-94346111D01*
X101304090Y-94345661D01*
X101446995Y-94297568D01*
X101571702Y-94212817D01*
X101577245Y-94206258D01*
X101577247Y-94206256D01*
X101647897Y-94122652D01*
X101669024Y-94097652D01*
X101696564Y-94037499D01*
X101728216Y-93968366D01*
X101728216Y-93968364D01*
X101731791Y-93960557D01*
X101755378Y-93811634D01*
X101755500Y-93800000D01*
X101735037Y-93650615D01*
X101689385Y-93545120D01*
X101678567Y-93520120D01*
X101678566Y-93520118D01*
X101675155Y-93512236D01*
X101627711Y-93453647D01*
X101585674Y-93401736D01*
X101585673Y-93401735D01*
X101580266Y-93395058D01*
X101573264Y-93390082D01*
X101573262Y-93390080D01*
X101464363Y-93312690D01*
X101457361Y-93307714D01*
X101315495Y-93256639D01*
X101306935Y-93256010D01*
X101306933Y-93256010D01*
X101228122Y-93250223D01*
X101165120Y-93245596D01*
X101090569Y-93260628D01*
X101025739Y-93273700D01*
X101025736Y-93273701D01*
X101017315Y-93275399D01*
X101012390Y-93277908D01*
X100973414Y-93284500D01*
X100947338Y-93284500D01*
X100879217Y-93264498D01*
X100832724Y-93210842D01*
X100822620Y-93140568D01*
X100848661Y-93080149D01*
X100851698Y-93076325D01*
X100926731Y-92981826D01*
X100932639Y-92970502D01*
X100984256Y-92871557D01*
X101023814Y-92795728D01*
X101083955Y-92594629D01*
X101104985Y-92385786D01*
X101105000Y-92380000D01*
X101102510Y-92353896D01*
X101091725Y-92240857D01*
X103745606Y-92240857D01*
X103746846Y-92248073D01*
X103746846Y-92248075D01*
X103771224Y-92389946D01*
X103775238Y-92413309D01*
X103785764Y-92438046D01*
X103808868Y-92492345D01*
X103817527Y-92522945D01*
X103826703Y-92583975D01*
X103828443Y-92595551D01*
X103889421Y-92722536D01*
X103895813Y-92729451D01*
X103964897Y-92804186D01*
X103985041Y-92825978D01*
X103993188Y-92830710D01*
X103993189Y-92830711D01*
X104083973Y-92883443D01*
X104106851Y-92896732D01*
X104244080Y-92928540D01*
X104281250Y-92930000D01*
X104310892Y-92930000D01*
X104340840Y-92933611D01*
X104401166Y-92948373D01*
X104401170Y-92948374D01*
X104406619Y-92949707D01*
X104412219Y-92950054D01*
X104412223Y-92950055D01*
X104417461Y-92950380D01*
X104417474Y-92950380D01*
X104419402Y-92950500D01*
X105386955Y-92950500D01*
X105455076Y-92970502D01*
X105501569Y-93024158D01*
X105511673Y-93094432D01*
X105472483Y-93169025D01*
X105374021Y-93260041D01*
X105350579Y-93300399D01*
X105313083Y-93364954D01*
X105303268Y-93381851D01*
X105271460Y-93519080D01*
X105270000Y-93556250D01*
X105270000Y-93610151D01*
X105249998Y-93678272D01*
X105196342Y-93724765D01*
X105126068Y-93734869D01*
X105061488Y-93705375D01*
X105028363Y-93660192D01*
X104978567Y-93545120D01*
X104978566Y-93545118D01*
X104975155Y-93537236D01*
X104880266Y-93420058D01*
X104873264Y-93415082D01*
X104873262Y-93415080D01*
X104764363Y-93337690D01*
X104757361Y-93332714D01*
X104615495Y-93281639D01*
X104606935Y-93281010D01*
X104606933Y-93281010D01*
X104528122Y-93275223D01*
X104465120Y-93270596D01*
X104317315Y-93300399D01*
X104182969Y-93368852D01*
X104176647Y-93374665D01*
X104176646Y-93374666D01*
X104124192Y-93422900D01*
X104071980Y-93470911D01*
X104067452Y-93478214D01*
X104067451Y-93478215D01*
X104019067Y-93556250D01*
X103992525Y-93599058D01*
X103950459Y-93743851D01*
X103950369Y-93752437D01*
X103950369Y-93752438D01*
X103949919Y-93795424D01*
X103948880Y-93894623D01*
X103987905Y-94040265D01*
X104064658Y-94170048D01*
X104173485Y-94274409D01*
X104306368Y-94345660D01*
X104348874Y-94355161D01*
X104445131Y-94376678D01*
X104445135Y-94376678D01*
X104453517Y-94378552D01*
X104547950Y-94373603D01*
X104595507Y-94371111D01*
X104595508Y-94371111D01*
X104604090Y-94370661D01*
X104746995Y-94322568D01*
X104871702Y-94237817D01*
X104877245Y-94231258D01*
X104877247Y-94231256D01*
X104953062Y-94141540D01*
X104969024Y-94122652D01*
X105031791Y-93985557D01*
X105033469Y-93986325D01*
X105066488Y-93935789D01*
X105131290Y-93906785D01*
X105201486Y-93917419D01*
X105254789Y-93964316D01*
X105272879Y-94012901D01*
X105289543Y-94123740D01*
X105290943Y-94133051D01*
X105351921Y-94260036D01*
X105386615Y-94297568D01*
X105431071Y-94345661D01*
X105447541Y-94363479D01*
X105569351Y-94434232D01*
X105706580Y-94466040D01*
X105743750Y-94467500D01*
X105774799Y-94467500D01*
X105842920Y-94487502D01*
X105889413Y-94541158D01*
X105899517Y-94611432D01*
X105867697Y-94678624D01*
X105623093Y-94945567D01*
X105602583Y-94967950D01*
X105594970Y-94975575D01*
X105568305Y-95000094D01*
X105568302Y-95000098D01*
X105561980Y-95005911D01*
X105557454Y-95013211D01*
X105531265Y-95055449D01*
X105527769Y-95060781D01*
X105499497Y-95101610D01*
X105499495Y-95101614D01*
X105494605Y-95108676D01*
X105491794Y-95116795D01*
X105489289Y-95121733D01*
X105487052Y-95126757D01*
X105482525Y-95134058D01*
X105480128Y-95142309D01*
X105480127Y-95142311D01*
X105466268Y-95190017D01*
X105464341Y-95196075D01*
X105445268Y-95251156D01*
X105444744Y-95259731D01*
X105443658Y-95265165D01*
X105442855Y-95270605D01*
X105440459Y-95278851D01*
X105440369Y-95287438D01*
X105439848Y-95337127D01*
X105439620Y-95343496D01*
X105436064Y-95401654D01*
X105437864Y-95410049D01*
X105438277Y-95415545D01*
X105438970Y-95421031D01*
X105438880Y-95429623D01*
X105441103Y-95437921D01*
X105441104Y-95437926D01*
X105453968Y-95485933D01*
X105455451Y-95492081D01*
X105467672Y-95549084D01*
X105471666Y-95556691D01*
X105473550Y-95561895D01*
X105475681Y-95566964D01*
X105477905Y-95575265D01*
X105503977Y-95619351D01*
X105507575Y-95625435D01*
X105510678Y-95630998D01*
X105537762Y-95682583D01*
X105543652Y-95688833D01*
X105546881Y-95693360D01*
X105550288Y-95697658D01*
X105554658Y-95705048D01*
X105560856Y-95710991D01*
X105560857Y-95710993D01*
X105596732Y-95745396D01*
X105601219Y-95749923D01*
X105635274Y-95786060D01*
X105635276Y-95786062D01*
X105641170Y-95792316D01*
X105648527Y-95796754D01*
X105652840Y-95800234D01*
X105657284Y-95803463D01*
X105663485Y-95809409D01*
X105671059Y-95813470D01*
X105714855Y-95836953D01*
X105720399Y-95840109D01*
X105762922Y-95865761D01*
X105762924Y-95865762D01*
X105770278Y-95870198D01*
X105778554Y-95872493D01*
X105783626Y-95874677D01*
X105788797Y-95876600D01*
X105796368Y-95880660D01*
X105804747Y-95882533D01*
X105804750Y-95882534D01*
X105853248Y-95893374D01*
X105859433Y-95894922D01*
X105907300Y-95908197D01*
X105907306Y-95908198D01*
X105915575Y-95910491D01*
X105924159Y-95910476D01*
X105929642Y-95911217D01*
X105935134Y-95911678D01*
X105943517Y-95913552D01*
X106001734Y-95910501D01*
X106008072Y-95910329D01*
X106066354Y-95910227D01*
X106074626Y-95907902D01*
X106080107Y-95907141D01*
X106085509Y-95906111D01*
X106094090Y-95905661D01*
X106149325Y-95887073D01*
X106155415Y-95885193D01*
X106164874Y-95882534D01*
X106211509Y-95869425D01*
X106218848Y-95864963D01*
X106223926Y-95862755D01*
X106228860Y-95860306D01*
X106236995Y-95857568D01*
X106244094Y-95852743D01*
X106244099Y-95852741D01*
X106285207Y-95824804D01*
X106290568Y-95821355D01*
X106340343Y-95791091D01*
X106349873Y-95782110D01*
X106349969Y-95782005D01*
X106353447Y-95778681D01*
X106354596Y-95777646D01*
X106361702Y-95772817D01*
X106399361Y-95728254D01*
X106402701Y-95724458D01*
X106933418Y-95145274D01*
X106937221Y-95141303D01*
X106978524Y-95100000D01*
X108869500Y-95100000D01*
X108890132Y-95256715D01*
X108950622Y-95402750D01*
X109046847Y-95528153D01*
X109172250Y-95624378D01*
X109318285Y-95684868D01*
X109475000Y-95705500D01*
X109483188Y-95704422D01*
X109623527Y-95685946D01*
X109631715Y-95684868D01*
X109777750Y-95624378D01*
X109903153Y-95528153D01*
X109999378Y-95402750D01*
X110059868Y-95256715D01*
X110080500Y-95100000D01*
X110059868Y-94943285D01*
X109999378Y-94797250D01*
X109903153Y-94671847D01*
X109777750Y-94575622D01*
X109631715Y-94515132D01*
X109475000Y-94494500D01*
X109318285Y-94515132D01*
X109172250Y-94575622D01*
X109046847Y-94671847D01*
X108950622Y-94797250D01*
X108890132Y-94943285D01*
X108869500Y-95100000D01*
X106978524Y-95100000D01*
X107068925Y-95009599D01*
X107119084Y-94978861D01*
X107221554Y-94945567D01*
X107221557Y-94945565D01*
X107229096Y-94943116D01*
X107367829Y-94855073D01*
X107373257Y-94849293D01*
X107474885Y-94741071D01*
X107474888Y-94741066D01*
X107480309Y-94735294D01*
X107559466Y-94591307D01*
X107600329Y-94432157D01*
X107600498Y-94429471D01*
X107600498Y-94310421D01*
X107584904Y-94186984D01*
X107524417Y-94034210D01*
X107427837Y-93901279D01*
X107301231Y-93796543D01*
X107152558Y-93726582D01*
X107144775Y-93725097D01*
X107144774Y-93725097D01*
X106998942Y-93697278D01*
X106998940Y-93697278D01*
X106991156Y-93695793D01*
X106976983Y-93696685D01*
X106879975Y-93660029D01*
X106751163Y-93531217D01*
X106715658Y-93460855D01*
X106710457Y-93426260D01*
X106710457Y-93426259D01*
X106709057Y-93416949D01*
X106653090Y-93300399D01*
X106652156Y-93298454D01*
X106652156Y-93298453D01*
X106648079Y-93289964D01*
X106552459Y-93186521D01*
X106430649Y-93115768D01*
X106421476Y-93113642D01*
X106421474Y-93113641D01*
X106410903Y-93111191D01*
X106349058Y-93076325D01*
X106315880Y-93013558D01*
X106321904Y-92942817D01*
X106365217Y-92886563D01*
X106395076Y-92871628D01*
X106395551Y-92871557D01*
X106490468Y-92825978D01*
X106514046Y-92814656D01*
X106514047Y-92814656D01*
X106522536Y-92810579D01*
X106625979Y-92714959D01*
X106696732Y-92593149D01*
X106728540Y-92455920D01*
X106729242Y-92438046D01*
X106766050Y-92353896D01*
X106944191Y-92175755D01*
X106952307Y-92165292D01*
X107015588Y-92083710D01*
X107015590Y-92083707D01*
X107020447Y-92077445D01*
X107085704Y-91926647D01*
X107111408Y-91764358D01*
X107095944Y-91600776D01*
X107090217Y-91584868D01*
X107047682Y-91466718D01*
X107043427Y-91395849D01*
X107078162Y-91333929D01*
X107126043Y-91304620D01*
X107138855Y-91300308D01*
X107138859Y-91300306D01*
X107146995Y-91297568D01*
X107163982Y-91286024D01*
X107258301Y-91221924D01*
X107271702Y-91212817D01*
X107277245Y-91206258D01*
X107277247Y-91206256D01*
X107363481Y-91104211D01*
X107369024Y-91097652D01*
X107378505Y-91076944D01*
X107413732Y-91000000D01*
X109194500Y-91000000D01*
X109215132Y-91156715D01*
X109275622Y-91302750D01*
X109371847Y-91428153D01*
X109497250Y-91524378D01*
X109643285Y-91584868D01*
X109800000Y-91605500D01*
X109808188Y-91604422D01*
X109948527Y-91585946D01*
X109956715Y-91584868D01*
X110102750Y-91524378D01*
X110228153Y-91428153D01*
X110324378Y-91302750D01*
X110384868Y-91156715D01*
X110405500Y-91000000D01*
X110384868Y-90843285D01*
X110324378Y-90697250D01*
X110244020Y-90592525D01*
X110233176Y-90578393D01*
X110228153Y-90571847D01*
X110102750Y-90475622D01*
X109977489Y-90423737D01*
X109964344Y-90418292D01*
X109956715Y-90415132D01*
X109800000Y-90394500D01*
X109643285Y-90415132D01*
X109635656Y-90418292D01*
X109622511Y-90423737D01*
X109497250Y-90475622D01*
X109371847Y-90571847D01*
X109366824Y-90578393D01*
X109355980Y-90592525D01*
X109275622Y-90697250D01*
X109215132Y-90843285D01*
X109194500Y-91000000D01*
X107413732Y-91000000D01*
X107428216Y-90968366D01*
X107428216Y-90968364D01*
X107431791Y-90960557D01*
X107455378Y-90811634D01*
X107455500Y-90800000D01*
X107435037Y-90650615D01*
X107431035Y-90641366D01*
X107378567Y-90520120D01*
X107378566Y-90520118D01*
X107375155Y-90512236D01*
X107313839Y-90436517D01*
X107285674Y-90401736D01*
X107285673Y-90401735D01*
X107280266Y-90395058D01*
X107273264Y-90390082D01*
X107273262Y-90390080D01*
X107164363Y-90312690D01*
X107157361Y-90307714D01*
X107015495Y-90256639D01*
X107006935Y-90256010D01*
X107006933Y-90256010D01*
X106928122Y-90250223D01*
X106865120Y-90245596D01*
X106717315Y-90275399D01*
X106582969Y-90343852D01*
X106576647Y-90349665D01*
X106576646Y-90349666D01*
X106526717Y-90395578D01*
X106471980Y-90445911D01*
X106467452Y-90453214D01*
X106467451Y-90453215D01*
X106407157Y-90550459D01*
X106392525Y-90574058D01*
X106350459Y-90718851D01*
X106350369Y-90727439D01*
X106349319Y-90827669D01*
X106328605Y-90895576D01*
X106264797Y-90945329D01*
X106261687Y-90946413D01*
X106190778Y-90949946D01*
X106129216Y-90914582D01*
X106107949Y-90884635D01*
X106107797Y-90884335D01*
X106100025Y-90869082D01*
X106096656Y-90861923D01*
X106078569Y-90820125D01*
X106078568Y-90820124D01*
X106075155Y-90812236D01*
X106069745Y-90805555D01*
X106065299Y-90798214D01*
X106065451Y-90798122D01*
X106065095Y-90797574D01*
X106064949Y-90797675D01*
X106060049Y-90790625D01*
X106056148Y-90782969D01*
X106019506Y-90743122D01*
X106014344Y-90737141D01*
X105985674Y-90701735D01*
X105985669Y-90701731D01*
X105980266Y-90695058D01*
X105973266Y-90690083D01*
X105967003Y-90684202D01*
X105967125Y-90684072D01*
X105966635Y-90683639D01*
X105966520Y-90683778D01*
X105959907Y-90678307D01*
X105954089Y-90671980D01*
X105908073Y-90643449D01*
X105901494Y-90639077D01*
X105857361Y-90607714D01*
X105849281Y-90604805D01*
X105841667Y-90600824D01*
X105841749Y-90600666D01*
X105841160Y-90600382D01*
X105841088Y-90600544D01*
X105833241Y-90597050D01*
X105825942Y-90592525D01*
X105817696Y-90590129D01*
X105817693Y-90590128D01*
X105783757Y-90580269D01*
X105773949Y-90577420D01*
X105766446Y-90574982D01*
X105715495Y-90556639D01*
X105706933Y-90556010D01*
X105698525Y-90554223D01*
X105698562Y-90554048D01*
X105694030Y-90553233D01*
X105693987Y-90553470D01*
X105687488Y-90552301D01*
X105681149Y-90550459D01*
X105668089Y-90549500D01*
X105622907Y-90549500D01*
X105613679Y-90549162D01*
X105565120Y-90545596D01*
X105556701Y-90547294D01*
X105552880Y-90547534D01*
X105533182Y-90549500D01*
X104922907Y-90549500D01*
X104913679Y-90549162D01*
X104865120Y-90545596D01*
X104856706Y-90547293D01*
X104856700Y-90547293D01*
X104812048Y-90556297D01*
X104804243Y-90557617D01*
X104759125Y-90563797D01*
X104759123Y-90563798D01*
X104750615Y-90564963D01*
X104742733Y-90568374D01*
X104734458Y-90570684D01*
X104734410Y-90570512D01*
X104733790Y-90570707D01*
X104733849Y-90570875D01*
X104725733Y-90573701D01*
X104717315Y-90575399D01*
X104709663Y-90579298D01*
X104709660Y-90579299D01*
X104669087Y-90599973D01*
X104661927Y-90603342D01*
X104612236Y-90624845D01*
X104605555Y-90630255D01*
X104598214Y-90634701D01*
X104598122Y-90634549D01*
X104597574Y-90634905D01*
X104597675Y-90635051D01*
X104590625Y-90639951D01*
X104582969Y-90643852D01*
X104543122Y-90680494D01*
X104537141Y-90685656D01*
X104501735Y-90714326D01*
X104501731Y-90714331D01*
X104495058Y-90719734D01*
X104490083Y-90726734D01*
X104484202Y-90732997D01*
X104484072Y-90732875D01*
X104483639Y-90733365D01*
X104483778Y-90733480D01*
X104478307Y-90740093D01*
X104471980Y-90745911D01*
X104449003Y-90782969D01*
X104443450Y-90791925D01*
X104439077Y-90798506D01*
X104407714Y-90842639D01*
X104404805Y-90850719D01*
X104400824Y-90858333D01*
X104400666Y-90858251D01*
X104400382Y-90858840D01*
X104400544Y-90858912D01*
X104397050Y-90866759D01*
X104392525Y-90874058D01*
X104390129Y-90882304D01*
X104390128Y-90882307D01*
X104377421Y-90926047D01*
X104374982Y-90933554D01*
X104356639Y-90984505D01*
X104356010Y-90993067D01*
X104354223Y-91001475D01*
X104354048Y-91001438D01*
X104353933Y-91002079D01*
X104354110Y-91002105D01*
X104352855Y-91010604D01*
X104350459Y-91018851D01*
X104350369Y-91027437D01*
X104350369Y-91027438D01*
X104349893Y-91072974D01*
X104349561Y-91080886D01*
X104346224Y-91126311D01*
X104346225Y-91126321D01*
X104345596Y-91134880D01*
X104347293Y-91143296D01*
X104347833Y-91151874D01*
X104347655Y-91151885D01*
X104347717Y-91152534D01*
X104347894Y-91152512D01*
X104348970Y-91161033D01*
X104348880Y-91169623D01*
X104351103Y-91177918D01*
X104351103Y-91177921D01*
X104362894Y-91221924D01*
X104364701Y-91229629D01*
X104375399Y-91282685D01*
X104379300Y-91290341D01*
X104382125Y-91298452D01*
X104381953Y-91298512D01*
X104386803Y-91311151D01*
X104387197Y-91312622D01*
X104385477Y-91383596D01*
X104345657Y-91442374D01*
X104281005Y-91468361D01*
X104281251Y-91470000D01*
X104151260Y-91489543D01*
X104151259Y-91489543D01*
X104141949Y-91490943D01*
X104014964Y-91551921D01*
X104008049Y-91558313D01*
X103958168Y-91604422D01*
X103911522Y-91647541D01*
X103906790Y-91655688D01*
X103906789Y-91655689D01*
X103883872Y-91695144D01*
X103840768Y-91769351D01*
X103836361Y-91788365D01*
X103816450Y-91874267D01*
X103809956Y-91893933D01*
X103807161Y-91898745D01*
X103805038Y-91905755D01*
X103805037Y-91905757D01*
X103787303Y-91964311D01*
X103756440Y-92066212D01*
X103755987Y-92073522D01*
X103755986Y-92073525D01*
X103751784Y-92141261D01*
X103745606Y-92240857D01*
X101091725Y-92240857D01*
X101091027Y-92233546D01*
X101085064Y-92171050D01*
X101025977Y-91969639D01*
X100988081Y-91896059D01*
X100932615Y-91788365D01*
X100932613Y-91788362D01*
X100929869Y-91783034D01*
X100800210Y-91617970D01*
X100795679Y-91614038D01*
X100795676Y-91614035D01*
X100646207Y-91484333D01*
X100641677Y-91480402D01*
X100636491Y-91477402D01*
X100636487Y-91477399D01*
X100465186Y-91378300D01*
X100459990Y-91375294D01*
X100261706Y-91306438D01*
X100255771Y-91305577D01*
X100255769Y-91305577D01*
X100059919Y-91277180D01*
X100059916Y-91277180D01*
X100053979Y-91276319D01*
X99844304Y-91286024D01*
X99739998Y-91311162D01*
X99646080Y-91333796D01*
X99646078Y-91333797D01*
X99640247Y-91335202D01*
X99634789Y-91337684D01*
X99634785Y-91337685D01*
X99552069Y-91375294D01*
X99449171Y-91422079D01*
X99361409Y-91484333D01*
X99300501Y-91527538D01*
X99277970Y-91543520D01*
X99132822Y-91695144D01*
X99129571Y-91700179D01*
X99079117Y-91778319D01*
X99018964Y-91871479D01*
X99016722Y-91877042D01*
X98943311Y-92059199D01*
X98940504Y-92066163D01*
X98921146Y-92165292D01*
X98904980Y-92248075D01*
X98900274Y-92272171D01*
X98899724Y-92482069D01*
X98938875Y-92688285D01*
X99016315Y-92883377D01*
X99019539Y-92888428D01*
X99019540Y-92888430D01*
X99075766Y-92976517D01*
X99129248Y-93060306D01*
X99133369Y-93064656D01*
X99133375Y-93064664D01*
X99140180Y-93071847D01*
X99172508Y-93135056D01*
X99165530Y-93205709D01*
X99121462Y-93261373D01*
X99048708Y-93284500D01*
X98973099Y-93284500D01*
X98904978Y-93264498D01*
X98855197Y-93202944D01*
X98840676Y-93164421D01*
X98814265Y-93094357D01*
X98571655Y-92450741D01*
X98564191Y-92393675D01*
X98564676Y-92388857D01*
X98564676Y-92388851D01*
X98564985Y-92385786D01*
X98565000Y-92380000D01*
X98562510Y-92353896D01*
X98551027Y-92233546D01*
X98545064Y-92171050D01*
X98485977Y-91969639D01*
X98448081Y-91896059D01*
X98392615Y-91788365D01*
X98392613Y-91788362D01*
X98389869Y-91783034D01*
X98260210Y-91617970D01*
X98255679Y-91614038D01*
X98255676Y-91614035D01*
X98106207Y-91484333D01*
X98101677Y-91480402D01*
X98096491Y-91477402D01*
X98096487Y-91477399D01*
X97925186Y-91378300D01*
X97919990Y-91375294D01*
X97721706Y-91306438D01*
X97715771Y-91305577D01*
X97715769Y-91305577D01*
X97519919Y-91277180D01*
X97519916Y-91277180D01*
X97513979Y-91276319D01*
X97304304Y-91286024D01*
X97199998Y-91311162D01*
X97106080Y-91333796D01*
X97106078Y-91333797D01*
X97100247Y-91335202D01*
X97094789Y-91337684D01*
X97094785Y-91337685D01*
X97012069Y-91375294D01*
X96909171Y-91422079D01*
X96821409Y-91484333D01*
X96760501Y-91527538D01*
X96737970Y-91543520D01*
X96592822Y-91695144D01*
X96589571Y-91700179D01*
X96481852Y-91867006D01*
X96428097Y-91913384D01*
X96357801Y-91923337D01*
X96293284Y-91893705D01*
X96250000Y-91798658D01*
X96250000Y-90420401D01*
X96270002Y-90352280D01*
X96323658Y-90305787D01*
X96393932Y-90295683D01*
X96458512Y-90325177D01*
X96482207Y-90352608D01*
X96589248Y-90520306D01*
X96643353Y-90577421D01*
X96720756Y-90659129D01*
X96733600Y-90672688D01*
X96738465Y-90676178D01*
X96738468Y-90676180D01*
X96845869Y-90753213D01*
X96904163Y-90795024D01*
X96909914Y-90797675D01*
X97064815Y-90869085D01*
X97094782Y-90882900D01*
X97100598Y-90884334D01*
X97100601Y-90884335D01*
X97146195Y-90895576D01*
X97298578Y-90933146D01*
X97304568Y-90933455D01*
X97304570Y-90933455D01*
X97378178Y-90937248D01*
X97508199Y-90943948D01*
X97514134Y-90943119D01*
X97514138Y-90943119D01*
X97666960Y-90921777D01*
X97716081Y-90914917D01*
X97914723Y-90847101D01*
X98096958Y-90742945D01*
X98256209Y-90606209D01*
X98261161Y-90599973D01*
X98355905Y-90480649D01*
X98386731Y-90441826D01*
X98433274Y-90352609D01*
X98462970Y-90295683D01*
X98483814Y-90255728D01*
X98486337Y-90247294D01*
X98542236Y-90060376D01*
X98543955Y-90054629D01*
X98564985Y-89845786D01*
X98565000Y-89840000D01*
X98545064Y-89631050D01*
X98536046Y-89600308D01*
X98512985Y-89521702D01*
X98485977Y-89429639D01*
X98483233Y-89424311D01*
X98392615Y-89248365D01*
X98392613Y-89248362D01*
X98389869Y-89243034D01*
X98260210Y-89077970D01*
X98137126Y-88971163D01*
X98098787Y-88911412D01*
X98098837Y-88840415D01*
X98137264Y-88780717D01*
X98219708Y-88750000D01*
X99239961Y-88750000D01*
X99308082Y-88770002D01*
G37*
G04 #@! TD.AperFunction*
M02*
