M48
; DRILL file {KiCad (5.99.0-6495-g15369915cc)} date 10/24/20 18:39:34
; FORMAT={-:-/ absolute / inch / decimal}
; #@! TF.CreationDate,2020-10-24T18:39:34+02:00
; #@! TF.GenerationSoftware,Kicad,Pcbnew,(5.99.0-6495-g15369915cc)
; #@! TF.FileFunction,Plated,1,4,PTH
FMAT,2
INCH
T1C0.0118
T2C0.0157
T3C0.0394
%
G90
G05
T1
X3.9843Y-3.6929
X4.0226Y-3.9734
X4.0492Y-3.9734
X4.0768Y-3.9734
X4.0886Y-3.5069
X4.0886Y-3.5335
X4.0886Y-3.561
X4.0886Y-3.5869
X4.1033Y-3.9734
X4.1142Y-3.6939
X4.1299Y-3.5079
X4.1299Y-3.5866
X4.1575Y-3.5079
X4.1575Y-3.5866
X4.1585Y-3.8209
X4.1728Y-3.7543
X4.185Y-3.8209
X4.1912Y-3.601
X4.2087Y-3.5748
X4.2106Y-3.7146
X4.2126Y-3.8209
X4.2392Y-3.8209
X4.2795Y-3.5669
X4.2874Y-3.9734
X4.2884Y-3.8199
X4.314Y-3.9734
X4.315Y-3.8199
X4.3415Y-3.9734
X4.3425Y-3.8199
X4.3681Y-3.9734
X4.3691Y-3.8199
X4.3937Y-3.9429
X4.3937Y-3.9685
X4.4724Y-3.9429
X4.4724Y-3.9675
X4.5768Y-3.8819
X4.5768Y-3.9075
X4.5768Y-3.9331
X4.5768Y-3.9587
X4.685Y-3.8819
X4.685Y-3.9075
X4.685Y-3.9331
X4.685Y-3.9587
T2
X4.2657Y-3.6496
X4.2657Y-3.6732
X4.2657Y-3.7451
X4.31Y-3.7441
X4.3228Y-3.5827
X4.5098Y-3.5148
X4.5098Y-3.5413
X4.5098Y-3.7746
X4.5098Y-3.8012
X4.6516Y-3.5148
X4.6516Y-3.5413
X4.6516Y-3.7746
X4.6516Y-3.8012
T3
X3.837Y-3.537
X3.837Y-3.637
X3.837Y-3.737
X3.837Y-3.837
X3.837Y-3.937
X3.937Y-3.537
X3.937Y-3.637
X3.937Y-3.737
X3.937Y-3.837
X3.937Y-3.937
T0
M30
