G04 #@! TF.GenerationSoftware,KiCad,Pcbnew,(5.99.0-6495-g15369915cc)*
G04 #@! TF.CreationDate,2020-10-24T17:34:59+02:00*
G04 #@! TF.ProjectId,EVAL-MP8862,4556414c-2d4d-4503-9838-36322e6b6963,1B*
G04 #@! TF.SameCoordinates,Original*
G04 #@! TF.FileFunction,Legend,Top*
G04 #@! TF.FilePolarity,Positive*
%FSLAX46Y46*%
G04 Gerber Fmt 4.6, Leading zero omitted, Abs format (unit mm)*
G04 Created by KiCad (PCBNEW (5.99.0-6495-g15369915cc)) date 2020-10-24 17:34:59*
%MOMM*%
%LPD*%
G01*
G04 APERTURE LIST*
%ADD10C,0.125000*%
%ADD11C,0.100000*%
%ADD12C,0.120000*%
%ADD13C,0.200000*%
G04 APERTURE END LIST*
D10*
X101600000Y-94419047D02*
X101623809Y-94371428D01*
X101623809Y-94300000D01*
X101600000Y-94228571D01*
X101552380Y-94180952D01*
X101504761Y-94157142D01*
X101409523Y-94133333D01*
X101338095Y-94133333D01*
X101242857Y-94157142D01*
X101195238Y-94180952D01*
X101147619Y-94228571D01*
X101123809Y-94300000D01*
X101123809Y-94347619D01*
X101147619Y-94419047D01*
X101171428Y-94442857D01*
X101338095Y-94442857D01*
X101338095Y-94347619D01*
X101123809Y-94657142D02*
X101623809Y-94657142D01*
X101123809Y-94942857D01*
X101623809Y-94942857D01*
X101123809Y-95180952D02*
X101623809Y-95180952D01*
X101623809Y-95300000D01*
X101600000Y-95371428D01*
X101552380Y-95419047D01*
X101504761Y-95442857D01*
X101409523Y-95466666D01*
X101338095Y-95466666D01*
X101242857Y-95442857D01*
X101195238Y-95419047D01*
X101147619Y-95371428D01*
X101123809Y-95300000D01*
X101123809Y-95180952D01*
X101147619Y-89292857D02*
X101123809Y-89364285D01*
X101123809Y-89483333D01*
X101147619Y-89530952D01*
X101171428Y-89554761D01*
X101219047Y-89578571D01*
X101266666Y-89578571D01*
X101314285Y-89554761D01*
X101338095Y-89530952D01*
X101361904Y-89483333D01*
X101385714Y-89388095D01*
X101409523Y-89340476D01*
X101433333Y-89316666D01*
X101480952Y-89292857D01*
X101528571Y-89292857D01*
X101576190Y-89316666D01*
X101600000Y-89340476D01*
X101623809Y-89388095D01*
X101623809Y-89507142D01*
X101600000Y-89578571D01*
X101123809Y-89792857D02*
X101623809Y-89792857D01*
X101623809Y-89911904D01*
X101600000Y-89983333D01*
X101552380Y-90030952D01*
X101504761Y-90054761D01*
X101409523Y-90078571D01*
X101338095Y-90078571D01*
X101242857Y-90054761D01*
X101195238Y-90030952D01*
X101147619Y-89983333D01*
X101123809Y-89911904D01*
X101123809Y-89792857D01*
X101266666Y-90269047D02*
X101266666Y-90507142D01*
X101123809Y-90221428D02*
X101623809Y-90388095D01*
X101123809Y-90554761D01*
X101147619Y-91654761D02*
X101123809Y-91726190D01*
X101123809Y-91845238D01*
X101147619Y-91892857D01*
X101171428Y-91916666D01*
X101219047Y-91940476D01*
X101266666Y-91940476D01*
X101314285Y-91916666D01*
X101338095Y-91892857D01*
X101361904Y-91845238D01*
X101385714Y-91750000D01*
X101409523Y-91702380D01*
X101433333Y-91678571D01*
X101480952Y-91654761D01*
X101528571Y-91654761D01*
X101576190Y-91678571D01*
X101600000Y-91702380D01*
X101623809Y-91750000D01*
X101623809Y-91869047D01*
X101600000Y-91940476D01*
X101171428Y-92440476D02*
X101147619Y-92416666D01*
X101123809Y-92345238D01*
X101123809Y-92297619D01*
X101147619Y-92226190D01*
X101195238Y-92178571D01*
X101242857Y-92154761D01*
X101338095Y-92130952D01*
X101409523Y-92130952D01*
X101504761Y-92154761D01*
X101552380Y-92178571D01*
X101600000Y-92226190D01*
X101623809Y-92297619D01*
X101623809Y-92345238D01*
X101600000Y-92416666D01*
X101576190Y-92440476D01*
X101123809Y-92892857D02*
X101123809Y-92654761D01*
X101623809Y-92654761D01*
X98973809Y-97802380D02*
X98473809Y-97969047D01*
X98973809Y-98135714D01*
X98473809Y-98302380D02*
X98973809Y-98302380D01*
X98473809Y-98540476D02*
X98973809Y-98540476D01*
X98473809Y-98826190D01*
X98973809Y-98826190D01*
X101573809Y-98971428D02*
X101073809Y-99138095D01*
X101573809Y-99304761D01*
X101573809Y-99566666D02*
X101573809Y-99661904D01*
X101550000Y-99709523D01*
X101502380Y-99757142D01*
X101407142Y-99780952D01*
X101240476Y-99780952D01*
X101145238Y-99757142D01*
X101097619Y-99709523D01*
X101073809Y-99661904D01*
X101073809Y-99566666D01*
X101097619Y-99519047D01*
X101145238Y-99471428D01*
X101240476Y-99447619D01*
X101407142Y-99447619D01*
X101502380Y-99471428D01*
X101550000Y-99519047D01*
X101573809Y-99566666D01*
X98735714Y-93280952D02*
X98735714Y-93447619D01*
X98473809Y-93519047D02*
X98473809Y-93280952D01*
X98973809Y-93280952D01*
X98973809Y-93519047D01*
X98473809Y-93733333D02*
X98973809Y-93733333D01*
X98473809Y-94019047D01*
X98973809Y-94019047D01*
X98950000Y-95069047D02*
X98973809Y-95021428D01*
X98973809Y-94950000D01*
X98950000Y-94878571D01*
X98902380Y-94830952D01*
X98854761Y-94807142D01*
X98759523Y-94783333D01*
X98688095Y-94783333D01*
X98592857Y-94807142D01*
X98545238Y-94830952D01*
X98497619Y-94878571D01*
X98473809Y-94950000D01*
X98473809Y-94997619D01*
X98497619Y-95069047D01*
X98521428Y-95092857D01*
X98688095Y-95092857D01*
X98688095Y-94997619D01*
X98473809Y-95307142D02*
X98973809Y-95307142D01*
X98473809Y-95592857D01*
X98973809Y-95592857D01*
X98473809Y-95830952D02*
X98973809Y-95830952D01*
X98973809Y-95950000D01*
X98950000Y-96021428D01*
X98902380Y-96069047D01*
X98854761Y-96092857D01*
X98759523Y-96116666D01*
X98688095Y-96116666D01*
X98592857Y-96092857D01*
X98545238Y-96069047D01*
X98497619Y-96021428D01*
X98473809Y-95950000D01*
X98473809Y-95830952D01*
X100552380Y-98276190D02*
X100719047Y-98776190D01*
X100885714Y-98276190D01*
X101052380Y-98776190D02*
X101052380Y-98276190D01*
X101290476Y-98776190D02*
X101290476Y-98276190D01*
X101576190Y-98776190D01*
X101576190Y-98276190D01*
X98666666Y-90778571D02*
X98666666Y-91016666D01*
X98523809Y-90730952D02*
X99023809Y-90897619D01*
X98523809Y-91064285D01*
X98523809Y-91469047D02*
X98523809Y-91230952D01*
X99023809Y-91230952D01*
D11*
X105133333Y-92263452D02*
X105000000Y-92072976D01*
X104904761Y-92263452D02*
X104904761Y-91863452D01*
X105057142Y-91863452D01*
X105095238Y-91882500D01*
X105114285Y-91901547D01*
X105133333Y-91939642D01*
X105133333Y-91996785D01*
X105114285Y-92034880D01*
X105095238Y-92053928D01*
X105057142Y-92072976D01*
X104904761Y-92072976D01*
X105285714Y-91901547D02*
X105304761Y-91882500D01*
X105342857Y-91863452D01*
X105438095Y-91863452D01*
X105476190Y-91882500D01*
X105495238Y-91901547D01*
X105514285Y-91939642D01*
X105514285Y-91977738D01*
X105495238Y-92034880D01*
X105266666Y-92263452D01*
X105514285Y-92263452D01*
D10*
X111681428Y-97366666D02*
X111657619Y-97342857D01*
X111633809Y-97271428D01*
X111633809Y-97223809D01*
X111657619Y-97152380D01*
X111705238Y-97104761D01*
X111752857Y-97080952D01*
X111848095Y-97057142D01*
X111919523Y-97057142D01*
X112014761Y-97080952D01*
X112062380Y-97104761D01*
X112110000Y-97152380D01*
X112133809Y-97223809D01*
X112133809Y-97271428D01*
X112110000Y-97342857D01*
X112086190Y-97366666D01*
X111633809Y-97842857D02*
X111633809Y-97557142D01*
X111633809Y-97700000D02*
X112133809Y-97700000D01*
X112062380Y-97652380D01*
X112014761Y-97604761D01*
X111990952Y-97557142D01*
D11*
X108833333Y-95342857D02*
X108814285Y-95361904D01*
X108757142Y-95380952D01*
X108719047Y-95380952D01*
X108661904Y-95361904D01*
X108623809Y-95323809D01*
X108604761Y-95285714D01*
X108585714Y-95209523D01*
X108585714Y-95152380D01*
X108604761Y-95076190D01*
X108623809Y-95038095D01*
X108661904Y-95000000D01*
X108719047Y-94980952D01*
X108757142Y-94980952D01*
X108814285Y-95000000D01*
X108833333Y-95019047D01*
X109176190Y-95114285D02*
X109176190Y-95380952D01*
X109080952Y-94961904D02*
X108985714Y-95247619D01*
X109233333Y-95247619D01*
D10*
X112381428Y-97366666D02*
X112357619Y-97342857D01*
X112333809Y-97271428D01*
X112333809Y-97223809D01*
X112357619Y-97152380D01*
X112405238Y-97104761D01*
X112452857Y-97080952D01*
X112548095Y-97057142D01*
X112619523Y-97057142D01*
X112714761Y-97080952D01*
X112762380Y-97104761D01*
X112810000Y-97152380D01*
X112833809Y-97223809D01*
X112833809Y-97271428D01*
X112810000Y-97342857D01*
X112786190Y-97366666D01*
X112833809Y-97819047D02*
X112833809Y-97580952D01*
X112595714Y-97557142D01*
X112619523Y-97580952D01*
X112643333Y-97628571D01*
X112643333Y-97747619D01*
X112619523Y-97795238D01*
X112595714Y-97819047D01*
X112548095Y-97842857D01*
X112429047Y-97842857D01*
X112381428Y-97819047D01*
X112357619Y-97795238D01*
X112333809Y-97747619D01*
X112333809Y-97628571D01*
X112357619Y-97580952D01*
X112381428Y-97557142D01*
X114516666Y-97928571D02*
X114492857Y-97952380D01*
X114421428Y-97976190D01*
X114373809Y-97976190D01*
X114302380Y-97952380D01*
X114254761Y-97904761D01*
X114230952Y-97857142D01*
X114207142Y-97761904D01*
X114207142Y-97690476D01*
X114230952Y-97595238D01*
X114254761Y-97547619D01*
X114302380Y-97500000D01*
X114373809Y-97476190D01*
X114421428Y-97476190D01*
X114492857Y-97500000D01*
X114516666Y-97523809D01*
X114945238Y-97476190D02*
X114850000Y-97476190D01*
X114802380Y-97500000D01*
X114778571Y-97523809D01*
X114730952Y-97595238D01*
X114707142Y-97690476D01*
X114707142Y-97880952D01*
X114730952Y-97928571D01*
X114754761Y-97952380D01*
X114802380Y-97976190D01*
X114897619Y-97976190D01*
X114945238Y-97952380D01*
X114969047Y-97928571D01*
X114992857Y-97880952D01*
X114992857Y-97761904D01*
X114969047Y-97714285D01*
X114945238Y-97690476D01*
X114897619Y-97666666D01*
X114802380Y-97666666D01*
X114754761Y-97690476D01*
X114730952Y-97714285D01*
X114707142Y-97761904D01*
X113071428Y-97386666D02*
X113047619Y-97362857D01*
X113023809Y-97291428D01*
X113023809Y-97243809D01*
X113047619Y-97172380D01*
X113095238Y-97124761D01*
X113142857Y-97100952D01*
X113238095Y-97077142D01*
X113309523Y-97077142D01*
X113404761Y-97100952D01*
X113452380Y-97124761D01*
X113500000Y-97172380D01*
X113523809Y-97243809D01*
X113523809Y-97291428D01*
X113500000Y-97362857D01*
X113476190Y-97386666D01*
X113523809Y-97553333D02*
X113523809Y-97886666D01*
X113023809Y-97672380D01*
X118416666Y-97928571D02*
X118392857Y-97952380D01*
X118321428Y-97976190D01*
X118273809Y-97976190D01*
X118202380Y-97952380D01*
X118154761Y-97904761D01*
X118130952Y-97857142D01*
X118107142Y-97761904D01*
X118107142Y-97690476D01*
X118130952Y-97595238D01*
X118154761Y-97547619D01*
X118202380Y-97500000D01*
X118273809Y-97476190D01*
X118321428Y-97476190D01*
X118392857Y-97500000D01*
X118416666Y-97523809D01*
X118702380Y-97690476D02*
X118654761Y-97666666D01*
X118630952Y-97642857D01*
X118607142Y-97595238D01*
X118607142Y-97571428D01*
X118630952Y-97523809D01*
X118654761Y-97500000D01*
X118702380Y-97476190D01*
X118797619Y-97476190D01*
X118845238Y-97500000D01*
X118869047Y-97523809D01*
X118892857Y-97571428D01*
X118892857Y-97595238D01*
X118869047Y-97642857D01*
X118845238Y-97666666D01*
X118797619Y-97690476D01*
X118702380Y-97690476D01*
X118654761Y-97714285D01*
X118630952Y-97738095D01*
X118607142Y-97785714D01*
X118607142Y-97880952D01*
X118630952Y-97928571D01*
X118654761Y-97952380D01*
X118702380Y-97976190D01*
X118797619Y-97976190D01*
X118845238Y-97952380D01*
X118869047Y-97928571D01*
X118892857Y-97880952D01*
X118892857Y-97785714D01*
X118869047Y-97738095D01*
X118845238Y-97714285D01*
X118797619Y-97690476D01*
D11*
X102242857Y-92242857D02*
X102223809Y-92261904D01*
X102166666Y-92280952D01*
X102128571Y-92280952D01*
X102071428Y-92261904D01*
X102033333Y-92223809D01*
X102014285Y-92185714D01*
X101995238Y-92109523D01*
X101995238Y-92052380D01*
X102014285Y-91976190D01*
X102033333Y-91938095D01*
X102071428Y-91900000D01*
X102128571Y-91880952D01*
X102166666Y-91880952D01*
X102223809Y-91900000D01*
X102242857Y-91919047D01*
X102623809Y-92280952D02*
X102395238Y-92280952D01*
X102509523Y-92280952D02*
X102509523Y-91880952D01*
X102471428Y-91938095D01*
X102433333Y-91976190D01*
X102395238Y-91995238D01*
X103004761Y-92280952D02*
X102776190Y-92280952D01*
X102890476Y-92280952D02*
X102890476Y-91880952D01*
X102852380Y-91938095D01*
X102814285Y-91976190D01*
X102776190Y-91995238D01*
X103492857Y-92242857D02*
X103473809Y-92261904D01*
X103416666Y-92280952D01*
X103378571Y-92280952D01*
X103321428Y-92261904D01*
X103283333Y-92223809D01*
X103264285Y-92185714D01*
X103245238Y-92109523D01*
X103245238Y-92052380D01*
X103264285Y-91976190D01*
X103283333Y-91938095D01*
X103321428Y-91900000D01*
X103378571Y-91880952D01*
X103416666Y-91880952D01*
X103473809Y-91900000D01*
X103492857Y-91919047D01*
X103873809Y-92280952D02*
X103645238Y-92280952D01*
X103759523Y-92280952D02*
X103759523Y-91880952D01*
X103721428Y-91938095D01*
X103683333Y-91976190D01*
X103645238Y-91995238D01*
X104007142Y-91880952D02*
X104254761Y-91880952D01*
X104121428Y-92033333D01*
X104178571Y-92033333D01*
X104216666Y-92052380D01*
X104235714Y-92071428D01*
X104254761Y-92109523D01*
X104254761Y-92204761D01*
X104235714Y-92242857D01*
X104216666Y-92261904D01*
X104178571Y-92280952D01*
X104064285Y-92280952D01*
X104026190Y-92261904D01*
X104007142Y-92242857D01*
X104483333Y-96930952D02*
X104350000Y-96740476D01*
X104254761Y-96930952D02*
X104254761Y-96530952D01*
X104407142Y-96530952D01*
X104445238Y-96550000D01*
X104464285Y-96569047D01*
X104483333Y-96607142D01*
X104483333Y-96664285D01*
X104464285Y-96702380D01*
X104445238Y-96721428D01*
X104407142Y-96740476D01*
X104254761Y-96740476D01*
X104864285Y-96930952D02*
X104635714Y-96930952D01*
X104750000Y-96930952D02*
X104750000Y-96530952D01*
X104711904Y-96588095D01*
X104673809Y-96626190D01*
X104635714Y-96645238D01*
D10*
X106261904Y-90476190D02*
X106261904Y-89976190D01*
X106785714Y-90428571D02*
X106761904Y-90452380D01*
X106690476Y-90476190D01*
X106642857Y-90476190D01*
X106571428Y-90452380D01*
X106523809Y-90404761D01*
X106500000Y-90357142D01*
X106476190Y-90261904D01*
X106476190Y-90190476D01*
X106500000Y-90095238D01*
X106523809Y-90047619D01*
X106571428Y-90000000D01*
X106642857Y-89976190D01*
X106690476Y-89976190D01*
X106761904Y-90000000D01*
X106785714Y-90023809D01*
X107261904Y-90476190D02*
X106976190Y-90476190D01*
X107119047Y-90476190D02*
X107119047Y-89976190D01*
X107071428Y-90047619D01*
X107023809Y-90095238D01*
X106976190Y-90119047D01*
X110666666Y-89728571D02*
X110642857Y-89752380D01*
X110571428Y-89776190D01*
X110523809Y-89776190D01*
X110452380Y-89752380D01*
X110404761Y-89704761D01*
X110380952Y-89657142D01*
X110357142Y-89561904D01*
X110357142Y-89490476D01*
X110380952Y-89395238D01*
X110404761Y-89347619D01*
X110452380Y-89300000D01*
X110523809Y-89276190D01*
X110571428Y-89276190D01*
X110642857Y-89300000D01*
X110666666Y-89323809D01*
X110833333Y-89276190D02*
X111142857Y-89276190D01*
X110976190Y-89466666D01*
X111047619Y-89466666D01*
X111095238Y-89490476D01*
X111119047Y-89514285D01*
X111142857Y-89561904D01*
X111142857Y-89680952D01*
X111119047Y-89728571D01*
X111095238Y-89752380D01*
X111047619Y-89776190D01*
X110904761Y-89776190D01*
X110857142Y-89752380D01*
X110833333Y-89728571D01*
X113016666Y-89476190D02*
X112778571Y-89476190D01*
X112778571Y-88976190D01*
X113445238Y-89476190D02*
X113159523Y-89476190D01*
X113302380Y-89476190D02*
X113302380Y-88976190D01*
X113254761Y-89047619D01*
X113207142Y-89095238D01*
X113159523Y-89119047D01*
X110828571Y-93528571D02*
X110804761Y-93552380D01*
X110733333Y-93576190D01*
X110685714Y-93576190D01*
X110614285Y-93552380D01*
X110566666Y-93504761D01*
X110542857Y-93457142D01*
X110519047Y-93361904D01*
X110519047Y-93290476D01*
X110542857Y-93195238D01*
X110566666Y-93147619D01*
X110614285Y-93100000D01*
X110685714Y-93076190D01*
X110733333Y-93076190D01*
X110804761Y-93100000D01*
X110828571Y-93123809D01*
X111304761Y-93576190D02*
X111019047Y-93576190D01*
X111161904Y-93576190D02*
X111161904Y-93076190D01*
X111114285Y-93147619D01*
X111066666Y-93195238D01*
X111019047Y-93219047D01*
X111614285Y-93076190D02*
X111661904Y-93076190D01*
X111709523Y-93100000D01*
X111733333Y-93123809D01*
X111757142Y-93171428D01*
X111780952Y-93266666D01*
X111780952Y-93385714D01*
X111757142Y-93480952D01*
X111733333Y-93528571D01*
X111709523Y-93552380D01*
X111661904Y-93576190D01*
X111614285Y-93576190D01*
X111566666Y-93552380D01*
X111542857Y-93528571D01*
X111519047Y-93480952D01*
X111495238Y-93385714D01*
X111495238Y-93266666D01*
X111519047Y-93171428D01*
X111542857Y-93123809D01*
X111566666Y-93100000D01*
X111614285Y-93076190D01*
X106516666Y-89678571D02*
X106492857Y-89702380D01*
X106421428Y-89726190D01*
X106373809Y-89726190D01*
X106302380Y-89702380D01*
X106254761Y-89654761D01*
X106230952Y-89607142D01*
X106207142Y-89511904D01*
X106207142Y-89440476D01*
X106230952Y-89345238D01*
X106254761Y-89297619D01*
X106302380Y-89250000D01*
X106373809Y-89226190D01*
X106421428Y-89226190D01*
X106492857Y-89250000D01*
X106516666Y-89273809D01*
X106707142Y-89273809D02*
X106730952Y-89250000D01*
X106778571Y-89226190D01*
X106897619Y-89226190D01*
X106945238Y-89250000D01*
X106969047Y-89273809D01*
X106992857Y-89321428D01*
X106992857Y-89369047D01*
X106969047Y-89440476D01*
X106683333Y-89726190D01*
X106992857Y-89726190D01*
X111971428Y-90516666D02*
X111947619Y-90492857D01*
X111923809Y-90421428D01*
X111923809Y-90373809D01*
X111947619Y-90302380D01*
X111995238Y-90254761D01*
X112042857Y-90230952D01*
X112138095Y-90207142D01*
X112209523Y-90207142D01*
X112304761Y-90230952D01*
X112352380Y-90254761D01*
X112400000Y-90302380D01*
X112423809Y-90373809D01*
X112423809Y-90421428D01*
X112400000Y-90492857D01*
X112376190Y-90516666D01*
X111923809Y-90754761D02*
X111923809Y-90850000D01*
X111947619Y-90897619D01*
X111971428Y-90921428D01*
X112042857Y-90969047D01*
X112138095Y-90992857D01*
X112328571Y-90992857D01*
X112376190Y-90969047D01*
X112400000Y-90945238D01*
X112423809Y-90897619D01*
X112423809Y-90802380D01*
X112400000Y-90754761D01*
X112376190Y-90730952D01*
X112328571Y-90707142D01*
X112209523Y-90707142D01*
X112161904Y-90730952D01*
X112138095Y-90754761D01*
X112114285Y-90802380D01*
X112114285Y-90897619D01*
X112138095Y-90945238D01*
X112161904Y-90969047D01*
X112209523Y-90992857D01*
D11*
X106592857Y-95342857D02*
X106573809Y-95361904D01*
X106516666Y-95380952D01*
X106478571Y-95380952D01*
X106421428Y-95361904D01*
X106383333Y-95323809D01*
X106364285Y-95285714D01*
X106345238Y-95209523D01*
X106345238Y-95152380D01*
X106364285Y-95076190D01*
X106383333Y-95038095D01*
X106421428Y-95000000D01*
X106478571Y-94980952D01*
X106516666Y-94980952D01*
X106573809Y-95000000D01*
X106592857Y-95019047D01*
X106973809Y-95380952D02*
X106745238Y-95380952D01*
X106859523Y-95380952D02*
X106859523Y-94980952D01*
X106821428Y-95038095D01*
X106783333Y-95076190D01*
X106745238Y-95095238D01*
X107126190Y-95019047D02*
X107145238Y-95000000D01*
X107183333Y-94980952D01*
X107278571Y-94980952D01*
X107316666Y-95000000D01*
X107335714Y-95019047D01*
X107354761Y-95057142D01*
X107354761Y-95095238D01*
X107335714Y-95152380D01*
X107107142Y-95380952D01*
X107354761Y-95380952D01*
X100366666Y-96030952D02*
X100366666Y-96316666D01*
X100347619Y-96373809D01*
X100309523Y-96411904D01*
X100252380Y-96430952D01*
X100214285Y-96430952D01*
X100557142Y-96430952D02*
X100557142Y-96030952D01*
X100709523Y-96030952D01*
X100747619Y-96050000D01*
X100766666Y-96069047D01*
X100785714Y-96107142D01*
X100785714Y-96164285D01*
X100766666Y-96202380D01*
X100747619Y-96221428D01*
X100709523Y-96240476D01*
X100557142Y-96240476D01*
X101166666Y-96430952D02*
X100938095Y-96430952D01*
X101052380Y-96430952D02*
X101052380Y-96030952D01*
X101014285Y-96088095D01*
X100976190Y-96126190D01*
X100938095Y-96145238D01*
D12*
X105740000Y-93669721D02*
X105740000Y-93995279D01*
X104720000Y-93669721D02*
X104720000Y-93995279D01*
X101840000Y-98457936D02*
X101840000Y-99662064D01*
X104560000Y-98457936D02*
X104560000Y-99662064D01*
X109100279Y-96540000D02*
X108774721Y-96540000D01*
X109100279Y-95520000D02*
X108774721Y-95520000D01*
X108000000Y-99662064D02*
X108000000Y-98457936D01*
X105280000Y-99662064D02*
X105280000Y-98457936D01*
X114577064Y-100935000D02*
X113372936Y-100935000D01*
X114577064Y-98215000D02*
X113372936Y-98215000D01*
X108590000Y-98447936D02*
X108590000Y-99652064D01*
X111310000Y-98447936D02*
X111310000Y-99652064D01*
X117922936Y-100935000D02*
X119127064Y-100935000D01*
X117922936Y-98215000D02*
X119127064Y-98215000D01*
X101770000Y-93995279D02*
X101770000Y-93669721D01*
X102790000Y-93995279D02*
X102790000Y-93669721D01*
X104260000Y-93995279D02*
X104260000Y-93669721D01*
X103240000Y-93995279D02*
X103240000Y-93669721D01*
X103195279Y-96540000D02*
X102869721Y-96540000D01*
X103195279Y-95520000D02*
X102869721Y-95520000D01*
D13*
X109490000Y-90900000D02*
X109490000Y-90900000D01*
X109490000Y-91000000D02*
X109490000Y-91000000D01*
X109490000Y-90900000D02*
X109490000Y-90900000D01*
X109490000Y-91000000D02*
G75*
G02*
X109490000Y-90900000I0J50000D01*
G01*
X109490000Y-91000000D02*
G75*
G02*
X109490000Y-90900000I0J50000D01*
G01*
X109490000Y-90900000D02*
G75*
G02*
X109490000Y-91000000I0J-50000D01*
G01*
D12*
X108982779Y-90440000D02*
X108657221Y-90440000D01*
X108982779Y-89420000D02*
X108657221Y-89420000D01*
D11*
X112750000Y-95300000D02*
X112750000Y-96858000D01*
X119950000Y-89741000D02*
X117750000Y-89741000D01*
X112750000Y-96858000D02*
X114950000Y-96858000D01*
X112743000Y-91300000D02*
X112750000Y-89741000D01*
X119957000Y-96858000D02*
X119957000Y-95300000D01*
X119957000Y-91300000D02*
X119950000Y-89741000D01*
X117750000Y-96858000D02*
X119957000Y-96858000D01*
X112750000Y-89741000D02*
X114950000Y-89741000D01*
D12*
X110590000Y-95049721D02*
X110590000Y-95375279D01*
X111610000Y-95049721D02*
X111610000Y-95375279D01*
X104402064Y-88740000D02*
X103197936Y-88740000D01*
X104402064Y-91460000D02*
X103197936Y-91460000D01*
X110640000Y-91550279D02*
X110640000Y-91224721D01*
X111660000Y-91550279D02*
X111660000Y-91224721D01*
X93360000Y-99720000D02*
X87360000Y-99720000D01*
X96020000Y-88510000D02*
X93360000Y-88510000D01*
X87360000Y-92760000D02*
X87360000Y-92000000D01*
X96020000Y-98730000D02*
X93360000Y-98730000D01*
X93360000Y-92760000D02*
X87360000Y-92760000D01*
X98890000Y-99620000D02*
X98502929Y-99620000D01*
X96020000Y-91110000D02*
X93360000Y-91110000D01*
X93360000Y-99960000D02*
X87360000Y-99960000D01*
X96417071Y-99620000D02*
X96020000Y-99620000D01*
X93360000Y-97840000D02*
X87360000Y-97840000D01*
X98957071Y-97080000D02*
X98502929Y-97080000D01*
X96020000Y-93650000D02*
X93360000Y-93650000D01*
X87360000Y-97080000D02*
X93360000Y-97080000D01*
X87360000Y-95300000D02*
X87360000Y-94540000D01*
X98957071Y-92000000D02*
X98502929Y-92000000D01*
X101270000Y-100000000D02*
X101270000Y-101270000D01*
X93360000Y-95300000D02*
X87360000Y-95300000D01*
X96417071Y-92760000D02*
X96020000Y-92760000D01*
X87360000Y-92000000D02*
X93360000Y-92000000D01*
X96417071Y-95300000D02*
X96020000Y-95300000D01*
X93360000Y-90220000D02*
X87360000Y-90220000D01*
X93360000Y-88510000D02*
X93360000Y-101330000D01*
X96417071Y-90220000D02*
X96020000Y-90220000D01*
X101270000Y-101270000D02*
X100000000Y-101270000D01*
X98957071Y-95300000D02*
X98502929Y-95300000D01*
X93360000Y-99840000D02*
X87360000Y-99840000D01*
X96020000Y-96190000D02*
X93360000Y-96190000D01*
X87360000Y-90220000D02*
X87360000Y-89460000D01*
X87360000Y-94540000D02*
X93360000Y-94540000D01*
X96417071Y-97080000D02*
X96020000Y-97080000D01*
X96417071Y-100380000D02*
X96020000Y-100380000D01*
X93360000Y-100320000D02*
X87360000Y-100320000D01*
X93360000Y-101330000D02*
X96020000Y-101330000D01*
X87360000Y-100380000D02*
X87360000Y-99620000D01*
X93360000Y-100200000D02*
X87360000Y-100200000D01*
X98957071Y-89460000D02*
X98502929Y-89460000D01*
X98957071Y-94540000D02*
X98502929Y-94540000D01*
X93360000Y-100380000D02*
X87360000Y-100380000D01*
X96417071Y-94540000D02*
X96020000Y-94540000D01*
X98890000Y-100380000D02*
X98502929Y-100380000D01*
X87360000Y-89460000D02*
X93360000Y-89460000D01*
X87360000Y-99620000D02*
X93360000Y-99620000D01*
X98957071Y-97840000D02*
X98502929Y-97840000D01*
X96417071Y-92000000D02*
X96020000Y-92000000D01*
X98957071Y-90220000D02*
X98502929Y-90220000D01*
X98957071Y-92760000D02*
X98502929Y-92760000D01*
X96417071Y-97840000D02*
X96020000Y-97840000D01*
X93360000Y-100080000D02*
X87360000Y-100080000D01*
X87360000Y-97840000D02*
X87360000Y-97080000D01*
X96417071Y-89460000D02*
X96020000Y-89460000D01*
X96020000Y-101330000D02*
X96020000Y-88510000D01*
X106172779Y-96540000D02*
X105847221Y-96540000D01*
X106172779Y-95520000D02*
X105847221Y-95520000D01*
X103250000Y-96050000D02*
X103250000Y-97450000D01*
X102550000Y-98150000D02*
X101950000Y-98150000D01*
X101950000Y-95350000D02*
X102550000Y-95350000D01*
X101250000Y-97450000D02*
X101250000Y-96050000D01*
X102550000Y-95350000D02*
G75*
G02*
X103250000Y-96050000I0J-700000D01*
G01*
X103250000Y-97450000D02*
G75*
G02*
X102550000Y-98150000I-700000J0D01*
G01*
X101950000Y-98150000D02*
G75*
G02*
X101250000Y-97450000I0J700000D01*
G01*
X101250000Y-96050000D02*
G75*
G02*
X101950000Y-95350000I700000J0D01*
G01*
M02*
