G04 #@! TF.GenerationSoftware,KiCad,Pcbnew,(5.99.0-6495-g15369915cc)*
G04 #@! TF.CreationDate,2020-10-24T17:34:58+02:00*
G04 #@! TF.ProjectId,EVAL-MP8862,4556414c-2d4d-4503-9838-36322e6b6963,1B*
G04 #@! TF.SameCoordinates,Original*
G04 #@! TF.FileFunction,Copper,L1,Top*
G04 #@! TF.FilePolarity,Positive*
%FSLAX46Y46*%
G04 Gerber Fmt 4.6, Leading zero omitted, Abs format (unit mm)*
G04 Created by KiCad (PCBNEW (5.99.0-6495-g15369915cc)) date 2020-10-24 17:34:58*
%MOMM*%
%LPD*%
G01*
G04 APERTURE LIST*
G04 Aperture macros list*
%AMRoundRect*
0 Rectangle with rounded corners*
0 $1 Rounding radius*
0 $2 $3 $4 $5 $6 $7 $8 $9 X,Y pos of 4 corners*
0 Add a 4 corners polygon primitive as box body*
4,1,4,$2,$3,$4,$5,$6,$7,$8,$9,$2,$3,0*
0 Add four circle primitives for the rounded corners*
1,1,$1+$1,$2,$3,0*
1,1,$1+$1,$4,$5,0*
1,1,$1+$1,$6,$7,0*
1,1,$1+$1,$8,$9,0*
0 Add four rect primitives between the rounded corners*
20,1,$1+$1,$2,$3,$4,$5,0*
20,1,$1+$1,$4,$5,$6,$7,0*
20,1,$1+$1,$6,$7,$8,$9,0*
20,1,$1+$1,$8,$9,$2,$3,0*%
G04 Aperture macros list end*
G04 #@! TA.AperFunction,SMDPad,CuDef*
%ADD10RoundRect,0.218750X-0.256250X0.218750X-0.256250X-0.218750X0.256250X-0.218750X0.256250X0.218750X0*%
G04 #@! TD*
G04 #@! TA.AperFunction,SMDPad,CuDef*
%ADD11RoundRect,0.250000X-1.075000X0.375000X-1.075000X-0.375000X1.075000X-0.375000X1.075000X0.375000X0*%
G04 #@! TD*
G04 #@! TA.AperFunction,SMDPad,CuDef*
%ADD12RoundRect,0.218750X0.218750X0.256250X-0.218750X0.256250X-0.218750X-0.256250X0.218750X-0.256250X0*%
G04 #@! TD*
G04 #@! TA.AperFunction,SMDPad,CuDef*
%ADD13RoundRect,0.250000X1.075000X-0.375000X1.075000X0.375000X-1.075000X0.375000X-1.075000X-0.375000X0*%
G04 #@! TD*
G04 #@! TA.AperFunction,SMDPad,CuDef*
%ADD14RoundRect,0.250000X0.375000X1.075000X-0.375000X1.075000X-0.375000X-1.075000X0.375000X-1.075000X0*%
G04 #@! TD*
G04 #@! TA.AperFunction,SMDPad,CuDef*
%ADD15RoundRect,0.250000X-0.375000X-1.075000X0.375000X-1.075000X0.375000X1.075000X-0.375000X1.075000X0*%
G04 #@! TD*
G04 #@! TA.AperFunction,SMDPad,CuDef*
%ADD16RoundRect,0.218750X0.256250X-0.218750X0.256250X0.218750X-0.256250X0.218750X-0.256250X-0.218750X0*%
G04 #@! TD*
G04 #@! TA.AperFunction,SMDPad,CuDef*
%ADD17R,0.250000X0.800000*%
G04 #@! TD*
G04 #@! TA.AperFunction,SMDPad,CuDef*
%ADD18R,0.250000X0.700000*%
G04 #@! TD*
G04 #@! TA.AperFunction,SMDPad,CuDef*
%ADD19R,0.700000X0.250000*%
G04 #@! TD*
G04 #@! TA.AperFunction,SMDPad,CuDef*
%ADD20R,1.200000X0.250000*%
G04 #@! TD*
G04 #@! TA.AperFunction,SMDPad,CuDef*
%ADD21RoundRect,0.600000X0.600000X1.100000X-0.600000X1.100000X-0.600000X-1.100000X0.600000X-1.100000X0*%
G04 #@! TD*
G04 #@! TA.AperFunction,SMDPad,CuDef*
%ADD22RoundRect,0.571250X0.623750X-0.571250X0.623750X0.571250X-0.623750X0.571250X-0.623750X-0.571250X0*%
G04 #@! TD*
G04 #@! TA.AperFunction,SMDPad,CuDef*
%ADD23RoundRect,0.548400X0.646600X-0.594100X0.646600X0.594100X-0.646600X0.594100X-0.646600X-0.594100X0*%
G04 #@! TD*
G04 #@! TA.AperFunction,ComponentPad*
%ADD24R,1.700000X1.700000*%
G04 #@! TD*
G04 #@! TA.AperFunction,ComponentPad*
%ADD25O,1.700000X1.700000*%
G04 #@! TD*
G04 #@! TA.AperFunction,SMDPad,CuDef*
%ADD26RoundRect,0.400000X0.350000X-0.100000X0.350000X0.100000X-0.350000X0.100000X-0.350000X-0.100000X0*%
G04 #@! TD*
G04 #@! TA.AperFunction,ViaPad*
%ADD27C,0.700000*%
G04 #@! TD*
G04 #@! TA.AperFunction,ViaPad*
%ADD28C,0.600000*%
G04 #@! TD*
G04 #@! TA.AperFunction,ViaPad*
%ADD29C,0.800000*%
G04 #@! TD*
G04 #@! TA.AperFunction,Conductor*
%ADD30C,0.600000*%
G04 #@! TD*
G04 #@! TA.AperFunction,Conductor*
%ADD31C,0.300000*%
G04 #@! TD*
G04 #@! TA.AperFunction,Conductor*
%ADD32C,0.250000*%
G04 #@! TD*
G04 #@! TA.AperFunction,Conductor*
%ADD33C,0.800000*%
G04 #@! TD*
G04 #@! TA.AperFunction,Conductor*
%ADD34C,1.700000*%
G04 #@! TD*
G04 #@! TA.AperFunction,Conductor*
%ADD35C,1.000000*%
G04 #@! TD*
G04 #@! TA.AperFunction,Conductor*
%ADD36C,2.000000*%
G04 #@! TD*
G04 APERTURE END LIST*
D10*
X105230000Y-93045000D03*
X105230000Y-94620000D03*
D11*
X103200000Y-97660000D03*
X103200000Y-100460000D03*
D12*
X109725000Y-96030000D03*
X108150000Y-96030000D03*
D13*
X106640000Y-100460000D03*
X106640000Y-97660000D03*
D14*
X115375000Y-99575000D03*
X112575000Y-99575000D03*
D11*
X109950000Y-97650000D03*
X109950000Y-100450000D03*
D15*
X117125000Y-99575000D03*
X119925000Y-99575000D03*
D16*
X102280000Y-94620000D03*
X102280000Y-93045000D03*
X103750000Y-94620000D03*
X103750000Y-93045000D03*
D12*
X103820000Y-96030000D03*
X102245000Y-96030000D03*
D17*
X109090000Y-91500000D03*
D18*
X108590000Y-91450000D03*
X108090000Y-91450000D03*
X107590000Y-91450000D03*
D19*
X106890000Y-92150000D03*
D20*
X107140000Y-92650000D03*
X107140000Y-93150000D03*
D19*
X106890000Y-93650000D03*
D18*
X107590000Y-94350000D03*
X108090000Y-94350000D03*
X108590000Y-94350000D03*
X109090000Y-94350000D03*
D19*
X109790000Y-93650000D03*
D20*
X109540000Y-93150000D03*
X109540000Y-92650000D03*
D19*
X109790000Y-92150000D03*
D12*
X109607500Y-89930000D03*
X108032500Y-89930000D03*
D21*
X119350000Y-93300000D03*
X113350000Y-93300000D03*
D22*
X116350000Y-90247000D03*
D23*
X116350000Y-96353000D03*
D10*
X111100000Y-94425000D03*
X111100000Y-96000000D03*
D14*
X105200000Y-90100000D03*
X102400000Y-90100000D03*
D16*
X111150000Y-92175000D03*
X111150000Y-90600000D03*
D24*
X100000000Y-100000000D03*
D25*
X97460000Y-100000000D03*
X100000000Y-97460000D03*
X97460000Y-97460000D03*
X100000000Y-94920000D03*
X97460000Y-94920000D03*
X100000000Y-92380000D03*
X97460000Y-92380000D03*
X100000000Y-89840000D03*
X97460000Y-89840000D03*
D12*
X106797500Y-96030000D03*
X105222500Y-96030000D03*
G04 #@! TA.AperFunction,SMDPad,CuDef*
G36*
X103000000Y-96900001D02*
G01*
X103000000Y-97400000D01*
X102995033Y-97400000D01*
X102993568Y-97479941D01*
X102951293Y-97615256D01*
X102872738Y-97733266D01*
X102764219Y-97824486D01*
X102634459Y-97881581D01*
X102499999Y-97899164D01*
X102499999Y-97900000D01*
X102000000Y-97900000D01*
X102000000Y-97899164D01*
X101993891Y-97899963D01*
X101853814Y-97878152D01*
X101725489Y-97817903D01*
X101619231Y-97724059D01*
X101543583Y-97604164D01*
X101504626Y-97467857D01*
X101505041Y-97400000D01*
X101500000Y-97400000D01*
X101500000Y-96900000D01*
X103000000Y-96900001D01*
G37*
G04 #@! TD.AperFunction*
D26*
X102250000Y-96100000D03*
D27*
X108350000Y-92700000D03*
D28*
X103550000Y-100925000D03*
X102850000Y-100925000D03*
X102175000Y-100925000D03*
X103850000Y-89075000D03*
D29*
X118150000Y-89275000D03*
X114550000Y-96550000D03*
X114550000Y-95875000D03*
D27*
X108350000Y-95125000D03*
D28*
X113600000Y-100150000D03*
X109575000Y-100925000D03*
X119000000Y-100550000D03*
X119000000Y-98600000D03*
D29*
X114550000Y-89275000D03*
D28*
X105625000Y-97050000D03*
D29*
X118150000Y-96550000D03*
D27*
X108350000Y-93300000D03*
D28*
X104225000Y-100925000D03*
D29*
X118150000Y-89950000D03*
D28*
X110275000Y-100925000D03*
X113600000Y-100775000D03*
X107675000Y-97050000D03*
D29*
X114550000Y-89950000D03*
D28*
X103850000Y-89750000D03*
X111600000Y-100150000D03*
X103850000Y-91107470D03*
X108700000Y-90600000D03*
X111600000Y-100800000D03*
X107000000Y-97050000D03*
D29*
X118150000Y-95875000D03*
D28*
X103850000Y-90450000D03*
X106300000Y-97050000D03*
X110950000Y-100925000D03*
X119000000Y-99900000D03*
X108900000Y-100925000D03*
X119000000Y-99250000D03*
X104500000Y-93825000D03*
X104900000Y-89100000D03*
X105600000Y-89100000D03*
X105600000Y-91100000D03*
D27*
X109800000Y-91000000D03*
D28*
X104900000Y-91100000D03*
X116250000Y-98600000D03*
X110300000Y-97025000D03*
X110975000Y-97025000D03*
D27*
X109475000Y-95100000D03*
D28*
X116250000Y-99900000D03*
X116250000Y-99250000D03*
X109600000Y-97025000D03*
X116250000Y-100550000D03*
X108925000Y-97025000D03*
X106900000Y-90800000D03*
X101200000Y-93800000D03*
X106456232Y-91465649D03*
X105990000Y-95360000D03*
X106949998Y-94350000D03*
D30*
X103850000Y-89725000D02*
X103850000Y-90475000D01*
D31*
X106797500Y-95187500D02*
X106797500Y-95227500D01*
X102280000Y-93045000D02*
X102280000Y-93150000D01*
D32*
X105230000Y-94620000D02*
X105430000Y-94620000D01*
D31*
X108590000Y-94350000D02*
X108590000Y-95590000D01*
D30*
X107650000Y-97050000D02*
X105600000Y-97050000D01*
D31*
X106925000Y-95100000D02*
X106797500Y-95227500D01*
X108052500Y-89950000D02*
X108032500Y-89930000D01*
X102280000Y-93150000D02*
X103750000Y-94620000D01*
D33*
X108150000Y-96030000D02*
X108150000Y-96450000D01*
D31*
X108590000Y-95590000D02*
X108150000Y-96030000D01*
D33*
X108150000Y-96450000D02*
X106940000Y-97660000D01*
D31*
X106230000Y-94620000D02*
X106797500Y-95187500D01*
X105330000Y-94620000D02*
X105550000Y-94400000D01*
X108090000Y-95000000D02*
X107990000Y-95100000D01*
X103750000Y-94620000D02*
X105230000Y-94620000D01*
X105230000Y-94620000D02*
X105330000Y-94620000D01*
X107990000Y-95100000D02*
X106925000Y-95100000D01*
X106797500Y-95227500D02*
X106797500Y-96030000D01*
X108500000Y-89950000D02*
X108052500Y-89950000D01*
X105230000Y-94620000D02*
X106230000Y-94620000D01*
X108090000Y-94350000D02*
X108090000Y-95000000D01*
X108590000Y-91450000D02*
X108590000Y-90040000D01*
D34*
X97460000Y-94920000D02*
X100000000Y-94920000D01*
D31*
X108590000Y-90040000D02*
X108500000Y-89950000D01*
D32*
X106890000Y-93650000D02*
X106650000Y-93650000D01*
X106650000Y-93650000D02*
X106475000Y-93825000D01*
X106475000Y-93825000D02*
X104500000Y-93825000D01*
X107140000Y-92650000D02*
X106088585Y-92650000D01*
X98740000Y-93060000D02*
X98740000Y-91100000D01*
X99330000Y-93650000D02*
X98740000Y-93060000D01*
X106088585Y-92650000D02*
X105721076Y-92282491D01*
X99150001Y-90689999D02*
X100000000Y-89840000D01*
X101787509Y-92282491D02*
X100420000Y-93650000D01*
X100420000Y-93650000D02*
X99330000Y-93650000D01*
X98740000Y-91100000D02*
X99150001Y-90689999D01*
X105721076Y-92282491D02*
X101787509Y-92282491D01*
X106224996Y-92150000D02*
X105907476Y-91832480D01*
X100547520Y-91832480D02*
X100000000Y-92380000D01*
X105907476Y-91832480D02*
X100547520Y-91832480D01*
X106890000Y-92150000D02*
X106224996Y-92150000D01*
D35*
X100000000Y-97460000D02*
X100000000Y-97500000D01*
D36*
X97460000Y-97460000D02*
X100000000Y-97460000D01*
D35*
X103200000Y-97660000D02*
X100200000Y-97660000D01*
X100200000Y-97660000D02*
X100000000Y-97460000D01*
D31*
X109500000Y-96000000D02*
X109530000Y-96030000D01*
X109530000Y-96030000D02*
X109725000Y-96030000D01*
D36*
X97460000Y-100000000D02*
X100000000Y-100000000D01*
D32*
X106950000Y-90750010D02*
X106900010Y-90800000D01*
X108090000Y-90990000D02*
X107850010Y-90750010D01*
X102280000Y-94620000D02*
X101460000Y-93800000D01*
X106900010Y-90800000D02*
X106900000Y-90800000D01*
X103820000Y-95970000D02*
X102470000Y-94620000D01*
X102470000Y-94620000D02*
X102280000Y-94620000D01*
X108090000Y-91450000D02*
X108090000Y-90990000D01*
X103820000Y-96030000D02*
X103820000Y-95970000D01*
X107850010Y-90750010D02*
X106950000Y-90750010D01*
X101460000Y-93800000D02*
X101200000Y-93800000D01*
X107590000Y-91450000D02*
X106471881Y-91450000D01*
X106471881Y-91450000D02*
X106456232Y-91465649D01*
D31*
X107550000Y-94350000D02*
X106949998Y-94350000D01*
D32*
X105222500Y-96030000D02*
X105320000Y-96030000D01*
X105320000Y-96030000D02*
X105990000Y-95360000D01*
D31*
X105222500Y-96030000D02*
X105270000Y-96030000D01*
X110675000Y-92650000D02*
X111150000Y-92175000D01*
X109540000Y-92650000D02*
X110675000Y-92650000D01*
X113050000Y-93150000D02*
X113200000Y-93300000D01*
X109540000Y-93150000D02*
X113200000Y-93150000D01*
X111100000Y-94425000D02*
X112225000Y-94425000D01*
X113200000Y-93150000D02*
X113350000Y-93300000D01*
X112225000Y-94425000D02*
X113350000Y-93300000D01*
X111150000Y-90750000D02*
X110000000Y-91900000D01*
X111150000Y-90600000D02*
X111150000Y-90750000D01*
X110000000Y-91900000D02*
X110000000Y-92100000D01*
X111100000Y-95940000D02*
X110200000Y-95040000D01*
X110200000Y-94050000D02*
X109900000Y-93750000D01*
X111100000Y-96000000D02*
X111100000Y-95940000D01*
X110200000Y-95040000D02*
X110200000Y-94050000D01*
D32*
X105335000Y-93150000D02*
X105230000Y-93045000D01*
X105230000Y-93045000D02*
X103750000Y-93045000D01*
X107140000Y-93150000D02*
X105335000Y-93150000D01*
G04 #@! TA.AperFunction,Conductor*
G36*
X113966403Y-90270002D02*
G01*
X114008696Y-90315298D01*
X114015870Y-90328347D01*
X114019689Y-90335293D01*
X114025113Y-90341069D01*
X114034832Y-90351418D01*
X114132169Y-90455071D01*
X114270902Y-90543114D01*
X114278441Y-90545563D01*
X114278444Y-90545565D01*
X114419634Y-90591440D01*
X114419636Y-90591440D01*
X114427172Y-90593889D01*
X114435081Y-90594387D01*
X114435083Y-90594387D01*
X114479060Y-90597154D01*
X114504209Y-90598736D01*
X114585392Y-90635392D01*
X114886812Y-90936812D01*
X114920053Y-90997023D01*
X114920533Y-91001303D01*
X114922851Y-91007958D01*
X114922851Y-91007960D01*
X114977120Y-91163799D01*
X114981111Y-91175260D01*
X114984847Y-91181239D01*
X115038736Y-91267480D01*
X115078723Y-91331473D01*
X115083684Y-91336469D01*
X115083685Y-91336470D01*
X115203556Y-91457181D01*
X115203560Y-91457184D01*
X115208519Y-91462178D01*
X115214465Y-91465952D01*
X115214467Y-91465953D01*
X115358092Y-91557101D01*
X115358096Y-91557103D01*
X115364046Y-91560879D01*
X115370689Y-91563244D01*
X115370688Y-91563244D01*
X115530941Y-91620308D01*
X115530943Y-91620309D01*
X115537575Y-91622670D01*
X115544561Y-91623503D01*
X115544565Y-91623504D01*
X115649000Y-91635956D01*
X115720482Y-91644480D01*
X115724101Y-91644493D01*
X115724108Y-91644493D01*
X115725043Y-91644496D01*
X115726250Y-91644500D01*
X116973749Y-91644500D01*
X117156803Y-91623967D01*
X117167311Y-91620308D01*
X117315991Y-91568532D01*
X117330760Y-91563389D01*
X117401564Y-91519146D01*
X117468334Y-91500000D01*
X119234000Y-91500000D01*
X119302121Y-91520002D01*
X119348614Y-91573658D01*
X119360000Y-91626000D01*
X119360000Y-94934000D01*
X119339998Y-95002121D01*
X119286342Y-95048614D01*
X119234000Y-95060000D01*
X117421936Y-95060000D01*
X117361644Y-95042484D01*
X117361065Y-95043672D01*
X117354741Y-95040588D01*
X117348787Y-95036809D01*
X117318963Y-95026189D01*
X117186692Y-94979089D01*
X117186687Y-94979088D01*
X117180057Y-94976727D01*
X117173071Y-94975894D01*
X117173067Y-94975893D01*
X117005807Y-94955949D01*
X117005806Y-94955949D01*
X117002209Y-94955520D01*
X116998581Y-94955507D01*
X116998580Y-94955507D01*
X116998344Y-94955506D01*
X116996600Y-94955500D01*
X115703401Y-94955500D01*
X115525409Y-94975465D01*
X115518756Y-94977782D01*
X115518755Y-94977782D01*
X115449750Y-95001812D01*
X115356263Y-95034368D01*
X115345882Y-95040855D01*
X115279113Y-95060000D01*
X114767146Y-95060000D01*
X114699025Y-95039998D01*
X114652532Y-94986342D01*
X114642428Y-94916068D01*
X114662932Y-94863180D01*
X114704919Y-94801398D01*
X114707451Y-94795068D01*
X114707453Y-94795064D01*
X114770969Y-94636263D01*
X114770970Y-94636258D01*
X114773503Y-94629926D01*
X114774617Y-94623199D01*
X114774618Y-94623194D01*
X114802965Y-94451963D01*
X114802965Y-94451959D01*
X114803666Y-94447727D01*
X114804999Y-94400000D01*
X114805000Y-92200001D01*
X114785055Y-92016402D01*
X114726150Y-91841369D01*
X114631033Y-91683069D01*
X114504143Y-91548886D01*
X114498500Y-91545051D01*
X114357040Y-91448915D01*
X114357038Y-91448914D01*
X114351398Y-91445081D01*
X114345069Y-91442549D01*
X114345066Y-91442548D01*
X114186267Y-91379032D01*
X114186265Y-91379031D01*
X114179926Y-91376496D01*
X114063899Y-91357288D01*
X114001963Y-91347034D01*
X114001959Y-91347034D01*
X113997727Y-91346333D01*
X113993440Y-91346213D01*
X113993437Y-91346213D01*
X113971490Y-91345600D01*
X113950000Y-91345000D01*
X112750001Y-91345000D01*
X112566402Y-91364945D01*
X112391369Y-91423850D01*
X112385519Y-91427365D01*
X112385517Y-91427366D01*
X112356035Y-91445081D01*
X112233069Y-91518967D01*
X112098886Y-91645857D01*
X111995081Y-91798602D01*
X111992549Y-91804932D01*
X111992547Y-91804936D01*
X111929031Y-91963737D01*
X111929030Y-91963742D01*
X111926497Y-91970074D01*
X111925383Y-91976801D01*
X111925382Y-91976806D01*
X111898356Y-92140057D01*
X111896334Y-92152273D01*
X111895001Y-92200000D01*
X111895001Y-92623500D01*
X111874999Y-92691621D01*
X111821343Y-92738114D01*
X111769001Y-92749500D01*
X110591094Y-92749500D01*
X110522973Y-92729498D01*
X110476480Y-92675842D01*
X110465100Y-92624647D01*
X110459976Y-92059754D01*
X110496875Y-91969517D01*
X110759413Y-91706980D01*
X111136989Y-91329404D01*
X111226084Y-91292500D01*
X111406249Y-91292500D01*
X111410896Y-91291801D01*
X111410901Y-91291801D01*
X111536240Y-91272957D01*
X111536241Y-91272957D01*
X111545551Y-91271557D01*
X111672536Y-91210579D01*
X111754606Y-91134716D01*
X111769063Y-91121352D01*
X111775979Y-91114959D01*
X111846732Y-90993149D01*
X111878540Y-90855920D01*
X111879912Y-90820984D01*
X111916720Y-90736834D01*
X112039872Y-90613682D01*
X112046889Y-90603180D01*
X112090630Y-90537717D01*
X112090632Y-90537714D01*
X112094064Y-90532577D01*
X112130969Y-90443482D01*
X112149282Y-90351417D01*
X112182190Y-90288509D01*
X112272861Y-90250000D01*
X113898282Y-90250000D01*
X113966403Y-90270002D01*
G37*
G04 #@! TD.AperFunction*
G04 #@! TA.AperFunction,Conductor*
G36*
X111842121Y-88920002D02*
G01*
X111888614Y-88973658D01*
X111900000Y-89026000D01*
X111900000Y-90347810D01*
X111863095Y-90436905D01*
X111336905Y-90963095D01*
X111247810Y-91000000D01*
X110796459Y-91000000D01*
X110728338Y-90979998D01*
X110681845Y-90926342D01*
X110671917Y-90872324D01*
X110670623Y-90872332D01*
X110670325Y-90825952D01*
X110670591Y-90823406D01*
X110670700Y-90823406D01*
X110670700Y-90823404D01*
X110670525Y-90821061D01*
X110670437Y-90818716D01*
X110670461Y-90818715D01*
X110670245Y-90813389D01*
X110670178Y-90802827D01*
X110670178Y-90802815D01*
X110670167Y-90801176D01*
X110670095Y-90800696D01*
X110670000Y-90798263D01*
X110670000Y-90388619D01*
X110670097Y-90383677D01*
X110670337Y-90377563D01*
X110670345Y-90377472D01*
X110670374Y-90376638D01*
X110670386Y-90376324D01*
X110670571Y-90371600D01*
X110670579Y-90371559D01*
X110671125Y-90367495D01*
X110671282Y-90366582D01*
X110671345Y-90365852D01*
X110671353Y-90365792D01*
X110671417Y-90365801D01*
X110672272Y-90360837D01*
X110671330Y-90360729D01*
X110673380Y-90342808D01*
X110673938Y-90333023D01*
X110674899Y-90316176D01*
X110674899Y-90316159D01*
X110675000Y-90314396D01*
X110675000Y-89026000D01*
X110695002Y-88957879D01*
X110748658Y-88911386D01*
X110801000Y-88900000D01*
X111774000Y-88900000D01*
X111842121Y-88920002D01*
G37*
G04 #@! TD.AperFunction*
G04 #@! TA.AperFunction,Conductor*
G36*
X99975186Y-89643066D02*
G01*
X100042093Y-89666816D01*
X100085538Y-89722968D01*
X100094054Y-89774865D01*
X100054107Y-90613761D01*
X100030888Y-90680853D01*
X99968096Y-90727301D01*
X98899512Y-91083496D01*
X98803318Y-91076659D01*
X98778186Y-91064093D01*
X98753055Y-91051527D01*
X98701072Y-91003171D01*
X98683484Y-90934388D01*
X98692131Y-90892758D01*
X99166691Y-89684787D01*
X99210217Y-89628697D01*
X99290955Y-89605053D01*
X99975186Y-89643066D01*
G37*
G04 #@! TD.AperFunction*
G04 #@! TA.AperFunction,Conductor*
G36*
X113328510Y-96336680D02*
G01*
X114823739Y-97824376D01*
X117066174Y-97824376D01*
X117152351Y-97858454D01*
X117449980Y-98137481D01*
X118009971Y-98662473D01*
X118049793Y-98754870D01*
X118041819Y-100868105D01*
X118041040Y-101074475D01*
X118020781Y-101142520D01*
X117966950Y-101188810D01*
X117915041Y-101200000D01*
X114426000Y-101200000D01*
X114357879Y-101179998D01*
X114311386Y-101126342D01*
X114300000Y-101074000D01*
X114300000Y-100002190D01*
X114277163Y-99887383D01*
X114240258Y-99798288D01*
X114175227Y-99700963D01*
X113541905Y-99067641D01*
X113505000Y-98978546D01*
X113505000Y-98500000D01*
X113499963Y-98463225D01*
X113485721Y-98359263D01*
X113484555Y-98350749D01*
X113434842Y-98235869D01*
X113428138Y-98220376D01*
X113428136Y-98220373D01*
X113424727Y-98212495D01*
X113363983Y-98137481D01*
X113335330Y-98102098D01*
X113329924Y-98095422D01*
X113265577Y-98049693D01*
X113214131Y-98013133D01*
X113207129Y-98008157D01*
X113065391Y-97957128D01*
X112950000Y-97945000D01*
X112200001Y-97945000D01*
X112195756Y-97945582D01*
X112195749Y-97945582D01*
X112117261Y-97956334D01*
X112050750Y-97965445D01*
X112042866Y-97968857D01*
X112042865Y-97968857D01*
X111920377Y-98021862D01*
X111920374Y-98021864D01*
X111912496Y-98025273D01*
X111905824Y-98030676D01*
X111905822Y-98030677D01*
X111825868Y-98095422D01*
X111795423Y-98120076D01*
X111790447Y-98127078D01*
X111790446Y-98127079D01*
X111749817Y-98184250D01*
X111708158Y-98242871D01*
X111657129Y-98384609D01*
X111645001Y-98500000D01*
X111645001Y-98978545D01*
X111608096Y-99067640D01*
X111262641Y-99413095D01*
X111173546Y-99450000D01*
X108952190Y-99450000D01*
X108913783Y-99457640D01*
X108843454Y-99471629D01*
X108843450Y-99471630D01*
X108837383Y-99472837D01*
X108748288Y-99509742D01*
X108668789Y-99562862D01*
X108648835Y-99573729D01*
X108595380Y-99596861D01*
X108595378Y-99596862D01*
X108587496Y-99600273D01*
X108580824Y-99605676D01*
X108580822Y-99605677D01*
X108477097Y-99689671D01*
X108477095Y-99689673D01*
X108470423Y-99695076D01*
X108465449Y-99702074D01*
X108465448Y-99702076D01*
X108402380Y-99790822D01*
X108383157Y-99817871D01*
X108332128Y-99959609D01*
X108320000Y-100075000D01*
X108320000Y-100737695D01*
X108316364Y-100765311D01*
X108315132Y-100768285D01*
X108294500Y-100925000D01*
X108295578Y-100933188D01*
X108311951Y-101057554D01*
X108301012Y-101127703D01*
X108253884Y-101180801D01*
X108187029Y-101200000D01*
X104937971Y-101200000D01*
X104869850Y-101179998D01*
X104823357Y-101126342D01*
X104813049Y-101057554D01*
X104829422Y-100933188D01*
X104830500Y-100925000D01*
X104829422Y-100916809D01*
X104826909Y-100897718D01*
X104826521Y-100868105D01*
X104829656Y-100838273D01*
X104830000Y-100835000D01*
X104830000Y-100085001D01*
X104809555Y-99935750D01*
X104786151Y-99881666D01*
X104753138Y-99805377D01*
X104753136Y-99805374D01*
X104749727Y-99797496D01*
X104654924Y-99680423D01*
X104532129Y-99593158D01*
X104390391Y-99542129D01*
X104275000Y-99530001D01*
X103341821Y-99530001D01*
X102129291Y-99530000D01*
X102125001Y-99530000D01*
X102120756Y-99530582D01*
X102120749Y-99530582D01*
X102042254Y-99541335D01*
X101975750Y-99550445D01*
X101967866Y-99553857D01*
X101967865Y-99553857D01*
X101845377Y-99606862D01*
X101845374Y-99606864D01*
X101837496Y-99610273D01*
X101830824Y-99615676D01*
X101830822Y-99615677D01*
X101727097Y-99699671D01*
X101727095Y-99699673D01*
X101720423Y-99705076D01*
X101715449Y-99712074D01*
X101715448Y-99712076D01*
X101649143Y-99805377D01*
X101633157Y-99827871D01*
X101582128Y-99969609D01*
X101570000Y-100085000D01*
X101570000Y-100834999D01*
X101570582Y-100839244D01*
X101570582Y-100839251D01*
X101573490Y-100860477D01*
X101573578Y-100894023D01*
X101569500Y-100925000D01*
X101570578Y-100933188D01*
X101586951Y-101057554D01*
X101576012Y-101127703D01*
X101528884Y-101180801D01*
X101462029Y-101200000D01*
X96426000Y-101200000D01*
X96357879Y-101179998D01*
X96311386Y-101126342D01*
X96300000Y-101074000D01*
X96300000Y-98556000D01*
X96320002Y-98487879D01*
X96373658Y-98441386D01*
X96426000Y-98430000D01*
X96539890Y-98430000D01*
X96619890Y-98459120D01*
X96620841Y-98460071D01*
X96625343Y-98463223D01*
X96625345Y-98463225D01*
X96802741Y-98587439D01*
X96807250Y-98590596D01*
X96812232Y-98592919D01*
X96812237Y-98592922D01*
X96961390Y-98662473D01*
X97013493Y-98686769D01*
X97018801Y-98688191D01*
X97018803Y-98688192D01*
X97086664Y-98706375D01*
X97233302Y-98745667D01*
X97312697Y-98752613D01*
X97400123Y-98760262D01*
X97400132Y-98760262D01*
X97402848Y-98760500D01*
X100057152Y-98760500D01*
X100059868Y-98760262D01*
X100059877Y-98760262D01*
X100147303Y-98752613D01*
X100226698Y-98745667D01*
X100373336Y-98706375D01*
X100441197Y-98688192D01*
X100441199Y-98688191D01*
X100446507Y-98686769D01*
X100498610Y-98662473D01*
X100647763Y-98592922D01*
X100647768Y-98592919D01*
X100652750Y-98590596D01*
X100669790Y-98578665D01*
X100806003Y-98483287D01*
X100878274Y-98460500D01*
X101734307Y-98460500D01*
X101807296Y-98483794D01*
X101867871Y-98526842D01*
X102009609Y-98577871D01*
X102125000Y-98589999D01*
X103058179Y-98589999D01*
X104270709Y-98590000D01*
X104274999Y-98590000D01*
X104279244Y-98589418D01*
X104279251Y-98589418D01*
X104363602Y-98577863D01*
X104424250Y-98569555D01*
X104455574Y-98556000D01*
X104554623Y-98513138D01*
X104554626Y-98513136D01*
X104562504Y-98509727D01*
X104569176Y-98504324D01*
X104569178Y-98504323D01*
X104626285Y-98458079D01*
X104705579Y-98430000D01*
X105131389Y-98430000D01*
X105204378Y-98453294D01*
X105307871Y-98526842D01*
X105449609Y-98577871D01*
X105565000Y-98589999D01*
X106498179Y-98589999D01*
X107710710Y-98590000D01*
X107715000Y-98590000D01*
X107719245Y-98589418D01*
X107719252Y-98589418D01*
X107803603Y-98577863D01*
X107864251Y-98569555D01*
X107895575Y-98556000D01*
X107994624Y-98513138D01*
X107994627Y-98513136D01*
X108002505Y-98509727D01*
X108009177Y-98504324D01*
X108009179Y-98504323D01*
X108112902Y-98420330D01*
X108119578Y-98414924D01*
X108146202Y-98377461D01*
X108201867Y-98299131D01*
X108206843Y-98292129D01*
X108257872Y-98150391D01*
X108270000Y-98035000D01*
X108270000Y-97372847D01*
X108306905Y-97283751D01*
X108453031Y-97137626D01*
X108626573Y-96964084D01*
X108632839Y-96958231D01*
X108668562Y-96927068D01*
X108674289Y-96922072D01*
X108710593Y-96870417D01*
X108714508Y-96865144D01*
X108729397Y-96846155D01*
X108739449Y-96834815D01*
X108784905Y-96789359D01*
X108847217Y-96755333D01*
X108918032Y-96760398D01*
X108974868Y-96802945D01*
X109000000Y-96878454D01*
X109000000Y-98143346D01*
X110150000Y-98143346D01*
X110150000Y-96530594D01*
X110170002Y-96462473D01*
X110223658Y-96415980D01*
X110293932Y-96405876D01*
X110358512Y-96435370D01*
X110387581Y-96475022D01*
X110387892Y-96474834D01*
X110390024Y-96478355D01*
X110391637Y-96480555D01*
X110395753Y-96490066D01*
X110401162Y-96496746D01*
X110401163Y-96496747D01*
X110465918Y-96576712D01*
X110485218Y-96600546D01*
X110492220Y-96605522D01*
X110492222Y-96605524D01*
X110588630Y-96674037D01*
X110601099Y-96682898D01*
X110734856Y-96731054D01*
X110843750Y-96742500D01*
X111356249Y-96742500D01*
X111360494Y-96741918D01*
X111360501Y-96741918D01*
X111447492Y-96730001D01*
X111497096Y-96723206D01*
X111526775Y-96710363D01*
X111576815Y-96700000D01*
X112124937Y-96700000D01*
X112128009Y-96699697D01*
X112128018Y-96699697D01*
X112162615Y-96696289D01*
X112183463Y-96694236D01*
X112198360Y-96691273D01*
X112228656Y-96685247D01*
X112228662Y-96685246D01*
X112231681Y-96684645D01*
X112287960Y-96667573D01*
X112507317Y-96576712D01*
X112665567Y-96511163D01*
X112665576Y-96511159D01*
X112668429Y-96509977D01*
X112720297Y-96482252D01*
X112761173Y-96454939D01*
X112763559Y-96452981D01*
X112804238Y-96419597D01*
X112804242Y-96419594D01*
X112806632Y-96417632D01*
X112817632Y-96406632D01*
X112854938Y-96361175D01*
X112858399Y-96355995D01*
X112912876Y-96310469D01*
X112963162Y-96300000D01*
X113239640Y-96300000D01*
X113328510Y-96336680D01*
G37*
G04 #@! TD.AperFunction*
G04 #@! TA.AperFunction,Conductor*
G36*
X113872121Y-93020002D02*
G01*
X113918614Y-93073658D01*
X113930000Y-93126000D01*
X113930000Y-94704000D01*
X113909998Y-94772121D01*
X113856342Y-94818614D01*
X113804000Y-94830000D01*
X110816000Y-94830000D01*
X110747879Y-94809998D01*
X110701386Y-94756342D01*
X110690000Y-94704000D01*
X110690000Y-93860000D01*
X110430573Y-93600573D01*
X110395000Y-93525360D01*
X110395000Y-93525000D01*
X110375589Y-93427416D01*
X110368697Y-93417101D01*
X110368696Y-93417099D01*
X110327205Y-93355004D01*
X110320312Y-93344688D01*
X110237584Y-93289411D01*
X110234633Y-93288824D01*
X110184421Y-93248360D01*
X110162000Y-93180997D01*
X110179558Y-93112206D01*
X110231521Y-93063827D01*
X110287920Y-93050500D01*
X110611522Y-93050500D01*
X110611552Y-93050502D01*
X110611567Y-93050507D01*
X110738433Y-93050507D01*
X110759357Y-93043708D01*
X110778574Y-93039095D01*
X110800306Y-93035653D01*
X110811401Y-93030000D01*
X110819910Y-93025665D01*
X110838170Y-93018101D01*
X110849660Y-93014367D01*
X110857764Y-93011734D01*
X110859090Y-93011303D01*
X110859230Y-93011734D01*
X110908108Y-93000000D01*
X113804000Y-93000000D01*
X113872121Y-93020002D01*
G37*
G04 #@! TD.AperFunction*
G04 #@! TA.AperFunction,Conductor*
G36*
X108667121Y-91170002D02*
G01*
X108713614Y-91223658D01*
X108725000Y-91276000D01*
X108725000Y-91546479D01*
X108723651Y-91563620D01*
X108723755Y-91563632D01*
X108723462Y-91566105D01*
X108723078Y-91568532D01*
X108720000Y-91607642D01*
X108720000Y-91762966D01*
X108717579Y-91787548D01*
X108717286Y-91789021D01*
X108707225Y-91839600D01*
X108706997Y-91841138D01*
X108706996Y-91841143D01*
X108703852Y-91862337D01*
X108703849Y-91862358D01*
X108703625Y-91863871D01*
X108701204Y-91888453D01*
X108700000Y-91912956D01*
X108700000Y-91924000D01*
X108700360Y-91927347D01*
X108700360Y-91927350D01*
X108703687Y-91958292D01*
X108705713Y-91977140D01*
X108706431Y-91980440D01*
X108706431Y-91980441D01*
X108715323Y-92021316D01*
X108717099Y-92029482D01*
X108718433Y-92032146D01*
X108725000Y-92070500D01*
X108725000Y-96372810D01*
X108688095Y-96461905D01*
X108411905Y-96738095D01*
X108322810Y-96775000D01*
X107576000Y-96775000D01*
X107507879Y-96754998D01*
X107461386Y-96701342D01*
X107450000Y-96649000D01*
X107450000Y-95031000D01*
X107470002Y-94962879D01*
X107523658Y-94916386D01*
X107576000Y-94905000D01*
X107715000Y-94905000D01*
X107793450Y-94889395D01*
X107859957Y-94844957D01*
X107880692Y-94813925D01*
X107895936Y-94791111D01*
X107928104Y-94767475D01*
X107943247Y-94750000D01*
X107950000Y-94750000D01*
X107950000Y-92176000D01*
X107970002Y-92107879D01*
X108023658Y-92061386D01*
X108076000Y-92050000D01*
X108400000Y-92050000D01*
X108400000Y-91907798D01*
X108405782Y-91878726D01*
X108404395Y-91878450D01*
X108418793Y-91806067D01*
X108420000Y-91800000D01*
X108420000Y-91276000D01*
X108440002Y-91207879D01*
X108493658Y-91161386D01*
X108546000Y-91150000D01*
X108599000Y-91150000D01*
X108667121Y-91170002D01*
G37*
G04 #@! TD.AperFunction*
G04 #@! TA.AperFunction,Conductor*
G36*
X104242121Y-88770002D02*
G01*
X104288614Y-88823658D01*
X104300000Y-88876000D01*
X104300000Y-91330980D01*
X104279998Y-91399101D01*
X104226342Y-91445594D01*
X104174000Y-91456980D01*
X101735359Y-91456980D01*
X101667238Y-91436978D01*
X101620745Y-91383322D01*
X101609361Y-91331410D01*
X101601039Y-88876427D01*
X101620810Y-88808239D01*
X101674308Y-88761564D01*
X101727038Y-88750000D01*
X104174000Y-88750000D01*
X104242121Y-88770002D01*
G37*
G04 #@! TD.AperFunction*
G04 #@! TA.AperFunction,Conductor*
G36*
X120671311Y-94989137D02*
G01*
X120726937Y-95033254D01*
X120750000Y-95105917D01*
X120750001Y-101124000D01*
X120729999Y-101192121D01*
X120676343Y-101238614D01*
X120624001Y-101250000D01*
X118461259Y-101250000D01*
X118393138Y-101229998D01*
X118346645Y-101176342D01*
X118336610Y-101105598D01*
X118341038Y-101075607D01*
X118341817Y-100869237D01*
X118345428Y-99912359D01*
X118349767Y-98762472D01*
X118349767Y-98762468D01*
X118349791Y-98756002D01*
X118325295Y-98636132D01*
X118285473Y-98543735D01*
X118215153Y-98443612D01*
X118210441Y-98439195D01*
X118210438Y-98439191D01*
X117655162Y-97918620D01*
X117361856Y-97643645D01*
X117361851Y-97643641D01*
X117357533Y-97639593D01*
X117262671Y-97579475D01*
X117206310Y-97557188D01*
X117182020Y-97547582D01*
X117182018Y-97547581D01*
X117176494Y-97545397D01*
X117066174Y-97524376D01*
X114999564Y-97524376D01*
X114910694Y-97487696D01*
X114795264Y-97372847D01*
X113540106Y-96124013D01*
X113442966Y-96059372D01*
X113437264Y-96057018D01*
X113437261Y-96057017D01*
X113408770Y-96045258D01*
X113354096Y-96022692D01*
X113296868Y-96011346D01*
X113245695Y-96001200D01*
X113245690Y-96001200D01*
X113239640Y-96000000D01*
X113151479Y-96000000D01*
X113083358Y-95979998D01*
X113036865Y-95926342D01*
X113030905Y-95837424D01*
X113034707Y-95824892D01*
X113034714Y-95824865D01*
X113035605Y-95821927D01*
X113045196Y-95773710D01*
X113046880Y-95756619D01*
X113049697Y-95728016D01*
X113049697Y-95728010D01*
X113050000Y-95724937D01*
X113050000Y-95502190D01*
X113030969Y-95406518D01*
X113033588Y-95405997D01*
X113033054Y-95346590D01*
X113070899Y-95286521D01*
X113154264Y-95255000D01*
X113949999Y-95255000D01*
X114133598Y-95235055D01*
X114308631Y-95176150D01*
X114334632Y-95160527D01*
X114403324Y-95142586D01*
X114494752Y-95186016D01*
X114504183Y-95196900D01*
X114504185Y-95196902D01*
X114510087Y-95203713D01*
X114517671Y-95208587D01*
X114537993Y-95221647D01*
X114628592Y-95279871D01*
X114637241Y-95282411D01*
X114637242Y-95282411D01*
X114637743Y-95282558D01*
X114696713Y-95299873D01*
X114701172Y-95300514D01*
X114701176Y-95300515D01*
X114727412Y-95304287D01*
X114767146Y-95310000D01*
X115279113Y-95310000D01*
X115348020Y-95300316D01*
X115352249Y-95299104D01*
X115352251Y-95299103D01*
X115410548Y-95282387D01*
X115410547Y-95282387D01*
X115414789Y-95281171D01*
X115418815Y-95279378D01*
X115418819Y-95279377D01*
X115435315Y-95272032D01*
X115445128Y-95268147D01*
X115531965Y-95237907D01*
X115531968Y-95237906D01*
X115531968Y-95237905D01*
X115567794Y-95225429D01*
X115595185Y-95219206D01*
X115710379Y-95206285D01*
X115724424Y-95205500D01*
X116979705Y-95205500D01*
X116994623Y-95206386D01*
X117013082Y-95208587D01*
X117108578Y-95219974D01*
X117135926Y-95226389D01*
X117188910Y-95245256D01*
X117235099Y-95261703D01*
X117238479Y-95262906D01*
X117240078Y-95263580D01*
X117240106Y-95263504D01*
X117245918Y-95265662D01*
X117251484Y-95268376D01*
X117257475Y-95269952D01*
X117260501Y-95270748D01*
X117260423Y-95271046D01*
X117263280Y-95272107D01*
X117262697Y-95273679D01*
X117264444Y-95274301D01*
X117265063Y-95271949D01*
X117276254Y-95274894D01*
X117292281Y-95281241D01*
X117291898Y-95282558D01*
X117352190Y-95300074D01*
X117421936Y-95310000D01*
X119234000Y-95310000D01*
X119237347Y-95309640D01*
X119237350Y-95309640D01*
X119283776Y-95304649D01*
X119283782Y-95304648D01*
X119287140Y-95304287D01*
X119339482Y-95292901D01*
X119346532Y-95289372D01*
X119346535Y-95289371D01*
X119388577Y-95268327D01*
X119444975Y-95255000D01*
X119949999Y-95255000D01*
X120133598Y-95235055D01*
X120308631Y-95176150D01*
X120466931Y-95081033D01*
X120471892Y-95076342D01*
X120537427Y-95014369D01*
X120600665Y-94982097D01*
X120671311Y-94989137D01*
G37*
G04 #@! TD.AperFunction*
G04 #@! TA.AperFunction,Conductor*
G36*
X112940838Y-98245690D02*
G01*
X112982762Y-98250096D01*
X113012274Y-98256855D01*
X113050605Y-98270655D01*
X113080909Y-98286497D01*
X113091795Y-98294233D01*
X113108570Y-98306154D01*
X113133501Y-98329565D01*
X113154861Y-98355942D01*
X113172576Y-98385193D01*
X113186055Y-98416341D01*
X113195250Y-98449273D01*
X113202738Y-98503932D01*
X113202737Y-98503936D01*
X113203834Y-98511943D01*
X113205000Y-98529042D01*
X113205000Y-98978546D01*
X113206207Y-98984612D01*
X113209152Y-98999417D01*
X113202825Y-99070131D01*
X113159271Y-99126199D01*
X113085573Y-99150000D01*
X112064428Y-99150000D01*
X111996307Y-99129998D01*
X111949814Y-99076342D01*
X111940849Y-98999418D01*
X111943794Y-98984612D01*
X111945001Y-98978545D01*
X111945001Y-98522331D01*
X111945691Y-98509162D01*
X111950097Y-98467238D01*
X111956857Y-98437724D01*
X111970658Y-98399392D01*
X111986502Y-98369085D01*
X111994357Y-98358032D01*
X112006159Y-98341425D01*
X112029571Y-98316494D01*
X112055940Y-98295141D01*
X112085190Y-98277426D01*
X112116340Y-98263946D01*
X112149280Y-98254750D01*
X112157975Y-98253559D01*
X112158315Y-98256038D01*
X112158317Y-98256037D01*
X112157977Y-98253558D01*
X112211938Y-98246166D01*
X112229038Y-98245000D01*
X112927669Y-98245000D01*
X112940838Y-98245690D01*
G37*
G04 #@! TD.AperFunction*
G04 #@! TA.AperFunction,Conductor*
G36*
X120692121Y-88770002D02*
G01*
X120738614Y-88823658D01*
X120750000Y-88876000D01*
X120750000Y-91492248D01*
X120729998Y-91560369D01*
X120676342Y-91606862D01*
X120606068Y-91616966D01*
X120532451Y-91578821D01*
X120515152Y-91560528D01*
X120504143Y-91548886D01*
X120498500Y-91545051D01*
X120357040Y-91448915D01*
X120357038Y-91448914D01*
X120351398Y-91445081D01*
X120345069Y-91442549D01*
X120345066Y-91442548D01*
X120186267Y-91379032D01*
X120186265Y-91379031D01*
X120179926Y-91376496D01*
X120063899Y-91357288D01*
X120001963Y-91347034D01*
X120001959Y-91347034D01*
X119997727Y-91346333D01*
X119993440Y-91346213D01*
X119993437Y-91346213D01*
X119971490Y-91345600D01*
X119950000Y-91345000D01*
X119510492Y-91345000D01*
X119442372Y-91324998D01*
X119380138Y-91285003D01*
X119380139Y-91285003D01*
X119372554Y-91280129D01*
X119363905Y-91277589D01*
X119363904Y-91277589D01*
X119346248Y-91272405D01*
X119304433Y-91260127D01*
X119299974Y-91259486D01*
X119299970Y-91259485D01*
X119269216Y-91255063D01*
X119234000Y-91250000D01*
X117468334Y-91250000D01*
X117463989Y-91250611D01*
X117463984Y-91250611D01*
X117403779Y-91259073D01*
X117399425Y-91259685D01*
X117332655Y-91278831D01*
X117328647Y-91280615D01*
X117328640Y-91280618D01*
X117294162Y-91295969D01*
X117269085Y-91307134D01*
X117265361Y-91309461D01*
X117234049Y-91329027D01*
X117208716Y-91341164D01*
X117114418Y-91374002D01*
X117087026Y-91380226D01*
X116966770Y-91393715D01*
X116952725Y-91394500D01*
X115742990Y-91394500D01*
X115728071Y-91393614D01*
X115678602Y-91387715D01*
X115678598Y-91387714D01*
X115637999Y-91382873D01*
X115609055Y-91379422D01*
X115581706Y-91373007D01*
X115487637Y-91339510D01*
X115462390Y-91327196D01*
X115378086Y-91273695D01*
X115356194Y-91256094D01*
X115285835Y-91185242D01*
X115268387Y-91163228D01*
X115250748Y-91135000D01*
X115215472Y-91078548D01*
X115203339Y-91053226D01*
X115158945Y-90925743D01*
X115158943Y-90925744D01*
X115158940Y-90925726D01*
X115156622Y-90919071D01*
X115155240Y-90919552D01*
X115148308Y-90905714D01*
X115138915Y-90876195D01*
X115105674Y-90815984D01*
X115063589Y-90760035D01*
X114762169Y-90458615D01*
X114688272Y-90407542D01*
X114635453Y-90383693D01*
X114612272Y-90373226D01*
X114612270Y-90373225D01*
X114607089Y-90370886D01*
X114601570Y-90369515D01*
X114525433Y-90350602D01*
X114525429Y-90350601D01*
X114519904Y-90349229D01*
X114514216Y-90348871D01*
X114514215Y-90348871D01*
X114509610Y-90348581D01*
X114494759Y-90347647D01*
X114490278Y-90347365D01*
X114459257Y-90341449D01*
X114393331Y-90320028D01*
X114364757Y-90306582D01*
X114306232Y-90269441D01*
X114281896Y-90249309D01*
X114223168Y-90186770D01*
X114212986Y-90174445D01*
X114191426Y-90144682D01*
X114149133Y-90099386D01*
X114036836Y-90030129D01*
X114028757Y-90027757D01*
X114028753Y-90027755D01*
X113993507Y-90017407D01*
X113968715Y-90010127D01*
X113964256Y-90009486D01*
X113964252Y-90009485D01*
X113933499Y-90005064D01*
X113898282Y-90000000D01*
X112276000Y-90000000D01*
X112207879Y-89979998D01*
X112161386Y-89926342D01*
X112150000Y-89874000D01*
X112150000Y-89026000D01*
X112144287Y-88972860D01*
X112132901Y-88920518D01*
X112130864Y-88916449D01*
X112127142Y-88847026D01*
X112162272Y-88785330D01*
X112249765Y-88750000D01*
X120624000Y-88750000D01*
X120692121Y-88770002D01*
G37*
G04 #@! TD.AperFunction*
G04 #@! TA.AperFunction,Conductor*
G36*
X108336905Y-89486905D02*
G01*
X108713095Y-89863095D01*
X108750000Y-89952190D01*
X108750000Y-90933972D01*
X108740409Y-90982190D01*
X108736305Y-90992099D01*
X108729411Y-91002416D01*
X108726990Y-91014587D01*
X108720228Y-91048581D01*
X108687321Y-91111491D01*
X108596649Y-91150000D01*
X108593747Y-91150000D01*
X108525626Y-91129998D01*
X108479133Y-91076342D01*
X108467890Y-91018081D01*
X108470077Y-91007924D01*
X108466373Y-90976629D01*
X108466002Y-90970333D01*
X108465928Y-90970339D01*
X108465500Y-90965161D01*
X108465500Y-90959961D01*
X108462352Y-90941048D01*
X108462181Y-90940019D01*
X108461344Y-90934141D01*
X108456614Y-90894180D01*
X108455391Y-90883843D01*
X108451472Y-90875681D01*
X108449985Y-90866749D01*
X108425910Y-90822131D01*
X108423238Y-90816885D01*
X108401305Y-90771210D01*
X108396339Y-90765301D01*
X108394402Y-90763364D01*
X108393916Y-90762834D01*
X108390654Y-90756789D01*
X108383005Y-90749719D01*
X108383004Y-90749717D01*
X108355071Y-90723897D01*
X108351504Y-90720467D01*
X108152723Y-90521686D01*
X108139588Y-90505424D01*
X108137090Y-90502678D01*
X108131440Y-90493929D01*
X108106679Y-90474409D01*
X108101975Y-90470229D01*
X108101927Y-90470286D01*
X108097966Y-90466930D01*
X108094287Y-90463251D01*
X108077869Y-90451519D01*
X108073128Y-90447960D01*
X108033317Y-90416575D01*
X108024770Y-90413574D01*
X108017406Y-90408311D01*
X107968862Y-90393793D01*
X107963256Y-90391971D01*
X107922912Y-90377803D01*
X107922906Y-90377802D01*
X107915429Y-90375176D01*
X107907739Y-90374510D01*
X107905003Y-90374510D01*
X107904278Y-90374479D01*
X107897699Y-90372511D01*
X107849669Y-90374398D01*
X107849287Y-90374413D01*
X107844341Y-90374510D01*
X107291563Y-90374510D01*
X107218575Y-90351217D01*
X107157361Y-90307714D01*
X107149284Y-90304806D01*
X107149278Y-90304803D01*
X107149260Y-90304797D01*
X107149246Y-90304787D01*
X107141666Y-90300824D01*
X107142263Y-90299682D01*
X107091942Y-90262901D01*
X107066375Y-90196668D01*
X107080674Y-90127127D01*
X107102848Y-90097152D01*
X107713095Y-89486905D01*
X107802190Y-89450000D01*
X108247810Y-89450000D01*
X108336905Y-89486905D01*
G37*
G04 #@! TD.AperFunction*
G04 #@! TA.AperFunction,Conductor*
G36*
X109338629Y-94008058D02*
G01*
X109342416Y-94010589D01*
X109440000Y-94030000D01*
X109477810Y-94030000D01*
X109566905Y-94066905D01*
X109762596Y-94262596D01*
X109799501Y-94351691D01*
X109799500Y-94976522D01*
X109799498Y-94976552D01*
X109799493Y-94976567D01*
X109799493Y-95103433D01*
X109806293Y-95124361D01*
X109810905Y-95143575D01*
X109814347Y-95165305D01*
X109818849Y-95174141D01*
X109824334Y-95184907D01*
X109831898Y-95203167D01*
X109836917Y-95218611D01*
X109836917Y-95218612D01*
X109838697Y-95224090D01*
X109838266Y-95224230D01*
X109850000Y-95273108D01*
X109850000Y-95350000D01*
X110113095Y-95613095D01*
X110150000Y-95702190D01*
X110150000Y-98017346D01*
X110129998Y-98085467D01*
X110076342Y-98131960D01*
X110024000Y-98143346D01*
X109126000Y-98143346D01*
X109057879Y-98123344D01*
X109011386Y-98069688D01*
X109000000Y-98017346D01*
X109000000Y-94126000D01*
X109020002Y-94057879D01*
X109073658Y-94011386D01*
X109126000Y-94000000D01*
X109298115Y-94000000D01*
X109338629Y-94008058D01*
G37*
G04 #@! TD.AperFunction*
G04 #@! TA.AperFunction,Conductor*
G36*
X112483838Y-95209010D02*
G01*
X112520074Y-95223504D01*
X112544194Y-95227497D01*
X112612710Y-95262710D01*
X112763095Y-95413095D01*
X112800000Y-95502190D01*
X112800000Y-95724937D01*
X112790409Y-95773154D01*
X112634315Y-96150000D01*
X112632814Y-96153623D01*
X112605500Y-96194500D01*
X112594500Y-96205500D01*
X112553624Y-96232813D01*
X112173155Y-96390409D01*
X112124937Y-96400000D01*
X110902190Y-96400000D01*
X110813095Y-96363095D01*
X110636905Y-96186905D01*
X110600000Y-96097810D01*
X110600000Y-95700000D01*
X110517723Y-95617723D01*
X110490409Y-95576846D01*
X110429705Y-95430293D01*
X110422116Y-95359704D01*
X110457019Y-95292981D01*
X110513095Y-95236905D01*
X110602190Y-95200000D01*
X112437047Y-95200000D01*
X112483838Y-95209010D01*
G37*
G04 #@! TD.AperFunction*
G04 #@! TA.AperFunction,Conductor*
G36*
X113236905Y-99186905D02*
G01*
X113963095Y-99913095D01*
X114000000Y-100002190D01*
X114000000Y-101124000D01*
X113979998Y-101192121D01*
X113926342Y-101238614D01*
X113874000Y-101250000D01*
X108802190Y-101250000D01*
X108713095Y-101213095D01*
X108686905Y-101186905D01*
X108650000Y-101097810D01*
X108650000Y-100052190D01*
X108686905Y-99963095D01*
X108863095Y-99786905D01*
X108952190Y-99750000D01*
X111350000Y-99750000D01*
X111913095Y-99186905D01*
X112002190Y-99150000D01*
X113147810Y-99150000D01*
X113236905Y-99186905D01*
G37*
G04 #@! TD.AperFunction*
G04 #@! TA.AperFunction,Conductor*
G36*
X110367121Y-88770002D02*
G01*
X110413614Y-88823658D01*
X110425000Y-88876000D01*
X110425000Y-90314396D01*
X110422950Y-90332317D01*
X110423593Y-90332403D01*
X110422803Y-90338286D01*
X110421460Y-90344080D01*
X110420000Y-90381250D01*
X110420000Y-90818749D01*
X110420700Y-90823404D01*
X110420700Y-90823406D01*
X110422945Y-90838340D01*
X110413292Y-90908677D01*
X110387441Y-90946166D01*
X109761692Y-91571916D01*
X109761668Y-91571937D01*
X109761653Y-91571944D01*
X109671944Y-91661654D01*
X109667441Y-91670492D01*
X109661957Y-91681254D01*
X109651629Y-91698109D01*
X109638700Y-91715905D01*
X109635942Y-91713901D01*
X109599163Y-91752829D01*
X109535664Y-91770000D01*
X109440000Y-91770000D01*
X109409240Y-91776119D01*
X109354585Y-91786990D01*
X109354583Y-91786991D01*
X109342416Y-91789411D01*
X109332101Y-91796303D01*
X109332099Y-91796304D01*
X109326568Y-91800000D01*
X109259688Y-91844688D01*
X109252795Y-91855004D01*
X109211304Y-91917099D01*
X109211303Y-91917101D01*
X109204411Y-91927416D01*
X109201990Y-91939585D01*
X109201990Y-91939586D01*
X109200201Y-91948580D01*
X109167294Y-92011490D01*
X109076622Y-92050000D01*
X109076000Y-92050000D01*
X109007879Y-92029998D01*
X108961386Y-91976342D01*
X108950000Y-91924000D01*
X108950000Y-91912956D01*
X108952421Y-91888374D01*
X108962482Y-91837795D01*
X108970000Y-91800000D01*
X108970000Y-91607642D01*
X108974882Y-91576819D01*
X108975653Y-91575306D01*
X108990500Y-91481568D01*
X108990500Y-91134716D01*
X109010502Y-91066595D01*
X109045676Y-91030505D01*
X109064596Y-91017647D01*
X109064599Y-91017644D01*
X109071702Y-91012817D01*
X109077245Y-91006258D01*
X109077247Y-91006256D01*
X109163481Y-90904211D01*
X109169024Y-90897652D01*
X109181857Y-90869623D01*
X109228216Y-90768366D01*
X109228216Y-90768364D01*
X109231791Y-90760557D01*
X109255378Y-90611634D01*
X109255500Y-90600000D01*
X109235037Y-90450615D01*
X109205560Y-90382497D01*
X109178567Y-90320120D01*
X109178566Y-90320118D01*
X109175155Y-90312236D01*
X109080266Y-90195058D01*
X109073264Y-90190082D01*
X109073262Y-90190080D01*
X109053011Y-90175689D01*
X109009070Y-90119924D01*
X109000000Y-90072983D01*
X109000000Y-89952190D01*
X108980969Y-89856518D01*
X108944064Y-89767423D01*
X108889872Y-89686318D01*
X108687887Y-89484333D01*
X108663399Y-89449780D01*
X108647156Y-89415954D01*
X108647156Y-89415953D01*
X108643079Y-89407464D01*
X108547459Y-89304022D01*
X108539311Y-89299289D01*
X108433796Y-89238000D01*
X108433795Y-89238000D01*
X108425649Y-89233268D01*
X108372476Y-89220943D01*
X108294210Y-89202802D01*
X108294209Y-89202802D01*
X108288420Y-89201460D01*
X108251250Y-89200000D01*
X107802190Y-89200000D01*
X107769301Y-89206542D01*
X107763501Y-89207554D01*
X107701564Y-89216866D01*
X107683760Y-89219543D01*
X107683759Y-89219543D01*
X107674449Y-89220943D01*
X107547464Y-89281921D01*
X107444022Y-89377541D01*
X107439292Y-89385684D01*
X107417785Y-89422711D01*
X107397926Y-89448520D01*
X106926071Y-89920375D01*
X106901863Y-89948474D01*
X106879689Y-89978449D01*
X106835797Y-90076775D01*
X106821498Y-90146316D01*
X106822243Y-90155296D01*
X106822041Y-90158661D01*
X106797991Y-90225460D01*
X106732603Y-90267308D01*
X106733846Y-90270877D01*
X106725738Y-90273701D01*
X106717315Y-90275399D01*
X106582969Y-90343852D01*
X106576647Y-90349665D01*
X106576646Y-90349666D01*
X106478307Y-90440093D01*
X106471980Y-90445911D01*
X106392525Y-90574058D01*
X106350459Y-90718851D01*
X106350369Y-90727439D01*
X106349319Y-90827669D01*
X106328605Y-90895576D01*
X106272617Y-90939222D01*
X106273547Y-90941048D01*
X106139201Y-91009501D01*
X106028212Y-91111560D01*
X106023684Y-91118863D01*
X106023683Y-91118864D01*
X105966817Y-91210579D01*
X105948757Y-91239707D01*
X105946361Y-91247955D01*
X105912027Y-91366133D01*
X105873814Y-91425968D01*
X105791030Y-91456980D01*
X104676000Y-91456980D01*
X104607879Y-91436978D01*
X104561386Y-91383322D01*
X104550000Y-91330980D01*
X104550000Y-88876000D01*
X104570002Y-88807879D01*
X104623658Y-88761386D01*
X104676000Y-88750000D01*
X110299000Y-88750000D01*
X110367121Y-88770002D01*
G37*
G04 #@! TD.AperFunction*
G04 #@! TA.AperFunction,Conductor*
G36*
X101584464Y-91690372D02*
G01*
X101650688Y-91715962D01*
X101692565Y-91773294D01*
X101700000Y-91815937D01*
X101700000Y-91828036D01*
X101679998Y-91896157D01*
X101633829Y-91938925D01*
X101619678Y-91946560D01*
X101614392Y-91949254D01*
X101568719Y-91971185D01*
X101562811Y-91976152D01*
X101560866Y-91978097D01*
X101560347Y-91978573D01*
X101554298Y-91981837D01*
X101547230Y-91989483D01*
X101521385Y-92017442D01*
X101517955Y-92021008D01*
X100852015Y-92686949D01*
X100475869Y-93063095D01*
X100386774Y-93100000D01*
X100026000Y-93100000D01*
X99957879Y-93079998D01*
X99911386Y-93026342D01*
X99900000Y-92974000D01*
X99900000Y-91686937D01*
X99920002Y-91618816D01*
X99973658Y-91572323D01*
X100036464Y-91561372D01*
X101584464Y-91690372D01*
G37*
G04 #@! TD.AperFunction*
M02*
